<?xml version="1.0" encoding="UTF-8" standalone="no"?><!-- Generator: Gravit.io --><svg xmlns="http://www.w3.org/2000/svg" xmlns:xlink="http://www.w3.org/1999/xlink" style="isolation:isolate" viewBox="0 0 3628.346 2040.945" width="3628.346pt" height="2040.945pt"><defs><clipPath id="_clipPath_ZmnjfIHdDLahi2fqcaXQC7IP64AXSeyO"><rect width="3628.346" height="2040.945"/></clipPath></defs><g clip-path="url(#_clipPath_ZmnjfIHdDLahi2fqcaXQC7IP64AXSeyO)"><g><path d=" M 3285.361 644.659 C 3358.565 712.164 3432.24 779.2 3506.272 846.026 C 3474.08 894.191 3439.741 941.184 3406.9 989.012 C 3399.672 999.995 3390.788 1010.172 3384.943 1021.834 C 3385.603 1025.734 3389.783 1027.931 3392.517 1030.743 C 3432.691 1064.156 3472.006 1098.462 3511.248 1132.74 C 3436.284 1220.848 3359.906 1307.962 3285.298 1396.286 C 3284.806 1315.387 3286.367 1234.458 3284.502 1153.593 C 3277.379 1161.789 3273.785 1171.751 3268.872 1181.002 C 3245.323 1226.911 3222.476 1273.128 3198.402 1318.823 C 3184.952 1307.161 3171.574 1295.465 3158.124 1283.803 C 3193.322 1214.166 3229.243 1144.836 3264.137 1075.076 C 3199.513 1074.456 3134.888 1075.168 3070.264 1074.705 C 3113.969 982.73 3159.716 891.501 3203.211 799.433 C 3218.181 809.489 3231.181 821.614 3245.082 832.812 C 3216.284 892.956 3186.135 952.631 3158.061 1013.018 C 3200.477 1013.297 3242.903 1013.082 3285.361 1013.111 C 3285.256 890.295 3285.298 767.475 3285.361 644.659 Z  M 3332.973 788.113 C 3332.355 851.996 3332.041 915.908 3333.109 979.761 C 3343.69 969.706 3349.954 956.868 3358.628 945.548 C 3377.788 917.612 3398.32 890.417 3416.296 861.832 C 3387.74 837.981 3362.053 811.437 3332.973 788.113 Z  M 3333.004 1078.571 C 3332.313 1130.172 3332.041 1181.866 3333.151 1233.467 C 3342.485 1225.798 3349.43 1216.236 3357.245 1207.361 C 3375.19 1186.508 3393.166 1165.625 3411.362 1144.928 C 3385.697 1122.41 3360.775 1099.053 3333.004 1078.571 Z " fill="rgb(18,20,249)"/><path d=" M 215.046 846.397 C 217.885 842.096 220.231 834.115 227.596 836.868 C 240.292 842.961 250.318 852.708 261.066 861.183 C 241.424 903.1 216.848 943.132 196.588 984.867 C 245.75 985.639 294.913 984.96 344.117 985.175 C 343.048 989.539 341.938 993.961 339.696 998.013 C 303.461 1060.661 268.294 1123.831 232.645 1186.723 C 229.115 1191.921 226.873 1201.235 217.948 1199.375 C 205.23 1192.727 195.163 1182.764 184.583 1173.699 C 209.588 1126.057 238.731 1080.148 263.182 1032.261 C 214.459 1031.797 165.747 1033.066 117.098 1031.641 C 126.673 1008.84 140.533 987.713 151.396 965.376 C 172.766 925.778 193.749 886.024 215.046 846.397 Z " fill="rgb(1,1,1)"/><path d=" M 1674.904 849.985 C 1678.047 845.221 1686.721 844.2 1690.628 848.808 C 1725.376 884.755 1759.747 921.043 1794.736 956.838 C 1797.438 960.026 1802.446 964.512 1798.434 968.593 C 1790.828 978.99 1784.197 990.466 1773.575 998.633 C 1762.617 997.642 1757.882 986.908 1750.623 980.782 C 1735.579 966.611 1723.826 949.287 1706.049 937.718 C 1705.326 1022.732 1706.394 1107.776 1705.504 1192.819 C 1690.869 1193.313 1676.245 1193.254 1661.621 1192.849 C 1660.762 1107.898 1661.349 1022.918 1661.349 937.967 C 1652.392 941.555 1647.175 949.258 1640.879 955.54 C 1629.534 967.079 1618.545 978.897 1607.232 990.496 C 1602.842 994.303 1598.243 1000.8 1591.225 997.672 C 1582.268 987.001 1571.342 976.359 1566.89 963.58 C 1601.774 924.943 1639.287 888.128 1674.904 849.985 Z " fill="rgb(1,1,1)"/><path d=" M 370.495 938.153 C 390 937.718 409.464 937.659 428.928 938.245 C 429.933 1000.985 428.865 1063.722 429.483 1126.462 C 445.427 1126.706 461.402 1126.677 477.378 1126.584 C 478.101 1063.785 477.441 1000.952 477.682 938.123 C 497.145 937.752 516.651 937.625 536.146 938.275 C 537.121 1000.985 536.052 1063.722 536.67 1126.462 C 552.614 1126.706 568.579 1126.677 584.554 1126.584 C 585.288 1063.785 584.596 1000.985 584.869 938.182 C 604.374 937.718 623.87 937.689 643.375 938.182 C 643.962 1022.64 643.92 1107.127 643.375 1191.58 C 552.405 1191.706 461.402 1191.521 370.4 1191.673 C 370.599 1107.186 370.4 1022.669 370.495 938.153 Z " fill="rgb(1,1,1)"/><path d=" M 671.303 938.123 C 762.243 937.781 853.245 937.625 944.216 938.216 C 944.729 959.777 944.698 981.338 944.216 1002.9 C 853.214 1002.963 762.211 1002.807 671.209 1002.992 C 671.345 981.372 671.209 959.748 671.303 938.123 Z " fill="rgb(1,1,1)"/><path d=" M 971.212 938.275 C 997.704 937.659 1024.26 937.596 1050.743 938.308 C 1070.971 962.501 1088.288 988.514 1108.935 1012.428 C 1127.875 987.743 1146.312 962.745 1165.671 938.338 C 1192.259 937.625 1218.877 937.469 1245.475 938.46 C 1241.809 944.557 1237.828 950.497 1233.439 956.189 C 1203.908 993.839 1176.147 1032.539 1146.585 1070.155 C 1142.95 1075.291 1137.942 1080.396 1138.257 1086.864 C 1137.659 1121.757 1138.665 1156.687 1137.838 1191.614 C 1118.3 1191.706 1098.732 1191.58 1079.195 1191.706 C 1079.3 1157.737 1079.3 1123.738 1079.3 1089.769 C 1079.75 1077.458 1068.342 1068.734 1061.837 1058.865 C 1031.929 1018.461 1000.292 979.112 971.212 938.275 Z " fill="rgb(1,1,1)"/><path d=" M 1272.921 938.182 C 1340.793 937.469 1408.665 938.245 1476.537 937.781 C 1483.179 938.338 1492.093 936.39 1496.284 942.482 C 1511.39 959.777 1526.087 977.379 1541.057 994.767 C 1547.562 1001.416 1545.896 1010.699 1546.242 1018.803 C 1545.729 1076.408 1546.619 1134.009 1545.792 1191.614 C 1526.255 1191.706 1506.728 1191.614 1487.191 1191.706 C 1487.432 1143.288 1487.086 1094.904 1487.4 1046.49 C 1487.505 1040.305 1487.4 1033.652 1482.351 1028.825 C 1474.505 1020.443 1468.659 1009.953 1458.77 1003.46 C 1416.48 1002.314 1374.054 1002.933 1331.732 1003.212 C 1331.564 1066.011 1332.119 1128.81 1331.459 1191.614 C 1311.922 1191.706 1292.354 1191.58 1272.817 1191.706 C 1273.026 1107.186 1272.817 1022.669 1272.921 938.182 Z " fill="rgb(1,1,1)"/><path d=" M 1826.131 938.182 C 1917.071 937.718 2008.041 937.659 2098.97 938.216 C 2099.557 1022.669 2099.525 1107.156 2099.002 1191.614 C 2007.999 1191.706 1916.997 1191.521 1826.026 1191.706 C 1826.236 1107.219 1826.026 1022.703 1826.131 938.182 Z  M 1884.952 1003.212 C 1885.046 1044.294 1884.743 1085.376 1885.12 1126.491 C 1936.807 1126.77 1988.504 1126.521 2040.191 1126.614 C 2040.778 1085.439 2040.505 1044.23 2040.327 1003.056 C 1988.536 1002.9 1936.744 1002.621 1884.952 1003.212 Z " fill="rgb(1,1,1)"/><path d=" M 2126.94 938.182 C 2217.879 937.752 2308.808 937.625 2399.748 938.245 C 2400.439 1022.669 2400.292 1107.156 2399.811 1191.58 C 2308.84 1191.736 2217.838 1191.521 2126.877 1191.706 C 2127.013 1107.186 2126.835 1022.669 2126.94 938.182 Z  M 2185.751 1003.212 C 2185.824 1044.294 2185.583 1085.376 2185.897 1126.462 C 2237.584 1126.799 2289.313 1126.491 2341 1126.614 C 2341.618 1085.439 2341.346 1044.23 2341.168 1003.056 C 2289.345 1002.9 2237.553 1002.621 2185.751 1003.212 Z " fill="rgb(1,1,1)"/><path d=" M 2424.292 938.182 C 2515.221 937.752 2606.16 937.625 2697.089 938.245 C 2697.781 959.777 2697.644 981.372 2697.194 1002.933 C 2661.545 1003.148 2625.907 1002.499 2590.29 1003.212 C 2590.122 1066.011 2590.667 1128.81 2590.017 1191.614 C 2570.48 1191.706 2550.912 1191.614 2531.374 1191.706 C 2531.437 1128.81 2531.647 1065.948 2531.301 1003.056 C 2495.59 1002.748 2459.909 1002.963 2424.187 1002.992 C 2424.397 981.402 2424.187 959.777 2424.292 938.182 Z " fill="rgb(1,1,1)"/><path d=" M 2725.101 938.153 C 2744.596 937.718 2764.102 937.689 2783.597 938.182 C 2784.54 969.769 2783.252 1001.357 2784.257 1032.94 C 2835.64 1032.29 2887.086 1032.29 2938.501 1032.94 C 2940.68 1001.386 2938.815 969.74 2939.465 938.153 C 2958.939 937.718 2978.403 937.659 2997.898 938.245 C 2998.631 1022.669 2998.422 1107.156 2997.971 1191.614 C 2978.434 1191.736 2958.897 1191.58 2939.371 1191.706 C 2939.088 1160.149 2940.334 1128.566 2938.742 1097.042 C 2887.191 1097.349 2835.672 1097.286 2784.121 1097.071 C 2783.43 1128.595 2784.467 1160.09 2783.639 1191.614 C 2764.071 1191.673 2744.533 1191.614 2725.028 1191.706 C 2725.174 1107.186 2724.996 1022.669 2725.101 938.153 Z " fill="rgb(1,1,1)"/><path d=" M 671.167 1033.066 C 762.211 1032.134 853.276 1032.324 944.32 1032.973 C 944.561 1054.256 944.802 1075.539 944.142 1096.822 C 853.214 1097.472 762.211 1097.472 671.272 1096.822 C 671.241 1075.569 671.377 1054.32 671.167 1033.066 Z " fill="rgb(1,1,1)"/><path d=" M 671.303 1126.892 C 762.243 1126.428 853.214 1126.398 944.174 1126.926 C 944.729 1148.487 944.666 1170.048 944.216 1191.614 C 853.214 1191.706 762.211 1191.521 671.209 1191.706 C 671.345 1170.111 671.209 1148.487 671.303 1126.892 Z " fill="rgb(1,1,1)"/></g></g></svg>