<?xml version="1.0" encoding="UTF-8" standalone="no"?><!-- Generator: Gravit.io --><svg xmlns="http://www.w3.org/2000/svg" xmlns:xlink="http://www.w3.org/1999/xlink" style="isolation:isolate" viewBox="45.233 39.851 440.984 751.626" width="440.984pt" height="751.626pt"><path d=" M 260.33 39.851 C 333.534 107.355 407.209 174.392 481.241 241.217 C 449.049 289.383 414.71 336.376 381.868 384.203 C 374.64 395.186 365.757 405.364 359.911 417.026 C 360.571 420.926 364.751 423.122 367.485 425.935 C 407.659 459.347 446.975 493.654 486.217 527.931 C 411.253 616.04 334.874 703.154 260.267 791.477 C 259.774 710.578 261.335 629.65 259.471 548.784 C 252.347 556.98 248.754 566.943 243.841 576.193 C 220.292 622.103 197.444 668.32 173.371 714.014 C 159.92 702.352 146.543 690.657 133.092 678.995 C 168.29 609.357 204.211 540.027 239.106 470.267 C 174.481 469.647 109.857 470.36 45.233 469.896 C 88.937 377.921 134.684 286.693 178.179 194.625 C 193.149 204.68 206.149 216.806 220.051 228.004 C 191.253 288.147 161.104 347.822 133.029 408.21 C 175.445 408.488 217.872 408.273 260.33 408.303 C 260.225 285.487 260.267 162.667 260.33 39.851 Z  M 307.941 183.305 C 307.323 247.187 307.009 311.1 308.078 374.953 C 318.658 364.898 324.923 352.06 333.596 340.739 C 352.756 312.803 373.289 285.609 391.265 257.024 C 362.708 233.173 337.022 206.628 307.941 183.305 Z  M 307.973 473.762 C 307.282 525.364 307.009 577.058 308.12 628.659 C 317.453 620.99 324.399 611.427 332.214 602.552 C 350.158 581.699 368.135 560.817 386.331 540.12 C 360.666 517.602 335.744 494.244 307.973 473.762 Z " fill="rgb(38,166,154)"/></svg>