<svg height="138.959991pt" viewBox="0 0 172.08 138.959991" width="172.08pt" xmlns="http://www.w3.org/2000/svg" xmlns:xlink="http://www.w3.org/1999/xlink"><clipPath id="a"><path d="m0 0h172v138.894531h-172zm0 0"/></clipPath><clipPath id="b"><path d="m2 11h168v125.738281h-168zm0 0"/></clipPath><clipPath id="c"><path d="m135 101h36v35.738281h-36zm0 0"/></clipPath><clipPath id="d"><path d="m136 4h36v48h-36zm0 0"/></clipPath><clipPath id="e"><path d="m90 104h47v32.738281h-47zm0 0"/></clipPath><symbol id="f" overflow="visible"><path d="m.640625 0v-6.1875h1.234375l1.46875 4.375c.132812.417969.226562.726562.28125.921875.070312-.226563.1875-.554687.34375-.984375l1.46875-4.3125h1.109375v6.1875h-.796875v-5.171875l-1.796875 5.171875h-.734375l-1.78125-5.265625v5.265625zm0 0"/></symbol><symbol id="g" overflow="visible"><path d="m3.5-.546875c-.28125.242187-.554688.40625-.8125.5-.261719.09375-.542969.140625-.84375.140625-.492188 0-.871094-.1171875-1.140625-.359375-.261719-.238281-.390625-.546875-.390625-.921875 0-.21875.046875-.414062.140625-.59375.101563-.175781.234375-.320312.390625-.4375.164062-.113281.351562-.195312.5625-.25.144531-.039062.367188-.078125.671875-.109375.613281-.070313 1.066406-.160156 1.359375-.265625 0-.101562 0-.171875 0-.203125 0-.300781-.074219-.519531-.21875-.65625-.199219-.164063-.484375-.25-.859375-.25-.367187 0-.632813.0625-.796875.1875-.167969.125-.292969.351563-.375.671875l-.75-.109375c.070312-.3125.1875-.566406.34375-.765625.15625-.195312.378906-.347656.671875-.453125.289063-.101563.628906-.15625 1.015625-.15625.375 0 .679688.046875.921875.140625.238281.085938.414063.195312.53125.328125.113281.136719.191406.308594.234375.515625.03125.136719.046875.371094.046875.703125v1.015625c0 .710938.015625 1.15625.046875 1.34375s.09375.367188.1875.53125h-.796875c-.074219-.15625-.121094-.335938-.140625-.546875zm-.0625-1.703125c-.28125.117188-.699219.210938-1.25.28125-.3125.054688-.539062.109375-.671875.171875-.125.054687-.226563.132813-.296875.234375-.0625.105469-.09375.226562-.09375.359375 0 .199219.070312.367187.21875.5.15625.136719.382812.203125.6875.203125.289062 0 .546875-.0625.765625-.1875.226563-.125.398437-.296875.515625-.515625.082031-.175781.125-.429687.125-.765625zm0 0"/></symbol><symbol id="h" overflow="visible"><path d="m.265625-1.34375.75-.109375c.039063.304687.15625.539063.34375.703125.195313.15625.46875.234375.8125.234375.351563 0 .613281-.070313.78125-.21875.164063-.144531.25-.3125.25-.5 0-.175781-.074219-.3125-.21875-.40625-.105469-.070313-.367187-.160156-.78125-.265625-.554687-.132812-.9375-.253906-1.15625-.359375-.21875-.101563-.386719-.242187-.5-.421875-.105469-.1875-.15625-.390625-.15625-.609375 0-.195313.046875-.378906.140625-.546875.09375-.164062.21875-.304688.375-.421875.113281-.09375.269531-.164063.46875-.21875.207031-.0625.429688-.09375.671875-.09375.34375 0 .644531.054687.90625.15625.269531.09375.46875.230469.59375.40625.132813.167969.222656.398437.265625.6875l-.734375.109375c-.03125-.226562-.132813-.40625-.296875-.53125-.15625-.132812-.386719-.203125-.6875-.203125-.34375 0-.59375.058594-.75.171875-.148438.117188-.21875.25-.21875.40625 0 .09375.03125.183594.09375.265625.0625.085937.160156.152344.296875.203125.070313.023438.296875.085938.671875.1875.53125.148438.898438.265625 1.109375.359375.21875.085937.382813.214844.5.390625.125.179688.1875.398438.1875.65625 0 .25-.074219.492188-.21875.71875-.148437.21875-.359375.390625-.640625.515625-.28125.1132812-.59375.171875-.9375.171875-.585938 0-1.03125-.1171875-1.34375-.359375-.304688-.238281-.496094-.597656-.578125-1.078125zm0 0"/></symbol><symbol id="i" overflow="visible"><path d="m2.234375-.671875.109375.65625c-.21875.0507812-.414062.078125-.578125.078125-.28125 0-.5-.0429688-.65625-.125-.148437-.09375-.25-.207031-.3125-.34375-.0625-.144531-.09375-.445312-.09375-.90625v-2.578125h-.546875v-.59375h.546875v-1.109375l.765625-.453125v1.5625h.765625v.59375h-.765625v2.625c0 .21875.007812.359375.03125.421875.03125.054688.070312.101562.125.140625.0625.03125.148438.046875.265625.046875.082031 0 .195313-.003906.34375-.015625zm0 0"/></symbol><symbol id="j" overflow="visible"><path d="m3.640625-1.4375.78125.09375c-.125.460938-.355469.8125-.6875 1.0625-.335937.25-.761719.375-1.28125.375-.65625 0-1.179687-.195312-1.5625-.59375-.386719-.40625-.578125-.972656-.578125-1.703125 0-.75.191406-1.332031.578125-1.75.394531-.414063.898437-.625 1.515625-.625.601562 0 1.09375.203125 1.46875.609375.382812.40625.578125.980469.578125 1.71875 0 .042969-.007813.109375-.015625.203125h-3.34375c.03125.492187.171875.871094.421875 1.140625.25.261719.5625.390625.9375.390625.28125 0 .519531-.070313.71875-.21875.195313-.15625.351563-.390625.46875-.703125zm-2.5-1.234375h2.5c-.03125-.375-.125-.65625-.28125-.84375-.242187-.289063-.554687-.4375-.9375-.4375-.355469 0-.652344.121094-.890625.359375-.230469.230469-.359375.539062-.390625.921875zm0 0"/></symbol><symbol id="k" overflow="visible"><path d="m.5625 0v-4.484375h.6875v.6875c.164062-.320313.320312-.53125.46875-.625.15625-.101563.320312-.15625.5-.15625.25 0 .507812.078125.78125.234375l-.265625.71875c-.1875-.113281-.375-.171875-.5625-.171875-.167969 0-.320313.054687-.453125.15625-.125.09375-.214844.230469-.265625.40625-.085937.273437-.125.570313-.125.890625v2.34375zm0 0"/></symbol><symbol id="l" overflow="visible"/><symbol id="m" overflow="visible"><path d="m2.015625 1.8125c-.417969-.523438-.773437-1.136719-1.0625-1.84375-.292969-.707031-.4375-1.441406-.4375-2.203125 0-.675781.109375-1.320313.328125-1.9375.257812-.707031.648438-1.414063 1.171875-2.125h.546875c-.34375.59375-.570312 1.015625-.671875 1.265625-.179687.386719-.3125.789062-.40625 1.203125-.125.53125-.1875 1.0625-.1875 1.59375 0 1.355469.421875 2.703125 1.265625 4.046875zm0 0"/></symbol><symbol id="n" overflow="visible"><path d="m-.015625 0 2.375-6.1875h.890625l2.53125 6.1875h-.9375l-.71875-1.875h-2.59375l-.671875 1.875zm1.78125-2.546875h2.109375l-.65625-1.703125c-.199219-.519531-.34375-.945312-.4375-1.28125-.074219.398438-.183594.789062-.328125 1.171875zm0 0"/></symbol><symbol id="o" overflow="visible"><path d="m3.5-1.640625.734375.09375c-.074219.523437-.28125.929687-.625 1.21875-.335937.28125-.746094.421875-1.234375.421875-.617188 0-1.109375-.195312-1.484375-.59375-.367187-.394531-.546875-.96875-.546875-1.71875 0-.488281.078125-.910156.234375-1.265625.15625-.363281.394531-.632813.71875-.8125.332031-.1875.691406-.28125 1.078125-.28125.488281 0 .882812.125 1.1875.375.3125.242187.515625.585937.609375 1.03125l-.734375.125c-.074219-.300781-.203125-.523437-.390625-.671875-.179687-.15625-.390625-.234375-.640625-.234375-.386719 0-.699219.136719-.9375.40625-.230469.273437-.34375.703125-.34375 1.296875 0 .605469.113281 1.046875.34375 1.328125.226562.273437.523438.40625.890625.40625.300781 0 .550781-.09375.75-.28125.195313-.1875.328125-.46875.390625-.84375zm0 0"/></symbol><symbol id="p" overflow="visible"><path d="m.578125 0v-6.1875h.75v3.53125l1.796875-1.828125h.984375l-1.703125 1.671875 1.875 2.8125h-.9375l-1.46875-2.296875-.546875.515625v1.78125zm0 0"/></symbol><symbol id="q" overflow="visible"><path d="m1.0625 1.8125h-.546875c.84375-1.34375 1.265625-2.691406 1.265625-4.046875 0-.53125-.058594-1.054687-.171875-1.578125-.105469-.414062-.242187-.820312-.40625-1.21875-.117187-.25-.34375-.671875-.6875-1.265625h.546875c.53125.710937.921875 1.417969 1.171875 2.125.21875.617187.328125 1.261719.328125 1.9375 0 .761719-.148438 1.496094-.4375 2.203125-.292969.707031-.648438 1.320312-1.0625 1.84375zm0 0"/></symbol><symbol id="r" overflow="visible"><path d="m.390625-1.984375.765625-.0625c.039062.304687.125.554687.25.75.132812.199219.34375.359375.625.484375s.597656.1875.953125.1875c.3125 0 .585937-.046875.828125-.140625.238281-.09375.414062-.21875.53125-.375.113281-.164063.171875-.34375.171875-.53125 0-.195313-.058594-.367187-.171875-.515625-.105469-.144531-.289062-.265625-.546875-.359375-.167969-.070313-.539063-.175781-1.109375-.3125-.5625-.132813-.960938-.257813-1.1875-.375-.292969-.15625-.511719-.347656-.65625-.578125-.148438-.226562-.21875-.488281-.21875-.78125 0-.300781.085938-.585938.265625-.859375.175781-.28125.429687-.488281.765625-.625.34375-.144531.722656-.21875 1.140625-.21875.457031 0 .863281.078125 1.21875.234375.351563.148438.625.367188.8125.65625.1875.28125.285156.605469.296875.96875l-.78125.046875c-.042969-.382813-.1875-.675781-.4375-.875-.242188-.195313-.601562-.296875-1.078125-.296875-.492187 0-.851563.089844-1.078125.265625-.230469.179687-.34375.398437-.34375.65625 0 .21875.082031.402344.25.546875.15625.148438.566406.296875 1.234375.453125.664063.148437 1.117187.277344 1.359375.390625.363281.15625.628906.367188.796875.625.175781.25.265625.542969.265625.875 0 .335938-.09375.648438-.28125.9375-.1875.292969-.460938.523438-.8125.6875-.355469.15625-.75.234375-1.1875.234375-.5625 0-1.039062-.0859375-1.421875-.25-.375-.164063-.671875-.410156-.890625-.734375-.210938-.320312-.320312-.691406-.328125-1.109375zm0 0"/></symbol><symbol id="s" overflow="visible"><path d="m.546875 0v-6.1875h.765625v6.1875zm0 0"/></symbol><symbol id="t" overflow="visible"><path d="m1.8125 0-1.703125-4.484375h.796875l.96875 2.6875c.101562.292969.195312.59375.28125.90625.070312-.238281.164062-.523437.28125-.859375l1-2.734375h.78125l-1.703125 4.484375zm0 0"/></symbol><symbol id="u" overflow="visible"><path d="m.640625 0v-6.1875h.8125v5.453125h3.046875v.734375zm0 0"/></symbol><symbol id="v" overflow="visible"><path d="m.671875 0v-6.1875h2.328125c.40625 0 .71875.023438.9375.0625.300781.054688.554688.152344.765625.296875.207031.136719.375.335937.5.59375.125.25.1875.53125.1875.84375 0 .523437-.167969.964844-.5 1.328125-.335937.367188-.9375.546875-1.8125.546875h-1.59375v2.515625zm.8125-3.25h1.59375c.53125 0 .90625-.09375 1.125-.28125.226563-.195312.34375-.476562.34375-.84375 0-.257812-.070313-.476562-.203125-.65625-.125-.1875-.296875-.3125-.515625-.375-.136719-.03125-.390625-.046875-.765625-.046875h-1.578125zm0 0"/></symbol><symbol id="w" overflow="visible"><path d="m-.125 1.71875v-.546875h5.03125v.546875zm0 0"/></symbol><symbol id="x" overflow="visible"><path d="m3.5 0v-.65625c-.34375.5-.820312.75-1.421875.75-.261719 0-.507813-.046875-.734375-.140625-.230469-.101563-.402344-.226563-.515625-.375-.105469-.15625-.183594-.347656-.234375-.578125-.03125-.144531-.046875-.378906-.046875-.703125v-2.78125h.765625v2.484375c0 .398438.015625.667969.046875.8125.050781.199219.148437.355469.296875.46875.15625.117188.347656.171875.578125.171875.226563 0 .441406-.054687.640625-.171875.195312-.125.335938-.285156.421875-.484375.082031-.195313.125-.488281.125-.875v-2.40625h.765625v4.484375zm0 0"/></symbol><symbol id="y" overflow="visible"><path d="m.5625 0v-4.484375h.6875v.640625c.332031-.488281.804688-.734375 1.421875-.734375.269531 0 .519531.046875.75.140625.226563.09375.394531.226562.5.390625.113281.15625.195313.339844.25.546875.019531.148438.03125.398438.03125.75v2.75h-.75v-2.71875c0-.3125-.03125-.546875-.09375-.703125-.054687-.15625-.15625-.273437-.3125-.359375-.148437-.09375-.324219-.140625-.53125-.140625-.324219 0-.605469.105469-.84375.3125-.230469.199219-.34375.585937-.34375 1.15625v2.453125zm0 0"/></symbol><symbol id="z" overflow="visible"><path d="m3.46875 0v-.5625c-.28125.4375-.699219.65625-1.25.65625-.355469 0-.683594-.09375-.984375-.28125-.304687-.195312-.539063-.472656-.703125-.828125-.15625-.351563-.234375-.757813-.234375-1.21875 0-.445313.070313-.851563.21875-1.21875.15625-.363281.378906-.640625.671875-.828125.300781-.195312.632812-.296875 1-.296875.269531 0 .507812.058594.71875.171875.21875.117188.390625.261719.515625.4375v-2.21875h.765625v6.1875zm-2.390625-2.234375c0 .574219.117187 1.007813.359375 1.296875.238281.28125.523438.421875.859375.421875.332031 0 .613281-.132813.84375-.40625.226563-.28125.34375-.695313.34375-1.25 0-.613281-.121094-1.0625-.359375-1.34375-.230469-.289063-.515625-.4375-.859375-.4375s-.632813.140625-.859375.421875c-.21875.273438-.328125.703125-.328125 1.296875zm0 0"/></symbol><symbol id="A" overflow="visible"><path d="m.4375.375.734375.109375c.03125.226563.113281.394531.25.5.1875.132813.445313.203125.78125.203125.34375 0 .609375-.074219.796875-.21875.195312-.136719.332031-.328125.40625-.578125.03125-.15625.046875-.484375.046875-.984375-.335937.398438-.746094.59375-1.234375.59375-.617188 0-1.09375-.21875-1.4375-.65625-.335938-.445312-.5-.984375-.5-1.609375 0-.425781.078125-.816406.234375-1.171875.15625-.363281.378906-.644531.671875-.84375.289062-.195312.632812-.296875 1.03125-.296875.53125 0 .96875.214844 1.3125.640625v-.546875h.703125v3.875c0 .6953125-.074219 1.191406-.21875 1.484375-.148437.289062-.375.519531-.6875.6875-.304687.164062-.679687.25-1.125.25-.53125 0-.964844-.121094-1.296875-.359375-.335938-.242187-.492188-.601563-.46875-1.078125zm.625-2.703125c0 .59375.113281 1.027344.34375 1.296875.238281.273438.53125.40625.875.40625.351562 0 .644531-.132812.875-.40625.238281-.269531.359375-.691406.359375-1.265625 0-.550781-.125-.960937-.375-1.234375-.242187-.28125-.527344-.421875-.859375-.421875-.34375 0-.636719.140625-.875.421875-.230469.273438-.34375.671875-.34375 1.203125zm0 0"/></symbol><symbol id="B" overflow="visible"><path d="m.578125-5.3125v-.875h.75v.875zm0 5.3125v-4.484375h.75v4.484375zm0 0"/></symbol><symbol id="C" overflow="visible"><path d="m.28125-2.234375c0-.832031.234375-1.445313.703125-1.84375.382813-.332031.851563-.5 1.40625-.5.613281 0 1.113281.203125 1.5.609375.394531.398438.59375.953125.59375 1.671875 0 .574219-.089844 1.027344-.265625 1.359375-.167969.324219-.417969.578125-.75.765625-.335938.17578125-.695312.265625-1.078125.265625-.625 0-1.136719-.195312-1.53125-.59375-.386719-.40625-.578125-.984375-.578125-1.734375zm.78125 0c0 .574219.125 1.007813.375 1.296875.25.28125.566406.421875.953125.421875.375 0 .6875-.144531.9375-.4375.25-.289063.375-.726563.375-1.3125 0-.550781-.125-.96875-.375-1.25-.25-.289063-.5625-.4375-.9375-.4375-.386719 0-.703125.148437-.953125.4375-.25.28125-.375.710937-.375 1.28125zm0 0"/></symbol><symbol id="D" overflow="visible"><path d="m.5625 1.71875v-6.203125h.703125v.59375c.15625-.226563.335937-.398437.546875-.515625.207031-.113281.457031-.171875.75-.171875.382812 0 .722656.101563 1.015625.296875.289063.199219.507813.476562.65625.828125.144531.355469.21875.746094.21875 1.171875 0 .460938-.085937.875-.25 1.25-.15625.367188-.390625.648438-.703125.84375-.3125.1875-.648438.28125-1 .28125-.25 0-.480469-.0546875-.6875-.15625-.199219-.101562-.359375-.238281-.484375-.40625v2.1875zm.6875-3.9375c0 .585938.113281 1.015625.34375 1.296875.238281.273437.523438.40625.859375.40625.34375 0 .632813-.140625.875-.421875.238281-.289062.359375-.738281.359375-1.34375 0-.570312-.121094-1-.359375-1.28125-.230469-.28125-.511719-.421875-.84375-.421875-.324219 0-.609375.152344-.859375.453125-.25.304688-.375.742188-.375 1.3125zm0 0"/></symbol><symbol id="E" overflow="visible"><path d="m3.828125-1.890625 1 .3125c-.15625.5625-.417969.984375-.78125 1.265625-.355469.2734375-.808594.40625-1.359375.40625-.6875 0-1.25-.234375-1.6875-.703125s-.65625-1.109375-.65625-1.921875c0-.851562.21875-1.519531.65625-2 .445312-.476562 1.03125-.71875 1.75-.71875.632812 0 1.148438.1875 1.546875.5625.226563.21875.398437.539062.515625.953125l-1.03125.25c-.054688-.269531-.179688-.484375-.375-.640625-.199219-.15625-.433594-.234375-.703125-.234375-.386719 0-.699219.140625-.9375.421875-.242187.273438-.359375.714844-.359375 1.328125 0 .65625.117188 1.125.359375 1.40625.238281.273437.546875.40625.921875.40625.269531 0 .503906-.085937.703125-.265625.195313-.175781.34375-.453125.4375-.828125zm0 0"/></symbol><symbol id="F" overflow="visible"><path d="m1.46875 0h-1v-3.734375h.921875v.53125c.15625-.25.296875-.410156.421875-.484375.125-.082031.269531-.125.4375-.125.21875 0 .429688.058594.640625.171875l-.296875.875c-.167969-.113281-.324219-.171875-.46875-.171875-.136719 0-.257812.042969-.359375.125-.09375.074219-.167969.210938-.21875.40625-.054687.199219-.078125.617188-.078125 1.25zm0 0"/></symbol><symbol id="G" overflow="visible"><path d="m1.25-2.59375-.890625-.15625c.101563-.363281.273437-.628906.515625-.796875.25-.175781.617188-.265625 1.109375-.265625.4375 0 .757813.054688.96875.15625.21875.105469.367187.234375.453125.390625.09375.15625.140625.453125.140625.890625l-.015625 1.140625c0 .335937.015625.578125.046875.734375.039063.15625.101563.324219.1875.5h-.984375c-.023438-.0625-.054688-.160156-.09375-.296875-.011719-.050781-.023438-.085937-.03125-.109375-.167969.167969-.351562.292969-.546875.375-.1875.0703125-.390625.109375-.609375.109375-.386719 0-.695312-.1015625-.921875-.3125-.21875-.207031-.328125-.46875-.328125-.78125 0-.21875.050781-.40625.15625-.5625.101562-.164063.242188-.289063.421875-.375.1875-.09375.453125-.171875.796875-.234375.457031-.09375.773438-.175781.953125-.25v-.09375c0-.195312-.046875-.332031-.140625-.40625-.09375-.082031-.273438-.125-.53125-.125-.179688 0-.320312.039062-.421875.109375-.09375.0625-.171875.183594-.234375.359375zm1.328125.796875c-.125.042969-.328125.09375-.609375.15625-.273438.0625-.449219.121094-.53125.171875-.125.09375-.1875.210938-.1875.34375 0 .136719.046875.257812.140625.359375.101563.105469.238281.15625.40625.15625.175781 0 .34375-.054687.5-.171875.125-.09375.207031-.203125.25-.328125.019531-.082031.03125-.242187.03125-.484375zm0 0"/></symbol><symbol id="H" overflow="visible"><path d="m.171875-1.0625.984375-.15625c.039062.199219.125.351562.25.453125.132812.09375.316406.140625.546875.140625.257813 0 .453125-.046875.578125-.140625.09375-.070313.140625-.160156.140625-.265625 0-.070312-.027344-.132812-.078125-.1875-.054688-.050781-.164062-.09375-.328125-.125-.804687-.175781-1.308594-.335938-1.515625-.484375-.292969-.207031-.4375-.488281-.4375-.84375 0-.320313.125-.59375.375-.8125.257812-.21875.65625-.328125 1.1875-.328125.507812 0 .890625.085938 1.140625.25.25.167969.421875.414062.515625.734375l-.9375.171875c-.03125-.144531-.105469-.253906-.21875-.328125-.117188-.082031-.277344-.125-.484375-.125-.261719 0-.445313.039063-.546875.109375-.085938.054688-.125.121094-.125.203125 0 .074219.035156.132813.109375.171875.082031.074219.382813.171875.90625.296875.53125.117187.898437.257813 1.109375.421875.207031.179688.3125.421875.3125.734375 0 .34375-.148438.640625-.4375.890625-.28125.2421875-.703125.359375-1.265625.359375-.5 0-.902344-.0976562-1.203125-.296875-.292969-.207031-.484375-.488281-.578125-.84375zm0 0"/></symbol><symbol id="I" overflow="visible"><path d="m1.5-5.15625v1.890625c.320312-.363281.703125-.546875 1.140625-.546875.226563 0 .429687.042969.609375.125.1875.085938.328125.195312.421875.328125.09375.125.15625.273437.1875.4375.039063.15625.0625.402344.0625.734375v2.1875h-1v-1.96875c0-.394531-.023437-.644531-.0625-.75-.03125-.101562-.09375-.1875-.1875-.25s-.214844-.09375-.359375-.09375c-.167969 0-.3125.042969-.4375.125-.125.074219-.21875.195312-.28125.359375-.0625.15625-.09375.390625-.09375.703125v1.875h-.984375v-5.15625zm0 0"/></symbol><symbol id="J" overflow="visible"><path d="m.515625-5.15625h1.90625c.425781 0 .753906.03125.984375.09375.300781.09375.554688.257812.765625.484375.21875.230469.382813.511719.5.84375.113281.324219.171875.726563.171875 1.203125 0 .429688-.054688.792969-.15625 1.09375-.136719.375-.324219.683594-.5625.921875-.179688.179687-.417969.3125-.71875.40625-.230469.0742188-.539062.109375-.921875.109375h-1.96875zm1.046875.875v3.40625h.78125c.289062 0 .5-.015625.625-.046875.164062-.039063.304688-.109375.421875-.203125.113281-.101562.203125-.269531.265625-.5.070312-.238281.109375-.554688.109375-.953125 0-.394531-.039063-.695313-.109375-.90625-.0625-.21875-.164062-.382813-.296875-.5-.125-.125-.28125-.207031-.46875-.25-.148437-.03125-.433594-.046875-.859375-.046875zm0 0"/></symbol><symbol id="K" overflow="visible"><path d="m2.96875 0v-.5625c-.136719.199219-.3125.355469-.53125.46875-.21875.1132812-.453125.171875-.703125.171875s-.476563-.0546875-.671875-.15625c-.199219-.113281-.34375-.269531-.4375-.46875-.085938-.195313-.125-.472656-.125-.828125v-2.359375h.984375v1.71875c0 .523437.015625.84375.046875.96875.039062.117187.109375.210937.203125.28125.09375.0625.21875.09375.375.09375.164063 0 .3125-.046875.4375-.140625.132813-.09375.226563-.207031.28125-.34375.050781-.132812.078125-.46875.078125-1v-1.578125h.984375v3.734375zm0 0"/></symbol><symbol id="L" overflow="visible"><path d="m.484375-3.734375h.921875v.546875c.125-.1875.285156-.335938.484375-.453125.207031-.113281.4375-.171875.6875-.171875.425781 0 .789063.171875 1.09375.515625.300781.335937.453125.804687.453125 1.40625 0 .625-.152344 1.109375-.453125 1.453125-.304687.34375-.671875.515625-1.109375.515625-.199219 0-.386719-.0390625-.5625-.109375-.167969-.082031-.339844-.222656-.515625-.421875v1.875h-1zm.984375 1.796875c0 .429688.082031.742188.25.9375.164062.199219.367188.296875.609375.296875.226563 0 .414063-.085937.5625-.265625.15625-.1875.234375-.488281.234375-.90625 0-.394531-.078125-.6875-.234375-.875s-.351563-.28125-.578125-.28125c-.25 0-.453125.09375-.609375.28125-.15625.179688-.234375.449219-.234375.8125zm0 0"/></symbol><symbol id="M" overflow="visible"><path d="m.515625 0v-5.15625h.984375v5.15625zm0 0"/></symbol><symbol id="N" overflow="visible"><path d="m.515625-4.234375v-.921875h.984375v.921875zm0 4.234375v-3.734375h.984375v3.734375zm0 0"/></symbol><symbol id="O" overflow="visible"><path d="m3.78125-2.625-.984375.171875c-.03125-.195313-.105469-.34375-.21875-.4375-.117187-.101563-.265625-.15625-.453125-.15625-.25 0-.449219.089844-.59375.265625-.148438.167969-.21875.449219-.21875.84375 0 .449219.070312.765625.21875.953125.15625.179687.359375.265625.609375.265625.1875 0 .335937-.050781.453125-.15625.125-.113281.210938-.300781.265625-.5625l.96875.171875c-.105469.449219-.304687.789063-.59375 1.015625-.28125.21875-.664063.328125-1.140625.328125-.554688 0-.992188-.171875-1.3125-.515625-.324219-.34375-.484375-.816406-.484375-1.421875 0-.625.160156-1.101563.484375-1.4375.332031-.34375.773438-.515625 1.328125-.515625.457031 0 .816406.101562 1.078125.296875.269531.1875.46875.484375.59375.890625zm0 0"/></symbol><symbol id="P" overflow="visible"><path d="m2.234375-3.734375v.78125h-.6875v1.515625c0 .304688.003906.480469.015625.53125.019531.054688.050781.09375.09375.125.050781.03125.109375.046875.171875.046875.09375 0 .222656-.03125.390625-.09375l.09375.765625c-.230469.09375-.492188.140625-.78125.140625-.179688 0-.339844-.0273438-.484375-.078125-.148437-.0625-.25-.140625-.3125-.234375s-.109375-.222656-.140625-.390625c-.023438-.113281-.03125-.34375-.03125-.6875v-1.640625h-.453125v-.78125h.453125v-.75l.984375-.5625v1.3125zm0 0"/></symbol><symbol id="Q" overflow="visible"><path d="m2.6875-1.1875.984375.15625c-.136719.367188-.339844.640625-.609375.828125-.273438.1875-.609375.28125-1.015625.28125-.65625 0-1.140625-.207031-1.453125-.625-.242188-.34375-.359375-.773437-.359375-1.296875 0-.613281.160156-1.09375.484375-1.4375.320312-.351562.726562-.53125 1.21875-.53125.5625 0 1 .183594 1.3125.546875.320312.367187.476562.929687.46875 1.6875h-2.484375c.007813.292969.085937.523437.234375.6875.15625.15625.347656.234375.578125.234375.15625 0 .285156-.039062.390625-.125.101562-.082031.1875-.21875.25-.40625zm.046875-1c-.011719-.28125-.089844-.492188-.234375-.640625-.136719-.15625-.304688-.234375-.5-.234375-.21875 0-.398438.078125-.53125.234375-.148438.15625-.214844.371094-.203125.640625zm0 0"/></symbol><symbol id="R" overflow="visible"><path d="m3.9375 0h-.90625v-.546875c-.15625.210937-.339844.367187-.546875.46875-.210937.1015625-.417969.15625-.625.15625-.429687 0-.796875-.171875-1.109375-.515625-.304688-.34375-.453125-.820312-.453125-1.4375 0-.632812.144531-1.113281.4375-1.4375.300781-.332031.679687-.5 1.140625-.5.414062 0 .773438.171875 1.078125.515625v-1.859375h.984375zm-2.625-1.953125c0 .40625.050781.699219.15625.875.15625.25.378906.375.671875.375.226563 0 .421875-.09375.578125-.28125.15625-.195313.234375-.488281.234375-.875 0-.425781-.078125-.734375-.234375-.921875-.148438-.1875-.34375-.28125-.59375-.28125-.230469 0-.421875.09375-.578125.28125s-.234375.464844-.234375.828125zm0 0"/></symbol><g clip-path="url(#a)"><path d="m0 0h172v138.894531h-172zm0 0" fill="#fff"/></g><path d="m10.398438 15.472656h151.203124c.472657 0 .925782.089844 1.363282.269532.4375.183593.820312.441406 1.15625.773437.332031.335937.589844.71875.769531 1.15625.183594.4375.273437.890625.273437 1.363281v111.621094c0 .472656-.089843.925781-.273437 1.363281-.179687.433594-.4375.820313-.769531 1.15625-.335938.332031-.71875.589844-1.15625.769531-.4375.183594-.890625.273438-1.363282.273438h-151.203124c-.472657 0-.925782-.089844-1.363282-.273438-.4375-.179687-.820312-.4375-1.15625-.769531-.332031-.335937-.589844-.722656-.769531-1.15625-.183594-.4375-.273437-.890625-.273437-1.363281v-111.621094c0-.472656.089843-.925781.273437-1.363281.179687-.4375.4375-.820313.769531-1.15625.335938-.332031.71875-.589844 1.15625-.773437.4375-.179688.890625-.269532 1.363282-.269532zm0 0" fill="#dae8fc" fill-opacity=".302"/><g clip-path="url(#b)"><path d="m13.948992 20.999797h210.102026c.656772 0 1.286405.124841 1.894327.374523.607921.25511 1.139853.613349 1.606649 1.074718.461369.466797.819609.998728 1.069291 1.60665.25511.607921.379951 1.237554.379951 1.894327v155.10141c0 .656772-.124841 1.286405-.379951 1.894327-.249682.602493-.607922 1.139853-1.069291 1.606649-.466796.461369-.998728.819609-1.606649 1.069291-.607922.25511-1.237555.379951-1.894327.379951h-210.102026c-.656772 0-1.286405-.124841-1.894327-.379951-.607921-.249682-1.139853-.607922-1.606649-1.069291-.461369-.466796-.819609-1.004156-1.069291-1.606649-.25511-.607922-.379951-1.237555-.379951-1.894327v-155.10141c0-.656773.124841-1.286406.379951-1.894327.249682-.607922.607922-1.139853 1.069291-1.60665.466796-.461369.998728-.819608 1.606649-1.074718.607922-.249682 1.237555-.374523 1.894327-.374523zm0 0" fill="none" stroke="#6c8ebf" stroke-opacity=".302" transform="matrix(.719665 0 0 .719665 .359833 .359833)"/></g><path d="m150.351562 2.988281c-.199218.183594-.515624.214844-.742187-.050781-.15625-.210938-.078125-.453125.050781-.578125.777344-.746094 2.007813-1.28125 3.304688-1.265625 1.503906.023438 2.582031.625 3.28125 1.273438.214844.222656.152344.503906-.035156.640624-.222657.164063-.496094.164063-.691407-.035156-.632812-.582031-1.511719-.972656-2.476562-.992187-.90625-.023438-1.882813.25-2.691407 1.007812zm1.238282 1.242188c-.207032.179687-.511719.152343-.691406-.054688-.121094-.144531-.164063-.390625.023437-.578125.496094-.496094 1.257813-.796875 2.015625-.796875.832031.011719 1.539062.34375 2.011719.839844.160156.214844.089843.441406-.0625.582031-.128907.144532-.445313.203125-.675781-.019531-.324219-.300781-.777344-.496094-1.28125-.496094-.511719 0-.992188.1875-1.339844.523438zm10.335937 12.949219h-17.992187v-11.992188h17.992187zm-7.003906.941406c.164063.179687.136719.402344.015625.546875-.511719.5625-1.304688.820312-1.980469.820312-.785156 0-1.503906-.28125-2.027343-.777343-.175782-.171876-.203126-.4375.035156-.648438.199218-.164062.460937-.136719.632812.015625.300782.289063.769532.523437 1.34375.519531.628906-.015625 1.046875-.28125 1.339844-.554687.121094-.09375.417969-.171875.640625.078125zm1.296875 1.792968c-.800781.796876-2 1.316407-3.277344 1.316407-1.207031 0-2.410156-.425781-3.332031-1.324219-.105469-.117188-.207031-.382812.050781-.621094.203125-.164062.484375-.15625.671875.039063.683594.625 1.566407.992187 2.609375 1 1.203125-.023438 2.046875-.527344 2.578125-1.015625.160157-.144532.425781-.214844.667969-.007813.160156.160157.210938.402344.03125.613281zm0 0" fill="#5294cf"/><path d="m143.933594 16.457031h17.992187v.722657h-17.992187zm0 0" fill-opacity=".302"/><path d="m161.925781 13.933594h-3.03125c-.179687 0-.351562-.160156-.351562-.347656v-1.265626c-.203125-.078124-.535157-.332031-.535157-.769531 0-.453125.390626-.828125.914063-.828125.398437 0 .871094.308594.871094.828125 0 .34375-.214844.632813-.53125.769531v.929688h2.664062zm-5.601562 1.734375c-.171875 0-.351563-.152344-.351563-.339844v-3.007813c-.171875-.070312-.503906-.289062-.523437-.75-.015625-.34375.285156-.867187.917969-.847656.492187.023438.851562.390625.859374.828125-.007812.34375-.21875.640625-.535156.761719v2.679688h5.234375v.675781zm-1.238281-10.480469v2.503906h1.535156v-1.414062c0-.195313.152344-.367188.386718-.367188h3.78125c.234376 0 .386719.171875.386719.359375v3.582031c0 .152344-.152343.351563-.382812.351563h-3.789063c-.203125 0-.382812-.148437-.382812-.359375v-1.472656h-3.722656c-.121094.265625-.414063.496094-.8125.496094-.496094 0-.882813-.375-.882813-.84375 0-.429688.367187-.828126.90625-.828126.324219 0 .660156.203126.789063.496094h1.46875v-2.503906zm-5.25 0h.71875v5.105469l1.335937 1.257812.640625-.597656c-.089844-.230469-.097656-.582031.183594-.878906.394531-.367188.90625-.292969 1.179687-.09375.445313.324219.453125.894531.121094 1.230469-.296875.3125-.710937.324218-.972656.222656l-.640625.597656 1.136718 1.074219c.289063-.101563.664063-.078125.945313.179687.445313.433594.273437.984375-.035156 1.230469-.410157.324219-.964844.246094-1.269531-.09375-.148438-.179687-.28125-.480469-.148438-.828125l-3.109375-2.929688c-.058594-.050781-.085937-.136718-.085937-.234374zm-4.75 0h.71875v2.503906h1.25c.160156-.320312.492187-.496094.808593-.496094.503907 0 .890625.382813.890625.835938 0 .417969-.335937.835938-.914062.835938-.242188 0-.609375-.136719-.785156-.496094h-1.25v2.691406l2.203124 2.070312c.429688-.171874 1.019532 0 1.191407.546876.160156.578124-.292969 1.085937-.890625 1.058593-.324219-.007812-.699219-.207031-.820313-.609375-.042969-.167968-.035156-.347656.015625-.492187l-2.320312-2.1875c-.054688-.050781-.097656-.121094-.097656-.257813zm5.785156 11.269531v-2.4375l-2.75-2.578125c-.417969.136719-.820313-.019531-1.023438-.300781-.285156-.390625-.199218-.90625.230469-1.1875.40625-.246094.902344-.144531 1.175781.171875.265625.308594.222656.65625.136719.84375l2.949219 2.753906v2.734375zm-5.765625 0v-1.78125c-.238281-.09375-.523438-.375-.523438-.757812 0-.539063.464844-.847657.875-.847657.492188 0 .894531.351563.894531.832032 0 .324218-.195312.628906-.519531.773437v1.78125zm0 0" fill="#fff"/><g><use x="11.514644" xlink:href="#f" y="12.953974"/><use x="18.708485" xlink:href="#g" y="12.953974"/><use x="23.511407" xlink:href="#h" y="12.953974"/><use x="27.829399" xlink:href="#i" y="12.953974"/><use x="30.228751" xlink:href="#j" y="12.953974"/><use x="35.031673" xlink:href="#k" y="12.953974"/><use x="37.907523" xlink:href="#l" y="12.953974"/><use x="40.306876" xlink:href="#m" y="12.953974"/><use x="43.182726" xlink:href="#n" y="12.953974"/><use x="48.942859" xlink:href="#i" y="12.953974"/><use x="51.342211" xlink:href="#i" y="12.953974"/><use x="53.741564" xlink:href="#g" y="12.953974"/><use x="58.544486" xlink:href="#o" y="12.953974"/><use x="62.862478" xlink:href="#p" y="12.953974"/><use x="67.180469" xlink:href="#j" y="12.953974"/><use x="71.983391" xlink:href="#k" y="12.953974"/><use x="74.859241" xlink:href="#q" y="12.953974"/></g><path d="m5.757812 130.257812v-4.316406h1.4375v4.316406m-1.4375-8.632812v-4.320312h1.4375v4.320312m-1.4375-8.636719v-4.320312h1.4375v4.320312m-1.4375-8.636719v-4.316406h1.4375v4.316406m-1.4375-8.636718v-4.316406h1.4375v4.316406m-1.4375-8.636719v-4.316406h1.4375v4.316406m-1.4375-8.632813v-4.320312h1.4375v4.320312m-1.4375-8.636718v-4.320313h1.4375v4.320313m-1.4375-8.636719v-4.316406h1.4375v4.316406m-1.4375-8.636719v-4.316406h1.4375v4.316406m-1.4375-8.636718v-4.316407h1.4375v4.316407m-1.4375-8.636719v-4.316407h1.4375v4.316407m-1.4375-8.632813v-4.320312h1.4375v4.320312m-1.4375-8.636718v-4.320313h1.4375v4.320313m-1.4375-8.636719v-4.316407h1.4375v4.316407"/><path d="m164.082031 133.859375v-4.320313h1.441407v4.320313m-1.441407-8.636719v-4.320312h1.441407v4.320312m-1.441407-8.636718v-4.316407h1.441407v4.316407m-1.441407-8.636719v-4.316407h1.441407v4.316407m-1.441407-8.636719v-4.316406h1.441407v4.316406m-1.441407-8.632812v-4.320313h1.441407v4.320313m-1.441407-8.636719v-4.320313h1.441407v4.320313m-1.441407-8.636719v-4.320312h1.441407v4.320312m-1.441407-8.636719v-4.316406h1.441407v4.316406m-1.441407-8.636719v-4.316406h1.441407v4.316406m-1.441407-8.636718v-4.316406h1.441407v4.316406m-1.441407-8.632813v-4.320312h1.441407v4.320312m-1.441407-8.636719v-4.320312h1.441407v4.320312m-1.441407-8.636718v-4.316406h1.441407v4.316406m-1.441407-8.636719v-4.316406h1.441407v4.316406m-1.441407-8.636719v-3.597656h1.441407v3.597656"/><g><use x="119.46443" xlink:href="#r" y="12.953974"/><use x="125.224563" xlink:href="#s" y="12.953974"/><use x="127.143202" xlink:href="#g" y="12.953974"/><use x="131.946124" xlink:href="#t" y="12.953974"/><use x="136.264116" xlink:href="#j" y="12.953974"/></g><path d="m13.998479 64.998754h141.759703" fill="none" stroke="#d79b00" stroke-miterlimit="10" stroke-width="2" transform="scale(.719665)"/><path d="m161.761408 64.998754-8.000682 4.00034 1.997456-4.00034-1.997456-4.000341zm0 0" fill="#d79b00" stroke="#d79b00" stroke-miterlimit="10" stroke-width="2" transform="scale(.719665)"/><g><use x="11.514644" xlink:href="#u" y="43.89958"/><use x="16.317566" xlink:href="#f" y="43.89958"/><use x="23.511407" xlink:href="#v" y="43.89958"/><use x="29.27154" xlink:href="#w" y="43.89958"/><use x="34.074462" xlink:href="#g" y="43.89958"/><use x="38.877385" xlink:href="#x" y="43.89958"/><use x="43.680307" xlink:href="#w" y="43.89958"/><use x="48.483229" xlink:href="#k" y="43.89958"/><use x="51.359078" xlink:href="#g" y="43.89958"/><use x="56.162001" xlink:href="#y" y="43.89958"/><use x="60.964923" xlink:href="#z" y="43.89958"/></g><path d="m85.640625 14.753906v-.71875h.71875v.71875m-.71875-2.878906v-.71875h.71875v.71875m-.71875-2.878906v-.71875h.71875v.71875m-.71875-2.878906v-.71875h.71875v.71875"/><path d="m145.730469 111.90625h4.199219l3 4.261719 3-4.261719h4.195312l-5.09375 7.199219 5.09375 7.195312h-4.195312l-3-4.261719-3 4.261719h-4.199219l4.800781-7.195312zm0 0" fill="#f8cecc"/><g clip-path="url(#c)"><path d="m201.997578 154.997645h5.834962l4.168604 5.921807 4.168605-5.921807h5.829534l-7.077944 10.003566 7.077944 9.998138h-5.829534l-4.168605-5.921807-4.168604 5.921807h-5.834962l6.670854-9.998138zm0 0" fill="none" stroke="#b85450" stroke-miterlimit="10" transform="matrix(.719665 0 0 .719665 .359833 .359833)"/></g><g fill="#f00"><use x="141.290531" xlink:href="#E" y="132.418405"/><use x="146.487723" xlink:href="#F" y="132.418405"/><use x="149.288373" xlink:href="#G" y="132.418405"/><use x="153.290809" xlink:href="#H" y="132.418405"/><use x="157.293244" xlink:href="#I" y="132.418405"/></g><g fill="#ff8000"><use x="119.46443" xlink:href="#J" y="49.656902"/><use x="124.661622" xlink:href="#K" y="49.656902"/><use x="129.057624" xlink:href="#L" y="49.656902"/><use x="133.453626" xlink:href="#M" y="49.656902"/><use x="135.453087" xlink:href="#N" y="49.656902"/><use x="137.452547" xlink:href="#O" y="49.656902"/><use x="141.454982" xlink:href="#G" y="49.656902"/><use x="145.457417" xlink:href="#P" y="49.656902"/><use x="147.853959" xlink:href="#Q" y="49.656902"/><use x="151.856394" xlink:href="#R" y="49.656902"/></g><path d="m17.238918 38.999252h202.51929" fill="none" stroke="#d6b656" stroke-miterlimit="10" stroke-width="2" transform="scale(.719665)"/><path d="m11.241121 38.999252 8.000681-4.000341-2.002884 4.000341 2.002884 4.000341zm0 0" fill="#d6b656" stroke="#d6b656" stroke-miterlimit="10" stroke-width="2" transform="scale(.719665)"/><path d="m162.472656 28.066406-5.757812 2.878906 1.4375-2.878906-1.4375-2.878906zm0 0" fill="#d6b656"/><g clip-path="url(#d)"><path d="m225.761433 38.999252-8.000682 4.000341 1.997457-4.000341-1.997457-4.000341zm0 0" fill="none" stroke="#d6b656" stroke-miterlimit="10" stroke-width="2" transform="scale(.719665)"/></g><path d="m56.24839 30.997935h135.501368c.298533 0 .58621.059706.863032.173692.271393.113985.515647.276821.727334.488508s.374523.450513.488509.727335c.113985.276821.173692.564498.173692.863031v10.497502c0 .298533-.059707.58621-.173692.863032-.113986.276821-.276822.521075-.488509.727334-.211687.211687-.455941.374524-.727334.488509-.276822.113985-.564499.173692-.863032.173692h-135.501368c-.298533 0-.58621-.059707-.857604-.173692-.276821-.113985-.521075-.276822-.732762-.488509-.211687-.206259-.374523-.450513-.488509-.727334-.113985-.276822-.168264-.564499-.168264-.863032v-10.497502c0-.298533.054279-.58621.168264-.863031.113986-.276822.276822-.515648.488509-.727335s.455941-.374523.732762-.488508c.271394-.113986.559071-.173692.857604-.173692zm0 0" fill="#fff2cc" stroke="#d6b656" transform="matrix(.719665 0 0 .719665 .359833 .359833)"/><g><use x="54.660824" xlink:href="#v" y="31.665271"/><use x="60.420957" xlink:href="#g" y="31.665271"/><use x="65.223879" xlink:href="#A" y="31.665271"/><use x="70.026801" xlink:href="#B" y="31.665271"/><use x="71.94544" xlink:href="#y" y="31.665271"/><use x="76.748362" xlink:href="#A" y="31.665271"/><use x="81.551284" xlink:href="#l" y="31.665271"/><use x="83.950637" xlink:href="#v" y="31.665271"/><use x="89.71077" xlink:href="#k" y="31.665271"/><use x="92.58662" xlink:href="#C" y="31.665271"/><use x="97.389542" xlink:href="#o" y="31.665271"/><use x="101.707534" xlink:href="#j" y="31.665271"/><use x="106.510456" xlink:href="#z" y="31.665271"/><use x="111.313378" xlink:href="#x" y="31.665271"/><use x="116.1163" xlink:href="#k" y="31.665271"/><use x="118.99215" xlink:href="#j" y="31.665271"/></g><path d="m13.998479 110.001231h141.759703" fill="none" stroke="#d79b00" stroke-miterlimit="10" stroke-width="2" transform="scale(.719665)"/><path d="m161.761408 110.001231-8.000682 4.000341 1.997456-4.000341-1.997456-4.000341zm0 0" fill="#d79b00" stroke="#d79b00" stroke-miterlimit="10" stroke-width="2" transform="scale(.719665)"/><g><use x="11.514644" xlink:href="#u" y="76.284516"/><use x="16.317566" xlink:href="#f" y="76.284516"/><use x="23.511407" xlink:href="#v" y="76.284516"/><use x="29.27154" xlink:href="#w" y="76.284516"/><use x="34.074462" xlink:href="#g" y="76.284516"/><use x="38.877385" xlink:href="#x" y="76.284516"/><use x="43.680307" xlink:href="#w" y="76.284516"/><use x="48.483229" xlink:href="#k" y="76.284516"/><use x="51.359078" xlink:href="#g" y="76.284516"/><use x="56.162001" xlink:href="#y" y="76.284516"/><use x="60.964923" xlink:href="#z" y="76.284516"/></g><g><use x="65.489537" xlink:href="#u" y="60.45188"/><use x="70.292459" xlink:href="#f" y="60.45188"/><use x="77.4863" xlink:href="#v" y="60.45188"/><use x="83.246433" xlink:href="#w" y="60.45188"/><use x="88.049356" xlink:href="#y" y="60.45188"/><use x="92.852278" xlink:href="#C" y="60.45188"/><use x="97.6552" xlink:href="#i" y="60.45188"/><use x="100.054552" xlink:href="#w" y="60.45188"/><use x="104.857475" xlink:href="#g" y="60.45188"/><use x="109.660397" xlink:href="#o" y="60.45188"/><use x="113.978388" xlink:href="#o" y="60.45188"/><use x="118.29638" xlink:href="#j" y="60.45188"/><use x="123.099302" xlink:href="#D" y="60.45188"/><use x="127.902224" xlink:href="#i" y="60.45188"/><use x="130.301576" xlink:href="#j" y="60.45188"/><use x="135.104499" xlink:href="#z" y="60.45188"/></g><path d="m161.203125 64.769531h-4.316406v-1.4375h4.316406m-8.632813 1.4375h-4.320312v-1.4375h4.320312m-8.636718 1.4375h-4.320313v-1.4375h4.320313m-8.636719 1.4375h-4.316406v-1.4375h4.316406m-8.636719 1.4375h-4.316406v-1.4375h4.316406m-8.636718 1.4375h-4.316407v-1.4375h4.316407m-8.632813 1.4375h-4.320313v-1.4375h4.320313m-8.636719 1.4375h-4.320312v-1.4375h4.320312m-8.636718 1.4375h-4.316407v-1.4375h4.316407m-8.636719 1.4375h-4.316407v-1.4375h4.316407m-8.636719 1.4375h-4.316406v-1.4375h4.316406m-8.632812 1.4375h-4.320313v-1.4375h4.320313m-8.636719 1.4375h-4.320313v-1.4375h4.320313m-8.636719 1.4375h-.546875v-1.4375h.546875"/><path d="m61.242667 89.000799 7.995254-4.000341-1.997457 4.000341 1.997457 4.00034zm0 0" stroke="#000" stroke-miterlimit="10" stroke-width="2" transform="scale(.719665)"/><g><use x="11.514644" xlink:href="#u" y="107.230121"/><use x="16.317566" xlink:href="#f" y="107.230121"/><use x="23.511407" xlink:href="#v" y="107.230121"/><use x="29.27154" xlink:href="#w" y="107.230121"/><use x="34.074462" xlink:href="#g" y="107.230121"/><use x="38.877385" xlink:href="#x" y="107.230121"/><use x="43.680307" xlink:href="#w" y="107.230121"/><use x="48.483229" xlink:href="#k" y="107.230121"/><use x="51.359078" xlink:href="#g" y="107.230121"/><use x="56.162001" xlink:href="#y" y="107.230121"/><use x="60.964923" xlink:href="#z" y="107.230121"/></g><path d="m13.998479 153.000824h141.759703" fill="none" stroke="#d79b00" stroke-miterlimit="10" stroke-width="2" transform="scale(.719665)"/><path d="m161.761408 153.000824-8.000682 4.000341 1.997456-4.000341-1.997456-4.000341zm0 0" fill="#d79b00" stroke="#d79b00" stroke-miterlimit="10" stroke-width="2" transform="scale(.719665)"/><g><use x="65.489537" xlink:href="#u" y="90.67782"/><use x="70.292459" xlink:href="#f" y="90.67782"/><use x="77.4863" xlink:href="#v" y="90.67782"/><use x="83.246433" xlink:href="#w" y="90.67782"/><use x="88.049356" xlink:href="#y" y="90.67782"/><use x="92.852278" xlink:href="#C" y="90.67782"/><use x="97.6552" xlink:href="#i" y="90.67782"/><use x="100.054552" xlink:href="#w" y="90.67782"/><use x="104.857475" xlink:href="#g" y="90.67782"/><use x="109.660397" xlink:href="#o" y="90.67782"/><use x="113.978388" xlink:href="#o" y="90.67782"/><use x="118.29638" xlink:href="#j" y="90.67782"/><use x="123.099302" xlink:href="#D" y="90.67782"/><use x="127.902224" xlink:href="#i" y="90.67782"/><use x="130.301576" xlink:href="#j" y="90.67782"/><use x="135.104499" xlink:href="#z" y="90.67782"/></g><path d="m161.203125 94.996094h-4.316406v-1.441406h4.316406m-8.632813 1.441406h-4.320312v-1.441406h4.320312m-8.636718 1.441406h-4.320313v-1.441406h4.320313m-8.636719 1.441406h-4.316406v-1.441406h4.316406m-8.636719 1.441406h-4.316406v-1.441406h4.316406m-8.636718 1.441406h-4.316407v-1.441406h4.316407m-8.632813 1.441406h-4.320313v-1.441406h4.320313m-8.636719 1.441406h-4.320312v-1.441406h4.320312m-8.636718 1.441406h-4.316407v-1.441406h4.316407m-8.636719 1.441406h-4.316407v-1.441406h4.316407m-8.636719 1.441406h-4.316406v-1.441406h4.316406m-8.632812 1.441406h-4.320313v-1.441406h4.320313m-8.636719 1.441406h-4.320313v-1.441406h4.320313m-8.636719 1.441406h-.546875v-1.441406h.546875"/><path d="m61.242667 131.001663 7.995254-4.00034-1.997457 4.00034 1.997457 4.000341zm0 0" stroke="#000" stroke-miterlimit="10" stroke-width="2" transform="scale(.719665)"/><g><use x="11.514644" xlink:href="#u" y="124.502087"/><use x="16.317566" xlink:href="#f" y="124.502087"/><use x="23.511407" xlink:href="#v" y="124.502087"/><use x="29.27154" xlink:href="#w" y="124.502087"/><use x="34.074462" xlink:href="#g" y="124.502087"/><use x="38.877385" xlink:href="#x" y="124.502087"/><use x="43.680307" xlink:href="#w" y="124.502087"/><use x="48.483229" xlink:href="#k" y="124.502087"/><use x="51.359078" xlink:href="#g" y="124.502087"/><use x="56.162001" xlink:href="#y" y="124.502087"/><use x="60.964923" xlink:href="#z" y="124.502087"/></g><path d="m13.998479 176.997441h141.759703" fill="none" stroke="#d79b00" stroke-miterlimit="10" stroke-width="2" transform="scale(.719665)"/><path d="m116.414062 127.378906-5.757812 2.878906 1.4375-2.878906-1.4375-2.875zm0 0" fill="#d79b00"/><g clip-path="url(#e)"><path d="m161.761408 176.997441-8.000682 4.000341 1.997456-4.000341-1.997456-3.994913zm0 0" fill="none" stroke="#d79b00" stroke-miterlimit="10" stroke-width="2" transform="scale(.719665)"/></g><g fill="#ff8000"><use x="119.46443" xlink:href="#J" y="81.322172"/><use x="124.661622" xlink:href="#K" y="81.322172"/><use x="129.057624" xlink:href="#L" y="81.322172"/><use x="133.453626" xlink:href="#M" y="81.322172"/><use x="135.453087" xlink:href="#N" y="81.322172"/><use x="137.452547" xlink:href="#O" y="81.322172"/><use x="141.454982" xlink:href="#G" y="81.322172"/><use x="145.457417" xlink:href="#P" y="81.322172"/><use x="147.853959" xlink:href="#Q" y="81.322172"/><use x="151.856394" xlink:href="#R" y="81.322172"/></g><path d="m128.820312 134.21875v-.722656h.71875v.722656m-.71875-2.878906v-.71875h.71875v.71875m-.71875-2.878906v-.71875h.71875v.71875m-.71875-2.878907v-.71875h.71875v.71875"/></svg>