<svg height="112.079994pt" viewBox="0 0 172.08 112.079994" width="172.08pt" xmlns="http://www.w3.org/2000/svg" xmlns:xlink="http://www.w3.org/1999/xlink"><clipPath id="a"><path d="m0 0h172v111.800781h-172zm0 0"/></clipPath><clipPath id="b"><path d="m2 11h167v99.367188h-167zm0 0"/></clipPath><clipPath id="c"><path d="m136 8h36v47h-36zm0 0"/></clipPath><symbol id="d" overflow="visible"><path d="m.640625 0v-6.15625h1.21875l1.453125 4.359375c.132812.40625.234375.710937.296875.90625.070313-.21875.179687-.546875.328125-.984375l1.46875-4.28125h1.109375v6.15625h-.796875v-5.15625l-1.78125 5.15625h-.734375l-1.78125-5.234375v5.234375zm0 0"/></symbol><symbol id="e" overflow="visible"><path d="m3.46875-.546875c-.273438.242187-.539062.40625-.796875.5-.261719.09375-.542969.140625-.84375.140625-.492187 0-.867187-.1132812-1.125-.34375-.261719-.238281-.390625-.546875-.390625-.921875 0-.21875.046875-.414063.140625-.59375.101563-.1875.234375-.332031.390625-.4375.164062-.113281.347656-.195313.546875-.25.144531-.039063.367187-.078125.671875-.109375.613281-.070312 1.0625-.160156 1.34375-.265625.007812-.101563.015625-.171875.015625-.203125 0-.300781-.074219-.515625-.21875-.640625-.199219-.175781-.484375-.265625-.859375-.265625-.355469 0-.621094.0625-.796875.1875-.167969.125-.292969.351562-.375.671875l-.734375-.109375c.070312-.3125.179688-.566406.328125-.765625.15625-.195313.378906-.347656.671875-.453125.289062-.101562.628906-.15625 1.015625-.15625.375 0 .679687.046875.921875.140625.238281.09375.410156.210937.515625.34375.113281.136719.195313.304687.25.5.019531.136719.03125.371094.03125.703125v1c0 .710938.015625 1.15625.046875 1.34375s.097656.367188.203125.53125h-.796875c-.074219-.15625-.125-.335938-.15625-.546875zm-.0625-1.6875c-.273438.117187-.683594.210937-1.234375.28125-.304687.042969-.523437.09375-.65625.15625-.125.054687-.226563.136719-.296875.25-.074219.105469-.109375.21875-.109375.34375 0 .210937.078125.382813.234375.515625.15625.136719.378906.203125.671875.203125.289063 0 .546875-.0625.765625-.1875.226562-.132813.398438-.3125.515625-.53125.070313-.164063.109375-.414063.109375-.75zm0 0"/></symbol><symbol id="f" overflow="visible"><path d="m.265625-1.328125.75-.125c.039063.304687.15625.539063.34375.703125.195313.15625.46875.234375.8125.234375s.597656-.066406.765625-.203125c.164062-.144531.25-.316406.25-.515625 0-.164063-.074219-.296875-.21875-.390625-.105469-.070312-.367188-.160156-.78125-.265625-.554688-.132813-.9375-.253906-1.15625-.359375-.210938-.101562-.371094-.242188-.484375-.421875-.105469-.1875-.15625-.382813-.15625-.59375 0-.207031.039063-.394531.125-.5625.09375-.164063.21875-.304687.375-.421875.125-.082031.285156-.15625.484375-.21875.207031-.0625.425781-.09375.65625-.09375.351562 0 .660156.054688.921875.15625.257813.105469.453125.246094.578125.421875.125.167969.210938.390625.265625.671875l-.734375.109375c-.03125-.226563-.132812-.40625-.296875-.53125-.15625-.132813-.386719-.203125-.6875-.203125-.34375 0-.589844.058594-.734375.171875-.148438.117187-.21875.25-.21875.40625 0 .09375.03125.183594.09375.265625.0625.085938.15625.152344.28125.203125.070312.023437.296875.085937.671875.1875.53125.148437.898437.265625 1.109375.359375.21875.085938.382812.214844.5.390625.125.179687.1875.390625.1875.640625s-.074219.492188-.21875.71875c-.148438.21875-.359375.390625-.640625.515625-.28125.1132812-.59375.171875-.9375.171875-.585937 0-1.027344-.1171875-1.328125-.359375-.304688-.238281-.496094-.59375-.578125-1.0625zm0 0"/></symbol><symbol id="g" overflow="visible"><path d="m2.21875-.671875.109375.65625c-.21875.0507812-.414063.078125-.578125.078125-.273438 0-.484375-.0429688-.640625-.125-.148437-.09375-.25-.207031-.3125-.34375-.0625-.144531-.09375-.445312-.09375-.90625v-2.5625h-.546875v-.578125h.546875v-1.109375l.75-.453125v1.5625h.765625v.578125h-.765625v2.609375c0 .21875.007813.359375.03125.421875.03125.0625.078125.117188.140625.15625.0625.03125.148438.046875.265625.046875.082031 0 .191406-.007813.328125-.03125zm0 0"/></symbol><symbol id="h" overflow="visible"><path d="m3.609375-1.4375.78125.09375c-.117187.460938-.339844.8125-.671875 1.0625-.335938.25-.761719.375-1.28125.375-.65625 0-1.179688-.195312-1.5625-.59375-.375-.40625-.5625-.96875-.5625-1.6875 0-.75.191406-1.332031.578125-1.75.382813-.414062.882813-.625 1.5-.625.601563 0 1.09375.203125 1.46875.609375s.5625.980469.5625 1.71875v.203125h-3.328125c.03125.492188.171875.867188.421875 1.125.25.261719.554687.390625.921875.390625.28125 0 .515625-.070313.703125-.21875.195313-.144531.351563-.378906.46875-.703125zm-2.46875-1.21875h2.484375c-.03125-.375-.125-.65625-.28125-.84375-.242188-.289062-.554688-.4375-.9375-.4375-.34375 0-.636719.121094-.875.359375-.242188.230469-.371094.539063-.390625.921875zm0 0"/></symbol><symbol id="i" overflow="visible"><path d="m.5625 0v-4.453125h.671875v.671875c.175781-.3125.335937-.519531.484375-.625.144531-.101562.304688-.15625.484375-.15625.25 0 .507813.085938.78125.25l-.265625.703125c-.1875-.113281-.371094-.171875-.546875-.171875-.167969 0-.320313.054688-.453125.15625-.136719.09375-.230469.230469-.28125.40625-.085938.273438-.125.570312-.125.890625v2.328125zm0 0"/></symbol><symbol id="j" overflow="visible"/><symbol id="k" overflow="visible"><path d="m2.015625 1.8125c-.417969-.53125-.773437-1.148438-1.0625-1.84375-.292969-.707031-.4375-1.441406-.4375-2.203125 0-.664063.109375-1.300781.328125-1.90625.25-.707031.640625-1.410156 1.171875-2.109375h.53125c-.335937.574219-.558594.984375-.671875 1.234375-.167969.386719-.296875.792969-.390625 1.21875-.125.523437-.1875 1.046875-.1875 1.578125 0 1.34375.414063 2.6875 1.25 4.03125zm0 0"/></symbol><symbol id="l" overflow="visible"><path d="m-.015625 0 2.359375-6.15625h.890625l2.515625 6.15625h-.9375l-.71875-1.859375h-2.5625l-.671875 1.859375zm1.78125-2.53125h2.078125l-.640625-1.703125c-.199219-.507813-.34375-.929687-.4375-1.265625-.074219.398438-.183594.789062-.328125 1.171875zm0 0"/></symbol><symbol id="m" overflow="visible"><path d="m3.46875-1.625.75.09375c-.085938.511719-.292969.914062-.625 1.203125-.335938.28125-.746094.421875-1.234375.421875-.605469 0-1.09375-.195312-1.46875-.59375-.375-.394531-.5625-.96875-.5625-1.71875 0-.476562.078125-.894531.234375-1.25.164062-.363281.410156-.632812.734375-.8125.332031-.1875.6875-.28125 1.0625-.28125.488281 0 .882813.125 1.1875.375.3125.242188.507813.589844.59375 1.046875l-.734375.109375c-.0625-.300781-.183594-.523438-.359375-.671875-.179687-.15625-.398437-.234375-.65625-.234375-.375 0-.683594.136719-.921875.40625-.242188.273438-.359375.703125-.359375 1.296875 0 .605469.113281 1.042969.34375 1.3125.226563.273437.53125.40625.90625.40625.289063 0 .535156-.085937.734375-.265625.195312-.1875.320312-.46875.375-.84375zm0 0"/></symbol><symbol id="n" overflow="visible"><path d="m.578125 0v-6.15625h.75v3.515625l1.78125-1.8125h.984375l-1.703125 1.65625 1.875 2.796875h-.9375l-1.46875-2.28125-.53125.515625v1.765625zm0 0"/></symbol><symbol id="o" overflow="visible"><path d="m1.0625 1.8125h-.546875c.84375-1.34375 1.265625-2.6875 1.265625-4.03125 0-.53125-.0625-1.054688-.1875-1.578125-.09375-.414063-.226562-.816406-.390625-1.203125-.117187-.25-.34375-.664062-.6875-1.25h.546875c.519531.699219.910156 1.402344 1.171875 2.109375.207031.605469.3125 1.242187.3125 1.90625 0 .761719-.148437 1.496094-.4375 2.203125-.28125.695312-.632813 1.3125-1.046875 1.84375zm0 0"/></symbol><symbol id="p" overflow="visible"><path d="m.390625-1.96875.765625-.078125c.03125.3125.113281.570313.25.765625.132812.199219.34375.359375.625.484375.28125.117187.59375.171875.9375.171875.3125 0 .585938-.046875.828125-.140625.238281-.09375.414063-.21875.53125-.375.113281-.164063.171875-.34375.171875-.53125s-.058594-.351563-.171875-.5c-.117187-.144531-.296875-.265625-.546875-.359375-.167969-.070312-.539062-.175781-1.109375-.3125-.5625-.132812-.953125-.257812-1.171875-.375-.304688-.15625-.527344-.347656-.671875-.578125-.136719-.226563-.203125-.484375-.203125-.765625 0-.3125.085938-.601562.265625-.875.175781-.269531.429687-.472656.765625-.609375.34375-.132813.71875-.203125 1.125-.203125.457031 0 .859375.074219 1.203125.21875.351563.148438.625.367188.8125.65625.1875.28125.285156.601562.296875.953125l-.78125.0625c-.042969-.382813-.183594-.675781-.421875-.875-.242187-.195313-.601563-.296875-1.078125-.296875-.492188 0-.851562.089844-1.078125.265625-.21875.179687-.328125.398437-.328125.65625 0 .21875.078125.402344.234375.546875.15625.136719.5625.28125 1.21875.4375.664063.148438 1.125.277344 1.375.390625.351563.167969.613281.375.78125.625.175781.25.265625.542969.265625.875 0 .324219-.09375.632813-.28125.921875-.1875.292969-.460938.523438-.8125.6875-.34375.15625-.734375.234375-1.171875.234375-.5625 0-1.03125-.078125-1.40625-.234375-.375-.164062-.671875-.410156-.890625-.734375-.210938-.332031-.320312-.703125-.328125-1.109375zm0 0"/></symbol><symbol id="q" overflow="visible"><path d="m.546875 0v-6.15625h.765625v6.15625zm0 0"/></symbol><symbol id="r" overflow="visible"><path d="m1.796875 0-1.6875-4.453125h.796875l.953125 2.671875c.101563.28125.203125.578125.296875.890625.0625-.226563.148438-.507813.265625-.84375l1-2.71875h.78125l-1.6875 4.453125zm0 0"/></symbol><symbol id="s" overflow="visible"><path d="m.625 0v-6.15625h.8125v5.4375h3.03125v.71875zm0 0"/></symbol><symbol id="t" overflow="visible"><path d="m.65625 0v-6.15625h2.328125c.40625 0 .71875.023438.9375.0625.300781.054688.550781.152344.75.296875.207031.136719.375.335937.5.59375.125.25.1875.527344.1875.828125 0 .523438-.167969.964844-.5 1.328125-.335937.367187-.933594.546875-1.796875.546875h-1.578125v2.5zm.828125-3.234375h1.578125c.53125 0 .90625-.09375 1.125-.28125.21875-.195313.328125-.472656.328125-.828125 0-.257812-.070313-.476562-.203125-.65625-.125-.1875-.292969-.3125-.5-.375-.136719-.03125-.390625-.046875-.765625-.046875h-1.5625zm0 0"/></symbol><symbol id="u" overflow="visible"><path d="m-.125 1.703125v-.546875h5v.546875zm0 0"/></symbol><symbol id="v" overflow="visible"><path d="m.5625 1.703125v-6.15625h.6875v.578125c.164062-.226562.347656-.398438.546875-.515625.207031-.113281.457031-.171875.75-.171875.382813 0 .71875.101562 1 .296875.289063.199219.507813.476563.65625.828125.15625.355469.234375.746094.234375 1.171875 0 .460937-.085938.871094-.25 1.234375-.167969.367188-.40625.648438-.71875.84375-.304688.1875-.625.28125-.96875.28125-.261719 0-.492188-.0546875-.6875-.15625-.199219-.101562-.359375-.238281-.484375-.40625v2.171875zm.6875-3.90625c0 .574219.113281 1 .34375 1.28125.238281.273437.519531.40625.84375.40625.34375 0 .628906-.140625.859375-.421875.238281-.289062.359375-.734375.359375-1.328125 0-.570313-.117188-1-.34375-1.28125-.230469-.28125-.511719-.421875-.84375-.421875-.3125 0-.59375.152344-.84375.453125-.25.304687-.375.742187-.375 1.3125zm0 0"/></symbol><symbol id="w" overflow="visible"><path d="m.53125 1.71875-.078125-.71875c.164063.050781.304687.078125.421875.078125.175781 0 .3125-.03125.40625-.09375.101562-.054687.1875-.132813.25-.234375.050781-.074219.128906-.261719.234375-.5625.007813-.042969.03125-.1015625.0625-.171875l-1.6875-4.46875h.8125l.921875 2.578125c.125.324219.234375.667969.328125 1.03125.082031-.34375.1875-.679688.3125-1.015625l.953125-2.59375h.75l-1.6875 4.53125c-.1875.488281-.328125.828125-.421875 1.015625-.136719.238281-.292969.414062-.46875.53125-.179687.125-.386719.1875-.625.1875-.148437 0-.308594-.03125-.484375-.09375zm0 0"/></symbol><symbol id="x" overflow="visible"><path d="m1.265625 0h-.703125v-6.15625h.75v2.203125c.320312-.40625.726562-.609375 1.21875-.609375.28125 0 .539062.058594.78125.171875.25.117187.453125.273437.609375.46875.15625.199219.273437.4375.359375.71875.09375.28125.140625.585937.140625.90625 0 .761719-.1875 1.351563-.5625 1.765625-.375.417969-.828125.625-1.359375.625-.523438 0-.933594-.21875-1.234375-.65625zm-.015625-2.265625c0 .542969.070312.929687.21875 1.15625.238281.398437.5625.59375.96875.59375.332031 0 .617188-.140625.859375-.421875.238281-.289062.359375-.722656.359375-1.296875 0-.582031-.117188-1.007813-.34375-1.28125-.230469-.28125-.511719-.421875-.84375-.421875-.335938 0-.621094.148438-.859375.4375-.242187.28125-.359375.695312-.359375 1.234375zm0 0"/></symbol><symbol id="y" overflow="visible"><path d="m3.40625 1.703125v-2.171875c-.117188.15625-.28125.292969-.5.40625-.210938.1015625-.433594.15625-.671875.15625-.523437 0-.976563-.207031-1.359375-.625-.386719-.425781-.578125-1.003906-.578125-1.734375 0-.445313.078125-.847656.234375-1.203125.15625-.351562.378906-.625.671875-.8125.300781-.1875.628906-.28125.984375-.28125.550781 0 .984375.234375 1.296875.703125v-.59375h.671875v6.15625zm-2.328125-3.9375c0 .574219.117187 1.007813.359375 1.296875.238281.28125.523438.421875.859375.421875.320313 0 .597656-.132813.828125-.40625.238281-.28125.359375-.695313.359375-1.25 0-.59375-.125-1.039063-.375-1.34375-.242187-.300781-.527344-.453125-.859375-.453125-.324219 0-.601562.140625-.828125.421875-.230469.28125-.34375.71875-.34375 1.3125zm0 0"/></symbol><symbol id="z" overflow="visible"><path d="m3.484375 0v-.65625c-.34375.5-.8125.75-1.40625.75-.273437 0-.523437-.046875-.75-.140625-.21875-.101563-.386719-.226563-.5-.375-.117187-.15625-.195313-.34375-.234375-.5625-.03125-.15625-.046875-.390625-.046875-.703125v-2.765625h.765625v2.46875c0 .398437.007812.664063.03125.796875.050781.199219.15625.355469.3125.46875.15625.117188.34375.171875.5625.171875.226562 0 .441406-.054687.640625-.171875.195313-.113281.335937-.269531.421875-.46875.082031-.207031.125-.5.125-.875v-2.390625h.75v4.453125zm0 0"/></symbol><symbol id="A" overflow="visible"><path d="m5.046875-2.15625.8125.203125c-.167969.667969-.476563 1.179687-.921875 1.53125-.4375.3554688-.980469.53125-1.625.53125-.65625 0-1.195312-.1328125-1.609375-.40625-.417969-.269531-.734375-.660156-.953125-1.171875-.21875-.507812-.328125-1.0625-.328125-1.65625 0-.632812.117187-1.191406.359375-1.671875.25-.476563.597656-.835937 1.046875-1.078125.457031-.25.957031-.375 1.5-.375.613281 0 1.128906.15625 1.546875.46875.425781.3125.722656.75.890625 1.3125l-.8125.1875c-.136719-.445312-.339844-.769531-.609375-.96875-.273438-.207031-.617188-.3125-1.03125-.3125-.46875 0-.867188.117188-1.1875.34375-.3125.230469-.539062.539062-.671875.921875-.125.375-.1875.765625-.1875 1.171875 0 .523438.070313.980469.21875 1.375.15625.386719.394531.679688.71875.875.320313.1875.671875.28125 1.046875.28125.457031 0 .84375-.128906 1.15625-.390625.320312-.257813.535156-.648437.640625-1.171875zm0 0"/></symbol><symbol id="B" overflow="visible"><path d="m.28125-2.234375c0-.820313.226562-1.429687.6875-1.828125.382812-.332031.851562-.5 1.40625-.5.613281 0 1.113281.203125 1.5.609375.382812.398437.578125.949219.578125 1.65625 0 .574219-.089844 1.027344-.265625 1.359375-.167969.335938-.417969.589844-.75.765625-.324219.17578125-.679688.265625-1.0625.265625-.625 0-1.132812-.195312-1.515625-.59375-.386719-.394531-.578125-.972656-.578125-1.734375zm.78125 0c0 .574219.125 1.007813.375 1.296875.25.28125.5625.421875.9375.421875s.6875-.140625.9375-.421875c.25-.289062.375-.726562.375-1.3125 0-.550781-.125-.96875-.375-1.25-.25-.289062-.5625-.4375-.9375-.4375s-.6875.148438-.9375.4375c-.25.28125-.375.703125-.375 1.265625zm0 0"/></symbol><symbol id="C" overflow="visible"><path d="m.5625 0v-4.453125h.671875v.625c.144531-.21875.332031-.394531.5625-.53125.238281-.132813.503906-.203125.796875-.203125.332031 0 .601562.074219.8125.21875.207031.136719.359375.324219.453125.5625.34375-.519531.800781-.78125 1.375-.78125.4375 0 .773437.125 1.015625.375.238281.242188.359375.617188.359375 1.125v3.0625h-.75v-2.8125c0-.300781-.027344-.515625-.078125-.640625-.054688-.132813-.140625-.242187-.265625-.328125-.125-.082031-.277344-.125-.453125-.125-.3125 0-.574219.105469-.78125.3125-.210938.210938-.3125.542969-.3125 1v2.59375h-.75v-2.890625c0-.34375-.0625-.597656-.1875-.765625-.125-.164062-.328125-.25-.609375-.25-.210937 0-.40625.058594-.59375.171875-.179687.117187-.308594.28125-.390625.5-.074219.210937-.109375.515625-.109375.921875v2.3125zm0 0"/></symbol><symbol id="D" overflow="visible"><path d="m.515625 0v-5.140625h1.671875c.625 0 1.035156.027344 1.234375.078125.289063.085938.535156.257812.734375.515625.195312.25.296875.585937.296875 1 0 .3125-.058594.578125-.171875.796875-.117188.210938-.261719.375-.4375.5-.179688.125-.355469.203125-.53125.234375-.25.054687-.609375.078125-1.078125.078125h-.671875v1.9375zm1.046875-4.265625v1.453125h.5625c.40625 0 .675781-.023438.8125-.078125.144531-.050781.253906-.132813.328125-.25.082031-.113281.125-.25.125-.40625 0-.1875-.058594-.335937-.171875-.453125-.105469-.125-.242188-.203125-.40625-.234375-.125-.019531-.375-.03125-.75-.03125zm0 0"/></symbol><symbol id="E" overflow="visible"><path d="m1.25-2.578125-.890625-.171875c.09375-.351562.265625-.613281.515625-.78125.25-.175781.613281-.265625 1.09375-.265625.4375 0 .757812.054687.96875.15625.21875.105469.367188.234375.453125.390625.09375.15625.140625.449219.140625.875l-.015625 1.15625c0 .324219.015625.5625.046875.71875.039062.15625.101562.324219.1875.5h-.96875c-.03125-.0625-.070312-.160156-.109375-.296875-.011719-.050781-.023437-.085937-.03125-.109375-.167969.167969-.351563.292969-.546875.375-.1875.0703125-.390625.109375-.609375.109375-.375 0-.679687-.1015625-.90625-.3125-.21875-.207031-.328125-.46875-.328125-.78125 0-.207031.050781-.394531.15625-.5625.101562-.164063.242188-.289063.421875-.375.175781-.09375.4375-.171875.78125-.234375.457031-.082031.773437-.160156.953125-.234375v-.109375c0-.1875-.046875-.316406-.140625-.390625-.09375-.082031-.273437-.125-.53125-.125-.167969 0-.304687.039063-.40625.109375-.09375.0625-.171875.183594-.234375.359375zm1.3125.796875c-.125.042969-.324219.09375-.59375.15625-.273438.054688-.449219.105469-.53125.15625-.136719.09375-.203125.214844-.203125.359375 0 .136719.050781.257813.15625.359375.101563.09375.234375.140625.390625.140625.175781 0 .347656-.054687.515625-.171875.113281-.09375.191406-.203125.234375-.328125.019531-.082031.03125-.242187.03125-.484375zm0 0"/></symbol><symbol id="F" overflow="visible"><path d="m.421875.25 1.125.125c.019531.132812.0625.226562.125.28125.09375.0625.242187.09375.453125.09375.25 0 .441406-.039062.578125-.109375.082031-.054687.144531-.136719.1875-.25.03125-.085937.046875-.234375.046875-.453125v-.546875c-.292969.40625-.664062.609375-1.109375.609375-.5 0-.898437-.210938-1.1875-.640625-.230469-.332031-.34375-.742187-.34375-1.234375 0-.625.144531-1.097656.4375-1.421875.300781-.332031.675781-.5 1.125-.5.457031 0 .835937.199219 1.140625.59375v-.515625h.921875v3.34375c0 .4375-.039063.757812-.109375.96875-.074219.21875-.179688.390625-.3125.515625-.125.125-.296875.222656-.515625.296875-.21875.070312-.496094.109375-.828125.109375-.625 0-1.074219-.109375-1.34375-.328125-.261719-.21875-.390625-.496094-.390625-.828125 0-.03125 0-.070313 0-.109375zm.875-2.1875c0 .398438.078125.6875.234375.875.15625.179688.34375.265625.5625.265625.238281 0 .441406-.09375.609375-.28125.164063-.1875.25-.460937.25-.828125 0-.382812-.078125-.671875-.234375-.859375s-.359375-.28125-.609375-.28125c-.230469 0-.421875.09375-.578125.28125-.15625.179687-.234375.453125-.234375.828125zm0 0"/></symbol><symbol id="G" overflow="visible"><path d="m.515625-4.21875v-.921875h.984375v.921875zm0 4.21875v-3.71875h.984375v3.71875zm0 0"/></symbol><symbol id="H" overflow="visible"><path d="m3.890625 0h-.984375v-1.890625c0-.40625-.023438-.664063-.0625-.78125-.042969-.125-.109375-.21875-.203125-.28125s-.210937-.09375-.34375-.09375c-.167969 0-.320313.046875-.453125.140625-.136719.09375-.230469.21875-.28125.375-.054688.148438-.078125.429688-.078125.84375v1.6875h-.984375v-3.71875h.921875v.546875c.320313-.414063.726563-.625 1.21875-.625.21875 0 .414063.042969.59375.125.1875.074219.320313.171875.40625.296875.09375.117188.15625.25.1875.40625.039063.15625.0625.375.0625.65625zm0 0"/></symbol><symbol id="I" overflow="visible"/><symbol id="J" overflow="visible"><path d="m.265625-1.671875 1-.09375c.0625.335937.1875.585937.375.75.1875.15625.4375.234375.75.234375.332031 0 .582031-.066406.75-.203125.164063-.144531.25-.3125.25-.5 0-.125-.039063-.226563-.109375-.3125-.0625-.082031-.183594-.160156-.359375-.234375-.125-.039062-.402344-.113281-.828125-.21875-.5625-.132812-.953125-.300781-1.171875-.5-.324219-.289062-.484375-.632812-.484375-1.03125 0-.269531.070312-.515625.21875-.734375.15625-.226563.367188-.398437.640625-.515625.28125-.125.617187-.1875 1.015625-.1875.644531 0 1.128906.140625 1.453125.421875.332031.28125.503906.65625.515625 1.125l-1.03125.046875c-.042969-.257812-.136719-.445312-.28125-.5625-.148438-.113281-.367188-.171875-.65625-.171875-.304688 0-.542969.0625-.71875.1875-.105469.074219-.15625.179687-.15625.3125 0 .125.050781.230469.15625.3125.125.105469.4375.21875.9375.34375.507812.117187.882812.242187 1.125.375.25.125.441406.296875.578125.515625.132813.21875.203125.492188.203125.8125 0 .304688-.085938.585938-.25.84375-.167969.25-.402344.4375-.703125.5625-.292969.125-.664063.1875-1.109375.1875-.648438 0-1.148438-.1484375-1.5-.453125-.34375-.300781-.546875-.738281-.609375-1.3125zm0 0"/></symbol><symbol id="K" overflow="visible"><path d="m3.75-2.625-.96875.1875c-.03125-.195312-.105469-.34375-.21875-.4375-.117188-.101562-.265625-.15625-.453125-.15625-.242187 0-.433594.089844-.578125.265625-.148438.167969-.21875.449219-.21875.84375 0 .4375.070312.75.21875.9375.144531.179687.34375.265625.59375.265625.1875 0 .335938-.050781.453125-.15625.125-.101562.210937-.285156.265625-.546875l.96875.15625c-.105469.449219-.304688.789063-.59375 1.015625-.28125.21875-.664062.328125-1.140625.328125-.542969 0-.976563-.171875-1.296875-.515625-.324219-.34375-.484375-.816406-.484375-1.421875 0-.613281.160156-1.085937.484375-1.421875.320312-.34375.757812-.515625 1.3125-.515625.457031 0 .816406.101563 1.078125.296875.269531.1875.460937.480469.578125.875zm0 0"/></symbol><symbol id="L" overflow="visible"><path d="m.515625-5.140625h1.890625c.425781 0 .753906.039063.984375.109375.300781.085938.554687.242188.765625.46875.21875.230469.382812.511719.5.84375.113281.324219.171875.726562.171875 1.203125 0 .417969-.054687.78125-.15625 1.09375-.136719.375-.324219.679687-.5625.90625-.179687.179687-.417969.3125-.71875.40625-.230469.0742188-.539063.109375-.921875.109375h-1.953125zm1.046875.875v3.40625h.765625c.289063 0 .5-.015625.625-.046875.164063-.050781.304687-.125.421875-.21875.113281-.101562.203125-.269531.265625-.5.070313-.226562.109375-.539062.109375-.9375 0-.394531-.039062-.695312-.109375-.90625-.0625-.21875-.164063-.382812-.296875-.5-.125-.125-.28125-.207031-.46875-.25-.148438-.03125-.433594-.046875-.859375-.046875zm0 0"/></symbol><symbol id="M" overflow="visible"><path d="m.171875-1.0625.984375-.15625c.039062.199219.125.351562.25.453125.132812.09375.316406.140625.546875.140625.25 0 .441406-.046875.578125-.140625.082031-.0625.125-.148437.125-.265625 0-.070312-.027344-.132812-.078125-.1875-.042969-.039062-.152344-.082031-.328125-.125-.792969-.175781-1.292969-.335938-1.5-.484375-.304688-.195313-.453125-.472656-.453125-.828125 0-.320312.125-.59375.375-.8125.257813-.21875.660156-.328125 1.203125-.328125.507812 0 .882812.085937 1.125.25.25.15625.421875.402344.515625.734375l-.921875.171875c-.042969-.144531-.121094-.253906-.234375-.328125-.105469-.082031-.261719-.125-.46875-.125-.261719 0-.449219.039062-.5625.109375-.074219.054687-.109375.121094-.109375.203125 0 .0625.03125.121094.09375.171875.09375.0625.398438.15625.921875.28125.519531.117187.882813.261719 1.09375.4375.207031.179687.3125.421875.3125.734375 0 .335938-.148437.625-.4375.875-.28125.2421875-.699219.359375-1.25.359375-.511719 0-.917969-.0976562-1.21875-.296875-.292969-.207031-.480469-.488281-.5625-.84375zm0 0"/></symbol><symbol id="N" overflow="visible"><path d="m.46875 0v-5.140625h.984375v1.859375c.300781-.34375.660156-.515625 1.078125-.515625.457031 0 .832031.167969 1.125.5.300781.324219.453125.792969.453125 1.40625 0 .625-.152344 1.109375-.453125 1.453125-.304688.34375-.671875.515625-1.109375.515625-.210937 0-.417969-.0546875-.625-.15625-.210937-.101563-.386719-.257813-.53125-.46875v.546875zm.984375-1.9375c0 .386719.054687.671875.171875.859375.175781.261719.40625.390625.6875.390625.21875 0 .398438-.09375.546875-.28125.15625-.1875.234375-.476562.234375-.875 0-.425781-.078125-.734375-.234375-.921875-.148437-.1875-.34375-.28125-.59375-.28125-.230469 0-.421875.09375-.578125.28125-.15625.179687-.234375.453125-.234375.828125zm0 0"/></symbol><symbol id="O" overflow="visible"><path d="m.515625 0v-5.140625h.984375v5.140625zm0 0"/></symbol><symbol id="P" overflow="visible"><path d="m2.671875-1.1875.984375.171875c-.136719.355469-.339844.625-.609375.8125-.273437.1875-.609375.28125-1.015625.28125-.648438 0-1.125-.207031-1.4375-.625-.242188-.34375-.359375-.769531-.359375-1.28125 0-.613281.15625-1.09375.46875-1.4375.320313-.351563.734375-.53125 1.234375-.53125.550781 0 .984375.183594 1.296875.546875.320313.367188.476563.921875.46875 1.671875h-2.46875c.007813.292969.085937.523437.234375.6875.15625.15625.347656.234375.578125.234375.144531 0 .269531-.039062.375-.125.113281-.082031.195313-.21875.25-.40625zm.046875-.984375c0-.289063-.074219-.507813-.21875-.65625-.136719-.144531-.304688-.21875-.5-.21875-.21875 0-.402344.078125-.546875.234375-.136719.15625-.203125.371094-.203125.640625zm0 0"/></symbol><symbol id="Q" overflow="visible"><path d="m.5 0v-5.140625h1.5625l.921875 3.515625.921875-3.515625h1.5625v5.140625h-.96875v-4.046875l-1.015625 4.046875h-1l-1.015625-4.046875v4.046875zm0 0"/></symbol><symbol id="R" overflow="visible"><path d="m2.96875 0v-.5625c-.136719.199219-.320312.355469-.546875.46875-.21875.1132812-.449219.171875-.6875.171875-.25 0-.476563-.0546875-.671875-.15625-.199219-.113281-.34375-.269531-.4375-.46875-.085938-.195313-.125-.46875-.125-.8125v-2.359375h.984375v1.703125c0 .53125.015625.855469.046875.96875.039062.117187.109375.210937.203125.28125.09375.0625.210937.09375.359375.09375.164062 0 .316406-.039063.453125-.125.132813-.09375.222656-.207031.265625-.34375.050781-.144531.078125-.484375.078125-1.015625v-1.5625h.984375v3.71875zm0 0"/></symbol><symbol id="S" overflow="visible"><path d="m2.21875-3.71875v.78125h-.671875v1.5c0 .304688.003906.480469.015625.53125.019531.054688.050781.09375.09375.125.039062.03125.097656.046875.171875.046875.082031 0 .210937-.03125.390625-.09375l.078125.765625c-.230469.09375-.492187.140625-.78125.140625-.179687 0-.339844-.0273438-.484375-.078125-.136719-.0625-.242188-.140625-.3125-.234375-.0625-.09375-.105469-.222656-.125-.390625-.023438-.113281-.03125-.34375-.03125-.6875v-1.625h-.453125v-.78125h.453125v-.734375l.984375-.578125v1.3125zm0 0"/></symbol><symbol id="T" overflow="visible"><path d="m3.921875 0h-.90625v-.546875c-.15625.210937-.339844.367187-.546875.46875-.199219.1015625-.40625.15625-.625.15625-.429688 0-.792969-.171875-1.09375-.515625-.304688-.34375-.453125-.820312-.453125-1.4375 0-.625.144531-1.097656.4375-1.421875.300781-.332031.675781-.5 1.125-.5.414063 0 .773437.171875 1.078125.515625v-1.859375h.984375zm-2.625-1.9375c0 .398438.054687.683594.171875.859375.15625.261719.375.390625.65625.390625.226562 0 .421875-.09375.578125-.28125.15625-.195312.234375-.488281.234375-.875 0-.425781-.078125-.734375-.234375-.921875-.148437-.1875-.339844-.28125-.578125-.28125-.242188 0-.4375.09375-.59375.28125-.15625.179687-.234375.453125-.234375.828125zm0 0"/></symbol><symbol id="U" overflow="visible"><path d="m.421875 0v-4.109375h.546875v3.625h2.015625v.484375zm0 0"/></symbol><symbol id="V" overflow="visible"><path d="m.421875 0v-4.109375h.828125l.96875 2.90625c.082031.273437.144531.476563.1875.609375.050781-.144531.125-.363281.21875-.65625l.984375-2.859375h.734375v4.109375h-.53125v-3.4375l-1.1875 3.4375h-.484375l-1.1875-3.5v3.5zm0 0"/></symbol><symbol id="W" overflow="visible"><path d="m.4375 0v-4.109375h1.546875c.28125 0 .488281.015625.625.046875.207031.03125.378906.09375.515625.1875.132812.09375.242188.230469.328125.40625.082031.167969.125.351562.125.546875 0 .355469-.117187.652344-.34375.890625-.21875.242188-.621094.359375-1.203125.359375h-1.046875v1.671875zm.546875-2.15625h1.0625c.351563 0 .601563-.0625.75-.1875.144531-.132812.21875-.320312.21875-.5625 0-.164062-.046875-.3125-.140625-.4375-.085938-.125-.195312-.203125-.328125-.234375-.09375-.03125-.265625-.046875-.515625-.046875h-1.046875zm0 0"/></symbol><symbol id="X" overflow="visible"><path d="m2.40625-.953125.53125.0625c-.085938.304687-.242188.539063-.46875.703125-.21875.1679688-.5.25-.84375.25-.4375 0-.789062-.1289062-1.046875-.390625-.25-.269531-.375-.648437-.375-1.140625 0-.5.128906-.882812.390625-1.15625.257812-.28125.59375-.421875 1-.421875.394531 0 .71875.136719.96875.40625.257812.273437.390625.652344.390625 1.140625v.140625h-2.21875c.019531.324219.109375.574219.265625.75.164062.179687.375.265625.625.265625.1875 0 .34375-.046875.46875-.140625.132812-.101563.238281-.257813.3125-.46875zm-1.640625-.8125h1.65625c-.023437-.25-.085937-.4375-.1875-.5625-.167969-.195313-.375-.296875-.625-.296875-.242187 0-.4375.078125-.59375.234375s-.242187.367187-.25.625zm0 0"/></symbol><symbol id="Y" overflow="visible"><path d="m.375 0v-2.96875h.453125v.421875c.21875-.332031.535156-.5.953125-.5.175781 0 .335938.039063.484375.109375.15625.0625.269531.148438.34375.25.070313.105469.125.230469.15625.375.019531.09375.03125.257812.03125.484375v1.828125h-.5v-1.8125c0-.195312-.023437-.347656-.0625-.453125-.042969-.101563-.117187-.1875-.21875-.25-.09375-.0625-.210937-.09375-.34375-.09375-.21875 0-.40625.074219-.5625.21875-.15625.136719-.234375.390625-.234375.765625v1.625zm0 0"/></symbol><symbol id="Z" overflow="visible"><path d="m.28125.25.5.0625c.019531.15625.078125.269531.171875.34375.125.09375.289063.140625.5.140625.238281 0 .421875-.046875.546875-.140625s.207031-.230469.25-.40625c.03125-.09375.046875-.3046875.046875-.640625-.21875.261719-.496094.390625-.828125.390625-.40625 0-.726562-.144531-.953125-.4375-.21875-.300781-.328125-.65625-.328125-1.0625 0-.28125.050781-.539062.15625-.78125.101562-.25.25-.4375.4375-.5625.195312-.132812.425781-.203125.6875-.203125.351562 0 .644531.148437.875.4375v-.359375h.46875v2.5625c0 .46875-.054688.796875-.15625.984375-.09375.195313-.246094.347656-.453125.453125-.199219.113281-.445313.171875-.734375.171875-.367188 0-.65625-.078125-.875-.234375-.210938-.15625-.3125-.398438-.3125-.71875zm.421875-1.796875c0 .398437.078125.683594.234375.859375.15625.179688.347656.265625.578125.265625.226563 0 .421875-.085937.578125-.265625.15625-.175781.234375-.453125.234375-.828125 0-.363281-.085937-.640625-.25-.828125-.15625-.1875-.34375-.28125-.5625-.28125-.230469 0-.421875.09375-.578125.28125-.15625.179688-.234375.445312-.234375.796875zm0 0"/></symbol><symbol id="aa" overflow="visible"><path d="m1.484375-.453125.0625.453125c-.136719.03125-.261719.046875-.375.046875-.1875 0-.335937-.03125-.4375-.09375-.09375-.0625-.164063-.140625-.203125-.234375-.042969-.09375-.0625-.289062-.0625-.59375v-1.703125h-.375v-.390625h.375v-.734375l.5-.3125v1.046875h.515625v.390625h-.515625v1.734375c0 .148438.007812.242188.03125.28125.019531.042969.046875.074219.078125.09375.039063.023438.097656.03125.171875.03125.0625 0 .140625-.003906.234375-.015625zm0 0"/></symbol><symbol id="ab" overflow="visible"><path d="m.375 0v-4.109375h.5v1.484375c.238281-.28125.535156-.421875.890625-.421875.226563 0 .421875.046875.578125.140625.164062.085938.28125.203125.34375.359375.070312.148437.109375.367187.109375.65625v1.890625h-.5v-1.890625c0-.25-.058594-.429687-.171875-.546875-.105469-.113281-.257812-.171875-.453125-.171875-.15625 0-.304687.042969-.4375.125-.125.074219-.21875.179687-.28125.3125-.054687.125-.078125.308594-.078125.546875v1.625zm0 0"/></symbol><symbol id="ac" overflow="visible"><path d="m3.03125-2.40625h-2.71875v-.484375h2.71875zm0 1.234375h-2.71875v-.46875h2.71875zm0 0"/></symbol><symbol id="ad" overflow="visible"><path d="m.234375-1.078125.515625-.078125c.050781.292969.144531.5.28125.625.144531.125.316406.1875.515625.1875.238281 0 .4375-.082031.59375-.25.164063-.164062.25-.367188.25-.609375 0-.226563-.078125-.414063-.234375-.5625-.148438-.15625-.335938-.234375-.5625-.234375-.09375 0-.214844.023438-.359375.0625l.0625-.453125c.03125.011719.054687.015625.078125.015625.207031 0 .394531-.054688.5625-.171875.175781-.113281.265625-.285156.265625-.515625 0-.1875-.0625-.335938-.1875-.453125-.125-.125-.289063-.1875-.484375-.1875-.1875 0-.351562.0625-.484375.1875-.136719.117187-.21875.296875-.25.546875l-.5-.09375c.0625-.332031.195313-.59375.40625-.78125.21875-.1875.492187-.28125.828125-.28125.21875 0 .421875.054688.609375.15625.1875.09375.332031.226562.4375.390625.101563.167969.15625.339844.15625.515625 0 .1875-.054687.355469-.15625.5-.09375.136719-.234375.25-.421875.34375.25.054688.4375.167969.5625.34375.132812.179688.203125.398438.203125.65625 0 .367188-.132813.671875-.390625.921875-.261719.25-.589844.375-.984375.375-.367187 0-.667969-.109375-.90625-.328125-.230469-.21875-.367187-.492188-.40625-.828125zm0 0"/></symbol><symbol id="ae" overflow="visible"><path d="m2.140625 0h-.515625v-3.21875c-.117188.125-.273438.246094-.46875.359375-.199219.117187-.375.199219-.53125.25v-.484375c.28125-.132812.523438-.296875.734375-.484375.21875-.1875.367187-.367187.453125-.546875h.328125zm0 0"/></symbol><symbol id="af" overflow="visible"><path d="m.515625 0v-.578125h.578125v.578125zm0 0"/></symbol><symbol id="ag" overflow="visible"><path d="m1.484375 0v-3.625h-1.34375v-.484375h3.25v.484375h-1.359375v3.625zm0 0"/></symbol><symbol id="ah" overflow="visible"><path d="m.359375 1.140625-.0625-.46875c.113281.03125.210937.046875.296875.046875.101562 0 .1875-.023438.25-.0625.070312-.03125.128906-.085938.171875-.15625.03125-.054688.082031-.179688.15625-.375.007813-.023438.023437-.0625.046875-.125l-1.125-2.96875h.546875l.609375 1.71875c.082031.21875.15625.449219.21875.6875.0625-.226562.128906-.453125.203125-.671875l.640625-1.734375h.5l-1.125 3.015625c-.125.332031-.21875.554687-.28125.671875-.09375.164062-.199219.285156-.3125.359375-.117188.082031-.25.125-.40625.125-.105469 0-.214844-.023437-.328125-.0625zm0 0"/></symbol><symbol id="ai" overflow="visible"><path d="m.375 1.140625v-4.109375h.46875v.375c.101562-.144531.222656-.253906.359375-.328125.132813-.082031.300781-.125.5-.125.25 0 .46875.070313.65625.203125.195313.125.34375.308594.4375.546875.101563.242187.15625.5.15625.78125 0 .3125-.058594.589844-.171875.828125-.105469.242188-.261719.429688-.46875.5625-.210938.125-.429688.1875-.65625.1875-.167969 0-.320312-.03125-.453125-.09375-.125-.070312-.234375-.164062-.328125-.28125v1.453125zm.453125-2.609375c0 .386719.078125.671875.234375.859375.15625.179687.34375.265625.5625.265625.226562 0 .421875-.09375.578125-.28125.15625-.195312.234375-.492188.234375-.890625 0-.375-.078125-.65625-.234375-.84375-.148437-.1875-.328125-.28125-.546875-.28125s-.414062.101563-.578125.296875c-.167969.199219-.25.492188-.25.875zm0 0"/></symbol><symbol id="aj" overflow="visible"><path d="m.4375 0v-4.109375h1.421875c.3125 0 .554687.023437.734375.0625.226562.054687.425781.152344.59375.296875.21875.179688.378906.414062.484375.703125.113281.28125.171875.605469.171875.96875 0 .3125-.039062.589844-.109375.828125-.074219.242188-.167969.445312-.28125.609375-.117187.15625-.242187.28125-.375.375-.136719.085937-.304687.152344-.5.203125-.1875.0429688-.40625.0625-.65625.0625zm.546875-.484375h.875c.269531 0 .484375-.023437.640625-.078125.15625-.050781.28125-.117188.375-.203125.125-.132813.222656-.3125.296875-.53125.070313-.21875.109375-.476563.109375-.78125 0-.4375-.074219-.769531-.21875-1-.136719-.226563-.308594-.378906-.515625-.453125-.148437-.0625-.382813-.09375-.703125-.09375h-.859375zm0 0"/></symbol><symbol id="ak" overflow="visible"><path d="m-.015625 0 1.78125-4.625h.65625l1.890625 4.625h-.6875l-.546875-1.40625h-1.9375l-.5 1.40625zm1.34375-1.890625h1.5625l-.484375-1.28125c-.148438-.394531-.257812-.71875-.328125-.96875-.0625.304687-.148437.601563-.25.890625zm0 0"/></symbol><symbol id="al" overflow="visible"><path d="m3.796875-1.625.609375.15625c-.125.5-.355469.886719-.6875 1.15625-.335938.2617188-.742188.390625-1.21875.390625-.5 0-.90625-.0976562-1.21875-.296875-.3125-.207031-.554688-.503906-.71875-.890625-.15625-.382813-.234375-.796875-.234375-1.234375 0-.476562.085937-.894531.265625-1.25.1875-.363281.445312-.640625.78125-.828125.34375-.1875.71875-.28125 1.125-.28125.457031 0 .84375.121094 1.15625.359375.320312.230469.546875.558594.671875.984375l-.609375.15625c-.105469-.34375-.261719-.585937-.46875-.734375-.199219-.15625-.453125-.234375-.765625-.234375-.355469 0-.652344.085937-.890625.25-.242188.167969-.40625.398437-.5.6875-.09375.292969-.140625.589844-.140625.890625 0 .386719.054687.730469.171875 1.03125.113281.292969.289062.511719.53125.65625.238281.148438.5.21875.78125.21875.34375 0 .632812-.097656.875-.296875.238281-.195313.398438-.492187.484375-.890625zm0 0"/></symbol><symbol id="am" overflow="visible"><path d="m.46875 0v-4.625h.609375v4.078125h2.28125v.546875zm0 0"/></symbol><symbol id="an" overflow="visible"/><symbol id="ao" overflow="visible"><path d="m.515625 0v-4.625h.609375v1.90625h2.40625v-1.90625h.609375v4.625h-.609375v-2.171875h-2.40625v2.171875zm0 0"/></symbol><symbol id="ap" overflow="visible"><path d="m2.71875-1.078125.578125.078125c-.09375.34375-.265625.609375-.515625.796875s-.570312.28125-.953125.28125c-.492187 0-.882813-.1484375-1.171875-.453125-.28125-.300781-.421875-.722656-.421875-1.265625 0-.5625.144531-1 .4375-1.3125.289063-.3125.664063-.46875 1.125-.46875.445313 0 .8125.152344 1.09375.453125.289063.304688.4375.734375.4375 1.296875 0 .03125-.007813.078125-.015625.140625h-2.484375c.019531.367188.125.648438.3125.84375.1875.199219.414063.296875.6875.296875.207031 0 .382813-.050781.53125-.15625.15625-.113281.273437-.289063.359375-.53125zm-1.859375-.921875h1.859375c-.023438-.28125-.089844-.488281-.203125-.625-.1875-.21875-.421875-.328125-.703125-.328125-.261719 0-.484375.089844-.671875.265625-.179687.167969-.273437.398438-.28125.6875zm0 0"/></symbol><symbol id="aq" overflow="visible"><path d="m2.609375-.40625c-.210937.179688-.414063.304688-.609375.375-.1875.0703125-.398438.109375-.625.109375-.367188 0-.648438-.0859375-.84375-.265625-.199219-.1875-.296875-.414062-.296875-.6875 0-.164062.035156-.316406.109375-.453125.070312-.132813.164062-.242187.28125-.328125.125-.082031.265625-.144531.421875-.1875.113281-.03125.28125-.054688.5-.078125.457031-.0625.796875-.128906 1.015625-.203125 0-.070312 0-.117188 0-.140625 0-.238281-.054688-.40625-.15625-.5-.148438-.125-.359375-.1875-.640625-.1875-.273437 0-.46875.046875-.59375.140625s-.21875.261719-.28125.5l-.5625-.078125c.050781-.238281.132813-.429687.25-.578125.113281-.144531.28125-.253906.5-.328125.21875-.082031.472656-.125.765625-.125.28125 0 .507812.039063.6875.109375.175781.0625.304688.148438.390625.25.09375.09375.15625.21875.1875.375.019531.105469.03125.28125.03125.53125v.75c0 .53125.007813.871094.03125 1.015625.019531.136719.066406.265625.140625.390625h-.59375c-.054688-.113281-.089844-.25-.109375-.40625zm-.046875-1.265625c-.210938.085937-.515625.152344-.921875.203125-.242187.03125-.40625.074219-.5.125-.09375.042969-.167969.105469-.21875.1875-.054687.074219-.078125.164062-.078125.265625 0 .148437.054688.273437.171875.375.113281.09375.28125.140625.5.140625s.410156-.046875.578125-.140625c.164062-.09375.289062-.222656.375-.390625.0625-.125.09375-.3125.09375-.5625zm0 0"/></symbol><symbol id="ar" overflow="visible"><path d="m2.59375 0v-.421875c-.210938.3359375-.523438.5-.9375.5-.261719 0-.507812-.07421875-.734375-.21875-.21875-.144531-.390625-.347656-.515625-.609375-.125-.269531-.1875-.578125-.1875-.921875 0-.332031.050781-.632813.15625-.90625.113281-.269531.28125-.476563.5-.625.226562-.144531.484375-.21875.765625-.21875.195313 0 .375.042969.53125.125.15625.085937.285156.195313.390625.328125v-1.65625h.5625v4.625zm-1.796875-1.671875c0 .429687.085937.75.265625.96875.1875.210937.40625.3125.65625.3125.238281 0 .445312-.097656.625-.296875.175781-.207031.265625-.519531.265625-.9375 0-.457031-.089844-.789062-.265625-1-.179688-.21875-.398438-.328125-.65625-.328125-.25 0-.464844.105469-.640625.3125-.167969.210937-.25.53125-.25.96875zm0 0"/></symbol><symbol id="as" overflow="visible"><path d="m.421875 0v-3.34375h.5v.5c.132813-.226562.253906-.378906.359375-.453125.113281-.082031.238281-.125.375-.125.1875 0 .378906.0625.578125.1875l-.1875.515625c-.148437-.070312-.289063-.109375-.421875-.109375-.125 0-.242188.039063-.34375.109375-.09375.074219-.164062.179688-.203125.3125-.0625.199219-.09375.417969-.09375.65625v1.75zm0 0"/></symbol><symbol id="at" overflow="visible"><path d="m.46875 0v-4.625h1.734375c.351563 0 .632813.046875.84375.140625.21875.09375.382813.242187.5.4375.125.199219.1875.402344.1875.609375 0 .199219-.054687.386719-.15625.5625-.105469.167969-.265625.308594-.484375.421875.28125.085937.492188.226563.640625.421875.144531.1875.21875.417969.21875.6875 0 .21875-.046875.421875-.140625.609375-.085938.1875-.195312.335937-.328125.4375-.136719.09375-.308594.167969-.515625.21875-.199219.0546875-.445312.078125-.734375.078125zm.609375-2.671875h1c.269531 0 .46875-.019531.59375-.0625.15625-.039063.269531-.113281.34375-.21875.082031-.113281.125-.25.125-.40625s-.039063-.289063-.109375-.40625c-.074219-.113281-.183594-.191406-.328125-.234375-.136719-.050781-.371094-.078125-.703125-.078125h-.921875zm0 2.125h1.15625c.195313 0 .335937-.003906.421875-.015625.132812-.03125.25-.070312.34375-.125.09375-.0625.171875-.148438.234375-.265625.0625-.113281.09375-.242187.09375-.390625 0-.164062-.046875-.3125-.140625-.4375-.085938-.132812-.203125-.226562-.359375-.28125-.15625-.050781-.382813-.078125-.671875-.078125h-1.078125zm0 0"/></symbol><symbol id="au" overflow="visible"><path d="m.203125-1 .5625-.09375c.03125.230469.113281.40625.25.53125.144531.117188.347656.171875.609375.171875.257812 0 .453125-.050781.578125-.15625.125-.101563.1875-.226563.1875-.375 0-.125-.054687-.222656-.15625-.296875-.085937-.050781-.28125-.117188-.59375-.203125-.40625-.101563-.695313-.191406-.859375-.265625-.15625-.082031-.277344-.191406-.359375-.328125-.085937-.132813-.125-.28125-.125-.4375s.03125-.296875.09375-.421875c.070313-.125.164063-.226562.28125-.3125.09375-.0625.210937-.113281.359375-.15625.15625-.050781.320312-.078125.5-.078125.257812 0 .488281.042969.6875.125.195312.074219.34375.171875.4375.296875s.160156.296875.203125.515625l-.5625.078125c-.023437-.175781-.09375-.3125-.21875-.40625s-.296875-.140625-.515625-.140625c-.261719 0-.449219.042969-.5625.125-.105469.085937-.15625.183594-.15625.296875 0 .085938.019531.152344.0625.203125.050781.0625.125.117187.21875.15625.0625.023437.226562.070313.5.140625.40625.105469.6875.195312.84375.265625.15625.074219.28125.179687.375.3125.09375.125.140625.28125.140625.46875s-.058594.367187-.171875.53125c-.117188.167969-.277344.296875-.484375.390625-.210937.09375-.445313.140625-.703125.140625-.429688 0-.757812-.0859375-.984375-.265625-.230469-.1875-.375-.457031-.4375-.8125zm0 0"/></symbol><symbol id="av" overflow="visible"><path d="m.953125 0h-.53125v-4.625h.5625v1.65625c.238281-.300781.546875-.453125.921875-.453125.207031 0 .398438.042969.578125.125.1875.085937.335937.203125.453125.359375.125.148438.21875.328125.28125.546875.070312.210937.109375.433594.109375.671875 0 .574219-.148437 1.015625-.4375 1.328125-.28125.3125-.621094.46875-1.015625.46875-.398438 0-.703125-.1640625-.921875-.5zm-.015625-1.703125c0 .40625.054688.699219.171875.875.175781.292969.414063.4375.71875.4375.25 0 .460937-.101563.640625-.3125.1875-.21875.28125-.539063.28125-.96875 0-.4375-.089844-.757813-.265625-.96875-.179687-.207031-.386719-.3125-.625-.3125-.25 0-.46875.109375-.65625.328125-.179687.210938-.265625.515625-.265625.921875zm0 0"/></symbol><symbol id="aw" overflow="visible"><path d="m.421875 0v-3.34375h.515625v.46875c.238281-.363281.59375-.546875 1.0625-.546875.195312 0 .378906.039063.546875.109375.175781.074219.304687.167969.390625.28125.082031.117188.140625.257812.171875.421875.019531.105469.03125.289063.03125.546875v2.0625h-.5625v-2.03125c0-.226562-.027344-.398438-.078125-.515625-.042969-.113281-.121094-.207031-.234375-.28125-.105469-.070313-.234375-.109375-.390625-.109375-.242188 0-.449219.078125-.625.234375-.167969.15625-.25.449219-.25.875v1.828125zm0 0"/></symbol><symbol id="ax" overflow="visible"><path d="m.34375-2.5c0-.851562.226562-1.519531.6875-2 .457031-.476562 1.050781-.71875 1.78125-.71875.46875 0 .890625.117188 1.265625.34375.382813.21875.675781.53125.875.9375.195313.40625.296875.867188.296875 1.375 0 .523438-.105469.992188-.3125 1.40625-.210938.40625-.507812.71875-.890625.9375-.386719.2109375-.804687.3125-1.25.3125-.480469 0-.914063-.1132812-1.296875-.34375-.375-.238281-.664062-.5625-.859375-.96875-.199219-.40625-.296875-.832031-.296875-1.28125zm.703125.015625c0 .617187.164063 1.101563.5 1.453125.332031.355469.75.53125 1.25.53125.507813 0 .929687-.175781 1.265625-.53125.332031-.363281.5-.875.5-1.53125 0-.414062-.074219-.78125-.21875-1.09375-.148438-.3125-.355469-.550781-.625-.71875-.273438-.175781-.574219-.265625-.90625-.265625-.480469 0-.898438.167969-1.25.5-.34375.324219-.515625.875-.515625 1.65625zm0 0"/></symbol><symbol id="ay" overflow="visible"><path d="m1.5 0-1.40625-3.71875h.65625l.8125 2.234375c.082031.242187.160156.484375.234375.734375.050781-.1875.128906-.421875.234375-.703125l.828125-2.265625h.640625l-1.40625 3.71875zm0 0"/></symbol><symbol id="az" overflow="visible"><path d="m3.015625-1.203125.65625.09375c-.105469.375-.296875.667969-.578125.875-.273438.2109375-.625.3125-1.0625.3125-.542969 0-.976562-.1640625-1.296875-.5-.3125-.332031-.46875-.800781-.46875-1.40625 0-.625.160156-1.109375.484375-1.453125.320312-.34375.738281-.515625 1.25-.515625.5 0 .90625.171875 1.21875.515625.3125.335938.46875.808594.46875 1.421875v.15625h-2.78125c.03125.417969.148438.734375.359375.953125.207031.210938.460937.3125.765625.3125.238281 0 .4375-.054688.59375-.171875.164062-.125.296875-.320313.390625-.59375zm-2.0625-1.015625h2.078125c-.03125-.3125-.117188-.546875-.25-.703125-.199219-.238281-.460938-.359375-.78125-.359375-.28125 0-.523438.101562-.71875.296875-.199219.1875-.308594.445313-.328125.765625zm0 0"/></symbol><symbol id="aA" overflow="visible"><path d="m.46875 0v-3.71875h.5625v.5625c.144531-.257812.28125-.429688.40625-.515625.125-.082031.257812-.125.40625-.125.207031 0 .421875.070313.640625.203125l-.21875.578125c-.15625-.09375-.308594-.140625-.453125-.140625-.148438 0-.277344.042969-.390625.125-.105469.085938-.179687.199219-.21875.34375-.074219.230469-.109375.476562-.109375.734375v1.953125zm0 0"/></symbol><symbol id="aB" overflow="visible"><path d="m.21875-1.109375.625-.09375c.03125.25.125.445313.28125.578125.164062.125.394531.1875.6875.1875.28125 0 .488281-.054688.625-.171875.144531-.113281.21875-.253906.21875-.421875 0-.132812-.0625-.242188-.1875-.328125-.085938-.0625-.296875-.132813-.640625-.21875-.460937-.113281-.777344-.210937-.953125-.296875-.179688-.082031-.3125-.195312-.40625-.34375-.09375-.15625-.140625-.328125-.140625-.515625 0-.164063.035156-.316406.109375-.453125.070312-.144531.175781-.265625.3125-.359375.09375-.070313.222656-.128906.390625-.171875.175781-.050781.359375-.078125.546875-.078125.289062 0 .546875.042969.765625.125.226563.085937.394531.199219.5.34375.101563.136719.175781.324219.21875.5625l-.625.09375c-.023437-.195313-.101563-.347656-.234375-.453125-.136719-.101562-.328125-.15625-.578125-.15625-.28125 0-.484375.046875-.609375.140625s-.1875.203125-.1875.328125c0 .085938.023438.164062.078125.234375.050781.0625.128906.117187.234375.15625.0625.03125.25.089844.5625.171875.445312.117188.757812.214844.9375.296875.175781.074219.3125.183594.40625.328125.101562.136719.15625.3125.15625.53125 0 .210938-.0625.40625-.1875.59375s-.304688.335938-.53125.4375c-.230469.09375-.492188.140625-.78125.140625-.492188 0-.859375-.0976562-1.109375-.296875-.25-.195312-.414063-.492188-.484375-.890625zm0 0"/></symbol><symbol id="aC" overflow="visible"><path d="m.46875-4.40625v-.734375h.640625v.734375zm0 4.40625v-3.71875h.640625v3.71875zm0 0"/></symbol><symbol id="aD" overflow="visible"><path d="m.140625 0v-.515625l2.359375-2.71875c-.261719.023437-.496094.03125-.703125.03125h-1.515625v-.515625h3.03125v.421875l-2 2.359375-.390625.421875c.28125-.019531.546875-.03125.796875-.03125h1.71875v.546875zm0 0"/></symbol><symbol id="aE" overflow="visible"><path d="m2.890625 0v-.46875c-.242187.367188-.589844.546875-1.046875.546875-.292969 0-.5625-.078125-.8125-.234375-.25-.164062-.445312-.394531-.578125-.6875-.136719-.289062-.203125-.628906-.203125-1.015625 0-.363281.054688-.695313.171875-1 .125-.300781.3125-.53125.5625-.6875.25-.164063.523437-.25.828125-.25.226562 0 .425781.046875.59375.140625.175781.09375.320312.214844.4375.359375v-1.84375h.625v5.140625zm-2-1.859375c0 .480469.097656.839844.296875 1.078125.207031.230469.445312.34375.71875.34375.269531 0 .5-.109375.6875-.328125.195312-.226563.296875-.570313.296875-1.03125 0-.507813-.101563-.882813-.296875-1.125-.1875-.238281-.429688-.359375-.71875-.359375-.28125 0-.515625.117188-.703125.34375-.1875.230469-.28125.589844-.28125 1.078125zm0 0"/></symbol><symbol id="aF" overflow="visible"><path d="m.53125 0v-5.140625h.671875v4.53125h2.53125v.609375zm0 0"/></symbol><symbol id="aG" overflow="visible"><path d="m.53125 0v-5.140625h1.03125l1.203125 3.640625c.113281.34375.195313.601562.25.765625.0625-.1875.148437-.460937.265625-.828125l1.234375-3.578125h.921875v5.140625h-.65625v-4.296875l-1.5 4.296875h-.609375l-1.484375-4.375v4.375zm0 0"/></symbol><symbol id="aH" overflow="visible"><path d="m.546875 0v-5.140625h1.9375c.34375 0 .601563.023437.78125.0625.257813.042969.472656.121094.640625.234375.164062.117188.300781.28125.40625.5.101562.210938.15625.4375.15625.6875 0 .4375-.140625.808594-.421875 1.109375-.273437.304687-.773437.453125-1.5.453125h-1.3125v2.09375zm.6875-2.6875h1.328125c.4375 0 .742188-.082031.921875-.25.1875-.164062.28125-.394531.28125-.6875 0-.21875-.054687-.398438-.15625-.546875-.105469-.15625-.246094-.257813-.421875-.3125-.117188-.03125-.328125-.046875-.640625-.046875h-1.3125zm0 0"/></symbol><g clip-path="url(#a)"><path d="m0 0h172v111.800781h-172zm0 0" fill="#fff"/></g><path d="m9.601562 15.410156h152.078126c.371093 0 .726562.070313 1.070312.210938s.644531.34375.90625.605468c.261719.261719.464844.566407.605469.90625.140625.34375.214843.699219.214843 1.070313v87.578125c0 .371094-.074218.726562-.214843 1.066406-.140625.34375-.34375.648438-.605469.910156-.261719.261719-.5625.460938-.90625.605469-.34375.140625-.699219.210938-1.070312.210938h-152.078126c-.367187 0-.726562-.070313-1.066406-.210938-.34375-.144531-.644531-.34375-.90625-.605469-.265625-.261718-.464844-.566406-.609375-.910156-.140625-.339844-.210937-.695312-.210937-1.066406v-87.578125c0-.371094.070312-.726563.210937-1.070313.144531-.339843.34375-.644531.609375-.90625.261719-.261718.5625-.464843.90625-.605468.339844-.140625.699219-.210938 1.066406-.210938zm0 0" fill="#dae8fc" fill-opacity=".302"/><g clip-path="url(#b)"><path d="m12.897531 21.002546h212.202058c.517806 0 1.013809.09811 1.49346.294331s.899346.479652 1.264535.844841.648619.790334.84484 1.264535c.196221.479651.299782.975654.299782 1.493459v122.202049c0 .517805-.103561 1.013808-.299782 1.488009-.196221.479651-.479651.904796-.84484 1.269985s-.784884.643169-1.264535.84484c-.479651.196221-.975654.294332-1.49346.294332h-212.202058c-.512355 0-1.013809-.098111-1.488009-.294332-.479652-.201671-.899346-.479651-1.264535-.84484-.37064-.365189-.64862-.790334-.850291-1.269985-.196221-.474201-.294332-.970204-.294332-1.488009v-122.202049c0-.517805.098111-1.013808.294332-1.493459.201671-.474201.479651-.899346.850291-1.264535.365189-.365189.784883-.64862 1.264535-.844841.4742-.196221.975654-.294331 1.488009-.294331zm0 0" fill="none" stroke="#6c8ebf" stroke-opacity=".302" transform="matrix(.716667 0 0 .716667 .358333 .358333)"/></g><path d="m149.726562 2.972656c-.203124.1875-.515624.214844-.738281-.046875-.15625-.210937-.078125-.453125.050781-.574219.773438-.746093 2-1.277343 3.289063-1.261718 1.496094.019531 2.570313.621094 3.265625 1.269531.214844.21875.152344.5-.035156.636719-.222656.164062-.492188.164062-.6875-.035156-.628906-.582032-1.503906-.96875-2.464844-.988282-.902344-.023437-1.878906.25-2.679688 1zm1.230469 1.242188c-.207031.179687-.507812.148437-.6875-.058594-.121093-.144531-.164062-.386719.023438-.574219.492187-.492187 1.253906-.792969 2.003906-.792969.832031.011719 1.535156.34375 2.007813.835938.160156.214844.085937.4375-.0625.582031-.128907.144531-.445313.199219-.675782-.023437-.320312-.300782-.773437-.492188-1.273437-.492188-.511719 0-.992188.1875-1.335938.523438zm10.292969 12.890625h-17.917969v-11.9375h17.917969zm-6.972656.941406c.164062.179687.136718.398437.015625.542969-.511719.558594-1.300781.816406-1.972657.816406-.78125 0-1.496093-.277344-2.019531-.773438-.171875-.171874-.203125-.4375.035157-.644531.199218-.164062.457031-.136719.628906.015625.300781.285156.769531.523438 1.339844.515625.625-.015625 1.039062-.28125 1.335937-.550781.121094-.09375.414063-.175781.636719.078125zm1.289062 1.785156c-.796875.792969-1.992187 1.308594-3.261718 1.308594-1.203126 0-2.398438-.421875-3.316407-1.316406-.109375-.117188-.207031-.382813.050781-.617188.199219-.164062.480469-.15625.664063.035157.683594.625 1.5625.988281 2.601563.996093 1.199218-.019531 2.035156-.523437 2.566406-1.011719.160156-.140624.421875-.214843.667968-.003906.15625.15625.207032.398438.027344.609375zm0 0" fill="#5294cf"/><path d="m143.332031 16.390625h17.917969v.714844h-17.917969zm0 0" fill-opacity=".302"/><path d="m161.25 13.875h-3.015625c-.179687 0-.351563-.15625-.351563-.34375v-1.261719c-.203124-.078125-.53125-.328125-.53125-.765625 0-.453125.386719-.824218.910157-.824218.394531 0 .867187.308593.867187.824218 0 .34375-.214844.628906-.53125.765625v.925781h2.652344zm-5.574219 1.726562c-.171875 0-.351562-.148437-.351562-.335937v-2.996094c-.171875-.070312-.503907-.285156-.523438-.746093-.015625-.34375.285157-.867188.917969-.84375.484375.019531.84375.386718.851562.824218-.007812.34375-.214843.636719-.53125.757813v2.667969h5.210938v.671874zm-1.234375-10.433593v2.492187h1.527344v-1.410156c0-.195312.148438-.367188.386719-.367188h3.761719c.238281 0 .386718.171876.386718.359376v3.570312c0 .148438-.148437.351562-.378906.351562h-3.777344c-.199218 0-.378906-.152343-.378906-.359374v-1.46875h-3.707031c-.121094.265624-.414063.492187-.808594.492187-.496094 0-.882813-.371094-.882813-.835937 0-.429688.367188-.824219.90625-.824219.320313 0 .65625.199219.785157.492187h1.464843v-2.492187zm-5.230468 0h.714843v5.082031l1.332031 1.253906.640626-.597656c-.09375-.226562-.101563-.578125.179687-.871094.394531-.367187.902344-.296875 1.175781-.09375.441406.320313.449219.886719.121094 1.222656-.296875.308594-.710938.324219-.96875.222657l-.636719.597656 1.132813 1.066406c.285156-.101562.65625-.078125.9375.179688.445312.429687.273437.980469-.035156 1.226562-.410157.320313-.960938.242188-1.261719-.09375-.152344-.179687-.28125-.480469-.152344-.824219l-3.09375-2.917968c-.058594-.050782-.085937-.136719-.085937-.238282zm-4.730469 0h.714843v2.492187h1.25c.15625-.320312.484376-.492187.800782-.492187.5 0 .890625.378906.890625.828125 0 .417968-.339844.832031-.910157.832031-.246093 0-.609374-.136719-.78125-.492187h-1.25v2.679687l2.195313 2.0625c.429687-.171875 1.015625 0 1.1875.546875.160156.570312-.292969 1.082031-.886719 1.050781-.324218-.003906-.695312-.207031-.816406-.609375-.042969-.164062-.039062-.34375.011719-.484375l-2.304688-2.179687c-.058593-.050782-.101562-.121094-.101562-.257813zm5.761719 11.222656v-2.429687l-2.738282-2.566407c-.414062.136719-.816406-.019531-1.015625-.300781-.289062-.386719-.203125-.902344.226563-1.183594.402344-.242187.898437-.140625 1.167968.171875.265626.308594.222657.652344.136719.839844l2.9375 2.746094v2.722656zm-5.742188 0v-1.777344c-.234375-.09375-.523438-.375-.523438-.753906 0-.535156.46875-.84375.875-.84375.488282 0 .890626.351563.890626.832031 0 .320313-.195313.621094-.515626.765625v1.777344zm0 0" fill="#fff"/><g><use x="11.466665" xlink:href="#d" y="12.899999"/><use x="18.630532" xlink:href="#e" y="12.899999"/><use x="23.413441" xlink:href="#f" y="12.899999"/><use x="27.713441" xlink:href="#g" y="12.899999"/><use x="30.102796" xlink:href="#h" y="12.899999"/><use x="34.885706" xlink:href="#i" y="12.899999"/><use x="37.749572" xlink:href="#j" y="12.899999"/><use x="40.138928" xlink:href="#k" y="12.899999"/><use x="43.002794" xlink:href="#l" y="12.899999"/><use x="48.738927" xlink:href="#g" y="12.899999"/><use x="51.128282" xlink:href="#g" y="12.899999"/><use x="53.517637" xlink:href="#e" y="12.899999"/><use x="58.300547" xlink:href="#m" y="12.899999"/><use x="62.600546" xlink:href="#n" y="12.899999"/><use x="66.900546" xlink:href="#h" y="12.899999"/><use x="71.683455" xlink:href="#i" y="12.899999"/><use x="74.547322" xlink:href="#o" y="12.899999"/></g><path d="m5.734375 108.214844v-4.296875h1.433594v4.296875m-1.433594-8.597656v-4.300782h1.433594v4.300782m-1.433594-8.601563v-4.300781h1.433594v4.300781m-1.433594-8.597656v-4.300781h1.433594v4.300781m-1.433594-8.601563v-4.300781h1.433594v4.300781m-1.433594-8.601562v-4.296875h1.433594v4.296875m-1.433594-8.597656v-4.300782h1.433594v4.300782m-1.433594-8.601563v-4.300781h1.433594v4.300781m-1.433594-8.597656v-4.300781h1.433594v4.300781m-1.433594-8.601563v-4.300781h1.433594v4.300781m-1.433594-8.601562v-4.296875h1.433594v4.296875m-1.433594-8.597656v-4.300782h1.433594v4.300782m-1.433594-8.601563v-4.300781h1.433594v4.300781"/><path d="m163.398438 108.214844v-4.296875h1.433593v4.296875m-1.433593-8.597656v-4.300782h1.433593v4.300782m-1.433593-8.601563v-4.300781h1.433593v4.300781m-1.433593-8.597656v-4.300781h1.433593v4.300781m-1.433593-8.601563v-4.300781h1.433593v4.300781m-1.433593-8.601562v-4.296875h1.433593v4.296875m-1.433593-8.597656v-4.300782h1.433593v4.300782m-1.433593-8.601563v-4.300781h1.433593v4.300781m-1.433593-8.597656v-4.300781h1.433593v4.300781m-1.433593-8.601563v-4.300781h1.433593v4.300781m-1.433593-8.601562v-4.296875h1.433593v4.296875m-1.433593-8.597656v-4.300782h1.433593v4.300782m-1.433593-8.601563v-4.300781h1.433593v4.300781"/><g><use x="118.966653" xlink:href="#p" y="12.899999"/><use x="124.702785" xlink:href="#q" y="12.899999"/><use x="126.61343" xlink:href="#e" y="12.899999"/><use x="131.396339" xlink:href="#r" y="12.899999"/><use x="135.696339" xlink:href="#h" y="12.899999"/></g><path d="m85.285156 14.691406v-.714844h.714844v.714844m-.714844-2.867187v-.714844h.714844v.714844m-.714844-2.867188v-.714843h.714844v.714843m-.714844-2.867187v-.714844h.714844v.714844"/><g><use x="11.466665" xlink:href="#s" y="50.883328"/><use x="16.249575" xlink:href="#d" y="50.883328"/><use x="23.413441" xlink:href="#t" y="50.883328"/><use x="29.149574" xlink:href="#u" y="50.883328"/><use x="33.932483" xlink:href="#v" y="50.883328"/><use x="38.715393" xlink:href="#e" y="50.883328"/><use x="43.498302" xlink:href="#m" y="50.883328"/><use x="47.798302" xlink:href="#n" y="50.883328"/><use x="52.098301" xlink:href="#h" y="50.883328"/><use x="56.881211" xlink:href="#g" y="50.883328"/><use x="59.270566" xlink:href="#u" y="50.883328"/><use x="64.053476" xlink:href="#g" y="50.883328"/><use x="66.442831" xlink:href="#w" y="50.883328"/><use x="70.74283" xlink:href="#v" y="50.883328"/><use x="75.52574" xlink:href="#h" y="50.883328"/><use x="80.30865" xlink:href="#u" y="50.883328"/><use x="85.091559" xlink:href="#g" y="50.883328"/><use x="87.480914" xlink:href="#e" y="50.883328"/><use x="92.263824" xlink:href="#x" y="50.883328"/><use x="97.046734" xlink:href="#q" y="50.883328"/><use x="98.957378" xlink:href="#h" y="50.883328"/><use x="103.740287" xlink:href="#u" y="50.883328"/><use x="108.523197" xlink:href="#i" y="50.883328"/><use x="111.387064" xlink:href="#h" y="50.883328"/><use x="116.169973" xlink:href="#y" y="50.883328"/></g><path d="m10.390625 71.308594 25.085937-17.199219h100.332032l25.082031 17.199219zm0 0" fill="#f5f5f5"/><path d="m13.734375 68.582031 1.773437-1.21875.40625.59375-1.773437 1.214844zm3.546875-2.433593 1.773438-1.214844.40625.589844-1.773438 1.21875zm3.546875-2.429688 1.773437-1.21875.40625.59375-1.773437 1.214844zm3.546875-2.433594 1.773438-1.214844.40625.589844-1.773438 1.214844zm3.546875-2.429687 1.773437-1.21875.402344.59375-1.773437 1.214843zm3.546875-2.433594 1.769531-1.214844.40625.589844-1.773437 1.214844zm3.542969-2.429687.351562-.242188h1.949219v.714844h-1.835938v-.355469l.199219.292969-.257812.179687zm4.449219-.242188h2.148437v.714844h-2.148437zm4.300781 0h2.148437v.714844h-2.148437zm4.300781 0h2.148438v.714844h-2.148438zm4.296875 0h2.152344v.714844h-2.152344zm4.300781 0h2.152344v.714844h-2.152344zm4.300782 0h2.148437v.714844h-2.148437zm4.300781 0h2.148437v.714844h-2.148437zm4.300781 0h2.148438v.714844h-2.148438zm4.296875 0h2.152344v.714844h-2.152344zm4.300781 0h2.152344v.714844h-2.152344zm4.300782 0h2.148437v.714844h-2.148437zm4.300781 0h2.148437v.714844h-2.148437zm4.300781 0h2.148438v.714844h-2.148438zm4.296875 0h2.152344v.714844h-2.152344zm4.300781 0h2.152344v.714844h-2.152344zm4.300782 0h2.148437v.714844h-2.148437zm4.300781 0h2.148437v.714844h-2.148437zm4.300781 0h2.148438v.714844h-2.148438zm4.296875 0h2.152344v.714844h-2.152344zm4.300781 0h2.152344v.714844h-2.152344zm4.300782 0h2.148437v.714844h-2.148437zm4.300781 0h2.148437v.714844h-2.148437zm4.300781 0h1.855469l.425781.289062-.40625.59375-.332031-.230468.203125-.292969v.355469h-1.746094zm4.054688 1.507812 1.773437 1.214844-.40625.589844-1.773437-1.214844zm3.546874 2.429688 1.773438 1.214844-.40625.59375-1.773438-1.21875zm3.542969 2.433594 1.773438 1.214844-.402344.589843-1.773437-1.214843zm3.546875 2.429687 1.773438 1.21875-.402344.589844-1.773438-1.214844zm3.546875 2.433594 1.773438 1.214844-.40625.589843-1.773438-1.214843zm3.546875 2.429687 1.773438 1.21875-.40625.589844-1.773438-1.214844zm3.546875 2.433594 2.652344 1.820313h-1.242187v-.71875h.085937v.359375l-.203125.296875-1.699219-1.167969zm-.742187 1.820313h-2.148438v-.71875h2.148438zm-4.300782 0h-2.148437v-.71875h2.148437zm-4.296874 0h-2.152344v-.71875h2.152344zm-4.300782 0h-2.152344v-.71875h2.152344zm-4.300781 0h-2.148437v-.71875h2.148437zm-4.300781 0h-2.148438v-.71875h2.148438zm-4.300782 0h-2.148437v-.71875h2.148437zm-4.296874 0h-2.152344v-.71875h2.152344zm-4.300782 0h-2.152344v-.71875h2.152344zm-4.300781 0h-2.148437v-.71875h2.148437zm-4.300781 0h-2.148438v-.71875h2.148438zm-4.300782 0h-2.148437v-.71875h2.148437zm-4.296874 0h-2.152344v-.71875h2.152344zm-4.300782 0h-2.152344v-.71875h2.152344zm-4.300781 0h-2.148437v-.71875h2.148437zm-4.300781 0h-2.148438v-.71875h2.148438zm-4.300782 0h-2.148437v-.71875h2.148437zm-4.296874 0h-2.152344v-.71875h2.152344zm-4.300782 0h-2.152344v-.71875h2.152344zm-4.300781 0h-2.148437v-.71875h2.148437zm-4.300781 0h-2.148438v-.71875h2.148438zm-4.300782 0h-2.148437v-.71875h2.148437zm-4.296874 0h-2.152344v-.71875h2.152344zm-4.300782 0h-2.152344v-.71875h2.152344zm-4.300781 0h-2.148437v-.71875h2.148437zm-4.300781 0h-2.148438v-.71875h2.148438zm-4.300782 0h-2.148437v-.71875h2.148437zm-4.296874 0h-2.152344v-.71875h2.152344zm-4.300782 0h-2.152344v-.71875h2.152344zm-4.300781 0h-2.148437v-.71875h2.148437zm-4.300781 0h-2.148438v-.71875h2.148438zm-4.300782 0h-2.148437v-.71875h2.148437zm-4.296874 0h-2.152344v-.71875h2.152344zm-4.300782 0h-2.152344v-.71875h2.152344zm-4.300781 0h-3.21875l2.726563-1.871094.40625.589844-1.773438 1.21875-.203125-.296875v-.359375h2.0625zm0 0" fill="#666"/><g stroke="#b85450" stroke-miterlimit="10"><path d="m14.002545 74.002552h161.756922" fill="none" stroke-width="2" transform="scale(.716667)"/><path d="m181.760558 74.002552-8.001454 3.995277 2.000363-3.995277-2.000363-4.000727zm0 0" fill="#b85450" stroke-width="2" transform="scale(.716667)"/><path d="m204.50184 116.00074h5.826672l4.169695 5.919332 4.169696-5.919332h5.832122l-7.080306 10.001818 7.080306 9.996367h-5.832122l-4.169696-5.919332-4.169695 5.919332h-5.826672l6.666062-9.996367zm0 0" fill="#f8cecc" transform="matrix(.716667 0 0 .716667 .358333 .358333)"/></g><g fill="#c00"><use x="90.523948" xlink:href="#D" y="104.633322"/><use x="95.304058" xlink:href="#E" y="104.633322"/><use x="99.289816" xlink:href="#F" y="104.633322"/><use x="103.667501" xlink:href="#G" y="104.633322"/><use x="105.658631" xlink:href="#H" y="104.633322"/><use x="110.036316" xlink:href="#F" y="104.633322"/><use x="114.414001" xlink:href="#I" y="104.633322"/><use x="116.40513" xlink:href="#J" y="104.633322"/><use x="121.18524" xlink:href="#K" y="104.633322"/><use x="125.170998" xlink:href="#E" y="104.633322"/><use x="129.156756" xlink:href="#H" y="104.633322"/><use x="133.534441" xlink:href="#I" y="104.633322"/><use x="135.525571" xlink:href="#L" y="104.633322"/><use x="140.701107" xlink:href="#G" y="104.633322"/><use x="142.692236" xlink:href="#M" y="104.633322"/><use x="146.677994" xlink:href="#E" y="104.633322"/><use x="150.663752" xlink:href="#N" y="104.633322"/><use x="155.041437" xlink:href="#O" y="104.633322"/><use x="157.032567" xlink:href="#P" y="104.633322"/></g><g fill="#c00"><use x="133.299985" xlink:href="#Q" y="52.316661"/><use x="139.269874" xlink:href="#R" y="52.316661"/><use x="143.647559" xlink:href="#S" y="52.316661"/><use x="146.034114" xlink:href="#E" y="52.316661"/><use x="150.019872" xlink:href="#S" y="52.316661"/><use x="152.406428" xlink:href="#P" y="52.316661"/><use x="156.392186" xlink:href="#T" y="52.316661"/></g><path d="m148.998563 82.000009h60.000007l5.003634 4.998184v10.001818h-60.000006l-5.003635-4.998184zm0 0" fill="#cce5ff" stroke="#36393d" stroke-miterlimit="10" transform="matrix(.716667 0 0 .716667 .358333 .358333)"/><path d="m107.140625 59.125h43l3.585937 3.582031h-43zm0 0" fill-opacity=".051"/><path d="m107.140625 59.125 3.585937 3.582031v7.167969l-3.585937-3.582031zm0 0" fill-opacity=".102"/><path d="m154.002198 97.000011v-10.001818l-5.003635-4.998184m5.003635 4.998184h60.000006" fill="none" stroke="#36393d" stroke-miterlimit="10" transform="matrix(.716667 0 0 .716667 .358333 .358333)"/><g><use x="125.965354" xlink:href="#U" y="68.083326"/><use x="129.15396" xlink:href="#V" y="68.083326"/><use x="133.929871" xlink:href="#W" y="68.083326"/></g><path d="m109.002193 82.000009h39.99637l5.003635 4.998184v10.001818h-40.001822l-4.998183-4.998184zm0 0" fill="#fc9" stroke="#36393d" stroke-miterlimit="10" transform="matrix(.716667 0 0 .716667 .358333 .358333)"/><path d="m78.476562 59.125h28.664063l3.585937 3.582031h-28.667968zm0 0" fill-opacity=".051"/><path d="m78.476562 59.125 3.582032 3.582031v7.167969l-3.582032-3.582031zm0 0" fill-opacity=".102"/><path d="m114.000376 97.000011v-10.001818l-4.998183-4.998184m4.998183 4.998184h40.001822" fill="none" stroke="#36393d" stroke-miterlimit="10" transform="matrix(.716667 0 0 .716667 .358333 .358333)"/><g fill="#c00"><use x="82.394262" xlink:href="#U" y="68.083326"/><use x="85.582868" xlink:href="#X" y="68.083326"/><use x="88.771474" xlink:href="#Y" y="68.083326"/><use x="91.960081" xlink:href="#Z" y="68.083326"/><use x="95.148687" xlink:href="#aa" y="68.083326"/><use x="96.741591" xlink:href="#ab" y="68.083326"/><use x="99.930197" xlink:href="#ac" y="68.083326"/><use x="103.278374" xlink:href="#ad" y="68.083326"/><use x="106.46698" xlink:href="#ae" y="68.083326"/></g><path d="m94.002191 82.000009h15.000002l4.998183 4.998184v10.001818h-15.000001l-4.998184-4.998184zm0 0" fill="#fc9" stroke="#36393d" stroke-miterlimit="10" transform="matrix(.716667 0 0 .716667 .358333 .358333)"/><path d="m67.726562 59.125h10.75l3.582032 3.582031h-10.75zm0 0" fill-opacity=".051"/><path d="m67.726562 59.125 3.582032 3.582031v7.167969l-3.582032-3.582031zm0 0" fill-opacity=".102"/><path d="m99.000375 97.000011v-10.001818l-4.998184-4.998184m4.998184 4.998184h15.000001" fill="none" stroke="#36393d" stroke-miterlimit="10" transform="matrix(.716667 0 0 .716667 .358333 .358333)"/><g><use x="73.133586" xlink:href="#af" y="66.649993"/><use x="74.726489" xlink:href="#af" y="66.649993"/><use x="76.319392" xlink:href="#af" y="66.649993"/><use x="77.912296" xlink:href="#af" y="66.649993"/></g><g><use x="77.937491" xlink:href="#ak" y="78.833324"/><use x="82.23959" xlink:href="#al" y="78.833324"/><use x="86.897573" xlink:href="#am" y="78.833324"/></g><use x="90.479157" xlink:href="#an" y="78.833324"/><g><use x="73.626294" xlink:href="#ao" y="85.99999"/><use x="78.284277" xlink:href="#ap" y="85.99999"/><use x="81.871459" xlink:href="#aq" y="85.99999"/><use x="85.458641" xlink:href="#ar" y="85.99999"/><use x="89.045823" xlink:href="#ap" y="85.99999"/><use x="92.633005" xlink:href="#as" y="85.99999"/></g><path d="m17.741644 44.002549h202.516375" fill="none" stroke="#d6b656" stroke-miterlimit="10" stroke-width="2" transform="scale(.716667)"/><path d="m11.740554 44.002549 8.001454-4.000728-2.000364 4.000728 2.000364 3.995276zm0 0" fill="#d6b656" stroke="#d6b656" stroke-miterlimit="10" stroke-width="2" transform="scale(.716667)"/><path d="m162.152344 31.535156-5.734375 2.863282 1.433593-2.863282-1.433593-2.867187zm0 0" fill="#d6b656"/><g clip-path="url(#c)"><path d="m226.25911 44.002549-8.001455 3.995276 2.000364-3.995276-2.000364-4.000728zm0 0" fill="none" stroke="#d6b656" stroke-miterlimit="10" stroke-width="2" transform="scale(.716667)"/></g><path d="m46.249642 36.002548h156.502561c.294331 0 .583212.054506.861192.168968.272529.114462.517805.277979.724927.485102.212573.212572.376091.457848.490553.730378.114462.277979.168968.56686.168968.861191v10.503272c0 .294331-.054506.583212-.168968.861192-.114462.272529-.27798.517805-.490553.730378-.207122.207122-.452398.37064-.724927.485102-.27798.114462-.566861.174418-.861192.174418h-156.502561c-.299782 0-.583212-.059956-.861192-.174418-.272529-.114462-.517805-.27798-.730378-.485102-.212573-.212573-.37064-.457849-.485102-.730378-.114462-.27798-.174418-.566861-.174418-.861192v-10.503272c0-.294331.059956-.583212.174418-.861191.114462-.27253.272529-.517806.485102-.730378.212573-.207123.457849-.37064.730378-.485102.27798-.114462.56141-.168968.861192-.168968zm0 0" fill="#fff2cc" stroke="#d6b656" transform="matrix(.716667 0 0 .716667 .358333 .358333)"/><g><use x="48.352599" xlink:href="#s" y="35.116663"/><use x="53.135508" xlink:href="#d" y="35.116663"/><use x="60.299375" xlink:href="#t" y="35.116663"/><use x="66.035507" xlink:href="#j" y="35.116663"/><use x="68.424862" xlink:href="#p" y="35.116663"/><use x="74.160994" xlink:href="#h" y="35.116663"/><use x="78.943904" xlink:href="#g" y="35.116663"/><use x="81.333259" xlink:href="#z" y="35.116663"/><use x="86.116169" xlink:href="#v" y="35.116663"/><use x="90.899078" xlink:href="#j" y="35.116663"/><use x="93.288433" xlink:href="#A" y="35.116663"/><use x="99.499077" xlink:href="#B" y="35.116663"/><use x="104.281987" xlink:href="#C" y="35.116663"/><use x="111.445853" xlink:href="#v" y="35.116663"/><use x="116.228763" xlink:href="#q" y="35.116663"/><use x="118.139407" xlink:href="#h" y="35.116663"/><use x="122.922317" xlink:href="#g" y="35.116663"/><use x="125.311672" xlink:href="#h" y="35.116663"/></g><path d="m45.001459 82.000009h49.000732l4.998184 4.998184v10.001818h-49.000733l-4.998183-4.998184zm0 0" fill="#eee" stroke="#36393d" stroke-miterlimit="10" transform="matrix(.716667 0 0 .716667 .358333 .358333)"/><path d="m32.609375 59.125h35.117187l3.582032 3.582031h-35.117188zm0 0" fill-opacity=".051"/><path d="m32.609375 59.125 3.582031 3.582031v7.167969l-3.582031-3.582031zm0 0" fill-opacity=".102"/><path d="m49.999642 97.000011v-10.001818l-4.998183-4.998184m4.998183 4.998184h49.000733" fill="none" stroke="#36393d" stroke-miterlimit="10" transform="matrix(.716667 0 0 .716667 .358333 .358333)"/><use x="39.450256" xlink:href="#ag" y="68.083326"/><g><use x="42.636063" xlink:href="#ah" y="68.083326"/><use x="45.502729" xlink:href="#ai" y="68.083326"/><use x="48.691336" xlink:href="#X" y="68.083326"/><use x="51.879942" xlink:href="#ac" y="68.083326"/><use x="55.228119" xlink:href="#aj" y="68.083326"/><use x="59.368548" xlink:href="#V" y="68.083326"/><use x="64.144459" xlink:href="#ae" y="68.083326"/></g><path d="m34.999641 82.000009h10.001818l4.998183 4.998184v10.001818h-10.001818l-4.998183-4.998184zm0 0" fill="#eee" stroke="#36393d" stroke-miterlimit="10" transform="matrix(.716667 0 0 .716667 .358333 .358333)"/><path d="m25.441406 59.125h7.167969l3.582031 3.582031h-7.167968zm0 0" fill-opacity=".051"/><path d="m25.441406 59.125 3.582032 3.582031v7.167969l-3.582032-3.582031zm0 0" fill-opacity=".102"/><path d="m39.997824 97.000011v-10.001818l-4.998183-4.998184m4.998183 4.998184h10.001818" fill="none" stroke="#36393d" stroke-miterlimit="10" transform="matrix(.716667 0 0 .716667 .358333 .358333)"/><g><use x="29.05859" xlink:href="#af" y="66.649993"/><use x="30.651494" xlink:href="#af" y="66.649993"/><use x="32.244397" xlink:href="#af" y="66.649993"/><use x="33.837301" xlink:href="#af" y="66.649993"/></g><g><use x="18.8013" xlink:href="#at" y="78.833324"/><use x="23.103399" xlink:href="#aq" y="78.833324"/><use x="26.690581" xlink:href="#au" y="78.833324"/><use x="29.915581" xlink:href="#ap" y="78.833324"/><use x="33.502763" xlink:href="#av" y="78.833324"/><use x="37.089945" xlink:href="#aq" y="78.833324"/><use x="40.677128" xlink:href="#aw" y="78.833324"/><use x="44.26431" xlink:href="#ar" y="78.833324"/></g><use x="47.848693" xlink:href="#an" y="78.833324"/><g><use x="22.754164" xlink:href="#ao" y="85.99999"/><use x="27.412147" xlink:href="#ap" y="85.99999"/><use x="30.999329" xlink:href="#aq" y="85.99999"/><use x="34.586511" xlink:href="#ar" y="85.99999"/><use x="38.173694" xlink:href="#ap" y="85.99999"/><use x="41.760876" xlink:href="#as" y="85.99999"/></g><g fill="#c00"><use x="117.53332" xlink:href="#ax" y="78.116658"/><use x="123.107782" xlink:href="#ay" y="78.116658"/><use x="126.691115" xlink:href="#az" y="78.116658"/><use x="130.676873" xlink:href="#aA" y="78.116658"/><use x="133.063429" xlink:href="#aB" y="78.116658"/><use x="136.646762" xlink:href="#aC" y="78.116658"/><use x="138.238966" xlink:href="#aD" y="78.116658"/><use x="141.822298" xlink:href="#az" y="78.116658"/><use x="145.808056" xlink:href="#aE" y="78.116658"/></g><g fill="#c00"><use x="126.301291" xlink:href="#aF" y="88.866657"/><use x="130.287049" xlink:href="#aG" y="88.866657"/><use x="136.256938" xlink:href="#aH" y="88.866657"/></g></svg>