<svg height="199.92pt" viewBox="0 0 185.03999 199.92" width="185.03999pt" xmlns="http://www.w3.org/2000/svg" xmlns:xlink="http://www.w3.org/1999/xlink"><clipPath id="a"><path d="m0 0h185v199.398438h-185zm0 0"/></clipPath><clipPath id="b"><path d="m138 170h35v29.398438h-35zm0 0"/></clipPath><symbol id="c" overflow="visible"><path d="m3.828125-1.890625 1 .3125c-.15625.5625-.417969.984375-.78125 1.265625-.355469.2734375-.808594.40625-1.359375.40625-.6875 0-1.25-.234375-1.6875-.703125s-.65625-1.109375-.65625-1.921875c0-.851562.21875-1.519531.65625-2 .445312-.476562 1.03125-.71875 1.75-.71875.632812 0 1.148438.1875 1.546875.5625.226563.21875.398437.539062.515625.953125l-1.03125.25c-.054688-.269531-.179688-.484375-.375-.640625-.199219-.15625-.433594-.234375-.703125-.234375-.386719 0-.699219.140625-.9375.421875-.242187.273438-.359375.714844-.359375 1.328125 0 .65625.117188 1.125.359375 1.40625.238281.273437.546875.40625.921875.40625.269531 0 .503906-.085937.703125-.265625.195313-.175781.34375-.453125.4375-.828125zm0 0"/></symbol><symbol id="d" overflow="visible"><path d="m1.46875 0h-1v-3.734375h.921875v.53125c.15625-.25.296875-.410156.421875-.484375.125-.082031.269531-.125.4375-.125.21875 0 .429688.058594.640625.171875l-.296875.875c-.167969-.113281-.324219-.171875-.46875-.171875-.136719 0-.257812.042969-.359375.125-.09375.074219-.167969.210938-.21875.40625-.054687.199219-.078125.617188-.078125 1.25zm0 0"/></symbol><symbol id="e" overflow="visible"><path d="m1.25-2.59375-.890625-.15625c.101563-.363281.273437-.628906.515625-.796875.25-.175781.617188-.265625 1.109375-.265625.4375 0 .757813.054688.96875.15625.21875.105469.367187.234375.453125.390625.09375.15625.140625.453125.140625.890625l-.015625 1.140625c0 .335937.015625.578125.046875.734375.039063.15625.101563.324219.1875.5h-.984375c-.023438-.0625-.054688-.160156-.09375-.296875-.011719-.050781-.023438-.085937-.03125-.109375-.167969.167969-.351562.292969-.546875.375-.1875.0703125-.390625.109375-.609375.109375-.386719 0-.695312-.1015625-.921875-.3125-.21875-.207031-.328125-.46875-.328125-.78125 0-.21875.050781-.40625.15625-.5625.101562-.164063.242188-.289063.421875-.375.1875-.09375.453125-.171875.796875-.234375.457031-.09375.773438-.175781.953125-.25v-.09375c0-.195312-.046875-.332031-.140625-.40625-.09375-.082031-.273438-.125-.53125-.125-.179688 0-.320312.039062-.421875.109375-.09375.0625-.171875.183594-.234375.359375zm1.328125.796875c-.125.042969-.328125.09375-.609375.15625-.273438.0625-.449219.121094-.53125.171875-.125.09375-.1875.210938-.1875.34375 0 .136719.046875.257812.140625.359375.101563.105469.238281.15625.40625.15625.175781 0 .34375-.054687.5-.171875.125-.09375.207031-.203125.25-.328125.019531-.082031.03125-.242187.03125-.484375zm0 0"/></symbol><symbol id="f" overflow="visible"><path d="m.171875-1.0625.984375-.15625c.039062.199219.125.351562.25.453125.132812.09375.316406.140625.546875.140625.257813 0 .453125-.046875.578125-.140625.09375-.070313.140625-.160156.140625-.265625 0-.070312-.027344-.132812-.078125-.1875-.054688-.050781-.164062-.09375-.328125-.125-.804687-.175781-1.308594-.335938-1.515625-.484375-.292969-.207031-.4375-.488281-.4375-.84375 0-.320313.125-.59375.375-.8125.257812-.21875.65625-.328125 1.1875-.328125.507812 0 .890625.085938 1.140625.25.25.167969.421875.414062.515625.734375l-.9375.171875c-.03125-.144531-.105469-.253906-.21875-.328125-.117188-.082031-.277344-.125-.484375-.125-.261719 0-.445313.039063-.546875.109375-.085938.054688-.125.121094-.125.203125 0 .074219.035156.132813.109375.171875.082031.074219.382813.171875.90625.296875.53125.117187.898437.257813 1.109375.421875.207031.179688.3125.421875.3125.734375 0 .34375-.148438.640625-.4375.890625-.28125.2421875-.703125.359375-1.265625.359375-.5 0-.902344-.0976562-1.203125-.296875-.292969-.207031-.484375-.488281-.578125-.84375zm0 0"/></symbol><symbol id="g" overflow="visible"><path d="m1.5-5.15625v1.890625c.320312-.363281.703125-.546875 1.140625-.546875.226563 0 .429687.042969.609375.125.1875.085938.328125.195312.421875.328125.09375.125.15625.273437.1875.4375.039063.15625.0625.402344.0625.734375v2.1875h-1v-1.96875c0-.394531-.023437-.644531-.0625-.75-.03125-.101562-.09375-.1875-.1875-.25s-.214844-.09375-.359375-.09375c-.167969 0-.3125.042969-.4375.125-.125.074219-.21875.195312-.28125.359375-.0625.15625-.09375.390625-.09375.703125v1.875h-.984375v-5.15625zm0 0"/></symbol><symbol id="h" overflow="visible"/><symbol id="i" overflow="visible"><path d="m.28125-1.921875c0-.320313.082031-.632813.25-.9375.164062-.3125.394531-.546875.6875-.703125.289062-.164062.625-.25 1-.25.5625 0 1.019531.183594 1.375.546875.363281.367187.546875.828125.546875 1.390625s-.183594 1.03125-.546875 1.40625c-.367188.367188-.824219.546875-1.375.546875-.34375 0-.671875-.07421875-.984375-.21875-.304687-.15625-.539063-.382813-.703125-.6875-.167969-.300781-.25-.664063-.25-1.09375zm1.015625.046875c0 .375.085937.664062.265625.859375.175781.199219.394531.296875.65625.296875.257812 0 .472656-.097656.640625-.296875.175781-.195313.265625-.484375.265625-.859375 0-.363281-.089844-.644531-.265625-.84375-.167969-.195312-.382813-.296875-.640625-.296875-.261719 0-.480469.101563-.65625.296875-.179688.199219-.265625.480469-.265625.84375zm0 0"/></symbol><symbol id="j" overflow="visible"><path d="m.515625-5.15625h1.90625c.425781 0 .753906.03125.984375.09375.300781.09375.554688.257812.765625.484375.21875.230469.382813.511719.5.84375.113281.324219.171875.726563.171875 1.203125 0 .429688-.054688.792969-.15625 1.09375-.136719.375-.324219.683594-.5625.921875-.179688.179687-.417969.3125-.71875.40625-.230469.0742188-.539062.109375-.921875.109375h-1.96875zm1.046875.875v3.40625h.78125c.289062 0 .5-.015625.625-.046875.164062-.039063.304688-.109375.421875-.203125.113281-.101562.203125-.269531.265625-.5.070312-.238281.109375-.554688.109375-.953125 0-.394531-.039063-.695313-.109375-.90625-.0625-.21875-.164062-.382813-.296875-.5-.125-.125-.28125-.207031-.46875-.25-.148437-.03125-.433594-.046875-.859375-.046875zm0 0"/></symbol><symbol id="k" overflow="visible"><path d="m.265625-1.671875 1-.109375c.0625.34375.1875.601562.375.765625.1875.15625.441406.234375.765625.234375.332031 0 .582031-.070312.75-.21875.164062-.144531.25-.3125.25-.5 0-.125-.039062-.226562-.109375-.3125-.0625-.082031-.183594-.15625-.359375-.21875-.125-.039062-.40625-.117188-.84375-.234375-.554688-.132813-.945312-.300781-1.171875-.5-.3125-.28125-.46875-.628906-.46875-1.046875 0-.257812.070313-.503906.21875-.734375.144531-.226563.359375-.398437.640625-.515625.28125-.125.617188-.1875 1.015625-.1875.644531 0 1.128906.148438 1.453125.4375.332031.28125.507812.65625.53125 1.125l-1.046875.046875c-.042969-.257813-.140625-.445313-.296875-.5625-.148438-.113281-.367188-.171875-.65625-.171875-.304688 0-.539062.058594-.703125.171875-.117187.085937-.171875.195313-.171875.328125 0 .125.050781.230469.15625.3125.132812.117188.453125.234375.953125.359375.507813.117187.882813.234375 1.125.359375.25.125.441406.304688.578125.53125.132812.21875.203125.492188.203125.8125 0 .292969-.085937.570312-.25.828125-.167969.261719-.402344.453125-.703125.578125-.292969.125-.664062.1875-1.109375.1875-.65625 0-1.164063-.1484375-1.515625-.453125-.34375-.300781-.546875-.738281-.609375-1.3125zm0 0"/></symbol><symbol id="l" overflow="visible"><path d="m.515625 0v-5.15625h1.546875l.9375 3.515625.921875-3.515625h1.5625v5.15625h-.96875v-4.0625l-1.015625 4.0625h-1l-1.015625-4.0625v4.0625zm0 0"/></symbol><symbol id="m" overflow="visible"><path d="m2.96875 0v-.5625c-.136719.199219-.3125.355469-.53125.46875-.21875.1132812-.453125.171875-.703125.171875s-.476563-.0546875-.671875-.15625c-.199219-.113281-.34375-.269531-.4375-.46875-.085938-.195313-.125-.472656-.125-.828125v-2.359375h.984375v1.71875c0 .523437.015625.84375.046875.96875.039062.117187.109375.210937.203125.28125.09375.0625.21875.09375.375.09375.164063 0 .3125-.046875.4375-.140625.132813-.09375.226563-.207031.28125-.34375.050781-.132812.078125-.46875.078125-1v-1.578125h.984375v3.734375zm0 0"/></symbol><symbol id="n" overflow="visible"><path d="m2.234375-3.734375v.78125h-.6875v1.515625c0 .304688.003906.480469.015625.53125.019531.054688.050781.09375.09375.125.050781.03125.109375.046875.171875.046875.09375 0 .222656-.03125.390625-.09375l.09375.765625c-.230469.09375-.492188.140625-.78125.140625-.179688 0-.339844-.0273438-.484375-.078125-.148437-.0625-.25-.140625-.3125-.234375s-.109375-.222656-.140625-.390625c-.023438-.113281-.03125-.34375-.03125-.6875v-1.640625h-.453125v-.78125h.453125v-.75l.984375-.5625v1.3125zm0 0"/></symbol><symbol id="o" overflow="visible"><path d="m2.6875-1.1875.984375.15625c-.136719.367188-.339844.640625-.609375.828125-.273438.1875-.609375.28125-1.015625.28125-.65625 0-1.140625-.207031-1.453125-.625-.242188-.34375-.359375-.773437-.359375-1.296875 0-.613281.160156-1.09375.484375-1.4375.320312-.351562.726562-.53125 1.21875-.53125.5625 0 1 .183594 1.3125.546875.320312.367187.476562.929687.46875 1.6875h-2.484375c.007813.292969.085937.523437.234375.6875.15625.15625.347656.234375.578125.234375.15625 0 .285156-.039062.390625-.125.101562-.082031.1875-.21875.25-.40625zm.046875-1c-.011719-.28125-.089844-.492188-.234375-.640625-.136719-.15625-.304688-.234375-.5-.234375-.21875 0-.398438.078125-.53125.234375-.148438.15625-.214844.371094-.203125.640625zm0 0"/></symbol><symbol id="p" overflow="visible"><path d="m3.9375 0h-.90625v-.546875c-.15625.210937-.339844.367187-.546875.46875-.210937.1015625-.417969.15625-.625.15625-.429687 0-.796875-.171875-1.109375-.515625-.304688-.34375-.453125-.820312-.453125-1.4375 0-.632812.144531-1.113281.4375-1.4375.300781-.332031.679687-.5 1.140625-.5.414062 0 .773438.171875 1.078125.515625v-1.859375h.984375zm-2.625-1.953125c0 .40625.050781.699219.15625.875.15625.25.378906.375.671875.375.226563 0 .421875-.09375.578125-.28125.15625-.195313.234375-.488281.234375-.875 0-.425781-.078125-.734375-.234375-.921875-.148438-.1875-.34375-.28125-.59375-.28125-.230469 0-.421875.09375-.578125.28125s-.234375.464844-.234375.828125zm0 0"/></symbol><symbol id="q" overflow="visible"><path d="m.671875 0v-6.1875h2.328125c.40625 0 .71875.023438.9375.0625.300781.054688.554688.152344.765625.296875.207031.136719.375.335937.5.59375.125.25.1875.53125.1875.84375 0 .523437-.167969.964844-.5 1.328125-.335937.367188-.9375.546875-1.8125.546875h-1.59375v2.515625zm.8125-3.25h1.59375c.53125 0 .90625-.09375 1.125-.28125.226563-.195312.34375-.476562.34375-.84375 0-.257812-.070313-.476562-.203125-.65625-.125-.1875-.296875-.3125-.515625-.375-.136719-.03125-.390625-.046875-.765625-.046875h-1.578125zm0 0"/></symbol><symbol id="r" overflow="visible"><path d="m3.5-.546875c-.28125.242187-.554688.40625-.8125.5-.261719.09375-.542969.140625-.84375.140625-.492188 0-.871094-.1171875-1.140625-.359375-.261719-.238281-.390625-.546875-.390625-.921875 0-.21875.046875-.414062.140625-.59375.101563-.175781.234375-.320312.390625-.4375.164062-.113281.351562-.195312.5625-.25.144531-.039062.367188-.078125.671875-.109375.613281-.070313 1.066406-.160156 1.359375-.265625 0-.101562 0-.171875 0-.203125 0-.300781-.074219-.519531-.21875-.65625-.199219-.164063-.484375-.25-.859375-.25-.367187 0-.632813.0625-.796875.1875-.167969.125-.292969.351563-.375.671875l-.75-.109375c.070312-.3125.1875-.566406.34375-.765625.15625-.195312.378906-.347656.671875-.453125.289063-.101563.628906-.15625 1.015625-.15625.375 0 .679688.046875.921875.140625.238281.085938.414063.195312.53125.328125.113281.136719.191406.308594.234375.515625.03125.136719.046875.371094.046875.703125v1.015625c0 .710938.015625 1.15625.046875 1.34375s.09375.367188.1875.53125h-.796875c-.074219-.15625-.121094-.335938-.140625-.546875zm-.0625-1.703125c-.28125.117188-.699219.210938-1.25.28125-.3125.054688-.539062.109375-.671875.171875-.125.054687-.226563.132813-.296875.234375-.0625.105469-.09375.226562-.09375.359375 0 .199219.070312.367187.21875.5.15625.136719.382812.203125.6875.203125.289062 0 .546875-.0625.765625-.1875.226563-.125.398437-.296875.515625-.515625.082031-.175781.125-.429687.125-.765625zm0 0"/></symbol><symbol id="s" overflow="visible"><path d="m.4375.375.734375.109375c.03125.226563.113281.394531.25.5.1875.132813.445313.203125.78125.203125.34375 0 .609375-.074219.796875-.21875.195312-.136719.332031-.328125.40625-.578125.03125-.15625.046875-.484375.046875-.984375-.335937.398438-.746094.59375-1.234375.59375-.617188 0-1.09375-.21875-1.4375-.65625-.335938-.445312-.5-.984375-.5-1.609375 0-.425781.078125-.816406.234375-1.171875.15625-.363281.378906-.644531.671875-.84375.289062-.195312.632812-.296875 1.03125-.296875.53125 0 .96875.214844 1.3125.640625v-.546875h.703125v3.875c0 .6953125-.074219 1.191406-.21875 1.484375-.148437.289062-.375.519531-.6875.6875-.304687.164062-.679687.25-1.125.25-.53125 0-.964844-.121094-1.296875-.359375-.335938-.242187-.492188-.601563-.46875-1.078125zm.625-2.703125c0 .59375.113281 1.027344.34375 1.296875.238281.273438.53125.40625.875.40625.351562 0 .644531-.132812.875-.40625.238281-.269531.359375-.691406.359375-1.265625 0-.550781-.125-.960937-.375-1.234375-.242187-.28125-.527344-.421875-.859375-.421875-.34375 0-.636719.140625-.875.421875-.230469.273438-.34375.671875-.34375 1.203125zm0 0"/></symbol><symbol id="t" overflow="visible"><path d="m.578125-5.3125v-.875h.75v.875zm0 5.3125v-4.484375h.75v4.484375zm0 0"/></symbol><symbol id="u" overflow="visible"><path d="m.5625 0v-4.484375h.6875v.640625c.332031-.488281.804688-.734375 1.421875-.734375.269531 0 .519531.046875.75.140625.226563.09375.394531.226562.5.390625.113281.15625.195313.339844.25.546875.019531.148438.03125.398438.03125.75v2.75h-.75v-2.71875c0-.3125-.03125-.546875-.09375-.703125-.054687-.15625-.15625-.273437-.3125-.359375-.148437-.09375-.324219-.140625-.53125-.140625-.324219 0-.605469.105469-.84375.3125-.230469.199219-.34375.585937-.34375 1.15625v2.453125zm0 0"/></symbol><symbol id="v" overflow="visible"/><symbol id="w" overflow="visible"><path d="m2.015625 1.8125c-.417969-.523438-.773437-1.136719-1.0625-1.84375-.292969-.707031-.4375-1.441406-.4375-2.203125 0-.675781.109375-1.320313.328125-1.9375.257812-.707031.648438-1.414063 1.171875-2.125h.546875c-.34375.59375-.570312 1.015625-.671875 1.265625-.179687.386719-.3125.789062-.40625 1.203125-.125.53125-.1875 1.0625-.1875 1.59375 0 1.355469.421875 2.703125 1.265625 4.046875zm0 0"/></symbol><symbol id="x" overflow="visible"><path d="m.671875 0v-6.1875h2.75c.550781 0 .96875.058594 1.25.171875.289063.105469.519531.296875.6875.578125.175781.28125.265625.59375.265625.9375 0 .4375-.148438.808594-.4375 1.109375-.28125.304687-.71875.496094-1.3125.578125.21875.105469.382812.210938.5.3125.238281.21875.460938.492188.671875.8125l1.078125 1.6875h-1.03125l-.8125-1.28125c-.242188-.375-.4375-.660156-.59375-.859375-.15625-.195313-.296875-.332031-.421875-.40625-.117187-.082031-.234375-.140625-.359375-.171875-.09375-.019531-.246094-.03125-.453125-.03125h-.953125v2.75zm.828125-3.453125h1.75c.375 0 .664062-.035156.875-.109375.21875-.082031.378906-.207031.484375-.375.113281-.175781.171875-.363281.171875-.5625 0-.289062-.109375-.53125-.328125-.71875-.210937-.1875-.542969-.28125-1-.28125h-1.953125zm0 0"/></symbol><symbol id="y" overflow="visible"><path d="m3.46875 0v-.5625c-.28125.4375-.699219.65625-1.25.65625-.355469 0-.683594-.09375-.984375-.28125-.304687-.195312-.539063-.472656-.703125-.828125-.15625-.351563-.234375-.757813-.234375-1.21875 0-.445313.070313-.851563.21875-1.21875.15625-.363281.378906-.640625.671875-.828125.300781-.195312.632812-.296875 1-.296875.269531 0 .507812.058594.71875.171875.21875.117188.390625.261719.515625.4375v-2.21875h.765625v6.1875zm-2.390625-2.234375c0 .574219.117187 1.007813.359375 1.296875.238281.28125.523438.421875.859375.421875.332031 0 .613281-.132813.84375-.40625.226563-.28125.34375-.695313.34375-1.25 0-.613281-.121094-1.0625-.359375-1.34375-.230469-.289063-.515625-.4375-.859375-.4375s-.632813.140625-.859375.421875c-.21875.273438-.328125.703125-.328125 1.296875zm0 0"/></symbol><symbol id="z" overflow="visible"><path d="m.28125-2.234375c0-.832031.234375-1.445313.703125-1.84375.382813-.332031.851563-.5 1.40625-.5.613281 0 1.113281.203125 1.5.609375.394531.398438.59375.953125.59375 1.671875 0 .574219-.089844 1.027344-.265625 1.359375-.167969.324219-.417969.578125-.75.765625-.335938.17578125-.695312.265625-1.078125.265625-.625 0-1.136719-.195312-1.53125-.59375-.386719-.40625-.578125-.984375-.578125-1.734375zm.78125 0c0 .574219.125 1.007813.375 1.296875.25.28125.566406.421875.953125.421875.375 0 .6875-.144531.9375-.4375.25-.289063.375-.726563.375-1.3125 0-.550781-.125-.96875-.375-1.25-.25-.289063-.5625-.4375-.9375-.4375-.386719 0-.703125.148437-.953125.4375-.25.28125-.375.710937-.375 1.28125zm0 0"/></symbol><symbol id="A" overflow="visible"><path d="m.5625 0v-4.484375h.6875v.625c.132812-.21875.316406-.390625.546875-.515625.238281-.132812.507813-.203125.8125-.203125.332031 0 .601563.070313.8125.203125.21875.136719.367187.328125.453125.578125.351562-.519531.8125-.78125 1.375-.78125.445312 0 .789062.125 1.03125.375.238281.242187.359375.617187.359375 1.125v3.078125h-.75v-2.828125c0-.300781-.027344-.515625-.078125-.640625-.054688-.132812-.148438-.242188-.28125-.328125-.125-.082031-.273438-.125-.4375-.125-.324219 0-.589844.105469-.796875.3125-.210937.210937-.3125.542969-.3125 1v2.609375h-.75v-2.90625c0-.34375-.0625-.597656-.1875-.765625-.125-.164063-.328125-.25-.609375-.25-.210938 0-.40625.058594-.59375.171875-.179688.105469-.308594.265625-.390625.484375-.085937.21875-.125.53125-.125.9375v2.328125zm0 0"/></symbol><symbol id="B" overflow="visible"><path d="m.640625 0v-6.1875h2.3125c.46875 0 .84375.0625 1.125.1875.289063.125.515625.320312.671875.578125.164062.261719.25.53125.25.8125 0 .273437-.074219.527344-.21875.765625-.136719.230469-.351562.414062-.640625.546875.375.117187.660156.308594.859375.578125.195312.261719.296875.570312.296875.921875 0 .292969-.0625.5625-.1875.8125-.117187.25-.265625.445313-.453125.578125-.179688.136719-.402344.242188-.671875.3125-.273437.0625-.605469.09375-1 .09375zm.8125-3.59375h1.328125c.363281 0 .625-.019531.78125-.0625.207031-.0625.363281-.164062.46875-.3125.113281-.144531.171875-.320312.171875-.53125 0-.207031-.054687-.390625-.15625-.546875-.09375-.15625-.234375-.257813-.421875-.3125-.179688-.0625-.492188-.09375-.9375-.09375h-1.234375zm0 2.859375h1.53125c.269531 0 .457031-.007813.5625-.03125.1875-.03125.34375-.082031.46875-.15625.125-.082031.226563-.195313.3125-.34375.082031-.15625.125-.332031.125-.53125 0-.226563-.0625-.425781-.1875-.59375-.117187-.175781-.277344-.296875-.484375-.359375-.210938-.070312-.511719-.109375-.90625-.109375h-1.421875zm0 0"/></symbol><symbol id="C" overflow="visible"><path d="m.671875 0v-6.1875h2.125c.476563 0 .84375.03125 1.09375.09375.363281.085938.671875.230469.921875.4375.320312.28125.5625.636719.71875 1.0625.164062.429688.25.917969.25 1.46875 0 .46875-.058594.886719-.171875 1.25-.105469.367188-.246094.667969-.421875.90625-.167969.230469-.355469.414062-.5625.546875-.199219.136719-.445312.242187-.734375.3125-.292969.0742188-.621094.109375-.984375.109375zm.8125-.734375h1.328125c.40625 0 .722656-.035156.953125-.109375.226563-.070312.414063-.179688.5625-.328125.1875-.1875.332031-.441406.4375-.765625.113281-.332031.171875-.734375.171875-1.203125 0-.644531-.109375-1.140625-.328125-1.484375-.210937-.351562-.464844-.585938-.765625-.703125-.21875-.082031-.574219-.125-1.0625-.125h-1.296875zm0 0"/></symbol><symbol id="D" overflow="visible"><path d="m-.015625 0 2.375-6.1875h.890625l2.53125 6.1875h-.9375l-.71875-1.875h-2.59375l-.671875 1.875zm1.78125-2.546875h2.109375l-.65625-1.703125c-.199219-.519531-.34375-.945312-.4375-1.28125-.074219.398438-.183594.789062-.328125 1.171875zm0 0"/></symbol><symbol id="E" overflow="visible"><path d="m.5625 0v-4.484375h.6875v.6875c.164062-.320313.320312-.53125.46875-.625.15625-.101563.320312-.15625.5-.15625.25 0 .507812.078125.78125.234375l-.265625.71875c-.1875-.113281-.375-.171875-.5625-.171875-.167969 0-.320313.054687-.453125.15625-.125.09375-.214844.230469-.265625.40625-.085937.273437-.125.570313-.125.890625v2.34375zm0 0"/></symbol><symbol id="F" overflow="visible"><path d="m1.0625 1.8125h-.546875c.84375-1.34375 1.265625-2.691406 1.265625-4.046875 0-.53125-.058594-1.054687-.171875-1.578125-.105469-.414062-.242187-.820312-.40625-1.21875-.117187-.25-.34375-.671875-.6875-1.265625h.546875c.53125.710937.921875 1.417969 1.171875 2.125.21875.617187.328125 1.261719.328125 1.9375 0 .761719-.148438 1.496094-.4375 2.203125-.292969.707031-.648438 1.320312-1.0625 1.84375zm0 0"/></symbol><symbol id="G" overflow="visible"><path d="m.390625-1.984375.765625-.0625c.039062.304687.125.554687.25.75.132812.199219.34375.359375.625.484375s.597656.1875.953125.1875c.3125 0 .585937-.046875.828125-.140625.238281-.09375.414062-.21875.53125-.375.113281-.164063.171875-.34375.171875-.53125 0-.195313-.058594-.367187-.171875-.515625-.105469-.144531-.289062-.265625-.546875-.359375-.167969-.070313-.539063-.175781-1.109375-.3125-.5625-.132813-.960938-.257813-1.1875-.375-.292969-.15625-.511719-.347656-.65625-.578125-.148438-.226562-.21875-.488281-.21875-.78125 0-.300781.085938-.585938.265625-.859375.175781-.28125.429687-.488281.765625-.625.34375-.144531.722656-.21875 1.140625-.21875.457031 0 .863281.078125 1.21875.234375.351563.148438.625.367188.8125.65625.1875.28125.285156.605469.296875.96875l-.78125.046875c-.042969-.382813-.1875-.675781-.4375-.875-.242188-.195313-.601562-.296875-1.078125-.296875-.492187 0-.851563.089844-1.078125.265625-.230469.179687-.34375.398437-.34375.65625 0 .21875.082031.402344.25.546875.15625.148438.566406.296875 1.234375.453125.664063.148437 1.117187.277344 1.359375.390625.363281.15625.628906.367188.796875.625.175781.25.265625.542969.265625.875 0 .335938-.09375.648438-.28125.9375-.1875.292969-.460938.523438-.8125.6875-.355469.15625-.75.234375-1.1875.234375-.5625 0-1.039062-.0859375-1.421875-.25-.375-.164063-.671875-.410156-.890625-.734375-.210938-.320312-.320312-.691406-.328125-1.109375zm0 0"/></symbol><symbol id="H" overflow="visible"><path d="m.546875 0v-6.1875h.765625v6.1875zm0 0"/></symbol><symbol id="I" overflow="visible"><path d="m3.640625-1.4375.78125.09375c-.125.460938-.355469.8125-.6875 1.0625-.335937.25-.761719.375-1.28125.375-.65625 0-1.179687-.195312-1.5625-.59375-.386719-.40625-.578125-.972656-.578125-1.703125 0-.75.191406-1.332031.578125-1.75.394531-.414063.898437-.625 1.515625-.625.601562 0 1.09375.203125 1.46875.609375.382812.40625.578125.980469.578125 1.71875 0 .042969-.007813.109375-.015625.203125h-3.34375c.03125.492187.171875.871094.421875 1.140625.25.261719.5625.390625.9375.390625.28125 0 .519531-.070313.71875-.21875.195313-.15625.351563-.390625.46875-.703125zm-2.5-1.234375h2.5c-.03125-.375-.125-.65625-.28125-.84375-.242187-.289063-.554687-.4375-.9375-.4375-.355469 0-.652344.121094-.890625.359375-.230469.230469-.359375.539062-.390625.921875zm0 0"/></symbol><symbol id="J" overflow="visible"><path d="m2.234375-.671875.109375.65625c-.21875.0507812-.414062.078125-.578125.078125-.28125 0-.5-.0429688-.65625-.125-.148437-.09375-.25-.207031-.3125-.34375-.0625-.144531-.09375-.445312-.09375-.90625v-2.578125h-.546875v-.59375h.546875v-1.109375l.765625-.453125v1.5625h.765625v.59375h-.765625v2.625c0 .21875.007812.359375.03125.421875.03125.054688.070312.101562.125.140625.0625.03125.148438.046875.265625.046875.082031 0 .195313-.003906.34375-.015625zm0 0"/></symbol><symbol id="K" overflow="visible"><path d="m.265625-1.34375.75-.109375c.039063.304687.15625.539063.34375.703125.195313.15625.46875.234375.8125.234375.351563 0 .613281-.070313.78125-.21875.164063-.144531.25-.3125.25-.5 0-.175781-.074219-.3125-.21875-.40625-.105469-.070313-.367187-.160156-.78125-.265625-.554687-.132812-.9375-.253906-1.15625-.359375-.21875-.101563-.386719-.242187-.5-.421875-.105469-.1875-.15625-.390625-.15625-.609375 0-.195313.046875-.378906.140625-.546875.09375-.164062.21875-.304688.375-.421875.113281-.09375.269531-.164063.46875-.21875.207031-.0625.429688-.09375.671875-.09375.34375 0 .644531.054687.90625.15625.269531.09375.46875.230469.59375.40625.132813.167969.222656.398437.265625.6875l-.734375.109375c-.03125-.226562-.132813-.40625-.296875-.53125-.15625-.132812-.386719-.203125-.6875-.203125-.34375 0-.59375.058594-.75.171875-.148438.117188-.21875.25-.21875.40625 0 .09375.03125.183594.09375.265625.0625.085937.160156.152344.296875.203125.070313.023438.296875.085938.671875.1875.53125.148438.898438.265625 1.109375.359375.21875.085937.382813.214844.5.390625.125.179688.1875.398438.1875.65625 0 .25-.074219.492188-.21875.71875-.148437.21875-.359375.390625-.640625.515625-.28125.1132812-.59375.171875-.9375.171875-.585938 0-1.03125-.1171875-1.34375-.359375-.304688-.238281-.496094-.597656-.578125-1.078125zm0 0"/></symbol><symbol id="L" overflow="visible"><path d="m3.5-1.640625.734375.09375c-.074219.523437-.28125.929687-.625 1.21875-.335937.28125-.746094.421875-1.234375.421875-.617188 0-1.109375-.195312-1.484375-.59375-.367187-.394531-.546875-.96875-.546875-1.71875 0-.488281.078125-.910156.234375-1.265625.15625-.363281.394531-.632813.71875-.8125.332031-.1875.691406-.28125 1.078125-.28125.488281 0 .882812.125 1.1875.375.3125.242187.515625.585937.609375 1.03125l-.734375.125c-.074219-.300781-.203125-.523437-.390625-.671875-.179687-.15625-.390625-.234375-.640625-.234375-.386719 0-.699219.136719-.9375.40625-.230469.273437-.34375.703125-.34375 1.296875 0 .605469.113281 1.046875.34375 1.328125.226562.273437.523438.40625.890625.40625.300781 0 .550781-.09375.75-.28125.195313-.1875.328125-.46875.390625-.84375zm0 0"/></symbol><symbol id="M" overflow="visible"><path d="m.53125 1.71875-.078125-.703125c.164063.039063.3125.0625.4375.0625.164063 0 .296875-.03125.390625-.09375.101562-.054687.191406-.125.265625-.21875.039063-.085937.113281-.277344.21875-.578125.019531-.042969.046875-.1015625.078125-.171875l-1.703125-4.5h.8125l.9375 2.59375c.125.335937.234375.683594.328125 1.046875.082031-.351562.1875-.695312.3125-1.03125l.953125-2.609375h.765625l-1.703125 4.5625c-.1875.488281-.335937.828125-.4375 1.015625-.136719.25-.292969.429688-.46875.546875-.167969.113281-.371094.171875-.609375.171875-.148438 0-.3125-.03125-.5-.09375zm0 0"/></symbol><symbol id="N" overflow="visible"><path d="m.578125 0v-6.1875h.75v3.53125l1.796875-1.828125h.984375l-1.703125 1.671875 1.875 2.8125h-.9375l-1.46875-2.296875-.546875.515625v1.78125zm0 0"/></symbol><symbol id="O" overflow="visible"><path d="m.640625 0v-6.1875h.8125v5.453125h3.046875v.734375zm0 0"/></symbol><symbol id="P" overflow="visible"><path d="m.640625 0v-6.1875h1.234375l1.46875 4.375c.132812.417969.226562.726562.28125.921875.070312-.226563.1875-.554687.34375-.984375l1.46875-4.3125h1.109375v6.1875h-.796875v-5.171875l-1.796875 5.171875h-.734375l-1.78125-5.265625v5.265625zm0 0"/></symbol><symbol id="Q" overflow="visible"><path d="m-.125 1.71875v-.546875h5.03125v.546875zm0 0"/></symbol><symbol id="R" overflow="visible"><path d="m3.421875 1.71875v-2.203125c-.117187.167969-.28125.308594-.5.421875-.210937.1015625-.433594.15625-.671875.15625-.53125 0-.992188-.207031-1.375-.625-.386719-.425781-.578125-1.007812-.578125-1.75 0-.445312.078125-.847656.234375-1.203125.15625-.363281.378906-.632813.671875-.8125.300781-.1875.628906-.28125.984375-.28125.5625 0 1 .234375 1.3125.703125v-.609375h.6875v6.203125zm-2.34375-3.96875c0 .574219.117187 1.007812.359375 1.296875.25.292969.539062.4375.875.4375.320312 0 .597656-.132813.828125-.40625.238281-.28125.359375-.703125.359375-1.265625 0-.59375-.125-1.039062-.375-1.34375-.242188-.300781-.527344-.453125-.859375-.453125-.335937 0-.617187.140625-.84375.421875-.230469.28125-.34375.71875-.34375 1.3125zm0 0"/></symbol><symbol id="S" overflow="visible"><path d="m3.5 0v-.65625c-.34375.5-.820312.75-1.421875.75-.261719 0-.507813-.046875-.734375-.140625-.230469-.101563-.402344-.226563-.515625-.375-.105469-.15625-.183594-.347656-.234375-.578125-.03125-.144531-.046875-.378906-.046875-.703125v-2.78125h.765625v2.484375c0 .398438.015625.667969.046875.8125.050781.199219.148437.355469.296875.46875.15625.117188.347656.171875.578125.171875.226563 0 .441406-.054687.640625-.171875.195312-.125.335938-.285156.421875-.484375.082031-.195313.125-.488281.125-.875v-2.40625h.765625v4.484375zm0 0"/></symbol><symbol id="T" overflow="visible"><path d="m.5625 1.71875v-6.203125h.703125v.59375c.15625-.226563.335937-.398437.546875-.515625.207031-.113281.457031-.171875.75-.171875.382812 0 .722656.101563 1.015625.296875.289063.199219.507813.476562.65625.828125.144531.355469.21875.746094.21875 1.171875 0 .460938-.085937.875-.25 1.25-.15625.367188-.390625.648438-.703125.84375-.3125.1875-.648438.28125-1 .28125-.25 0-.480469-.0546875-.6875-.15625-.199219-.101562-.359375-.238281-.484375-.40625v2.1875zm.6875-3.9375c0 .585938.113281 1.015625.34375 1.296875.238281.273437.523438.40625.859375.40625.34375 0 .632813-.140625.875-.421875.238281-.289062.359375-.738281.359375-1.34375 0-.570312-.121094-1-.359375-1.28125-.230469-.28125-.511719-.421875-.84375-.421875-.324219 0-.609375.152344-.859375.453125-.25.304688-.375.742188-.375 1.3125zm0 0"/></symbol><symbol id="U" overflow="visible"><path d="m1.265625 0h-.703125v-6.1875h.765625v2.203125c.320313-.394531.726563-.59375 1.21875-.59375.28125 0 .539063.058594.78125.171875.25.105469.453125.261719.609375.46875.164062.199219.289062.4375.375.71875.09375.28125.140625.585938.140625.90625 0 .773438-.195313 1.367188-.578125 1.78125-.375.417969-.828125.625-1.359375.625s-.949219-.21875-1.25-.65625zm0-2.28125c0 .542969.070313.933594.21875 1.171875.238281.398437.5625.59375.96875.59375.332031 0 .617187-.144531.859375-.4375.238281-.289063.359375-.722656.359375-1.296875 0-.582031-.117187-1.007812-.34375-1.28125-.230469-.28125-.511719-.421875-.84375-.421875-.335937 0-.621094.148437-.859375.4375-.242188.28125-.359375.695313-.359375 1.234375zm0 0"/></symbol><symbol id="V" overflow="visible"><path d="m.6875 0v-6.1875h.828125v2.546875h3.203125v-2.546875h.828125v6.1875h-.828125v-2.921875h-3.203125v2.921875zm0 0"/></symbol><symbol id="W" overflow="visible"><path d="m1.390625 0-1.359375-4.484375h.78125l.703125 2.59375.265625.953125c.019531-.039062.097656-.347656.234375-.921875l.71875-2.625h.78125l.671875 2.609375.21875.84375.265625-.859375.765625-2.59375h.734375l-1.40625 4.484375h-.78125l-.71875-2.6875-.171875-.765625-.90625 3.453125zm0 0"/></symbol><symbol id="X" overflow="visible"><path d="m.5625 0v-6.1875h.765625v2.21875c.351563-.40625.800781-.609375 1.34375-.609375.332031 0 .617187.070313.859375.203125.25.125.425781.304688.53125.53125.101562.230469.15625.5625.15625 1v2.84375h-.765625v-2.84375c0-.375-.085937-.644531-.25-.8125-.15625-.175781-.386719-.265625-.6875-.265625-.230469 0-.445313.058594-.640625.171875-.199219.117188-.339844.273438-.421875.46875-.085937.199219-.125.476562-.125.828125v2.453125zm0 0"/></symbol><symbol id="Y" overflow="visible"><path d="m0-.640625h-6.1875v-.8125h5.453125v-3.046875h.734375zm0 0"/></symbol><symbol id="Z" overflow="visible"><path d="m-2.234375-.28125c-.832031 0-1.445313-.234375-1.84375-.703125-.332031-.382813-.5-.851563-.5-1.40625 0-.613281.203125-1.113281.609375-1.5.398438-.394531.953125-.59375 1.671875-.59375.574219 0 1.027344.089844 1.359375.265625.324219.167969.578125.417969.765625.75.17578125.335938.265625.695312.265625 1.078125 0 .625-.195312 1.136719-.59375 1.53125-.40625.386719-.984375.578125-1.734375.578125zm0-.78125c.574219 0 1.007813-.125 1.296875-.375.28125-.25.421875-.566406.421875-.953125 0-.375-.144531-.6875-.4375-.9375-.289063-.25-.726563-.375-1.3125-.375-.550781 0-.96875.125-1.25.375-.289063.25-.4375.5625-.4375.9375 0 .386719.148437.703125.4375.953125.28125.25.710937.375 1.28125.375zm0 0"/></symbol><symbol id="aa" overflow="visible"><path d="m1.71875-.5625h-6.203125v-.703125h.59375c-.226563-.15625-.398437-.335937-.515625-.546875-.113281-.207031-.171875-.457031-.171875-.75 0-.382812.101563-.722656.296875-1.015625.199219-.289063.476562-.507813.828125-.65625.355469-.144531.746094-.21875 1.171875-.21875.460938 0 .875.085937 1.25.25.367188.15625.648438.390625.84375.703125.1875.3125.28125.648438.28125 1 0 .25-.0546875.480469-.15625.6875-.101562.199219-.238281.359375-.40625.484375h2.1875zm-3.9375-.6875c.585938 0 1.015625-.113281 1.296875-.34375.273437-.238281.40625-.523438.40625-.859375 0-.34375-.140625-.632813-.421875-.875-.289062-.238281-.738281-.359375-1.34375-.359375-.570312 0-1 .121094-1.28125.359375-.28125.230469-.421875.511719-.421875.84375 0 .324219.152344.609375.453125.859375.304688.25.742188.375 1.3125.375zm0 0"/></symbol><symbol id="ab" overflow="visible"><path d="m.3125-2.015625 1.21875-.109375c.070312.40625.21875.710938.4375.90625.226562.1875.53125.28125.90625.28125.40625 0 .707031-.082031.90625-.25.207031-.175781.3125-.378906.3125-.609375 0-.144531-.046875-.269531-.140625-.375-.085937-.101563-.230469-.191406-.4375-.265625-.148437-.050781-.480469-.140625-1-.265625-.667969-.164063-1.136719-.375-1.40625-.625-.386719-.332031-.578125-.742187-.578125-1.234375 0-.3125.085938-.601562.265625-.875.1875-.28125.445313-.492188.78125-.640625.332031-.144531.738281-.21875 1.21875-.21875.769531 0 1.351563.171875 1.75.515625.394531.34375.601563.796875.625 1.359375l-1.25.0625c-.0625-.320313-.183594-.550781-.359375-.6875-.167969-.132813-.429688-.203125-.78125-.203125-.367188 0-.652344.074219-.859375.21875-.125.09375-.1875.21875-.1875.375 0 .148438.0625.273438.1875.375.15625.136719.535156.277344 1.140625.421875.601562.148437 1.050781.296875 1.34375.453125.289062.148438.519531.355469.6875.625.164062.261719.25.589844.25.984375 0 .355469-.101562.6875-.296875 1-.199219.304687-.480469.53125-.84375.6875-.355469.1445312-.804687.21875-1.34375.21875-.78125 0-1.382813-.1757812-1.796875-.53125-.417969-.363281-.667969-.894531-.75-1.59375zm0 0"/></symbol><symbol id="ac" overflow="visible"><path d="m.625 0v-6.1875h1.1875v6.1875zm0 0"/></symbol><symbol id="ad" overflow="visible"><path d="m1.5-3.109375-1.0625-.203125c.113281-.425781.316406-.742188.609375-.953125.300781-.207031.742187-.3125 1.328125-.3125.53125 0 .921875.0625 1.171875.1875.257813.125.441406.289063.546875.484375.101562.1875.15625.539062.15625 1.046875v1.390625c0 .398438.015625.6875.046875.875.039063.179688.113281.375.21875.59375h-1.171875c-.03125-.0820312-.070312-.195312-.109375-.34375-.023437-.070312-.039063-.117188-.046875-.140625-.210938.199219-.429688.34375-.65625.4375-.230469.09375-.476562.140625-.734375.140625-.460937 0-.824219-.125-1.09375-.375-.261719-.25-.390625-.5625-.390625-.9375 0-.257812.054688-.488281.171875-.6875.125-.195312.296875-.347656.515625-.453125.21875-.101563.53125-.191406.9375-.265625.550781-.101562.9375-.203125 1.15625-.296875v-.125c0-.226563-.058594-.390625-.171875-.484375-.117187-.09375-.328125-.140625-.640625-.140625-.210938 0-.375.042969-.5.125-.117188.085937-.210938.230469-.28125.4375zm1.59375.953125c-.15625.054688-.402344.117188-.734375.1875-.324219.074219-.539063.140625-.640625.203125-.148438.117187-.21875.257813-.21875.421875 0 .167969.054688.3125.171875.4375.125.117188.285156.171875.484375.171875.207031 0 .410156-.066406.609375-.203125.144531-.113281.238281-.25.28125-.40625.03125-.09375.046875-.285156.046875-.578125zm0 0"/></symbol><symbol id="ae" overflow="visible"><path d="m1.859375 0-1.8125-4.484375h1.25l.84375 2.296875.234375.75c.070312-.1875.113281-.3125.125-.375.039062-.125.082031-.25.125-.375l.859375-2.296875h1.21875l-1.78125 4.484375zm0 0"/></symbol><symbol id="af" overflow="visible"><path d="m3.21875-1.421875 1.171875.1875c-.148437.4375-.386719.773437-.71875 1-.324219.21875-.730469.328125-1.21875.328125-.78125 0-1.359375-.25-1.734375-.75-.292969-.414062-.4375-.929688-.4375-1.546875 0-.75.191406-1.332031.578125-1.75.382813-.414063.875-.625 1.46875-.625.664063 0 1.191406.21875 1.578125.65625.382812.4375.566406 1.109375.546875 2.015625h-2.96875c.007813.355469.101563.632812.28125.828125.1875.199219.414063.296875.6875.296875.1875 0 .34375-.050781.46875-.15625.132813-.101562.234375-.265625.296875-.484375zm.0625-1.203125c-.011719-.34375-.101562-.601562-.265625-.78125-.167969-.175781-.371094-.265625-.609375-.265625-.261719 0-.476562.09375-.640625.28125-.179687.1875-.261719.445313-.25.765625zm0 0"/></symbol><symbol id="ag" overflow="visible"><path d="m.609375 0v-6.1875h1.875l1.125 4.21875 1.109375-4.21875h1.875v6.1875h-1.171875v-4.875l-1.21875 4.875h-1.203125l-1.234375-4.875v4.875zm0 0"/></symbol><symbol id="ah" overflow="visible"><path d="m.203125-1.28125 1.1875-.171875c.050781.230469.15625.40625.3125.53125.15625.117187.367187.171875.640625.171875.3125 0 .546875-.054688.703125-.171875.101563-.082031.15625-.1875.15625-.3125 0-.09375-.03125-.171875-.09375-.234375-.054687-.050781-.183594-.101562-.390625-.15625-.960938-.207031-1.5625-.398438-1.8125-.578125-.367188-.238281-.546875-.570313-.546875-1 0-.382813.148437-.707031.453125-.96875.3125-.269531.789062-.40625 1.4375-.40625.613281 0 1.066406.101563 1.359375.296875.300781.199219.507813.496094.625.890625l-1.109375.203125c-.054688-.175781-.148438-.3125-.28125-.40625-.136719-.09375-.324219-.140625-.5625-.140625-.3125 0-.539062.046875-.671875.140625-.09375.0625-.140625.140625-.140625.234375 0 .085937.039062.15625.125.21875.101562.074219.46875.183594 1.09375.328125.632812.148438 1.078125.324219 1.328125.53125.25.210938.375.5.375.875 0 .417969-.171875.773438-.515625 1.0625-.34375.2929688-.855469.4375-1.53125.4375-.605469 0-1.089844-.1171875-1.453125-.359375-.355469-.25-.585937-.585937-.6875-1.015625zm0 0"/></symbol><symbol id="ai" overflow="visible"><path d="m2.671875-4.484375v.953125h-.8125v1.796875c0 .367187.003906.578125.015625.640625.019531.0625.054688.117188.109375.15625.0625.042969.128906.0625.203125.0625.113281 0 .273438-.039062.484375-.125l.09375.921875c-.273437.1132812-.585937.171875-.9375.171875-.210937 0-.402344-.03125-.578125-.09375-.167969-.0703125-.292969-.164062-.375-.28125-.074219-.113281-.125-.269531-.15625-.46875-.03125-.132812-.046875-.410156-.046875-.828125v-1.953125h-.546875v-.953125h.546875v-.890625l1.1875-.6875v1.578125zm0 0"/></symbol><symbol id="aj" overflow="visible"><path d="m1.75 0h-1.1875v-4.484375h1.109375v.640625c.1875-.300781.351563-.5.5-.59375.15625-.09375.328125-.140625.515625-.140625.269531 0 .53125.074219.78125.21875l-.359375 1.03125c-.199219-.125-.386719-.1875-.5625-.1875-.167969 0-.308594.046875-.421875.140625-.117188.085938-.210938.246094-.28125.484375-.0625.242187-.09375.742187-.09375 1.5zm0 0"/></symbol><symbol id="ak" overflow="visible"><path d="m.53125 0v-.578125h.5625v.578125zm0 0"/></symbol><symbol id="al" overflow="visible"><path d="m.28125-2.015625c0-.675781.179688-1.207031.546875-1.59375.363281-.394531.835937-.59375 1.421875-.59375.382812 0 .726562.09375 1.03125.28125.3125.179687.546875.433594.703125.765625.15625.324219.234375.6875.234375 1.09375 0 .417969-.085938.792969-.25 1.125-.167969.335938-.40625.589844-.71875.765625-.304688.16796875-.636719.25-1 .25-.386719 0-.734375-.09375-1.046875-.28125-.304687-.195313-.53125-.457031-.6875-.78125-.15625-.320313-.234375-.664063-.234375-1.03125zm.5625.015625c0 .5.128906.898438.390625 1.1875.269531.28125.609375.421875 1.015625.421875s.738281-.144531 1-.4375c.269531-.289063.40625-.703125.40625-1.234375 0-.332031-.058594-.625-.171875-.875-.105469-.25-.265625-.441406-.484375-.578125-.21875-.144531-.464844-.21875-.734375-.21875-.398437 0-.734375.136719-1.015625.40625-.273438.261719-.40625.703125-.40625 1.328125zm0 0"/></symbol><symbol id="am" overflow="visible"><path d="m.375 1.140625v-4.125h.46875v.390625c.101562-.15625.222656-.269531.359375-.34375.144531-.082031.3125-.125.5-.125.257813 0 .484375.070312.671875.203125.195312.136719.34375.324219.4375.5625.101562.230469.15625.492187.15625.78125 0 .304687-.058594.578125-.171875.828125-.105469.242188-.261719.429688-.46875.5625-.210937.125-.429687.1875-.65625.1875-.167969 0-.320313-.03125-.453125-.09375-.136719-.070312-.246094-.164062-.328125-.28125v1.453125zm.46875-2.625c0 .386719.078125.671875.234375.859375s.34375.28125.5625.28125.40625-.09375.5625-.28125c.164063-.195312.25-.492188.25-.890625 0-.382813-.078125-.671875-.234375-.859375s-.34375-.28125-.5625-.28125c-.210938 0-.398438.101562-.5625.296875-.167969.199219-.25.492187-.25.875zm0 0"/></symbol><symbol id="an" overflow="visible"><path d="m2.328125-1.09375.5.0625c-.054687.34375-.195313.617188-.421875.8125-.21875.1875-.496094.28125-.828125.28125-.40625 0-.734375-.1289062-.984375-.390625-.25-.269531-.375-.65625-.375-1.15625 0-.320313.050781-.601563.15625-.84375.113281-.238281.28125-.421875.5-.546875s.457031-.1875.71875-.1875c.320312 0 .582031.085938.78125.25.207031.167969.34375.402344.40625.703125l-.5.078125c-.042969-.207031-.125-.359375-.25-.453125-.117188-.101563-.257812-.15625-.421875-.15625-.261719 0-.46875.09375-.625.28125-.15625.179687-.234375.464844-.234375.859375 0 .40625.070312.703125.21875.890625.15625.179687.359375.265625.609375.265625.195313 0 .363281-.0625.5-.1875.132813-.125.21875-.3125.25-.5625zm0 0"/></symbol><symbol id="ao" overflow="visible"><path d="m.1875-1.5c0-.550781.15625-.957031.46875-1.21875.25-.226562.5625-.34375.9375-.34375.40625 0 .738281.136719 1 .40625.269531.273438.40625.648438.40625 1.125 0 .386719-.0625.6875-.1875.90625-.117188.21875-.28125.390625-.5.515625-.21875.11328125-.460938.171875-.71875.171875-.417969 0-.757812-.1289062-1.015625-.390625-.261719-.269531-.390625-.660156-.390625-1.171875zm.53125 0c0 .386719.082031.679688.25.875.164062.1875.375.28125.625.28125s.457031-.09375.625-.28125c.164062-.195312.25-.492188.25-.890625 0-.363281-.085938-.640625-.25-.828125-.167969-.195312-.375-.296875-.625-.296875s-.460938.101563-.625.296875c-.167969.1875-.25.46875-.25.84375zm0 0"/></symbol><symbol id="ap" overflow="visible"><path d="m2.3125 0v-.375c-.1875.2929688-.464844.4375-.828125.4375-.242187 0-.460937-.0625-.65625-.1875-.199219-.132812-.355469-.316406-.46875-.546875-.105469-.238281-.15625-.507813-.15625-.8125 0-.300781.046875-.570313.140625-.8125.101562-.25.253906-.4375.453125-.5625.195313-.132813.421875-.203125.671875-.203125.175781 0 .332031.042969.46875.125.144531.074219.257812.171875.34375.296875v-1.484375h.515625v4.125zm-1.59375-1.484375c0 .375.078125.664063.234375.859375.164063.1875.359375.28125.578125.28125s.40625-.085938.5625-.265625c.15625-.1875.234375-.46875.234375-.84375 0-.40625-.078125-.703125-.234375-.890625-.15625-.195312-.351562-.296875-.578125-.296875-.230469 0-.421875.09375-.578125.28125-.148438.179687-.21875.46875-.21875.875zm0 0"/></symbol><symbol id="aq" overflow="visible"><path d="m2.421875-.96875.53125.078125c-.085937.304687-.242187.539063-.46875.703125-.21875.1679688-.5.25-.84375.25-.4375 0-.789063-.1289062-1.046875-.390625-.25-.269531-.375-.648437-.375-1.140625 0-.5.125-.890625.375-1.171875.257812-.28125.597656-.421875 1.015625-.421875.394531 0 .71875.140625.96875.421875.257813.273437.390625.652344.390625 1.140625v.140625h-2.234375c.019531.324219.113281.574219.28125.75.164063.179687.375.265625.625.265625.1875 0 .34375-.046875.46875-.140625.132813-.101563.238281-.265625.3125-.484375zm-1.65625-.8125h1.671875c-.023438-.25-.089844-.4375-.203125-.5625-.15625-.195312-.367187-.296875-.625-.296875-.230469 0-.429687.078125-.59375.234375-.15625.15625-.242187.367188-.25.625zm0 0"/></symbol><symbol id="ar" overflow="visible"><path d="m3.046875-2.421875h-2.71875v-.484375h2.71875zm0 1.25h-2.71875v-.46875h2.71875zm0 0"/></symbol><symbol id="as" overflow="visible"><path d="m.3125-.953125.484375-.046875c.039063.230469.117187.398438.234375.5.125.105469.273438.15625.453125.15625.15625 0 .289063-.035156.40625-.109375.125-.070313.222656-.164063.296875-.28125.070312-.125.132812-.285156.1875-.484375.050781-.207031.078125-.414062.078125-.625 0-.019531 0-.050781 0-.09375-.105469.15625-.246094.289062-.421875.390625-.179688.09375-.367188.140625-.5625.140625-.34375 0-.636719-.117188-.875-.359375-.242188-.25-.359375-.578125-.359375-.984375 0-.414062.125-.75.375-1 .25-.257812.554687-.390625.921875-.390625.269531 0 .515625.074219.734375.21875.226563.148437.398437.355469.515625.625.113281.261719.171875.648437.171875 1.15625 0 .523437-.058594.9375-.171875 1.25-.117188.3125-.289062.554687-.515625.71875-.21875.16796875-.484375.25-.796875.25-.324219 0-.589844-.0859375-.796875-.265625-.199219-.1875-.320313-.441406-.359375-.765625zm2.078125-1.828125c0-.289062-.078125-.519531-.234375-.6875-.15625-.164062-.34375-.25-.5625-.25s-.414062.09375-.578125.28125c-.167969.179688-.25.414062-.25.703125 0 .261719.078125.476563.234375.640625.15625.167969.347656.25.578125.25.238281 0 .429687-.082031.578125-.25.15625-.164062.234375-.394531.234375-.6875zm0 0"/></symbol><symbol id="at" overflow="visible"><path d="m2.140625 0h-.5v-3.234375c-.125.125-.289063.246094-.484375.359375-.199219.117188-.375.199219-.53125.25v-.484375c.28125-.132813.523438-.296875.734375-.484375.21875-.1875.375-.367188.46875-.546875h.3125zm0 0"/></symbol><symbol id="au" overflow="visible"><path d="m1.5 0v-3.640625h-1.359375v-.484375h3.265625v.484375h-1.359375v3.640625zm0 0"/></symbol><symbol id="av" overflow="visible"><path d="m.53125 0v-4.125h.546875v4.125zm0 0"/></symbol><symbol id="aw" overflow="visible"><path d="m.4375 0v-4.125h1.421875c.320313 0 .566406.023438.734375.0625.238281.054688.441406.152344.609375.296875.21875.179687.378906.414063.484375.703125.113281.28125.171875.605469.171875.96875 0 .324219-.039063.605469-.109375.84375-.074219.242188-.167969.445312-.28125.609375-.117188.15625-.242188.28125-.375.375-.136719.085937-.304688.152344-.5.203125-.1875.0429688-.40625.0625-.65625.0625zm.546875-.484375h.890625c.269531 0 .484375-.023437.640625-.078125.15625-.050781.28125-.125.375-.21875.125-.125.222656-.296875.296875-.515625.070312-.21875.109375-.484375.109375-.796875 0-.425781-.074219-.753906-.21875-.984375-.136719-.238281-.308594-.398437-.515625-.484375-.148438-.050781-.382812-.078125-.703125-.078125h-.875zm0 0"/></symbol><symbol id="ax" overflow="visible"><path d="m-.015625 0 1.59375-4.125h.59375l1.6875 4.125h-.625l-.484375-1.25h-1.71875l-.453125 1.25zm1.203125-1.6875h1.390625l-.421875-1.15625c-.136719-.34375-.234375-.625-.296875-.84375-.054687.261719-.125.523438-.21875.78125zm0 0"/></symbol><symbol id="ay" overflow="visible"><path d="m3.390625-1.453125.546875.140625c-.117188.449219-.324219.792969-.625 1.03125-.292969.2421875-.652344.359375-1.078125.359375-.449219 0-.8125-.0859375-1.09375-.265625-.28125-.1875-.496094-.453125-.640625-.796875-.148438-.34375-.21875-.710937-.21875-1.109375 0-.425781.082031-.800781.25-1.125.164062-.320312.398438-.566406.703125-.734375.300781-.164063.632813-.25 1-.25.414063 0 .765625.109375 1.046875.328125.28125.210938.472656.5.578125.875l-.53125.125c-.09375-.289062-.234375-.503906-.421875-.640625-.179688-.144531-.40625-.21875-.6875-.21875-.3125 0-.578125.078125-.796875.234375-.210937.148438-.359375.351562-.453125.609375-.085938.261719-.125.527344-.125.796875 0 .34375.050781.652344.15625.921875.101562.261719.257812.460937.46875.59375.21875.125.457031.1875.71875.1875.300781 0 .554688-.085937.765625-.265625.21875-.175781.363281-.441406.4375-.796875zm0 0"/></symbol><symbol id="az" overflow="visible"><path d="m.421875 0v-4.125h.546875v3.640625h2.03125v.484375zm0 0"/></symbol><symbol id="aA" overflow="visible"/><symbol id="aB" overflow="visible"><path d="m.46875 0v-4.125h.546875v1.6875h2.140625v-1.6875h.546875v4.125h-.546875v-1.953125h-2.140625v1.953125zm0 0"/></symbol><symbol id="aC" overflow="visible"><path d="m2.328125-.375c-.1875.167969-.371094.28125-.546875.34375-.167969.0625-.351562.09375-.546875.09375-.335937 0-.589844-.078125-.765625-.234375-.179688-.15625-.265625-.359375-.265625-.609375 0-.15625.03125-.289062.09375-.40625.070313-.125.160156-.222656.265625-.296875.113281-.070313.238281-.125.375-.15625.09375-.03125.242188-.054687.453125-.078125.40625-.050781.703125-.109375.890625-.171875.007812-.070313.015625-.117187.015625-.140625 0-.207031-.054687-.351562-.15625-.4375-.125-.113281-.3125-.171875-.5625-.171875-.242187 0-.417969.042969-.53125.125-.117187.085937-.199219.234375-.25.453125l-.5-.078125c.039063-.207031.113281-.375.21875-.5.101563-.132813.253906-.238281.453125-.3125.195312-.070313.421875-.109375.671875-.109375.257813 0 .46875.03125.625.09375s.269531.140625.34375.234375c.082031.085937.140625.199219.171875.34375.007812.085937.015625.242187.015625.46875v.671875c0 .46875.007813.765625.03125.890625.019531.125.066406.246094.140625.359375h-.53125c-.054688-.101562-.089844-.226562-.109375-.375zm-.046875-1.125c-.179688.074219-.449219.136719-.8125.1875-.210938.03125-.359375.070312-.453125.109375-.085937.03125-.152344.085937-.203125.15625-.042969.074219-.0625.15625-.0625.25 0 .136719.050781.25.15625.34375.101562.085937.25.125.4375.125.195312 0 .367188-.039063.515625-.125.15625-.082031.269531-.203125.34375-.359375.050781-.113281.078125-.28125.078125-.5zm0 0"/></symbol><symbol id="aD" overflow="visible"><path d="m.375 0v-2.984375h.453125v.453125c.113281-.21875.21875-.359375.3125-.421875.101563-.070313.21875-.109375.34375-.109375.164063 0 .335937.058594.515625.171875l-.171875.46875c-.125-.070313-.25-.109375-.375-.109375-.117187 0-.21875.039062-.3125.109375-.085937.0625-.140625.152344-.171875.265625-.0625.179688-.09375.375-.09375.59375v1.5625zm0 0"/></symbol><symbol id="aE" overflow="visible"><path d="m.359375 1.15625-.0625-.484375c.113281.03125.210937.046875.296875.046875.113281 0 .203125-.023438.265625-.0625.070313-.03125.128906-.085938.171875-.15625.03125-.042969.082031-.167969.15625-.375.007812-.023438.023438-.0625.046875-.125l-1.140625-2.984375h.546875l.625 1.71875c.070313.230469.144531.464844.21875.703125.050781-.238281.117187-.46875.203125-.6875l.640625-1.734375h.5l-1.140625 3.03125c-.117188.332031-.210938.5625-.28125.6875-.085938.164063-.1875.285156-.3125.359375-.117188.082031-.25.125-.40625.125-.105469 0-.214844-.023438-.328125-.0625zm0 0"/></symbol><symbol id="aF" overflow="visible"><path d="m.234375-2.03125c0-.488281.050781-.878906.15625-1.171875.101563-.300781.253906-.53125.453125-.6875.195312-.164063.441406-.25.734375-.25.226563 0 .425781.046875.59375.140625.164063.085938.300781.210938.40625.375.113281.167969.203125.371094.265625.609375.0625.242187.09375.570313.09375.984375 0 .480469-.054688.871094-.15625 1.171875-.105469.292969-.257812.523437-.453125.6875-.199219.16796875-.449219.25-.75.25-.398437 0-.710937-.1445312-.9375-.4375-.273437-.34375-.40625-.898437-.40625-1.671875zm.53125 0c0 .679688.078125 1.132812.234375 1.359375.15625.21875.347656.328125.578125.328125.238281 0 .4375-.109375.59375-.328125.15625-.226563.234375-.679687.234375-1.359375 0-.675781-.078125-1.125-.234375-1.34375-.15625-.226562-.355469-.34375-.59375-.34375-.230469 0-.417969.101562-.5625.296875-.167969.25-.25.714844-.25 1.390625zm0 0"/></symbol><symbol id="aG" overflow="visible"><path d="m.046875 0 1.09375-1.546875-1.015625-1.4375h.625l.46875.703125c.082031.125.148438.234375.203125.328125.082031-.125.160156-.234375.234375-.328125l.5-.703125h.609375l-1.03125 1.40625 1.109375 1.578125h-.625l-.609375-.921875-.171875-.25-.78125 1.171875zm0 0"/></symbol><g clip-path="url(#a)"><path d="m0 0h185v199.398438h-185zm0 0" fill="#fff"/></g><path d="m6.480469 197.238281v-4.320312h1.4375v4.320312m-1.4375-8.640625v-4.316406h1.4375v4.316406m-1.4375-8.636718v-4.320313h1.4375v4.320313m-1.4375-8.636719v-4.320313h1.4375v4.320313m-1.4375-8.640625v-4.316406h1.4375v4.316406m-1.4375-8.636719v-4.320313h1.4375v4.320313m-1.4375-8.636719v-4.320312h1.4375v4.320312m-1.4375-8.640625v-4.316406h1.4375v4.316406m-1.4375-8.636719v-4.320312h1.4375v4.320312m-1.4375-8.636718v-4.320313h1.4375v4.320313m-1.4375-8.640625v-4.320313h1.4375v4.320313m-1.4375-8.636719v-4.320312h1.4375v4.320312m-1.4375-8.640625v-4.316406h1.4375v4.316406m-1.4375-8.636719v-4.320312h1.4375v4.320312m-1.4375-8.636718v-4.320313h1.4375v4.320313m-1.4375-8.640626v-4.316406h1.4375v4.316406m-1.4375-8.636718v-4.320313h1.4375v4.320313m-1.4375-8.636719v-4.320313h1.4375v4.320313m-1.4375-8.640625v-4.316406h1.4375v4.316406"/><path d="m164.84375 197.238281v-4.320312h1.441406v4.320312m-1.441406-8.640625v-4.316406h1.441406v4.316406m-1.441406-8.636718v-4.320313h1.441406v4.320313m-1.441406-8.636719v-4.320313h1.441406v4.320313m-1.441406-8.640625v-4.316406h1.441406v4.316406m-1.441406-8.636719v-4.320313h1.441406v4.320313m-1.441406-8.636719v-4.320312h1.441406v4.320312m-1.441406-8.640625v-4.316406h1.441406v4.316406m-1.441406-8.636719v-4.320312h1.441406v4.320312m-1.441406-8.636718v-4.320313h1.441406v4.320313m-1.441406-8.640625v-4.320313h1.441406v4.320313m-1.441406-8.636719v-4.320312h1.441406v4.320312m-1.441406-8.640625v-4.316406h1.441406v4.316406m-1.441406-8.636719v-4.320312h1.441406v4.320312m-1.441406-8.636718v-4.320313h1.441406v4.320313m-1.441406-8.640626v-4.316406h1.441406v4.316406m-1.441406-8.636718v-4.320313h1.441406v4.320313m-1.441406-8.636719v-4.320313h1.441406v4.320313m-1.441406-8.640625v-4.316406h1.441406v4.316406"/><path d="m148.289062 180.320312h4.195313l3.003906 4.261719 3-4.261719h4.195313l-5.09375 7.199219 5.09375 7.199219h-4.195313l-3-4.261719-3.003906 4.261719h-4.195313l4.800782-7.199219zm0 0" fill="#f8cecc"/><g clip-path="url(#b)"><path d="m205.501584 249.999055h5.828084l4.172994 5.920334 4.167568-5.920334h5.828084l-7.076184 10.001078 7.076184 10.001078h-5.828084l-4.167568-5.920334-4.172994 5.920334h-5.828084l6.669194-10.001078zm0 0" fill="none" stroke="#b85450" stroke-miterlimit="10" transform="matrix(.719844 0 0 .719844 .359922 .359922)"/></g><g fill="#c00"><use x="104.051241" xlink:href="#c" y="189.319046"/><use x="109.249726" xlink:href="#d" y="189.319046"/><use x="112.051073" xlink:href="#e" y="189.319046"/><use x="116.054504" xlink:href="#f" y="189.319046"/><use x="120.057935" xlink:href="#g" y="189.319046"/><use x="124.455031" xlink:href="#h" y="189.319046"/><use x="126.454989" xlink:href="#i" y="189.319046"/><use x="130.852084" xlink:href="#d" y="189.319046"/><use x="133.653432" xlink:href="#h" y="189.319046"/><use x="135.65339" xlink:href="#j" y="189.319046"/><use x="140.851874" xlink:href="#i" y="189.319046"/><use x="145.24897" xlink:href="#k" y="189.319046"/></g><g stroke-width="2" transform="scale(.719844)"><path d="m17.240057 207.000064h202.517758" fill="none" stroke="#d6b656" stroke-miterlimit="10"/><path d="m11.238325 207.000064 8.004118-3.999346-2.002386 3.999346 2.002386 3.999346zm0 0" fill="#d6b656" stroke="#d6b656" stroke-miterlimit="10"/><path d="m225.759547 207.000064-7.998692 3.999346 1.99696-3.999346-1.99696-3.999346zm0 0" fill="#d6b656" stroke="#d6b656" stroke-miterlimit="10"/><path d="m17.240057 186.997908h202.517758" fill="none" stroke="#666" stroke-miterlimit="10"/><path d="m11.238325 186.997908 8.004118-3.999346-2.002386 3.999346 2.002386 4.004773zm0 0" fill="#666" stroke="#666" stroke-miterlimit="10"/><path d="m225.759547 186.997908-7.998692 4.004773 1.99696-4.004773-1.99696-3.999346zm0 0" fill="#666" stroke="#666" stroke-miterlimit="10"/></g><path d="m47.247957 199.000612h143.504344c.298458 0 .580637.054265.85739.168222.276752.113957.520946.276753.73258.488387.211635.211635.37443.455828.488387.732581.113957.276752.168222.564358.168222.862816v10.494892c0 .298458-.054265.586064-.168222.862817-.113957.276752-.276752.520946-.488387.73258-.211634.211634-.455828.369003-.73258.488387-.276753.113957-.558932.168222-.85739.168222h-143.504344c-.298459 0-.580638-.054265-.85739-.168222-.276753-.119384-.520946-.276753-.732581-.488387-.211634-.211634-.37443-.455828-.488387-.73258-.113957-.276753-.168222-.564359-.168222-.862817v-10.494892c0-.298458.054265-.586064.168222-.862816.113957-.276753.276753-.520946.488387-.732581.211635-.211634.455828-.37443.732581-.488387.276752-.113957.558931-.168222.85739-.168222zm0 0" fill="#fff2cc" stroke="#d6b656" transform="matrix(.719844 0 0 .719844 .359922 .359922)"/><g><use x="35.486074" xlink:href="#q" y="152.606988"/><use x="41.24764" xlink:href="#r" y="152.606988"/><use x="46.051757" xlink:href="#s" y="152.606988"/><use x="50.855874" xlink:href="#t" y="152.606988"/><use x="52.77499" xlink:href="#u" y="152.606988"/><use x="57.579107" xlink:href="#s" y="152.606988"/><use x="62.383224" xlink:href="#v" y="152.606988"/><use x="64.783173" xlink:href="#w" y="152.606988"/><use x="67.659739" xlink:href="#x" y="152.606988"/><use x="73.89792" xlink:href="#r" y="152.606988"/><use x="78.702037" xlink:href="#u" y="152.606988"/><use x="83.506154" xlink:href="#y" y="152.606988"/><use x="88.310271" xlink:href="#z" y="152.606988"/><use x="93.114388" xlink:href="#A" y="152.606988"/><use x="100.310019" xlink:href="#v" y="152.606988"/><use x="102.709969" xlink:href="#B" y="152.606988"/><use x="108.471535" xlink:href="#C" y="152.606988"/><use x="114.709717" xlink:href="#D" y="152.606988"/><use x="120.471283" xlink:href="#y" y="152.606988"/><use x="125.2754" xlink:href="#y" y="152.606988"/><use x="130.079517" xlink:href="#E" y="152.606988"/><use x="132.956082" xlink:href="#F" y="152.606988"/></g><path d="m47.247957 178.998456h143.504344c.298458 0 .580637.059692.85739.173649.276752.113957.520946.276753.73258.488387.211635.211634.37443.450401.488387.727154.113957.276752.168222.564358.168222.862817v10.500317c0 .298459-.054265.586065-.168222.862817-.113957.271326-.276752.51552-.488387.727154-.211634.211634-.455828.37443-.73258.488387-.276753.113957-.558932.168222-.85739.168222h-143.504344c-.298459 0-.580638-.054265-.85739-.168222-.276753-.113957-.520946-.276753-.732581-.488387-.211634-.211634-.37443-.455828-.488387-.727154-.113957-.276752-.168222-.564358-.168222-.862817v-10.500317c0-.298459.054265-.586065.168222-.862817.113957-.276753.276753-.51552.488387-.727154.211635-.211634.455828-.37443.732581-.488387.276752-.113957.558931-.173649.85739-.173649zm0 0" fill="#f5f5f5" stroke="#666" transform="matrix(.719844 0 0 .719844 .359922 .359922)"/><g fill="#333"><use x="46.519937" xlink:href="#G" y="138.210102"/><use x="52.281503" xlink:href="#t" y="138.210102"/><use x="54.200619" xlink:href="#H" y="138.210102"/><use x="56.119735" xlink:href="#I" y="138.210102"/><use x="60.923852" xlink:href="#u" y="138.210102"/><use x="65.727969" xlink:href="#J" y="138.210102"/><use x="68.127919" xlink:href="#v" y="138.210102"/><use x="70.527868" xlink:href="#C" y="138.210102"/><use x="76.76605" xlink:href="#t" y="138.210102"/><use x="78.685166" xlink:href="#K" y="138.210102"/><use x="83.004232" xlink:href="#L" y="138.210102"/><use x="87.323298" xlink:href="#z" y="138.210102"/><use x="92.127415" xlink:href="#u" y="138.210102"/><use x="96.931532" xlink:href="#u" y="138.210102"/><use x="101.735648" xlink:href="#I" y="138.210102"/><use x="106.539765" xlink:href="#L" y="138.210102"/><use x="110.858831" xlink:href="#J" y="138.210102"/><use x="113.258781" xlink:href="#t" y="138.210102"/><use x="115.177897" xlink:href="#z" y="138.210102"/><use x="119.982014" xlink:href="#u" y="138.210102"/></g><path d="m10.749178 218.997342h218.498861c.211635 0 .385283.075971.531799.222487.146517.146516.222488.325591.222488.531799v23.496835c0 .206208-.075971.385283-.222488.531799-.146516.146516-.320164.217061-.531799.217061h-218.498861c-.206208 0-.385283-.070545-.531799-.217061s-.217061-.325591-.217061-.531799v-23.496835c0-.206208.070545-.385283.217061-.531799s.325591-.222487.531799-.222487zm0 0" fill="#dae8fc" fill-opacity=".302" stroke="#6c8ebf" stroke-opacity=".302" transform="matrix(.719844 0 0 .719844 .359922 .359922)"/><path d="m17.240057 232.000046h202.517758" fill="none" stroke="#b85450" stroke-miterlimit="10" stroke-width="2" transform="scale(.719844)"/><path d="m11.238325 232.000046 8.004118-3.999346-2.002386 3.999346 2.002386 3.999345zm0 0" fill="#b85450" stroke="#b85450" stroke-miterlimit="10" stroke-width="2" transform="scale(.719844)"/><path d="m225.759547 232.000046-7.998692 3.999345 1.99696-3.999345-1.99696-3.999346zm0 0" fill="#b85450" stroke="#b85450" stroke-miterlimit="10" stroke-width="2" transform="scale(.719844)"/><path d="m47.247957 224.000594h143.504344c.298458 0 .580637.054265.85739.168222.276752.113957.520946.276753.73258.488387.211635.211634.37443.455828.488387.73258.113957.276753.168222.564358.168222.862817v10.494891c0 .298459-.054265.586065-.168222.862817-.113957.276753-.276752.520946-.488387.73258-.211634.211635-.455828.369004-.73258.488387-.276753.113957-.558932.168222-.85739.168222h-143.504344c-.298459 0-.580638-.054265-.85739-.168222-.276753-.119383-.520946-.276752-.732581-.488387-.211634-.211634-.37443-.455827-.488387-.73258-.113957-.276752-.168222-.564358-.168222-.862817v-10.494891c0-.298459.054265-.586064.168222-.862817.113957-.276752.276753-.520946.488387-.73258.211635-.211634.455828-.37443.732581-.488387.276752-.113957.558931-.168222.85739-.168222zm0 0" fill="#f8cecc" stroke="#b85450" transform="matrix(.719844 0 0 .719844 .359922 .359922)"/><g><use x="62.13156" xlink:href="#x" y="170.603095"/><use x="68.369741" xlink:href="#I" y="170.603095"/><use x="73.173858" xlink:href="#J" y="170.603095"/><use x="75.573808" xlink:href="#E" y="170.603095"/><use x="78.450373" xlink:href="#M" y="170.603095"/><use x="82.769439" xlink:href="#v" y="170.603095"/><use x="85.169388" xlink:href="#D" y="170.603095"/><use x="90.930955" xlink:href="#J" y="170.603095"/><use x="93.330904" xlink:href="#J" y="170.603095"/><use x="95.730854" xlink:href="#r" y="170.603095"/><use x="100.534971" xlink:href="#L" y="170.603095"/><use x="104.854036" xlink:href="#N" y="170.603095"/></g><path d="m89.980469 194.71875v-.722656h.71875v.722656m-.71875-2.878906v-.722656h.71875v.722656m-.71875-2.878906v-.722657h.71875v.722657m-.71875-2.882813v-.71875h.71875v.71875m-.71875-2.878906v-.71875h.71875v.71875m-.71875-2.878907v-.71875h.71875v.71875"/><g><use x="174.202316" xlink:href="#Y" y="159.692957"/><use x="174.202316" xlink:href="#Z" y="154.88884"/><use x="174.202316" xlink:href="#Z" y="150.084723"/><use x="174.202316" xlink:href="#aa" y="145.280606"/></g><path d="m210.000629 198.997704v20.002156m69.996693-20.002156v20.002156m-69.996693-10.001078h69.996693" fill="#fff" stroke="#000" stroke-miterlimit="10" transform="matrix(0 .719844 -.719844 0 327.169234 -25.554471)"/><path d="m14.618287 20.001396h210.760643c.613197 0 1.204688.113957 1.769046.352724.564358.23334 1.063598.564358 1.49772.998479.434121.434122.770566.933362 1.003906 1.49772.23334.569785.352724 1.155849.352724 1.769046v144.763297c0 .60777-.119384 1.199261-.352724 1.763619-.23334.569784-.569785 1.069024-1.003906 1.503146-.434122.428695-.933362.76514-1.49772.99848s-1.155849.352724-1.769046.352724h-210.760643c-.613197 0-1.199261-.119384-1.763619-.352724-.569785-.23334-1.069025-.569785-1.503146-.99848-.434122-.434122-.76514-.933362-.99848-1.503146-.233341-.564358-.352724-1.155849-.352724-1.763619v-144.763297c0-.613197.119383-1.199261.352724-1.769046.23334-.564358.564358-1.063598.99848-1.49772.434121-.434121.933361-.765139 1.503146-.998479.564358-.238767 1.150422-.352724 1.763619-.352724zm0 0" fill="#dae8fc" fill-opacity=".302" stroke="#6c8ebf" stroke-opacity=".302" transform="matrix(.719844 0 0 .719844 .359922 .359922)"/><path d="m151.109375 2.988281c-.203125.1875-.519531.214844-.742187-.050781-.15625-.210938-.078126-.453125.050781-.578125.777343-.746094 2.007812-1.28125 3.304687-1.265625 1.503906.023438 2.585938.625 3.28125 1.273438.21875.222656.152344.503906-.035156.640624-.222656.167969-.496094.167969-.691406-.035156-.632813-.582031-1.511719-.972656-2.476563-.992187-.90625-.023438-1.886719.25-2.691406 1.007812zm1.238281 1.246094c-.207031.179687-.511718.148437-.691406-.058594-.121094-.144531-.164062-.390625.023438-.578125.496093-.496094 1.257812-.796875 2.015624-.796875.832032.015625 1.539063.34375 2.015626.839844.15625.21875.085937.441406-.066407.585937-.128906.144532-.445312.199219-.675781-.023437-.324219-.300781-.777344-.496094-1.28125-.496094-.511719 0-.992188.1875-1.339844.527344zm10.335938 12.949219h-17.996094v-11.992188h17.996094zm-7.003906.941406c.167968.179688.136718.402344.015624.546875-.511718.5625-1.304687.820313-1.980468.820313-.785156 0-1.503906-.28125-2.027344-.777344-.175781-.171875-.203125-.4375.035156-.648438.199219-.164062.460938-.136718.632813.015625.300781.289063.769531.527344 1.34375.519531.628906-.015624 1.046875-.28125 1.339843-.554687.125-.09375.417969-.171875.640626.078125zm1.296874 1.792969c-.800781.800781-2 1.316406-3.277343 1.316406-1.207031 0-2.410157-.421875-3.332031-1.324219-.105469-.113281-.207032-.378906.050781-.617187.203125-.167969.484375-.160157.671875.035156.683594.625 1.566406.992187 2.609375 1 1.203125-.019531 2.046875-.523437 2.578125-1.015625.160156-.144531.425781-.214844.671875-.007812.15625.160156.207031.40625.027343.613281zm0 0" fill="#5294cf"/><path d="m144.6875 16.460938h17.996094v.722656h-17.996094zm0 0" fill-opacity=".302"/><path d="m162.683594 13.9375h-3.03125c-.179688 0-.351563-.160156-.351563-.347656v-1.265625c-.199219-.078125-.53125-.332031-.53125-.769531 0-.453126.386719-.828126.914063-.828126.394531 0 .871094.308594.871094.828126 0 .34375-.214844.632812-.535157.769531v.929687h2.664063zm-5.597656 1.734375c-.175782 0-.355469-.152344-.355469-.339844v-3.007812c-.171875-.074219-.503907-.289063-.523438-.75-.015625-.34375.285157-.871094.921875-.847657.488282.019532.847656.386719.855469.828126-.007813.34375-.214844.640624-.53125.761718v2.679688h5.230469v.675781zm-1.238282-10.480469v2.503906h1.53125v-1.417968c0-.195313.152344-.367188.390625-.367188h3.777344c.238281 0 .390625.171875.390625.359375v3.585938c0 .148437-.152344.351562-.382812.351562h-3.792969c-.203125 0-.382813-.152343-.382813-.359375v-1.476562h-3.722656c-.121094.265625-.414062.496094-.8125.496094-.496094 0-.882812-.371094-.882812-.839844 0-.433594.367187-.828125.90625-.828125.324218 0 .660156.199219.789062.496093h1.46875v-2.503906zm-5.257812 0h.722656v5.101563l1.335938 1.261719.640624-.597657c-.089843-.230469-.097656-.585937.183594-.878906.394532-.367187.90625-.296875 1.179688-.09375.445312.324219.453125.890625.121094 1.230469-.292969.308594-.710938.324218-.972657.222656l-.640625.597656 1.136719 1.074219c.289063-.101563.664063-.082031.945313.179687.445312.429688.273437.984376-.035157 1.230469-.410156.324219-.964843.246094-1.269531-.09375-.148438-.179687-.28125-.480469-.148438-.828125l-3.109374-2.929687c-.058594-.050781-.089844-.136719-.089844-.238281zm-4.75 0h.71875v2.503906h1.253906c.160156-.324218.488281-.496093.804688-.496093.503906 0 .894531.378906.894531.835937 0 .414063-.339844.832032-.914063.832032-.246094 0-.613281-.136719-.785156-.496094h-1.253906v2.691406l2.203125 2.074219c.433593-.171875 1.023437 0 1.195312.546875.160157.578125-.292969 1.085937-.890625 1.058594-.324218-.007813-.699218-.207032-.820312-.613282-.042969-.164062-.039063-.34375.011718-.488281l-2.316406-2.1875c-.058594-.050781-.101562-.121094-.101562-.257813zm5.789062 11.269532v-2.4375l-2.75-2.578126c-.417968.136719-.820312-.019531-1.023437-.300781-.289063-.390625-.199219-.910156.230469-1.1875.402343-.246093.898437-.144531 1.171874.171875.269532.308594.226563.65625.136719.839844l2.953125 2.757812v2.734376zm-5.765625 0v-1.785157c-.238281-.089843-.527343-.371093-.527343-.753906 0-.539063.46875-.847656.878906-.847656.488281 0 .890625.351562.890625.832031 0 .324219-.191407.628906-.515625.769531v1.785157zm0 0" fill="#fff"/><path d="m12.238281 13.675781h22.574219v.722657h-22.574219zm0 0"/><g><use x="12.237353" xlink:href="#ab" y="12.957197"/><use x="17.998919" xlink:href="#ac" y="12.957197"/><use x="20.398869" xlink:href="#ad" y="12.957197"/><use x="25.202986" xlink:href="#ae" y="12.957197"/><use x="30.007103" xlink:href="#af" y="12.957197"/></g><g><use x="34.81122" xlink:href="#v" y="12.957197"/><use x="37.211169" xlink:href="#w" y="12.957197"/><use x="40.087734" xlink:href="#D" y="12.957197"/><use x="45.849301" xlink:href="#J" y="12.957197"/><use x="48.24925" xlink:href="#J" y="12.957197"/><use x="50.6492" xlink:href="#r" y="12.957197"/><use x="55.453317" xlink:href="#L" y="12.957197"/><use x="59.772382" xlink:href="#N" y="12.957197"/><use x="64.091448" xlink:href="#I" y="12.957197"/><use x="68.895565" xlink:href="#E" y="12.957197"/><use x="71.77213" xlink:href="#F" y="12.957197"/></g><g><use x="113.015552" xlink:href="#ag" y="12.957197"/><use x="120.211183" xlink:href="#ad" y="12.957197"/><use x="125.0153" xlink:href="#ah" y="12.957197"/><use x="129.819417" xlink:href="#ai" y="12.957197"/><use x="132.695982" xlink:href="#af" y="12.957197"/><use x="137.500099" xlink:href="#aj" y="12.957197"/></g><path d="m161.964844 69.824219h-4.320313v-1.4375h4.320313m-8.636719 1.4375h-4.320313v-1.4375h4.320313m-8.640625 1.4375h-4.316406v-1.4375h4.316406m-8.636719 1.4375h-4.320312v-1.4375h4.320312m-8.636719 1.4375h-4.320312v-1.4375h4.320312m-8.640624 1.4375h-4.316407v-1.4375h4.316407m-8.636719 1.4375h-4.320313v-1.4375h4.320313m-8.640625 1.4375h-4.316406v-1.4375h4.316406m-8.636719 1.4375h-4.320313v-1.4375h4.320313m-8.636719 1.4375h-4.320312v-1.4375h4.320312m-8.640625 1.4375h-4.316406v-1.4375h4.316406m-8.636719 1.4375h-4.320312v-1.4375h4.320312m-8.636718 1.4375h-4.320313v-1.4375h4.320313m-8.640625 1.4375h-.546875v-1.4375h.546875"/><path d="m62.242194 96.00058 7.998692-3.999346-2.002386 3.999346 2.002386 3.999346zm0 0" stroke="#000" stroke-miterlimit="10" stroke-width="2" transform="scale(.719844)"/><g><use x="66.225674" xlink:href="#O" y="65.50583"/><use x="71.029791" xlink:href="#P" y="65.50583"/><use x="78.225422" xlink:href="#q" y="65.50583"/><use x="83.986988" xlink:href="#Q" y="65.50583"/><use x="88.791105" xlink:href="#J" y="65.50583"/><use x="91.191055" xlink:href="#t" y="65.50583"/><use x="93.110171" xlink:href="#A" y="65.50583"/><use x="100.305802" xlink:href="#t" y="65.50583"/><use x="102.224918" xlink:href="#u" y="65.50583"/><use x="107.029035" xlink:href="#s" y="65.50583"/><use x="111.833152" xlink:href="#Q" y="65.50583"/><use x="116.637269" xlink:href="#r" y="65.50583"/><use x="121.441386" xlink:href="#L" y="65.50583"/><use x="125.760451" xlink:href="#L" y="65.50583"/><use x="130.079517" xlink:href="#Q" y="65.50583"/><use x="134.883634" xlink:href="#E" y="65.50583"/><use x="137.760199" xlink:href="#I" y="65.50583"/><use x="142.564316" xlink:href="#R" y="65.50583"/><use x="147.368433" xlink:href="#S" y="65.50583"/><use x="152.17255" xlink:href="#I" y="65.50583"/><use x="156.976667" xlink:href="#K" y="65.50583"/><use x="161.295733" xlink:href="#J" y="65.50583"/></g><path d="m86.382812 14.035156v-.71875h.71875v.71875m-.71875-2.878906v-.71875h.71875v.71875m-.71875-2.878906v-.71875h.71875v.71875m-.71875-2.878906v-.71875h.71875v.71875"/><g><use x="12.237353" xlink:href="#O" y="79.902715"/><use x="17.04147" xlink:href="#P" y="79.902715"/><use x="24.237101" xlink:href="#q" y="79.902715"/><use x="29.998667" xlink:href="#Q" y="79.902715"/><use x="34.802784" xlink:href="#J" y="79.902715"/><use x="37.202733" xlink:href="#t" y="79.902715"/><use x="39.12185" xlink:href="#A" y="79.902715"/><use x="46.31748" xlink:href="#t" y="79.902715"/><use x="48.236597" xlink:href="#u" y="79.902715"/><use x="53.040714" xlink:href="#s" y="79.902715"/><use x="57.844831" xlink:href="#Q" y="79.902715"/><use x="62.648947" xlink:href="#r" y="79.902715"/><use x="67.453064" xlink:href="#L" y="79.902715"/><use x="71.77213" xlink:href="#L" y="79.902715"/><use x="76.091196" xlink:href="#Q" y="79.902715"/><use x="80.895313" xlink:href="#E" y="79.902715"/><use x="83.771878" xlink:href="#I" y="79.902715"/><use x="88.575995" xlink:href="#K" y="79.902715"/><use x="92.895061" xlink:href="#T" y="79.902715"/><use x="97.699178" xlink:href="#z" y="79.902715"/><use x="102.503295" xlink:href="#u" y="79.902715"/><use x="107.307412" xlink:href="#K" y="79.902715"/><use x="111.626477" xlink:href="#I" y="79.902715"/></g><path d="m11.15625 104.015625 25.195312-17.273437h100.777344l25.195313 17.273437zm0 0" fill="#f5f5f5"/><path d="m14.515625 101.277344 1.78125-1.21875.40625.59375-1.78125 1.21875zm3.5625-2.441406 1.78125-1.222657.40625.59375-1.78125 1.222657zm3.5625-2.441407 1.78125-1.222656.40625.59375-1.78125 1.222656zm3.5625-2.445312 1.78125-1.21875.40625.59375-1.78125 1.21875zm3.5625-2.441407 1.78125-1.222656.40625.59375-1.78125 1.222656zm3.5625-2.441406 1.777344-1.222656.410156.59375-1.78125 1.222656zm3.558594-2.445312.355469-.238282h1.953124v.71875h-1.84375v-.359374l.203126.296874-.257813.175782zm4.46875-.238282h2.160156v.71875h-2.160156zm4.320312 0h2.160157v.71875h-2.160157zm4.316407 0h2.160156v.71875h-2.160156zm4.320312 0h2.160156v.71875h-2.160156zm4.320312 0h2.160157v.71875h-2.160157zm4.316407 0h2.160156v.71875h-2.160156zm4.320312 0h2.160157v.71875h-2.160157zm4.320313 0h2.160156v.71875h-2.160156zm4.320312 0h2.15625v.71875h-2.15625zm4.316406 0h2.160157v.71875h-2.160157zm4.320313 0h2.160156v.71875h-2.160156zm4.320313 0h2.15625v.71875h-2.15625zm4.316406 0h2.160156v.71875h-2.160156zm4.320312 0h2.160156v.71875h-2.160156zm4.320313 0h2.15625v.71875h-2.15625zm4.316406 0h2.160156v.71875h-2.160156zm4.320313 0h2.160156v.71875h-2.160156zm4.320312 0h2.15625v.71875h-2.15625zm4.316406 0h2.160156v.71875h-2.160156zm4.320313 0h2.160156v.71875h-2.160156zm4.320312 0h2.160157v.71875h-2.160157zm4.316407 0h2.160156v.71875h-2.160156zm4.320312 0h1.867188l.425781.289063-.40625.59375-.335938-.226563.203125-.296874v.359374h-1.753906zm4.074219 1.511719 1.78125 1.222657-.40625.59375-1.78125-1.222657zm3.5625 2.441407 1.78125 1.222656-.410157.59375-1.78125-1.222656zm3.5625 2.445312 1.78125 1.21875-.410157.59375-1.78125-1.21875zm3.558593 2.441406 1.78125 1.21875-.40625.59375-1.78125-1.21875zm3.5625 2.441406 1.78125 1.222657-.40625.59375-1.78125-1.222657zm3.5625 2.441407 1.78125 1.222656-.40625.59375-1.78125-1.222656zm3.5625 2.445312 2.664063 1.828125h-1.25v-.722656h.089844v.359375l-.203125.296875-1.707032-1.167969zm-.742187 1.828125h-2.160156v-.722656h2.160156zm-4.320313 0h-2.160156v-.722656h2.160156zm-4.320312 0h-2.160156v-.722656h2.160156zm-4.316406 0h-2.160156v-.722656h2.160156zm-4.320313 0h-2.160156v-.722656h2.160156zm-4.320312 0h-2.160157v-.722656h2.160157zm-4.320313 0h-2.15625v-.722656h2.15625zm-4.316406 0h-2.160156v-.722656h2.160156zm-4.320312 0h-2.160157v-.722656h2.160157zm-4.320313 0h-2.15625v-.722656h2.15625zm-4.316406 0h-2.160157v-.722656h2.160157zm-4.320313 0h-2.160156v-.722656h2.160156zm-4.320312 0h-2.15625v-.722656h2.15625zm-4.316406 0h-2.160157v-.722656h2.160157zm-4.320313 0h-2.160156v-.722656h2.160156zm-4.320313 0h-2.160156v-.722656h2.160156zm-4.316406 0h-2.160156v-.722656h2.160156zm-4.320312 0h-2.160156v-.722656h2.160156zm-4.320313 0h-2.160156v-.722656h2.160156zm-4.316406 0h-2.160156v-.722656h2.160156zm-4.320313 0h-2.160156v-.722656h2.160156zm-4.320312 0h-2.160156v-.722656h2.160156zm-4.316406 0h-2.160156v-.722656h2.160156zm-4.320313 0h-2.160156v-.722656h2.160156zm-4.320312 0h-2.160157v-.722656h2.160157zm-4.316407 0h-2.160156v-.722656h2.160156zm-4.320312 0h-2.160156v-.722656h2.160156zm-4.320312 0h-2.160157v-.722656h2.160157zm-4.320313 0h-2.15625v-.722656h2.15625zm-4.316406 0h-2.160157v-.722656h2.160157zm-4.320313 0h-2.160156v-.722656h2.160156zm-4.320312 0h-2.15625v-.722656h2.15625zm-4.316406 0h-2.160157v-.722656h2.160157zm-4.320313 0h-2.160156v-.722656h2.160156zm-4.320313 0h-3.230468l2.738281-1.878906.40625.59375-1.78125 1.21875-.203125-.296875v-.359375h2.070312zm0 0" fill="#666"/><path d="m14.998904 118.998176h156.761334" fill="none" stroke="#b85450" stroke-miterlimit="10" stroke-width="2" transform="scale(.719844)"/><path d="m177.76197 118.998176-8.004118 3.999345 2.002386-3.999345-2.002386-3.999346zm0 0" fill="#b85450" stroke="#b85450" stroke-miterlimit="10" stroke-width="2" transform="scale(.719844)"/><g fill="#c00"><use x="131.011659" xlink:href="#l" y="84.941625"/><use x="137.008018" xlink:href="#m" y="84.941625"/><use x="141.405114" xlink:href="#n" y="84.941625"/><use x="143.802252" xlink:href="#e" y="84.941625"/><use x="147.805683" xlink:href="#n" y="84.941625"/><use x="150.20282" xlink:href="#o" y="84.941625"/><use x="154.206251" xlink:href="#p" y="84.941625"/></g><g><use x="12.237353" xlink:href="#O" y="23.754861"/><use x="17.04147" xlink:href="#P" y="23.754861"/><use x="24.237101" xlink:href="#q" y="23.754861"/><use x="29.998667" xlink:href="#Q" y="23.754861"/><use x="34.802784" xlink:href="#K" y="23.754861"/><use x="39.12185" xlink:href="#I" y="23.754861"/><use x="43.925967" xlink:href="#J" y="23.754861"/><use x="46.325916" xlink:href="#S" y="23.754861"/><use x="51.130033" xlink:href="#T" y="23.754861"/><use x="55.93415" xlink:href="#Q" y="23.754861"/><use x="60.738267" xlink:href="#L" y="23.754861"/><use x="65.057333" xlink:href="#z" y="23.754861"/><use x="69.86145" xlink:href="#A" y="23.754861"/><use x="77.057081" xlink:href="#T" y="23.754861"/><use x="81.861198" xlink:href="#H" y="23.754861"/><use x="83.780314" xlink:href="#I" y="23.754861"/><use x="88.584431" xlink:href="#J" y="23.754861"/><use x="90.98438" xlink:href="#I" y="23.754861"/></g><path d="m14.998904 36.998019h141.76243" fill="none" stroke="#000" stroke-miterlimit="10" stroke-width="2" transform="scale(.719844)"/><path d="m162.75764 36.998019-7.998692 3.999346 2.002386-3.999346-2.002386-3.999346zm0 0" stroke="#000" stroke-miterlimit="10" stroke-width="2" transform="scale(.719844)"/><g><use x="27.702757" xlink:href="#B" y="113.735397"/><use x="33.464323" xlink:href="#r" y="113.735397"/><use x="38.26844" xlink:href="#K" y="113.735397"/><use x="42.587506" xlink:href="#I" y="113.735397"/><use x="47.391623" xlink:href="#U" y="113.735397"/><use x="52.19574" xlink:href="#r" y="113.735397"/><use x="56.999857" xlink:href="#u" y="113.735397"/><use x="61.803974" xlink:href="#y" y="113.735397"/></g><use x="66.608091" xlink:href="#v" y="113.735397"/><g><use x="32.989114" xlink:href="#V" y="123.813217"/><use x="39.227296" xlink:href="#I" y="123.813217"/><use x="44.031413" xlink:href="#r" y="123.813217"/><use x="48.83553" xlink:href="#y" y="123.813217"/><use x="53.639646" xlink:href="#I" y="123.813217"/><use x="58.443763" xlink:href="#E" y="123.813217"/></g><path d="m154.997715 53.657438 65.764006.303885" fill="none" stroke="#d6b656" stroke-miterlimit="10" stroke-width="2" transform="scale(.719844)"/><path d="m226.758026 53.988456-8.009544 3.96136 2.013239-3.988493-1.98068-4.010199zm0 0" fill="#d6b656" stroke="#d6b656" stroke-miterlimit="10" stroke-width="2" transform="scale(.719844)"/><path d="m87.252269 45.999857h65.498106c.298459 0 .586064.059692.862817.173649.271326.113957.515519.276752.727154.48296.211634.211634.37443.455828.488387.73258.113957.276753.173648.564359.173648.862817v10.500318c0 .298459-.059691.580638-.173648.85739-.113957.276753-.276753.520946-.488387.732581-.211635.211634-.455828.37443-.727154.488387-.276753.113957-.564358.168222-.862817.168222h-65.498106c-.298459 0-.586065-.054265-.862817-.168222-.276753-.113957-.520946-.276753-.732581-.488387-.206207-.211635-.369003-.455828-.48296-.732581-.119383-.276752-.173649-.558931-.173649-.85739v-10.500318c0-.298458.054266-.586064.173649-.862817.113957-.276752.276753-.520946.48296-.73258.211635-.206208.455828-.369003.732581-.48296.276752-.113957.564358-.173649.862817-.173649zm0 0" fill="#fff2cc" stroke="#d6b656" transform="matrix(.719844 0 0 .719844 .359922 .359922)"/><g><use x="63.571248" xlink:href="#x" y="42.470813"/><use x="69.80943" xlink:href="#z" y="42.470813"/><use x="74.613547" xlink:href="#H" y="42.470813"/><use x="76.532663" xlink:href="#I" y="42.470813"/><use x="81.33678" xlink:href="#v" y="42.470813"/><use x="83.73673" xlink:href="#G" y="42.470813"/><use x="89.498296" xlink:href="#W" y="42.470813"/><use x="95.736478" xlink:href="#t" y="42.470813"/><use x="97.655594" xlink:href="#J" y="42.470813"/><use x="100.055543" xlink:href="#L" y="42.470813"/><use x="104.374609" xlink:href="#X" y="42.470813"/></g><path d="m18.238537 53.961323 66.762485-.303885" fill="none" stroke="#d6b656" stroke-miterlimit="10" stroke-width="2" transform="scale(.719844)"/><path d="m12.242231 53.988456 7.976986-4.037332-1.98068 4.010199 2.013239 3.988493zm0 0" fill="#d6b656" stroke="#d6b656" stroke-miterlimit="10" stroke-width="2" transform="scale(.719844)"/><path d="m199.999092 127.001534h14.998904l5.003252 4.997825v10.001078h-14.998904l-5.003252-4.997825zm0 0" fill="#cce5ff" stroke="#36393d" stroke-miterlimit="10" transform="matrix(.719844 0 0 .719844 .359922 .359922)"/><path d="m144.328125 91.78125h10.796875l3.601562 3.597656h-10.796874zm0 0" fill-opacity=".051"/><path d="m144.328125 91.78125 3.601563 3.597656v7.199219l-3.601563-3.597656zm0 0" fill-opacity=".102"/><path d="m205.002344 142.000437v-10.001078l-5.003252-4.997825m5.003252 4.997825h14.998904" fill="none" stroke="#36393d" stroke-miterlimit="10" transform="matrix(.719844 0 0 .719844 .359922 .359922)"/><g><use x="148.962776" xlink:href="#ak" y="99.338511"/><use x="150.562742" xlink:href="#ak" y="99.338511"/><use x="152.162709" xlink:href="#ak" y="99.338511"/><use x="153.762675" xlink:href="#ak" y="99.338511"/><use x="155.362642" xlink:href="#ak" y="99.338511"/></g><path d="m155.002381 127.001534h44.996711l5.003252 4.997825v10.001078h-45.002137l-4.997826-4.997825zm0 0" fill="#cce5ff" stroke="#36393d" stroke-miterlimit="10" transform="matrix(.719844 0 0 .719844 .359922 .359922)"/><path d="m111.9375 91.78125h32.390625l3.601563 3.597656h-32.394532zm0 0" fill-opacity=".051"/><path d="m111.9375 91.78125 3.597656 3.597656v7.199219l-3.597656-3.597656zm0 0" fill-opacity=".102"/><path d="m160.000207 142.000437v-10.001078l-4.997826-4.997825m4.997826 4.997825h45.002137" fill="none" stroke="#36393d" stroke-miterlimit="10" transform="matrix(.719844 0 0 .719844 .359922 .359922)"/><g fill="#c00"><use x="116.40107" xlink:href="#al" y="100.778199"/><use x="120.880413" xlink:href="#am" y="100.778199"/><use x="124.083158" xlink:href="#an" y="100.778199"/><use x="126.962535" xlink:href="#ao" y="100.778199"/><use x="130.16528" xlink:href="#ap" y="100.778199"/><use x="133.368025" xlink:href="#aq" y="100.778199"/><use x="136.570769" xlink:href="#ar" y="100.778199"/><use x="139.933792" xlink:href="#as" y="100.778199"/><use x="143.136536" xlink:href="#at" y="100.778199"/></g><path d="m138.001091 127.001534h17.00129l4.997826 4.997825v10.001078h-17.00129l-4.997826-4.997825zm0 0" fill="#cce5ff" stroke="#36393d" stroke-miterlimit="10" transform="matrix(.719844 0 0 .719844 .359922 .359922)"/><path d="m99.699219 91.78125h12.238281l3.597656 3.597656h-12.238281zm0 0" fill-opacity=".051"/><path d="m99.699219 91.78125 3.597656 3.597656v7.199219l-3.597656-3.597656zm0 0" fill-opacity=".102"/><path d="m142.998917 142.000437v-10.001078l-4.997826-4.997825m4.997826 4.997825h17.00129" fill="none" stroke="#36393d" stroke-miterlimit="10" transform="matrix(.719844 0 0 .719844 .359922 .359922)"/><g><use x="104.411164" xlink:href="#au" y="100.778199"/><use x="107.92884" xlink:href="#av" y="100.778199"/><use x="109.528807" xlink:href="#aw" y="100.778199"/></g><path d="m88.001128 127.001534h49.999963l4.997826 4.997825v10.001078h-49.999963l-4.997826-4.997825zm0 0" fill="#fc9" stroke="#36393d" stroke-miterlimit="10" transform="matrix(.719844 0 0 .719844 .359922 .359922)"/><path d="m63.707031 91.78125h35.992188l3.597656 3.597656h-35.992187zm0 0" fill-opacity=".051"/><path d="m63.707031 91.78125 3.597657 3.597656v7.199219l-3.597657-3.597656zm0 0" fill-opacity=".102"/><path d="m92.998954 142.000437v-10.001078l-4.997826-4.997825m4.997826 4.997825h49.999963" fill="none" stroke="#36393d" stroke-miterlimit="10" transform="matrix(.719844 0 0 .719844 .359922 .359922)"/><g><use x="69.093804" xlink:href="#ax" y="101.498044"/><use x="72.934848" xlink:href="#ay" y="101.498044"/><use x="77.093635" xlink:href="#az" y="101.498044"/><use x="80.29638" xlink:href="#aA" y="101.498044"/><use x="81.896347" xlink:href="#aB" y="101.498044"/><use x="86.055134" xlink:href="#aq" y="101.498044"/><use x="89.257879" xlink:href="#aC" y="101.498044"/><use x="92.460624" xlink:href="#ap" y="101.498044"/><use x="95.663368" xlink:href="#aq" y="101.498044"/><use x="98.866113" xlink:href="#aD" y="101.498044"/></g><path d="m48.002243 127.001534h39.998885l4.997826 4.997825v10.001078h-39.998885l-4.997826-4.997825zm0 0" fill="#eee" stroke="#36393d" stroke-miterlimit="10" transform="matrix(.719844 0 0 .719844 .359922 .359922)"/><path d="m34.914062 91.78125h28.792969l3.597657 3.597656h-28.792969zm0 0" fill-opacity=".051"/><path d="m34.914062 91.78125 3.597657 3.597656v7.199219l-3.597657-3.597656zm0 0" fill-opacity=".102"/><path d="m53.000069 142.000437v-10.001078l-4.997826-4.997825m4.997826 4.997825h39.998885" fill="none" stroke="#36393d" stroke-miterlimit="10" transform="matrix(.719844 0 0 .719844 .359922 .359922)"/><use fill="#c00" x="40.142566" xlink:href="#au" y="100.778199"/><g fill="#c00"><use x="43.342499" xlink:href="#aE" y="100.778199"/><use x="46.221876" xlink:href="#am" y="100.778199"/><use x="49.424621" xlink:href="#aq" y="100.778199"/><use x="52.627366" xlink:href="#ar" y="100.778199"/><use x="55.990388" xlink:href="#aF" y="100.778199"/><use x="59.193133" xlink:href="#aG" y="100.778199"/><use x="62.07251" xlink:href="#an" y="100.778199"/></g><path d="m32.997913 127.001534h15.00433l4.997826 4.997825v10.001078h-14.998904l-5.003252-4.997825zm0 0" fill="#eee" stroke="#36393d" stroke-miterlimit="10" transform="matrix(.719844 0 0 .719844 .359922 .359922)"/><path d="m24.113281 91.78125h10.800781l3.597657 3.597656h-10.796875zm0 0" fill-opacity=".051"/><path d="m24.113281 91.78125 3.601563 3.597656v7.199219l-3.601563-3.597656zm0 0" fill-opacity=".102"/><path d="m38.001165 142.000437v-10.001078l-5.003252-4.997825m5.003252 4.997825h14.998904" fill="none" stroke="#36393d" stroke-miterlimit="10" transform="matrix(.719844 0 0 .719844 .359922 .359922)"/><g><use x="28.748781" xlink:href="#ak" y="99.338511"/><use x="30.348747" xlink:href="#ak" y="99.338511"/><use x="31.948714" xlink:href="#ak" y="99.338511"/><use x="33.54868" xlink:href="#ak" y="99.338511"/><use x="35.148647" xlink:href="#ak" y="99.338511"/></g><path d="m86.382812 57.226562v-.71875h.71875v.71875m-.71875-2.878906v-.71875h.71875v.71875m-.71875-2.878906v-.71875h.71875v.71875m-.71875-2.878906v-.71875h.71875v.71875"/><g><use x="121.046315" xlink:href="#O" y="113.015552"/><use x="125.850432" xlink:href="#P" y="113.015552"/><use x="133.046063" xlink:href="#q" y="113.015552"/></g></svg>