<svg height="142.080002pt" viewBox="0 0 165.119995 142.080002" width="165.119995pt" xmlns="http://www.w3.org/2000/svg" xmlns:xlink="http://www.w3.org/1999/xlink"><clipPath id="a"><path d="m0 0h165v141.941406h-165zm0 0"/></clipPath><clipPath id="b"><path d="m0 11h165v129.503906h-165zm0 0"/></clipPath><clipPath id="c"><path d="m129 86h36v48h-36zm0 0"/></clipPath><symbol id="d" overflow="visible"><path d="m.640625 0v-6.1875h1.234375l1.46875 4.375c.132812.417969.226562.726562.28125.921875.070312-.226563.1875-.554687.34375-.984375l1.46875-4.3125h1.109375v6.1875h-.796875v-5.171875l-1.796875 5.171875h-.734375l-1.78125-5.265625v5.265625zm0 0"/></symbol><symbol id="e" overflow="visible"><path d="m3.5-.546875c-.28125.242187-.554688.40625-.8125.5-.261719.09375-.542969.140625-.84375.140625-.492188 0-.871094-.1171875-1.140625-.359375-.261719-.238281-.390625-.546875-.390625-.921875 0-.21875.046875-.414062.140625-.59375.101563-.175781.234375-.320312.390625-.4375.164062-.113281.351562-.195312.5625-.25.144531-.039062.367188-.078125.671875-.109375.613281-.070313 1.066406-.160156 1.359375-.265625 0-.101562 0-.171875 0-.203125 0-.300781-.074219-.519531-.21875-.65625-.199219-.164063-.484375-.25-.859375-.25-.367187 0-.632813.0625-.796875.1875-.167969.125-.292969.351563-.375.671875l-.75-.109375c.070312-.3125.1875-.566406.34375-.765625.15625-.195312.378906-.347656.671875-.453125.289063-.101563.628906-.15625 1.015625-.15625.375 0 .679688.046875.921875.140625.238281.085938.414063.195312.53125.328125.113281.136719.191406.308594.234375.515625.03125.136719.046875.371094.046875.703125v1.015625c0 .710938.015625 1.15625.046875 1.34375s.09375.367188.1875.53125h-.796875c-.074219-.15625-.121094-.335938-.140625-.546875zm-.0625-1.703125c-.28125.117188-.699219.210938-1.25.28125-.3125.054688-.539062.109375-.671875.171875-.125.054687-.226563.132813-.296875.234375-.0625.105469-.09375.226562-.09375.359375 0 .199219.070312.367187.21875.5.15625.136719.382812.203125.6875.203125.289062 0 .546875-.0625.765625-.1875.226563-.125.398437-.296875.515625-.515625.082031-.175781.125-.429687.125-.765625zm0 0"/></symbol><symbol id="f" overflow="visible"><path d="m.265625-1.34375.75-.109375c.039063.304687.15625.539063.34375.703125.195313.15625.46875.234375.8125.234375.351563 0 .613281-.070313.78125-.21875.164063-.144531.25-.3125.25-.5 0-.175781-.074219-.3125-.21875-.40625-.105469-.070313-.367187-.160156-.78125-.265625-.554687-.132812-.9375-.253906-1.15625-.359375-.21875-.101563-.386719-.242187-.5-.421875-.105469-.1875-.15625-.390625-.15625-.609375 0-.195313.046875-.378906.140625-.546875.09375-.164062.21875-.304688.375-.421875.113281-.09375.269531-.164063.46875-.21875.207031-.0625.429688-.09375.671875-.09375.34375 0 .644531.054687.90625.15625.269531.09375.46875.230469.59375.40625.132813.167969.222656.398437.265625.6875l-.734375.109375c-.03125-.226562-.132813-.40625-.296875-.53125-.15625-.132812-.386719-.203125-.6875-.203125-.34375 0-.59375.058594-.75.171875-.148438.117188-.21875.25-.21875.40625 0 .09375.03125.183594.09375.265625.0625.085937.160156.152344.296875.203125.070313.023438.296875.085938.671875.1875.53125.148438.898438.265625 1.109375.359375.21875.085937.382813.214844.5.390625.125.179688.1875.398438.1875.65625 0 .25-.074219.492188-.21875.71875-.148437.21875-.359375.390625-.640625.515625-.28125.1132812-.59375.171875-.9375.171875-.585938 0-1.03125-.1171875-1.34375-.359375-.304688-.238281-.496094-.597656-.578125-1.078125zm0 0"/></symbol><symbol id="g" overflow="visible"><path d="m2.234375-.671875.109375.65625c-.21875.0507812-.414062.078125-.578125.078125-.28125 0-.5-.0429688-.65625-.125-.148437-.09375-.25-.207031-.3125-.34375-.0625-.144531-.09375-.445312-.09375-.90625v-2.578125h-.546875v-.59375h.546875v-1.109375l.765625-.453125v1.5625h.765625v.59375h-.765625v2.625c0 .21875.007812.359375.03125.421875.03125.054688.070312.101562.125.140625.0625.03125.148438.046875.265625.046875.082031 0 .195313-.003906.34375-.015625zm0 0"/></symbol><symbol id="h" overflow="visible"><path d="m3.640625-1.4375.78125.09375c-.125.460938-.355469.8125-.6875 1.0625-.335937.25-.761719.375-1.28125.375-.65625 0-1.179687-.195312-1.5625-.59375-.386719-.40625-.578125-.972656-.578125-1.703125 0-.75.191406-1.332031.578125-1.75.394531-.414063.898437-.625 1.515625-.625.601562 0 1.09375.203125 1.46875.609375.382812.40625.578125.980469.578125 1.71875 0 .042969-.007813.109375-.015625.203125h-3.34375c.03125.492187.171875.871094.421875 1.140625.25.261719.5625.390625.9375.390625.28125 0 .519531-.070313.71875-.21875.195313-.15625.351563-.390625.46875-.703125zm-2.5-1.234375h2.5c-.03125-.375-.125-.65625-.28125-.84375-.242187-.289063-.554687-.4375-.9375-.4375-.355469 0-.652344.121094-.890625.359375-.230469.230469-.359375.539062-.390625.921875zm0 0"/></symbol><symbol id="i" overflow="visible"><path d="m.5625 0v-4.484375h.6875v.6875c.164062-.320313.320312-.53125.46875-.625.15625-.101563.320312-.15625.5-.15625.25 0 .507812.078125.78125.234375l-.265625.71875c-.1875-.113281-.375-.171875-.5625-.171875-.167969 0-.320313.054687-.453125.15625-.125.09375-.214844.230469-.265625.40625-.085937.273437-.125.570313-.125.890625v2.34375zm0 0"/></symbol><symbol id="j" overflow="visible"/><symbol id="k" overflow="visible"><path d="m2.015625 1.8125c-.417969-.523438-.773437-1.136719-1.0625-1.84375-.292969-.707031-.4375-1.441406-.4375-2.203125 0-.675781.109375-1.320313.328125-1.9375.257812-.707031.648438-1.414063 1.171875-2.125h.546875c-.34375.59375-.570312 1.015625-.671875 1.265625-.179687.386719-.3125.789062-.40625 1.203125-.125.53125-.1875 1.0625-.1875 1.59375 0 1.355469.421875 2.703125 1.265625 4.046875zm0 0"/></symbol><symbol id="l" overflow="visible"><path d="m-.015625 0 2.375-6.1875h.890625l2.53125 6.1875h-.9375l-.71875-1.875h-2.59375l-.671875 1.875zm1.78125-2.546875h2.109375l-.65625-1.703125c-.199219-.519531-.34375-.945312-.4375-1.28125-.074219.398438-.183594.789062-.328125 1.171875zm0 0"/></symbol><symbol id="m" overflow="visible"><path d="m3.5-1.640625.734375.09375c-.074219.523437-.28125.929687-.625 1.21875-.335937.28125-.746094.421875-1.234375.421875-.617188 0-1.109375-.195312-1.484375-.59375-.367187-.394531-.546875-.96875-.546875-1.71875 0-.488281.078125-.910156.234375-1.265625.15625-.363281.394531-.632813.71875-.8125.332031-.1875.691406-.28125 1.078125-.28125.488281 0 .882812.125 1.1875.375.3125.242187.515625.585937.609375 1.03125l-.734375.125c-.074219-.300781-.203125-.523437-.390625-.671875-.179687-.15625-.390625-.234375-.640625-.234375-.386719 0-.699219.136719-.9375.40625-.230469.273437-.34375.703125-.34375 1.296875 0 .605469.113281 1.046875.34375 1.328125.226562.273437.523438.40625.890625.40625.300781 0 .550781-.09375.75-.28125.195313-.1875.328125-.46875.390625-.84375zm0 0"/></symbol><symbol id="n" overflow="visible"><path d="m.578125 0v-6.1875h.75v3.53125l1.796875-1.828125h.984375l-1.703125 1.671875 1.875 2.8125h-.9375l-1.46875-2.296875-.546875.515625v1.78125zm0 0"/></symbol><symbol id="o" overflow="visible"><path d="m1.0625 1.8125h-.546875c.84375-1.34375 1.265625-2.691406 1.265625-4.046875 0-.53125-.058594-1.054687-.171875-1.578125-.105469-.414062-.242187-.820312-.40625-1.21875-.117187-.25-.34375-.671875-.6875-1.265625h.546875c.53125.710937.921875 1.417969 1.171875 2.125.21875.617187.328125 1.261719.328125 1.9375 0 .761719-.148438 1.496094-.4375 2.203125-.292969.707031-.648438 1.320312-1.0625 1.84375zm0 0"/></symbol><symbol id="p" overflow="visible"><path d="m.390625-1.984375.765625-.0625c.039062.304687.125.554687.25.75.132812.199219.34375.359375.625.484375s.597656.1875.953125.1875c.3125 0 .585937-.046875.828125-.140625.238281-.09375.414062-.21875.53125-.375.113281-.164063.171875-.34375.171875-.53125 0-.195313-.058594-.367187-.171875-.515625-.105469-.144531-.289062-.265625-.546875-.359375-.167969-.070313-.539063-.175781-1.109375-.3125-.5625-.132813-.960938-.257813-1.1875-.375-.292969-.15625-.511719-.347656-.65625-.578125-.148438-.226562-.21875-.488281-.21875-.78125 0-.300781.085938-.585938.265625-.859375.175781-.28125.429687-.488281.765625-.625.34375-.144531.722656-.21875 1.140625-.21875.457031 0 .863281.078125 1.21875.234375.351563.148438.625.367188.8125.65625.1875.28125.285156.605469.296875.96875l-.78125.046875c-.042969-.382813-.1875-.675781-.4375-.875-.242188-.195313-.601562-.296875-1.078125-.296875-.492187 0-.851563.089844-1.078125.265625-.230469.179687-.34375.398437-.34375.65625 0 .21875.082031.402344.25.546875.15625.148438.566406.296875 1.234375.453125.664063.148437 1.117187.277344 1.359375.390625.363281.15625.628906.367188.796875.625.175781.25.265625.542969.265625.875 0 .335938-.09375.648438-.28125.9375-.1875.292969-.460938.523438-.8125.6875-.355469.15625-.75.234375-1.1875.234375-.5625 0-1.039062-.0859375-1.421875-.25-.375-.164063-.671875-.410156-.890625-.734375-.210938-.320312-.320312-.691406-.328125-1.109375zm0 0"/></symbol><symbol id="q" overflow="visible"><path d="m.546875 0v-6.1875h.765625v6.1875zm0 0"/></symbol><symbol id="r" overflow="visible"><path d="m1.8125 0-1.703125-4.484375h.796875l.96875 2.6875c.101562.292969.195312.59375.28125.90625.070312-.238281.164062-.523437.28125-.859375l1-2.734375h.78125l-1.703125 4.484375zm0 0"/></symbol><symbol id="s" overflow="visible"><path d="m.640625 0v-6.1875h.8125v5.453125h3.046875v.734375zm0 0"/></symbol><symbol id="t" overflow="visible"><path d="m.671875 0v-6.1875h2.328125c.40625 0 .71875.023438.9375.0625.300781.054688.554688.152344.765625.296875.207031.136719.375.335937.5.59375.125.25.1875.53125.1875.84375 0 .523437-.167969.964844-.5 1.328125-.335937.367188-.9375.546875-1.8125.546875h-1.59375v2.515625zm.8125-3.25h1.59375c.53125 0 .90625-.09375 1.125-.28125.226563-.195312.34375-.476562.34375-.84375 0-.257812-.070313-.476562-.203125-.65625-.125-.1875-.296875-.3125-.515625-.375-.136719-.03125-.390625-.046875-.765625-.046875h-1.578125zm0 0"/></symbol><symbol id="u" overflow="visible"><path d="m-.125 1.71875v-.546875h5.03125v.546875zm0 0"/></symbol><symbol id="v" overflow="visible"><path d="m.75 0v-3.890625h-.671875v-.59375h.671875v-.46875c0-.300781.023438-.523437.078125-.671875.070313-.195312.203125-.359375.390625-.484375s.441406-.1875.765625-.1875c.21875 0 .457031.027344.71875.078125l-.109375.671875c-.167969-.03125-.320312-.046875-.453125-.046875-.230469 0-.398437.054688-.5.15625-.09375.09375-.140625.277344-.140625.546875v.40625h.875v.59375h-.875v3.890625zm0 0"/></symbol><symbol id="w" overflow="visible"><path d="m3.5 0v-.65625c-.34375.5-.820312.75-1.421875.75-.261719 0-.507813-.046875-.734375-.140625-.230469-.101563-.402344-.226563-.515625-.375-.105469-.15625-.183594-.347656-.234375-.578125-.03125-.144531-.046875-.378906-.046875-.703125v-2.78125h.765625v2.484375c0 .398438.015625.667969.046875.8125.050781.199219.148437.355469.296875.46875.15625.117188.347656.171875.578125.171875.226563 0 .441406-.054687.640625-.171875.195312-.125.335938-.285156.421875-.484375.082031-.195313.125-.488281.125-.875v-2.40625h.765625v4.484375zm0 0"/></symbol><symbol id="x" overflow="visible"><path d="m.0625 0 1.640625-2.328125-1.515625-2.15625h.953125l.6875 1.046875c.125.210938.226563.382812.3125.515625.125-.1875.238281-.351563.34375-.5l.75-1.0625h.90625l-1.546875 2.109375 1.65625 2.375h-.921875l-.921875-1.390625-.25-.375-1.171875 1.765625zm0 0"/></symbol><symbol id="y" overflow="visible"><path d="m3.421875 1.71875v-2.203125c-.117187.167969-.28125.308594-.5.421875-.210937.1015625-.433594.15625-.671875.15625-.53125 0-.992188-.207031-1.375-.625-.386719-.425781-.578125-1.007812-.578125-1.75 0-.445312.078125-.847656.234375-1.203125.15625-.363281.378906-.632813.671875-.8125.300781-.1875.628906-.28125.984375-.28125.5625 0 1 .234375 1.3125.703125v-.609375h.6875v6.203125zm-2.34375-3.96875c0 .574219.117187 1.007812.359375 1.296875.25.292969.539062.4375.875.4375.320312 0 .597656-.132813.828125-.40625.238281-.28125.359375-.703125.359375-1.265625 0-.59375-.125-1.039062-.375-1.34375-.242188-.300781-.527344-.453125-.859375-.453125-.335937 0-.617187.140625-.84375.421875-.230469.28125-.34375.71875-.34375 1.3125zm0 0"/></symbol><symbol id="z" overflow="visible"><path d="m.8125 0v-6.1875h.8125v6.1875zm0 0"/></symbol><symbol id="A" overflow="visible"><path d="m.421875-3.015625c0-1.019531.273437-1.820313.828125-2.40625.550781-.582031 1.257812-.875 2.125-.875.570312 0 1.085938.140625 1.546875.421875.457031.273438.804687.652344 1.046875 1.140625.238281.480469.359375 1.03125.359375 1.65625s-.125 1.1875-.375 1.6875c-.25.492187-.609375.867187-1.078125 1.125-.460938.25-.960938.375-1.5.375-.585938 0-1.105469-.140625-1.5625-.421875-.460938-.28125-.808594-.664062-1.046875-1.15625-.230469-.488281-.34375-1.003906-.34375-1.546875zm.84375.015625c0 .75.195313 1.339844.59375 1.765625.40625.429687.910156.640625 1.515625.640625.613281 0 1.117188-.210938 1.515625-.640625.394531-.4375.59375-1.054687.59375-1.859375 0-.5-.085937-.9375-.25-1.3125-.167969-.375-.417969-.664062-.75-.875-.324219-.207031-.6875-.3125-1.09375-.3125-.585937 0-1.085937.203125-1.5.609375-.417969.398437-.625 1.058594-.625 1.984375zm0 0"/></symbol><symbol id="B" overflow="visible"><path d="m5.078125-2.171875.8125.203125c-.167969.679688-.476563 1.195312-.921875 1.546875-.449219.3554688-.992188.53125-1.625.53125-.667969 0-1.214844-.1328125-1.640625-.40625-.417969-.269531-.734375-.660156-.953125-1.171875-.210938-.519531-.3125-1.078125-.3125-1.671875 0-.644531.117188-1.207031.359375-1.6875.25-.476563.597656-.84375 1.046875-1.09375.457031-.25.957031-.375 1.5-.375.625 0 1.144531.164063 1.5625.484375.425781.3125.722656.757812.890625 1.328125l-.8125.1875c-.148437-.445313-.355469-.773437-.625-.984375-.273437-.207031-.617187-.3125-1.03125-.3125-.46875 0-.867187.117188-1.1875.34375-.324219.230469-.546875.539062-.671875.921875-.125.386719-.1875.78125-.1875 1.1875 0 .523437.070312.980469.21875 1.375.15625.398437.394531.695313.71875.890625.320312.1875.671875.28125 1.046875.28125.457031 0 .84375-.128906 1.15625-.390625.320313-.269531.539063-.664063.65625-1.1875zm0 0"/></symbol><symbol id="C" overflow="visible"><path d="m.5625 1.71875v-6.203125h.703125v.59375c.15625-.226563.335937-.398437.546875-.515625.207031-.113281.457031-.171875.75-.171875.382812 0 .722656.101563 1.015625.296875.289063.199219.507813.476562.65625.828125.144531.355469.21875.746094.21875 1.171875 0 .460938-.085937.875-.25 1.25-.15625.367188-.390625.648438-.703125.84375-.3125.1875-.648438.28125-1 .28125-.25 0-.480469-.0546875-.6875-.15625-.199219-.101562-.359375-.238281-.484375-.40625v2.1875zm.6875-3.9375c0 .585938.113281 1.015625.34375 1.296875.238281.273437.523438.40625.859375.40625.34375 0 .632813-.140625.875-.421875.238281-.289062.359375-.738281.359375-1.34375 0-.570312-.121094-1-.359375-1.28125-.230469-.28125-.511719-.421875-.84375-.421875-.324219 0-.609375.152344-.859375.453125-.25.304688-.375.742188-.375 1.3125zm0 0"/></symbol><symbol id="D" overflow="visible"><path d="m1.265625 0h-.703125v-6.1875h.765625v2.203125c.320313-.394531.726563-.59375 1.21875-.59375.28125 0 .539063.058594.78125.171875.25.105469.453125.261719.609375.46875.164062.199219.289062.4375.375.71875.09375.28125.140625.585938.140625.90625 0 .773438-.195313 1.367188-.578125 1.78125-.375.417969-.828125.625-1.359375.625s-.949219-.21875-1.25-.65625zm0-2.28125c0 .542969.070313.933594.21875 1.171875.238281.398437.5625.59375.96875.59375.332031 0 .617187-.144531.859375-.4375.238281-.289063.359375-.722656.359375-1.296875 0-.582031-.117187-1.007812-.34375-1.28125-.230469-.28125-.511719-.421875-.84375-.421875-.335937 0-.621094.148437-.859375.4375-.242188.28125-.359375.695313-.359375 1.234375zm0 0"/></symbol><symbol id="E" overflow="visible"><path d="m.578125-5.3125v-.875h.75v.875zm0 5.3125v-4.484375h.75v4.484375zm0 0"/></symbol><symbol id="F" overflow="visible"><path d="m.53125 1.71875-.078125-.703125c.164063.039063.3125.0625.4375.0625.164063 0 .296875-.03125.390625-.09375.101562-.054687.191406-.125.265625-.21875.039063-.085937.113281-.277344.21875-.578125.019531-.042969.046875-.1015625.078125-.171875l-1.703125-4.5h.8125l.9375 2.59375c.125.335937.234375.683594.328125 1.046875.082031-.351562.1875-.695312.3125-1.03125l.953125-2.609375h.765625l-1.703125 4.5625c-.1875.488281-.335937.828125-.4375 1.015625-.136719.25-.292969.429688-.46875.546875-.167969.113281-.371094.171875-.609375.171875-.148438 0-.3125-.03125-.5-.09375zm0 0"/></symbol><symbol id="G" overflow="visible"><path d="m3.828125-1.890625 1 .3125c-.15625.5625-.417969.984375-.78125 1.265625-.355469.2734375-.808594.40625-1.359375.40625-.6875 0-1.25-.234375-1.6875-.703125s-.65625-1.109375-.65625-1.921875c0-.851562.21875-1.519531.65625-2 .445312-.476562 1.03125-.71875 1.75-.71875.632812 0 1.148438.1875 1.546875.5625.226563.21875.398437.539062.515625.953125l-1.03125.25c-.054688-.269531-.179688-.484375-.375-.640625-.199219-.15625-.433594-.234375-.703125-.234375-.386719 0-.699219.140625-.9375.421875-.242187.273438-.359375.714844-.359375 1.328125 0 .65625.117188 1.125.359375 1.40625.238281.273437.546875.40625.921875.40625.269531 0 .503906-.085937.703125-.265625.195313-.175781.34375-.453125.4375-.828125zm0 0"/></symbol><symbol id="H" overflow="visible"><path d="m1.46875 0h-1v-3.734375h.921875v.53125c.15625-.25.296875-.410156.421875-.484375.125-.082031.269531-.125.4375-.125.21875 0 .429688.058594.640625.171875l-.296875.875c-.167969-.113281-.324219-.171875-.46875-.171875-.136719 0-.257812.042969-.359375.125-.09375.074219-.167969.210938-.21875.40625-.054687.199219-.078125.617188-.078125 1.25zm0 0"/></symbol><symbol id="I" overflow="visible"><path d="m1.25-2.59375-.890625-.15625c.101563-.363281.273437-.628906.515625-.796875.25-.175781.617188-.265625 1.109375-.265625.4375 0 .757813.054688.96875.15625.21875.105469.367187.234375.453125.390625.09375.15625.140625.453125.140625.890625l-.015625 1.140625c0 .335937.015625.578125.046875.734375.039063.15625.101563.324219.1875.5h-.984375c-.023438-.0625-.054688-.160156-.09375-.296875-.011719-.050781-.023438-.085937-.03125-.109375-.167969.167969-.351562.292969-.546875.375-.1875.0703125-.390625.109375-.609375.109375-.386719 0-.695312-.1015625-.921875-.3125-.21875-.207031-.328125-.46875-.328125-.78125 0-.21875.050781-.40625.15625-.5625.101562-.164063.242188-.289063.421875-.375.1875-.09375.453125-.171875.796875-.234375.457031-.09375.773438-.175781.953125-.25v-.09375c0-.195312-.046875-.332031-.140625-.40625-.09375-.082031-.273438-.125-.53125-.125-.179688 0-.320312.039062-.421875.109375-.09375.0625-.171875.183594-.234375.359375zm1.328125.796875c-.125.042969-.328125.09375-.609375.15625-.273438.0625-.449219.121094-.53125.171875-.125.09375-.1875.210938-.1875.34375 0 .136719.046875.257812.140625.359375.101563.105469.238281.15625.40625.15625.175781 0 .34375-.054687.5-.171875.125-.09375.207031-.203125.25-.328125.019531-.082031.03125-.242187.03125-.484375zm0 0"/></symbol><symbol id="J" overflow="visible"><path d="m.171875-1.0625.984375-.15625c.039062.199219.125.351562.25.453125.132812.09375.316406.140625.546875.140625.257813 0 .453125-.046875.578125-.140625.09375-.070313.140625-.160156.140625-.265625 0-.070312-.027344-.132812-.078125-.1875-.054688-.050781-.164062-.09375-.328125-.125-.804687-.175781-1.308594-.335938-1.515625-.484375-.292969-.207031-.4375-.488281-.4375-.84375 0-.320313.125-.59375.375-.8125.257812-.21875.65625-.328125 1.1875-.328125.507812 0 .890625.085938 1.140625.25.25.167969.421875.414062.515625.734375l-.9375.171875c-.03125-.144531-.105469-.253906-.21875-.328125-.117188-.082031-.277344-.125-.484375-.125-.261719 0-.445313.039063-.546875.109375-.085938.054688-.125.121094-.125.203125 0 .074219.035156.132813.109375.171875.082031.074219.382813.171875.90625.296875.53125.117187.898437.257813 1.109375.421875.207031.179688.3125.421875.3125.734375 0 .34375-.148438.640625-.4375.890625-.28125.2421875-.703125.359375-1.265625.359375-.5 0-.902344-.0976562-1.203125-.296875-.292969-.207031-.484375-.488281-.578125-.84375zm0 0"/></symbol><symbol id="K" overflow="visible"><path d="m1.5-5.15625v1.890625c.320312-.363281.703125-.546875 1.140625-.546875.226563 0 .429687.042969.609375.125.1875.085938.328125.195312.421875.328125.09375.125.15625.273437.1875.4375.039063.15625.0625.402344.0625.734375v2.1875h-1v-1.96875c0-.394531-.023437-.644531-.0625-.75-.03125-.101562-.09375-.1875-.1875-.25s-.214844-.09375-.359375-.09375c-.167969 0-.3125.042969-.4375.125-.125.074219-.21875.195312-.28125.359375-.0625.15625-.09375.390625-.09375.703125v1.875h-.984375v-5.15625zm0 0"/></symbol><symbol id="L" overflow="visible"><path d="m.515625-5.15625h1.90625c.425781 0 .753906.03125.984375.09375.300781.09375.554688.257812.765625.484375.21875.230469.382813.511719.5.84375.113281.324219.171875.726563.171875 1.203125 0 .429688-.054688.792969-.15625 1.09375-.136719.375-.324219.683594-.5625.921875-.179688.179687-.417969.3125-.71875.40625-.230469.0742188-.539062.109375-.921875.109375h-1.96875zm1.046875.875v3.40625h.78125c.289062 0 .5-.015625.625-.046875.164062-.039063.304688-.109375.421875-.203125.113281-.101562.203125-.269531.265625-.5.070312-.238281.109375-.554688.109375-.953125 0-.394531-.039063-.695313-.109375-.90625-.0625-.21875-.164062-.382813-.296875-.5-.125-.125-.28125-.207031-.46875-.25-.148437-.03125-.433594-.046875-.859375-.046875zm0 0"/></symbol><symbol id="M" overflow="visible"><path d="m2.96875 0v-.5625c-.136719.199219-.3125.355469-.53125.46875-.21875.1132812-.453125.171875-.703125.171875s-.476563-.0546875-.671875-.15625c-.199219-.113281-.34375-.269531-.4375-.46875-.085938-.195313-.125-.472656-.125-.828125v-2.359375h.984375v1.71875c0 .523437.015625.84375.046875.96875.039062.117187.109375.210937.203125.28125.09375.0625.21875.09375.375.09375.164063 0 .3125-.046875.4375-.140625.132813-.09375.226563-.207031.28125-.34375.050781-.132812.078125-.46875.078125-1v-1.578125h.984375v3.734375zm0 0"/></symbol><symbol id="N" overflow="visible"><path d="m.484375-3.734375h.921875v.546875c.125-.1875.285156-.335938.484375-.453125.207031-.113281.4375-.171875.6875-.171875.425781 0 .789063.171875 1.09375.515625.300781.335937.453125.804687.453125 1.40625 0 .625-.152344 1.109375-.453125 1.453125-.304687.34375-.671875.515625-1.109375.515625-.199219 0-.386719-.0390625-.5625-.109375-.167969-.082031-.339844-.222656-.515625-.421875v1.875h-1zm.984375 1.796875c0 .429688.082031.742188.25.9375.164062.199219.367188.296875.609375.296875.226563 0 .414063-.085937.5625-.265625.15625-.1875.234375-.488281.234375-.90625 0-.394531-.078125-.6875-.234375-.875s-.351563-.28125-.578125-.28125c-.25 0-.453125.09375-.609375.28125-.15625.179688-.234375.449219-.234375.8125zm0 0"/></symbol><symbol id="O" overflow="visible"><path d="m.515625 0v-5.15625h.984375v5.15625zm0 0"/></symbol><symbol id="P" overflow="visible"><path d="m.515625-4.234375v-.921875h.984375v.921875zm0 4.234375v-3.734375h.984375v3.734375zm0 0"/></symbol><symbol id="Q" overflow="visible"><path d="m3.78125-2.625-.984375.171875c-.03125-.195313-.105469-.34375-.21875-.4375-.117187-.101563-.265625-.15625-.453125-.15625-.25 0-.449219.089844-.59375.265625-.148438.167969-.21875.449219-.21875.84375 0 .449219.070312.765625.21875.953125.15625.179687.359375.265625.609375.265625.1875 0 .335937-.050781.453125-.15625.125-.113281.210938-.300781.265625-.5625l.96875.171875c-.105469.449219-.304687.789063-.59375 1.015625-.28125.21875-.664063.328125-1.140625.328125-.554688 0-.992188-.171875-1.3125-.515625-.324219-.34375-.484375-.816406-.484375-1.421875 0-.625.160156-1.101563.484375-1.4375.332031-.34375.773438-.515625 1.328125-.515625.457031 0 .816406.101562 1.078125.296875.269531.1875.46875.484375.59375.890625zm0 0"/></symbol><symbol id="R" overflow="visible"><path d="m2.234375-3.734375v.78125h-.6875v1.515625c0 .304688.003906.480469.015625.53125.019531.054688.050781.09375.09375.125.050781.03125.109375.046875.171875.046875.09375 0 .222656-.03125.390625-.09375l.09375.765625c-.230469.09375-.492188.140625-.78125.140625-.179688 0-.339844-.0273438-.484375-.078125-.148437-.0625-.25-.140625-.3125-.234375s-.109375-.222656-.140625-.390625c-.023438-.113281-.03125-.34375-.03125-.6875v-1.640625h-.453125v-.78125h.453125v-.75l.984375-.5625v1.3125zm0 0"/></symbol><symbol id="S" overflow="visible"><path d="m2.6875-1.1875.984375.15625c-.136719.367188-.339844.640625-.609375.828125-.273438.1875-.609375.28125-1.015625.28125-.65625 0-1.140625-.207031-1.453125-.625-.242188-.34375-.359375-.773437-.359375-1.296875 0-.613281.160156-1.09375.484375-1.4375.320312-.351562.726562-.53125 1.21875-.53125.5625 0 1 .183594 1.3125.546875.320312.367187.476562.929687.46875 1.6875h-2.484375c.007813.292969.085937.523437.234375.6875.15625.15625.347656.234375.578125.234375.15625 0 .285156-.039062.390625-.125.101562-.082031.1875-.21875.25-.40625zm.046875-1c-.011719-.28125-.089844-.492188-.234375-.640625-.136719-.15625-.304688-.234375-.5-.234375-.21875 0-.398438.078125-.53125.234375-.148438.15625-.214844.371094-.203125.640625zm0 0"/></symbol><symbol id="T" overflow="visible"><path d="m3.9375 0h-.90625v-.546875c-.15625.210937-.339844.367187-.546875.46875-.210937.1015625-.417969.15625-.625.15625-.429687 0-.796875-.171875-1.109375-.515625-.304688-.34375-.453125-.820312-.453125-1.4375 0-.632812.144531-1.113281.4375-1.4375.300781-.332031.679687-.5 1.140625-.5.414062 0 .773438.171875 1.078125.515625v-1.859375h.984375zm-2.625-1.953125c0 .40625.050781.699219.15625.875.15625.25.378906.375.671875.375.226563 0 .421875-.09375.578125-.28125.15625-.195313.234375-.488281.234375-.875 0-.425781-.078125-.734375-.234375-.921875-.148438-.1875-.34375-.28125-.59375-.28125-.230469 0-.421875.09375-.578125.28125s-.234375.464844-.234375.828125zm0 0"/></symbol><symbol id="U" overflow="visible"><path d="m.328125-1.65625.640625-.0625c.03125.261719.097656.476562.203125.640625.113281.167969.285156.304687.515625.40625.238281.09375.503906.140625.796875.140625.257813 0 .488281-.035156.6875-.109375.207031-.070313.359375-.175781.453125-.3125.09375-.132813.140625-.285156.140625-.453125 0-.15625-.046875-.289062-.140625-.40625-.09375-.125-.246094-.226562-.453125-.3125-.148437-.050781-.460937-.132812-.9375-.25-.46875-.113281-.796875-.222656-.984375-.328125-.25-.125-.4375-.28125-.5625-.46875-.117188-.195313-.171875-.414063-.171875-.65625 0-.257813.070313-.5.21875-.71875.15625-.226563.375-.398437.65625-.515625.28125-.125.59375-.1875.9375-.1875.382813 0 .722656.0625 1.015625.1875.289062.125.515625.308594.671875.546875.15625.242187.238281.511719.25.8125l-.640625.046875c-.042969-.320312-.167969-.566406-.375-.734375-.199219-.164063-.496094-.25-.890625-.25-.40625 0-.710937.078125-.90625.234375-.1875.148438-.28125.324219-.28125.53125 0 .1875.066406.34375.203125.46875.132812.117188.476562.234375 1.03125.359375.550781.125.929688.234375 1.140625.328125.300781.148438.519531.324219.65625.53125.144531.210938.21875.453125.21875.734375 0 .273437-.078125.53125-.234375.78125-.15625.242187-.382812.429687-.671875.5625-.292969.1328125-.625.203125-1 .203125-.460937 0-.851563-.0703125-1.171875-.203125-.3125-.132813-.558594-.335937-.734375-.609375-.179687-.28125-.273437-.59375-.28125-.9375zm0 0"/></symbol><symbol id="V" overflow="visible"><path d="m.484375-4.421875v-.734375h.625v.734375zm0 4.421875v-3.734375h.625v3.734375zm0 0"/></symbol><symbol id="W" overflow="visible"><path d="m.46875 0v-3.734375h.578125v.515625c.113281-.175781.265625-.316406.453125-.421875.195312-.113281.421875-.171875.671875-.171875.28125 0 .507813.058594.6875.171875.175781.117187.300781.273437.375.46875.289063-.425781.671875-.640625 1.140625-.640625.375 0 .660156.105469.859375.3125.195313.199219.296875.511719.296875.9375v2.5625h-.625v-2.359375c0-.25-.023438-.425781-.0625-.53125-.042969-.113281-.121094-.203125-.234375-.265625-.105469-.070312-.230469-.109375-.375-.109375-.261719 0-.480469.089844-.65625.265625-.167969.167969-.25.445312-.25.828125v2.171875h-.640625v-2.421875c0-.28125-.054688-.488281-.15625-.625-.09375-.144531-.261719-.21875-.5-.21875-.179688 0-.34375.046875-.5.140625-.148438.09375-.257812.230469-.328125.40625-.0625.179688-.09375.4375-.09375.78125v1.9375zm0 0"/></symbol><symbol id="X" overflow="visible"><path d="m.46875 1.4375v-5.171875h.578125v.484375c.132813-.1875.285156-.328125.453125-.421875.175781-.09375.390625-.140625.640625-.140625.3125 0 .585937.085938.828125.25.25.15625.4375.386719.5625.6875.125.292969.1875.621094.1875.984375 0 .375-.070312.71875-.203125 1.03125-.136719.304687-.339844.539063-.609375.703125-.261719.15625-.53125.234375-.8125.234375-.21875 0-.414062-.0429688-.578125-.125-.167969-.09375-.304687-.207031-.40625-.34375v1.828125zm.578125-3.28125c0 .480469.09375.835938.28125 1.0625.195313.230469.4375.34375.71875.34375s.519531-.117188.71875-.359375c.207031-.238281.3125-.609375.3125-1.109375 0-.46875-.101563-.820312-.296875-1.0625-.199219-.238281-.433594-.359375-.703125-.359375-.273437 0-.511719.132813-.71875.390625-.210937.25-.3125.617188-.3125 1.09375zm0 0"/></symbol><symbol id="Y" overflow="visible"><path d="m.453125 0v-5.15625h.640625v5.15625zm0 0"/></symbol><symbol id="Z" overflow="visible"><path d="m3.03125-1.203125.65625.078125c-.105469.386719-.296875.683594-.578125.890625-.28125.2109375-.636719.3125-1.0625.3125-.554687 0-.992187-.1640625-1.3125-.5-.3125-.332031-.46875-.804687-.46875-1.421875 0-.625.160156-1.109375.484375-1.453125.320312-.34375.742188-.515625 1.265625-.515625.488281 0 .890625.171875 1.203125.515625.320312.335937.484375.808594.484375 1.421875v.171875h-2.78125c.019531.40625.132813.71875.34375.9375.207031.21875.46875.328125.78125.328125.226563 0 .425781-.054688.59375-.171875.164063-.125.296875-.320313.390625-.59375zm-2.078125-1.015625h2.078125c-.023438-.320312-.101562-.5625-.234375-.71875-.199219-.238281-.460937-.359375-.78125-.359375-.292969 0-.539063.101563-.734375.296875-.199219.1875-.308594.449219-.328125.78125zm0 0"/></symbol><symbol id="aa" overflow="visible"/><symbol id="ab" overflow="visible"><path d="m.5625 0v-5.15625h1.9375c.34375 0 .601562.015625.78125.046875.257812.042969.472656.125.640625.25.164063.117187.300781.28125.40625.5.101563.210937.15625.4375.15625.6875 0 .449219-.140625.824219-.421875 1.125-.273438.304687-.773438.453125-1.5.453125h-1.328125v2.09375zm.671875-2.703125h1.34375c.4375 0 .742187-.082031.921875-.25.1875-.164063.28125-.394531.28125-.6875 0-.21875-.058594-.398437-.171875-.546875-.105469-.15625-.246094-.257812-.421875-.3125-.117188-.03125-.324219-.046875-.625-.046875h-1.328125zm0 0"/></symbol><symbol id="ac" overflow="visible"><path d="m2.90625-.453125c-.230469.199219-.453125.339844-.671875.421875-.21875.0703125-.453125.109375-.703125.109375-.40625 0-.71875-.0976562-.9375-.296875-.21875-.195312-.328125-.453125-.328125-.765625 0-.1875.039063-.351563.125-.5.082031-.15625.191406-.273437.328125-.359375.132812-.09375.285156-.164062.453125-.21875.125-.03125.3125-.0625.5625-.09375.507813-.0625.882813-.132812 1.125-.21875 0-.082031 0-.132812 0-.15625 0-.257812-.058594-.441406-.171875-.546875-.167969-.144531-.40625-.21875-.71875-.21875-.304688 0-.527344.054687-.671875.15625-.136719.105469-.242187.292969-.3125.5625l-.609375-.09375c.050781-.257813.140625-.472656.265625-.640625.132813-.164062.320313-.289062.5625-.375.25-.082031.53125-.125.84375-.125.320313 0 .582031.039062.78125.109375.195313.074219.34375.167969.4375.28125.09375.117187.160156.257813.203125.421875.019531.117188.03125.3125.03125.59375v.84375c0 .585938.007812.953125.03125 1.109375.03125.15625.085938.308594.171875.453125h-.671875c-.0625-.132812-.105469-.285156-.125-.453125zm-.046875-1.421875c-.230469.09375-.574219.171875-1.03125.234375-.261719.042969-.449219.089844-.5625.140625-.105469.042969-.1875.109375-.25.203125-.054687.085937-.078125.183594-.078125.296875 0 .167969.0625.308594.1875.421875.125.117187.3125.171875.5625.171875.238281 0 .453125-.050781.640625-.15625.195313-.113281.335937-.265625.421875-.453125.070312-.132813.109375-.34375.109375-.625zm0 0"/></symbol><symbol id="ad" overflow="visible"><path d="m.46875 0v-3.734375h.5625v.5625c.144531-.257813.28125-.429687.40625-.515625.125-.082031.257812-.125.40625-.125.21875 0 .4375.070312.65625.203125l-.21875.578125c-.15625-.09375-.3125-.140625-.46875-.140625-.136719 0-.261719.042969-.375.125-.105469.085937-.183594.203125-.234375.359375-.074219.21875-.109375.464844-.109375.734375v1.953125zm0 0"/></symbol><symbol id="ae" overflow="visible"><path d="m.46875 0v-3.734375h.578125v.53125c.269531-.40625.664063-.609375 1.1875-.609375.226563 0 .4375.042969.625.125.1875.074219.328125.179688.421875.3125.09375.125.15625.28125.1875.46875.03125.117188.046875.320312.046875.609375v2.296875h-.640625v-2.265625c0-.257813-.027344-.453125-.078125-.578125-.042969-.132812-.125-.238281-.25-.3125-.125-.070312-.277344-.109375-.453125-.109375-.273438 0-.507812.089844-.703125.265625-.1875.167969-.28125.484375-.28125.953125v2.046875zm0 0"/></symbol><symbol id="af" overflow="visible"><path d="m.359375.3125.609375.09375c.03125.1875.101562.320312.21875.40625.15625.113281.367188.171875.640625.171875.289063 0 .515625-.058594.671875-.171875.164062-.117188.273438-.277344.328125-.484375.039063-.136719.054687-.40625.046875-.8125-.273438.324219-.617188.484375-1.03125.484375-.511719 0-.90625-.179688-1.1875-.546875-.28125-.375-.421875-.820313-.421875-1.34375 0-.351563.0625-.679687.1875-.984375.132813-.300781.320313-.53125.5625-.6875.25-.164062.535156-.25.859375-.25.445312 0 .8125.179688 1.09375.53125v-.453125h.59375v3.234375c0 .5703125-.0625.976562-.1875 1.21875-.117188.25-.304688.441406-.5625.578125-.25.144531-.5625.21875-.9375.21875-.449219 0-.8125-.101563-1.09375-.296875-.273438-.199219-.402344-.5-.390625-.90625zm.515625-2.25c0 .492188.097656.851562.296875 1.078125.195313.21875.441406.328125.734375.328125.289062 0 .535156-.109375.734375-.328125.195313-.226563.296875-.578125.296875-1.046875 0-.457031-.105469-.800781-.3125-1.03125-.199219-.238281-.445312-.359375-.734375-.359375-.28125 0-.523437.117187-.71875.34375-.199219.230469-.296875.570313-.296875 1.015625zm0 0"/></symbol><symbol id="ag" overflow="visible"><path d="m.234375-1.875c0-.6875.191406-1.195312.578125-1.53125.320312-.269531.710938-.40625 1.171875-.40625.519531 0 .941406.167969 1.265625.5.320312.335938.484375.796875.484375 1.390625 0 .480469-.074219.859375-.21875 1.140625-.136719.273438-.34375.484375-.625.640625-.273437.14453125-.574219.21875-.90625.21875-.523437 0-.945313-.1640625-1.265625-.5-.324219-.332031-.484375-.816406-.484375-1.453125zm.65625 0c0 .480469.101563.839844.3125 1.078125.207031.242187.46875.359375.78125.359375.320313 0 .585937-.117188.796875-.359375.207031-.238281.3125-.601563.3125-1.09375 0-.457031-.109375-.804687-.328125-1.046875-.210937-.238281-.46875-.359375-.78125-.359375s-.574219.121094-.78125.359375c-.210937.242188-.3125.59375-.3125 1.0625zm0 0"/></symbol><symbol id="ah" overflow="visible"><path d="m2.90625-1.375.625.09375c-.0625.429688-.234375.761719-.515625 1-.28125.2421875-.625.359375-1.03125.359375-.511719 0-.921875-.1640625-1.234375-.5-.3125-.332031-.46875-.8125-.46875-1.4375 0-.394531.066406-.742187.203125-1.046875.132813-.300781.335937-.523438.609375-.671875.269531-.15625.566406-.234375.890625-.234375.40625 0 .734375.105469.984375.3125.257812.199219.425781.484375.5.859375l-.609375.09375c-.0625-.25-.167969-.4375-.3125-.5625-.148437-.125-.324219-.1875-.53125-.1875-.324219 0-.585937.117187-.78125.34375-.199219.230469-.296875.589844-.296875 1.078125 0 .5.09375.867188.28125 1.09375.195312.230469.445312.34375.75.34375.25 0 .457031-.070312.625-.21875.164062-.15625.269531-.394531.3125-.71875zm0 0"/></symbol><symbol id="ai" overflow="visible"><path d="m2.890625 0v-.46875c-.230469.367188-.574219.546875-1.03125.546875-.304687 0-.578125-.078125-.828125-.234375-.25-.164062-.445312-.394531-.578125-.6875-.136719-.300781-.203125-.640625-.203125-1.015625s.0625-.710937.1875-1.015625c.125-.300781.304688-.53125.546875-.6875.25-.164062.53125-.25.84375-.25.21875 0 .414063.046875.59375.140625.175781.09375.320313.214844.4375.359375v-1.84375h.625v5.15625zm-2-1.859375c0 .480469.097656.839844.296875 1.078125.207031.230469.445312.34375.71875.34375.28125 0 .515625-.109375.703125-.328125.195313-.226563.296875-.578125.296875-1.046875 0-.507812-.101562-.882812-.296875-1.125-.199219-.238281-.4375-.359375-.71875-.359375s-.523437.117187-.71875.34375c-.1875.230469-.28125.59375-.28125 1.09375zm0 0"/></symbol><symbol id="aj" overflow="visible"><path d="m2.921875 0v-.546875c-.292969.417969-.6875.625-1.1875.625-.21875 0-.429687-.0429688-.625-.125-.1875-.082031-.328125-.1875-.421875-.3125-.085938-.125-.148438-.28125-.1875-.46875-.03125-.125-.046875-.320313-.046875-.59375v-2.3125h.640625v2.078125c0 .324219.007812.542969.03125.65625.039062.167969.125.304688.25.40625.132812.09375.296875.140625.484375.140625.195313 0 .375-.046875.53125-.140625.164063-.101562.285156-.238281.359375-.40625.070312-.164062.109375-.410156.109375-.734375v-2h.625v3.734375zm0 0"/></symbol><g clip-path="url(#a)"><path d="m0 0h165v141.941406h-165zm0 0" fill="#fff"/></g><path d="m6.195312 15.492188h151.167969c.488281 0 .957031.09375 1.40625.277343.449219.1875.847657.453125 1.191407.796875.34375.347656.609374.742188.796874 1.191406.1875.453126.277344.921876.277344 1.40625v115.140626c0 .488281-.089844.957031-.277344 1.40625-.1875.449218-.453124.847656-.796874 1.191406-.34375.347656-.742188.613281-1.191407.796875-.449219.1875-.917969.28125-1.40625.28125h-151.167969c-.484374 0-.953124-.09375-1.40625-.28125-.449218-.183594-.847656-.449219-1.191406-.796875-.34375-.34375-.609375-.742188-.796875-1.191406-.1875-.449219-.277343-.917969-.277343-1.40625v-115.140626c0-.484374.089843-.953124.277343-1.40625.1875-.449218.453125-.84375.796875-1.191406.34375-.34375.742188-.609375 1.191406-.796875.453126-.183593.921876-.277343 1.40625-.277343zm0 0" fill="#dae8fc" fill-opacity=".302"/><g clip-path="url(#b)"><path d="m8.098344 21.001281h209.80284c.677675 0 1.328244.130113 1.951705.384919.623461.260228 1.176444.628883 1.653528 1.105966.477083.482505.845738 1.030067 1.105966 1.653528.260227.628883.384919 1.279451.384919 1.951705v159.801248c0 .677676-.124692 1.328244-.384919 1.951705-.260228.623461-.628883 1.176444-1.105966 1.653528-.477084.482505-1.030067.85116-1.653528 1.105966-.623461.260227-1.27403.390341-1.951705.390341h-209.80284c-.672254 0-1.322822-.130114-1.951705-.390341-.623461-.254806-1.176444-.623461-1.653528-1.105966-.477083-.477084-.845738-1.030067-1.105966-1.653528-.260227-.623461-.384919-1.274029-.384919-1.951705v-159.801248c0-.672254.124692-1.322822.384919-1.951705.260228-.623461.628883-1.171023 1.105966-1.653528.477084-.477083 1.030067-.845738 1.653528-1.105966.628883-.254806 1.279451-.384919 1.951705-.384919zm0 0" fill="none" stroke="#6c8ebf" stroke-opacity=".302" transform="matrix(.720524 0 0 .720524 .360262 .360262)"/></g><path d="m146.207031 2.988281c-.199219.1875-.515625.21875-.742187-.046875-.15625-.210937-.078125-.457031.050781-.578125.78125-.75 2.011719-1.28125 3.308594-1.269531 1.507812.023438 2.585937.628906 3.285156 1.277344.214844.222656.152344.503906-.035156.640625-.222657.164062-.496094.164062-.691407-.035157-.636718-.585937-1.515624-.972656-2.480468-.996093-.90625-.019531-1.886719.253906-2.695313 1.007812zm1.242188 1.25c-.210938.179688-.511719.148438-.691407-.058593-.125-.144532-.167968-.390626.019532-.578126.496094-.496093 1.261718-.796874 2.019531-.796874.835937.011718 1.539063.34375 2.015625.839843.160156.21875.085938.441407-.066406.585938-.128906.144531-.445313.199219-.675782-.023438-.324218-.300781-.777343-.496093-1.28125-.496093-.511718 0-.996093.1875-1.339843.527343zm10.34375 12.960938h-18.011719v-12.003907h18.011719zm-7.007813.945312c.164063.179688.136719.402344.011719.546875-.511719.5625-1.300781.820313-1.980469.820313-.785156 0-1.503906-.28125-2.03125-.777344-.171875-.171875-.203125-.441406.035156-.648437.203126-.167969.460938-.136719.636719.011718.300781.289063.769531.527344 1.34375.519532.628907-.011719 1.046875-.28125 1.34375-.554688.121094-.09375.417969-.171875.640625.082031zm1.296875 1.792969c-.800781.800781-2.003906 1.316406-3.28125 1.316406-1.207031 0-2.410156-.421875-3.335937-1.324218-.105469-.117188-.207032-.382813.050781-.621094.203125-.164063.484375-.15625.671875.039062.683594.625 1.570312.992188 2.613281 1 1.207031-.023437 2.046875-.527344 2.582031-1.015625.15625-.144531.425782-.214843.667969-.007812.160157.160156.210938.402343.03125.613281zm0 0" fill="#5294cf"/><path d="m139.78125 16.476562h18.011719v.722657h-18.011719zm0 0" fill-opacity=".302"/><path d="m157.792969 13.949219h-3.03125c-.179688 0-.351563-.160157-.351563-.347657v-1.265624c-.203125-.078126-.535156-.332032-.535156-.773438 0-.453125.390625-.828125.914062-.828125.398438 0 .871094.3125.871094.828125 0 .347656-.214844.636719-.53125.773438v.929687h2.664063zm-5.605469 1.738281c-.171875 0-.351562-.152344-.351562-.339844v-3.011718c-.171876-.074219-.503907-.289063-.527344-.75-.011719-.347657.289062-.871094.921875-.851563.492187.023437.851562.390625.859375.828125-.007813.347656-.214844.644531-.535156.765625v2.679687h5.238281v.679688zm-1.238281-10.492188v2.507813h1.535156v-1.421875c0-.191406.152344-.367188.390625-.367188h3.78125c.238281 0 .390625.175782.390625.363282v3.585937c0 .152344-.152344.355469-.382813.355469h-3.796874c-.203126 0-.382813-.152344-.382813-.363281v-1.476563h-3.726563c-.121093.265625-.417968.496094-.8125.496094-.496093 0-.886718-.371094-.886718-.839844 0-.433594.367187-.828125.90625-.828125.328125 0 .664062.199219.792968.496094h1.472657v-2.507813zm-5.257813 0h.71875v5.109376l1.339844 1.257812.640625-.597656c-.09375-.230469-.097656-.582032.179687-.878906.398438-.367188.910157-.292969 1.183594-.09375.445313.324218.453125.894531.121094 1.234374-.292969.308594-.710938.324219-.972656.222657l-.640625.597656 1.140625 1.074219c.285156-.101563.660156-.078125.941406.179687.449219.433594.273438.988281-.035156 1.230469-.410156.324219-.964844.246094-1.269532-.09375-.148437-.179688-.28125-.480469-.148437-.828125l-3.113281-2.929687c-.058594-.050782-.085938-.136719-.085938-.238282zm-4.757812 0h.722656v2.507813h1.253906c.15625-.324219.488282-.496094.804688-.496094.503906 0 .894531.378907.894531.835938 0 .414062-.339844.832031-.914063.832031-.246093 0-.613281-.136719-.785156-.496094h-1.253906v2.695313l2.203125 2.074219c.433594-.171876 1.023437 0 1.195313.546874.160156.578126-.292969 1.089844-.890626 1.0625-.324218-.007812-.699218-.210937-.824218-.613281-.042969-.167969-.035156-.347656.015625-.492187l-2.320313-2.1875c-.058594-.050782-.101562-.125-.101562-.261719zm5.792968 11.28125v-2.441406l-2.75-2.578125c-.417968.136719-.824218-.023437-1.023437-.304687-.289063-.386719-.203125-.90625.230469-1.1875.402344-.246094.898437-.144532 1.171875.171875.269531.3125.226562.65625.136719.84375l2.957031 2.761719v2.734374zm-5.769531 0v-1.785156c-.238281-.09375-.527343-.375-.527343-.757812 0-.539063.46875-.847656.878906-.847656.492187 0 .894531.351562.894531.835937 0 .324219-.195313.625-.519531.769531v1.785156zm0 0" fill="#fff"/><g><use x="7.205239" xlink:href="#d" y="12.969431"/><use x="14.407664" xlink:href="#e" y="12.969431"/><use x="19.216317" xlink:href="#f" y="12.969431"/><use x="23.539461" xlink:href="#g" y="12.969431"/><use x="25.941676" xlink:href="#h" y="12.969431"/><use x="30.750329" xlink:href="#i" y="12.969431"/><use x="33.62961" xlink:href="#j" y="12.969431"/><use x="36.031826" xlink:href="#k" y="12.969431"/><use x="38.911107" xlink:href="#l" y="12.969431"/><use x="44.678113" xlink:href="#g" y="12.969431"/><use x="47.080329" xlink:href="#g" y="12.969431"/><use x="49.482544" xlink:href="#e" y="12.969431"/><use x="54.291197" xlink:href="#m" y="12.969431"/><use x="58.614341" xlink:href="#n" y="12.969431"/><use x="62.937484" xlink:href="#h" y="12.969431"/><use x="67.746137" xlink:href="#i" y="12.969431"/><use x="70.625418" xlink:href="#o" y="12.969431"/></g><path d="m1.441406 130.414062v-4.324218h1.441406v4.324218m-1.441406-8.644531v-4.324219h1.441406v4.324219m-1.441406-8.648437v-4.320313h1.441406v4.320313m-1.441406-8.644532v-4.324218h1.441406v4.324218m-1.441406-8.648437v-4.320313h1.441406v4.320313m-1.441406-8.644531v-4.324219h1.441406v4.324219m-1.441406-8.648438v-4.320312h1.441406v4.320312m-1.441406-8.644531v-4.324219h1.441406v4.324219m-1.441406-8.644531v-4.324219h1.441406v4.324219m-1.441406-8.648438v-4.324218h1.441406v4.324218m-1.441406-8.644531v-4.324219h1.441406v4.324219m-1.441406-8.648437v-4.320313h1.441406v4.320313m-1.441406-8.644532v-4.324218h1.441406v4.324218m-1.441406-8.648437v-4.320313h1.441406v4.320313m-1.441406-8.644531v-4.324219h1.441406v4.324219"/><path d="m159.957031 134.015625v-4.320313h1.441407v4.320313m-1.441407-8.644531v-4.324219h1.441407v4.324219m-1.441407-8.644532v-4.324218h1.441407v4.324218m-1.441407-8.648437v-4.324219h1.441407v4.324219m-1.441407-8.644531v-4.324219h1.441407v4.324219m-1.441407-8.648438v-4.324218h1.441407v4.324218m-1.441407-8.644531v-4.324219h1.441407v4.324219m-1.441407-8.648437v-4.320313h1.441407v4.320313m-1.441407-8.644532v-4.324218h1.441407v4.324218m-1.441407-8.648437v-4.320313h1.441407v4.320313m-1.441407-8.644531v-4.324219h1.441407v4.324219m-1.441407-8.644532v-4.324218h1.441407v4.324218m-1.441407-8.648437v-4.324219h1.441407v4.324219m-1.441407-8.644531v-4.324219h1.441407v4.324219m-1.441407-8.648438v-4.324219h1.441407v4.324219m-1.441407-8.644531v-3.605469h1.441407v3.605469"/><g><use x="115.28383" xlink:href="#p" y="12.969431"/><use x="121.050836" xlink:href="#q" y="12.969431"/><use x="122.971764" xlink:href="#e" y="12.969431"/><use x="127.780417" xlink:href="#r" y="12.969431"/><use x="132.103561" xlink:href="#h" y="12.969431"/></g><path d="m8.00199 63.999652h141.758822" fill="none" stroke="#000" stroke-miterlimit="10" stroke-width="2" transform="scale(.720524)"/><path d="m155.762304 63.999652-8.001989 4.000995 2.000497-4.000995-2.000497-4.000995zm0 0" stroke="#000" stroke-miterlimit="10" stroke-width="2" transform="scale(.720524)"/><g><use x="7.205239" xlink:href="#s" y="43.95196"/><use x="12.013892" xlink:href="#d" y="43.95196"/><use x="19.216317" xlink:href="#t" y="43.95196"/><use x="24.983323" xlink:href="#u" y="43.95196"/><use x="29.791976" xlink:href="#v" y="43.95196"/><use x="32.194192" xlink:href="#h" y="43.95196"/><use x="37.002844" xlink:href="#e" y="43.95196"/><use x="41.811497" xlink:href="#g" y="43.95196"/><use x="44.213713" xlink:href="#w" y="43.95196"/><use x="49.022366" xlink:href="#i" y="43.95196"/><use x="51.901647" xlink:href="#h" y="43.95196"/><use x="56.7103" xlink:href="#f" y="43.95196"/><use x="61.033443" xlink:href="#u" y="43.95196"/><use x="65.842096" xlink:href="#i" y="43.95196"/><use x="68.721378" xlink:href="#h" y="43.95196"/><use x="73.53003" xlink:href="#f" y="43.95196"/><use x="77.853174" xlink:href="#u" y="43.95196"/><use x="82.661827" xlink:href="#h" y="43.95196"/><use x="87.47048" xlink:href="#x" y="43.95196"/><use x="91.793623" xlink:href="#g" y="43.95196"/></g><path d="m157.074219 32.421875h-4.324219v-1.4375h4.324219m-8.644531 1.4375h-4.324219v-1.4375h4.324219m-8.648438 1.4375h-4.324219v-1.4375h4.324219m-8.644531 1.4375h-4.324219v-1.4375h4.324219m-8.648438 1.4375h-4.324219v-1.4375h4.324219m-8.644531 1.4375h-4.324219v-1.4375h4.324219m-8.648438 1.4375h-4.320312v-1.4375h4.320312m-8.644531 1.4375h-4.324219v-1.4375h4.324219m-8.648437 1.4375h-4.320313v-1.4375h4.320313m-8.644532 1.4375h-4.324218v-1.4375h4.324218m-8.644531 1.4375h-4.324219v-1.4375h4.324219m-8.648437 1.4375h-4.324219v-1.4375h4.324219m-8.644532 1.4375h-4.324218v-1.4375h4.324218m-8.648437 1.4375h-.546875v-1.4375h.546875"/><path d="m55.238666 44.0001 8.00199-4.000995-2.000498 4.000995 2.000498 4.000994zm0 0" stroke="#000" stroke-miterlimit="10" stroke-width="2" transform="scale(.720524)"/><g><use x="61.244535" xlink:href="#s" y="28.100434"/><use x="66.053188" xlink:href="#d" y="28.100434"/><use x="73.255612" xlink:href="#t" y="28.100434"/><use x="79.022619" xlink:href="#u" y="28.100434"/><use x="83.831271" xlink:href="#v" y="28.100434"/><use x="86.233487" xlink:href="#h" y="28.100434"/><use x="91.04214" xlink:href="#e" y="28.100434"/><use x="95.850793" xlink:href="#g" y="28.100434"/><use x="98.253008" xlink:href="#w" y="28.100434"/><use x="103.061661" xlink:href="#i" y="28.100434"/><use x="105.940942" xlink:href="#h" y="28.100434"/><use x="110.749595" xlink:href="#f" y="28.100434"/><use x="115.072739" xlink:href="#u" y="28.100434"/><use x="119.881392" xlink:href="#i" y="28.100434"/><use x="122.760673" xlink:href="#h" y="28.100434"/><use x="127.569326" xlink:href="#y" y="28.100434"/><use x="132.377979" xlink:href="#u" y="28.100434"/><use x="137.186632" xlink:href="#h" y="28.100434"/><use x="141.995284" xlink:href="#x" y="28.100434"/><use x="146.318428" xlink:href="#g" y="28.100434"/></g><path d="m8.00199 107.002214h141.758822" fill="none" stroke="#d79b00" stroke-miterlimit="10" stroke-width="2" transform="scale(.720524)"/><path d="m155.762304 107.002214-8.001989 3.995573 2.000497-3.995573-2.000497-4.000995zm0 0" fill="#d79b00" stroke="#d79b00" stroke-miterlimit="10" stroke-width="2" transform="scale(.720524)"/><g><use x="7.205239" xlink:href="#s" y="74.213966"/><use x="12.013892" xlink:href="#d" y="74.213966"/><use x="19.216317" xlink:href="#t" y="74.213966"/><use x="24.983323" xlink:href="#u" y="74.213966"/><use x="29.791976" xlink:href="#z" y="74.213966"/><use x="32.194192" xlink:href="#A" y="74.213966"/><use x="38.919551" xlink:href="#u" y="74.213966"/><use x="43.728204" xlink:href="#B" y="74.213966"/><use x="49.972275" xlink:href="#e" y="74.213966"/><use x="54.780928" xlink:href="#C" y="74.213966"/><use x="59.589581" xlink:href="#e" y="74.213966"/><use x="64.398234" xlink:href="#D" y="74.213966"/><use x="69.206887" xlink:href="#E" y="74.213966"/><use x="71.127815" xlink:href="#q" y="74.213966"/><use x="73.048743" xlink:href="#E" y="74.213966"/><use x="74.969671" xlink:href="#g" y="74.213966"/><use x="77.371887" xlink:href="#F" y="74.213966"/><use x="81.69503" xlink:href="#u" y="74.213966"/><use x="86.503683" xlink:href="#i" y="74.213966"/><use x="89.382964" xlink:href="#h" y="74.213966"/><use x="94.191617" xlink:href="#y" y="74.213966"/></g><path d="m81.417969 14.769531v-.71875h.722656v.71875m-.722656-2.882812v-.71875h.722656v.71875m-.722656-2.878907v-.722656h.722656v.722656m-.722656-2.882812v-.722656h.722656v.722656"/><path d="m195.99872 160.998148h5.253338l3.746189 4.440128 3.75161-4.440128h5.247918l-6.370148 7.50322 6.370148 7.497799h-5.247918l-3.75161-4.440128-3.746189 4.440128h-5.253338l6.001492-7.497799zm0 0" fill="#f8cecc" stroke="#b85450" stroke-miterlimit="10" transform="matrix(.720524 0 0 .720524 .360262 .360262)"/><g fill="#f00"><use x="137.856498" xlink:href="#G" y="134.737976"/><use x="143.059891" xlink:href="#H" y="134.737976"/><use x="145.863883" xlink:href="#I" y="134.737976"/><use x="149.871094" xlink:href="#J" y="134.737976"/><use x="153.878304" xlink:href="#K" y="134.737976"/></g><g fill="#ff8000"><use x="115.28383" xlink:href="#L" y="79.978157"/><use x="120.487223" xlink:href="#M" y="79.978157"/><use x="124.88847" xlink:href="#N" y="79.978157"/><use x="129.289718" xlink:href="#O" y="79.978157"/><use x="131.291564" xlink:href="#P" y="79.978157"/><use x="133.29341" xlink:href="#Q" y="79.978157"/><use x="137.300621" xlink:href="#I" y="79.978157"/><use x="141.307832" xlink:href="#R" y="79.978157"/><use x="143.707233" xlink:href="#S" y="79.978157"/><use x="147.714443" xlink:href="#T" y="79.978157"/></g><path d="m8.00199 83.999204h141.758822" fill="none" stroke="#000" stroke-miterlimit="10" stroke-width="2" transform="scale(.720524)"/><path d="m155.762304 83.999204-8.001989 4.000995 2.000497-4.000995-2.000497-4.000994zm0 0" stroke="#000" stroke-miterlimit="10" stroke-width="2" transform="scale(.720524)"/><g><use x="7.205239" xlink:href="#s" y="58.362439"/><use x="12.013892" xlink:href="#d" y="58.362439"/><use x="19.216317" xlink:href="#t" y="58.362439"/><use x="24.983323" xlink:href="#u" y="58.362439"/><use x="29.791976" xlink:href="#z" y="58.362439"/><use x="32.194192" xlink:href="#A" y="58.362439"/><use x="38.919551" xlink:href="#u" y="58.362439"/><use x="43.728204" xlink:href="#B" y="58.362439"/><use x="49.972275" xlink:href="#e" y="58.362439"/><use x="54.780928" xlink:href="#C" y="58.362439"/><use x="59.589581" xlink:href="#e" y="58.362439"/><use x="64.398234" xlink:href="#D" y="58.362439"/><use x="69.206887" xlink:href="#E" y="58.362439"/><use x="71.127815" xlink:href="#q" y="58.362439"/><use x="73.048743" xlink:href="#E" y="58.362439"/><use x="74.969671" xlink:href="#g" y="58.362439"/><use x="77.371887" xlink:href="#F" y="58.362439"/><use x="81.69503" xlink:href="#u" y="58.362439"/><use x="86.503683" xlink:href="#i" y="58.362439"/><use x="89.382964" xlink:href="#h" y="58.362439"/><use x="94.191617" xlink:href="#y" y="58.362439"/></g><path d="m157.433594 96.550781h-4.320313v-1.441406h4.320313m-8.644532 1.441406h-4.324218v-1.441406h4.324218m-8.648437 1.441406h-4.320313v-1.441406h4.320313m-8.644531 1.441406h-4.324219v-1.441406h4.324219m-8.648438 1.441406h-4.320312v-1.441406h4.320312m-8.644531 1.441406h-4.324219v-1.441406h4.324219m-8.644531 1.441406h-4.324219v-1.441406h4.324219m-8.648438 1.441406h-4.324218v-1.441406h4.324218m-8.644531 1.441406h-4.324219v-1.441406h4.324219m-8.648437 1.441406h-4.324219v-1.441406h4.324219m-8.644532 1.441406h-4.324218v-1.441406h4.324218m-8.648437 1.441406h-4.320313v-1.441406h4.320313m-8.644531 1.441406h-4.324219v-1.441406h4.324219m-8.648438 1.441406h-.546875v-1.441406h.546875"/><path d="m55.737435 132.997837 8.00199-3.995574-2.000498 3.995574 2.000498 4.000994zm0 0" stroke="#000" stroke-miterlimit="10" stroke-width="2" transform="scale(.720524)"/><g><use x="61.965059" xlink:href="#s" y="92.227064"/><use x="66.773712" xlink:href="#d" y="92.227064"/><use x="73.976136" xlink:href="#t" y="92.227064"/><use x="79.743142" xlink:href="#u" y="92.227064"/><use x="84.551795" xlink:href="#z" y="92.227064"/><use x="86.954011" xlink:href="#A" y="92.227064"/><use x="93.67937" xlink:href="#u" y="92.227064"/><use x="98.488023" xlink:href="#B" y="92.227064"/><use x="104.732095" xlink:href="#e" y="92.227064"/><use x="109.540748" xlink:href="#C" y="92.227064"/><use x="114.3494" xlink:href="#e" y="92.227064"/><use x="119.158053" xlink:href="#D" y="92.227064"/><use x="123.966706" xlink:href="#E" y="92.227064"/><use x="125.887634" xlink:href="#q" y="92.227064"/><use x="127.808562" xlink:href="#E" y="92.227064"/><use x="129.72949" xlink:href="#g" y="92.227064"/><use x="132.131706" xlink:href="#F" y="92.227064"/><use x="136.45485" xlink:href="#u" y="92.227064"/><use x="141.263503" xlink:href="#i" y="92.227064"/><use x="144.142784" xlink:href="#h" y="92.227064"/><use x="148.951437" xlink:href="#f" y="92.227064"/></g><path d="m173.002363 152.997389h36.757106" fill="none" stroke="#82b366" stroke-miterlimit="10" stroke-width="2" transform="scale(.720524)"/><path d="m155.460938 110.238281-5.765626 2.882813 1.441407-2.882813-1.441407-2.878906zm0 0" fill="#82b366"/><g clip-path="url(#c)"><path d="m215.760961 152.997389-8.001989 4.000995 2.000497-4.000995-2.000497-3.995573zm0 0" fill="none" stroke="#82b366" stroke-miterlimit="10" stroke-width="2" transform="scale(.720524)"/></g><path d="m49.799769 147.000087h121.401457c.238542 0 .466241.043372.688518.135535.222278.092164.412027.222278.585512.390341.168063.168064.298177.363234.390341.585512.086742.222277.135535.449976.135535.688518v8.397752c0 .238541-.048793.471662-.135535.688518-.092164.222277-.222278.417448-.390341.585511-.173485.168064-.363234.298177-.585512.390341-.222277.092164-.449976.135535-.688518.135535h-121.401457c-.238542 0-.466241-.043371-.688518-.135535-.222278-.092164-.417448-.222277-.585512-.390341-.168063-.168063-.298177-.363234-.390341-.585511-.092163-.216856-.135535-.449977-.135535-.688518v-8.397752c0-.238542.043372-.466241.135535-.688518.092164-.222278.222278-.417448.390341-.585512.168064-.168063.363234-.298177.585512-.390341.222277-.092163.449976-.135535.688518-.135535zm0 0" fill="#d5e8d4" stroke="#82b366" transform="matrix(.720524 0 0 .720524 .360262 .360262)"/><g><use x="38.761936" xlink:href="#U" y="112.401734"/><use x="43.567775" xlink:href="#V" y="112.401734"/><use x="45.168548" xlink:href="#W" y="112.401734"/><use x="51.170569" xlink:href="#X" y="112.401734"/><use x="55.177779" xlink:href="#Y" y="112.401734"/><use x="56.778553" xlink:href="#Z" y="112.401734"/><use x="60.785764" xlink:href="#aa" y="112.401734"/><use x="62.78761" xlink:href="#ab" y="112.401734"/><use x="67.593448" xlink:href="#ac" y="112.401734"/><use x="71.600659" xlink:href="#V" y="112.401734"/><use x="73.201432" xlink:href="#ad" y="112.401734"/><use x="75.600833" xlink:href="#V" y="112.401734"/><use x="77.201607" xlink:href="#ae" y="112.401734"/><use x="81.208818" xlink:href="#af" y="112.401734"/><use x="85.216028" xlink:href="#aa" y="112.401734"/><use x="87.217875" xlink:href="#ab" y="112.401734"/><use x="92.023713" xlink:href="#ad" y="112.401734"/><use x="94.423114" xlink:href="#ag" y="112.401734"/><use x="98.430325" xlink:href="#ah" y="112.401734"/><use x="102.032944" xlink:href="#Z" y="112.401734"/><use x="106.040155" xlink:href="#ai" y="112.401734"/><use x="110.047366" xlink:href="#aj" y="112.401734"/><use x="114.054577" xlink:href="#ad" y="112.401734"/><use x="116.453978" xlink:href="#Z" y="112.401734"/></g><g stroke="#82b366" stroke-miterlimit="10" stroke-width="2" transform="scale(.720524)"><path d="m16.242521 152.997389h31.758573" fill="none"/><path d="m10.241029 152.997389 7.996568-3.995573-1.995076 3.995573 1.995076 4.000995zm0 0" fill="#82b366"/></g></svg>