<svg height="100.079994pt" viewBox="0 0 163.919998 100.079994" width="163.919998pt" xmlns="http://www.w3.org/2000/svg" xmlns:xlink="http://www.w3.org/1999/xlink"><clipPath id="a"><path d="m0 0h163.921875v99.984375h-163.921875zm0 0"/></clipPath><clipPath id="b"><path d="m0 11h163.921875v86.824219h-163.921875zm0 0"/></clipPath><clipPath id="c"><path d="m134 53h29.921875v36h-29.921875zm0 0"/></clipPath><symbol id="d" overflow="visible"><path d="m.640625 0v-6.171875h1.234375l1.453125 4.375c.132813.40625.234375.710937.296875.90625.070312-.21875.179688-.546875.328125-.984375l1.484375-4.296875h1.09375v6.171875h-.78125v-5.171875l-1.796875 5.171875h-.734375l-1.796875-5.25v5.25zm0 0"/></symbol><symbol id="e" overflow="visible"><path d="m3.484375-.546875c-.28125.242187-.554687.40625-.8125.5-.261719.09375-.539063.140625-.828125.140625-.492188 0-.871094-.1171875-1.140625-.359375-.261719-.238281-.390625-.539063-.390625-.90625 0-.21875.046875-.414063.140625-.59375.101563-.1875.234375-.332031.390625-.4375.164062-.113281.347656-.203125.546875-.265625.15625-.03125.382813-.066406.6875-.109375.601563-.070313 1.050781-.160156 1.34375-.265625 0-.101562 0-.164062 0-.1875 0-.3125-.070313-.53125-.203125-.65625-.199219-.175781-.492188-.265625-.875-.265625-.355469 0-.617188.0625-.78125.1875-.167969.125-.292969.351563-.375.671875l-.75-.109375c.070312-.3125.179688-.5625.328125-.75.15625-.195313.378906-.347656.671875-.453125.289062-.113281.628906-.171875 1.015625-.171875.382813 0 .695313.046875.9375.140625.238281.09375.410156.210938.515625.34375.113281.136719.195312.308594.25.515625.019531.125.03125.355469.03125.6875v1.015625c0 .710938.015625 1.15625.046875 1.34375s.097656.367188.203125.53125h-.796875c-.085937-.15625-.136719-.335938-.15625-.546875zm-.0625-1.703125c-.273437.117188-.683594.214844-1.234375.296875-.3125.042969-.539062.09375-.671875.15625-.125.054687-.226563.136719-.296875.25-.0625.105469-.09375.21875-.09375.34375 0 .210937.070312.382813.21875.515625.15625.125.378906.1875.671875.1875.289063 0 .550781-.0625.78125-.1875.226563-.125.394531-.296875.5-.515625.082031-.175781.125-.429687.125-.765625zm0 0"/></symbol><symbol id="f" overflow="visible"><path d="m.265625-1.328125.75-.125c.039063.304687.15625.539063.34375.703125.195313.15625.46875.234375.8125.234375.351563 0 .613281-.070313.78125-.21875.164063-.144531.25-.3125.25-.5 0-.164063-.074219-.300781-.21875-.40625-.105469-.0625-.367187-.144531-.78125-.25-.554687-.144531-.9375-.265625-1.15625-.359375-.21875-.101562-.386719-.242188-.5-.421875-.105469-.1875-.15625-.390625-.15625-.609375 0-.195312.046875-.378906.140625-.546875.09375-.175781.21875-.320313.375-.4375.113281-.082031.269531-.15625.46875-.21875.207031-.0625.425781-.09375.65625-.09375.351562 0 .660156.054687.921875.15625.269531.105469.46875.246094.59375.421875.125.167969.210937.398438.265625.6875l-.75.09375c-.03125-.226562-.132812-.40625-.296875-.53125-.15625-.132812-.382813-.203125-.671875-.203125-.34375 0-.59375.058594-.75.171875-.148438.117188-.21875.25-.21875.40625 0 .105469.03125.195312.09375.265625.0625.085937.15625.152344.28125.203125.082031.03125.304688.09375.671875.1875.539063.148438.914063.265625 1.125.359375.21875.09375.382813.230469.5.40625.125.167969.1875.382813.1875.640625 0 .25-.078125.492188-.234375.71875-.148438.21875-.359375.390625-.640625.515625-.273437.1132812-.585937.171875-.9375.171875-.574219 0-1.015625-.1171875-1.328125-.359375-.304688-.238281-.496094-.59375-.578125-1.0625zm0 0"/></symbol><symbol id="g" overflow="visible"><path d="m2.21875-.671875.109375.65625c-.210937.0507812-.398437.078125-.5625.078125-.28125 0-.5-.0429688-.65625-.125-.148437-.09375-.25-.207031-.3125-.34375-.0625-.144531-.09375-.445312-.09375-.90625v-2.578125h-.546875v-.578125h.546875v-1.109375l.765625-.453125v1.5625h.75v.578125h-.75v2.625c0 .21875.007812.359375.03125.421875.03125.054688.070312.101562.125.140625.0625.03125.148438.046875.265625.046875.082031 0 .191406-.003906.328125-.015625zm0 0"/></symbol><symbol id="h" overflow="visible"><path d="m3.625-1.4375.78125.09375c-.117188.460938-.34375.8125-.6875 1.0625-.335938.25-.757812.375-1.265625.375-.65625 0-1.179687-.195312-1.5625-.59375-.386719-.40625-.578125-.972656-.578125-1.703125 0-.75.191406-1.332031.578125-1.75.394531-.414063.898437-.625 1.515625-.625.59375 0 1.078125.203125 1.453125.609375.382813.40625.578125.980469.578125 1.71875v.203125h-3.34375c.03125.492187.171875.871094.421875 1.140625.25.261719.5625.390625.9375.390625.28125 0 .515625-.070313.703125-.21875.195312-.144531.351562-.378906.46875-.703125zm-2.484375-1.234375h2.5c-.03125-.375-.125-.65625-.28125-.84375-.25-.289063-.570313-.4375-.953125-.4375-.34375 0-.636719.121094-.875.359375-.242188.230469-.371094.539062-.390625.921875zm0 0"/></symbol><symbol id="i" overflow="visible"><path d="m.5625 0v-4.46875h.6875v.671875c.164062-.3125.320312-.519531.46875-.625.15625-.101563.320312-.15625.5-.15625.25 0 .503906.085937.765625.25l-.25.703125c-.1875-.113281-.375-.171875-.5625-.171875-.167969 0-.320313.054687-.453125.15625-.125.105469-.21875.246094-.28125.421875-.085938.261719-.125.554688-.125.875v2.34375zm0 0"/></symbol><symbol id="j" overflow="visible"/><symbol id="k" overflow="visible"><path d="m2.015625 1.8125c-.417969-.53125-.773437-1.148438-1.0625-1.84375-.292969-.707031-.4375-1.441406-.4375-2.203125 0-.664063.109375-1.304687.328125-1.921875.25-.707031.640625-1.414062 1.171875-2.125h.546875c-.34375.585938-.570312 1-.671875 1.25-.179687.386719-.3125.792969-.40625 1.21875-.125.523438-.1875 1.046875-.1875 1.578125 0 1.355469.421875 2.703125 1.265625 4.046875zm0 0"/></symbol><symbol id="l" overflow="visible"><path d="m-.015625 0 2.375-6.171875h.875l2.53125 6.171875h-.9375l-.71875-1.875h-2.578125l-.671875 1.875zm1.78125-2.53125h2.09375l-.640625-1.71875c-.199219-.519531-.34375-.945312-.4375-1.28125-.085938.398438-.195312.792969-.328125 1.1875zm0 0"/></symbol><symbol id="m" overflow="visible"><path d="m3.484375-1.640625.75.09375c-.085937.523437-.292969.929687-.625 1.21875-.335937.28125-.746094.421875-1.234375.421875-.617188 0-1.109375-.195312-1.484375-.59375-.367187-.394531-.546875-.96875-.546875-1.71875 0-.476562.078125-.898438.234375-1.265625.15625-.363281.394531-.632813.71875-.8125.332031-.1875.691406-.28125 1.078125-.28125.488281 0 .882812.125 1.1875.375.3125.242187.507812.589844.59375 1.046875l-.734375.109375c-.074219-.300781-.199219-.523437-.375-.671875-.179687-.15625-.390625-.234375-.640625-.234375-.386719 0-.699219.140625-.9375.421875-.242188.273438-.359375.703125-.359375 1.296875s.113281 1.03125.34375 1.3125c.238281.273437.539063.40625.90625.40625.300781 0 .550781-.085937.75-.265625.195313-.1875.320313-.472656.375-.859375zm0 0"/></symbol><symbol id="n" overflow="visible"><path d="m.578125 0v-6.171875h.75v3.515625l1.796875-1.8125h.984375l-1.71875 1.65625 1.890625 2.8125h-.9375l-1.484375-2.28125-.53125.515625v1.765625zm0 0"/></symbol><symbol id="o" overflow="visible"><path d="m1.0625 1.8125h-.546875c.84375-1.34375 1.265625-2.691406 1.265625-4.046875 0-.53125-.0625-1.050781-.1875-1.5625-.09375-.425781-.226562-.832031-.390625-1.21875-.117187-.25-.34375-.671875-.6875-1.265625h.546875c.53125.710938.921875 1.417969 1.171875 2.125.21875.617188.328125 1.257812.328125 1.921875 0 .761719-.148438 1.496094-.4375 2.203125-.292969.695312-.648438 1.3125-1.0625 1.84375zm0 0"/></symbol><symbol id="p" overflow="visible"><path d="m.390625-1.984375.765625-.0625c.039062.304687.125.554687.25.75.132812.199219.34375.359375.625.484375s.597656.1875.953125.1875c.3125 0 .585937-.046875.828125-.140625.238281-.09375.414062-.21875.53125-.375.113281-.164063.171875-.34375.171875-.53125 0-.195313-.058594-.367187-.171875-.515625-.117188-.144531-.296875-.265625-.546875-.359375-.167969-.0625-.539063-.160156-1.109375-.296875-.5625-.132812-.960938-.265625-1.1875-.390625-.292969-.15625-.511719-.347656-.65625-.578125-.148438-.226562-.21875-.484375-.21875-.765625 0-.3125.085938-.601563.265625-.875.175781-.269531.429687-.472656.765625-.609375.34375-.144531.722656-.21875 1.140625-.21875.457031 0 .859375.074219 1.203125.21875.351562.148438.625.367188.8125.65625.1875.28125.285156.605469.296875.96875l-.78125.0625c-.042969-.394531-.183594-.691406-.421875-.890625-.242188-.195313-.601562-.296875-1.078125-.296875-.492187 0-.851563.09375-1.078125.28125-.230469.179688-.34375.398438-.34375.65625 0 .21875.082031.402344.25.546875.15625.136719.5625.28125 1.21875.4375.664062.148437 1.125.277344 1.375.390625.351562.167969.613281.382812.78125.640625.175781.25.265625.539063.265625.859375 0 .335938-.09375.648438-.28125.9375-.1875.292969-.460937.523438-.8125.6875-.34375.15625-.742187.234375-1.1875.234375-.554687 0-1.023437-.0859375-1.40625-.25-.375-.164063-.671875-.410156-.890625-.734375-.210938-.320312-.320312-.691406-.328125-1.109375zm0 0"/></symbol><symbol id="q" overflow="visible"><path d="m.546875 0v-6.171875h.765625v6.171875zm0 0"/></symbol><symbol id="r" overflow="visible"><path d="m1.8125 0-1.703125-4.46875h.796875l.96875 2.671875c.101562.292969.195312.59375.28125.90625.0625-.238281.15625-.523437.28125-.859375l1-2.71875h.78125l-1.703125 4.46875zm0 0"/></symbol><symbol id="s" overflow="visible"><path d="m.625 0v-6.171875h.828125v5.4375h3.03125v.734375zm0 0"/></symbol><symbol id="t" overflow="visible"><path d="m.671875 0v-6.171875h2.328125c.40625 0 .71875.023437.9375.0625.300781.042969.550781.136719.75.28125.207031.148437.375.351563.5.609375.125.25.1875.527344.1875.828125 0 .53125-.167969.980469-.5 1.34375-.335938.355469-.9375.53125-1.8125.53125h-1.578125v2.515625zm.8125-3.234375h1.59375c.53125 0 .90625-.097656 1.125-.296875.21875-.195312.328125-.472656.328125-.828125 0-.257813-.070312-.476563-.203125-.65625-.125-.1875-.292969-.3125-.5-.375-.136719-.039063-.390625-.0625-.765625-.0625h-1.578125zm0 0"/></symbol><symbol id="u" overflow="visible"><path d="m-.125 1.71875v-.546875h5.015625v.546875zm0 0"/></symbol><symbol id="v" overflow="visible"><path d="m.75 0v-3.890625h-.671875v-.578125h.671875v-.484375c0-.300781.023438-.523437.078125-.671875.070313-.1875.195313-.34375.375-.46875.1875-.125.445313-.1875.78125-.1875.21875 0 .457031.027344.71875.078125l-.125.65625c-.15625-.019531-.304687-.03125-.4375-.03125-.230469 0-.398437.046875-.5.140625-.09375.09375-.140625.277344-.140625.546875v.421875h.875v.578125h-.875v3.890625zm0 0"/></symbol><symbol id="w" overflow="visible"><path d="m3.5 0v-.65625c-.34375.5-.820312.75-1.421875.75-.261719 0-.507813-.046875-.734375-.140625-.230469-.101563-.402344-.226563-.515625-.375-.105469-.15625-.183594-.347656-.234375-.578125-.03125-.144531-.046875-.378906-.046875-.703125v-2.765625h.765625v2.484375c0 .398437.015625.664063.046875.796875.039063.199219.140625.355469.296875.46875.15625.117188.347656.171875.578125.171875.226563 0 .441406-.054687.640625-.171875.195312-.125.335938-.285156.421875-.484375.082031-.195313.125-.488281.125-.875v-2.390625h.75v4.46875zm0 0"/></symbol><symbol id="x" overflow="visible"><path d="m3.421875 1.71875v-2.1875c-.117187.15625-.28125.292969-.5.40625-.210937.1015625-.433594.15625-.671875.15625-.53125 0-.992188-.207031-1.375-.625-.386719-.425781-.578125-1.007812-.578125-1.75 0-.445312.078125-.847656.234375-1.203125.15625-.351563.378906-.625.671875-.8125.300781-.1875.628906-.28125.984375-.28125.550781 0 .988281.234375 1.3125.703125v-.59375h.671875v6.1875zm-2.34375-3.96875c0 .574219.117187 1.007812.359375 1.296875.25.292969.539062.4375.875.4375.320312 0 .597656-.132813.828125-.40625.238281-.28125.359375-.703125.359375-1.265625 0-.59375-.125-1.035156-.375-1.328125-.242188-.300781-.527344-.453125-.859375-.453125-.335937 0-.617187.140625-.84375.421875-.230469.273437-.34375.703125-.34375 1.296875zm0 0"/></symbol><symbol id="y" overflow="visible"><path d="m.5625 1.71875v-6.1875h.703125v.578125c.15625-.226563.335937-.398437.546875-.515625.207031-.113281.457031-.171875.75-.171875.375 0 .707031.101563 1 .296875.289062.199219.507812.480469.65625.84375.15625.355469.234375.746094.234375 1.171875 0 .460937-.085937.871094-.25 1.234375-.167969.367188-.40625.648438-.71875.84375-.3125.1875-.640625.28125-.984375.28125-.25 0-.480469-.0546875-.6875-.15625-.199219-.101562-.359375-.238281-.484375-.40625v2.1875zm.6875-3.9375c0 .585938.113281 1.015625.34375 1.296875.238281.273437.523438.40625.859375.40625.332031 0 .617187-.140625.859375-.421875.238281-.289062.359375-.738281.359375-1.34375 0-.5625-.121094-.984375-.359375-1.265625-.230469-.289063-.507812-.4375-.828125-.4375-.324219 0-.609375.152344-.859375.453125-.25.304688-.375.742188-.375 1.3125zm0 0"/></symbol><symbol id="z" overflow="visible"><path d="m.28125-2.234375c0-.832031.234375-1.445313.703125-1.84375.375-.332031.84375-.5 1.40625-.5.613281 0 1.113281.203125 1.5.609375.394531.40625.59375.964844.59375 1.671875 0 .574219-.089844 1.027344-.265625 1.359375-.179688.324219-.433594.578125-.765625.765625-.324219.17578125-.679687.265625-1.0625.265625-.636719 0-1.148437-.195312-1.53125-.59375-.386719-.40625-.578125-.984375-.578125-1.734375zm.78125 0c0 .574219.125 1.007813.375 1.296875.25.28125.566406.421875.953125.421875.375 0 .6875-.140625.9375-.421875.25-.289062.375-.734375.375-1.328125 0-.550781-.132813-.96875-.390625-1.25-.25-.289063-.558594-.4375-.921875-.4375-.386719 0-.703125.148437-.953125.4375-.25.28125-.375.710937-.375 1.28125zm0 0"/></symbol><symbol id="A" overflow="visible"><path d="m.5625 0v-4.46875h.6875v.625c.332031-.488281.804688-.734375 1.421875-.734375.269531 0 .515625.054687.734375.15625.226562.09375.398438.21875.515625.375.113281.15625.191406.34375.234375.5625.03125.136719.046875.382813.046875.734375v2.75h-.765625v-2.71875c0-.3125-.03125-.539062-.09375-.6875-.054688-.15625-.15625-.28125-.3125-.375-.148438-.09375-.320312-.140625-.515625-.140625-.324219 0-.605469.105469-.84375.3125-.230469.210937-.34375.601563-.34375 1.171875v2.4375zm0 0"/></symbol><symbol id="B" overflow="visible"><path d="m.5625 0v-4.46875h.6875v.625c.132812-.21875.316406-.394531.546875-.53125.238281-.132812.507813-.203125.8125-.203125.320313 0 .585937.074219.796875.21875.21875.136719.367188.324219.453125.5625.351563-.519531.816406-.78125 1.390625-.78125.4375 0 .773438.125 1.015625.375.238281.242187.359375.621094.359375 1.140625v3.0625h-.75v-2.8125c0-.300781-.027344-.519531-.078125-.65625-.042969-.132812-.132813-.242188-.265625-.328125-.125-.082031-.277344-.125-.453125-.125-.3125 0-.574219.105469-.78125.3125-.210937.210937-.3125.546875-.3125 1.015625v2.59375h-.765625v-2.90625c0-.332031-.0625-.582031-.1875-.75-.117188-.175781-.3125-.265625-.59375-.265625-.21875 0-.417969.058594-.59375.171875-.179688.117188-.308594.28125-.390625.5-.085937.210938-.125.515625-.125.921875v2.328125zm0 0"/></symbol><symbol id="C" overflow="visible"><path d="m.0625 0 1.640625-2.328125-1.515625-2.140625h.953125l.671875 1.046875c.132812.199219.238281.367187.3125.5.125-.1875.238281-.351563.34375-.5l.75-1.046875h.90625l-1.546875 2.109375 1.671875 2.359375h-.9375l-.90625-1.390625-.25-.375-1.171875 1.765625zm0 0"/></symbol><symbol id="D" overflow="visible"><path d="m.515625 0v-.578125h.578125v.578125zm0 0"/></symbol><symbol id="E" overflow="visible"><path d="m-.015625 0 1.59375-4.109375h.578125l1.6875 4.109375h-.625l-.46875-1.25h-1.734375l-.453125 1.25zm1.1875-1.6875h1.40625l-.4375-1.140625c-.125-.34375-.21875-.628906-.28125-.859375-.054687.273438-.132813.539062-.234375.796875zm0 0"/></symbol><symbol id="F" overflow="visible"><path d="m3.375-1.4375.546875.125c-.117187.449219-.324219.792969-.625 1.03125-.292969.2304688-.652344.34375-1.078125.34375-.4375 0-.796875-.0859375-1.078125-.265625-.28125-.175781-.496094-.4375-.640625-.78125-.148438-.34375-.21875-.710937-.21875-1.109375 0-.425781.082031-.796875.25-1.109375.164062-.320313.398438-.566406.703125-.734375.300781-.164062.632813-.25 1-.25.40625 0 .75.105469 1.03125.3125.28125.210938.476563.507812.59375.890625l-.546875.125c-.09375-.300781-.234375-.519531-.421875-.65625-.179687-.132813-.402344-.203125-.671875-.203125-.3125 0-.578125.078125-.796875.234375-.210937.148437-.359375.351563-.453125.609375-.085938.25-.125.511719-.125.78125 0 .355469.050781.664062.15625.921875.101562.261719.257812.460937.46875.59375.21875.125.453125.1875.703125.1875.3125 0 .570313-.085937.78125-.265625.207031-.175781.347656-.4375.421875-.78125zm0 0"/></symbol><symbol id="G" overflow="visible"><path d="m.421875 0v-4.109375h.546875v3.625h2.03125v.484375zm0 0"/></symbol><symbol id="H" overflow="visible"/><symbol id="I" overflow="visible"><path d="m.453125 0v-4.109375h.546875v1.6875h2.140625v-1.6875h.546875v4.109375h-.546875v-1.9375h-2.140625v1.9375zm0 0"/></symbol><symbol id="J" overflow="visible"><path d="m2.3125 0v-.375c-.1875.2929688-.464844.4375-.828125.4375-.242187 0-.460937-.0625-.65625-.1875-.199219-.132812-.355469-.316406-.46875-.546875-.105469-.238281-.15625-.507813-.15625-.8125 0-.300781.046875-.570313.140625-.8125.101562-.238281.253906-.421875.453125-.546875.195313-.132812.414063-.203125.65625-.203125.1875 0 .347656.039063.484375.109375.132812.074219.25.171875.34375.296875v-1.46875h.5v4.109375zm-1.59375-1.484375c0 .375.078125.664063.234375.859375.164063.1875.359375.28125.578125.28125s.40625-.085938.5625-.265625c.15625-.1875.234375-.46875.234375-.84375 0-.40625-.085937-.703125-.25-.890625-.15625-.1875-.351563-.28125-.578125-.28125-.21875 0-.40625.09375-.5625.28125-.148438.179688-.21875.464844-.21875.859375zm0 0"/></symbol><symbol id="K" overflow="visible"><path d="m.375 0v-2.984375h.453125v.453125c.113281-.207031.21875-.34375.3125-.40625.101563-.070312.210937-.109375.328125-.109375.175781 0 .351562.054687.53125.15625l-.1875.46875c-.117188-.070313-.234375-.109375-.359375-.109375-.117187 0-.21875.039062-.3125.109375-.085937.0625-.140625.152344-.171875.265625-.0625.1875-.09375.386719-.09375.59375v1.5625zm0 0"/></symbol><symbol id="L" overflow="visible"><path d="m.421875 0v-4.109375h1.546875c.3125 0 .5625.042969.75.125.1875.085937.332031.214844.4375.390625.113281.167969.171875.34375.171875.53125 0 .179688-.046875.34375-.140625.5s-.242188.28125-.4375.375c.25.074219.441406.199219.578125.375.132813.179688.203125.386719.203125.625 0 .1875-.042969.367188-.125.53125-.085938.167969-.1875.296875-.3125.390625-.117188.085937-.261719.152344-.4375.203125-.179688.0429688-.402344.0625-.671875.0625zm.546875-2.390625h.890625c.238281 0 .410156-.015625.515625-.046875.132812-.039062.238281-.109375.3125-.203125.070312-.09375.109375-.210937.109375-.359375 0-.132812-.039063-.253906-.109375-.359375-.0625-.101563-.15625-.171875-.28125-.203125-.117188-.039062-.324219-.0625-.625-.0625h-.8125zm0 1.90625h1.015625c.175781 0 .300781-.003906.375-.015625.125-.03125.226563-.070312.3125-.125.082031-.050781.148437-.125.203125-.21875.0625-.101562.09375-.21875.09375-.34375 0-.15625-.042969-.289062-.125-.40625-.074219-.113281-.183594-.191406-.328125-.234375-.136719-.050781-.335937-.078125-.59375-.078125h-.953125zm0 0"/></symbol><symbol id="M" overflow="visible"><path d="m.25-2.03125c0-.414062.0625-.769531.1875-1.0625.09375-.207031.21875-.394531.375-.5625.164062-.164062.347656-.285156.546875-.359375.25-.113281.539063-.171875.875-.171875.613281 0 1.101563.1875 1.46875.5625.363281.375.546875.902344.546875 1.578125 0 .65625-.183594 1.171875-.546875 1.546875-.367187.375-.851563.5625-1.453125.5625-.617188 0-1.105469-.179688-1.46875-.546875-.355469-.375-.53125-.890625-.53125-1.546875zm.859375-.03125c0 .46875.101563.824219.3125 1.0625.21875.242188.492187.359375.828125.359375.332031 0 .601562-.117187.8125-.359375.21875-.238281.328125-.597656.328125-1.078125 0-.46875-.105469-.816406-.3125-1.046875-.210937-.226562-.484375-.34375-.828125-.34375s-.621094.121094-.828125.359375c-.210937.230469-.3125.578125-.3125 1.046875zm0 0"/></symbol><symbol id="N" overflow="visible"><path d="m.390625-2.984375h.734375v.4375c.09375-.144531.21875-.265625.375-.359375.164062-.09375.351562-.140625.5625-.140625.34375 0 .632812.136719.875.40625.238281.273437.359375.652344.359375 1.140625 0 .492188-.125.875-.375 1.15625-.242187.2734375-.53125.40625-.875.40625-.167969 0-.320313-.03125-.453125-.09375-.125-.0625-.265625-.175781-.421875-.34375v1.515625h-.78125zm.78125 1.4375c0 .34375.0625.59375.1875.75.132813.15625.300781.234375.5.234375.175781 0 .328125-.070312.453125-.21875.125-.144531.1875-.382812.1875-.71875 0-.3125-.0625-.539062-.1875-.6875-.125-.15625-.28125-.234375-.46875-.234375-.199219 0-.359375.074219-.484375.21875-.125.148437-.1875.367187-.1875.65625zm0 0"/></symbol><symbol id="O" overflow="visible"><path d="m3.015625-2.09375-.78125.140625c-.023437-.15625-.078125-.269531-.171875-.34375-.09375-.082031-.214844-.125-.359375-.125-.199219 0-.359375.070313-.484375.203125-.117188.136719-.171875.359375-.171875.671875 0 .355469.054687.605469.171875.75.125.148437.285156.21875.484375.21875.15625 0 .28125-.039063.375-.125.09375-.082031.160156-.226563.203125-.4375l.765625.125c-.074219.355469-.226563.625-.453125.8125-.230469.1796875-.539062.265625-.921875.265625-.4375 0-.789063-.1328125-1.046875-.40625-.261719-.28125-.390625-.660156-.390625-1.140625 0-.488281.128906-.867187.390625-1.140625.257812-.28125.613281-.421875 1.0625-.421875.363281 0 .648438.078125.859375.234375.21875.15625.375.398438.46875.71875zm0 0"/></symbol><symbol id="P" overflow="visible"><path d="m.234375-1.53125c0-.257812.0625-.507812.1875-.75.132813-.25.316406-.4375.546875-.5625.238281-.132812.503906-.203125.796875-.203125.445313 0 .816406.148437 1.109375.4375.289062.292969.4375.664063.4375 1.109375 0 .449219-.148438.824219-.4375 1.125-.292969.2929688-.664062.4375-1.109375.4375-.273437 0-.53125-.05859375-.78125-.171875-.242187-.125-.429687-.304687-.5625-.546875-.125-.238281-.1875-.53125-.1875-.875zm.796875.046875c0 .292969.066406.515625.203125.671875.144531.15625.320313.234375.53125.234375.207031 0 .378906-.078125.515625-.234375.144531-.15625.21875-.382812.21875-.6875 0-.289062-.074219-.515625-.21875-.671875-.136719-.15625-.308594-.234375-.515625-.234375-.210937 0-.386719.078125-.53125.234375-.136719.15625-.203125.386719-.203125.6875zm0 0"/></symbol><symbol id="Q" overflow="visible"><path d="m3.140625 0h-.71875v-.4375c-.125.167969-.273437.292969-.4375.375-.167969.0820312-.335937.125-.5.125-.34375 0-.640625-.1328125-.890625-.40625-.242188-.28125-.359375-.664062-.359375-1.15625 0-.507812.117187-.894531.359375-1.15625.238281-.257812.539062-.390625.90625-.390625.332031 0 .617188.136719.859375.40625v-1.46875h.78125zm-2.09375-1.5625c0 .324219.039063.558594.125.703125.125.199219.300781.296875.53125.296875.1875 0 .34375-.070312.46875-.21875.125-.15625.1875-.390625.1875-.703125 0-.34375-.0625-.585937-.1875-.734375-.125-.15625-.28125-.234375-.46875-.234375s-.34375.078125-.46875.234375c-.125.148438-.1875.367188-.1875.65625zm0 0"/></symbol><symbol id="R" overflow="visible"><path d="m2.140625-.953125.78125.140625c-.09375.28125-.25.5-.46875.65625-.21875.1484375-.496094.21875-.828125.21875-.523438 0-.902344-.164062-1.140625-.5-.199219-.269531-.296875-.613281-.296875-1.03125 0-.488281.125-.875.375-1.15625.257812-.28125.585938-.421875.984375-.421875.445313 0 .796875.148437 1.046875.4375.257812.292969.382812.742187.375 1.34375h-1.984375c.007813.242187.070313.429687.1875.5625.125.125.28125.1875.46875.1875.125 0 .226563-.03125.3125-.09375.082031-.070313.144531-.1875.1875-.34375zm.046875-.796875c-.011719-.226562-.074219-.398438-.1875-.515625-.105469-.125-.242188-.1875-.40625-.1875-.167969 0-.308594.070313-.421875.203125-.117187.125-.171875.292969-.171875.5zm0 0"/></symbol><symbol id="S" overflow="visible"><path d="m1.71875 1.203125h-.546875c-.28125-.429687-.5-.875-.65625-1.34375-.148437-.46875-.21875-.914063-.21875-1.34375 0-.539063.09375-1.054687.28125-1.546875.15625-.414062.359375-.800781.609375-1.15625h.546875c-.261719.574219-.4375 1.058594-.53125 1.453125-.09375.398437-.140625.820313-.140625 1.265625 0 .304688.023438.617188.078125.9375.0625.324219.140625.6289062.234375.921875.0625.1875.175781.457031.34375.8125zm0 0"/></symbol><symbol id="T" overflow="visible"><path d="m.921875-2.21875c-.210937-.082031-.359375-.195312-.453125-.34375-.085938-.15625-.125-.328125-.125-.515625 0-.300781.101562-.550781.3125-.75.21875-.207031.523438-.3125.921875-.3125.382813 0 .6875.105469.90625.3125.21875.199219.328125.449219.328125.75 0 .199219-.054688.371094-.15625.515625-.09375.148438-.234375.261719-.421875.34375.226563.09375.398437.230469.515625.40625.125.167969.1875.371094.1875.609375 0 .375-.121094.683594-.359375.921875-.242187.2421875-.5625.359375-.96875.359375-.375 0-.6875-.0976562-.9375-.296875-.292969-.226562-.4375-.546875-.4375-.953125 0-.226563.050781-.429687.15625-.609375.113281-.1875.289063-.332031.53125-.4375zm.15625-.796875c0 .15625.039063.28125.125.375.09375.085937.21875.125.375.125.144531 0 .257813-.039063.34375-.125.09375-.09375.140625-.21875.140625-.375 0-.144531-.046875-.257813-.140625-.34375-.085937-.09375-.199219-.140625-.34375-.140625-.148437 0-.265625.046875-.359375.140625-.09375.085937-.140625.199219-.140625.34375zm-.0625 1.765625c0 .21875.050781.390625.15625.515625.113281.117187.253906.171875.421875.171875.164062 0 .300781-.054688.40625-.171875.101562-.113281.15625-.285156.15625-.515625 0-.1875-.058594-.335938-.171875-.453125-.105469-.125-.242187-.1875-.40625-.1875-.1875 0-.328125.070313-.421875.203125-.09375.136719-.140625.28125-.140625.4375zm0 0"/></symbol><symbol id="U" overflow="visible"><path d="m1.796875 0v-.828125h-1.6875v-.6875l1.78125-2.625h.671875v2.625h.5v.6875h-.5v.828125zm0-1.515625v-1.40625l-.953125 1.40625zm0 0"/></symbol><symbol id="V" overflow="visible"><path d="m.1875 1.203125c.15625-.335937.265625-.589844.328125-.765625.070313-.179688.132813-.3828125.1875-.609375.050781-.226563.085937-.445313.109375-.65625.03125-.207031.046875-.421875.046875-.640625 0-.445312-.046875-.867188-.140625-1.265625-.09375-.394531-.273438-.878906-.53125-1.453125h.53125c.28125.40625.5.835938.65625 1.28125.164062.449219.25.90625.25 1.375 0 .386719-.0625.804688-.1875 1.25-.148438.507812-.382812 1.003906-.703125 1.484375zm0 0"/></symbol><symbol id="W" overflow="visible"/><symbol id="X" overflow="visible"><path d="m.40625-4.109375h.84375v2.21875c0 .355469.007812.585937.03125.6875.03125.167969.113281.304687.25.40625.132812.105469.316406.15625.546875.15625.238281 0 .414063-.046875.53125-.140625.125-.09375.195313-.207031.21875-.34375.019531-.144531.03125-.382812.03125-.71875v-2.265625h.828125v2.15625c0 .492187-.023438.839844-.0625 1.046875-.042969.210938-.125.382812-.25.515625-.117188.136719-.277344.246094-.484375.328125-.199219.0820312-.460937.125-.78125.125-.398437 0-.699219-.0429688-.90625-.125-.199219-.09375-.359375-.210938-.484375-.359375-.117188-.144531-.1875-.296875-.21875-.453125-.0625-.238281-.09375-.585938-.09375-1.046875zm0 0"/></symbol><symbol id="Y" overflow="visible"><path d="m3.125 0h-.78125v-1.515625c0-.320313-.023438-.53125-.0625-.625-.03125-.09375-.089844-.164063-.171875-.21875-.074219-.0625-.164063-.09375-.265625-.09375-.136719 0-.261719.042969-.375.125-.105469.074219-.179688.171875-.21875.296875-.03125.125-.046875.355469-.046875.6875v1.34375h-.796875v-2.984375h.734375v.4375c.257813-.332031.585937-.5.984375-.5.175781 0 .332031.03125.46875.09375.144531.0625.253906.148437.328125.25.070313.09375.125.203125.15625.328125.03125.117188.046875.289062.046875.515625zm0 0"/></symbol><symbol id="Z" overflow="visible"><path d="m.390625 0v-4.109375h.78125v2.171875l.921875-1.046875h.96875l-1.015625 1.09375 1.09375 1.890625h-.84375l-.75-1.34375-.375.390625v.953125zm0 0"/></symbol><symbol id="aa" overflow="visible"><path d="m.96875 0-.9375-2.984375h.765625l.546875 1.953125.515625-1.953125h.765625l.5 1.953125.5625-1.953125h.78125l-.953125 2.984375h-.765625l-.515625-1.921875-.5 1.921875zm0 0"/></symbol><symbol id="ab" overflow="visible"><path d="m.421875 0v-4.109375h1.328125c.507812 0 .835938.023437.984375.0625.238281.054687.4375.183594.59375.390625.164063.210938.25.480469.25.8125 0 .25-.046875.464844-.140625.640625-.09375.167969-.214844.304687-.359375.40625-.136719.09375-.277344.15625-.421875.1875-.199219.042969-.484375.0625-.859375.0625h-.546875v1.546875zm.828125-3.421875v1.171875h.453125c.332031 0 .550781-.019531.65625-.0625.113281-.039062.203125-.109375.265625-.203125s.09375-.203125.09375-.328125c0-.144531-.046875-.265625-.140625-.359375-.085937-.101563-.195313-.164063-.328125-.1875-.105469-.019531-.304688-.03125-.59375-.03125zm0 0"/></symbol><symbol id="ac" overflow="visible"><path d="m.421875-4.109375h1.515625c.34375 0 .601562.027344.78125.078125.238281.0625.441406.1875.609375.375.175781.179688.304687.402344.390625.671875.09375.261719.140625.585937.140625.96875 0 .335937-.042969.625-.125.875-.105469.304687-.25.542969-.4375.71875-.148437.148437-.339844.257813-.578125.328125-.1875.0625-.433594.09375-.734375.09375h-1.5625zm.828125.6875v2.734375h.609375c.238281 0 .410156-.015625.515625-.046875.132812-.03125.242188-.085937.328125-.171875.09375-.082031.164063-.210938.21875-.390625.050781-.1875.078125-.441406.078125-.765625 0-.3125-.027344-.550781-.078125-.71875-.054687-.175781-.132813-.3125-.234375-.40625-.105469-.09375-.234375-.15625-.390625-.1875-.117187-.03125-.339844-.046875-.671875-.046875zm0 0"/></symbol><symbol id="ad" overflow="visible"><path d="m1.296875 0v-3.171875h-1.171875v-.421875h2.84375v.421875h-1.1875v3.171875zm0 0"/></symbol><symbol id="ae" overflow="visible"><path d="m.46875 0v-3.59375h.484375v3.59375zm0 0"/></symbol><symbol id="af" overflow="visible"><path d="m.390625 0v-3.59375h1.234375c.28125 0 .492188.015625.640625.046875.207031.042969.382813.125.53125.25.1875.167969.328125.375.421875.625s.140625.53125.140625.84375c0 .28125-.03125.527344-.09375.734375-.0625.210938-.148437.386719-.25.53125-.09375.136719-.203125.246094-.328125.328125-.117188.074219-.257812.132813-.421875.171875-.167969.0429688-.359375.0625-.578125.0625zm.46875-.421875h.78125c.226563 0 .410156-.019531.546875-.0625.132812-.050781.242188-.113281.328125-.1875.113281-.113281.203125-.265625.265625-.453125.0625-.195312.09375-.429688.09375-.703125 0-.375-.0625-.660156-.1875-.859375-.125-.207031-.277344-.347656-.453125-.421875-.125-.039063-.328125-.0625-.609375-.0625h-.765625zm0 0"/></symbol><symbol id="ag" overflow="visible"><path d="m.515625-5.140625h1.90625c.425781 0 .75.03125.96875.09375.300781.09375.5625.257813.78125.484375.21875.21875.378906.496094.484375.828125.113281.324219.171875.730469.171875 1.21875 0 .417969-.054687.78125-.15625 1.09375-.125.375-.308594.679687-.546875.90625-.179688.179687-.421875.3125-.734375.40625-.230469.0742188-.539063.109375-.921875.109375h-1.953125zm1.046875.859375v3.421875h.765625c.289063 0 .503906-.019531.640625-.0625.164062-.039063.300781-.109375.40625-.203125.113281-.101562.207031-.269531.28125-.5.070312-.226562.109375-.539062.109375-.9375 0-.40625-.039063-.710938-.109375-.921875-.074219-.207031-.171875-.367187-.296875-.484375-.125-.125-.289063-.207031-.484375-.25-.148438-.039062-.429688-.0625-.84375-.0625zm0 0"/></symbol><symbol id="ah" overflow="visible"><path d="m2.671875-1.1875.984375.171875c-.125.355469-.324219.625-.59375.8125-.273438.1875-.617188.28125-1.03125.28125-.648438 0-1.125-.207031-1.4375-.625-.242188-.34375-.359375-.769531-.359375-1.28125 0-.625.160156-1.109375.484375-1.453125.320312-.351562.726562-.53125 1.21875-.53125.550781 0 .988281.183594 1.3125.546875.320312.367187.472656.929687.453125 1.6875h-2.46875c.007813.292969.085937.523437.234375.6875.15625.15625.347656.234375.578125.234375.15625 0 .285156-.039062.390625-.125.101562-.082031.179688-.21875.234375-.40625zm.0625-1c-.011719-.28125-.089844-.492188-.234375-.640625-.136719-.15625-.304688-.234375-.5-.234375-.21875 0-.398438.078125-.53125.234375-.148438.15625-.21875.371094-.21875.640625zm0 0"/></symbol><symbol id="ai" overflow="visible"><path d="m1.25-2.59375-.890625-.15625c.101563-.363281.273437-.628906.515625-.796875.25-.175781.613281-.265625 1.09375-.265625.4375 0 .765625.054688.984375.15625.21875.105469.367187.242188.453125.40625.09375.15625.140625.449219.140625.875l-.015625 1.15625c0 .324219.015625.5625.046875.71875s.085937.324219.171875.5h-.96875c-.03125-.0625-.0625-.160156-.09375-.296875-.023438-.050781-.03125-.085937-.03125-.109375-.179688.167969-.359375.292969-.546875.375-.1875.0703125-.390625.109375-.609375.109375-.386719 0-.695312-.1015625-.921875-.3125-.21875-.207031-.328125-.46875-.328125-.78125 0-.207031.050781-.394531.15625-.5625.101562-.164063.242188-.289063.421875-.375.1875-.09375.445313-.171875.78125-.234375.46875-.082031.789063-.164062.96875-.25v-.09375c0-.1875-.046875-.320312-.140625-.40625-.09375-.082031-.273438-.125-.53125-.125-.179688 0-.320312.039062-.421875.109375-.09375.074219-.171875.195313-.234375.359375zm1.328125.796875c-.125.042969-.328125.09375-.609375.15625-.273438.0625-.449219.121094-.53125.171875-.125.09375-.1875.210938-.1875.34375 0 .148438.046875.273438.140625.375.101563.09375.238281.140625.40625.140625.175781 0 .34375-.054687.5-.171875.125-.09375.203125-.203125.234375-.328125.03125-.082031.046875-.242187.046875-.484375zm0 0"/></symbol><symbol id="aj" overflow="visible"><path d="m3.9375 0h-.921875v-.546875c-.148437.210937-.324219.367187-.53125.46875-.210937.1015625-.417969.15625-.625.15625-.4375 0-.808594-.171875-1.109375-.515625-.304688-.34375-.453125-.820312-.453125-1.4375 0-.632812.144531-1.113281.4375-1.4375.300781-.332031.675781-.5 1.125-.5.414063 0 .78125.171875 1.09375.515625v-1.84375h.984375zm-2.640625-1.9375c0 .398438.054687.683594.171875.859375.15625.261719.378906.390625.671875.390625.21875 0 .40625-.097656.5625-.296875.164063-.195313.25-.484375.25-.859375 0-.425781-.078125-.734375-.234375-.921875-.15625-.195313-.355469-.296875-.59375-.296875-.230469 0-.429688.09375-.59375.28125-.15625.1875-.234375.46875-.234375.84375zm0 0"/></symbol><symbol id="ak" overflow="visible"><path d="m.515625 0v-5.140625h.984375v5.140625zm0 0"/></symbol><symbol id="al" overflow="visible"><path d="m.28125-1.921875c0-.320313.078125-.632813.234375-.9375.164063-.3125.394531-.546875.6875-.703125.300781-.164062.632813-.25 1-.25.5625 0 1.023437.183594 1.390625.546875.363281.367187.546875.828125.546875 1.390625s-.183594 1.03125-.546875 1.40625c-.367188.367188-.824219.546875-1.375.546875-.34375 0-.671875-.07421875-.984375-.21875-.3125-.15625-.554687-.382813-.71875-.6875-.15625-.300781-.234375-.664063-.234375-1.09375zm1.015625.0625c0 .367187.085937.648437.265625.84375.175781.199219.394531.296875.65625.296875.25 0 .460938-.097656.640625-.296875.175781-.195313.265625-.484375.265625-.859375 0-.363281-.089844-.640625-.265625-.828125-.179687-.195313-.390625-.296875-.640625-.296875-.261719 0-.480469.101562-.65625.296875-.179688.1875-.265625.46875-.265625.84375zm0 0"/></symbol><symbol id="am" overflow="visible"><path d="m3.765625-2.625-.96875.171875c-.03125-.1875-.109375-.328125-.234375-.421875-.117188-.101562-.261719-.15625-.4375-.15625-.25 0-.449219.085938-.59375.25-.148438.167969-.21875.449219-.21875.84375 0 .449219.070312.765625.21875.953125.15625.179687.359375.265625.609375.265625.1875 0 .335937-.050781.453125-.15625.113281-.101562.195312-.285156.25-.546875l.96875.15625c-.105469.449219-.296875.789063-.578125 1.015625-.28125.21875-.664063.328125-1.140625.328125-.554688 0-.992188-.171875-1.3125-.515625-.324219-.34375-.484375-.816406-.484375-1.421875 0-.613281.160156-1.09375.484375-1.4375.332031-.34375.773438-.515625 1.328125-.515625.445313 0 .804687.101562 1.078125.296875.269531.199219.460938.496094.578125.890625zm0 0"/></symbol><symbol id="an" overflow="visible"><path d="m.484375 0v-5.140625h.984375v2.71875l1.15625-1.3125h1.203125l-1.265625 1.375 1.359375 2.359375h-1.0625l-.9375-1.671875-.453125.484375v1.1875zm0 0"/></symbol><symbol id="ao" overflow="visible"><path d="m2.96875 0v-.5625c-.136719.199219-.3125.355469-.53125.46875-.21875.1132812-.453125.171875-.703125.171875s-.476563-.0546875-.671875-.15625c-.199219-.113281-.34375-.269531-.4375-.46875-.085938-.195313-.125-.472656-.125-.828125v-2.359375h.984375v1.71875c0 .523437.015625.84375.046875.96875.039062.117187.109375.210937.203125.28125.09375.0625.210937.09375.359375.09375.164062 0 .316406-.039063.453125-.125.132813-.09375.226563-.207031.28125-.34375.050781-.144531.078125-.484375.078125-1.015625v-1.578125h.984375v3.734375zm0 0"/></symbol><symbol id="ap" overflow="visible"><path d="m.484375-3.734375h.921875v.5625c.125-.1875.285156-.335937.484375-.453125.207031-.125.429687-.1875.671875-.1875.4375 0 .804688.171875 1.109375.515625.300781.335937.453125.804687.453125 1.40625 0 .625-.152344 1.109375-.453125 1.453125-.304687.34375-.671875.515625-1.109375.515625-.210938 0-.398438-.0390625-.5625-.109375-.167969-.082031-.34375-.222656-.53125-.421875v1.875h-.984375zm.984375 1.8125c0 .417969.082031.726563.25.921875.164062.199219.363281.296875.59375.296875.226562 0 .421875-.085937.578125-.265625.15625-.1875.234375-.488281.234375-.90625 0-.394531-.078125-.6875-.234375-.875s-.355469-.28125-.59375-.28125c-.242187 0-.4375.09375-.59375.28125s-.234375.464844-.234375.828125zm0 0"/></symbol><symbol id="aq" overflow="visible"><path d="m.515625-4.234375v-.90625h.984375v.90625zm0 4.234375v-3.734375h.984375v3.734375zm0 0"/></symbol><symbol id="ar" overflow="visible"><path d="m2.21875-3.734375v.796875h-.671875v1.5c0 .304688.003906.480469.015625.53125.019531.054688.050781.09375.09375.125.050781.03125.109375.046875.171875.046875.09375 0 .222656-.03125.390625-.09375l.09375.765625c-.230469.09375-.492188.140625-.78125.140625-.179688 0-.339844-.0273438-.484375-.078125-.148437-.0625-.257813-.140625-.328125-.234375-.0625-.09375-.105469-.222656-.125-.390625-.023438-.113281-.03125-.34375-.03125-.6875v-1.625h-.453125v-.796875h.453125v-.734375l.984375-.578125v1.3125zm0 0"/></symbol><symbol id="as" overflow="visible"><path d="m.515625 0v-5.140625h1.546875l.9375 3.5.921875-3.5h1.5625v5.140625h-.96875v-4.046875l-1.03125 4.046875h-1l-1.015625-4.046875v4.046875zm0 0"/></symbol><g clip-path="url(#a)"><path d="m0 0h164v99.984375h-164zm0 0" fill="#fff"/></g><path d="m4.890625 15.464844h153.5c.3125 0 .617187.058594.90625.179687.292969.121094.546875.292969.769531.515625s.394532.480469.515625.769532c.121094.292968.179688.59375.179688.910156v74.375c0 .3125-.058594.617187-.179688.90625-.121093.292968-.292969.546875-.515625.769531s-.476562.394531-.769531.515625c-.289063.121094-.59375.179688-.90625.179688h-153.5c-.3125 0-.617187-.058594-.90625-.179688-.292969-.121094-.550781-.292969-.773437-.515625-.222657-.222656-.390626-.476563-.511719-.769531-.121094-.289063-.183594-.59375-.183594-.90625v-74.375c0-.316406.0625-.617188.183594-.910156.121093-.289063.289062-.546876.511719-.769532.222656-.222656.480468-.394531.773437-.515625.289063-.121093.59375-.179687.90625-.179687zm0 0" fill="#dae8fc" fill-opacity=".302"/><g clip-path="url(#b)"><path d="m6.299162 20.999907h213.402464c.434451 0 .858041.08146 1.259909.24981.407298.16835.76029.407298 1.069836.716844.309547.309547.548495.667969.716845 1.069837.16835.407298.249809.825457.249809 1.265339v103.399402c0 .434451-.081459.858041-.249809 1.259909-.16835.407298-.407298.76029-.716845 1.069836-.309546.309547-.662538.548495-1.069836.716845-.401868.16835-.825458.249809-1.259909.249809h-213.402464c-.434451 0-.858041-.081459-1.259908-.249809-.407298-.16835-.765721-.407298-1.075267-.716845-.309547-.309546-.543064-.662538-.711414-1.069836-.16835-.401868-.25524-.825458-.25524-1.259909v-103.399402c0-.439882.08689-.858041.25524-1.265339.16835-.401868.401867-.76029.711414-1.069837.309546-.309546.667969-.548494 1.075267-.716844.401867-.16835.825457-.24981 1.259908-.24981zm0 0" fill="none" stroke="#6c8ebf" stroke-opacity=".302" transform="matrix(.719298 0 0 .719298 .359649 .359649)"/></g><path d="m145.960938 2.984375c-.203126.1875-.519532.214844-.742188-.050781-.15625-.207032-.078125-.453125.050781-.574219.777344-.75 2.007813-1.28125 3.300781-1.265625 1.503907.019531 2.582032.625 3.28125 1.273438.214844.222656.152344.503906-.035156.640624-.222656.164063-.496094.164063-.691406-.039062-.632812-.582031-1.511719-.96875-2.476562-.992188-.90625-.019531-1.882813.253907-2.6875 1.007813zm1.234374 1.246094c-.207031.179687-.507812.148437-.6875-.058594-.125-.144531-.167968-.386719.019532-.574219.496094-.496094 1.257812-.800781 2.015625-.800781.832031.015625 1.539062.347656 2.011719.84375.160156.214844.089843.4375-.0625.582031-.128907.144532-.445313.199219-.675782-.023437-.324218-.300781-.777344-.496094-1.28125-.496094-.511718 0-.992187.1875-1.339844.527344zm10.332032 12.9375h-17.984375v-11.980469h17.984375zm-7 .945312c.164062.179688.136718.402344.015625.546875-.511719.558594-1.304688.820313-1.980469.820313-.78125 0-1.503906-.28125-2.027344-.777344-.171875-.175781-.199218-.441406.035156-.648437.203126-.164063.460938-.136719.632813.015624.304687.285157.769531.523438 1.347656.515626.625-.011719 1.042969-.28125 1.335938-.554688.121093-.09375.417969-.171875.640625.082031zm1.296875 1.789063c-.800781.800781-2 1.316406-3.273438 1.316406-1.210937 0-2.410156-.425781-3.332031-1.324219-.109375-.113281-.207031-.378906.050781-.617187.203125-.164063.480469-.160156.667969.035156.683594.625 1.570312.992188 2.613281 1 1.199219-.019531 2.042969-.523438 2.574219-1.015625.15625-.140625.425781-.214844.667969-.003906.160156.15625.210937.402343.03125.609375zm0 0" fill="#5294cf"/><path d="m139.542969 16.449219h17.984375v.71875h-17.984375zm0 0" fill-opacity=".302"/><path d="m157.527344 13.925781h-3.03125c-.179688 0-.351563-.160156-.351563-.34375v-1.269531c-.199219-.078125-.53125-.328125-.53125-.769531 0-.453125.386719-.824219.914063-.824219.394531 0 .871094.308594.871094.824219 0 .347656-.21875.632812-.535157.769531v.929688h2.664063zm-5.597656 1.734375c-.171876 0-.351563-.152344-.351563-.339844v-3.007812c-.171875-.070312-.503906-.285156-.527344-.746094-.011719-.34375.289063-.871094.921875-.847656.488282.019531.847656.386719.855469.824219-.007813.347656-.214844.640625-.53125.765625v2.675781h5.230469v.675781zm-1.238282-10.472656v2.5h1.535156v-1.414062c0-.195313.148438-.367188.386719-.367188h3.777344c.238281 0 .386719.171875.386719.359375v3.582031c0 .152344-.148438.351563-.378906.351563h-3.792969c-.199219 0-.378907-.152344-.378907-.359375v-1.472656h-3.71875c-.125.265624-.417968.496093-.8125.496093-.5 0-.886718-.375-.886718-.84375 0-.429687.367187-.828125.90625-.828125.324218 0 .660156.203125.792968.496094h1.464844v-2.5zm-5.25 0h.71875v5.097656l1.339844 1.257813.640625-.59375c-.09375-.230469-.101563-.585938.179687-.878907.394532-.367187.90625-.296874 1.179688-.09375.445312.324219.453125.890626.121094 1.230469-.292969.308594-.710938.324219-.972656.222657l-.636719.597656 1.132812 1.070312c.289063-.101562.664063-.078125.945313.179688.445312.433594.273437.988281-.035156 1.230468-.410157.324219-.964844.246094-1.269532-.09375-.148437-.179687-.277344-.480468-.148437-.828124l-3.109375-2.925782c-.054688-.050781-.085938-.136718-.085938-.238281zm-4.746094 0h.71875v2.5h1.25c.160157-.320312.492188-.496094.808594-.496094.503906 0 .890625.382813.890625.835938 0 .417968-.339843.835937-.914062.835937-.246094 0-.609375-.136719-.785157-.496093h-1.25v2.6875l2.199219 2.074218c.433594-.175781 1.023438 0 1.195313.546875.160156.574219-.292969 1.085938-.890625 1.054688-.324219-.007813-.699219-.207031-.820313-.609375-.042968-.167969-.035156-.347656.015625-.492188l-2.316406-2.183594c-.058594-.050781-.101563-.125-.101563-.261718zm5.78125 11.261719v-2.4375l-2.746093-2.574219c-.417969.136719-.820313-.023438-1.023438-.304688-.285156-.386718-.199219-.90625.230469-1.183593.402344-.246094.902344-.144531 1.175781.171875.265625.308594.222657.652344.132813.839844l2.949218 2.757812v2.730469zm-5.761718 0v-1.78125c-.234375-.09375-.523438-.375-.523438-.757813 0-.539062.46875-.847656.878906-.847656.488282 0 .890626.351562.890626.835938 0 .320312-.195313.625-.519532.769531v1.78125zm0 0" fill="#fff"/><g><use x="7.192982" xlink:href="#d" y="12.947367"/><use x="14.383153" xlink:href="#e" y="12.947367"/><use x="19.183626" xlink:href="#f" y="12.947367"/><use x="23.499415" xlink:href="#g" y="12.947367"/><use x="25.897544" xlink:href="#h" y="12.947367"/><use x="30.698016" xlink:href="#i" y="12.947367"/><use x="33.572399" xlink:href="#j" y="12.947367"/><use x="35.970527" xlink:href="#k" y="12.947367"/><use x="38.84491" xlink:href="#l" y="12.947367"/><use x="44.602105" xlink:href="#g" y="12.947367"/><use x="47.000234" xlink:href="#g" y="12.947367"/><use x="49.398363" xlink:href="#e" y="12.947367"/><use x="54.198835" xlink:href="#m" y="12.947367"/><use x="58.514624" xlink:href="#n" y="12.947367"/><use x="62.830413" xlink:href="#h" y="12.947367"/><use x="67.630886" xlink:href="#i" y="12.947367"/><use x="70.505268" xlink:href="#o" y="12.947367"/></g><path d="m1.4375 94.226562v-4.3125h1.441406v4.3125m-1.441406-8.628906v-4.316406h1.441406v4.316406m-1.441406-8.632812v-4.316406h1.441406v4.316406m-1.441406-8.632813v-4.316406h1.441406v4.316406m-1.441406-8.628906v-4.316406h1.441406v4.316406m-1.441406-8.632813v-4.316406h1.441406v4.316406m-1.441406-8.632812v-4.316406h1.441406v4.316406m-1.441406-8.628906v-4.316406h1.441406v4.316406m-1.441406-8.632813v-4.316406h1.441406v4.316406m-1.441406-8.632812v-4.316407h1.441406v4.316407m-1.441406-8.628907v-4.316406h1.441406v4.316406"/><path d="m159.683594 94.226562v-4.3125h1.4375v4.3125m-1.4375-8.628906v-4.316406h1.4375v4.316406m-1.4375-8.632812v-4.316406h1.4375v4.316406m-1.4375-8.632813v-4.316406h1.4375v4.316406m-1.4375-8.628906v-4.316406h1.4375v4.316406m-1.4375-8.632813v-4.316406h1.4375v4.316406m-1.4375-8.632812v-4.316406h1.4375v4.316406m-1.4375-8.628906v-4.316406h1.4375v4.316406m-1.4375-8.632813v-4.316406h1.4375v4.316406m-1.4375-8.632812v-4.316407h1.4375v4.316407m-1.4375-8.628907v-4.316406h1.4375v4.316406"/><g><use x="115.087706" xlink:href="#p" y="12.947367"/><use x="120.844901" xlink:href="#q" y="12.947367"/><use x="122.762561" xlink:href="#e" y="12.947367"/><use x="127.563033" xlink:href="#r" y="12.947367"/><use x="131.878822" xlink:href="#h" y="12.947367"/></g><path d="m7.999334 35.999718h141.761449" fill="none" stroke="#000" stroke-miterlimit="10" stroke-width="2" transform="scale(.719298)"/><path d="m155.761642 35.999718-7.999334 4.002383 1.998475-4.002383-1.998475-4.002382zm0 0" stroke="#000" stroke-miterlimit="10" stroke-width="2" transform="scale(.719298)"/><g><use x="7.192982" xlink:href="#s" y="23.736839"/><use x="11.993454" xlink:href="#d" y="23.736839"/><use x="19.183626" xlink:href="#t" y="23.736839"/><use x="24.940821" xlink:href="#u" y="23.736839"/><use x="29.741293" xlink:href="#v" y="23.736839"/><use x="32.139422" xlink:href="#h" y="23.736839"/><use x="36.939894" xlink:href="#e" y="23.736839"/><use x="41.740366" xlink:href="#g" y="23.736839"/><use x="44.138495" xlink:href="#w" y="23.736839"/><use x="48.938968" xlink:href="#i" y="23.736839"/><use x="51.81335" xlink:href="#h" y="23.736839"/><use x="56.613823" xlink:href="#f" y="23.736839"/><use x="60.929612" xlink:href="#u" y="23.736839"/><use x="65.730084" xlink:href="#i" y="23.736839"/><use x="68.604467" xlink:href="#h" y="23.736839"/><use x="73.404939" xlink:href="#x" y="23.736839"/><use x="78.205411" xlink:href="#w" y="23.736839"/><use x="83.005884" xlink:href="#h" y="23.736839"/><use x="87.806356" xlink:href="#f" y="23.736839"/><use x="92.122145" xlink:href="#g" y="23.736839"/></g><path d="m156.808594 56.105469h-4.316406v-1.4375h4.316406m-8.632813 1.4375h-4.316406v-1.4375h4.316406m-8.632812 1.4375h-4.316407v-1.4375h4.316407m-8.628907 1.4375h-4.316406v-1.4375h4.316406m-8.632812 1.4375h-4.316406v-1.4375h4.316406m-8.632812 1.4375h-4.316407v-1.4375h4.316407m-8.632813 1.4375h-4.3125v-1.4375h4.3125m-8.628906 1.4375h-4.316407v-1.4375h4.316407m-8.632813 1.4375h-4.316406v-1.4375h4.316406m-8.632812 1.4375h-4.3125v-1.4375h4.3125m-8.628906 1.4375h-4.316407v-1.4375h4.316407m-8.632813 1.4375h-4.316406v-1.4375h4.316406m-8.632813 1.4375h-4.3125v-1.4375h4.3125m-8.628906 1.4375h-.546875v-1.4375h.546875"/><path d="m55.240479 77.001057 7.999334-4.002382-1.998476 4.002382 1.998476 3.996952zm0 0" stroke="#000" stroke-miterlimit="10" stroke-width="2" transform="scale(.719298)"/><g><use x="61.140344" xlink:href="#s" y="53.228064"/><use x="65.940816" xlink:href="#d" y="53.228064"/><use x="73.130988" xlink:href="#t" y="53.228064"/><use x="78.888183" xlink:href="#u" y="53.228064"/><use x="83.688655" xlink:href="#v" y="53.228064"/><use x="86.086784" xlink:href="#h" y="53.228064"/><use x="90.887256" xlink:href="#e" y="53.228064"/><use x="95.687729" xlink:href="#g" y="53.228064"/><use x="98.085857" xlink:href="#w" y="53.228064"/><use x="102.88633" xlink:href="#i" y="53.228064"/><use x="105.760713" xlink:href="#h" y="53.228064"/><use x="110.561185" xlink:href="#f" y="53.228064"/><use x="114.876974" xlink:href="#u" y="53.228064"/><use x="119.677446" xlink:href="#i" y="53.228064"/><use x="122.551829" xlink:href="#h" y="53.228064"/><use x="127.352301" xlink:href="#f" y="53.228064"/><use x="131.66809" xlink:href="#y" y="53.228064"/><use x="136.468562" xlink:href="#z" y="53.228064"/><use x="141.269035" xlink:href="#A" y="53.228064"/><use x="146.069507" xlink:href="#f" y="53.228064"/><use x="150.385296" xlink:href="#h" y="53.228064"/></g><path d="m7.999334 57.999245h141.761449" fill="none" stroke="#d79b00" stroke-miterlimit="10" stroke-width="2" transform="scale(.719298)"/><path d="m155.761642 57.999245-7.999334 4.002382 1.998475-4.002382-1.998475-3.996952zm0 0" fill="#d79b00" stroke="#d79b00" stroke-miterlimit="10" stroke-width="2" transform="scale(.719298)"/><g><use x="7.192982" xlink:href="#s" y="38.842101"/><use x="11.993454" xlink:href="#d" y="38.842101"/><use x="19.183626" xlink:href="#t" y="38.842101"/><use x="24.940821" xlink:href="#u" y="38.842101"/><use x="29.741293" xlink:href="#f" y="38.842101"/><use x="34.057082" xlink:href="#h" y="38.842101"/><use x="38.857554" xlink:href="#g" y="38.842101"/><use x="41.255683" xlink:href="#w" y="38.842101"/><use x="46.056155" xlink:href="#y" y="38.842101"/><use x="50.856628" xlink:href="#u" y="38.842101"/><use x="55.6571" xlink:href="#m" y="38.842101"/><use x="59.972889" xlink:href="#z" y="38.842101"/><use x="64.773361" xlink:href="#B" y="38.842101"/><use x="71.963533" xlink:href="#y" y="38.842101"/><use x="76.764005" xlink:href="#q" y="38.842101"/><use x="78.681665" xlink:href="#h" y="38.842101"/><use x="83.482138" xlink:href="#g" y="38.842101"/><use x="85.880267" xlink:href="#h" y="38.842101"/></g><path d="m81.28125 14.746094v-.71875h.71875v.71875m-.71875-2.878906v-.71875h.71875v.71875m-.71875-2.875v-.71875h.71875v.71875m-.71875-2.878907v-.71875h.71875v.71875"/><g><use x="7.192982" xlink:href="#s" y="67.614027"/><use x="11.993454" xlink:href="#d" y="67.614027"/><use x="19.183626" xlink:href="#t" y="67.614027"/><use x="24.940821" xlink:href="#u" y="67.614027"/><use x="29.741293" xlink:href="#v" y="67.614027"/><use x="32.139422" xlink:href="#h" y="67.614027"/><use x="36.939894" xlink:href="#e" y="67.614027"/><use x="41.740366" xlink:href="#g" y="67.614027"/><use x="44.138495" xlink:href="#w" y="67.614027"/><use x="48.938968" xlink:href="#i" y="67.614027"/><use x="51.81335" xlink:href="#h" y="67.614027"/><use x="56.613823" xlink:href="#f" y="67.614027"/><use x="60.929612" xlink:href="#u" y="67.614027"/><use x="65.730084" xlink:href="#i" y="67.614027"/><use x="68.604467" xlink:href="#h" y="67.614027"/><use x="73.404939" xlink:href="#x" y="67.614027"/><use x="78.205411" xlink:href="#u" y="67.614027"/><use x="83.005884" xlink:href="#h" y="67.614027"/><use x="87.806356" xlink:href="#C" y="67.614027"/><use x="92.122145" xlink:href="#g" y="67.614027"/></g><path d="m6.113281 87.394531 25.175781-17.261719h71.929688l25.175781 17.261719zm0 0" fill="#f5f5f5"/><path d="m9.46875 84.65625 1.78125-1.21875.40625.59375-1.78125 1.21875zm3.5625-2.441406 1.777344-1.21875.40625.59375-1.777344 1.21875zm3.558594-2.4375 1.777344-1.222656.40625.59375-1.777344 1.222656zm3.558594-2.441406 1.78125-1.222657.40625.59375-1.78125 1.222657zm3.558593-2.441407 1.78125-1.21875.40625.589844-1.78125 1.222656zm3.558594-2.441406 1.78125-1.21875.40625.59375-1.78125 1.21875zm3.558594-2.441406.355469-.238281h1.953124v.71875h-1.84375v-.359376l.203126.296876-.257813.175781zm4.464843-.238281h2.160157v.71875h-2.160157zm4.316407 0h2.160156v.71875h-2.160156zm4.316406 0h2.15625v.71875h-2.15625zm4.316406 0h2.15625v.71875h-2.15625zm4.316407 0h2.15625v.71875h-2.15625zm4.3125 0h2.160156v.71875h-2.160156zm4.316406 0h2.160156v.71875h-2.160156zm4.316406 0h2.160156v.71875h-2.160156zm4.316406 0h2.15625v.71875h-2.15625zm4.316406 0h2.15625v.71875h-2.15625zm4.316407 0h2.15625v.71875h-2.15625zm4.316406 0h2.15625v.71875h-2.15625zm4.3125 0h2.160156v.71875h-2.160156zm4.316406 0h2.160157v.71875h-2.160157zm4.316407 0h2.15625v.71875h-2.15625zm4.316406 0h2.15625v.71875h-2.15625zm4.320312.695312 1.78125 1.222656-.40625.59375-1.78125-1.222656zm3.5625 2.441406 1.777344 1.222656-.40625.589844-1.78125-1.21875zm3.558594 2.441406 1.777344 1.21875-.40625.59375-1.777344-1.21875zm3.558594 2.441407 1.78125 1.21875-.410156.59375-1.777344-1.21875zm3.558594 2.441406 1.78125 1.21875-.40625.59375-1.78125-1.21875zm3.558593 2.4375 1.78125 1.222656-.40625.59375-1.78125-1.222656zm3.5625 2.441406 1.777344 1.222657-.40625.59375-1.78125-1.222657zm1.878907 2.640625h-2.15625v-.71875h2.15625zm-4.316407 0h-2.15625v-.71875h2.15625zm-4.316406 0h-2.15625v-.71875h2.15625zm-4.3125 0h-2.160156v-.71875h2.160156zm-4.316406 0h-2.160157v-.71875h2.160157zm-4.316407 0h-2.15625v-.71875h2.15625zm-4.316406 0h-2.15625v-.71875h2.15625zm-4.316406 0h-2.15625v-.71875h2.15625zm-4.316406 0h-2.15625v-.71875h2.15625zm-4.3125 0h-2.160156v-.71875h2.160156zm-4.316406 0h-2.160157v-.71875h2.160157zm-4.316407 0h-2.160156v-.71875h2.160156zm-4.316406 0h-2.15625v-.71875h2.15625zm-4.316406 0h-2.15625v-.71875h2.15625zm-4.316407 0h-2.15625v-.71875h2.15625zm-4.3125 0h-2.160156v-.71875h2.160156zm-4.316406 0h-2.160156v-.71875h2.160156zm-4.316406 0h-2.160156v-.71875h2.160156zm-4.316406 0h-2.15625v-.71875h2.15625zm-4.316406 0h-2.15625v-.71875h2.15625zm-4.316407 0h-2.15625v-.71875h2.15625zm-4.316406 0h-2.15625v-.71875h2.15625zm-4.3125 0h-2.160156v-.71875h2.160156zm-4.316406 0h-2.160157v-.71875h2.160157zm-4.316407 0h-2.15625v-.71875h2.15625zm-4.316406 0h-2.15625v-.71875h2.15625zm-4.316406 0h-2.15625v-.71875h2.15625zm-4.316406 0h-2.15625v-.71875h2.15625zm-4.3125 0h-1.792969l2.738281-1.875.40625.59375-1.78125 1.21875-.203125-.296875v-.359375h.632813zm0 0" fill="#666"/><path d="m7.999334 97.002107h141.761449" fill="none" stroke="#b85450" stroke-miterlimit="10" stroke-width="2" transform="scale(.719298)"/><path d="m155.761642 97.002107-7.999334 3.996952 1.998475-3.996952-1.998475-4.002382zm0 0" fill="#b85450" stroke="#b85450" stroke-miterlimit="10" stroke-width="2" transform="scale(.719298)"/><path d="m144.21875 63.65625h4.195312l3 4.261719 2.996094-4.261719h4.195313l-5.09375 7.195312 5.09375 7.191407h-4.195313l-2.996094-4.257813-3 4.257813h-4.195312l4.796875-7.191407zm0 0" fill="#f8cecc"/><g clip-path="url(#c)"><path d="m199.999261 87.997724h5.832508l4.170733 5.924829 4.165301-5.924829h5.832508l-7.081555 10.00324 7.081555 9.99781h-5.832508l-4.165301-5.919399-4.170733 5.919399h-5.832508l6.668827-9.99781zm0 0" fill="none" stroke="#b85450" stroke-miterlimit="10" transform="matrix(.719298 0 0 .719298 .359649 .359649)"/></g><path d="m127.999824 104.001822h25.002671l4.99619 4.99619v10.00324h-24.99724l-5.001621-5.00162zm0 0" fill="#cce5ff" stroke="#36393d" stroke-miterlimit="10" transform="matrix(.719298 0 0 .719298 .359649 .359649)"/><path d="m92.429688 75.167969h17.984374l3.59375 3.59375h-17.980468zm0 0" fill-opacity=".051"/><path d="m92.429688 75.167969 3.597656 3.59375v7.195312l-3.597656-3.597656zm0 0" fill-opacity=".102"/><path d="m133.001445 119.001252v-10.00324l-5.001621-4.99619m5.001621 4.99619h24.99724" fill="none" stroke="#36393d" stroke-miterlimit="10" transform="matrix(.719298 0 0 .719298 .359649 .359649)"/><g><use x="99.060844" xlink:href="#D" y="83.438587"/><use x="100.659596" xlink:href="#D" y="83.438587"/><use x="102.258349" xlink:href="#D" y="83.438587"/><use x="103.857101" xlink:href="#D" y="83.438587"/><use x="105.455854" xlink:href="#D" y="83.438587"/><use x="107.054606" xlink:href="#D" y="83.438587"/><use x="108.653359" xlink:href="#D" y="83.438587"/></g><path d="m92.999344 104.001822h35.00048l5.001621 4.99619v10.00324h-35.000481l-5.00162-5.00162zm0 0" fill="#cce5ff" stroke="#36393d" stroke-miterlimit="10" transform="matrix(.719298 0 0 .719298 .359649 .359649)"/><path d="m67.253906 75.167969h25.175782l3.597656 3.59375h-25.175782zm0 0" fill-opacity=".051"/><path d="m67.253906 75.167969 3.597656 3.59375v7.195312l-3.597656-3.597656zm0 0" fill-opacity=".102"/><path d="m98.000964 119.001252v-10.00324l-5.00162-4.99619m5.00162 4.99619h35.000481" fill="none" stroke="#36393d" stroke-miterlimit="10" transform="matrix(.719298 0 0 .719298 .359649 .359649)"/><g fill="#c00"><use x="72.368139" xlink:href="#M" y="84.877183"/><use x="76.844084" xlink:href="#N" y="84.877183"/><use x="80.359092" xlink:href="#O" y="84.877183"/><use x="83.559406" xlink:href="#P" y="84.877183"/><use x="87.074414" xlink:href="#Q" y="84.877183"/><use x="90.589422" xlink:href="#R" y="84.877183"/></g><path d="m77.999914 104.001822h14.99943l5.00162 4.99619v10.00324h-14.99943l-5.00162-5.00162zm0 0" fill="#cce5ff" stroke="#36393d" stroke-miterlimit="10" transform="matrix(.719298 0 0 .719298 .359649 .359649)"/><path d="m56.464844 75.167969h10.789062l3.597656 3.59375h-10.789062zm0 0" fill-opacity=".051"/><path d="m56.464844 75.167969 3.597656 3.59375v7.195312l-3.597656-3.597656zm0 0" fill-opacity=".102"/><path d="m83.001534 119.001252v-10.00324l-5.00162-4.99619m5.00162 4.99619h14.99943" fill="none" stroke="#36393d" stroke-miterlimit="10" transform="matrix(.719298 0 0 .719298 .359649 .359649)"/><g><use x="61.039192" xlink:href="#ad" y="83.438587"/><use x="64.114824" xlink:href="#ae" y="83.438587"/><use x="65.513733" xlink:href="#af" y="83.438587"/></g><path d="m42.999433 104.001822h35.000481l5.00162 4.99619v10.00324h-35.00048l-5.001621-5.00162zm0 0" fill="#fc9" stroke="#36393d" stroke-miterlimit="10" transform="matrix(.719298 0 0 .719298 .359649 .359649)"/><path d="m31.289062 75.167969h25.175782l3.597656 3.59375h-25.175781zm0 0" fill-opacity=".051"/><path d="m31.289062 75.167969 3.597657 3.59375v7.195312l-3.597657-3.597656zm0 0" fill-opacity=".102"/><path d="m48.001054 119.001252v-10.00324l-5.001621-4.99619m5.001621 4.99619h35.00048" fill="none" stroke="#36393d" stroke-miterlimit="10" transform="matrix(.719298 0 0 .719298 .359649 .359649)"/><g><use x="35.436674" xlink:href="#E" y="84.877183"/><use x="39.274804" xlink:href="#F" y="84.877183"/><use x="43.430436" xlink:href="#G" y="84.877183"/><use x="46.630751" xlink:href="#H" y="84.877183"/><use x="48.229504" xlink:href="#I" y="84.877183"/><use x="52.385136" xlink:href="#J" y="84.877183"/><use x="55.585451" xlink:href="#K" y="84.877183"/></g><use x="57.184204" xlink:href="#D" y="84.877183"/><path d="m22.998383 104.001822h20.00105l5.001621 4.99619v10.00324h-20.001051l-5.00162-5.00162zm0 0" fill="#eee" stroke="#36393d" stroke-miterlimit="10" transform="matrix(.719298 0 0 .719298 .359649 .359649)"/><path d="m16.902344 75.167969h14.386718l3.597657 3.59375h-14.386719zm0 0" fill-opacity=".051"/><path d="m16.902344 75.167969 3.597656 3.59375v7.195312l-3.597656-3.597656zm0 0" fill-opacity=".102"/><path d="m28.000003 119.001252v-10.00324l-5.00162-4.99619m5.00162 4.99619h20.001051" fill="none" stroke="#36393d" stroke-miterlimit="10" transform="matrix(.719298 0 0 .719298 .359649 .359649)"/><g><use x="23.489581" xlink:href="#L" y="84.877183"/><use x="27.327711" xlink:href="#L" y="84.877183"/></g><g fill="#c00"><use x="70.49122" xlink:href="#S" y="92.789463"/><use x="72.407475" xlink:href="#T" y="92.789463"/><use x="75.60779" xlink:href="#U" y="92.789463"/><use x="78.808105" xlink:href="#V" y="92.789463"/><use x="80.72436" xlink:href="#W" y="92.789463"/><use x="82.323113" xlink:href="#X" y="92.789463"/><use x="86.478745" xlink:href="#Y" y="92.789463"/><use x="89.993753" xlink:href="#Z" y="92.789463"/><use x="93.194068" xlink:href="#P" y="92.789463"/><use x="96.709076" xlink:href="#aa" y="92.789463"/><use x="101.185021" xlink:href="#Y" y="92.789463"/><use x="104.700029" xlink:href="#W" y="92.789463"/><use x="106.298781" xlink:href="#ab" y="92.789463"/><use x="110.136911" xlink:href="#ac" y="92.789463"/><use x="114.292544" xlink:href="#X" y="92.789463"/></g><g><use x="126.787544" xlink:href="#ag" y="84.157885"/><use x="131.982085" xlink:href="#ah" y="84.157885"/><use x="135.982478" xlink:href="#ai" y="84.157885"/><use x="139.982872" xlink:href="#aj" y="84.157885"/><use x="144.376631" xlink:href="#ak" y="84.157885"/><use x="146.375072" xlink:href="#al" y="84.157885"/><use x="150.768832" xlink:href="#am" y="84.157885"/><use x="154.769225" xlink:href="#an" y="84.157885"/></g><g fill="#ff8000"><use x="115.087706" xlink:href="#ag" y="44.596486"/><use x="120.282247" xlink:href="#ao" y="44.596486"/><use x="124.676007" xlink:href="#ap" y="44.596486"/><use x="129.069766" xlink:href="#ak" y="44.596486"/><use x="131.068207" xlink:href="#aq" y="44.596486"/><use x="133.066648" xlink:href="#am" y="44.596486"/><use x="137.067041" xlink:href="#ai" y="44.596486"/><use x="141.067435" xlink:href="#ar" y="44.596486"/><use x="143.462754" xlink:href="#ah" y="44.596486"/><use x="147.463147" xlink:href="#aj" y="44.596486"/></g><g fill="#c00"><use x="115.087706" xlink:href="#as" y="71.929816"/><use x="121.079516" xlink:href="#ao" y="71.929816"/><use x="125.473276" xlink:href="#ar" y="71.929816"/><use x="127.868595" xlink:href="#ai" y="71.929816"/><use x="131.868988" xlink:href="#ar" y="71.929816"/><use x="134.264307" xlink:href="#ah" y="71.929816"/><use x="138.264701" xlink:href="#aj" y="71.929816"/></g></svg>