<svg height="118.079994pt" viewBox="0 0 171.12 118.079994" width="171.12pt" xmlns="http://www.w3.org/2000/svg" xmlns:xlink="http://www.w3.org/1999/xlink"><clipPath id="a"><path d="m0 0h171v117.609375h-171zm0 0"/></clipPath><clipPath id="b"><path d="m2 11h167v105.886719h-167zm0 0"/></clipPath><clipPath id="c"><path d="m136 81h35v35h-35zm0 0"/></clipPath><clipPath id="d"><path d="m89 18h82v42h-82zm0 0"/></clipPath><clipPath id="e"><path d="m135 15h36v48h-36zm0 0"/></clipPath><symbol id="f" overflow="visible"><path d="m.390625-1.984375.765625-.078125c.039062.3125.128906.570312.265625.765625.132813.199219.34375.359375.625.484375s.597656.1875.953125.1875c.3125 0 .585938-.046875.828125-.140625.238281-.09375.414063-.21875.53125-.375.113281-.164063.171875-.347656.171875-.546875 0-.1875-.058594-.351562-.171875-.5-.117187-.144531-.304687-.269531-.5625-.375-.167969-.0625-.539063-.160156-1.109375-.296875-.5625-.132813-.960938-.265625-1.1875-.390625-.292969-.15625-.511719-.347656-.65625-.578125-.148438-.226563-.21875-.484375-.21875-.765625 0-.3125.085938-.601562.265625-.875.175781-.269531.4375-.472656.78125-.609375.34375-.144531.722656-.21875 1.140625-.21875.457031 0 .859375.074219 1.203125.21875.351563.148437.625.367187.8125.65625.1875.28125.289063.605469.3125.96875l-.796875.0625c-.042969-.394531-.1875-.691406-.4375-.890625-.242188-.195312-.59375-.296875-1.0625-.296875-.5 0-.867188.09375-1.09375.28125-.21875.179687-.328125.390625-.328125.640625 0 .230469.078125.417969.234375.5625.15625.136719.566406.28125 1.234375.4375.664063.148438 1.125.277344 1.375.390625.363281.167969.628906.382813.796875.640625.175781.25.265625.542969.265625.875 0 .335938-.101563.648438-.296875.9375-.1875.292969-.460938.523438-.8125.6875-.355469.15625-.75.234375-1.1875.234375-.5625 0-1.039062-.0859375-1.421875-.25-.375-.164063-.671875-.410156-.890625-.734375-.210938-.332031-.320312-.703125-.328125-1.109375zm0 0"/></symbol><symbol id="g" overflow="visible"><path d="m.546875 0v-6.203125h.765625v6.203125zm0 0"/></symbol><symbol id="h" overflow="visible"><path d="m3.5-.546875c-.28125.242187-.554688.40625-.8125.5-.261719.09375-.542969.140625-.84375.140625-.492188 0-.871094-.1171875-1.140625-.359375-.261719-.238281-.390625-.546875-.390625-.921875 0-.21875.046875-.414062.140625-.59375.101563-.1875.234375-.332031.390625-.4375.164062-.113281.351562-.195312.5625-.25.144531-.039062.367188-.082031.671875-.125.613281-.070312 1.066406-.15625 1.359375-.25 0-.101562 0-.171875 0-.203125 0-.3125-.074219-.53125-.21875-.65625-.1875-.164063-.476562-.25-.859375-.25-.355469 0-.621094.0625-.796875.1875-.167969.125-.292969.34375-.375.65625l-.75-.09375c.070312-.320313.1875-.578125.34375-.765625.15625-.195312.378906-.347656.671875-.453125.289063-.113281.628906-.171875 1.015625-.171875.382812 0 .695312.046875.9375.140625.238281.09375.410156.210937.515625.34375.113281.136719.195313.308594.25.515625.019531.125.03125.359375.03125.703125v1.015625c0 .710938.015625 1.15625.046875 1.34375.03125.179688.097656.355469.203125.53125h-.796875c-.085938-.15625-.136719-.335938-.15625-.546875zm-.0625-1.703125c-.28125.117188-.699219.210938-1.25.28125-.3125.054688-.539062.105469-.671875.15625-.125.054688-.226563.136719-.296875.25-.0625.105469-.09375.226562-.09375.359375 0 .199219.070312.367187.21875.5.15625.136719.382812.203125.6875.203125.289062 0 .550781-.0625.78125-.1875.226562-.125.394531-.300781.5-.53125.082031-.164062.125-.414062.125-.75zm0 0"/></symbol><symbol id="i" overflow="visible"><path d="m1.8125 0-1.703125-4.484375h.796875l.96875 2.6875c.101562.292969.203125.59375.296875.90625.0625-.238281.15625-.523437.28125-.859375l.984375-2.734375h.796875l-1.703125 4.484375zm0 0"/></symbol><symbol id="j" overflow="visible"><path d="m3.640625-1.453125.78125.109375c-.117187.460938-.34375.8125-.6875 1.0625-.335937.25-.761719.375-1.28125.375-.65625 0-1.179687-.195312-1.5625-.59375-.386719-.40625-.578125-.972656-.578125-1.703125 0-.757813.191406-1.347656.578125-1.765625.394531-.414062.898437-.625 1.515625-.625.601562 0 1.09375.210938 1.46875.625.382812.40625.578125.980469.578125 1.71875v.203125h-3.34375c.019531.492187.15625.867187.40625 1.125.25.261719.5625.390625.9375.390625.28125 0 .519531-.070312.71875-.21875.195313-.144531.351563-.378906.46875-.703125zm-2.5-1.21875h2.515625c-.042969-.375-.140625-.660156-.296875-.859375-.242187-.289062-.554687-.4375-.9375-.4375-.355469 0-.652344.121094-.890625.359375-.230469.230469-.359375.542969-.390625.9375zm0 0"/></symbol><symbol id="k" overflow="visible"/><symbol id="l" overflow="visible"><path d="m2.03125 1.828125c-.429688-.53125-.789062-1.152344-1.078125-1.859375-.28125-.71875-.421875-1.457031-.421875-2.21875 0-.664062.101562-1.304688.3125-1.921875.257812-.707031.65625-1.414063 1.1875-2.125h.53125c-.335938.585937-.558594 1-.671875 1.25-.167969.386719-.304687.792969-.40625 1.21875-.117187.53125-.171875 1.0625-.171875 1.59375 0 1.355469.414062 2.707031 1.25 4.0625zm0 0"/></symbol><symbol id="m" overflow="visible"><path d="m-.015625 0 2.375-6.203125h.890625l2.53125 6.203125h-.921875l-.734375-1.875h-2.59375l-.671875 1.875zm1.796875-2.546875h2.09375l-.640625-1.71875c-.199219-.519531-.34375-.945313-.4375-1.28125-.085937.398437-.199219.792969-.34375 1.1875zm0 0"/></symbol><symbol id="n" overflow="visible"><path d="m2.234375-.6875.109375.671875c-.21875.0507812-.414062.078125-.578125.078125-.273437 0-.484375-.0429688-.640625-.125-.15625-.09375-.265625-.207031-.328125-.34375-.0625-.144531-.09375-.445312-.09375-.90625v-2.578125h-.546875v-.59375h.546875v-1.109375l.765625-.46875v1.578125h.765625v.59375h-.765625v2.625c0 .210937.007812.34375.03125.40625.03125.0625.078125.117187.140625.15625.0625.03125.144531.046875.25.046875.09375 0 .207031-.007812.34375-.03125zm0 0"/></symbol><symbol id="o" overflow="visible"><path d="m3.5-1.640625.75.09375c-.085938.511719-.296875.914063-.640625 1.203125-.335937.2929688-.746094.4375-1.234375.4375-.617188 0-1.109375-.195312-1.484375-.59375-.367187-.40625-.546875-.984375-.546875-1.734375 0-.476563.078125-.898437.234375-1.265625.15625-.363281.398437-.632812.734375-.8125.332031-.1875.691406-.28125 1.078125-.28125.476563 0 .875.125 1.1875.375s.507813.601562.59375 1.046875l-.734375.109375c-.074219-.300781-.199219-.523438-.375-.671875-.179688-.15625-.398438-.234375-.65625-.234375-.375 0-.683594.140625-.921875.421875-.242187.273437-.359375.703125-.359375 1.296875 0 .605469.113281 1.042969.34375 1.3125.226562.273438.53125.40625.90625.40625.289062 0 .535156-.085938.734375-.265625.207031-.1875.335937-.46875.390625-.84375zm0 0"/></symbol><symbol id="p" overflow="visible"><path d="m.578125 0v-6.203125h.75v3.546875l1.8125-1.828125h.984375l-1.71875 1.65625 1.890625 2.828125h-.9375l-1.484375-2.296875-.546875.515625v1.78125zm0 0"/></symbol><symbol id="q" overflow="visible"><path d="m.5625 0v-4.484375h.6875v.671875c.175781-.3125.335938-.519531.484375-.625.144531-.101562.304687-.15625.484375-.15625.257812 0 .519531.085938.78125.25l-.265625.703125c-.1875-.101563-.371094-.15625-.546875-.15625-.167969 0-.320312.054687-.453125.15625-.136719.09375-.230469.230469-.28125.40625-.085937.273437-.125.570313-.125.890625v2.34375zm0 0"/></symbol><symbol id="r" overflow="visible"><path d="m1.0625 1.828125h-.53125c.832031-1.355469 1.25-2.707031 1.25-4.0625 0-.53125-.058594-1.054687-.171875-1.578125-.09375-.425781-.230469-.832031-.40625-1.21875-.105469-.257812-.328125-.679688-.671875-1.265625h.53125c.53125.710937.925781 1.417969 1.1875 2.125.207031.617187.3125 1.257813.3125 1.921875 0 .761719-.148438 1.5-.4375 2.21875-.292969.707031-.648438 1.328125-1.0625 1.859375zm0 0"/></symbol><symbol id="s" overflow="visible"><path d="m.640625 0v-6.203125h1.234375l1.46875 4.390625c.132812.40625.234375.714844.296875.921875.070313-.226563.179687-.5625.328125-1l1.484375-4.3125h1.109375v6.203125h-.796875v-5.1875l-1.796875 5.1875h-.75l-1.78125-5.28125v5.28125zm0 0"/></symbol><symbol id="t" overflow="visible"><path d="m.265625-1.34375.75-.109375c.039063.304687.15625.53125.34375.6875.195313.15625.472656.234375.828125.234375.34375 0 .597656-.066406.765625-.203125.175781-.144531.265625-.3125.265625-.5 0-.175781-.078125-.3125-.234375-.40625-.105469-.070313-.367187-.160156-.78125-.265625-.554687-.132812-.9375-.253906-1.15625-.359375-.210937-.101563-.371094-.242187-.484375-.421875-.117188-.1875-.171875-.390625-.171875-.609375 0-.195313.046875-.378906.140625-.546875.09375-.175781.21875-.320312.375-.4375.113281-.082031.269531-.15625.46875-.21875.207031-.0625.429688-.09375.671875-.09375.351563 0 .660156.054688.921875.15625.269531.105469.46875.246094.59375.421875.125.167969.210938.398437.265625.6875l-.75.09375c-.03125-.226563-.132813-.40625-.296875-.53125-.15625-.132813-.386719-.203125-.6875-.203125-.34375 0-.59375.058594-.75.171875-.148438.117187-.21875.25-.21875.40625 0 .105469.03125.195313.09375.265625.0625.085938.160156.152344.296875.203125.070313.03125.296875.101563.671875.203125.539062.148438.914062.265625 1.125.359375.207031.085937.375.214844.5.390625.125.179688.1875.398438.1875.65625 0 .25-.078125.492188-.234375.71875-.148437.21875-.359375.390625-.640625.515625-.273438.1132812-.585938.171875-.9375.171875-.585938 0-1.03125-.1171875-1.34375-.359375-.304688-.238281-.496094-.597656-.578125-1.078125zm0 0"/></symbol><symbol id="u" overflow="visible"><path d="m.640625 0v-6.203125h.8125v5.46875h3.046875v.734375zm0 0"/></symbol><symbol id="v" overflow="visible"><path d="m.671875 0v-6.203125h2.328125c.414062 0 .734375.023437.953125.0625.300781.054687.550781.152344.75.296875.207031.136719.375.335938.5.59375.125.261719.1875.542969.1875.84375 0 .53125-.167969.980469-.5 1.34375-.335937.367188-.9375.546875-1.8125.546875h-1.59375v2.515625zm.8125-3.25h1.609375c.53125 0 .90625-.097656 1.125-.296875.21875-.195313.328125-.472656.328125-.828125 0-.257812-.070313-.484375-.203125-.671875-.125-.1875-.292969-.304687-.5-.359375-.148438-.039062-.402344-.0625-.765625-.0625h-1.59375zm0 0"/></symbol><symbol id="w" overflow="visible"><path d="m-.125 1.71875v-.546875h5.03125v.546875zm0 0"/></symbol><symbol id="x" overflow="visible"><path d="m3.515625 0v-.65625c-.355469.5-.828125.75-1.421875.75-.273438 0-.523438-.046875-.75-.140625-.230469-.101563-.402344-.226563-.515625-.375-.105469-.15625-.183594-.347656-.234375-.578125-.03125-.144531-.046875-.378906-.046875-.703125v-2.78125h.765625v2.484375c0 .398438.015625.664062.046875.796875.050781.210937.148437.371094.296875.484375.15625.117188.347656.171875.578125.171875.226563 0 .441406-.054687.640625-.171875.207031-.125.351562-.285156.4375-.484375.082031-.207031.125-.5.125-.875v-2.40625h.75v4.484375zm0 0"/></symbol><symbol id="y" overflow="visible"><path d="m.578125 1.71875v-6.203125h.6875v.578125c.164063-.226562.347656-.398438.546875-.515625.207031-.113281.457031-.171875.75-.171875.382812 0 .722656.101562 1.015625.296875.289063.199219.507813.480469.65625.84375.15625.355469.234375.746094.234375 1.171875 0 .460938-.085938.875-.25 1.25-.167969.367188-.40625.648438-.71875.84375-.3125.1875-.640625.28125-.984375.28125-.261719 0-.492187-.0546875-.6875-.15625-.199219-.101562-.367187-.238281-.5-.40625v2.1875zm.6875-3.9375c0 .574219.113281 1 .34375 1.28125.238281.273438.519531.40625.84375.40625.34375 0 .632813-.140625.875-.421875.238281-.28125.359375-.722656.359375-1.328125 0-.570312-.121094-1-.359375-1.28125-.230469-.289062-.507813-.4375-.828125-.4375-.335938 0-.625.15625-.875.46875-.242188.304688-.359375.742188-.359375 1.3125zm0 0"/></symbol><symbol id="z" overflow="visible"><path d="m.28125-2.25c0-.820312.234375-1.4375.703125-1.84375.382813-.332031.851563-.5 1.40625-.5.613281 0 1.117187.203125 1.515625.609375.394531.40625.59375.964844.59375 1.671875 0 .585938-.089844 1.042969-.265625 1.375-.179687.324219-.433594.578125-.765625.765625-.324219.17578125-.683594.265625-1.078125.265625-.625 0-1.136719-.195312-1.53125-.59375-.386719-.40625-.578125-.988281-.578125-1.75zm.78125 0c0 .585938.125 1.015625.375 1.296875.257812.28125.578125.421875.953125.421875s.6875-.140625.9375-.421875c.257813-.289063.390625-.726563.390625-1.3125 0-.5625-.132812-.984375-.390625-1.265625-.25-.28125-.5625-.421875-.9375-.421875s-.695313.140625-.953125.421875c-.25.28125-.375.710938-.375 1.28125zm0 0"/></symbol><symbol id="A" overflow="visible"><path d="m.578125 0v-4.484375h.671875v.625c.144531-.21875.332031-.394531.5625-.53125.238281-.132813.503906-.203125.796875-.203125.332031 0 .601563.074219.8125.21875.21875.136719.367187.328125.453125.578125.351562-.53125.816406-.796875 1.390625-.796875.445313 0 .789063.125 1.03125.375.238281.25.359375.632812.359375 1.140625v3.078125h-.765625v-2.828125c0-.300781-.027344-.519531-.078125-.65625-.042969-.132813-.132812-.242187-.265625-.328125-.125-.082031-.277344-.125-.453125-.125-.3125 0-.574219.109375-.78125.328125-.210938.210937-.3125.542969-.3125 1v2.609375h-.765625v-2.921875c0-.332031-.0625-.582031-.1875-.75-.125-.175781-.328125-.265625-.609375-.265625-.210938 0-.40625.058594-.59375.171875-.179688.117187-.308594.28125-.390625.5-.085937.21875-.125.53125-.125.9375v2.328125zm0 0"/></symbol><symbol id="B" overflow="visible"><path d="m.0625 0 1.640625-2.328125-1.515625-2.15625h.953125l.6875 1.046875c.125.199219.226563.367188.3125.5.125-.1875.238281-.347656.34375-.484375l.75-1.0625h.90625l-1.546875 2.109375 1.671875 2.375h-.9375l-.921875-1.390625-.234375-.375-1.1875 1.765625zm0 0"/></symbol><symbol id="C" overflow="visible"><path d="m.640625 0v-6.203125h2.3125c.476563 0 .859375.070313 1.140625.203125.289062.125.515625.320312.671875.578125.164063.261719.25.53125.25.8125 0 .261719-.074219.511719-.21875.75-.148437.230469-.367187.417969-.65625.5625.375.117187.660156.304687.859375.5625.207031.261719.3125.574219.3125.9375 0 .292969-.0625.5625-.1875.8125s-.277344.445313-.453125.578125c-.179687.136719-.402344.242188-.671875.3125-.273438.0625-.605469.09375-1 .09375zm.8125-3.59375h1.34375c.363281 0 .625-.023438.78125-.078125.207031-.050781.363281-.148437.46875-.296875.101563-.144531.15625-.328125.15625-.546875 0-.207031-.054687-.390625-.15625-.546875-.09375-.15625-.234375-.257812-.421875-.3125-.179688-.0625-.492188-.09375-.9375-.09375h-1.234375zm0 2.859375h1.546875c.257812 0 .441406-.007813.546875-.03125.195313-.03125.359375-.082031.484375-.15625.125-.082031.226562-.195313.3125-.34375.082031-.15625.125-.332031.125-.53125 0-.226563-.0625-.425781-.1875-.59375-.117188-.175781-.277344-.296875-.484375-.359375-.210937-.070312-.511719-.109375-.90625-.109375h-1.4375zm0 0"/></symbol><symbol id="D" overflow="visible"><path d="m1.265625 0h-.703125v-6.203125h.765625v2.21875c.320313-.40625.734375-.609375 1.234375-.609375.269531 0 .53125.058594.78125.171875.25.117187.453125.273437.609375.46875.15625.199219.273437.445313.359375.734375.09375.28125.140625.585938.140625.90625 0 .773438-.195313 1.367188-.578125 1.78125-.375.417969-.828125.625-1.359375.625s-.949219-.21875-1.25-.65625zm0-2.28125c0 .542969.070313.933594.21875 1.171875.238281.386719.5625.578125.96875.578125.332031 0 .617187-.140625.859375-.421875.25-.289063.375-.722656.375-1.296875 0-.582031-.121094-1.015625-.359375-1.296875-.230469-.28125-.511719-.421875-.84375-.421875-.335937 0-.621094.148438-.859375.4375-.242188.292969-.359375.710938-.359375 1.25zm0 0"/></symbol><symbol id="E" overflow="visible"><path d="m.578125 0v-4.484375h.671875v.640625c.332031-.5.8125-.75 1.4375-.75.269531 0 .515625.054688.734375.15625.226563.09375.398437.21875.515625.375.113281.15625.191406.34375.234375.5625.03125.148438.046875.390625.046875.734375v2.765625h-.765625v-2.734375c0-.3125-.03125-.539063-.09375-.6875-.054687-.15625-.15625-.28125-.3125-.375-.148437-.09375-.324219-.140625-.53125-.140625-.324219 0-.605469.105469-.84375.3125-.230469.210938-.34375.601562-.34375 1.171875v2.453125zm0 0"/></symbol><symbol id="F" overflow="visible"><path d="m3.484375 0v-.5625c-.28125.4375-.699219.65625-1.25.65625-.367187 0-.699219-.09375-1-.28125-.292969-.195312-.523437-.472656-.6875-.828125-.167969-.351563-.25-.757813-.25-1.21875 0-.445313.070313-.851563.21875-1.21875.15625-.363281.378906-.644531.671875-.84375.300781-.195313.632812-.296875 1-.296875.269531 0 .507812.058594.71875.171875.21875.117187.394531.265625.53125.453125v-2.234375h.75v6.203125zm-2.40625-2.234375c0 .574219.117187 1 .359375 1.28125.25.28125.535156.421875.859375.421875.332031 0 .613281-.132812.84375-.40625.238281-.269531.359375-.679688.359375-1.234375 0-.613281-.121094-1.0625-.359375-1.34375-.242187-.289063-.53125-.4375-.875-.4375-.335937 0-.617187.140625-.84375.421875-.230469.273438-.34375.703125-.34375 1.296875zm0 0"/></symbol><symbol id="G" overflow="visible"><path d="m.6875 0v-6.203125h.828125v2.546875h3.21875v-2.546875h.8125v6.203125h-.8125v-2.921875h-3.21875v2.921875zm0 0"/></symbol><symbol id="H" overflow="visible"><path d="m.6875 0v-6.203125h2.734375c.550781 0 .972656.058594 1.265625.171875.289062.117188.519531.3125.6875.59375.175781.28125.265625.59375.265625.9375 0 .4375-.148437.808594-.4375 1.109375-.28125.304687-.71875.496094-1.3125.578125.21875.105469.382813.203125.5.296875.238281.21875.460937.496094.671875.828125l1.078125 1.6875h-1.03125l-.8125-1.296875c-.242187-.363281-.4375-.644531-.59375-.84375-.15625-.195313-.296875-.332031-.421875-.40625-.125-.082031-.25-.140625-.375-.171875-.09375-.019531-.246094-.03125-.453125-.03125h-.953125v2.75zm.8125-3.46875h1.765625c.375 0 .664063-.035156.875-.109375.207031-.070313.363281-.191406.46875-.359375.113281-.175781.171875-.363281.171875-.5625 0-.289062-.105469-.53125-.3125-.71875-.210938-.195312-.542969-.296875-1-.296875h-1.96875zm0 0"/></symbol><symbol id="I" overflow="visible"><path d="m1.40625 0-1.375-4.484375h.78125l.71875 2.59375.265625.953125c.007813-.039062.085937-.347656.234375-.921875l.703125-2.625h.78125l.671875 2.59375.234375.859375.25-.859375.765625-2.59375h.75l-1.40625 4.484375h-.796875l-.703125-2.6875-.171875-.765625-.921875 3.453125zm0 0"/></symbol><symbol id="J" overflow="visible"><path d="m.578125-5.328125v-.875h.75v.875zm0 5.328125v-4.484375h.75v4.484375zm0 0"/></symbol><symbol id="K" overflow="visible"><path d="m.578125 0v-6.203125h.75v2.234375c.351563-.414062.800781-.625 1.34375-.625.332031 0 .617187.070312.859375.203125.25.125.425781.308594.53125.546875.113281.230469.171875.5625.171875 1v2.84375h-.765625v-2.84375c0-.382812-.085938-.660156-.25-.828125-.167969-.175781-.402344-.265625-.703125-.265625-.21875 0-.433594.0625-.640625.1875-.199219.117188-.339844.273438-.421875.46875-.085937.199219-.125.476562-.125.828125v2.453125zm0 0"/></symbol><symbol id="L" overflow="visible"><path d="m3.828125-1.90625 1.015625.328125c-.15625.5625-.417969.984375-.78125 1.265625-.355469.2734375-.808594.40625-1.359375.40625-.6875 0-1.257813-.234375-1.703125-.703125-.4375-.46875-.65625-1.109375-.65625-1.921875 0-.863281.21875-1.53125.65625-2 .445312-.476562 1.035156-.71875 1.765625-.71875.625 0 1.132813.1875 1.53125.5625.238281.21875.414063.53125.53125.9375l-1.03125.25c-.0625-.257812-.195313-.46875-.390625-.625-.1875-.15625-.421875-.234375-.703125-.234375-.386719 0-.699219.140625-.9375.421875-.230469.273438-.34375.714844-.34375 1.328125 0 .648437.113281 1.109375.34375 1.390625.238281.28125.546875.421875.921875.421875.28125 0 .519531-.085937.71875-.265625.195312-.175781.335938-.457031.421875-.84375zm0 0"/></symbol><symbol id="M" overflow="visible"><path d="m1.46875 0h-1v-3.75h.921875v.53125c.15625-.25.296875-.410156.421875-.484375.132812-.082031.28125-.125.4375-.125.226562 0 .445312.0625.65625.1875l-.3125.859375c-.167969-.101562-.324219-.15625-.46875-.15625-.136719 0-.257812.042969-.359375.125-.09375.074219-.167969.210938-.21875.40625-.054687.199219-.078125.617188-.078125 1.25zm0 0"/></symbol><symbol id="N" overflow="visible"><path d="m1.265625-2.59375-.90625-.171875c.101563-.363281.273437-.628906.515625-.796875.25-.175781.617188-.265625 1.109375-.265625.4375 0 .765625.054687.984375.15625.21875.105469.367188.242187.453125.40625.09375.15625.140625.449219.140625.875l-.015625 1.15625c0 .335937.015625.578125.046875.734375s.085938.324219.171875.5h-.96875c-.03125-.0625-.0625-.160156-.09375-.296875-.023437-.050781-.039063-.085937-.046875-.109375-.167969.167969-.351562.292969-.546875.375-.1875.0703125-.390625.109375-.609375.109375-.386719 0-.695312-.1015625-.921875-.3125-.21875-.207031-.328125-.46875-.328125-.78125 0-.21875.050781-.410156.15625-.578125.101562-.164062.242188-.289062.421875-.375.1875-.082031.453125-.160156.796875-.234375.457031-.082031.773438-.160156.953125-.234375v-.109375c0-.1875-.046875-.316406-.140625-.390625-.09375-.082031-.273438-.125-.53125-.125-.179688 0-.320312.039062-.421875.109375-.09375.0625-.167969.183594-.21875.359375zm1.3125.796875c-.125.042969-.328125.09375-.609375.15625-.273438.054687-.449219.109375-.53125.171875-.125.09375-.1875.210938-.1875.34375 0 .136719.050781.257812.15625.359375.101562.105469.234375.15625.390625.15625.175781 0 .347656-.0625.515625-.1875.113281-.082031.191406-.191406.234375-.328125.019531-.082031.03125-.238281.03125-.46875zm0 0"/></symbol><symbol id="O" overflow="visible"><path d="m.171875-1.0625.984375-.15625c.050781.1875.140625.335938.265625.4375.125.105469.304687.15625.546875.15625.25 0 .441406-.046875.578125-.140625.082031-.070313.125-.160156.125-.265625 0-.082031-.027344-.144531-.078125-.1875-.042969-.050781-.152344-.097656-.328125-.140625-.792969-.175781-1.296875-.335937-1.515625-.484375-.292969-.195312-.4375-.472656-.4375-.828125 0-.332031.125-.609375.375-.828125.257812-.21875.65625-.328125 1.1875-.328125.519531 0 .898438.085937 1.140625.25.25.167969.421875.414063.515625.734375l-.921875.171875c-.042969-.144531-.121094-.253906-.234375-.328125-.117188-.070312-.273438-.109375-.46875-.109375-.261719 0-.449219.039063-.5625.109375-.074219.054688-.109375.117188-.109375.1875 0 .074219.03125.136719.09375.1875.082031.0625.390625.15625.921875.28125.53125.117188.898438.261719 1.109375.4375.207031.179688.3125.421875.3125.734375 0 .34375-.148437.640625-.4375.890625-.28125.2421875-.703125.359375-1.265625.359375-.511719 0-.917969-.0976562-1.21875-.296875-.292969-.207031-.484375-.488281-.578125-.84375zm0 0"/></symbol><symbol id="P" overflow="visible"><path d="m1.5-5.171875v1.90625c.320312-.375.707031-.5625 1.15625-.5625.226562 0 .429688.042969.609375.125.1875.085937.328125.195313.421875.328125.09375.136719.15625.28125.1875.4375s.046875.402344.046875.734375v2.203125h-.984375v-1.984375c0-.382813-.023438-.628906-.0625-.734375-.042969-.113281-.109375-.195312-.203125-.25-.09375-.0625-.214844-.09375-.359375-.09375-.15625 0-.304688.042969-.4375.125-.125.074219-.21875.195312-.28125.359375-.0625.15625-.09375.390625-.09375.703125v1.875h-.984375v-5.171875zm0 0"/></symbol><symbol id="Q" overflow="visible"><path d="m.515625 0v-5.171875h1.5625l.9375 3.53125.921875-3.53125h1.5625v5.171875h-.96875v-4.0625l-1.03125 4.0625h-1l-1.015625-4.0625v4.0625zm0 0"/></symbol><symbol id="R" overflow="visible"><path d="m2.984375 0v-.5625c-.136719.199219-.320313.355469-.546875.46875-.21875.1132812-.453125.171875-.703125.171875s-.476563-.0546875-.671875-.15625c-.199219-.113281-.34375-.269531-.4375-.46875-.085938-.195313-.125-.472656-.125-.828125v-2.375h.984375v1.734375c0 .523437.015625.84375.046875.96875.039062.117187.109375.210937.203125.28125.101563.0625.226563.09375.375.09375.164063 0 .316406-.046875.453125-.140625.132812-.09375.222656-.207031.265625-.34375.050781-.132812.078125-.472656.078125-1.015625v-1.578125h1v3.75zm0 0"/></symbol><symbol id="S" overflow="visible"><path d="m2.234375-3.75v.796875h-.671875v1.515625c0 .304688.003906.480469.015625.53125.007813.054688.035156.09375.078125.125.050781.03125.109375.046875.171875.046875.09375 0 .226563-.03125.40625-.09375l.078125.765625c-.230469.09375-.492188.140625-.78125.140625-.179688 0-.339844-.0273438-.484375-.078125-.148437-.0625-.25-.140625-.3125-.234375s-.109375-.222656-.140625-.390625c-.023438-.113281-.03125-.347656-.03125-.703125v-1.625h-.453125v-.796875h.453125v-.734375l1-.578125v1.3125zm0 0"/></symbol><symbol id="T" overflow="visible"><path d="m2.6875-1.1875.984375.15625c-.125.367188-.328125.640625-.609375.828125-.273438.1875-.609375.28125-1.015625.28125-.65625 0-1.140625-.207031-1.453125-.625-.242188-.34375-.359375-.773437-.359375-1.296875 0-.625.160156-1.109375.484375-1.453125.320312-.351563.734375-.53125 1.234375-.53125.550781 0 .988281.1875 1.3125.5625.320313.367187.472656.921875.453125 1.671875h-2.46875c0 .304688.078125.539062.234375.703125.15625.15625.347656.234375.578125.234375.144531 0 .269531-.039062.375-.125.113281-.082031.195312-.21875.25-.40625zm.0625-1c-.011719-.289062-.089844-.507812-.234375-.65625-.136719-.144531-.308594-.21875-.515625-.21875-.210938 0-.386719.078125-.53125.234375-.136719.15625-.203125.371094-.203125.640625zm0 0"/></symbol><symbol id="U" overflow="visible"><path d="m3.953125 0h-.921875v-.546875c-.15625.210937-.339844.367187-.546875.46875-.210937.1015625-.417969.15625-.625.15625-.429687 0-.796875-.171875-1.109375-.515625-.304688-.34375-.453125-.828125-.453125-1.453125 0-.632813.144531-1.113281.4375-1.4375.300781-.332031.679687-.5 1.140625-.5.414062 0 .773438.171875 1.078125.515625v-1.859375h1zm-2.640625-1.953125c0 .398437.050781.6875.15625.875.164062.25.390625.375.671875.375.226563 0 .421875-.09375.578125-.28125.164062-.195313.25-.488281.25-.875 0-.425781-.078125-.734375-.234375-.921875s-.355469-.28125-.59375-.28125c-.242187 0-.4375.09375-.59375.28125-.15625.179688-.234375.453125-.234375.828125zm0 0"/></symbol><symbol id="V" overflow="visible"><path d="m.421875 0v-4.125h.546875v3.640625h2.03125v.484375zm0 0"/></symbol><symbol id="W" overflow="visible"><path d="m.421875 0v-4.125h.828125l.984375 2.921875c.082031.273437.144531.476563.1875.609375.050781-.144531.125-.363281.21875-.65625l.984375-2.875h.734375v4.125h-.515625v-3.453125l-1.203125 3.453125h-.5l-1.1875-3.515625v3.515625zm0 0"/></symbol><symbol id="X" overflow="visible"><path d="m.4375 0v-4.125h1.5625c.269531 0 .476562.011719.625.03125.207031.042969.378906.109375.515625.203125.132813.09375.242187.230469.328125.40625.082031.167969.125.351563.125.546875 0 .355469-.117188.65625-.34375.90625-.21875.242188-.621094.359375-1.203125.359375h-1.0625v1.671875zm.546875-2.171875h1.078125c.351562 0 .601562-.0625.75-.1875.144531-.132813.21875-.320313.21875-.5625 0-.164063-.046875-.3125-.140625-.4375-.085937-.125-.195313-.207031-.328125-.25-.09375-.019531-.265625-.03125-.515625-.03125h-1.0625zm0 0"/></symbol><symbol id="Y" overflow="visible"><path d="m-.015625 0 1.59375-4.125h.59375l1.6875 4.125h-.625l-.484375-1.25h-1.71875l-.453125 1.25zm1.203125-1.6875h1.390625l-.421875-1.15625c-.136719-.34375-.234375-.625-.296875-.84375-.054687.261719-.125.523438-.21875.78125zm0 0"/></symbol><symbol id="Z" overflow="visible"><path d="m3.390625-1.453125.546875.140625c-.117188.449219-.324219.792969-.625 1.03125-.292969.2421875-.652344.359375-1.078125.359375-.449219 0-.8125-.0859375-1.09375-.265625-.28125-.1875-.496094-.453125-.640625-.796875-.148438-.34375-.21875-.710937-.21875-1.109375 0-.425781.082031-.800781.25-1.125.164062-.320312.398438-.566406.703125-.734375.300781-.164063.632813-.25 1-.25.414063 0 .765625.109375 1.046875.328125.28125.210938.472656.5.578125.875l-.53125.125c-.09375-.289062-.234375-.503906-.421875-.640625-.179688-.144531-.40625-.21875-.6875-.21875-.3125 0-.578125.078125-.796875.234375-.210937.148438-.359375.351562-.453125.609375-.085938.261719-.125.527344-.125.796875 0 .34375.050781.652344.15625.921875.101562.261719.257812.460937.46875.59375.21875.125.457031.1875.71875.1875.300781 0 .554688-.085937.765625-.265625.21875-.175781.363281-.441406.4375-.796875zm0 0"/></symbol><symbol id="aa" overflow="visible"/><symbol id="ab" overflow="visible"><path d="m.46875 0v-4.125h.546875v1.6875h2.140625v-1.6875h.546875v4.125h-.546875v-1.953125h-2.140625v1.953125zm0 0"/></symbol><symbol id="ac" overflow="visible"><path d="m2.421875-.96875.53125.078125c-.085937.304687-.242187.539063-.46875.703125-.21875.1679688-.5.25-.84375.25-.4375 0-.789063-.1289062-1.046875-.390625-.25-.269531-.375-.648437-.375-1.140625 0-.5.125-.890625.375-1.171875.257812-.28125.597656-.421875 1.015625-.421875.394531 0 .71875.140625.96875.421875.257813.273437.390625.652344.390625 1.140625v.140625h-2.234375c.019531.324219.113281.574219.28125.75.164063.179687.375.265625.625.265625.1875 0 .34375-.046875.46875-.140625.132813-.101563.238281-.265625.3125-.484375zm-1.65625-.8125h1.671875c-.023438-.25-.089844-.4375-.203125-.5625-.15625-.195312-.367187-.296875-.625-.296875-.230469 0-.429687.078125-.59375.234375-.15625.15625-.242187.367188-.25.625zm0 0"/></symbol><symbol id="ad" overflow="visible"><path d="m2.328125-.375c-.1875.167969-.371094.28125-.546875.34375-.167969.0625-.351562.09375-.546875.09375-.335937 0-.589844-.078125-.765625-.234375-.179688-.15625-.265625-.359375-.265625-.609375 0-.15625.03125-.289062.09375-.40625.070313-.125.160156-.222656.265625-.296875.113281-.070313.238281-.125.375-.15625.09375-.03125.242188-.054687.453125-.078125.40625-.050781.703125-.109375.890625-.171875.007812-.070313.015625-.117187.015625-.140625 0-.207031-.054687-.351562-.15625-.4375-.125-.113281-.3125-.171875-.5625-.171875-.242187 0-.417969.042969-.53125.125-.117187.085937-.199219.234375-.25.453125l-.5-.078125c.039063-.207031.113281-.375.21875-.5.101563-.132813.253906-.238281.453125-.3125.195312-.070313.421875-.109375.671875-.109375.257813 0 .46875.03125.625.09375s.269531.140625.34375.234375c.082031.085937.140625.199219.171875.34375.007812.085937.015625.242187.015625.46875v.671875c0 .46875.007813.765625.03125.890625.019531.125.066406.246094.140625.359375h-.53125c-.054688-.101562-.089844-.226562-.109375-.375zm-.046875-1.125c-.179688.074219-.449219.136719-.8125.1875-.210938.03125-.359375.070312-.453125.109375-.085937.03125-.152344.085937-.203125.15625-.042969.074219-.0625.15625-.0625.25 0 .136719.050781.25.15625.34375.101562.085937.25.125.4375.125.195312 0 .367188-.039063.515625-.125.15625-.082031.269531-.203125.34375-.359375.050781-.113281.078125-.28125.078125-.5zm0 0"/></symbol><symbol id="ae" overflow="visible"><path d="m2.3125 0v-.375c-.1875.2929688-.464844.4375-.828125.4375-.242187 0-.460937-.0625-.65625-.1875-.199219-.132812-.355469-.316406-.46875-.546875-.105469-.238281-.15625-.507813-.15625-.8125 0-.300781.046875-.570313.140625-.8125.101562-.25.253906-.4375.453125-.5625.195313-.132813.421875-.203125.671875-.203125.175781 0 .332031.042969.46875.125.144531.074219.257812.171875.34375.296875v-1.484375h.515625v4.125zm-1.59375-1.484375c0 .375.078125.664063.234375.859375.164063.1875.359375.28125.578125.28125s.40625-.085938.5625-.265625c.15625-.1875.234375-.46875.234375-.84375 0-.40625-.078125-.703125-.234375-.890625-.15625-.195312-.351562-.296875-.578125-.296875-.230469 0-.421875.09375-.578125.28125-.148438.179687-.21875.46875-.21875.875zm0 0"/></symbol><symbol id="af" overflow="visible"><path d="m.375 0v-2.984375h.453125v.453125c.113281-.21875.21875-.359375.3125-.421875.101563-.070313.21875-.109375.34375-.109375.164063 0 .335937.058594.515625.171875l-.171875.46875c-.125-.070313-.25-.109375-.375-.109375-.117187 0-.21875.039062-.3125.109375-.085937.0625-.140625.152344-.171875.265625-.0625.179688-.09375.375-.09375.59375v1.5625zm0 0"/></symbol><symbol id="ag" overflow="visible"><path d="m1.5 0v-3.640625h-1.359375v-.484375h3.265625v.484375h-1.359375v3.640625zm0 0"/></symbol><symbol id="ah" overflow="visible"><path d="m.359375 1.15625-.0625-.484375c.113281.03125.210937.046875.296875.046875.113281 0 .203125-.023438.265625-.0625.070313-.03125.128906-.085938.171875-.15625.03125-.042969.082031-.167969.15625-.375.007812-.023438.023438-.0625.046875-.125l-1.140625-2.984375h.546875l.625 1.71875c.070313.230469.144531.464844.21875.703125.050781-.238281.117187-.46875.203125-.6875l.640625-1.734375h.5l-1.140625 3.03125c-.117188.332031-.210938.5625-.28125.6875-.085938.164063-.1875.285156-.3125.359375-.117188.082031-.25.125-.40625.125-.105469 0-.214844-.023438-.328125-.0625zm0 0"/></symbol><symbol id="ai" overflow="visible"><path d="m.375 1.140625v-4.125h.46875v.390625c.101562-.15625.222656-.269531.359375-.34375.144531-.082031.3125-.125.5-.125.257813 0 .484375.070312.671875.203125.195312.136719.34375.324219.4375.5625.101562.230469.15625.492187.15625.78125 0 .304687-.058594.578125-.171875.828125-.105469.242188-.261719.429688-.46875.5625-.210937.125-.429687.1875-.65625.1875-.167969 0-.320313-.03125-.453125-.09375-.136719-.070312-.246094-.164062-.328125-.28125v1.453125zm.46875-2.625c0 .386719.078125.671875.234375.859375s.34375.28125.5625.28125.40625-.09375.5625-.28125c.164063-.195312.25-.492188.25-.890625 0-.382813-.078125-.671875-.234375-.859375s-.34375-.28125-.5625-.28125c-.210938 0-.398438.101562-.5625.296875-.167969.199219-.25.492187-.25.875zm0 0"/></symbol><symbol id="aj" overflow="visible"><path d="m3.046875-2.421875h-2.71875v-.484375h2.71875zm0 1.25h-2.71875v-.46875h2.71875zm0 0"/></symbol><symbol id="ak" overflow="visible"><path d="m.234375-2.03125c0-.488281.050781-.878906.15625-1.171875.101563-.300781.253906-.53125.453125-.6875.195312-.164063.441406-.25.734375-.25.226563 0 .425781.046875.59375.140625.164063.085938.300781.210938.40625.375.113281.167969.203125.371094.265625.609375.0625.242187.09375.570313.09375.984375 0 .480469-.054688.871094-.15625 1.171875-.105469.292969-.257812.523437-.453125.6875-.199219.16796875-.449219.25-.75.25-.398437 0-.710937-.1445312-.9375-.4375-.273437-.34375-.40625-.898437-.40625-1.671875zm.53125 0c0 .679688.078125 1.132812.234375 1.359375.15625.21875.347656.328125.578125.328125.238281 0 .4375-.109375.59375-.328125.15625-.226563.234375-.679687.234375-1.359375 0-.675781-.078125-1.125-.234375-1.34375-.15625-.226562-.355469-.34375-.59375-.34375-.230469 0-.417969.101562-.5625.296875-.167969.25-.25.714844-.25 1.390625zm0 0"/></symbol><symbol id="al" overflow="visible"><path d="m.046875 0 1.09375-1.546875-1.015625-1.4375h.625l.46875.703125c.082031.125.148438.234375.203125.328125.082031-.125.160156-.234375.234375-.328125l.5-.703125h.609375l-1.03125 1.40625 1.109375 1.578125h-.625l-.609375-.921875-.171875-.25-.78125 1.171875zm0 0"/></symbol><symbol id="am" overflow="visible"><path d="m-.09375 1.140625v-.359375h3.359375v.359375zm0 0"/></symbol><symbol id="an" overflow="visible"><path d="m.4375 0v-4.125h1.421875c.320313 0 .566406.023438.734375.0625.238281.054688.441406.152344.609375.296875.21875.179687.378906.414063.484375.703125.113281.28125.171875.605469.171875.96875 0 .324219-.039063.605469-.109375.84375-.074219.242188-.167969.445312-.28125.609375-.117188.15625-.242188.28125-.375.375-.136719.085937-.304688.152344-.5.203125-.1875.0429688-.40625.0625-.65625.0625zm.546875-.484375h.890625c.269531 0 .484375-.023437.640625-.078125.15625-.050781.28125-.125.375-.21875.125-.125.222656-.296875.296875-.515625.070312-.21875.109375-.484375.109375-.796875 0-.425781-.074219-.753906-.21875-.984375-.136719-.238281-.308594-.398437-.515625-.484375-.148438-.050781-.382812-.078125-.703125-.078125h-.875zm0 0"/></symbol><symbol id="ao" overflow="visible"><path d="m.453125 0v-4.125h1.828125c.363281 0 .640625.039062.828125.109375.195313.074219.351563.203125.46875.390625.113281.1875.171875.398438.171875.625 0 .292969-.09375.542969-.28125.75-.1875.199219-.480469.324219-.875.375.144531.0625.253906.132812.328125.203125.15625.148437.304687.328125.453125.546875l.71875 1.125h-.6875l-.546875-.859375c-.15625-.25-.289063-.4375-.390625-.5625-.105469-.132813-.199219-.226563-.28125-.28125-.085938-.050781-.167969-.085937-.25-.109375-.0625-.007812-.164062-.015625-.296875-.015625h-.640625v1.828125zm.546875-2.3125h1.171875c.25 0 .441406-.019531.578125-.0625.144531-.050781.253906-.132812.328125-.25.070313-.113281.109375-.238281.109375-.375 0-.195312-.074219-.359375-.21875-.484375-.136719-.125-.355469-.1875-.65625-.1875h-1.3125zm0 0"/></symbol><g clip-path="url(#a)"><path d="m0 0h171v117.609375h-171zm0 0" fill="#fff"/></g><path d="m9.054688 15.511719h152.890624c.386719 0 .761719.074219 1.117188.222656.359375.148437.675781.359375.949219.632813.273437.273437.484375.589843.632812.949218.148438.359375.222657.730469.222657 1.117188v91.5625c0 .386718-.074219.757812-.222657 1.117187-.148437.359375-.359375.675781-.632812.949219-.273438.273438-.589844.484375-.949219.632812-.355469.148438-.730469.222657-1.117188.222657h-152.890624c-.386719 0-.761719-.074219-1.117188-.222657-.359375-.148437-.675781-.359374-.949219-.632812-.273437-.273438-.484375-.589844-.632812-.949219-.148438-.359375-.222657-.730469-.222657-1.117187v-91.5625c0-.386719.074219-.757813.222657-1.117188.148437-.359375.359375-.675781.632812-.949218.273438-.273438.589844-.484376.949219-.632813.355469-.148437.730469-.222656 1.117188-.222656zm0 0" fill="#dae8fc" fill-opacity=".302"/><g clip-path="url(#b)"><path d="m12.04948 20.998699h211.901051c.535979 0 1.055716.102865 1.548383.308594.498081.205729.936609.498081 1.315584.877056.378975.378974.671327.817502.877056 1.315584.205729.498081.308594 1.012404.308594 1.548382v126.902418c0 .535979-.102865 1.050302-.308594 1.548383s-.498081.936609-.877056 1.315584-.817503.671327-1.315584.877056c-.492667.205729-1.012404.308594-1.548383.308594h-211.901051c-.535979 0-1.055716-.102865-1.548383-.308594-.498081-.205729-.936609-.498081-1.315584-.877056s-.671327-.817503-.877056-1.315584-.308594-1.012404-.308594-1.548383v-126.902418c0-.535978.102865-1.050301.308594-1.548382.205729-.498082.498081-.93661.877056-1.315584.378975-.378975.817503-.671327 1.315584-.877056.492667-.205729 1.012404-.308594 1.548383-.308594zm0 0" fill="none" stroke="#6c8ebf" stroke-opacity=".302" transform="matrix(.721519 0 0 .721519 .360759 .360759)"/></g><path d="m150.019531 2.996094c-.203125.1875-.519531.214844-.746093-.050782-.15625-.210937-.078126-.457031.050781-.578124.78125-.75 2.015625-1.285157 3.3125-1.269532 1.507812.019532 2.589843.625 3.289062 1.277344.21875.222656.152344.503906-.035156.640625-.222656.167969-.496094.167969-.691406-.035156-.636719-.585938-1.515625-.976563-2.484375-.996094-.90625-.023437-1.886719.253906-2.695313 1.011719zm1.238281 1.246094c-.207031.179687-.511718.152343-.691406-.058594-.121094-.144532-.164062-.386719.023438-.574219.496094-.5 1.261718-.800781 2.019531-.800781.835937.011718 1.542969.34375 2.019531.84375.160156.214844.085938.4375-.066406.582031-.128906.144531-.445312.203125-.675781-.019531-.324219-.304688-.78125-.5-1.285157-.5-.511718 0-.996093.1875-1.34375.527344zm10.363282 12.980468h-18.039063v-12.019531h18.039063zm-7.019532.945313c.164063.179687.136719.402343.011719.546875-.511719.5625-1.304687.824218-1.984375.824218-.785156 0-1.507812-.28125-2.035156-.78125-.171875-.171874-.199219-.4375.039062-.648437.199219-.164063.460938-.136719.632813.015625.304687.289062.773437.527344 1.351563.519531.625-.015625 1.042968-.28125 1.339843-.554687.125-.09375.417969-.175782.644531.078125zm1.296876 1.796875c-.800782.800781-2.003907 1.320312-3.28125 1.320312-1.214844 0-2.417969-.425781-3.34375-1.328125-.105469-.117187-.207032-.382812.050781-.621093.203125-.164063.484375-.15625.671875.035156.6875.628906 1.574218.996094 2.621094 1.003906 1.203124-.019531 2.046874-.527344 2.582031-1.015625.160156-.144531.425781-.21875.671875-.007813.15625.160157.207031.402344.027344.613282zm0 0" fill="#5294cf"/><path d="m143.582031 16.5h18.039063v.722656h-18.039063zm0 0" fill-opacity=".302"/><path d="m161.621094 13.96875h-3.039063c-.179687 0-.351562-.160156-.351562-.347656v-1.269532c-.203125-.078124-.535157-.332031-.535157-.769531 0-.457031.390626-.832031.917969-.832031.394531 0 .871094.3125.871094.832031 0 .34375-.214844.632813-.535156.769531v.929688h2.671875zm-5.613282 1.738281c-.175781 0-.355468-.152343-.355468-.339843v-3.015626c-.171875-.070312-.503906-.289062-.527344-.75-.011719-.347656.289062-.871093.925781-.851562.488281.023438.851563.390625.859375.832031-.007812.34375-.21875.640625-.535156.761719v2.683594h5.246094v.679687zm-1.242187-10.503906v2.511719h1.535156v-1.421875c0-.195313.152344-.371094.390625-.371094h3.789063c.238281 0 .390625.175781.390625.363281v3.59375c0 .148438-.152344.351563-.382813.351563h-3.804687c-.199219 0-.382813-.152344-.382813-.359375v-1.480469h-3.726562c-.125.269531-.421875.5-.816407.5-.5 0-.886718-.375-.886718-.84375 0-.433594.367187-.832031.90625-.832031.324218 0 .664062.203125.796875.5h1.46875v-2.511719zm-5.265625 0h.71875v5.113281l1.34375 1.265625.640625-.601562c-.09375-.230469-.101563-.582031.183594-.878907.394531-.367187.90625-.296874 1.179687-.09375.449219.324219.457032.894532.125 1.234376-.296875.308593-.714844.324218-.976562.222656l-.640625.597656 1.140625 1.078125c.289062-.101563.664062-.082031.945312.179687.445313.433594.273438.988282-.035156 1.234376-.414062.324218-.96875.242187-1.269531-.09375-.152344-.183594-.28125-.484376-.152344-.832032l-3.117187-2.9375c-.058594-.050781-.085938-.136718-.085938-.238281zm-4.761719 0h.71875v2.511719h1.257813c.15625-.328125.488281-.5.808594-.5.503906 0 .894531.382812.894531.835937 0 .417969-.339844.839844-.917969.839844-.246094 0-.613281-.136719-.785156-.5h-1.257813v2.699219l2.210938 2.078125c.429687-.171875 1.023437 0 1.195312.546875.160157.578125-.296875 1.089844-.894531 1.0625-.324219-.007813-.699219-.210938-.820312-.613282-.046876-.167968-.039063-.347656.011718-.492187l-2.324218-2.191406c-.054688-.050781-.097657-.125-.097657-.261719zm5.800781 11.296875v-2.445312l-2.757812-2.582032c-.417969.136719-.824219-.023437-1.023438-.304687-.289062-.386719-.203124-.90625.230469-1.1875.402344-.246094.902344-.144531 1.175781.171875.265626.308594.222657.65625.136719.84375l2.957031 2.761718v2.742188zm-5.78125 0v-1.789062c-.238281-.09375-.527343-.375-.527343-.757813 0-.539063.46875-.851563.882812-.851563.488281 0 .894531.355469.894531.839844 0 .324219-.195312.625-.519531.769532v1.789062zm0 0" fill="#fff"/><g><use x="10.822784" xlink:href="#f" y="12.987341"/><use x="16.597754" xlink:href="#g" y="12.987341"/><use x="18.521335" xlink:href="#h" y="12.987341"/><use x="23.336629" xlink:href="#i" y="12.987341"/><use x="27.665742" xlink:href="#j" y="12.987341"/><use x="32.481036" xlink:href="#k" y="12.987341"/><use x="34.886569" xlink:href="#l" y="12.987341"/><use x="37.769826" xlink:href="#m" y="12.987341"/><use x="43.544796" xlink:href="#n" y="12.987341"/><use x="45.950329" xlink:href="#n" y="12.987341"/><use x="48.355862" xlink:href="#h" y="12.987341"/><use x="53.171155" xlink:href="#o" y="12.987341"/><use x="57.500269" xlink:href="#p" y="12.987341"/><use x="61.829383" xlink:href="#j" y="12.987341"/><use x="66.644676" xlink:href="#q" y="12.987341"/><use x="69.527934" xlink:href="#r" y="12.987341"/></g><path d="m5.050781 108.949219v-4.328125h1.441407v4.328125m-1.441407-8.65625v-4.332031h1.441407v4.332031m-1.441407-8.660157v-4.328124h1.441407v4.328124m-1.441407-8.65625v-4.332031h1.441407v4.332031m-1.441407-8.660156v-4.328125h1.441407v4.328125m-1.441407-8.65625v-4.332031h1.441407v4.332031m-1.441407-8.660156v-4.328125h1.441407v4.328125m-1.441407-8.660156v-4.328125h1.441407v4.328125m-1.441407-8.65625v-4.328125h1.441407v4.328125m-1.441407-8.660156v-4.328126h1.441407v4.328126m-1.441407-8.65625v-4.328126h1.441407v4.328126m-1.441407-8.660157v-4.328125h1.441407v4.328125m-1.441407-8.65625v-4.328125h1.441407v4.328125"/><path d="m163.785156 108.949219v-4.328125h1.441406v4.328125m-1.441406-8.65625v-4.332031h1.441406v4.332031m-1.441406-8.660157v-4.328124h1.441406v4.328124m-1.441406-8.65625v-4.332031h1.441406v4.332031m-1.441406-8.660156v-4.328125h1.441406v4.328125m-1.441406-8.65625v-4.332031h1.441406v4.332031m-1.441406-8.660156v-4.328125h1.441406v4.328125m-1.441406-8.660156v-4.328125h1.441406v4.328125m-1.441406-8.65625v-4.328125h1.441406v4.328125m-1.441406-8.660156v-4.328126h1.441406v4.328126m-1.441406-8.65625v-4.328126h1.441406v4.328126m-1.441406-8.660157v-4.328125h1.441406v4.328125m-1.441406-8.65625v-4.328125h1.441406v4.328125"/><g><use x="115.443033" xlink:href="#s" y="12.987341"/><use x="122.655404" xlink:href="#h" y="12.987341"/><use x="127.470697" xlink:href="#t" y="12.987341"/><use x="131.799811" xlink:href="#n" y="12.987341"/><use x="134.205344" xlink:href="#j" y="12.987341"/><use x="139.020637" xlink:href="#q" y="12.987341"/></g><path d="m160.898438 57.722656h-4.328126v-1.445312h4.328126m-8.65625 1.445312h-4.332032v-1.445312h4.332032m-8.660157 1.445312h-4.328125v-1.445312h4.328125m-8.65625 1.445312h-4.332031v-1.445312h4.332031m-8.660156 1.445312h-4.328125v-1.445312h4.328125m-8.65625 1.445312h-4.332031v-1.445312h4.332031m-8.660156 1.445312h-4.328125v-1.445312h4.328125m-8.65625 1.445312h-4.332031v-1.445312h4.332031m-8.660157 1.445312h-4.328124v-1.445312h4.328124m-8.65625 1.445312h-4.332031v-1.445312h4.332031m-8.660156 1.445312h-4.328125v-1.445312h4.328125m-8.65625 1.445312h-4.332031v-1.445312h4.332031m-8.660156 1.445312h-4.328125v-1.445312h4.328125m-8.660156 1.445312h-.546875v-1.445312h.546875"/><path d="m60.240751 79.000004 8.001782-4.000891-2.003152 4.000891 2.003152 4.000891zm0 0" stroke="#000" stroke-miterlimit="10" stroke-width="2" transform="scale(.721519)"/><g><use x="64.936706" xlink:href="#u" y="54.113922"/><use x="69.751999" xlink:href="#s" y="54.113922"/><use x="76.96437" xlink:href="#v" y="54.113922"/><use x="82.73934" xlink:href="#w" y="54.113922"/><use x="87.554634" xlink:href="#t" y="54.113922"/><use x="91.883748" xlink:href="#j" y="54.113922"/><use x="96.699041" xlink:href="#n" y="54.113922"/><use x="99.104574" xlink:href="#x" y="54.113922"/><use x="103.919867" xlink:href="#y" y="54.113922"/><use x="108.735161" xlink:href="#w" y="54.113922"/><use x="113.550454" xlink:href="#o" y="54.113922"/><use x="117.879568" xlink:href="#z" y="54.113922"/><use x="122.694862" xlink:href="#A" y="54.113922"/><use x="129.907233" xlink:href="#y" y="54.113922"/><use x="134.722526" xlink:href="#g" y="54.113922"/><use x="136.646107" xlink:href="#j" y="54.113922"/><use x="141.4614" xlink:href="#n" y="54.113922"/><use x="143.866933" xlink:href="#j" y="54.113922"/></g><path d="m85.140625 14.792969v-.722657h.71875v.722657m-.71875-2.886719v-.722656h.71875v.722656m-.71875-2.886719v-.722656h.71875v.722656m-.71875-2.886719v-.722656h.71875v.722656"/><g><use x="10.822784" xlink:href="#u" y="69.26582"/><use x="15.638078" xlink:href="#s" y="69.26582"/><use x="22.850449" xlink:href="#v" y="69.26582"/><use x="28.625419" xlink:href="#w" y="69.26582"/><use x="33.440712" xlink:href="#A" y="69.26582"/><use x="40.653083" xlink:href="#h" y="69.26582"/><use x="45.468377" xlink:href="#B" y="69.26582"/><use x="49.797491" xlink:href="#w" y="69.26582"/><use x="54.612784" xlink:href="#t" y="69.26582"/><use x="58.941898" xlink:href="#g" y="69.26582"/><use x="60.865479" xlink:href="#z" y="69.26582"/><use x="65.680772" xlink:href="#n" y="69.26582"/></g><path d="m9.742188 89.828125 25.25-17.316406h101.015624l25.25 17.316406zm0 0" fill="#f5f5f5"/><path d="m13.105469 87.082031 1.785156-1.222656.410156.59375-1.785156 1.226563zm3.570312-2.445312 1.785157-1.226563.410156.597656-1.785156 1.222657zm3.570313-2.449219 1.785156-1.226562.410156.597656-1.785156 1.222656zm3.570312-2.449219 1.785156-1.222656.410157.59375-1.785157 1.222656zm3.570313-2.449219 1.785156-1.222656.410156.59375-1.785156 1.226563zm3.570312-2.445312 1.785157-1.226562.410156.597656-1.785156 1.222656zm3.570313-2.449219.355468-.242187h1.960938v.722656h-1.851562v-.363281l.207031.296875-.261719.179687zm4.480468-.242187h2.164063v.722656h-2.164063zm4.328126 0h2.164062v.722656h-2.164062zm4.328124 0h2.164063v.722656h-2.164063zm4.328126 0h2.167968v.722656h-2.167968zm4.332031 0h2.164062v.722656h-2.164062zm4.328125 0h2.164062v.722656h-2.164062zm4.328125 0h2.164062v.722656h-2.164062zm4.328125 0h2.167968v.722656h-2.167968zm4.332031 0h2.164063v.722656h-2.164063zm4.328125 0h2.164062v.722656h-2.164062zm4.328125 0h2.164063v.722656h-2.164063zm4.328125 0h2.167969v.722656h-2.167969zm4.332031 0h2.164063v.722656h-2.164063zm4.328125 0h2.164063v.722656h-2.164063zm4.328125 0h2.164063v.722656h-2.164063zm4.328125 0h2.167969v.722656h-2.167969zm4.332032 0h2.164062v.722656h-2.164062zm4.328124 0h2.164063v.722656h-2.164063zm4.328126 0h2.164062v.722656h-2.164062zm4.332031 0h2.164062v.722656h-2.164062zm4.328125 0h2.164062v.722656h-2.164062zm4.328125 0h2.164062v.722656h-2.164062zm4.328125 0h1.871094l.425781.292968-.40625.59375-.335938-.230468.207031-.296875v.363281h-1.761718zm4.082031 1.515625 1.785156 1.226562-.40625.59375-1.785156-1.226562zm3.570313 2.449219 1.785156 1.222656-.40625.597656-1.785156-1.226562zm3.570312 2.449218 1.785156 1.222656-.40625.59375-1.785156-1.222656zm3.570312 2.445313 1.785157 1.226562-.40625.59375-1.785157-1.222656zm3.570313 2.449219 1.785156 1.222656-.40625.597656-1.785156-1.226562zm3.570313 2.449218 1.785156 1.222656-.40625.597657-1.785156-1.226563zm3.570312 2.449219 2.671875 1.832031h-1.25v-.722656h.085937v.359375l-.203124.296875-1.710938-1.171875zm-.746094 1.832031h-2.164062v-.722656h2.164062zm-4.328125 0h-2.164062v-.722656h2.164062zm-4.328125 0h-2.164062v-.722656h2.164062zm-4.328125 0h-2.164062v-.722656h2.164062zm-4.332031 0h-2.164062v-.722656h2.164062zm-4.328125 0h-2.164063v-.722656h2.164063zm-4.328125 0h-2.164062v-.722656h2.164062zm-4.328125 0h-2.164063v-.722656h2.164063zm-4.332031 0h-2.164063v-.722656h2.164063zm-4.328125 0h-2.164063v-.722656h2.164063zm-4.328125 0h-2.164063v-.722656h2.164063zm-4.328125 0h-2.164063v-.722656h2.164063zm-4.332031 0h-2.164063v-.722656h2.164063zm-4.328126 0h-2.164062v-.722656h2.164062zm-4.328124 0h-2.164063v-.722656h2.164063zm-4.328126 0h-2.164062v-.722656h2.164062zm-4.332031 0h-2.164062v-.722656h2.164062zm-4.328125 0h-2.164062v-.722656h2.164062zm-4.328125 0h-2.164062v-.722656h2.164062zm-4.328125 0h-2.164062v-.722656h2.164062zm-4.332031 0h-2.164063v-.722656h2.164063zm-4.328125 0h-2.164062v-.722656h2.164062zm-4.328125 0h-2.164063v-.722656h2.164063zm-4.328125 0h-2.164062v-.722656h2.164062zm-4.332031 0h-2.164063v-.722656h2.164063zm-4.328125 0h-2.164063v-.722656h2.164063zm-4.328125 0h-2.164063v-.722656h2.164063zm-4.328125 0h-2.164063v-.722656h2.164063zm-4.332032 0h-2.164062v-.722656h2.164062zm-4.328124 0h-2.164063v-.722656h2.164063zm-4.328126 0h-2.164062v-.722656h2.164062zm-4.328124 0h-2.167969v-.722656h2.167969zm-4.332032 0h-2.164062v-.722656h2.164062zm-4.328125 0h-2.164062v-.722656h2.164062zm-4.328125 0h-3.238281l2.742187-1.882812.410157.59375-1.785157 1.222656-.203124-.296875v-.359375h2.074218zm0 0" fill="#666"/><path d="m12.998836 98.999045h141.763644" fill="none" stroke="#b85450" stroke-miterlimit="10" stroke-width="2" transform="scale(.721519)"/><path d="m160.761109 98.999045-8.001782 4.000891 2.003153-4.000891-2.003153-4.000891zm0 0" fill="#b85450" stroke="#b85450" stroke-miterlimit="10" stroke-width="2" transform="scale(.721519)"/><path d="m147.191406 91.273438h4.203125l3.011719 4.269531 3.007812-4.269531h4.207032l-5.109375 7.214843 5.109375 7.214844h-4.207032l-3.007812-4.273437-3.011719 4.273437h-4.203125l4.8125-7.214844zm0 0" fill="#f8cecc"/><g clip-path="url(#c)"><path d="m203.502134 126.001788h5.825384l4.174137 5.91742 4.168722-5.91742h5.830798l-7.081414 9.99952 7.081414 9.999521h-5.830798l-4.168722-5.922835-4.174137 5.922835h-5.825384l6.669956-9.999521zm0 0" fill="none" stroke="#b85450" stroke-miterlimit="10" transform="matrix(.721519 0 0 .721519 .360759 .360759)"/></g><g fill="#c00"><use x="142.375986" xlink:href="#L" y="111.113919"/><use x="147.586565" xlink:href="#M" y="111.113919"/><use x="150.394429" xlink:href="#N" y="111.113919"/><use x="154.407174" xlink:href="#O" y="111.113919"/><use x="158.419918" xlink:href="#P" y="111.113919"/></g><g fill="#c00"><use x="118.329108" xlink:href="#Q" y="70.708857"/><use x="124.339418" xlink:href="#R" y="70.708857"/><use x="128.746743" xlink:href="#S" y="70.708857"/><use x="131.149457" xlink:href="#N" y="70.708857"/><use x="135.162202" xlink:href="#S" y="70.708857"/><use x="137.564916" xlink:href="#T" y="70.708857"/><use x="141.577661" xlink:href="#U" y="70.708857"/></g><g><use x="10.822784" xlink:href="#u" y="23.810125"/><use x="15.638078" xlink:href="#s" y="23.810125"/><use x="22.850449" xlink:href="#v" y="23.810125"/><use x="28.625419" xlink:href="#w" y="23.810125"/><use x="33.440712" xlink:href="#t" y="23.810125"/><use x="37.769826" xlink:href="#j" y="23.810125"/><use x="42.58512" xlink:href="#n" y="23.810125"/><use x="44.990652" xlink:href="#x" y="23.810125"/><use x="49.805946" xlink:href="#y" y="23.810125"/><use x="54.621239" xlink:href="#w" y="23.810125"/><use x="59.436533" xlink:href="#o" y="23.810125"/><use x="63.765647" xlink:href="#z" y="23.810125"/><use x="68.58094" xlink:href="#A" y="23.810125"/><use x="75.793311" xlink:href="#y" y="23.810125"/><use x="80.608605" xlink:href="#g" y="23.810125"/><use x="82.532185" xlink:href="#j" y="23.810125"/><use x="87.347479" xlink:href="#n" y="23.810125"/><use x="89.753012" xlink:href="#j" y="23.810125"/></g><g stroke-miterlimit="10"><path d="m12.998836 36.998768h141.763644" fill="none" stroke="#000" stroke-width="2" transform="scale(.721519)"/><path d="m160.761109 36.998768-8.001782 4.000891 2.003153-4.000891-2.003153-4.000891zm0 0" stroke="#000" stroke-width="2" transform="scale(.721519)"/><path d="m178.002544 106.998908h24.996095l5.002467 5.002468v9.999521h-25.001509l-4.997053-5.002468zm0 0" fill="#cce5ff" stroke="#36393d" transform="matrix(.721519 0 0 .721519 .360759 .360759)"/></g><path d="m128.792969 77.5625h18.035156l3.609375 3.609375h-18.039062zm0 0" fill-opacity=".051"/><path d="m128.792969 77.5625 3.605469 3.609375v7.214844l-3.605469-3.609375zm0 0" fill-opacity=".102"/><path d="m182.999597 122.000897v-9.999521l-4.997053-5.002468m4.997053 5.002468h25.001509" fill="none" stroke="#36393d" stroke-miterlimit="10" transform="matrix(.721519 0 0 .721519 .360759 .360759)"/><g><use x="135.115701" xlink:href="#V" y="86.582274"/><use x="138.325897" xlink:href="#W" y="86.582274"/><use x="143.134144" xlink:href="#X" y="86.582274"/></g><path d="m123.002473 106.998908h55.000071l4.997053 5.002468v9.999521h-55.000071l-4.997053-5.002468zm0 0" fill="#fc9" stroke="#36393d" stroke-miterlimit="10" transform="matrix(.721519 0 0 .721519 .360759 .360759)"/><path d="m89.109375 77.5625h39.683594l3.605469 3.609375h-39.683594zm0 0" fill-opacity=".051"/><path d="m89.109375 77.5625 3.605469 3.609375v7.214844l-3.605469-3.609375zm0 0" fill-opacity=".102"/><path d="m127.999526 122.000897v-9.999521l-4.997053-5.002468m4.997053 5.002468h55.000071" fill="none" stroke="#36393d" stroke-miterlimit="10" transform="matrix(.721519 0 0 .721519 .360759 .360759)"/><g><use x="96.311507" xlink:href="#Y" y="87.303793"/><use x="100.161487" xlink:href="#Z" y="87.303793"/><use x="104.32995" xlink:href="#V" y="87.303793"/><use x="107.540145" xlink:href="#aa" y="87.303793"/><use x="109.143834" xlink:href="#ab" y="87.303793"/><use x="113.312297" xlink:href="#ac" y="87.303793"/><use x="116.522493" xlink:href="#ad" y="87.303793"/><use x="119.732688" xlink:href="#ae" y="87.303793"/><use x="122.942884" xlink:href="#ac" y="87.303793"/><use x="126.15308" xlink:href="#af" y="87.303793"/></g><path d="m82.998976 106.998908h40.003497l4.997053 5.002468v9.999521h-39.998083l-5.002467-5.002468zm0 0" fill="#eee" stroke="#36393d" stroke-miterlimit="10" transform="matrix(.721519 0 0 .721519 .360759 .360759)"/><path d="m60.246094 77.5625h28.863281l3.605469 3.609375h-28.859375zm0 0" fill-opacity=".051"/><path d="m60.246094 77.5625 3.609375 3.609375v7.214844l-3.609375-3.609375zm0 0" fill-opacity=".102"/><path d="m88.001443 122.000897v-9.999521l-5.002467-5.002468m5.002467 5.002468h39.998083" fill="none" stroke="#36393d" stroke-miterlimit="10" transform="matrix(.721519 0 0 .721519 .360759 .360759)"/><use fill="#c00" x="65.320013" xlink:href="#ag" y="86.582274"/><g fill="#c00"><use x="68.52739" xlink:href="#ah" y="86.582274"/><use x="71.413466" xlink:href="#ai" y="86.582274"/><use x="74.623661" xlink:href="#ac" y="86.582274"/><use x="77.833857" xlink:href="#aj" y="86.582274"/><use x="81.204704" xlink:href="#ak" y="86.582274"/><use x="84.414899" xlink:href="#al" y="86.582274"/><use x="87.300975" xlink:href="#ad" y="86.582274"/></g><path d="m33.001372 106.998908h49.997604l5.002467 5.002468v9.999521h-50.003017l-4.997054-5.002468zm0 0" fill="#eee" stroke="#36393d" stroke-miterlimit="10" transform="matrix(.721519 0 0 .721519 .360759 .360759)"/><path d="m24.171875 77.5625h36.074219l3.609375 3.609375h-36.078125zm0 0" fill-opacity=".051"/><path d="m24.171875 77.5625 3.605469 3.609375v7.214844l-3.605469-3.609375zm0 0" fill-opacity=".102"/><path d="m37.998426 122.000897v-9.999521l-4.997054-5.002468m4.997054 5.002468h50.003017" fill="none" stroke="#36393d" stroke-miterlimit="10" transform="matrix(.721519 0 0 .721519 .360759 .360759)"/><use fill="#c00" x="29.221518" xlink:href="#V" y="86.582274"/><g fill="#c00"><use x="32.003311" xlink:href="#ag" y="86.582274"/><use x="35.529172" xlink:href="#am" y="86.582274"/><use x="38.739367" xlink:href="#Y" y="86.582274"/><use x="42.589347" xlink:href="#an" y="86.582274"/><use x="46.75781" xlink:href="#an" y="86.582274"/><use x="50.926273" xlink:href="#ao" y="86.582274"/><use x="55.094736" xlink:href="#aj" y="86.582274"/><use x="58.465583" xlink:href="#ak" y="86.582274"/></g><g><use x="44.362142" xlink:href="#C" y="98.126578"/><use x="50.137112" xlink:href="#h" y="98.126578"/><use x="54.952405" xlink:href="#t" y="98.126578"/><use x="59.281519" xlink:href="#j" y="98.126578"/><use x="64.096813" xlink:href="#D" y="98.126578"/><use x="68.912106" xlink:href="#h" y="98.126578"/><use x="73.7274" xlink:href="#E" y="98.126578"/><use x="78.542693" xlink:href="#F" y="98.126578"/></g><use x="83.357987" xlink:href="#k" y="98.126578"/><g><use x="49.660797" xlink:href="#G" y="108.227843"/><use x="55.913491" xlink:href="#j" y="108.227843"/><use x="60.728785" xlink:href="#h" y="108.227843"/><use x="65.544078" xlink:href="#F" y="108.227843"/><use x="70.359372" xlink:href="#j" y="108.227843"/><use x="75.174665" xlink:href="#q" y="108.227843"/></g><g clip-path="url(#d)"><path d="m152.99754 53.657418 65.762955.303179" fill="none" stroke="#d6b656" stroke-miterlimit="10" stroke-width="2" transform="scale(.721519)"/></g><path d="m162.167969 38.953125-5.777344 2.859375 1.449219-2.878906-1.429688-2.894532zm0 0" fill="#d6b656"/><g clip-path="url(#e)"><path d="m224.759125 53.987667-8.007196 3.962994 2.008566-3.990064-1.981496-4.011719zm0 0" fill="none" stroke="#d6b656" stroke-miterlimit="10" stroke-width="2" transform="scale(.721519)"/></g><path d="m85.251169 46.000208h65.497673c.297766 0 .584704.059553.860814.173245.27611.113693.519737.276111.73088.487254s.373561.454769.487253.73088c.113693.270696.173246.557634.173246.860814v10.497602c0 .297766-.059553.584704-.173246.860814-.113692.27611-.27611.519737-.487253.73088s-.45477.373561-.73088.487253c-.27611.113693-.563048.173246-.860814.173246h-65.497673c-.297766 0-.584704-.059553-.860814-.173246-.27611-.113692-.519737-.27611-.73088-.487253s-.373561-.45477-.487253-.73088c-.113693-.27611-.173246-.563048-.173246-.860814v-10.497602c0-.30318.059553-.590118.173246-.860814.113692-.276111.27611-.519737.487253-.73088s.45477-.373561.73088-.487254c.27611-.113692.563048-.173245.860814-.173245zm0 0" fill="#fff2cc" stroke="#d6b656" transform="matrix(.721519 0 0 .721519 .360759 .360759)"/><g><use x="62.276105" xlink:href="#H" y="42.569618"/><use x="68.528799" xlink:href="#z" y="42.569618"/><use x="73.344093" xlink:href="#g" y="42.569618"/><use x="75.267674" xlink:href="#j" y="42.569618"/><use x="80.082967" xlink:href="#k" y="42.569618"/><use x="82.4885" xlink:href="#f" y="42.569618"/><use x="88.26347" xlink:href="#I" y="42.569618"/><use x="94.516165" xlink:href="#J" y="42.569618"/><use x="96.439745" xlink:href="#n" y="42.569618"/><use x="98.845278" xlink:href="#o" y="42.569618"/><use x="103.174392" xlink:href="#K" y="42.569618"/></g><path d="m16.241777 53.960597 66.759118-.303179" fill="none" stroke="#d6b656" stroke-miterlimit="10" stroke-width="2" transform="scale(.721519)"/><path d="m10.237733 53.987667 7.980127-4.038789-1.976083 4.011719 2.008566 3.990064zm0 0" fill="#d6b656" stroke="#d6b656" stroke-miterlimit="10" stroke-width="2" transform="scale(.721519)"/></svg>