<svg height="145.690675pt" viewBox="0 0 393.904475 145.690675" width="393.904475pt" xmlns="http://www.w3.org/2000/svg" xmlns:xlink="http://www.w3.org/1999/xlink"><clipPath id="a"><path d="m162 135h101v10.691406h-101zm0 0"/></clipPath><symbol id="b" overflow="visible"><path d="m3.179688-6.640625c-.507813 0-.890626.25-1.148438.75-.261719.5-.382812 1.25-.382812 2.25s.121093 1.75.382812 2.25c.257812.5.640625.75 1.148438.75.511718 0 .890624-.25 1.148437-.75.25-.5.382813-1.25.382813-2.25s-.132813-1.75-.382813-2.25c-.257813-.5-.636719-.75-1.148437-.75m0-.78125c.808593 0 1.429687.332031 1.871093.972656.429688.648438.648438 1.589844.648438 2.808594 0 1.230469-.21875 2.171875-.648438 2.8125-.441406.636719-1.0625.957031-1.871093.957031-.820313 0-1.449219-.320312-1.878907-.957031-.429687-.640625-.640625-1.582031-.640625-2.8125 0-1.21875.210938-2.160156.640625-2.808594.429688-.640625 1.058594-.972656 1.878907-.972656"/></symbol><symbol id="c" overflow="visible"><path d="m1.921875-.828125h3.4375v.828125h-4.628906v-.828125c.371093-.382813.878906-.902344 1.53125-1.5625.636719-.648437 1.046875-1.070313 1.21875-1.257813.320312-.351562.539062-.652343.660156-.902343.121094-.238281.1875-.488281.1875-.730469 0-.378906-.136719-.699219-.40625-.9375-.273437-.242188-.621094-.371094-1.0625-.371094-.308594 0-.640625.058594-.980469.160156-.339844.109376-.707031.269532-1.097656.488282v-1c.398438-.160156.769531-.277344 1.109375-.359375.339844-.078125.660156-.121094.949219-.121094.75 0 1.351562.191406 1.800781.570313.449219.382812.679687.882812.679687 1.511718 0 .300782-.058593.589844-.171874.851563-.109376.269531-.308594.589843-.609376.949219-.078124.097656-.339843.367187-.777343.820312-.441407.449219-1.050781 1.078125-1.839844 1.890625"/></symbol><symbol id="d" overflow="visible"><path d="m3.78125-6.429688-2.492188 3.890626h2.492188zm-.261719-.859374h1.242188v4.75h1.039062v.820312h-1.039062v1.71875h-.980469v-1.71875h-3.292969v-.953125z"/></symbol><symbol id="e" overflow="visible"><path d="m3.300781-4.039062c-.441406 0-.789062.160156-1.050781.460937-.261719.296875-.390625.71875-.390625 1.238281 0 .53125.128906.949219.390625 1.25.261719.300782.609375.449219 1.050781.449219.4375 0 .789063-.148437 1.050781-.449219.257813-.300781.386719-.71875.386719-1.25 0-.519531-.128906-.941406-.386719-1.238281-.261718-.300781-.613281-.460937-1.050781-.460937m1.960938-3.089844v.898437c-.25-.121093-.5-.210937-.75-.269531-.261719-.058594-.511719-.089844-.75-.089844-.660157 0-1.160157.21875-1.5.660156-.339844.441407-.542969 1.109376-.582031 1.988282.191406-.277344.429687-.5.71875-.648438.292968-.148437.613281-.230468.960937-.230468.730469 0 1.3125.230468 1.730469.671874.421875.4375.640625 1.046876.640625 1.808594 0 .75-.230469 1.351563-.671875 1.800782-.4375.4492182-1.027344.667968-1.757813.667968-.839843 0-1.492187-.320312-1.929687-.957031-.449219-.640625-.671875-1.582031-.671875-2.8125 0-1.148437.269531-2.070313.820312-2.75.539063-.679687 1.28125-1.03125 2.199219-1.03125.242188 0 .492188.03125.75.070313.25.050781.511719.121093.792969.222656"/></symbol><symbol id="f" overflow="visible"><path d="m3.179688-3.460938c-.46875 0-.839844.132813-1.109376.382813-.269531.25-.398437.589844-.398437 1.027344 0 .441406.128906.789062.398437 1.039062.269532.25.640626.371094 1.109376.371094.460937 0 .832031-.121094 1.101562-.378906.269531-.25.410156-.589844.410156-1.03125 0-.4375-.140625-.777344-.402344-1.027344-.269531-.25-.640624-.382813-1.109374-.382813m-.988282-.417968c-.421875-.101563-.75-.300782-.992187-.589844-.238281-.292969-.347657-.640625-.347657-1.0625 0-.578125.199219-1.039062.617188-1.378906.410156-.339844.980469-.511719 1.710938-.511719.71875 0 1.289062.171875 1.710937.511719.410156.339844.621094.800781.621094 1.378906 0 .421875-.121094.769531-.363281 1.0625-.238282.289062-.558594.488281-.976563.589844.46875.109375.839844.328125 1.109375.648437.257812.320313.398438.71875.398438 1.179688 0 .710937-.21875 1.25-.648438 1.621093-.441406.3789068-1.050781.558594-1.851562.558594-.808594 0-1.429688-.1796872-1.859376-.558594-.429687-.371093-.640624-.910156-.640624-1.621093 0-.460938.128906-.859375.398437-1.179688.261719-.320312.632813-.539062 1.113281-.648437m-.363281-1.5625c0 .382812.113281.679687.351563.890625.242187.210937.570312.3125 1 .3125.421874 0 .75-.101563.992187-.3125.238281-.210938.359375-.507813.359375-.890625 0-.378906-.121094-.667969-.359375-.878906-.242187-.210938-.570313-.320313-.992187-.320313-.429688 0-.757813.109375-1 .320313-.238282.210937-.351563.5-.351563.878906"/></symbol><symbol id="g" overflow="visible"><path d="m1.238281-.828125h1.613281v-5.5625l-1.75.351563v-.902344l1.738282-.347656h.988281v6.460937h1.613281v.828125h-4.203125z"/></symbol><symbol id="h" overflow="visible"><path d="m.921875-7.289062h5.066406v1.417968h-3.1875v1.359375h3v1.421875h-3v3.089844h-1.878906z"/></symbol><symbol id="i" overflow="visible"><path d="m.78125-2.128906v-3.339844h1.757812v.546875c0 .300781-.007812.671875-.007812 1.121094v.890625c0 .441406.007812.761718.027344.949218.019531.199219.0625.339844.121094.421876.070312.117187.160156.210937.28125.269531.109374.058593.238281.089843.398437.089843.359375 0 .652344-.140624.859375-.421874.203125-.277344.3125-.667969.3125-1.167969v-2.699219h1.75v5.46875h-1.75v-.789062c-.261719.320312-.542969.558593-.839844.6992182-.300781.140625-.621094.2187498-.972656.2187498-.640625 0-1.117188-.1874998-1.449219-.570312-.328125-.378906-.488281-.949219-.488281-1.6875"/></symbol><symbol id="j" overflow="visible"><path d="m.570312-5.46875h4.769532v1.21875l-2.878906 3h2.878906v1.25h-4.890625v-1.21875l2.878906-3h-2.757813z"/></symbol><symbol id="k" overflow="visible"><path d="m.839844-5.46875h1.75v5.46875h-1.75zm0-2.132812h1.75v1.429687h-1.75z"/></symbol><symbol id="l" overflow="visible"><path d="m6.339844-3.328125v3.328125h-1.761719v-2.550781c0-.46875-.007813-.789063-.027344-.96875-.019531-.179688-.0625-.308594-.109375-.402344-.070312-.109375-.160156-.199219-.28125-.257813-.121094-.058593-.261718-.101562-.398437-.101562-.371094 0-.660157.140625-.863281.421875-.207032.28125-.308594.667969-.308594 1.167969v2.691406h-1.75v-5.46875h1.75v.796875c.261718-.316406.53125-.546875.832031-.699219.296875-.148437.628906-.230468.988281-.230468.628906 0 1.109375.203124 1.441406.582031.320313.390625.488282.949219.488282 1.691406"/></symbol><symbol id="m" overflow="visible"><path d="m4.558594-.929688c-.238282.320313-.507813.558594-.796875.710938-.292969.1484375-.621094.21875-1 .21875-.671875 0-1.222657-.261719-1.660157-.789062-.441406-.519532-.652343-1.191407-.652343-2.011719 0-.808594.210937-1.480469.652343-2 .4375-.519531.988282-.789063 1.660157-.789063.378906 0 .707031.078125 1 .230469.289062.148437.558593.378906.796875.699219v-.808594h1.761718v4.917969c0 .871093-.28125 1.539062-.839843 2-.558594.460937-1.359375.699219-2.410157.699219-.339843 0-.671874-.027344-.992187-.078126-.316406-.058593-.636719-.140624-.957031-.242187v-1.359375c.300781.171875.597656.300781.898437.390625.289063.082031.582031.128906.878907.128906.570312 0 .992187-.128906 1.261718-.378906.261719-.25.398438-.6289062.398438-1.160156zm-1.148438-3.398437c-.359375 0-.648437.136719-.851562.398437-.199219.269532-.296875.648438-.296875 1.128907 0 .5.089843.878906.289062 1.140625.199219.261718.480469.390625.859375.390625.359375 0 .648438-.128907.851563-.402344.199219-.257813.296875-.636719.296875-1.128906 0-.480469-.097656-.859375-.296875-1.128907-.203125-.261718-.492188-.398437-.851563-.398437"/></symbol><symbol id="n" overflow="visible"/><symbol id="o" overflow="visible"><path d="m.921875-7.289062h1.878906v7.289062h-1.878906z"/></symbol><symbol id="p" overflow="visible"><path d="m2.75-7.019531v1.550781h1.800781v1.25h-1.800781v2.320312c0 .257813.050781.429688.148438.519532.101562.089844.300781.128906.601562.128906h.898438v1.25h-1.5c-.6875 0-1.179688-.140625-1.46875-.429688-.289063-.28125-.429688-.769531-.429688-1.46875v-2.320312h-.871094v-1.25h.871094v-1.550781z"/></symbol><symbol id="q" overflow="visible"><path d="m6.300781-2.75v.5h-4.089843c.039062.410156.1875.71875.449218.921875.25.207031.601563.308594 1.058594.308594.359375 0 .742188-.050781 1.132812-.160157.378907-.109374.777344-.28125 1.1875-.5v1.351563c-.417968.15625-.828124.2695312-1.238281.3398438-.421875.078125-.832031.1171872-1.242187.1171872-.988282 0-1.757813-.25-2.308594-.75s-.820312-1.199218-.820312-2.109375c0-.890625.269531-1.589843.808593-2.097656.542969-.511719 1.28125-.773437 2.222657-.773437.859374 0 1.539062.261718 2.058593.78125.519531.519531.78125 1.210937.78125 2.070312m-1.800781-.578125c0-.332031-.101562-.601563-.289062-.800781-.199219-.199219-.449219-.3125-.761719-.3125-.339844 0-.621094.101562-.828125.292968-.210938.1875-.339844.457032-.390625.820313z"/></symbol><symbol id="r" overflow="visible"><path d="m4.898438-3.980469c-.160157-.070312-.308594-.121093-.457032-.160156-.152344-.03125-.300781-.050781-.453125-.050781-.449219 0-.796875.152344-1.039062.429687-.238281.292969-.359375.703125-.359375 1.242188v2.519531h-1.75v-5.46875h1.75v.898438c.21875-.359376.46875-.621094.769531-.78125.289063-.160157.640625-.25 1.050781-.25.058594 0 .121094.011718.191406.011718.058594 0 .160157.011719.296876.03125z"/></symbol><symbol id="s" overflow="visible"><path d="m3.289062-2.460938c-.367187 0-.648437.070313-.828124.191407-.179688.121093-.269532.300781-.269532.539062 0 .21875.070313.402344.21875.519531.148438.132813.359375.191407.621094.191407.328125 0 .609375-.109375.828125-.351563.21875-.238281.339844-.527344.339844-.890625v-.199219zm2.671876-.660156v3.121094h-1.761719v-.808594c-.238281.339844-.5.578125-.789063.7187502-.300781.140625-.648437.2187498-1.070312.2187498-.570313 0-1.03125-.160156-1.378906-.488281-.359376-.320313-.53125-.75-.53125-1.28125 0-.640625.21875-1.109375.660156-1.410156s1.128906-.449219 2.082031-.449219h1.027344v-.140625c0-.269531-.109375-.46875-.328125-.597656-.222656-.132813-.5625-.203125-1.019532-.203125-.382812 0-.730468.042968-1.050781.121094-.320312.082031-.621093.191406-.890625.332031v-1.332031c.371094-.089844.738282-.160157 1.121094-.210938.378906-.039062.757812-.070312 1.140625-.070312.976563 0 1.6875.203124 2.128906.589843.4375.390625.660157 1.023438.660157 1.890625"/></symbol><symbol id="t" overflow="visible"><path d="m3.441406-4.351562c-.390625 0-.691406.140624-.890625.421874s-.300781.679688-.300781 1.199219c0 .53125.101562.929688.300781 1.210938s.5.410156.890625.410156c.378906 0 .667969-.128906.867188-.410156.203125-.28125.3125-.679688.3125-1.210938 0-.519531-.109375-.917969-.3125-1.199219-.199219-.28125-.488282-.421874-.867188-.421874m0-1.25c.9375 0 1.667969.261718 2.199219.761718.53125.511719.800781 1.210938.800781 2.109375 0 .902344-.269531 1.609375-.800781 2.109375s-1.261719.75-2.199219.75c-.941406 0-1.679687-.25-2.210937-.75-.539063-.5-.800781-1.207031-.800781-2.109375 0-.898437.261718-1.597656.800781-2.109375.53125-.5 1.269531-.761718 2.210937-.761718"/></symbol><symbol id="u" overflow="visible"><path d="m5.109375-5.300781v1.332031c-.378906-.152344-.738281-.269531-1.078125-.351562-.351562-.078126-.679688-.121094-.992188-.121094-.339843 0-.578124.050781-.738281.132812-.160156.078125-.242187.207032-.242187.378906 0 .140626.0625.25.179687.320313.121094.078125.339844.128906.660157.167969l.3125.042968c.890624.117188 1.488281.296876 1.800781.558594.308593.261719.46875.667969.46875 1.230469 0 .578125-.21875 1.019531-.652344 1.308594-.429687.2890622-1.066406.429687-1.917969.429687-.359375 0-.738281-.027344-1.121094-.0781248-.390624-.0507812-.789062-.1289062-1.1875-.2500002v-1.332031c.339844.179688.699219.3125 1.070313.390625.359375.082031.738281.121094 1.117187.121094.339844 0 .589844-.039063.769532-.140625.171875-.089844.261718-.230469.261718-.417969 0-.160156-.058593-.273437-.179687-.351563-.121094-.082031-.359375-.140624-.710937-.179687l-.308594-.039063c-.78125-.089843-1.320313-.273437-1.632813-.542968-.316406-.257813-.46875-.660156-.46875-1.199219 0-.578125.191407-1.007813.589844-1.289063.402344-.28125 1.011719-.421874 1.832031-.421874.320313 0 .648438.03125 1.007813.082031s.742187.121093 1.160156.21875"/></symbol><symbol id="v" overflow="visible"><path d="m2.800781-5.871094v4.449219h.667969c.761719 0 1.351562-.1875 1.761719-.566406.398437-.382813.609375-.933594.609375-1.660157 0-.722656-.210938-1.273437-.609375-1.652343-.402344-.378907-.992188-.570313-1.761719-.570313zm-1.878906-1.417968h1.976563c1.101562 0 1.929687.078124 2.472656.238281.539062.160156 1.007812.421875 1.398437.800781.339844.328125.589844.710938.761719 1.140625.160156.429687.25.917969.25 1.460937 0 .546876-.089844 1.039063-.25 1.46875-.171875.441407-.421875.820313-.761719 1.140626-.398437.378906-.871093.648437-1.410156.808593-.550781.1601565-1.371094.230469-2.460937.230469h-1.976563z"/></symbol><symbol id="w" overflow="visible"><path d="m2.589844-.789062v2.859374h-1.75v-7.539062h1.75v.796875c.238281-.316406.5-.546875.800781-.699219.289063-.148437.628906-.230468 1.007813-.230468.671874 0 1.222656.273437 1.660156.8125.429687.539062.652344 1.21875.652344 2.058593 0 .851563-.222657 1.539063-.652344 2.070313-.4375.53125-.988282.789062-1.660156.789062-.378907 0-.71875-.0781248-1.007813-.2187498-.300781-.1406252-.5625-.3789062-.800781-.6992182m1.160156-3.539063c-.378906 0-.660156.136719-.859375.40625-.199219.28125-.300781.671875-.300781 1.191406s.101562.921875.300781 1.191407c.199219.277343.480469.410156.859375.410156.371094 0 .648438-.132813.851562-.410156.199219-.269532.296876-.671876.296876-1.191407s-.097657-.910156-.296876-1.191406c-.203124-.269531-.480468-.40625-.851562-.40625"/></symbol><symbol id="x" overflow="visible"><path d="m.839844-7.601562h1.75v7.601562h-1.75z"/></symbol><symbol id="y" overflow="visible"><path d="m5.261719-5.300781v1.429687c-.242188-.160156-.480469-.277344-.722657-.359375-.238281-.078125-.488281-.121093-.738281-.121093-.492187 0-.871093.152343-1.140625.429687-.28125.28125-.410156.683594-.410156 1.191406 0 .519531.128906.921875.410156 1.199219.269532.28125.648438.421875 1.140625.421875.269531 0 .527344-.039063.777344-.121094.242187-.078125.472656-.199219.683594-.359375v1.429688c-.28125.1015622-.5625.1718748-.839844.2187498-.28125.0429682-.5625.0703122-.84375.0703122-.988281 0-1.757813-.25-2.316406-.75-.5625-.5-.832031-1.207031-.832031-2.109375 0-.898437.269531-1.597656.832031-2.109375.558593-.5 1.328125-.761718 2.316406-.761718.28125 0 .5625.03125.84375.082031.277344.050781.558594.121093.839844.21875"/></symbol><symbol id="z" overflow="visible"><path d="m.921875-7.289062h2.386719l1.660156 3.898437 1.671875-3.898437h2.390625v7.289062h-1.78125v-5.328125l-1.679688 3.929687h-1.191406l-1.679687-3.929687v5.328125h-1.777344z"/></symbol><symbol id="A" overflow="visible"><path d="m.921875-7.289062h5.066406v1.417968h-3.1875v1.359375h3v1.421875h-3v1.667969h3.300781v1.421875h-5.179687z"/></symbol><symbol id="B" overflow="visible"><path d="m.148438-5.46875h1.75l1.363281 3.777344 1.359375-3.777344h1.75l-2.152344 5.46875h-1.917969z"/></symbol><symbol id="C" overflow="visible"><path d="m5.339844-1.328125h-2.941406l-.457032 1.328125h-1.8906248l2.6992188-7.289062h2.238281l2.703125 7.289062h-1.890625zm-2.46875-1.351563h2l-1-2.898437z"/></symbol><symbol id="D" overflow="visible"><path d="m-7.179688-4.449219 1.878907.46875v-1.289062l-1.878907-.46875v-1.082031l1.878907.46875v-1.347657h1.039062v1.609375l1.339844.339844v-1.390625h1.050781v1.640625l1.871094.46875v1.082031l-1.871094-.472656v1.292969l1.871094.46875v1.089844l-1.871094-.46875v1.359374h-1.050781v-1.601562l-1.339844-.339844v1.382813h-1.039062v-1.652344l-1.878907-.46875zm2.917969-.550781v1.289062l1.339844.339844v-1.289062z"/></symbol><symbol id="E" overflow="visible"><path d="m-.398438-6.699219c.179688.347657.320313.710938.398438 1.078125.078125.382813.128906.769532.128906 1.171875 0 1.21875-.328125 2.179688-1.007812 2.890625-.671875.707032-1.589844 1.058594-2.761719 1.058594-1.160156 0-2.078125-.351562-2.757813-1.058594-.679687-.710937-1.023437-1.671875-1.023437-2.890625 0-.402343.050781-.789062.140625-1.171875.089844-.367187.222656-.730468.402344-1.078125h1.507812c-.238281.347657-.410156.6875-.519531 1.027344-.109375.34375-.167969.703125-.167969 1.070313 0 .679687.21875 1.210937.648438 1.589843.429687.382813 1.019531.570313 1.769531.570313.761719 0 1.351563-.1875 1.78125-.570313.429687-.378906.640625-.910156.640625-1.589843 0-.367188-.050781-.726563-.160156-1.070313-.109375-.339844-.292969-.679687-.53125-1.027344z"/></symbol><symbol id="F" overflow="visible"><path d="m-3.980469-4.898438c-.070312.160157-.121093.308594-.160156.457032-.03125.152344-.050781.300781-.050781.453125 0 .449219.152344.796875.429687 1.039062.292969.238281.703125.359375 1.242188.359375h2.519531v1.75h-5.46875v-1.75h.898438c-.359376-.21875-.621094-.46875-.78125-.769531-.160157-.289063-.25-.640625-.25-1.050781 0-.058594.011718-.121094.011718-.191406 0-.058594.011719-.160157.03125-.296876z"/></symbol><symbol id="G" overflow="visible"><path d="m-2.460938-3.289062c0 .367187.070313.648437.191407.828124.121093.179688.300781.269532.539062.269532.21875 0 .402344-.070313.519531-.21875.132813-.148438.191407-.359375.191407-.621094 0-.328125-.109375-.609375-.351563-.828125-.238281-.21875-.527344-.339844-.890625-.339844h-.199219zm-.660156-2.671876h3.121094v1.761719h-.808594c.339844.238281.578125.5.7187502.789063.140625.300781.2187498.648437.2187498 1.070312 0 .570313-.160156 1.03125-.488281 1.378906-.320313.359376-.75.53125-1.28125.53125-.640625 0-1.109375-.21875-1.410156-.660156s-.449219-1.128906-.449219-2.082031v-1.027344h-.140625c-.269531 0-.46875.109375-.597656.328125-.132813.222656-.203125.5625-.203125 1.019532 0 .382812.042968.730468.121094 1.050781.082031.320312.191406.621093.332031.890625h-1.332031c-.089844-.371094-.160157-.738282-.210938-1.121094-.039062-.378906-.070312-.757812-.070312-1.140625 0-.976563.203124-1.6875.589843-2.128906.390625-.4375 1.023438-.660157 1.890625-.660157"/></symbol><symbol id="H" overflow="visible"><path d="m-5.300781-5.109375h1.332031c-.152344.378906-.269531.738281-.351562 1.078125-.078126.351562-.121094.679688-.121094.992188 0 .339843.050781.578124.132812.738281.078125.160156.207032.242187.378906.242187.140626 0 .25-.0625.320313-.179687.078125-.121094.128906-.339844.167969-.660157l.042968-.3125c.117188-.890624.296876-1.488281.558594-1.800781.261719-.308593.667969-.46875 1.230469-.46875.578125 0 1.019531.21875 1.308594.652344.2890622.429687.429687 1.066406.429687 1.917969 0 .359375-.027344.738281-.0781248 1.121094-.0507812.390624-.1289062.789062-.2500002 1.1875h-1.332031c.179688-.339844.3125-.699219.390625-1.070313.082031-.359375.121094-.738281.121094-1.117187 0-.339844-.039063-.589844-.140625-.769532-.089844-.171875-.230469-.261718-.417969-.261718-.160156 0-.273437.058593-.351563.179687-.082031.121094-.140624.359375-.179687.710937l-.039063.308594c-.089843.78125-.273437 1.320313-.542968 1.632813-.257813.316406-.660156.46875-1.199219.46875-.578125 0-1.007813-.191407-1.289063-.589844-.28125-.402344-.421874-1.011719-.421874-1.832031 0-.320313.03125-.648438.082031-1.007813s.121093-.742187.21875-1.160156"/></symbol><symbol id="I" overflow="visible"><path d="m-3.328125-6.339844h3.328125v1.761719h-2.539062c-.480469 0-.800782.007813-.980469.027344-.179688.019531-.308594.0625-.402344.109375-.109375.070312-.199219.160156-.257813.28125-.058593.121094-.101562.261718-.101562.398437 0 .371094.140625.660157.421875.863281.28125.207032.667969.308594 1.167969.308594h2.691406v1.75h-7.601562v-1.75h2.929687c-.316406-.261718-.546875-.53125-.699219-.832031-.148437-.296875-.230468-.628906-.230468-.988281 0-.628906.203124-1.109375.582031-1.441406.390625-.320313.949219-.488282 1.691406-.488282"/></symbol><symbol id="J" overflow="visible"/><symbol id="K" overflow="visible"><path d="m-6.269531-4.769531h2.558593v-2.550781h1.152344v2.550781h2.558594v1.160156h-2.558594v2.550781h-1.152344v-2.550781h-2.558593z"/></symbol><symbol id="L" overflow="visible"><path d="m-5.871094-2.800781h4.449219v-.667969c0-.761719-.1875-1.351562-.566406-1.761719-.382813-.398437-.933594-.609375-1.660157-.609375-.722656 0-1.273437.210938-1.652343.609375-.378907.402344-.570313.992188-.570313 1.761719zm-1.417968 1.878906v-1.976563c0-1.101562.078124-1.929687.238281-2.472656.160156-.539062.421875-1.007812.800781-1.398437.328125-.339844.710938-.589844 1.140625-.761719.429687-.160156.917969-.25 1.460937-.25.546876 0 1.039063.089844 1.46875.25.441407.171875.820313.421875 1.140626.761719.378906.398437.648437.871093.808593 1.410156.1601565.550781.230469 1.371094.230469 2.460937v1.976563z"/></symbol><symbol id="M" overflow="visible"><path d="m-2.75-6.300781h.5v4.089843c.410156-.039062.71875-.1875.921875-.449218.207031-.25.308594-.601563.308594-1.058594 0-.359375-.050781-.742188-.160157-1.132812-.109374-.378907-.28125-.777344-.5-1.1875h1.351563c.15625.417968.2695312.828124.3398438 1.238281.078125.421875.1171872.832031.1171872 1.242187 0 .988282-.25 1.757813-.75 2.308594s-1.199218.820312-2.109375.820312c-.890625 0-1.589843-.269531-2.097656-.808593-.511719-.542969-.773437-1.28125-.773437-2.222657 0-.859374.261718-1.539062.78125-2.058593.519531-.519531 1.210937-.78125 2.070312-.78125m-.578125 1.800781c-.332031 0-.601563.101562-.800781.289062-.199219.199219-.3125.449219-.3125.761719 0 .339844.101562.621094.292968.828125.1875.210938.457032.339844.820313.390625z"/></symbol><symbol id="N" overflow="visible"><path d="m-4.671875-4.558594h-2.929687v-1.761718h7.601562v1.761718h-.789062c.320312.238282.558593.507813.6992182.796875.140625.292969.2187498.621094.2187498 1 0 .683594-.257812 1.230469-.789062 1.660157-.53125.441406-1.21875.652343-2.070313.652343-.839843 0-1.519531-.210937-2.058593-.652343-.539063-.429688-.8125-.976563-.8125-1.660157 0-.378906.082031-.707031.230468-1 .152344-.289062.382813-.558593.699219-.796875m3.542969 1.148438c0-.371094-.132813-.648438-.410156-.851563-.269532-.199219-.671876-.296875-1.191407-.296875s-.910156.097656-1.191406.296875c-.269531.203125-.40625.480469-.40625.851563 0 .378906.136719.660156.40625.859375.28125.199219.671875.289062 1.191406.289062s.921875-.089843 1.191407-.289062c.277343-.199219.410156-.480469.410156-.859375"/></symbol><symbol id="O" overflow="visible"><path d="m-7.601562-.839844v-1.75h7.601562v1.75z"/></symbol><symbol id="P" overflow="visible"><path d="m-4.351562-3.441406c0 .390625.140624.691406.421874.890625s.679688.300781 1.199219.300781c.53125 0 .929688-.101562 1.210938-.300781s.410156-.5.410156-.890625c0-.378906-.128906-.667969-.410156-.867188-.28125-.203125-.679688-.3125-1.210938-.3125-.519531 0-.917969.109375-1.199219.3125-.28125.199219-.421874.488282-.421874.867188m-1.25 0c0-.9375.261718-1.667969.761718-2.199219.511719-.53125 1.210938-.800781 2.109375-.800781.902344 0 1.609375.269531 2.109375.800781s.75 1.261719.75 2.199219c0 .941406-.25 1.679687-.75 2.210937-.5.539063-1.207031.800781-2.109375.800781-.898437 0-1.597656-.261718-2.109375-.800781-.5-.53125-.761718-1.269531-.761718-2.210937"/></symbol><symbol id="Q" overflow="visible"><path d="m-5.300781-5.261719h1.429687c-.160156.242188-.277344.480469-.359375.722657-.078125.238281-.121093.488281-.121093.738281 0 .492187.152343.871093.429687 1.140625.28125.28125.683594.410156 1.191406.410156.519531 0 .921875-.128906 1.199219-.410156.28125-.269532.421875-.648438.421875-1.140625 0-.269531-.039063-.527344-.121094-.777344-.078125-.242187-.199219-.472656-.359375-.683594h1.429688c.1015622.28125.1718748.5625.2187498.839844.0429682.28125.0703122.5625.0703122.84375 0 .988281-.25 1.757813-.75 2.316406-.5.5625-1.207031.832031-2.109375.832031-.898437 0-1.597656-.269531-2.109375-.832031-.5-.558593-.761718-1.328125-.761718-2.316406 0-.28125.03125-.5625.082031-.84375.050781-.277344.121093-.558594.21875-.839844"/></symbol><symbol id="R" overflow="visible"><path d="m-7.601562-.839844v-1.75h4.140624l-2.007812-2.011718v-2.027344l2.507812 2.667968 2.960938-2.878906v2.121094l-2.28125 2.128906h2.28125v1.75z"/></symbol><path d="m49.296875 30.421144v-3.5" fill="none" stroke="#000" stroke-linejoin="round" stroke-miterlimit="10" stroke-width=".8" transform="matrix(1 0 0 -1 0 145.690675)"/><use x="46.118685" xlink:href="#b" y="129.86255"/><path d="m114.292969 30.421144v-3.5" fill="none" stroke="#000" stroke-linejoin="round" stroke-miterlimit="10" stroke-width=".8" transform="matrix(1 0 0 -1 0 145.690675)"/><g><use x="104.755215" xlink:href="#c" y="129.86255"/><use x="111.115215" xlink:href="#b" y="129.86255"/><use x="117.475215" xlink:href="#b" y="129.86255"/></g><path d="m179.289062 30.421144v-3.5" fill="none" stroke="#000" stroke-linejoin="round" stroke-miterlimit="10" stroke-width=".8" transform="matrix(1 0 0 -1 0 145.690675)"/><g><use x="169.75112" xlink:href="#d" y="129.86255"/><use x="176.11112" xlink:href="#b" y="129.86255"/><use x="182.47112" xlink:href="#b" y="129.86255"/></g><path d="m244.285156 30.421144v-3.5" fill="none" stroke="#000" stroke-linejoin="round" stroke-miterlimit="10" stroke-width=".8" transform="matrix(1 0 0 -1 0 145.690675)"/><g><use x="234.747025" xlink:href="#e" y="129.86255"/><use x="241.107025" xlink:href="#b" y="129.86255"/><use x="247.467025" xlink:href="#b" y="129.86255"/></g><path d="m309.28125 30.421144v-3.5" fill="none" stroke="#000" stroke-linejoin="round" stroke-miterlimit="10" stroke-width=".8" transform="matrix(1 0 0 -1 0 145.690675)"/><g><use x="299.74293" xlink:href="#f" y="129.86255"/><use x="306.10293" xlink:href="#b" y="129.86255"/><use x="312.46293" xlink:href="#b" y="129.86255"/></g><path d="m374.277344 30.421144v-3.5" fill="none" stroke="#000" stroke-linejoin="round" stroke-miterlimit="10" stroke-width=".8" transform="matrix(1 0 0 -1 0 145.690675)"/><g><use x="361.559148" xlink:href="#g" y="129.86255"/><use x="367.919148" xlink:href="#b" y="129.86255"/><use x="374.279148" xlink:href="#b" y="129.86255"/><use x="380.639148" xlink:href="#b" y="129.86255"/></g><g clip-path="url(#a)"><g><use x="161.239687" xlink:href="#h" y="143.534425"/><use x="168.069687" xlink:href="#i" y="143.534425"/><use x="175.189687" xlink:href="#j" y="143.534425"/><use x="181.009687" xlink:href="#j" y="143.534425"/><use x="186.829687" xlink:href="#k" y="143.534425"/><use x="190.259687" xlink:href="#l" y="143.534425"/><use x="197.379687" xlink:href="#m" y="143.534425"/><use x="204.539687" xlink:href="#n" y="143.534425"/><use x="208.019687" xlink:href="#o" y="143.534425"/><use x="211.739687" xlink:href="#p" y="143.534425"/><use x="216.519687" xlink:href="#q" y="143.534425"/><use x="223.299687" xlink:href="#r" y="143.534425"/><use x="228.229687" xlink:href="#s" y="143.534425"/><use x="234.979687" xlink:href="#p" y="143.534425"/><use x="239.759687" xlink:href="#k" y="143.534425"/><use x="243.189687" xlink:href="#t" y="143.534425"/><use x="250.059687" xlink:href="#l" y="143.534425"/><use x="257.179688" xlink:href="#u" y="143.534425"/></g></g><path d="m33.390625 47.995362h-3.5" fill="none" stroke="#000" stroke-linejoin="round" stroke-miterlimit="10" stroke-width=".8" transform="matrix(1 0 0 -1 0 145.690675)"/><use x="20.03125" xlink:href="#c" y="101.493935"/><path d="m33.390625 61.010987h-3.5" fill="none" stroke="#000" stroke-linejoin="round" stroke-miterlimit="10" stroke-width=".8" transform="matrix(1 0 0 -1 0 145.690675)"/><use x="20.03125" xlink:href="#d" y="88.477831"/><path d="m33.390625 74.026612h-3.5" fill="none" stroke="#000" stroke-linejoin="round" stroke-miterlimit="10" stroke-width=".8" transform="matrix(1 0 0 -1 0 145.690675)"/><use x="20.03125" xlink:href="#e" y="75.461727"/><path d="m33.390625 87.042237h-3.5" fill="none" stroke="#000" stroke-linejoin="round" stroke-miterlimit="10" stroke-width=".8" transform="matrix(1 0 0 -1 0 145.690675)"/><use x="20.03125" xlink:href="#f" y="62.445623"/><path d="m33.390625 100.057862h-3.5" fill="none" stroke="#000" stroke-linejoin="round" stroke-miterlimit="10" stroke-width=".8" transform="matrix(1 0 0 -1 0 145.690675)"/><g><use x="13.671875" xlink:href="#g" y="49.429519"/><use x="20.031875" xlink:href="#b" y="49.429519"/></g><path d="m33.390625 113.073487h-3.5" fill="none" stroke="#000" stroke-linejoin="round" stroke-miterlimit="10" stroke-width=".8" transform="matrix(1 0 0 -1 0 145.690675)"/><g><use x="13.671875" xlink:href="#g" y="36.413415"/><use x="20.031875" xlink:href="#c" y="36.413415"/></g><path d="m33.390625 126.089112h-3.5" fill="none" stroke="#000" stroke-linejoin="round" stroke-miterlimit="10" stroke-width=".8" transform="matrix(1 0 0 -1 0 145.690675)"/><g><use x="13.671875" xlink:href="#g" y="23.397311"/><use x="20.031875" xlink:href="#d" y="23.397311"/></g><g><use x="7.59375" xlink:href="#D" y="123.18805"/><use x="7.59375" xlink:href="#E" y="114.80805"/><use x="7.59375" xlink:href="#F" y="107.46805"/><use x="7.59375" xlink:href="#G" y="102.53805"/><use x="7.59375" xlink:href="#H" y="95.78805"/><use x="7.59375" xlink:href="#I" y="89.83805"/><use x="7.59375" xlink:href="#J" y="82.71805"/><use x="7.59375" xlink:href="#K" y="79.23805"/><use x="7.59375" xlink:href="#J" y="70.85805"/><use x="7.59375" xlink:href="#D" y="67.37805"/><use x="7.59375" xlink:href="#L" y="58.99805"/><use x="7.59375" xlink:href="#M" y="50.69805"/><use x="7.59375" xlink:href="#G" y="43.91805"/><use x="7.59375" xlink:href="#N" y="37.16805"/><use x="7.59375" xlink:href="#O" y="30.00805"/><use x="7.59375" xlink:href="#P" y="26.57805"/><use x="7.59375" xlink:href="#Q" y="19.70805"/><use x="7.59375" xlink:href="#R" y="13.77805"/></g><g stroke-miterlimit="10"><path d="m49.625 34.975831h.324219v6.507813h1.300781v6.511718h12.347656v6.507813h1.625v6.507812h11.699219v6.507813h11.375v6.507812h3.574219v6.507813h18.199218v6.507812h.972657v6.507813h18.851562v6.507812h19.824219v6.507813h78.96875v6.507812h48.097656v6.507813h.648438v6.507812h96.84375" fill="none" stroke="#1f77b4" stroke-dasharray="5.92 2.56" stroke-linejoin="round" stroke-width="1.6" transform="matrix(1 0 0 -1 0 145.690675)"/><path d="m49.625 34.975831h.324219v6.507813h19.496093v6.511718h61.097657v6.507813h243.734375" fill="none" stroke="#000" stroke-dasharray="2.2 3.63" stroke-linejoin="round" stroke-width="2.2" transform="matrix(1 0 0 -1 0 145.690675)"/><path d="m49.625 34.975831h.324219v6.507813h5.199219v6.511718h7.472656v6.507813h18.199218v6.507812h12.023438v6.507813h7.476562v6.507812h7.800782v6.507813h21.773437v6.507812h27.621094v6.507813h22.75v6.507812h13.648437v6.507813h2.925782v6.507812h177.4375" fill="none" stroke="#ff7f0e" stroke-dasharray="10.24 2.56 1.6 2.56" stroke-linejoin="round" stroke-width="1.6" transform="matrix(1 0 0 -1 0 145.690675)"/><path d="m49.625 34.975831h.324219v6.507813h19.824219v6.511718h1.296874v6.507813h27.949219v6.507812h21.125v6.507813h20.796875v6.507812h9.75v6.507813h18.199219v6.507812h98.46875v6.507813h106.917969" fill="none" stroke="#2ca02c" stroke-linecap="square" stroke-linejoin="round" stroke-width="1.6" transform="matrix(1 0 0 -1 0 145.690675)"/><path d="m-2.998352-3.00168 6 6m-6 0 6-6" fill="#2ca02c" stroke="#2ca02c" stroke-linejoin="round" transform="matrix(1 0 0 -1 49.623352 110.713164)"/><path d="m-2.999113-3.00168 6 6m-6 0 6-6" fill="#2ca02c" stroke="#2ca02c" stroke-linejoin="round" transform="matrix(1 0 0 -1 49.948332 110.713164)"/><path d="m-2.998645-3.00192 6 6m-6 0 6-6" fill="#2ca02c" stroke="#2ca02c" stroke-linejoin="round" transform="matrix(1 0 0 -1 69.772083 104.205112)"/><path d="m-3.001688-2.998253 6 6m-6 0 6-6" fill="#2ca02c" stroke="#2ca02c" stroke-linejoin="round" transform="matrix(1 0 0 -1 71.072001 97.69706)"/><path d="m-3.000709-2.998492 6 6m-6 0 6-6" fill="#2ca02c" stroke="#2ca02c" stroke-linejoin="round" transform="matrix(1 0 0 -1 99.02024 91.189008)"/><path d="m-2.999378-2.998732 6 6m-6 0 6-6" fill="#2ca02c" stroke="#2ca02c" stroke-linejoin="round" transform="matrix(1 0 0 -1 120.143909 84.680956)"/><path d="m-3.001193-2.998971 6 6m-6 0 6-6" fill="#2ca02c" stroke="#2ca02c" stroke-linejoin="round" transform="matrix(1 0 0 -1 140.942599 78.172904)"/><path d="m-3.000578-2.999211 6 6m-6 0 6-6" fill="#2ca02c" stroke="#2ca02c" stroke-linejoin="round" transform="matrix(1 0 0 -1 150.691985 71.664852)"/><path d="m-3.000213-2.99945 6 6m-6 0 6-6" fill="#2ca02c" stroke="#2ca02c" stroke-linejoin="round" transform="matrix(1 0 0 -1 168.890838 65.1568)"/><path d="m-3.000259-2.999689 6 6m-6 0 6-6" fill="#2ca02c" stroke="#2ca02c" stroke-linejoin="round" transform="matrix(1 0 0 -1 267.359634 58.648748)"/><path d="m-3.001943-2.999929 6 6m-6 0 6-6" fill="#2ca02c" stroke="#2ca02c" stroke-linejoin="round" transform="matrix(1 0 0 -1 339.830068 52.140696)"/><path d="m-3.000554-2.999929 6 6m-6 0 6-6" fill="#2ca02c" stroke="#2ca02c" stroke-linejoin="round" transform="matrix(1 0 0 -1 374.277898 52.140696)"/><path d="m33.390625 30.421144v100.226562" fill="none" stroke="#000" stroke-linecap="square" stroke-width=".8" transform="matrix(1 0 0 -1 0 145.690675)"/><path d="m390.511719 30.421144v100.226562" fill="none" stroke="#000" stroke-linecap="square" stroke-width=".8" transform="matrix(1 0 0 -1 0 145.690675)"/><path d="m33.390625 30.421144h357.121094" fill="none" stroke="#000" stroke-linecap="square" stroke-width=".8" transform="matrix(1 0 0 -1 0 145.690675)"/><path d="m33.390625 130.647706h357.121094" fill="none" stroke="#000" stroke-linecap="square" stroke-width=".8" transform="matrix(1 0 0 -1 0 145.690675)"/><path d="m35.25 137.596925h20" fill="none" stroke="#1f77b4" stroke-dasharray="5.92 2.56" stroke-linejoin="round" stroke-width="1.6" transform="matrix(1 0 0 -1 0 145.690675)"/></g><g><use x="63.248225" xlink:href="#v" y="11.59375"/><use x="71.548225" xlink:href="#i" y="11.59375"/><use x="78.668225" xlink:href="#w" y="11.59375"/><use x="85.828225" xlink:href="#x" y="11.59375"/><use x="89.258225" xlink:href="#k" y="11.59375"/><use x="92.688225" xlink:href="#y" y="11.59375"/><use x="98.618225" xlink:href="#s" y="11.59375"/><use x="105.368225" xlink:href="#p" y="11.59375"/><use x="110.148225" xlink:href="#k" y="11.59375"/><use x="113.578225" xlink:href="#t" y="11.59375"/><use x="120.448225" xlink:href="#l" y="11.59375"/></g><path d="m147.546875 137.596925h20" style="fill:none;stroke-width:2.2;stroke-linejoin:round;stroke:#000;stroke-dasharray:2.2 3.63;stroke-miterlimit:10" transform="matrix(1 0 0 -1 0 145.690675)"/><g><use x="175.5451" xlink:href="#z" y="11.59375"/><use x="185.4951" xlink:href="#i" y="11.59375"/><use x="192.6151" xlink:href="#p" y="11.59375"/><use x="197.3951" xlink:href="#s" y="11.59375"/><use x="204.1451" xlink:href="#p" y="11.59375"/><use x="208.9251" xlink:href="#k" y="11.59375"/><use x="212.3551" xlink:href="#t" y="11.59375"/><use x="219.2251" xlink:href="#l" y="11.59375"/></g><path d="m246.359375 137.596925h20" style="fill:none;stroke-width:1.6;stroke-linejoin:round;stroke:#ff7f0e;stroke-dasharray:10.24 2.56 1.6 2.56;stroke-miterlimit:10" transform="matrix(1 0 0 -1 0 145.690675)"/><g><use x="274.3576" xlink:href="#A" y="11.59375"/><use x="281.1876" xlink:href="#B" y="11.59375"/><use x="287.7076" xlink:href="#t" y="11.59375"/><use x="294.5776" xlink:href="#x" y="11.59375"/><use x="298.0076" xlink:href="#i" y="11.59375"/><use x="305.1276" xlink:href="#p" y="11.59375"/><use x="309.9076" xlink:href="#k" y="11.59375"/><use x="313.3376" xlink:href="#t" y="11.59375"/><use x="320.2076" xlink:href="#l" y="11.59375"/></g><path d="m347.328125 137.596925h20" style="fill:none;stroke-width:1.6;stroke-linecap:square;stroke-linejoin:round;stroke:#2ca02c;stroke-miterlimit:10" transform="matrix(1 0 0 -1 0 145.690675)"/><path d="m354.328125 134.596925 6 6m-6 0 6-6" fill="#2ca02c" stroke="#2ca02c" stroke-linejoin="round" stroke-miterlimit="10" transform="matrix(1 0 0 -1 0 145.690675)"/><g><use x="375.32635" xlink:href="#C" y="11.59375"/><use x="383.06635" xlink:href="#x" y="11.59375"/><use x="386.49635" xlink:href="#x" y="11.59375"/></g></svg>