<svg height="133.919998pt" viewBox="0 0 190.08 133.919998" width="190.08pt" xmlns="http://www.w3.org/2000/svg" xmlns:xlink="http://www.w3.org/1999/xlink"><clipPath id="a"><path d="m0 0h190v133.863281h-190zm0 0"/></clipPath><clipPath id="b"><path d="m0 23h190v42h-190zm0 0"/></clipPath><clipPath id="c"><path d="m155 20h35v48h-35zm0 0"/></clipPath><clipPath id="d"><path d="m0 49h190v42h-190zm0 0"/></clipPath><clipPath id="e"><path d="m155 46h35v48h-35zm0 0"/></clipPath><clipPath id="f"><path d="m0 79h190v42h-190zm0 0"/></clipPath><clipPath id="g"><path d="m155 76h35v47h-35zm0 0"/></clipPath><clipPath id="h"><path d="m0 92h190v41.863281h-190zm0 0"/></clipPath><clipPath id="i"><path d="m155 89h35v44.863281h-35zm0 0"/></clipPath><clipPath id="j"><path d="m137 101h53v32.863281h-53zm0 0"/></clipPath><clipPath id="k"><path d="m134 98h46v35.863281h-46zm0 0"/></clipPath><clipPath id="l"><path d="m77 105h33v28.863281h-33zm0 0"/></clipPath><clipPath id="m"><path d="m174 4.316406h8.804688v19.859375h-8.804688zm0 0"/></clipPath><clipPath id="n"><path d="m174 4.316406h8.804688v19.683594h-8.804688zm0 0"/></clipPath><clipPath id="o"><path d="m179 7h3.804688v4h-3.804688zm0 0"/></clipPath><clipPath id="p"><path d="m173.699219 5h8.300781v19.175781h-8.300781zm0 0"/></clipPath><clipPath id="q"><path d="m174 4.316406h3v1.683594h-3zm0 0"/></clipPath><clipPath id="r"><path d="m175 4.316406h7v4.683594h-7zm0 0"/></clipPath><clipPath id="s"><path d="m181 9h1.804688v14h-1.804688zm0 0"/></clipPath><clipPath id="t"><path d="m179 7h3.804688v4h-3.804688zm0 0"/></clipPath><symbol id="u" overflow="visible"><path d="m.671875 0v-6.1875h2.75c.550781 0 .96875.058594 1.25.171875.289063.105469.519531.296875.6875.578125.175781.28125.265625.59375.265625.9375 0 .4375-.148438.808594-.4375 1.109375-.28125.304687-.71875.496094-1.3125.578125.21875.105469.382812.210938.5.3125.238281.21875.460938.492188.671875.8125l1.078125 1.6875h-1.03125l-.8125-1.28125c-.242188-.375-.4375-.660156-.59375-.859375-.15625-.195313-.296875-.332031-.421875-.40625-.117187-.082031-.234375-.140625-.359375-.171875-.09375-.019531-.246094-.03125-.453125-.03125h-.953125v2.75zm.828125-3.453125h1.75c.375 0 .664062-.035156.875-.109375.21875-.082031.378906-.207031.484375-.375.113281-.175781.171875-.363281.171875-.5625 0-.289062-.109375-.53125-.328125-.71875-.210937-.1875-.542969-.28125-1-.28125h-1.953125zm0 0"/></symbol><symbol id="v" overflow="visible"><path d="m5.078125-2.171875.8125.203125c-.167969.679688-.476563 1.195312-.921875 1.546875-.449219.3554688-.992188.53125-1.625.53125-.667969 0-1.214844-.1328125-1.640625-.40625-.417969-.269531-.734375-.660156-.953125-1.171875-.210938-.519531-.3125-1.078125-.3125-1.671875 0-.644531.117188-1.207031.359375-1.6875.25-.476563.597656-.84375 1.046875-1.09375.457031-.25.957031-.375 1.5-.375.625 0 1.144531.164063 1.5625.484375.425781.3125.722656.757812.890625 1.328125l-.8125.1875c-.148437-.445313-.355469-.773437-.625-.984375-.273437-.207031-.617187-.3125-1.03125-.3125-.46875 0-.867187.117188-1.1875.34375-.324219.230469-.546875.539062-.671875.921875-.125.386719-.1875.78125-.1875 1.1875 0 .523437.070312.980469.21875 1.375.15625.398437.394531.695313.71875.890625.320312.1875.671875.28125 1.046875.28125.457031 0 .84375-.128906 1.15625-.390625.320313-.269531.539063-.664063.65625-1.1875zm0 0"/></symbol><symbol id="w" overflow="visible"/><symbol id="x" overflow="visible"><path d="m.390625-1.984375.765625-.0625c.039062.304687.125.554687.25.75.132812.199219.34375.359375.625.484375s.597656.1875.953125.1875c.3125 0 .585937-.046875.828125-.140625.238281-.09375.414062-.21875.53125-.375.113281-.164063.171875-.34375.171875-.53125 0-.195313-.058594-.367187-.171875-.515625-.105469-.144531-.289062-.265625-.546875-.359375-.167969-.070313-.539063-.175781-1.109375-.3125-.5625-.132813-.960938-.257813-1.1875-.375-.292969-.15625-.511719-.347656-.65625-.578125-.148438-.226562-.21875-.488281-.21875-.78125 0-.300781.085938-.585938.265625-.859375.175781-.28125.429687-.488281.765625-.625.34375-.144531.722656-.21875 1.140625-.21875.457031 0 .863281.078125 1.21875.234375.351563.148438.625.367188.8125.65625.1875.28125.285156.605469.296875.96875l-.78125.046875c-.042969-.382813-.1875-.675781-.4375-.875-.242188-.195313-.601562-.296875-1.078125-.296875-.492187 0-.851563.089844-1.078125.265625-.230469.179687-.34375.398437-.34375.65625 0 .21875.082031.402344.25.546875.15625.148438.566406.296875 1.234375.453125.664063.148437 1.117187.277344 1.359375.390625.363281.15625.628906.367188.796875.625.175781.25.265625.542969.265625.875 0 .335938-.09375.648438-.28125.9375-.1875.292969-.460938.523438-.8125.6875-.355469.15625-.75.234375-1.1875.234375-.5625 0-1.039062-.0859375-1.421875-.25-.375-.164063-.671875-.410156-.890625-.734375-.210938-.320312-.320312-.691406-.328125-1.109375zm0 0"/></symbol><symbol id="y" overflow="visible"><path d="m3.640625-1.4375.78125.09375c-.125.460938-.355469.8125-.6875 1.0625-.335937.25-.761719.375-1.28125.375-.65625 0-1.179687-.195312-1.5625-.59375-.386719-.40625-.578125-.972656-.578125-1.703125 0-.75.191406-1.332031.578125-1.75.394531-.414063.898437-.625 1.515625-.625.601562 0 1.09375.203125 1.46875.609375.382812.40625.578125.980469.578125 1.71875 0 .042969-.007813.109375-.015625.203125h-3.34375c.03125.492187.171875.871094.421875 1.140625.25.261719.5625.390625.9375.390625.28125 0 .519531-.070313.71875-.21875.195313-.15625.351563-.390625.46875-.703125zm-2.5-1.234375h2.5c-.03125-.375-.125-.65625-.28125-.84375-.242187-.289063-.554687-.4375-.9375-.4375-.355469 0-.652344.121094-.890625.359375-.230469.230469-.359375.539062-.390625.921875zm0 0"/></symbol><symbol id="z" overflow="visible"><path d="m2.234375-.671875.109375.65625c-.21875.0507812-.414062.078125-.578125.078125-.28125 0-.5-.0429688-.65625-.125-.148437-.09375-.25-.207031-.3125-.34375-.0625-.144531-.09375-.445312-.09375-.90625v-2.578125h-.546875v-.59375h.546875v-1.109375l.765625-.453125v1.5625h.765625v.59375h-.765625v2.625c0 .21875.007812.359375.03125.421875.03125.054688.070312.101562.125.140625.0625.03125.148438.046875.265625.046875.082031 0 .195313-.003906.34375-.015625zm0 0"/></symbol><symbol id="A" overflow="visible"><path d="m3.5 0v-.65625c-.34375.5-.820312.75-1.421875.75-.261719 0-.507813-.046875-.734375-.140625-.230469-.101563-.402344-.226563-.515625-.375-.105469-.15625-.183594-.347656-.234375-.578125-.03125-.144531-.046875-.378906-.046875-.703125v-2.78125h.765625v2.484375c0 .398438.015625.667969.046875.8125.050781.199219.148437.355469.296875.46875.15625.117188.347656.171875.578125.171875.226563 0 .441406-.054687.640625-.171875.195312-.125.335938-.285156.421875-.484375.082031-.195313.125-.488281.125-.875v-2.40625h.765625v4.484375zm0 0"/></symbol><symbol id="B" overflow="visible"><path d="m.5625 1.71875v-6.203125h.703125v.59375c.15625-.226563.335937-.398437.546875-.515625.207031-.113281.457031-.171875.75-.171875.382812 0 .722656.101563 1.015625.296875.289063.199219.507813.476562.65625.828125.144531.355469.21875.746094.21875 1.171875 0 .460938-.085937.875-.25 1.25-.15625.367188-.390625.648438-.703125.84375-.3125.1875-.648438.28125-1 .28125-.25 0-.480469-.0546875-.6875-.15625-.199219-.101562-.359375-.238281-.484375-.40625v2.1875zm.6875-3.9375c0 .585938.113281 1.015625.34375 1.296875.238281.273437.523438.40625.859375.40625.34375 0 .632813-.140625.875-.421875.238281-.289062.359375-.738281.359375-1.34375 0-.570312-.121094-1-.359375-1.28125-.230469-.28125-.511719-.421875-.84375-.421875-.324219 0-.609375.152344-.859375.453125-.25.304688-.375.742188-.375 1.3125zm0 0"/></symbol><symbol id="C" overflow="visible"><path d="m.28125-2.234375c0-.832031.234375-1.445313.703125-1.84375.382813-.332031.851563-.5 1.40625-.5.613281 0 1.113281.203125 1.5.609375.394531.398438.59375.953125.59375 1.671875 0 .574219-.089844 1.027344-.265625 1.359375-.167969.324219-.417969.578125-.75.765625-.335938.17578125-.695312.265625-1.078125.265625-.625 0-1.136719-.195312-1.53125-.59375-.386719-.40625-.578125-.984375-.578125-1.734375zm.78125 0c0 .574219.125 1.007813.375 1.296875.25.28125.566406.421875.953125.421875.375 0 .6875-.144531.9375-.4375.25-.289063.375-.726563.375-1.3125 0-.550781-.125-.96875-.375-1.25-.25-.289063-.5625-.4375-.9375-.4375-.386719 0-.703125.148437-.953125.4375-.25.28125-.375.710937-.375 1.28125zm0 0"/></symbol><symbol id="D" overflow="visible"><path d="m.5625 0v-4.484375h.6875v.625c.132812-.21875.316406-.390625.546875-.515625.238281-.132812.507813-.203125.8125-.203125.332031 0 .601563.070313.8125.203125.21875.136719.367187.328125.453125.578125.351562-.519531.8125-.78125 1.375-.78125.445312 0 .789062.125 1.03125.375.238281.242187.359375.617187.359375 1.125v3.078125h-.75v-2.828125c0-.300781-.027344-.515625-.078125-.640625-.054688-.132812-.148438-.242188-.28125-.328125-.125-.082031-.273438-.125-.4375-.125-.324219 0-.589844.105469-.796875.3125-.210937.210937-.3125.542969-.3125 1v2.609375h-.75v-2.90625c0-.34375-.0625-.597656-.1875-.765625-.125-.164063-.328125-.25-.609375-.25-.210938 0-.40625.058594-.59375.171875-.179688.105469-.308594.265625-.390625.484375-.085937.21875-.125.53125-.125.9375v2.328125zm0 0"/></symbol><symbol id="E" overflow="visible"><path d="m.546875 0v-6.1875h.765625v6.1875zm0 0"/></symbol><symbol id="F" overflow="visible"><path d="m2.015625 1.8125c-.417969-.523438-.773437-1.136719-1.0625-1.84375-.292969-.707031-.4375-1.441406-.4375-2.203125 0-.675781.109375-1.320313.328125-1.9375.257812-.707031.648438-1.414063 1.171875-2.125h.546875c-.34375.59375-.570312 1.015625-.671875 1.265625-.179687.386719-.3125.789062-.40625 1.203125-.125.53125-.1875 1.0625-.1875 1.59375 0 1.355469.421875 2.703125 1.265625 4.046875zm0 0"/></symbol><symbol id="G" overflow="visible"><path d="m4.34375-.734375v.734375h-4.078125c-.011719-.1875.015625-.363281.078125-.53125.101562-.269531.269531-.539062.5-.8125.226562-.269531.5625-.582031 1-.9375.675781-.550781 1.128906-.988281 1.359375-1.3125.238281-.320312.359375-.628906.359375-.921875 0-.300781-.109375-.550781-.328125-.75-.210937-.207031-.492187-.3125-.84375-.3125-.367187 0-.65625.109375-.875.328125s-.328125.523438-.328125.90625l-.78125-.078125c.050781-.582031.25-1.023437.59375-1.328125.351562-.300781.820312-.453125 1.40625-.453125.59375 0 1.0625.167969 1.40625.5.351562.324219.53125.726563.53125 1.203125 0 .25-.054688.496094-.15625.734375-.105469.242187-.277344.496094-.515625.765625-.230469.261719-.617187.621094-1.15625 1.078125-.460937.386719-.757813.648437-.890625.78125-.125.136719-.230469.273437-.3125.40625zm0 0"/></symbol><symbol id="H" overflow="visible"><path d="m.703125 0v-6.1875h4.171875v.734375h-3.34375v1.90625h2.90625v.734375h-2.90625v2.8125zm0 0"/></symbol><symbol id="I" overflow="visible"><path d="m.5625 0v-4.484375h.6875v.6875c.164062-.320313.320312-.53125.46875-.625.15625-.101563.320312-.15625.5-.15625.25 0 .507812.078125.78125.234375l-.265625.71875c-.1875-.113281-.375-.171875-.5625-.171875-.167969 0-.320313.054687-.453125.15625-.125.09375-.214844.230469-.265625.40625-.085937.273437-.125.570313-.125.890625v2.34375zm0 0"/></symbol><symbol id="J" overflow="visible"><path d="m3.5-.546875c-.28125.242187-.554688.40625-.8125.5-.261719.09375-.542969.140625-.84375.140625-.492188 0-.871094-.1171875-1.140625-.359375-.261719-.238281-.390625-.546875-.390625-.921875 0-.21875.046875-.414062.140625-.59375.101563-.175781.234375-.320312.390625-.4375.164062-.113281.351562-.195312.5625-.25.144531-.039062.367188-.078125.671875-.109375.613281-.070313 1.066406-.160156 1.359375-.265625 0-.101562 0-.171875 0-.203125 0-.300781-.074219-.519531-.21875-.65625-.199219-.164063-.484375-.25-.859375-.25-.367187 0-.632813.0625-.796875.1875-.167969.125-.292969.351563-.375.671875l-.75-.109375c.070312-.3125.1875-.566406.34375-.765625.15625-.195312.378906-.347656.671875-.453125.289063-.101563.628906-.15625 1.015625-.15625.375 0 .679688.046875.921875.140625.238281.085938.414063.195312.53125.328125.113281.136719.191406.308594.234375.515625.03125.136719.046875.371094.046875.703125v1.015625c0 .710938.015625 1.15625.046875 1.34375s.09375.367188.1875.53125h-.796875c-.074219-.15625-.121094-.335938-.140625-.546875zm-.0625-1.703125c-.28125.117188-.699219.210938-1.25.28125-.3125.054688-.539062.109375-.671875.171875-.125.054687-.226563.132813-.296875.234375-.0625.105469-.09375.226562-.09375.359375 0 .199219.070312.367187.21875.5.15625.136719.382812.203125.6875.203125.289062 0 .546875-.0625.765625-.1875.226563-.125.398437-.296875.515625-.515625.082031-.175781.125-.429687.125-.765625zm0 0"/></symbol><symbol id="K" overflow="visible"><path d="m.4375.375.734375.109375c.03125.226563.113281.394531.25.5.1875.132813.445313.203125.78125.203125.34375 0 .609375-.074219.796875-.21875.195312-.136719.332031-.328125.40625-.578125.03125-.15625.046875-.484375.046875-.984375-.335937.398438-.746094.59375-1.234375.59375-.617188 0-1.09375-.21875-1.4375-.65625-.335938-.445312-.5-.984375-.5-1.609375 0-.425781.078125-.816406.234375-1.171875.15625-.363281.378906-.644531.671875-.84375.289062-.195312.632812-.296875 1.03125-.296875.53125 0 .96875.214844 1.3125.640625v-.546875h.703125v3.875c0 .6953125-.074219 1.191406-.21875 1.484375-.148437.289062-.375.519531-.6875.6875-.304687.164062-.679687.25-1.125.25-.53125 0-.964844-.121094-1.296875-.359375-.335938-.242187-.492188-.601563-.46875-1.078125zm.625-2.703125c0 .59375.113281 1.027344.34375 1.296875.238281.273438.53125.40625.875.40625.351562 0 .644531-.132812.875-.40625.238281-.269531.359375-.691406.359375-1.265625 0-.550781-.125-.960937-.375-1.234375-.242187-.28125-.527344-.421875-.859375-.421875-.34375 0-.636719.140625-.875.421875-.230469.273438-.34375.671875-.34375 1.203125zm0 0"/></symbol><symbol id="L" overflow="visible"><path d="m.5625 0v-4.484375h.6875v.640625c.332031-.488281.804688-.734375 1.421875-.734375.269531 0 .519531.046875.75.140625.226563.09375.394531.226562.5.390625.113281.15625.195313.339844.25.546875.019531.148438.03125.398438.03125.75v2.75h-.75v-2.71875c0-.3125-.03125-.546875-.09375-.703125-.054687-.15625-.15625-.273437-.3125-.359375-.148437-.09375-.324219-.140625-.53125-.140625-.324219 0-.605469.105469-.84375.3125-.230469.199219-.34375.585937-.34375 1.15625v2.453125zm0 0"/></symbol><symbol id="M" overflow="visible"><path d="m.265625-1.34375.75-.109375c.039063.304687.15625.539063.34375.703125.195313.15625.46875.234375.8125.234375.351563 0 .613281-.070313.78125-.21875.164063-.144531.25-.3125.25-.5 0-.175781-.074219-.3125-.21875-.40625-.105469-.070313-.367187-.160156-.78125-.265625-.554687-.132812-.9375-.253906-1.15625-.359375-.21875-.101563-.386719-.242187-.5-.421875-.105469-.1875-.15625-.390625-.15625-.609375 0-.195313.046875-.378906.140625-.546875.09375-.164062.21875-.304688.375-.421875.113281-.09375.269531-.164063.46875-.21875.207031-.0625.429688-.09375.671875-.09375.34375 0 .644531.054687.90625.15625.269531.09375.46875.230469.59375.40625.132813.167969.222656.398437.265625.6875l-.734375.109375c-.03125-.226562-.132813-.40625-.296875-.53125-.15625-.132812-.386719-.203125-.6875-.203125-.34375 0-.59375.058594-.75.171875-.148438.117188-.21875.25-.21875.40625 0 .09375.03125.183594.09375.265625.0625.085937.160156.152344.296875.203125.070313.023438.296875.085938.671875.1875.53125.148438.898438.265625 1.109375.359375.21875.085937.382813.214844.5.390625.125.179688.1875.398438.1875.65625 0 .25-.074219.492188-.21875.71875-.148437.21875-.359375.390625-.640625.515625-.28125.1132812-.59375.171875-.9375.171875-.585938 0-1.03125-.1171875-1.34375-.359375-.304688-.238281-.496094-.597656-.578125-1.078125zm0 0"/></symbol><symbol id="N" overflow="visible"><path d="m1.0625 1.8125h-.546875c.84375-1.34375 1.265625-2.691406 1.265625-4.046875 0-.53125-.058594-1.054687-.171875-1.578125-.105469-.414062-.242187-.820312-.40625-1.21875-.117187-.25-.34375-.671875-.6875-1.265625h.546875c.53125.710937.921875 1.417969 1.171875 2.125.21875.617187.328125 1.261719.328125 1.9375 0 .761719-.148438 1.496094-.4375 2.203125-.292969.707031-.648438 1.320312-1.0625 1.84375zm0 0"/></symbol><symbol id="O" overflow="visible"><path d="m.0625 0 1.640625-2.328125-1.515625-2.15625h.953125l.6875 1.046875c.125.210938.226563.382812.3125.515625.125-.1875.238281-.351563.34375-.5l.75-1.0625h.90625l-1.546875 2.109375 1.65625 2.375h-.921875l-.921875-1.390625-.25-.375-1.171875 1.765625zm0 0"/></symbol><symbol id="P" overflow="visible"><path d="m.671875 0v-6.1875h2.328125c.40625 0 .71875.023438.9375.0625.300781.054688.554688.152344.765625.296875.207031.136719.375.335937.5.59375.125.25.1875.53125.1875.84375 0 .523437-.167969.964844-.5 1.328125-.335937.367188-.9375.546875-1.8125.546875h-1.59375v2.515625zm.8125-3.25h1.59375c.53125 0 .90625-.09375 1.125-.28125.226563-.195312.34375-.476562.34375-.84375 0-.257812-.070313-.476562-.203125-.65625-.125-.1875-.296875-.3125-.515625-.375-.136719-.03125-.390625-.046875-.765625-.046875h-1.578125zm0 0"/></symbol><symbol id="Q" overflow="visible"><path d="m-.015625 0 2.375-6.1875h.890625l2.53125 6.1875h-.9375l-.71875-1.875h-2.59375l-.671875 1.875zm1.78125-2.546875h2.109375l-.65625-1.703125c-.199219-.519531-.34375-.945312-.4375-1.28125-.074219.398438-.183594.789062-.328125 1.171875zm0 0"/></symbol><symbol id="R" overflow="visible"><path d="m.6875 0v-6.1875h.828125v2.546875h3.203125v-2.546875h.828125v6.1875h-.828125v-2.921875h-3.203125v2.921875zm0 0"/></symbol><symbol id="S" overflow="visible"><path d="m3.5-1.640625.734375.09375c-.074219.523437-.28125.929687-.625 1.21875-.335937.28125-.746094.421875-1.234375.421875-.617188 0-1.109375-.195312-1.484375-.59375-.367187-.394531-.546875-.96875-.546875-1.71875 0-.488281.078125-.910156.234375-1.265625.15625-.363281.394531-.632813.71875-.8125.332031-.1875.691406-.28125 1.078125-.28125.488281 0 .882812.125 1.1875.375.3125.242187.515625.585937.609375 1.03125l-.734375.125c-.074219-.300781-.203125-.523437-.390625-.671875-.179687-.15625-.390625-.234375-.640625-.234375-.386719 0-.699219.136719-.9375.40625-.230469.273437-.34375.703125-.34375 1.296875 0 .605469.113281 1.046875.34375 1.328125.226562.273437.523438.40625.890625.40625.300781 0 .550781-.09375.75-.28125.195313-.1875.328125-.46875.390625-.84375zm0 0"/></symbol><symbol id="T" overflow="visible"><path d="m.578125-5.3125v-.875h.75v.875zm0 5.3125v-4.484375h.75v4.484375zm0 0"/></symbol><symbol id="U" overflow="visible"><path d="m3.421875 1.71875v-2.203125c-.117187.167969-.28125.308594-.5.421875-.210937.1015625-.433594.15625-.671875.15625-.53125 0-.992188-.207031-1.375-.625-.386719-.425781-.578125-1.007812-.578125-1.75 0-.445312.078125-.847656.234375-1.203125.15625-.363281.378906-.632813.671875-.8125.300781-.1875.628906-.28125.984375-.28125.5625 0 1 .234375 1.3125.703125v-.609375h.6875v6.203125zm-2.34375-3.96875c0 .574219.117187 1.007812.359375 1.296875.25.292969.539062.4375.875.4375.320312 0 .597656-.132813.828125-.40625.238281-.28125.359375-.703125.359375-1.265625 0-.59375-.125-1.039062-.375-1.34375-.242188-.300781-.527344-.453125-.859375-.453125-.335937 0-.617187.140625-.84375.421875-.230469.28125-.34375.71875-.34375 1.3125zm0 0"/></symbol><symbol id="V" overflow="visible"><path d="m4.71875-6.1875h.828125v3.578125c0 .625-.074219 1.121094-.21875 1.484375-.136719.367188-.390625.664062-.765625.890625-.367188.23046875-.84375.34375-1.4375.34375-.585938 0-1.058594-.1015625-1.421875-.296875-.367187-.207031-.632813-.5-.796875-.875-.15625-.375-.234375-.890625-.234375-1.546875v-3.578125h.828125v3.578125c0 .53125.046875.929687.140625 1.1875.101563.25.273437.445313.515625.578125.25.136719.546875.203125.890625.203125.601563 0 1.03125-.132813 1.28125-.40625.257813-.269531.390625-.789063.390625-1.5625zm0 0"/></symbol><symbol id="W" overflow="visible"><path d="m.6875 0v-6.1875h4.46875v.734375h-3.65625v1.890625h3.421875v.734375h-3.421875v2.09375h3.796875v.734375zm0 0"/></symbol><symbol id="X" overflow="visible"><path d="m2.234375 0v-5.453125h-2.03125v-.734375h4.90625v.734375h-2.046875v5.453125zm0 0"/></symbol><symbol id="Y" overflow="visible"><path d="m.640625 0v-6.1875h1.234375l1.46875 4.375c.132812.417969.226562.726562.28125.921875.070312-.226563.1875-.554687.34375-.984375l1.46875-4.3125h1.109375v6.1875h-.796875v-5.171875l-1.796875 5.171875h-.734375l-1.78125-5.265625v5.265625zm0 0"/></symbol><symbol id="Z" overflow="visible"><path d="m.65625 0v-6.1875h.84375l3.25 4.859375v-4.859375h.78125v6.1875h-.84375l-3.25-4.859375v4.859375zm0 0"/></symbol><symbol id="aa" overflow="visible"><path d="m.640625 0v-6.1875h2.3125c.46875 0 .84375.0625 1.125.1875.289063.125.515625.320312.671875.578125.164062.261719.25.53125.25.8125 0 .273437-.074219.527344-.21875.765625-.136719.230469-.351562.414062-.640625.546875.375.117187.660156.308594.859375.578125.195312.261719.296875.570312.296875.921875 0 .292969-.0625.5625-.1875.8125-.117187.25-.265625.445313-.453125.578125-.179688.136719-.402344.242188-.671875.3125-.273437.0625-.605469.09375-1 .09375zm.8125-3.59375h1.328125c.363281 0 .625-.019531.78125-.0625.207031-.0625.363281-.164062.46875-.3125.113281-.144531.171875-.320312.171875-.53125 0-.207031-.054687-.390625-.15625-.546875-.09375-.15625-.234375-.257813-.421875-.3125-.179688-.0625-.492188-.09375-.9375-.09375h-1.234375zm0 2.859375h1.53125c.269531 0 .457031-.007813.5625-.03125.1875-.03125.34375-.082031.46875-.15625.125-.082031.226563-.195313.3125-.34375.082031-.15625.125-.332031.125-.53125 0-.226563-.0625-.425781-.1875-.59375-.117187-.175781-.277344-.296875-.484375-.359375-.210938-.070312-.511719-.109375-.90625-.109375h-1.421875zm0 0"/></symbol><symbol id="ab" overflow="visible"><path d="m.640625 0v-6.1875h.8125v5.453125h3.046875v.734375zm0 0"/></symbol><symbol id="ac" overflow="visible"><path d="m.671875 0v-6.1875h2.125c.476563 0 .84375.03125 1.09375.09375.363281.085938.671875.230469.921875.4375.320312.28125.5625.636719.71875 1.0625.164062.429688.25.917969.25 1.46875 0 .46875-.058594.886719-.171875 1.25-.105469.367188-.246094.667969-.421875.90625-.167969.230469-.355469.414062-.5625.546875-.199219.136719-.445312.242187-.734375.3125-.292969.0742188-.621094.109375-.984375.109375zm.8125-.734375h1.328125c.40625 0 .722656-.035156.953125-.109375.226563-.070312.414063-.179688.5625-.328125.1875-.1875.332031-.441406.4375-.765625.113281-.332031.171875-.734375.171875-1.203125 0-.644531-.109375-1.140625-.328125-1.484375-.210937-.351562-.464844-.585938-.765625-.703125-.21875-.082031-.574219-.125-1.0625-.125h-1.296875zm0 0"/></symbol><symbol id="ad" overflow="visible"><path d="m.5625 0v-6.1875h.765625v2.21875c.351563-.40625.800781-.609375 1.34375-.609375.332031 0 .617187.070313.859375.203125.25.125.425781.304688.53125.53125.101562.230469.15625.5625.15625 1v2.84375h-.765625v-2.84375c0-.375-.085937-.644531-.25-.8125-.15625-.175781-.386719-.265625-.6875-.265625-.230469 0-.445313.058594-.640625.171875-.199219.117188-.339844.273438-.421875.46875-.085937.199219-.125.476562-.125.828125v2.453125zm0 0"/></symbol><symbol id="ae" overflow="visible"><path d="m6.203125 0h-1.359375l-.53125-1.40625h-2.484375l-.5 1.40625h-1.328125l2.40625-6.1875h1.328125zm-2.296875-2.453125-.859375-2.296875-.828125 2.296875zm0 0"/></symbol><symbol id="af" overflow="visible"><path d="m2.671875-4.484375v.953125h-.8125v1.796875c0 .367187.003906.578125.015625.640625.019531.0625.054688.117188.109375.15625.0625.042969.128906.0625.203125.0625.113281 0 .273438-.039062.484375-.125l.09375.921875c-.273437.1132812-.585937.171875-.9375.171875-.210937 0-.402344-.03125-.578125-.09375-.167969-.0703125-.292969-.164062-.375-.28125-.074219-.113281-.125-.269531-.15625-.46875-.03125-.132812-.046875-.410156-.046875-.828125v-1.953125h-.546875v-.953125h.546875v-.890625l1.1875-.6875v1.578125zm0 0"/></symbol><symbol id="ag" overflow="visible"><path d="m1.5-3.109375-1.0625-.203125c.113281-.425781.316406-.742188.609375-.953125.300781-.207031.742187-.3125 1.328125-.3125.53125 0 .921875.0625 1.171875.1875.257813.125.441406.289063.546875.484375.101562.1875.15625.539062.15625 1.046875v1.390625c0 .398438.015625.6875.046875.875.039063.179688.113281.375.21875.59375h-1.171875c-.03125-.0820312-.070312-.195312-.109375-.34375-.023437-.070312-.039063-.117188-.046875-.140625-.210938.199219-.429688.34375-.65625.4375-.230469.09375-.476562.140625-.734375.140625-.460937 0-.824219-.125-1.09375-.375-.261719-.25-.390625-.5625-.390625-.9375 0-.257812.054688-.488281.171875-.6875.125-.195312.296875-.347656.515625-.453125.21875-.101563.53125-.191406.9375-.265625.550781-.101562.9375-.203125 1.15625-.296875v-.125c0-.226563-.058594-.390625-.171875-.484375-.117187-.09375-.328125-.140625-.640625-.140625-.210938 0-.375.042969-.5.125-.117188.085937-.210938.230469-.28125.4375zm1.59375.953125c-.15625.054688-.402344.117188-.734375.1875-.324219.074219-.539063.140625-.640625.203125-.148438.117187-.21875.257813-.21875.421875 0 .167969.054688.3125.171875.4375.125.117188.285156.171875.484375.171875.207031 0 .410156-.066406.609375-.203125.144531-.113281.238281-.25.28125-.40625.03125-.09375.046875-.285156.046875-.578125zm0 0"/></symbol><symbol id="ah" overflow="visible"><path d="m4.53125-3.15625-1.171875.21875c-.042969-.238281-.136719-.414062-.28125-.53125-.136719-.125-.3125-.1875-.53125-.1875-.292969 0-.527344.105469-.703125.3125-.179688.210938-.265625.546875-.265625 1.015625 0 .542969.085937.921875.265625 1.140625.175781.21875.414062.328125.71875.328125.226562 0 .410156-.0625.546875-.1875.144531-.132813.25-.359375.3125-.671875l1.171875.203125c-.125.53125-.359375.933594-.703125 1.203125-.34375.2734375-.804687.40625-1.375.40625-.65625 0-1.183594-.203125-1.578125-.609375-.386719-.414063-.578125-.988281-.578125-1.71875 0-.738281.191406-1.3125.578125-1.71875.394531-.414063.925781-.625 1.59375-.625.539062 0 .972656.121094 1.296875.359375.320313.230469.554687.585938.703125 1.0625zm0 0"/></symbol><symbol id="ai" overflow="visible"><path d="m.578125 0v-6.1875h1.1875v3.28125l1.390625-1.578125h1.453125l-1.53125 1.640625 1.640625 2.84375h-1.28125l-1.125-2.015625-.546875.578125v1.4375zm0 0"/></symbol><symbol id="aj" overflow="visible"><path d="m.84375-3.296875v-1.1875h1.1875v1.1875zm0 3.296875v-1.1875h1.1875v1.1875zm0 0"/></symbol><symbol id="ak" overflow="visible"/><symbol id="al" overflow="visible"><path d="m.609375 0v-6.1875h1.875l1.125 4.21875 1.109375-4.21875h1.875v6.1875h-1.171875v-4.875l-1.21875 4.875h-1.203125l-1.234375-4.875v4.875zm0 0"/></symbol><symbol id="am" overflow="visible"><path d="m.625 0v-6.1875h1.1875v6.1875zm0 0"/></symbol><symbol id="an" overflow="visible"><path d="m.09375-4.484375h.671875v-.328125c0-.382812.035156-.664062.109375-.84375.082031-.1875.226562-.335938.4375-.453125.21875-.125.492188-.1875.828125-.1875.332031 0 .660156.054687.984375.15625l-.15625.828125c-.1875-.039062-.371094-.0625-.546875-.0625-.167969 0-.292969.042969-.375.125-.074219.074219-.109375.226562-.109375.453125v.3125h.890625v.9375h-.890625v3.546875h-1.171875v-3.546875h-.671875zm0 0"/></symbol><symbol id="ao" overflow="visible"><path d="m.34375-2.296875c0-.394531.09375-.773437.28125-1.140625.195312-.375.472656-.65625.828125-.84375.363281-.195312.765625-.296875 1.203125-.296875.675781 0 1.226562.21875 1.65625.65625.4375.4375.65625.996094.65625 1.671875 0 .679688-.21875 1.242188-.65625 1.6875-.4375.4375-.992188.65625-1.65625.65625-.40625 0-.796875-.08984375-1.171875-.265625-.375-.1875-.664063-.457031-.859375-.8125-.1875-.363281-.28125-.800781-.28125-1.3125zm1.21875.0625c0 .4375.101562.777344.3125 1.015625.207031.242188.46875.359375.78125.359375s.570312-.117187.78125-.359375c.207031-.238281.3125-.582031.3125-1.03125 0-.4375-.105469-.769531-.3125-1-.210938-.238281-.46875-.359375-.78125-.359375s-.574219.121094-.78125.359375c-.210938.230469-.3125.570312-.3125 1.015625zm0 0"/></symbol><symbol id="ap" overflow="visible"><path d="m1.75 0h-1.1875v-4.484375h1.109375v.640625c.1875-.300781.351563-.5.5-.59375.15625-.09375.328125-.140625.515625-.140625.269531 0 .53125.074219.78125.21875l-.359375 1.03125c-.199219-.125-.386719-.1875-.5625-.1875-.167969 0-.308594.046875-.421875.140625-.117188.085938-.210938.246094-.28125.484375-.0625.242187-.09375.742187-.09375 1.5zm0 0"/></symbol><symbol id="aq" overflow="visible"><path d="m.53125-4.484375h1.09375v.609375c.382812-.46875.847656-.703125 1.390625-.703125.289063 0 .539063.058594.75.171875.207031.117188.378906.292969.515625.53125.195312-.238281.410156-.414062.640625-.53125.226563-.113281.472656-.171875.734375-.171875.320312 0 .597656.070313.828125.203125.226563.125.398437.320312.515625.578125.082031.199219.125.511719.125.9375v2.859375h-1.1875v-2.5625c0-.445312-.042969-.734375-.125-.859375-.105469-.164063-.273438-.25-.5-.25-.167969 0-.324219.054687-.46875.15625-.148438.09375-.257812.242187-.328125.4375-.0625.199219-.09375.507813-.09375.921875v2.15625h-1.1875v-2.453125c0-.4375-.023437-.71875-.0625-.84375-.042969-.125-.109375-.21875-.203125-.28125-.085938-.0625-.199219-.09375-.34375-.09375-.1875 0-.355469.054687-.5.15625-.148438.09375-.25.234375-.3125.421875-.0625.179688-.09375.484375-.09375.921875v2.171875h-1.1875zm0 0"/></symbol><symbol id="ar" overflow="visible"><path d="m3.21875-1.421875 1.171875.1875c-.148437.4375-.386719.773437-.71875 1-.324219.21875-.730469.328125-1.21875.328125-.78125 0-1.359375-.25-1.734375-.75-.292969-.414062-.4375-.929688-.4375-1.546875 0-.75.191406-1.332031.578125-1.75.382813-.414063.875-.625 1.46875-.625.664063 0 1.191406.21875 1.578125.65625.382812.4375.566406 1.109375.546875 2.015625h-2.96875c.007813.355469.101563.632812.28125.828125.1875.199219.414063.296875.6875.296875.1875 0 .34375-.050781.46875-.15625.132813-.101562.234375-.265625.296875-.484375zm.0625-1.203125c-.011719-.34375-.101562-.601562-.265625-.78125-.167969-.175781-.371094-.265625-.609375-.265625-.261719 0-.476562.09375-.640625.28125-.179687.1875-.261719.445313-.25.765625zm0 0"/></symbol><symbol id="as" overflow="visible"><path d="m4.734375 0h-1.109375v-.65625c-.179688.25-.390625.4375-.640625.5625s-.5.1875-.75.1875c-.523437 0-.964844-.203125-1.328125-.609375-.367188-.414063-.546875-.992187-.546875-1.734375 0-.757812.175781-1.335938.53125-1.734375.351563-.394531.804687-.59375 1.359375-.59375.5 0 .929688.210937 1.296875.625v-2.234375h1.1875zm-3.171875-2.34375c0 .480469.066406.828125.203125 1.046875.1875.3125.453125.46875.796875.46875.269531 0 .5-.113281.6875-.34375.195312-.238281.296875-.585937.296875-1.046875 0-.519531-.09375-.890625-.28125-1.109375-.1875-.226563-.421875-.34375-.703125-.34375s-.523438.117187-.71875.34375c-.1875.21875-.28125.546875-.28125.984375zm0 0"/></symbol><symbol id="at" overflow="visible"><path d="m.640625 0v-6.1875h2.625c.65625 0 1.132813.058594 1.4375.171875.300781.105469.539063.304687.71875.59375.175781.28125.265625.605469.265625.96875 0 .46875-.136719.855469-.40625 1.15625-.273438.304687-.679688.492187-1.21875.5625.269531.15625.488281.335937.65625.53125.175781.1875.414062.523437.71875 1l.75 1.203125h-1.484375l-.90625-1.34375c-.324219-.476562-.542969-.78125-.65625-.90625-.117187-.125-.242187-.207031-.375-.25-.136719-.050781-.34375-.078125-.625-.078125h-.265625v2.578125zm1.234375-3.5625h.9375c.59375 0 .960938-.023438 1.109375-.078125.15625-.050781.273437-.140625.359375-.265625.082031-.125.125-.28125.125-.46875 0-.207031-.058594-.375-.171875-.5-.105469-.125-.261719-.207031-.46875-.25-.105469-.007812-.40625-.015625-.90625-.015625h-.984375zm0 0"/></symbol><symbol id="au" overflow="visible"><path d="m4.59375-2.28125 1.203125.390625c-.1875.679687-.5 1.183594-.9375 1.515625-.429687.3242188-.96875.484375-1.625.484375-.824219 0-1.5-.28125-2.03125-.84375s-.796875-1.328125-.796875-2.296875c0-1.03125.265625-1.832031.796875-2.40625.53125-.570312 1.226563-.859375 2.09375-.859375.757813 0 1.375.226563 1.84375.671875.28125.273438.492187.652344.640625 1.140625l-1.234375.296875c-.074219-.320312-.230469-.570312-.46875-.75-.230469-.1875-.511719-.28125-.84375-.28125-.460937 0-.828125.167969-1.109375.5-.28125.324219-.421875.855469-.421875 1.59375 0 .78125.140625 1.339844.421875 1.671875.28125.324219.644531.484375 1.09375.484375.332031 0 .617188-.101562.859375-.3125.238281-.207031.410156-.539062.515625-1zm0 0"/></symbol><symbol id="av" overflow="visible"><path d="m4.703125 0h-1.1875v-2.28125c0-.488281-.027344-.800781-.078125-.9375-.054688-.144531-.136719-.253906-.25-.328125-.117188-.082031-.25-.125-.40625-.125-.210938 0-.398438.058594-.5625.171875-.15625.105469-.265625.25-.328125.4375s-.09375.53125-.09375 1.03125v2.03125h-1.1875v-4.484375h1.109375v.65625c.382812-.5.875-.75 1.46875-.75.257812 0 .5.046875.71875.140625s.378906.214844.484375.359375c.113281.148437.191406.3125.234375.5.050781.1875.078125.453125.078125.796875zm0 0"/></symbol><symbol id="aw" overflow="visible"><path d="m.625 0v-1.1875h1.1875v1.1875zm0 0"/></symbol><symbol id="ax" overflow="visible"><path d="m.3125-2.015625 1.21875-.109375c.070312.40625.21875.710938.4375.90625.226562.1875.53125.28125.90625.28125.40625 0 .707031-.082031.90625-.25.207031-.175781.3125-.378906.3125-.609375 0-.144531-.046875-.269531-.140625-.375-.085937-.101563-.230469-.191406-.4375-.265625-.148437-.050781-.480469-.140625-1-.265625-.667969-.164063-1.136719-.375-1.40625-.625-.386719-.332031-.578125-.742187-.578125-1.234375 0-.3125.085938-.601562.265625-.875.1875-.28125.445313-.492188.78125-.640625.332031-.144531.738281-.21875 1.21875-.21875.769531 0 1.351563.171875 1.75.515625.394531.34375.601563.796875.625 1.359375l-1.25.0625c-.0625-.320313-.183594-.550781-.359375-.6875-.167969-.132813-.429688-.203125-.78125-.203125-.367188 0-.652344.074219-.859375.21875-.125.09375-.1875.21875-.1875.375 0 .148438.0625.273438.1875.375.15625.136719.535156.277344 1.140625.421875.601562.148437 1.050781.296875 1.34375.453125.289062.148438.519531.355469.6875.625.164062.261719.25.589844.25.984375 0 .355469-.101562.6875-.296875 1-.199219.304687-.480469.53125-.84375.6875-.355469.1445312-.804687.21875-1.34375.21875-.78125 0-1.382813-.1757812-1.796875-.53125-.417969-.363281-.667969-.894531-.75-1.59375zm0 0"/></symbol><symbol id="ay" overflow="visible"><path d="m3.5625 0v-.671875c-.15625.242187-.371094.429687-.640625.5625-.261719.1328125-.542969.203125-.84375.203125-.304687 0-.574219-.0625-.8125-.1875-.230469-.132812-.402344-.320312-.515625-.5625-.105469-.238281-.15625-.566406-.15625-.984375v-2.84375h1.1875v2.0625c0 .625.019531 1.011719.0625 1.15625.039062.148437.117188.261719.234375.34375.113281.085937.257813.125.4375.125.207031 0 .390625-.054687.546875-.171875.164062-.113281.273438-.25.328125-.40625.0625-.164062.09375-.570312.09375-1.21875v-1.890625h1.1875v4.484375zm0 0"/></symbol><symbol id="az" overflow="visible"><path d="m.59375-4.484375h1.09375v.65625c.144531-.21875.335938-.394531.578125-.53125.25-.144531.523437-.21875.828125-.21875.519531 0 .957031.203125 1.3125.609375.363281.40625.546875.976562.546875 1.703125 0 .75-.183594 1.335937-.546875 1.75-.367188.40625-.808594.609375-1.328125.609375-.25 0-.476563-.046875-.671875-.140625-.199219-.09375-.414062-.257813-.640625-.5v2.25h-1.171875zm1.171875 2.171875c0 .5.097656.871094.296875 1.109375.195312.242187.4375.359375.71875.359375s.507812-.109375.6875-.328125c.1875-.21875.28125-.578125.28125-1.078125 0-.476562-.09375-.828125-.28125-1.046875-.1875-.226563-.421875-.34375-.703125-.34375-.292969 0-.53125.117187-.71875.34375-.1875.21875-.28125.546875-.28125.984375zm0 0"/></symbol><symbol id="aA" overflow="visible"><path d="m.390625-1.59375 1.171875-.125c.03125.273438.128906.484375.296875.640625.164063.15625.359375.234375.578125.234375.25 0 .457031-.097656.625-.296875.175781-.207031.265625-.507813.265625-.90625 0-.382813-.089844-.671875-.265625-.859375-.167969-.1875-.386719-.28125-.65625-.28125-.34375 0-.652344.148438-.921875.4375l-.953125-.125.609375-3.21875h3.125v1.109375h-2.234375l-.1875 1.046875c.269531-.132812.539062-.203125.8125-.203125.53125 0 .976562.195313 1.34375.578125.363281.386719.546875.882812.546875 1.484375 0 .511719-.152344.964844-.453125 1.359375-.398438.554688-.953125.828125-1.671875.828125-.574219 0-1.042969-.1484375-1.40625-.453125-.355469-.3125-.5625-.726562-.625-1.25zm0 0"/></symbol><symbol id="aB" overflow="visible"><path d="m3.5-2.28125v-1.03125h2.703125v2.453125c-.261719.261719-.640625.492187-1.140625.6875-.5.1875-1.007812.28125-1.515625.28125-.648437 0-1.210937-.1328125-1.6875-.40625-.480469-.269531-.84375-.65625-1.09375-1.15625-.242187-.507813-.359375-1.0625-.359375-1.65625 0-.644531.132812-1.21875.40625-1.71875.269531-.5.664062-.882813 1.1875-1.15625.394531-.207031.890625-.3125 1.484375-.3125.769531 0 1.367187.164063 1.796875.484375.4375.324219.71875.773438.84375 1.34375l-1.25.234375c-.085938-.3125-.246094-.550781-.484375-.71875-.242187-.175781-.542969-.265625-.90625-.265625-.542969 0-.976563.171875-1.296875.515625-.324219.34375-.484375.855469-.484375 1.53125 0 .742187.160156 1.292969.484375 1.65625.320312.367187.75.546875 1.28125.546875.257812 0 .519531-.046875.78125-.140625.269531-.101563.5-.226563.6875-.375v-.796875zm0 0"/></symbol><symbol id="aC" overflow="visible"><path d="m.625-6.1875h2.28125c.507812 0 .898438.042969 1.171875.125.363281.105469.675781.292969.9375.5625.257813.273438.457031.605469.59375 1 .132813.398438.203125.886719.203125 1.46875 0 .511719-.0625.949219-.1875 1.3125-.15625.449219-.382812.8125-.671875 1.09375-.21875.210938-.511719.375-.875.5-.273437.0859375-.640625.125-1.109375.125h-2.34375zm1.25 1.046875v4.09375h.9375c.34375 0 .59375-.015625.75-.046875.195312-.050781.363281-.140625.5-.265625.132812-.125.242188-.320313.328125-.59375.082031-.28125.125-.660156.125-1.140625 0-.476562-.042969-.84375-.125-1.09375-.085937-.257812-.203125-.457031-.359375-.59375-.148438-.144531-.339844-.242188-.578125-.296875-.167969-.039063-.507813-.0625-1.015625-.0625zm0 0"/></symbol><symbol id="aD" overflow="visible"><path d="m.625-5.09375v-1.09375h1.1875v1.09375zm0 5.09375v-4.484375h1.1875v4.484375zm0 0"/></symbol><symbol id="aE" overflow="visible"><path d="m.203125-1.28125 1.1875-.171875c.050781.230469.15625.40625.3125.53125.15625.117187.367187.171875.640625.171875.3125 0 .546875-.054688.703125-.171875.101563-.082031.15625-.1875.15625-.3125 0-.09375-.03125-.171875-.09375-.234375-.054687-.050781-.183594-.101562-.390625-.15625-.960938-.207031-1.5625-.398438-1.8125-.578125-.367188-.238281-.546875-.570313-.546875-1 0-.382813.148437-.707031.453125-.96875.3125-.269531.789062-.40625 1.4375-.40625.613281 0 1.066406.101563 1.359375.296875.300781.199219.507813.496094.625.890625l-1.109375.203125c-.054688-.175781-.148438-.3125-.28125-.40625-.136719-.09375-.324219-.140625-.5625-.140625-.3125 0-.539062.046875-.671875.140625-.09375.0625-.140625.140625-.140625.234375 0 .085937.039062.15625.125.21875.101562.074219.46875.183594 1.09375.328125.632812.148438 1.078125.324219 1.328125.53125.25.210938.375.5.375.875 0 .417969-.171875.773438-.515625 1.0625-.34375.2929688-.855469.4375-1.53125.4375-.605469 0-1.089844-.1171875-1.453125-.359375-.355469-.25-.585937-.585937-.6875-1.015625zm0 0"/></symbol><symbol id="aF" overflow="visible"><path d="m.5625 0v-6.1875h1.1875v2.234375c.363281-.414063.796875-.625 1.296875-.625.550781 0 1.003906.199219 1.359375.59375.351562.398437.53125.964844.53125 1.703125 0 .761719-.183594 1.351562-.546875 1.765625-.355469.40625-.792969.609375-1.3125.609375-.261719 0-.515625-.0625-.765625-.1875s-.464844-.3125-.640625-.5625v.65625zm1.1875-2.34375c0 .46875.070312.8125.21875 1.03125.207031.324219.476562.484375.8125.484375.257812 0 .484375-.109375.671875-.328125.1875-.226562.28125-.585938.28125-1.078125 0-.507813-.09375-.875-.28125-1.09375-.1875-.226563-.429687-.34375-.71875-.34375-.28125 0-.515625.109375-.703125.328125s-.28125.554688-.28125 1zm0 0"/></symbol><symbol id="aG" overflow="visible"><path d="m3.3125 0h-2.765625v-.734375h.875v-2.203125h-.875v-.6875c.125 0 .25-.003906.375-.015625.132813-.019531.238281-.050781.3125-.09375.09375-.039063.160156-.097656.203125-.171875.050781-.070312.082031-.164062.09375-.28125h.921875v3.453125h.859375zm0 0"/></symbol><symbol id="aH" overflow="visible"><path d="m3.5 0h-3.078125v-.6875c.257813-.195312.492187-.390625.703125-.578125.207031-.1875.390625-.359375.546875-.515625.207031-.21875.351563-.40625.4375-.5625.09375-.164062.140625-.335938.140625-.515625 0-.195313-.058594-.347656-.171875-.453125-.117187-.101562-.277344-.15625-.484375-.15625-.105469 0-.210938.015625-.3125.046875-.09375.023437-.1875.054687-.28125.09375-.09375.054687-.179688.101563-.25.140625-.0625.042969-.109375.074219-.140625.09375h-.078125v-.90625c.113281-.050781.296875-.109375.546875-.171875s.488281-.09375.71875-.09375c.5 0 .875.117187 1.125.34375.257813.21875.390625.527344.390625.921875 0 .25-.058594.496094-.171875.734375-.117187.230469-.308594.480469-.578125.75-.167969.167969-.335938.320313-.5.453125-.15625.125-.273438.21875-.34375.28125h1.78125zm0 0"/></symbol><symbol id="aI" overflow="visible"><path d="m3.390625-1.265625c0 .210937-.039063.398437-.109375.5625-.074219.167969-.1875.308594-.34375.421875-.148438.125-.320312.21875-.515625.28125-.199219.0625-.4375.09375-.71875.09375-.335937 0-.617187-.03125-.84375-.09375-.230469-.0507812-.417969-.109375-.5625-.171875v-.90625h.09375c.15625.09375.332031.179687.53125.25.207031.074219.398437.109375.578125.109375.09375 0 .195312-.007812.3125-.03125.125-.019531.226562-.0625.3125-.125.0625-.039062.113281-.09375.15625-.15625.039062-.070312.0625-.171875.0625-.296875s-.03125-.21875-.09375-.28125c-.054688-.070313-.125-.125-.21875-.15625-.085938-.03125-.1875-.046875-.3125-.046875s-.234375 0-.328125 0h-.1875v-.75h.171875c.125 0 .238281-.003906.34375-.015625.101562-.007813.195312-.03125.28125-.0625.070312-.03125.128906-.078125.171875-.140625.039063-.070312.0625-.160156.0625-.265625 0-.082031-.023437-.148437-.0625-.203125-.042969-.050781-.089844-.09375-.140625-.125-.074219-.03125-.15625-.050781-.25-.0625-.085938-.019531-.15625-.03125-.21875-.03125-.105469 0-.210938.015625-.3125.046875-.105469.023437-.210938.054687-.3125.09375-.085938.03125-.167969.074219-.25.125-.085938.042969-.148438.074219-.1875.09375h-.09375v-.890625c.144531-.0625.335938-.117188.578125-.171875.25-.0625.5-.09375.75-.09375s.460937.023437.640625.0625c.1875.042969.347656.105469.484375.1875.132813.085937.238281.199219.3125.34375.070313.136719.109375.289063.109375.453125 0 .242188-.070312.449219-.203125.625-.136719.179688-.320313.292969-.546875.34375v.046875c.101562.011719.203125.039063.296875.078125.09375.03125.179687.089844.265625.171875.082031.074219.148438.167969.203125.28125.0625.117187.09375.25.09375.40625zm0 0"/></symbol><symbol id="aJ" overflow="visible"><path d="m3.546875-.96875h-.5625v.984375h-1.015625v-.984375h-1.84375v-.78125l1.8125-2.4375h1.046875v2.453125h.5625zm-1.578125-.765625v-1.421875l-1.0625 1.421875zm0 0"/></symbol><g clip-path="url(#a)"><path d="m0 0h190v133.863281h-190zm0 0" fill="#fff"/></g><path d="m255.001004 166.10182v-133.00412" fill="none" stroke="#000" stroke-miterlimit="10" stroke-width="2" transform="scale(.719697)"/><g><use x="22.310605" xlink:href="#u" y="81.325752"/><use x="28.547509" xlink:href="#u" y="81.325752"/><use x="34.784414" xlink:href="#v" y="81.325752"/><use x="41.021319" xlink:href="#w" y="81.325752"/><use x="43.420777" xlink:href="#x" y="81.325752"/><use x="49.181164" xlink:href="#y" y="81.325752"/><use x="53.984297" xlink:href="#z" y="81.325752"/><use x="56.383756" xlink:href="#A" y="81.325752"/><use x="61.186889" xlink:href="#B" y="81.325752"/><use x="65.990023" xlink:href="#w" y="81.325752"/><use x="68.389481" xlink:href="#v" y="81.325752"/><use x="74.626386" xlink:href="#C" y="81.325752"/><use x="79.429519" xlink:href="#D" y="81.325752"/><use x="86.623677" xlink:href="#B" y="81.325752"/><use x="91.426811" xlink:href="#E" y="81.325752"/><use x="93.345534" xlink:href="#y" y="81.325752"/><use x="98.148668" xlink:href="#z" y="81.325752"/><use x="100.548126" xlink:href="#y" y="81.325752"/><use x="105.351259" xlink:href="#w" y="81.325752"/><use x="107.750718" xlink:href="#F" y="81.325752"/><use x="110.626694" xlink:href="#G" y="81.325752"/><use x="115.429828" xlink:href="#w" y="81.325752"/><use x="117.829286" xlink:href="#H" y="81.325752"/><use x="123.10472" xlink:href="#I" y="81.325752"/><use x="125.980697" xlink:href="#J" y="81.325752"/><use x="130.78383" xlink:href="#K" y="81.325752"/><use x="135.586964" xlink:href="#D" y="81.325752"/><use x="142.781122" xlink:href="#y" y="81.325752"/><use x="147.584255" xlink:href="#L" y="81.325752"/><use x="152.387389" xlink:href="#z" y="81.325752"/><use x="154.786847" xlink:href="#M" y="81.325752"/><use x="159.105029" xlink:href="#N" y="81.325752"/></g><g transform="scale(.719697)"><path d="m14.312665 33.0977 6.187501-22.768916 6.1875 22.768916" fill="none" stroke="#c00" stroke-linejoin="round" stroke-miterlimit="10" stroke-width=".55"/><path d="m26.410857 31.577963-10.410198-4.548356 8.157731-3.039474-6.328619-3.028618 4.640625-2.903784-3.240296-2.616118" fill="none" stroke="#c00" stroke-linejoin="round" stroke-miterlimit="10" stroke-width=".55"/><path d="m21.623686 10.882402c0 .303947-.108553.564474-.325658.776151-.222533.217106-.488487.325658-.797862.325658s-.575329-.108552-.797862-.325658c-.217105-.211677-.325658-.472204-.325658-.776151 0-.309375.108553-.569901.325658-.781579.222533-.217105.488487-.325658.797862-.325658s.575329.108553.797862.325658c.217105.211678.325658.472204.325658.781579zm0 0" fill="#f8cecc" stroke="#c00" stroke-width=".55"/><path d="m22.410692 8.999014.401645-.466777c1.275494 1.286349 1.275494 3.348849 0 4.635198l-.401645-.439638c.987829-1.047533.987829-2.670395 0-3.728783zm1.411185-1.378619.390789-.379934c1.997369 2.029934 1.997369 5.24852 0 7.278454l-.390789-.379934c1.780263-1.818256 1.780263-4.700329 0-6.518586zm1.400329-1.378618.396217-.4125c1.508881 1.25921 2.38273 3.110033 2.38273 5.053125 0 1.94852-.873849 3.788487-2.38273 5.047698l-.396217-.4125c1.438322-1.128948 2.279605-2.827797 2.279605-4.635198 0-1.801974-.841283-3.511678-2.279605-4.640625zm-6.632567 2.757237-.401644-.466777c-1.275494 1.286349-1.275494 3.348849 0 4.635198l.401644-.439638c-.987829-1.047533-.987829-2.670395 0-3.728783zm-1.411184-1.378619-.390789-.379934c-1.997369 2.029934-1.997369 5.24852 0 7.278454l.390789-.379934c-1.780263-1.818256-1.780263-4.700329 0-6.518586zm-1.400329-1.378618-.396217-.4125c-1.514309 1.25921-2.382731 3.110033-2.382731 5.053125 0 1.94852.868422 3.788487 2.382731 5.047698l.396217-.4125c-1.438322-1.128948-2.279605-2.827797-2.279605-4.635198 0-1.801974.841283-3.511678 2.279605-4.640625zm0 0" fill="#f8cecc" stroke="#c00" stroke-miterlimit="10" stroke-width=".55"/></g><g clip-path="url(#b)"><path d="m13.997863 61.690465 231.759884-.369079" fill="none" stroke="#6c8ebf" stroke-miterlimit="10" stroke-width="2" transform="scale(.719697)"/></g><path d="m181.191406 44.125-5.75 2.894531 1.429688-2.886719-1.4375-2.871093zm0 0" fill="#6c8ebf"/><g clip-path="url(#c)"><path d="m251.760707 61.31053-7.989474 4.021876 1.986514-4.01102-1.997369-3.98931zm0 0" fill="none" stroke="#6c8ebf" stroke-miterlimit="10" stroke-width="2" transform="scale(.719697)"/></g><path d="m16.003906 30.714844h1.441406v1.4375l-1.4375.003906m2.875-1.445312h1.441407v1.4375l-1.4375.003906m2.875-1.445313h1.441406v1.4375l-1.4375.003907m2.875-1.445313 1.441406-.003906v1.441406h-1.4375m2.875-1.441406 1.441407-.003907v1.441407h-1.4375m2.875-1.441407 1.441406-.003906v1.4375l-1.4375.003906m2.875-1.445312h1.441406v1.4375l-1.4375.003906m2.875-1.445312h1.441406v1.4375l-1.4375.003906m2.875-1.445312 1.4375-.003907.003906 1.441407-1.4375.003906m2.875-1.445313 1.4375-.003906.003907 1.441406h-1.4375m2.875-1.441406 1.4375-.003906.003906 1.441406h-1.4375m2.875-1.441406 1.4375-.003907.003906 1.4375-1.4375.003907m2.875-1.445313h1.4375l.003907 1.4375-1.441407.003906m2.878907-1.445312h1.4375l.003906 1.4375-1.441406.003906m2.878906-1.445312 1.4375-.003906.003906 1.441406h-1.441406m2.878906-1.441406 1.4375-.003907.003906 1.441407h-1.441406m2.878906-1.441407 1.4375-.003906.003906 1.441406h-1.441406m2.878906-1.445312h1.4375l.003907 1.4375-1.441407.003906m2.878907-1.445313h1.4375l.003906 1.4375-1.441406.003907m2.878906-1.445313h1.4375l.003906 1.4375-1.441406.003906m2.878906-1.445312 1.4375-.003906.003907 1.441406h-1.441407m2.878907-1.441406 1.4375-.003906.003906 1.441406h-1.441406m2.878906-1.441406 1.4375-.003907.003906 1.4375-1.441406.003907m2.878906-1.445313h1.4375l.003906 1.4375-1.441406.003906m2.878906-1.445312h1.4375l.003906 1.4375-1.441406.003906m2.875-1.445313 1.441406-.003906.003907 1.441406-1.441407.003907m2.875-1.445313 1.441407-.003906.003906 1.441406h-1.441406m2.875-1.441406 1.441406-.003906v1.441406h-1.4375m2.875-1.441406 1.441406-.003906v1.4375l-1.4375.003906m2.875-1.445313h1.441407v1.4375l-1.4375.003907m2.875-1.445313h1.441406v1.4375l-1.4375.003906m2.875-1.445312 1.441406-.003907v1.441407h-1.4375m2.875-1.441407 1.441406-.003906v1.441406h-1.4375m2.875-1.441406 1.441406-.003906v1.441406h-1.4375m2.875-1.445312h1.441407v1.4375l-1.4375.003906m2.875-1.445312h1.441406v1.4375l-1.4375.003906m2.875-1.445313h1.441406v1.4375l-1.4375.003907m2.875-1.445313 1.441407-.003906v1.441406h-1.4375m2.875-1.441406 1.441406-.003907v1.441407h-1.4375m2.875-1.441407 1.441406-.003906v1.4375l-1.4375.003906m2.875-1.445312h1.4375l.003906 1.4375-1.4375.003906m2.875-1.445312h1.4375l.003906 1.4375-1.4375.003906m2.875-1.445312 1.4375-.003907.003907 1.441407-1.4375.003906m2.875-1.445313 1.4375-.003906.003906 1.441406h-1.4375m2.875-1.441406 1.4375-.003906.003906 1.441406h-1.441406m2.878906-1.441406 1.4375-.003907.003907 1.4375-1.441407.003907m2.878907-1.445313h1.4375l.003906 1.4375-1.441406.003906m2.878906-1.445312h1.4375l.003906 1.4375-1.441406.003906m2.878906-1.445312 1.4375-.003906.003906 1.441406h-1.441406m2.878906-1.441406 1.4375-.003907.003906 1.441407h-1.441406m2.878906-1.441407 1.4375-.003906.003907 1.441406h-1.441407m2.878907-1.445312h1.4375l.003906 1.4375-1.441406.003906m2.878906-1.445313h1.4375l.003906 1.4375-1.441406.003907m2.878906-1.445313h1.4375l.003907 1.4375-1.441407.003906m2.878907-1.445312 1.4375-.003906.003906 1.441406h-1.441406m2.878906-1.441406 1.4375-.003906.003906 1.441406h-1.441406m2.878906-1.441406 1.4375-.003907.003906 1.4375-1.441406.003907m2.875-1.445313h1.441406l.003906 1.4375-1.441406.003906" fill="#82b366"/><path d="m16.239475 43.692437 7.989474-4.021875-1.986513 4.01102 1.997368 3.989309zm0 0" fill="#82b366" stroke="#82b366" stroke-miterlimit="10" stroke-width="2" transform="scale(.719697)"/><g><use x="23.030302" xlink:href="#O" y="28.787877"/><use x="27.348483" xlink:href="#P" y="28.787877"/><use x="33.10887" xlink:href="#u" y="28.787877"/><use x="39.345775" xlink:href="#Q" y="28.787877"/><use x="45.106161" xlink:href="#v" y="28.787877"/><use x="51.343066" xlink:href="#R" y="28.787877"/></g><g><use x="23.030302" xlink:href="#u" y="41.742421"/><use x="29.267206" xlink:href="#Q" y="41.742421"/><use x="35.027593" xlink:href="#u" y="41.742421"/></g><path d="m16.003906 56.625h1.441406v1.4375l-1.4375.003906m2.875-1.445312 1.441407-.003906v1.441406l-1.4375.003906m2.875-1.445312 1.441406-.003907v1.441407h-1.4375m2.875-1.441407 1.441406-.003906v1.441406h-1.4375m2.875-1.445312h1.441407v1.4375l-1.4375.003906m2.875-1.445313h1.441406v1.4375l-1.4375.003907m2.875-1.445313h1.441406v1.4375l-1.4375.003906m2.875-1.445312 1.441406-.003906v1.441406h-1.4375m2.875-1.441406 1.4375-.003906.003906 1.441406h-1.4375m2.875-1.441406 1.4375-.003907.003907 1.441407h-1.4375m2.875-1.445313h1.4375l.003906 1.4375-1.4375.003906m2.875-1.445312h1.4375l.003906 1.4375-1.4375.003906m2.875-1.445313 1.4375-.003906.003907 1.441406-1.441407.003907m2.878907-1.445313 1.4375-.003906.003906 1.441406h-1.441406m2.878906-1.441406 1.4375-.003906.003906 1.441406h-1.441406m2.878906-1.441406 1.4375-.003906.003906 1.4375-1.441406.003906m2.878906-1.445313h1.4375l.003906 1.4375-1.441406.003907m2.878906-1.445313h1.4375l.003907 1.4375-1.441407.003906m2.878907-1.445312 1.4375-.003907.003906 1.441407-1.441406.003906m2.878906-1.445313 1.4375-.003906.003906 1.441406h-1.441406m2.878906-1.441406 1.4375-.003906.003907 1.441406h-1.441407m2.878907-1.445312h1.4375l.003906 1.4375-1.441406.003906m2.878906-1.445312h1.4375l.003906 1.4375-1.441406.003906m2.878906-1.445313h1.4375l.003906 1.4375-1.441406.003907m2.878906-1.445313 1.4375-.003906.003906 1.441406h-1.441406m2.875-1.441406 1.441406-.003907.003907 1.441407h-1.441407m2.875-1.441407 1.441407-.003906.003906 1.4375-1.441406.003906m2.875-1.445312h1.441406v1.4375l-1.4375.003906m2.875-1.445312h1.441406v1.4375l-1.4375.003906m2.875-1.445312 1.441407-.003907v1.441407l-1.4375.003906m2.875-1.445313 1.441406-.003906v1.441406h-1.4375m2.875-1.441406 1.441406-.003906v1.441406h-1.4375m2.875-1.441406 1.441406-.003907v1.4375l-1.4375.003907m2.875-1.445313h1.441406v1.4375l-1.4375.003906m2.875-1.445312h1.441407v1.4375l-1.4375.003906m2.875-1.445312 1.441406-.003906v1.441406h-1.4375m2.875-1.441406 1.441406-.003907v1.441407h-1.4375m2.875-1.441407 1.441407-.003906v1.441406h-1.4375m2.875-1.445312h1.441406v1.4375l-1.4375.003906m2.875-1.445313h1.441406v1.4375l-1.4375.003907m2.875-1.445313h1.4375l.003906 1.4375-1.4375.003906m2.875-1.445312 1.4375-.003906.003906 1.441406h-1.4375m2.875-1.441406 1.4375-.003906.003907 1.441406h-1.4375m2.875-1.441406 1.4375-.003907.003906 1.4375-1.4375.003907m2.875-1.445313h1.4375l.003906 1.4375-1.441406.003906m2.878906-1.445312h1.4375l.003907 1.4375-1.441407.003906m2.878907-1.445313 1.4375-.003906.003906 1.441406-1.441406.003907m2.878906-1.445313 1.4375-.003906.003906 1.441406h-1.441406m2.878906-1.441406 1.4375-.003906.003906 1.441406h-1.441406m2.878906-1.441406 1.4375-.003906.003906 1.4375-1.441406.003906m2.878906-1.445313h1.4375l.003907 1.4375-1.441407.003907m2.878907-1.445313h1.4375l.003906 1.4375-1.441406.003906m2.878906-1.445312 1.4375-.003907.003906 1.441407h-1.441406m2.878906-1.441407 1.4375-.003906.003907 1.441406h-1.441407m2.878907-1.441406 1.4375-.003906.003906 1.441406h-1.441406m2.878906-1.445312h1.4375l.003906 1.4375-1.441406.003906m2.878906-1.445312h1.4375l.003906 1.4375-1.441406.003906m2.875-1.445313h1.441406l.003906 1.4375-1.441406.003907" fill="#82b366"/><path d="m16.239475 79.688492 7.989474-4.016448-1.986513 4.005593 1.997368 3.994737zm0 0" fill="#82b366" stroke="#82b366" stroke-miterlimit="10" stroke-width="2" transform="scale(.719697)"/><g><use x="22.310605" xlink:href="#u" y="54.696966"/><use x="28.547509" xlink:href="#u" y="54.696966"/><use x="34.784414" xlink:href="#v" y="54.696966"/><use x="41.021319" xlink:href="#w" y="54.696966"/><use x="43.420777" xlink:href="#v" y="54.696966"/><use x="49.657682" xlink:href="#C" y="54.696966"/><use x="54.460816" xlink:href="#L" y="54.696966"/><use x="59.263949" xlink:href="#L" y="54.696966"/><use x="64.067083" xlink:href="#y" y="54.696966"/><use x="68.870216" xlink:href="#S" y="54.696966"/><use x="73.188398" xlink:href="#z" y="54.696966"/><use x="75.587856" xlink:href="#T" y="54.696966"/><use x="77.506579" xlink:href="#C" y="54.696966"/><use x="82.309713" xlink:href="#L" y="54.696966"/><use x="87.112846" xlink:href="#w" y="54.696966"/><use x="89.512305" xlink:href="#u" y="54.696966"/><use x="95.749209" xlink:href="#y" y="54.696966"/><use x="100.552343" xlink:href="#U" y="54.696966"/><use x="105.355476" xlink:href="#A" y="54.696966"/><use x="110.15861" xlink:href="#y" y="54.696966"/><use x="114.961743" xlink:href="#M" y="54.696966"/><use x="119.279925" xlink:href="#z" y="54.696966"/></g><g clip-path="url(#d)"><path d="m13.997863 97.691947 231.759884-.374506" fill="none" stroke="#c00" stroke-miterlimit="10" stroke-width="2" transform="scale(.719697)"/></g><path d="m181.191406 70.035156-5.75 2.890625 1.429688-2.886719-1.4375-2.871093zm0 0" fill="#c00"/><g clip-path="url(#e)"><path d="m251.760707 97.312013-7.989474 4.016448 1.986514-4.01102-1.997369-3.98931zm0 0" fill="none" stroke="#c00" stroke-miterlimit="10" stroke-width="2" transform="scale(.719697)"/></g><g fill="#c00"><use x="22.310605" xlink:href="#ae" y="67.651511"/><use x="28.547509" xlink:href="#af" y="67.651511"/><use x="31.423486" xlink:href="#af" y="67.651511"/><use x="34.299462" xlink:href="#ag" y="67.651511"/><use x="39.102596" xlink:href="#ah" y="67.651511"/><use x="43.905729" xlink:href="#ai" y="67.651511"/><use x="48.708863" xlink:href="#aj" y="67.651511"/><use x="51.584839" xlink:href="#ak" y="67.651511"/><use x="53.984297" xlink:href="#al" y="67.651511"/><use x="61.178455" xlink:href="#ag" y="67.651511"/><use x="65.981589" xlink:href="#am" y="67.651511"/><use x="68.381047" xlink:href="#an" y="67.651511"/><use x="71.257023" xlink:href="#ao" y="67.651511"/><use x="76.532458" xlink:href="#ap" y="67.651511"/><use x="79.893386" xlink:href="#aq" y="67.651511"/><use x="87.572496" xlink:href="#ar" y="67.651511"/><use x="92.37563" xlink:href="#as" y="67.651511"/><use x="97.651065" xlink:href="#ak" y="67.651511"/><use x="100.050523" xlink:href="#at" y="67.651511"/><use x="106.287428" xlink:href="#at" y="67.651511"/><use x="112.524332" xlink:href="#au" y="67.651511"/><use x="118.761237" xlink:href="#ak" y="67.651511"/><use x="121.160695" xlink:href="#au" y="67.651511"/><use x="127.3976" xlink:href="#ao" y="67.651511"/><use x="132.673035" xlink:href="#av" y="67.651511"/><use x="137.948469" xlink:href="#av" y="67.651511"/><use x="143.223904" xlink:href="#aw" y="67.651511"/><use x="145.623362" xlink:href="#ak" y="67.651511"/><use x="148.022821" xlink:href="#ax" y="67.651511"/><use x="153.783207" xlink:href="#ar" y="67.651511"/><use x="158.586341" xlink:href="#af" y="67.651511"/><use x="161.462317" xlink:href="#ay" y="67.651511"/><use x="166.737752" xlink:href="#az" y="67.651511"/></g><path d="m16.003906 84.695312 1.441406-.003906v1.441406h-1.4375m2.875-1.445312h1.441407v1.4375l-1.4375.003906m2.875-1.445312h1.441406v1.4375l-1.4375.003906m2.875-1.445312h1.441406v1.4375l-1.4375.003906m2.875-1.445313 1.441407-.003906v1.441406h-1.4375m2.875-1.441406 1.441406-.003906v1.441406h-1.4375m2.875-1.441406 1.441406-.003907v1.4375l-1.4375.003907m2.875-1.445313h1.441406v1.4375l-1.4375.003906m2.875-1.445312h1.4375l.003906 1.4375-1.4375.003906m2.875-1.445312 1.4375-.003906.003907 1.441406-1.4375.003906m2.875-1.445312 1.4375-.003907.003906 1.441407h-1.4375m2.875-1.441407 1.4375-.003906.003906 1.441406h-1.4375m2.875-1.441406 1.4375-.003906.003907 1.4375-1.441407.003906m2.878907-1.445313h1.4375l.003906 1.4375-1.441406.003907m2.878906-1.445313h1.4375l.003906 1.4375-1.441406.003906m2.878906-1.445312 1.4375-.003906.003906 1.441406h-1.441406m2.878906-1.441406 1.4375-.003906.003906 1.441406h-1.441406m2.878906-1.441406 1.4375-.003907.003907 1.441407h-1.441407m2.878907-1.445313h1.4375l.003906 1.4375-1.441406.003906m2.878906-1.445312h1.4375l.003906 1.4375-1.441406.003906m2.878906-1.445313h1.4375l.003907 1.4375-1.441407.003907m2.878907-1.445313 1.4375-.003906.003906 1.441406h-1.441406m2.878906-1.441406 1.4375-.003906.003906 1.441406h-1.441406m2.878906-1.441406 1.4375-.003906.003906 1.4375-1.441406.003906m2.878906-1.445313h1.4375l.003906 1.4375-1.441406.003907m2.875-1.445313h1.441406l.003907 1.4375-1.441407.003906m2.875-1.445312 1.441407-.003907.003906 1.441407-1.441406.003906m2.875-1.445313 1.441406-.003906v1.441406h-1.4375m2.875-1.441406 1.441406-.003906v1.441406h-1.4375m2.875-1.441406 1.441407-.003906v1.4375l-1.4375.003906m2.875-1.445312h1.441406v1.4375l-1.4375.003906m2.875-1.445313h1.441406v1.4375l-1.4375.003907m2.875-1.445313 1.441406-.003906v1.441406h-1.4375m2.875-1.441406 1.441406-.003907v1.441407h-1.4375m2.875-1.441407 1.441407-.003906v1.441406h-1.4375m2.875-1.445312h1.441406v1.4375l-1.4375.003906m2.875-1.445312h1.441406v1.4375l-1.4375.003906m2.875-1.445312h1.441407v1.4375l-1.4375.003906m2.875-1.445313 1.441406-.003906v1.441406h-1.4375m2.875-1.441406 1.441406-.003906v1.441406h-1.4375m2.875-1.441406 1.4375-.003907.003906 1.4375-1.4375.003907m2.875-1.445313h1.4375l.003906 1.4375-1.4375.003906m2.875-1.445312h1.4375l.003907 1.4375-1.4375.003906m2.875-1.445312 1.4375-.003906.003906 1.441406-1.4375.003906m2.875-1.445312 1.4375-.003907.003906 1.441407h-1.441406m2.878906-1.441407 1.4375-.003906.003907 1.441406h-1.441407m2.878907-1.441406 1.4375-.003906.003906 1.4375-1.441406.003906m2.878906-1.445313h1.4375l.003906 1.4375-1.441406.003907m2.878906-1.445313h1.4375l.003906 1.4375-1.441406.003906m2.878906-1.445312 1.4375-.003906.003906 1.441406h-1.441406m2.878906-1.441406 1.4375-.003906.003907 1.441406h-1.441407m2.878907-1.441406 1.4375-.003907.003906 1.441407h-1.441406m2.878906-1.445313h1.4375l.003906 1.4375-1.441406.003906m2.878906-1.445312h1.4375l.003907 1.4375-1.441407.003906m2.878907-1.445313h1.4375l.003906 1.4375-1.441406.003907m2.878906-1.445313 1.4375-.003906.003906 1.441406h-1.441406m2.878906-1.441406 1.4375-.003906.003906 1.441406h-1.441406m2.875-1.441406 1.441406-.003906.003906 1.4375-1.441406.003906" fill="#82b366"/><path d="m16.239475 118.691455 7.989474-4.021875-1.986513 4.01102 1.997368 3.989309zm0 0" fill="#82b366" stroke="#82b366" stroke-miterlimit="10" stroke-width="2" transform="scale(.719697)"/><g><use x="133.09895" xlink:href="#V" y="14.393938"/><use x="139.335854" xlink:href="#W" y="14.393938"/><use x="145.096241" xlink:href="#w" y="14.393938"/></g><use x="147.339671" xlink:href="#X" y="14.393938"/><g><use x="151.657852" xlink:href="#J" y="14.393938"/><use x="156.460986" xlink:href="#I" y="14.393938"/><use x="159.336962" xlink:href="#K" y="14.393938"/><use x="164.140096" xlink:href="#y" y="14.393938"/><use x="168.943229" xlink:href="#z" y="14.393938"/></g><g fill="#c00"><use x="22.423057" xlink:href="#Y" y="14.393938"/><use x="29.617215" xlink:href="#J" y="14.393938"/><use x="34.420349" xlink:href="#E" y="14.393938"/><use x="36.339072" xlink:href="#T" y="14.393938"/><use x="38.257795" xlink:href="#S" y="14.393938"/><use x="42.575977" xlink:href="#T" y="14.393938"/><use x="44.4947" xlink:href="#C" y="14.393938"/><use x="49.297833" xlink:href="#A" y="14.393938"/><use x="54.100967" xlink:href="#M" y="14.393938"/><use x="58.419149" xlink:href="#w" y="14.393938"/><use x="60.818607" xlink:href="#K" y="14.393938"/><use x="65.62174" xlink:href="#Z" y="14.393938"/><use x="71.858645" xlink:href="#aa" y="14.393938"/></g><g clip-path="url(#f)"><path d="m13.997863 138.692279 231.759884-.374507" fill="none" stroke="#6c8ebf" stroke-miterlimit="10" stroke-width="2" transform="scale(.719697)"/></g><path d="m181.191406 99.542969-5.75 2.890625 1.429688-2.886719-1.4375-2.871094zm0 0" fill="#6c8ebf"/><g clip-path="url(#g)"><path d="m251.760707 138.312345-7.989474 4.016447 1.986514-4.01102-1.997369-3.989309zm0 0" fill="none" stroke="#6c8ebf" stroke-miterlimit="10" stroke-width="2" transform="scale(.719697)"/></g><g><use x="23.030302" xlink:href="#u" y="97.159084"/><use x="29.267206" xlink:href="#ab" y="97.159084"/><use x="34.07034" xlink:href="#v" y="97.159084"/><use x="40.307245" xlink:href="#w" y="97.159084"/><use x="42.706703" xlink:href="#x" y="97.159084"/><use x="48.46709" xlink:href="#z" y="97.159084"/><use x="50.866548" xlink:href="#J" y="97.159084"/><use x="55.669681" xlink:href="#z" y="97.159084"/><use x="58.06914" xlink:href="#A" y="97.159084"/><use x="62.872273" xlink:href="#M" y="97.159084"/><use x="67.190455" xlink:href="#w" y="97.159084"/><use x="69.589913" xlink:href="#P" y="97.159084"/><use x="75.3503" xlink:href="#ac" y="97.159084"/><use x="81.587205" xlink:href="#V" y="97.159084"/></g><g clip-path="url(#h)"><path d="m13.997863 156.690306 231.759884-.369079" fill="none" stroke="#6c8ebf" stroke-miterlimit="10" stroke-width="2" transform="scale(.719697)"/></g><path d="m181.191406 112.496094-5.75 2.894531 1.429688-2.886719-1.4375-2.871094zm0 0" fill="#6c8ebf"/><g clip-path="url(#i)"><path d="m251.760707 156.310372-7.989474 4.021875 1.986514-4.01102-1.997369-3.989309zm0 0" fill="none" stroke="#6c8ebf" stroke-miterlimit="10" stroke-width="2" transform="scale(.719697)"/></g><g><use x="22.310605" xlink:href="#Z" y="109.393932"/><use x="28.547509" xlink:href="#Q" y="109.393932"/><use x="34.307896" xlink:href="#x" y="109.393932"/><use x="40.068283" xlink:href="#w" y="109.393932"/></g><g><use x="41.991223" xlink:href="#Q" y="109.393932"/><use x="47.75161" xlink:href="#A" y="109.393932"/><use x="52.554743" xlink:href="#z" y="109.393932"/><use x="54.954201" xlink:href="#ad" y="109.393932"/><use x="59.757335" xlink:href="#y" y="109.393932"/><use x="64.560468" xlink:href="#L" y="109.393932"/><use x="69.363602" xlink:href="#z" y="109.393932"/><use x="71.76306" xlink:href="#T" y="109.393932"/><use x="73.681783" xlink:href="#S" y="109.393932"/><use x="77.999965" xlink:href="#J" y="109.393932"/><use x="82.803099" xlink:href="#z" y="109.393932"/><use x="85.202557" xlink:href="#T" y="109.393932"/><use x="87.12128" xlink:href="#C" y="109.393932"/><use x="91.924414" xlink:href="#L" y="109.393932"/><use x="96.727547" xlink:href="#w" y="109.393932"/><use x="99.127005" xlink:href="#u" y="109.393932"/><use x="105.36391" xlink:href="#y" y="109.393932"/><use x="110.167044" xlink:href="#U" y="109.393932"/><use x="114.970177" xlink:href="#A" y="109.393932"/><use x="119.773311" xlink:href="#y" y="109.393932"/><use x="124.576444" xlink:href="#M" y="109.393932"/><use x="128.894626" xlink:href="#z" y="109.393932"/></g><g fill="#c00"><use x="101.353568" xlink:href="#aA" y="123.787871"/><use x="106.156702" xlink:href="#aB" y="123.787871"/><use x="112.874341" xlink:href="#ak" y="123.787871"/><use x="115.2738" xlink:href="#aC" y="123.787871"/><use x="121.510705" xlink:href="#aD" y="123.787871"/><use x="123.910163" xlink:href="#aE" y="123.787871"/><use x="128.713296" xlink:href="#ag" y="123.787871"/><use x="133.51643" xlink:href="#aF" y="123.787871"/><use x="138.791864" xlink:href="#am" y="123.787871"/><use x="141.191323" xlink:href="#ar" y="123.787871"/><use x="145.994456" xlink:href="#as" y="123.787871"/></g><g clip-path="url(#j)"><path d="m219.748534 168.66909 36.131746.222533" fill="none" stroke="#000" stroke-miterlimit="10" stroke-width="2" transform="scale(.719697)"/></g><path d="m154.914062 121.371094 4.324219-2.132813-1.085937 2.152344 1.066406 2.167969zm0 0"/><g clip-path="url(#k)"><path d="m215.249027 168.641952 6.008389-2.963487-1.508882 2.990625 1.481744 3.012336zm0 0" fill="none" stroke="#000" stroke-miterlimit="10" stroke-width="2" transform="scale(.719697)"/></g><path d="m13.997863 167.312182v-133.004121" fill="none" stroke="#000" stroke-miterlimit="10" stroke-width="2" transform="scale(.719697)"/><path d="m255.001004 169.309551v-5.997534" fill="none" stroke="#000" stroke-miterlimit="10" stroke-width="2" transform="scale(.719697)"/><path d="m11.00181 61.31053c0 .662171-.130263 1.302632-.379934 1.910527-.255099.613322-.61875 1.156085-1.085527 1.622862-.472204.472204-1.009539.830427-1.622862 1.085526-.613322.255099-1.248355.379934-1.915954.379934-.662171 0-1.297204-.124835-1.910526-.379934-.613323-.255099-1.156086-.613322-1.622862-1.085526-.466776-.466777-.830428-1.00954-1.085526-1.622862-.249672-.607895-.379935-1.248356-.379935-1.910527s.130263-1.302631.379935-1.915954c.255098-.607894.61875-1.150658 1.085526-1.617434.466776-.472204 1.009539-.830428 1.622862-1.085526.613322-.255099 1.248355-.379935 1.910526-.379935.667599 0 1.302632.124836 1.915954.379935.613323.255098 1.150658.613322 1.622862 1.085526.466777.466776.830428 1.00954 1.085527 1.617434.249671.613323.379934 1.253783.379934 1.915954zm0 0" fill="#dae8fc" stroke="#6c8ebf" stroke-width="2" transform="scale(.719697)"/><use x="2.485203" xlink:href="#aG" y="46.060603"/><path d="m11.00181 98.310697c0 .662171-.130263 1.302632-.379934 1.910527-.255099.613322-.61875 1.156085-1.085527 1.622862-.472204.472204-1.009539.830427-1.622862 1.085526-.613322.255099-1.248355.379934-1.915954.379934-.662171 0-1.297204-.124835-1.910526-.379934-.613323-.255099-1.156086-.613322-1.622862-1.085526-.466776-.466777-.830428-1.00954-1.085526-1.622862-.249672-.607895-.379935-1.248356-.379935-1.910527s.130263-1.302631.379935-1.915954c.255098-.613322.61875-1.150658 1.085526-1.622862.466776-.466776 1.009539-.825 1.622862-1.080098.613322-.255099 1.248355-.379935 1.910526-.379935.667599 0 1.302632.124836 1.915954.379935.613323.255098 1.150658.613322 1.622862 1.080098.466777.472204.830428 1.00954 1.085527 1.622862.249671.613323.379934 1.253783.379934 1.915954zm0 0" fill="#dae8fc" stroke="#6c8ebf" stroke-width="2" transform="scale(.719697)"/><use x="2.485203" xlink:href="#aH" y="72.689389"/><path d="m11.00181 139.311029c0 .662171-.130263 1.297204-.379934 1.910526-.255099.613323-.61875 1.156086-1.085527 1.622862-.472204.472204-1.009539.830428-1.622862 1.085527-.613322.255098-1.248355.379934-1.915954.379934-.662171 0-1.297204-.124836-1.910526-.379934-.613323-.255099-1.156086-.613323-1.622862-1.085527-.466776-.466776-.830428-1.009539-1.085526-1.622862-.249672-.613322-.379935-1.248355-.379935-1.910526s.130263-1.302632.379935-1.915954c.255098-.613323.61875-1.150658 1.085526-1.622862.466776-.466776 1.009539-.830428 1.622862-1.080099.613322-.255099 1.248355-.379934 1.910526-.379934.667599 0 1.302632.124835 1.915954.379934.613323.249671 1.150658.613323 1.622862 1.080099.466777.472204.830428 1.009539 1.085527 1.622862.249671.613322.379934 1.253783.379934 1.915954zm0 0" fill="#dae8fc" stroke="#6d5378" stroke-width="2" transform="scale(.719697)"/><use x="2.845052" xlink:href="#aI" y="102.196963"/><path d="m11.00181 156.310372c0 .662171-.130263 1.302632-.379934 1.910527-.255099.613322-.61875 1.156085-1.085527 1.622862-.472204.472204-1.009539.830427-1.622862 1.085526-.613322.255099-1.248355.379934-1.915954.379934-.662171 0-1.297204-.124835-1.910526-.379934-.613323-.255099-1.156086-.613322-1.622862-1.085526-.466776-.466777-.830428-1.00954-1.085526-1.622862-.249672-.607895-.379935-1.248356-.379935-1.910527s.130263-1.302631.379935-1.915954c.255098-.607895.61875-1.150658 1.085526-1.617434.466776-.472204 1.009539-.830428 1.622862-1.085527.613322-.255098 1.248355-.379934 1.910526-.379934.667599 0 1.302632.124836 1.915954.379934.613323.255099 1.150658.613323 1.622862 1.085527.466777.466776.830428 1.009539 1.085527 1.617434.249671.613323.379934 1.253783.379934 1.915954zm0 0" fill="#dae8fc" stroke="#6c8ebf" stroke-width="2" transform="scale(.719697)"/><use x="2.485203" xlink:href="#aJ" y="114.431811"/><path d="m88.164062 115.734375h3.386719l2.421875 2.980469 2.421875-2.980469h3.390625l-4.117187 5.039063 4.117187 5.035156h-3.390625l-2.421875-2.976563-2.421875 2.976563h-3.386719l3.871094-5.035156zm0 0" fill="#f8cecc"/><g clip-path="url(#l)"><path d="m122.001653 160.309879h4.705757l3.365132 4.141283 3.365131-4.141283h4.711185l-5.720724 7.001645 5.720724 6.996218h-4.711185l-3.365131-4.135856-3.365132 4.135856h-4.705757l5.378783-6.996218zm0 0" fill="none" stroke="#b85450" stroke-miterlimit="10" transform="matrix(.719697 0 0 .719697 .359848 .359848)"/></g><g clip-path="url(#m)"><path d="m2.901711 4.698865c12.101739-6.402905-7.001005 3.401544 5.100733-3.001361.800115-.400182 1.800259-.300137 3.000431.400181l-5.100733 3.001362c-1.200172-.700318-2.30033-.800363-3.000431-.400182zm27.603965 63.000016-5.100732 3.001361c.800114-.400181 1.400201-1.50068 1.400201-3.001361l5.100732-3.001362c-.100014 1.500681-.600086 2.501135-1.400201 3.001362zm0 0" fill="none" stroke="#231f20" stroke-linejoin="round" stroke-width="3" transform="matrix(.273398 0 0 .273313 173.698865 4.352456)"/></g><g clip-path="url(#n)"><path d="m5.902142 5.099047 5.100733-3.001362 16.402356 9.704404-5.100733 3.001361zm20.802988 17.507944 5.100733-3.001362v45.09189l-5.100733 3.001362zm0 0" fill="none" stroke="#231f20" stroke-linejoin="round" stroke-width="3" transform="matrix(.273398 0 0 .273313 173.698865 4.352456)"/></g><g clip-path="url(#o)"><path d="m27.405231 11.802089c2.400345 1.400635 4.300618 5.002269 4.400632 7.903586l-5.100733 3.001362c0-2.901317-2.000287-6.402906-4.400632-7.903587" fill="none" stroke="#231f20" stroke-linecap="round" stroke-linejoin="round" stroke-width="3" transform="matrix(.273398 0 0 .273313 173.698865 4.352456)"/></g><g clip-path="url(#p)"><path d="m22.304498 14.80345c2.400345 1.400636 4.400632 5.00227 4.400632 7.903587v44.991844c0 2.901316-1.900273 4.101861-4.300617 2.60118l-16.502371-9.704404c-2.400344-1.400635-4.400632-5.002269-4.400632-7.889294v-45.006136c0-2.901316 1.900273-4.101861 4.400632-2.60118zm0 0" fill="none" stroke="#231f20" stroke-linejoin="round" stroke-width="3" transform="matrix(.273398 0 0 .273313 173.698865 4.352456)"/></g><g clip-path="url(#q)"><path d="m176.558594 4.742188.011718-.003907c-.136718-.054687-.246093-.082031-.355468-.082031-.117188-.027344-.226563-.007812-.328125.054688l-1.394531.820312c.109374-.054688.21875-.054688.328124-.054688.109376 0 .21875.027344.328126.082032l.164062.082031 1.394531-.820313c-.050781-.027343-.078125-.050781-.148437-.078124zm0 0" fill="#606163"/></g><g clip-path="url(#r)"><path d="m175.3125 5.636719 1.394531-.820313 4.511719 2.652344-1.394531.820312zm0 0" fill="#808184"/></g><g clip-path="url(#s)"><path d="m181 10.421875 1.394531-.820313.027344 12.324219-1.421875.820313zm0 0" fill="#231f20"/></g><g clip-path="url(#t)"><path d="m182.394531 9.355469-.082031-.355469-.011719.003906-.070312-.195312c0-.054688-.027344-.109375-.054688-.164063-.027343-.082031-.054687-.136719-.082031-.191406-.054688-.109375-.109375-.21875-.191406-.328125-.054688-.054688-.082032-.109375-.136719-.164062-.054687-.054688-.082031-.109376-.136719-.164063-.054687-.054687-.136718-.136719-.21875-.191406-.058594-.054688-.121094-.101563-.191406-.136719l-1.394531.820312c.054687.027344.109375.082032.191406.136719.082031.054688.136719.136719.21875.191407.054687.054687.082031.109374.136719.164062.054687.054688.082031.109375.136718.164062.054688.109376.136719.21875.191407.328126.027343.054687.054687.109374.082031.191406.027344.054687.054688.109375.054688.164062.027343.054688.054687.136719.082031.21875h.003906l.074219.316406-.023438.011719c.027344.082031.027344.164063.027344.246094l1.394531-.820313c0-.074218-.023437-.152343-.027343-.230468zm0 0" fill="#231f20"/></g><path d="m179.824219 8.289062c.65625.382813 1.203125 1.367188 1.203125 2.160157v12.296875c0 .792968-.519532 1.121094-1.175782.710937l-4.539062-2.652343c-.65625-.382813-1.203125-1.367188-1.203125-2.15625v-12.300782c0-.792968.519531-1.121094 1.203125-.710937zm0 0" fill="#6d6e70"/><path d="m181 22.773438v-12.296876c0-.738281-.492188-1.613281-1.09375-1.96875l-4.511719-2.652343c-.601562-.355469-1.09375-.054688-1.09375.65625v12.300781c0 .734375.492188 1.609375 1.09375 1.964844l4.511719 2.652344c.601562.355468 1.09375.082031 1.09375-.65625zm-1.121094-14.511719c.710938.4375 1.285156 1.476562 1.285156 2.324219v12.296874c0 .847657-.574218 1.203126-1.285156.765626l-4.484375-2.625c-.710937-.4375-1.285156-1.476563-1.285156-2.320313v-12.300781c0-.847656.574219-1.203125 1.285156-.765625zm0 0" fill="#c6c8c7"/><path d="m180.289062 20.996094-5.277343-3.222656v-10.195313l5.277343 3.222656zm0 0" fill="#a6a8ab"/><path d="m176.679688 9.273438 3.117187 1.855468.027344 2.515625s.246093-1.503906-1.09375-2.625z" fill="#c4cace"/><path d="m178.074219 21.324219c0 .355469-.273438.464843-.628907.246093-.328124-.191406-.628906-.65625-.628906-.984374 0-.355469.273438-.4375.628906-.246094.355469.191406.628907.628906.628907.984375m.082031-12.625-1.394531-.820313v-.328125l1.394531.820313zm0 0" fill="#404042"/></svg>