<svg height="345.12pt" viewBox="0 0 557.03998 345.12" width="557.03998pt" xmlns="http://www.w3.org/2000/svg" xmlns:xlink="http://www.w3.org/1999/xlink"><clipPath id="a"><path d="m0 0h557v344.980469h-557zm0 0"/></clipPath><clipPath id="b"><path d="m433.773438 124h65.375v2h-65.375zm69.511718 0h23.714844v2h-23.714844zm-105.285156 0h31.636719v2h-31.636719zm0 0"/></clipPath><clipPath id="c"><path d="m453 220.644531h38.597656v87.355469h-38.597656zm0 0"/></clipPath><clipPath id="d"><path d="m456 221h35.597656v84h-35.597656zm0 0"/></clipPath><clipPath id="e"><path d="m476 233h15.597656v18h-15.597656zm0 0"/></clipPath><clipPath id="f"><path d="m451.351562 224h34.648438v84.328125h-34.648438zm0 0"/></clipPath><symbol id="g" overflow="visible"><path d="m1.140625 0v-10.296875h7.4375v1.21875h-6.078125v3.15625h5.6875v1.203125h-5.6875v3.5h6.3125v1.21875zm0 0"/></symbol><symbol id="h" overflow="visible"><path d="m.640625-3.3125 1.296875-.109375c.050781.523437.1875.949219.40625 1.28125.226562.324219.578125.589844 1.046875.796875.46875.199219.992187.296875 1.578125.296875.519531 0 .976562-.078125 1.375-.234375.394531-.15625.691406-.363281.890625-.625.195313-.269531.296875-.566406.296875-.890625 0-.320313-.09375-.601563-.28125-.84375-.1875-.238281-.5-.441406-.9375-.609375-.273438-.101562-.882812-.269531-1.828125-.5-.949219-.226562-1.609375-.441406-1.984375-.640625-.492188-.257813-.859375-.578125-1.109375-.953125-.242187-.382812-.359375-.8125-.359375-1.28125 0-.519531.144531-1.003906.4375-1.453125.300781-.457031.734375-.800781 1.296875-1.03125.570313-.238281 1.203125-.359375 1.890625-.359375.769531 0 1.441406.125 2.015625.375.582031.242188 1.03125.601562 1.34375 1.078125.320313.480469.492187 1.023437.515625 1.625l-1.3125.09375c-.0625-.644531-.296875-1.132813-.703125-1.46875-.40625-.332031-1.007813-.5-1.796875-.5-.824219 0-1.429688.152344-1.8125.453125-.375.304688-.5625.667969-.5625 1.09375 0 .367188.132812.667969.40625.90625.257812.242188.941406.484375 2.046875.734375 1.113281.25 1.875.46875 2.28125.65625.601563.28125 1.046875.636719 1.328125 1.0625.289062.417969.4375.902344.4375 1.453125 0 .554688-.164062 1.074219-.484375 1.5625-.3125.480469-.761719.855469-1.34375 1.125-.585937.2578125-1.246094.390625-1.984375.390625-.929688 0-1.710938-.1367188-2.34375-.40625-.625-.269531-1.121094-.675781-1.484375-1.21875-.355469-.550781-.542969-1.171875-.5625-1.859375zm0 0"/></symbol><symbol id="i" overflow="visible"><path d="m1.109375 0v-10.296875h3.875c.6875 0 1.210937.039063 1.578125.109375.5.085938.921875.246094 1.265625.484375.34375.230469.617187.558594.828125.984375.207031.429688.3125.898438.3125 1.40625 0 .875-.28125 1.617188-.84375 2.21875-.554688.605469-1.558594.90625-3.015625.90625h-2.640625v4.1875zm1.359375-5.390625h2.65625c.882812 0 1.507812-.160156 1.875-.484375.375-.332031.5625-.796875.5625-1.390625 0-.4375-.109375-.804687-.328125-1.109375-.21875-.3125-.507813-.515625-.859375-.609375-.230469-.0625-.652344-.09375-1.265625-.09375h-2.640625zm0 0"/></symbol><symbol id="j" overflow="visible"><path d="m.453125-3.09375v-1.265625h3.890625v1.265625zm0 0"/></symbol><symbol id="k" overflow="visible"><path d="m2.90625 0-2.734375-10.296875h1.40625l1.5625 6.75c.164063.710937.3125 1.414063.4375 2.109375.257813-1.101562.410156-1.738281.453125-1.90625l1.96875-6.953125h1.640625l1.46875 5.21875c.375 1.292969.640625 2.507813.796875 3.640625.132812-.65625.304688-1.398438.515625-2.234375l1.609375-6.625h1.375l-2.828125 10.296875h-1.3125l-2.15625-7.84375c-.1875-.65625-.296875-1.054688-.328125-1.203125-.105469.46875-.203125.871094-.296875 1.203125l-2.1875 7.84375zm0 0"/></symbol><symbol id="l" overflow="visible"><path d="m1.125 0v-10.296875h4.5625c.914062 0 1.613281.09375 2.09375.28125.476562.1875.859375.515625 1.140625.984375.289063.46875.4375.984375.4375 1.546875 0 .730469-.242187 1.34375-.71875 1.84375-.46875.5-1.199219.820313-2.1875.953125.363281.179688.640625.351562.828125.515625.394531.367187.769531.824219 1.125 1.375l1.796875 2.796875h-1.71875l-1.359375-2.140625c-.398438-.613281-.726562-1.082031-.984375-1.40625-.261719-.332031-.496094-.5625-.703125-.6875-.199219-.132813-.402344-.226563-.609375-.28125-.15625-.03125-.40625-.046875-.75-.046875h-1.59375v4.5625zm1.359375-5.75h2.9375c.625 0 1.109375-.0625 1.453125-.1875.351562-.132812.617188-.34375.796875-.625.1875-.28125.28125-.585938.28125-.921875 0-.488281-.179687-.890625-.53125-1.203125-.355469-.3125-.914063-.46875-1.671875-.46875h-3.265625zm0 0"/></symbol><symbol id="m" overflow="visible"><path d="m.6875-5.015625c0-1.707031.457031-3.039063 1.375-4 .925781-.96875 2.113281-1.453125 3.5625-1.453125.945312 0 1.800781.230469 2.5625.6875.757812.449219 1.335938 1.078125 1.734375 1.890625.40625.8125.609375 1.734375.609375 2.765625 0 1.042969-.214844 1.976562-.640625 2.796875-.417969.824219-1.011719 1.449219-1.78125 1.875-.773437.4179688-1.605469.625-2.5.625-.96875 0-1.835937-.234375-2.59375-.703125-.761719-.46875-1.339844-1.101562-1.734375-1.90625-.398438-.8125-.59375-1.671875-.59375-2.578125zm1.40625.03125c0 1.242187.332031 2.21875 1 2.9375.664062.710937 1.503906 1.0625 2.515625 1.0625 1.019531 0 1.859375-.359375 2.515625-1.078125.664062-.726562 1-1.753906 1-3.078125 0-.832031-.140625-1.5625-.421875-2.1875s-.699219-1.109375-1.25-1.453125c-.542969-.34375-1.152344-.515625-1.828125-.515625-.960938 0-1.789062.335937-2.484375 1-.699219.65625-1.046875 1.761719-1.046875 3.3125zm0 0"/></symbol><symbol id="n" overflow="visible"><path d="m4.046875 0-3.984375-10.296875h1.46875l2.6875 7.484375c.207031.59375.382812 1.15625.53125 1.6875.15625-.5625.34375-1.125.5625-1.6875l2.78125-7.484375h1.375l-4.015625 10.296875zm0 0"/></symbol><symbol id="o" overflow="visible"><path d="m1.046875 0v-10.296875h1.375v5.109375l5.109375-5.109375h1.84375l-4.328125 4.171875 4.515625 6.125h-1.796875l-3.671875-5.203125-1.671875 1.640625v3.5625zm0 0"/></symbol><symbol id="p" overflow="visible"><path d="m1.34375 0v-10.296875h1.359375v10.296875zm0 0"/></symbol><symbol id="q" overflow="visible"><path d="m3.734375 0v-9.078125h-3.390625v-1.21875h8.15625v1.21875h-3.40625v9.078125zm0 0"/></symbol><symbol id="r" overflow="visible"/><symbol id="s" overflow="visible"><path d="m3.359375 3.03125c-.699219-.886719-1.289063-1.917969-1.765625-3.09375-.480469-1.175781-.71875-2.398438-.71875-3.671875 0-1.101563.175781-2.164063.53125-3.1875.425781-1.1875 1.078125-2.367187 1.953125-3.546875h.90625c-.5625.980469-.9375 1.679688-1.125 2.09375-.28125.648438-.507813 1.320312-.671875 2.015625-.199219.875-.296875 1.757813-.296875 2.640625 0 2.25.695313 4.5 2.09375 6.75zm0 0"/></symbol><symbol id="t" overflow="visible"><path d="m6.046875-2.40625 1.3125.171875c-.210937.761719-.59375 1.355469-1.15625 1.78125-.554687.4179688-1.261719.625-2.125.625-1.09375 0-1.960937-.332031-2.59375-1-.636719-.675781-.953125-1.617187-.953125-2.828125 0-1.257812.320312-2.234375.96875-2.921875.644531-.695313 1.484375-1.046875 2.515625-1.046875.988281 0 1.796875.339844 2.421875 1.015625.632812.679687.953125 1.636719.953125 2.875v.328125h-5.5625c.050781.824219.285156 1.453125.703125 1.890625.414062.429687.929688.640625 1.546875.640625.46875 0 .863281-.117188 1.1875-.359375.332031-.238281.59375-.628906.78125-1.171875zm-4.140625-2.03125h4.15625c-.054688-.632812-.210938-1.109375-.46875-1.421875-.40625-.476563-.933594-.71875-1.578125-.71875-.574219 0-1.058594.195313-1.453125.578125-.398438.386719-.617188.90625-.65625 1.5625zm0 0"/></symbol><symbol id="u" overflow="visible"><path d="m.4375-2.21875 1.25-.203125c.070312.5.269531.886719.59375 1.15625.320312.261719.769531.390625 1.34375.390625.582031 0 1.007812-.113281 1.28125-.34375.28125-.238281.421875-.519531.421875-.84375 0-.28125-.121094-.503906-.359375-.671875-.179688-.113281-.609375-.253906-1.296875-.421875-.929687-.238281-1.574219-.441406-1.9375-.609375-.355469-.164063-.625-.398437-.8125-.703125-.179687-.300781-.265625-.632812-.265625-1 0-.332031.070312-.640625.21875-.921875.15625-.289063.363281-.53125.625-.71875.195312-.144531.460938-.265625.796875-.359375.34375-.101562.707031-.15625 1.09375-.15625.59375 0 1.109375.085938 1.546875.25.4375.167969.757812.398438.96875.6875.21875.292969.367188.679688.453125 1.15625l-1.25.171875c-.054687-.382813-.214844-.679687-.484375-.890625-.273438-.21875-.652344-.328125-1.140625-.328125-.574219 0-.984375.09375-1.234375.28125s-.375.414063-.375.671875c0 .167969.050781.3125.15625.4375.101562.148438.265625.261719.484375.34375.125.054688.492187.164062 1.109375.328125.894531.242187 1.519531.4375 1.875.59375.351562.148437.628906.367187.828125.65625.207031.292969.3125.652344.3125 1.078125 0 .417969-.125.8125-.375 1.1875s-.609375.667969-1.078125.875c-.460938.1953125-.980469.296875-1.5625.296875-.96875 0-1.710938-.1953125-2.21875-.59375-.5-.40625-.824219-1.003906-.96875-1.796875zm0 0"/></symbol><symbol id="v" overflow="visible"><path d="m.953125 2.859375v-10.3125h1.140625v.96875c.269531-.375.578125-.65625.921875-.84375.34375-.195313.757813-.296875 1.25-.296875.632813 0 1.191406.167969 1.671875.5.488281.324219.859375.789062 1.109375 1.390625.25.59375.375 1.246094.375 1.953125 0 .761719-.140625 1.449219-.421875 2.0625-.273438.605469-.667969 1.074219-1.1875 1.40625-.523438.3203125-1.070312.484375-1.640625.484375-.429687 0-.808594-.0898438-1.140625-.265625-.335938-.175781-.605469-.398438-.8125-.671875v3.625zm1.140625-6.546875c0 .960938.191406 1.667969.578125 2.125.382813.460938.851563.6875 1.40625.6875.5625 0 1.039063-.234375 1.4375-.703125.40625-.476563.609375-1.21875.609375-2.21875 0-.945313-.199219-1.65625-.59375-2.125-.386719-.476563-.851562-.71875-1.390625-.71875-.542969 0-1.023437.257813-1.4375.765625-.40625.5-.609375 1.230469-.609375 2.1875zm0 0"/></symbol><symbol id="w" overflow="visible"><path d="m.609375-2.71875 1.25-.171875c.144531.71875.390625 1.242187.734375 1.5625.351562.3125.78125.46875 1.28125.46875.59375 0 1.09375-.203125 1.5-.609375.414062-.414062.625-.929688.625-1.546875 0-.570313-.195312-1.046875-.578125-1.421875-.375-.382812-.855469-.578125-1.4375-.578125-.242187 0-.539063.046875-.890625.140625l.140625-1.109375c.082031.011719.148437.015625.203125.015625.539062 0 1.023438-.140625 1.453125-.421875.425781-.28125.640625-.710937.640625-1.296875 0-.457031-.15625-.835938-.46875-1.140625-.3125-.3125-.714844-.46875-1.203125-.46875-.5 0-.914063.15625-1.234375.46875-.324219.3125-.53125.777344-.625 1.390625l-1.265625-.234375c.15625-.84375.503906-1.492187 1.046875-1.953125.550781-.46875 1.234375-.703125 2.046875-.703125.5625 0 1.078125.121094 1.546875.359375.46875.242188.828125.570312 1.078125.984375.257813.417969.390625.859375.390625 1.328125 0 .449219-.121094.855469-.359375 1.21875-.242187.367188-.59375.652344-1.0625.859375.601563.148437 1.070313.445313 1.40625.890625.34375.4375.515625.984375.515625 1.640625 0 .90625-.328125 1.671875-.984375 2.296875s-1.484375.9375-2.484375.9375c-.90625 0-1.65625-.2695312-2.25-.8125-.59375-.539062-.933594-1.238281-1.015625-2.09375zm0 0"/></symbol><symbol id="x" overflow="visible"><path d="m7.234375-1.21875v1.21875h-6.796875c-.011719-.300781.035156-.59375.140625-.875.175781-.46875.453125-.925781.828125-1.375.382812-.445312.9375-.960938 1.65625-1.546875 1.125-.925781 1.878906-1.65625 2.265625-2.1875.394531-.53125.59375-1.035156.59375-1.515625 0-.5-.183594-.921875-.546875-1.265625-.355469-.34375-.820312-.515625-1.390625-.515625-.605469 0-1.089844.183594-1.453125.546875-.367188.367187-.554688.871094-.5625 1.515625l-1.296875-.140625c.09375-.96875.425781-1.703125 1-2.203125.582031-.507812 1.363281-.765625 2.34375-.765625.988281 0 1.769531.277344 2.34375.828125.570313.542969.859375 1.21875.859375 2.03125 0 .40625-.085938.808594-.25 1.203125-.167969.398437-.449219.820313-.84375 1.265625-.386719.4375-1.03125 1.042969-1.9375 1.8125-.761719.636719-1.25 1.070312-1.46875 1.296875-.210938.21875-.386719.445313-.53125.671875zm0 0"/></symbol><symbol id="y" overflow="visible"><path d="m5.78125 0v-.9375c-.46875.742188-1.164062 1.109375-2.078125 1.109375-.59375 0-1.140625-.1640625-1.640625-.484375-.5-.332031-.890625-.789062-1.171875-1.375-.273437-.59375-.40625-1.269531-.40625-2.03125 0-.75.125-1.425781.375-2.03125.25-.601562.617187-1.066406 1.109375-1.390625.5-.320313 1.054688-.484375 1.671875-.484375.445313 0 .847656.101562 1.203125.296875.351562.1875.640625.433594.859375.734375v-3.703125h1.25v10.296875zm-3.984375-3.71875c0 .960938.195313 1.671875.59375 2.140625.40625.46875.878906.703125 1.421875.703125.550781 0 1.019531-.222656 1.40625-.671875.394531-.445313.59375-1.132813.59375-2.0625 0-1.019531-.199219-1.769531-.59375-2.25-.398438-.476563-.882812-.71875-1.453125-.71875-.5625 0-1.03125.230469-1.40625.6875-.375.460937-.5625 1.183594-.5625 2.171875zm0 0"/></symbol><symbol id="z" overflow="visible"><path d="m.9375 0v-7.453125h1.140625v1.125c.28125-.53125.546875-.878906.796875-1.046875.25-.164062.519531-.25.8125-.25.425781 0 .859375.136719 1.296875.40625l-.4375 1.171875c-.3125-.175781-.621094-.265625-.921875-.265625-.28125 0-.53125.085938-.75.25-.21875.167969-.375.398438-.46875.6875-.136719.449219-.203125.9375-.203125 1.46875v3.90625zm0 0"/></symbol><symbol id="A" overflow="visible"><path d="m.953125-8.84375v-1.453125h1.265625v1.453125zm0 8.84375v-7.453125h1.265625v7.453125zm0 0"/></symbol><symbol id="B" overflow="visible"><path d="m3.015625 0-2.828125-7.453125h1.328125l1.59375 4.46875c.175781.480469.335937.980469.484375 1.5.113281-.394531.269531-.867187.46875-1.421875l1.65625-4.546875h1.296875l-2.8125 7.453125zm0 0"/></symbol><symbol id="C" overflow="visible"><path d="m1.25 0v-6.46875h-1.109375v-.984375h1.109375v-.796875c0-.5.039062-.867188.125-1.109375.125-.332031.335938-.597656.640625-.796875.3125-.207031.742187-.3125 1.296875-.3125.351562 0 .75.042969 1.1875.125l-.203125 1.109375c-.261719-.050781-.507813-.078125-.734375-.078125-.386719 0-.664062.085938-.828125.25-.15625.167969-.234375.476562-.234375.921875v.6875h1.453125v.984375h-1.453125v6.46875zm0 0"/></symbol><symbol id="D" overflow="visible"><path d="m.953125 0v-7.453125h1.125v1.046875c.226563-.363281.535156-.65625.921875-.875.394531-.226562.84375-.34375 1.34375-.34375.550781 0 1 .117188 1.34375.34375.351562.230469.601562.554688.75.96875.59375-.875 1.363281-1.3125 2.3125-1.3125.738281 0 1.304688.210938 1.703125.625.394531.40625.59375 1.039062.59375 1.890625v5.109375h-1.25v-4.703125c0-.5-.042969-.859375-.125-1.078125-.085937-.226562-.234375-.410156-.453125-.546875-.210938-.132813-.460938-.203125-.75-.203125-.53125 0-.96875.179688-1.3125.53125-.34375.34375-.515625.902344-.515625 1.671875v4.328125h-1.265625v-4.84375c0-.5625-.105469-.984375-.3125-1.265625-.199219-.28125-.53125-.421875-1-.421875-.355469 0-.683594.09375-.984375.28125-.304687.1875-.523437.464844-.65625.828125-.136719.355469-.203125.871094-.203125 1.546875v3.875zm0 0"/></symbol><symbol id="E" overflow="visible"><path d="m2.328125 0-2.28125-7.453125h1.296875l1.1875 4.296875.4375 1.609375c.019531-.082031.148438-.597656.390625-1.546875l1.1875-4.359375h1.296875l1.125 4.328125.359375 1.421875.4375-1.4375 1.28125-4.3125h1.21875l-2.328125 7.453125h-1.3125l-1.1875-4.46875-.28125-1.265625-1.515625 5.734375zm0 0"/></symbol><symbol id="F" overflow="visible"><path d="m5.8125-.921875c-.46875.398437-.921875.679687-1.359375.84375-.429687.1640625-.890625.25-1.390625.25-.8125 0-1.445312-.1953125-1.890625-.59375-.4375-.40625-.65625-.921875-.65625-1.546875 0-.363281.082031-.695312.25-1 .164063-.300781.382813-.539062.65625-.71875.269531-.1875.570313-.328125.90625-.421875.25-.0625.625-.125 1.125-.1875 1.019531-.125 1.769531-.269531 2.25-.4375.007813-.164063.015625-.273437.015625-.328125 0-.507812-.121094-.875-.359375-1.09375-.324219-.28125-.804687-.421875-1.4375-.421875-.59375 0-1.039063.105469-1.328125.3125-.28125.210937-.492188.578125-.625 1.109375l-1.234375-.171875c.113281-.53125.296875-.957031.546875-1.28125.257812-.320313.632812-.570313 1.125-.75.488281-.175781 1.050781-.265625 1.6875-.265625.632812 0 1.148438.078125 1.546875.234375.40625.148437.703125.335937.890625.5625.1875.21875.316406.507813.390625.859375.039063.210938.0625.59375.0625 1.15625v1.6875c0 1.179688.023437 1.921875.078125 2.234375.050781.3125.160156.609375.328125.890625h-1.328125c-.125-.257812-.210938-.566406-.25-.921875zm-.109375-2.8125c-.460937.1875-1.148437.34375-2.0625.46875-.523437.074219-.890625.15625-1.109375.25-.210938.09375-.375.234375-.5.421875-.117188.179688-.171875.375-.171875.59375 0 .335938.125.617188.375.84375.257813.21875.640625.328125 1.140625.328125.476562 0 .90625-.101563 1.28125-.3125.382812-.207031.664062-.5.84375-.875.132812-.28125.203125-.703125.203125-1.265625zm0 0"/></symbol><symbol id="G" overflow="visible"><path d="m1.78125 3.03125h-.90625c1.394531-2.25 2.09375-4.5 2.09375-6.75 0-.882812-.101562-1.757812-.296875-2.625-.167969-.695312-.390625-1.367188-.671875-2.015625-.179688-.414063-.554688-1.117187-1.125-2.109375h.90625c.875 1.179688 1.523438 2.359375 1.953125 3.546875.351563 1.023437.53125 2.085937.53125 3.1875 0 1.273437-.246094 2.496094-.734375 3.671875-.480469 1.175781-1.0625 2.207031-1.75 3.09375zm0 0"/></symbol><symbol id="H" overflow="visible"><path d="m1.046875 0v-10.296875h3.859375c.789062 0 1.421875.105469 1.890625.3125.476563.210937.851563.53125 1.125.96875.269531.4375.40625.890625.40625 1.359375 0 .4375-.121094.855469-.359375 1.25-.242188.386719-.601562.699219-1.078125.9375.613281.179688 1.085937.492188 1.421875.9375.34375.4375.515625.953125.515625 1.546875 0 .480469-.105469.929687-.3125 1.34375-.199219.417969-.449219.742187-.75.96875-.304687.21875-.683594.386719-1.140625.5-.449219.1171875-1 .171875-1.65625.171875zm1.375-5.96875h2.21875c.601563 0 1.035156-.035156 1.296875-.109375.34375-.101563.601562-.273437.78125-.515625.175781-.238281.265625-.539062.265625-.90625 0-.34375-.085937-.640625-.25-.890625-.15625-.257813-.390625-.4375-.703125-.53125-.304688-.101563-.824219-.15625-1.5625-.15625h-2.046875zm0 4.75h2.546875c.445312 0 .757812-.015625.9375-.046875.3125-.050781.570312-.140625.78125-.265625.207031-.132812.378906-.328125.515625-.578125.132813-.25.203125-.539063.203125-.875 0-.382813-.101562-.71875-.296875-1-.1875-.28125-.460937-.476563-.8125-.59375-.34375-.113281-.84375-.171875-1.5-.171875h-2.375zm0 0"/></symbol><symbol id="I" overflow="visible"><path d="m.109375 0 2.71875-3.875-2.515625-3.578125h1.578125l1.140625 1.75c.21875.335937.390625.609375.515625.828125.207031-.300781.398437-.570312.578125-.8125l1.25-1.765625h1.515625l-2.578125 3.515625 2.765625 3.9375h-1.546875l-1.53125-2.3125-.40625-.625-1.953125 2.9375zm0 0"/></symbol><symbol id="J" overflow="visible"><path d="m.921875 0v-10.296875h1.265625v10.296875zm0 0"/></symbol><symbol id="K" overflow="visible"><path d="m.484375-3.734375c0-1.375.378906-2.394531 1.140625-3.0625.644531-.550781 1.425781-.828125 2.34375-.828125 1.03125 0 1.867188.339844 2.515625 1.015625.65625.667969.984375 1.59375.984375 2.78125 0 .960937-.148438 1.714844-.4375 2.265625-.292969.542969-.714844.96875-1.265625 1.28125-.542969.3007812-1.140625.453125-1.796875.453125-1.042969 0-1.886719-.332031-2.53125-1-.636719-.675781-.953125-1.644531-.953125-2.90625zm1.296875 0c0 .960937.207031 1.679687.625 2.15625.414062.46875.9375.703125 1.5625.703125s1.144531-.234375 1.5625-.703125c.414062-.476563.625-1.207031.625-2.1875 0-.925781-.210938-1.625-.625-2.09375-.417969-.476563-.9375-.71875-1.5625-.71875s-1.148438.242187-1.5625.71875c-.417969.46875-.625 1.179687-.625 2.125zm0 0"/></symbol><symbol id="L" overflow="visible"><path d="m3.703125-1.125.1875 1.109375c-.355469.0703125-.671875.109375-.953125.109375-.460938 0-.820312-.0742188-1.078125-.21875-.25-.144531-.429687-.332031-.53125-.5625-.105469-.238281-.15625-.738281-.15625-1.5v-4.28125h-.921875v-.984375h.921875v-1.84375l1.265625-.765625v2.609375h1.265625v.984375h-1.265625v4.359375c0 .355469.019531.585937.0625.6875.039062.105469.113281.1875.21875.25.101562.0625.25.09375.4375.09375.132812 0 .316406-.015625.546875-.046875zm0 0"/></symbol><symbol id="M" overflow="visible"><path d="m8.453125-3.609375 1.359375.34375c-.28125 1.117187-.796875 1.96875-1.546875 2.5625-.742187.585937-1.648437.875-2.71875.875-1.105469 0-2.007813-.2226562-2.703125-.671875-.699219-.445312-1.230469-1.097656-1.59375-1.953125-.355469-.863281-.53125-1.785156-.53125-2.765625 0-1.070312.203125-2.003906.609375-2.796875.40625-.800781.988281-1.410156 1.75-1.828125.757813-.414062 1.59375-.625 2.5-.625 1.03125 0 1.894531.265625 2.59375.796875.695313.523437 1.1875 1.257813 1.46875 2.203125l-1.34375.3125c-.242187-.75-.589844-1.289062-1.046875-1.625-.449219-.34375-1.015625-.515625-1.703125-.515625-.792969 0-1.453125.195313-1.984375.578125-.53125.375-.90625.882812-1.125 1.515625-.210938.636719-.3125 1.292969-.3125 1.96875 0 .875.125 1.640625.375 2.296875.257812.65625.65625 1.148438 1.1875 1.46875.539062.324219 1.125.484375 1.75.484375.757812 0 1.40625-.21875 1.9375-.65625.53125-.445313.890625-1.101563 1.078125-1.96875zm0 0"/></symbol><symbol id="N" overflow="visible"><path d="m.953125 0v-7.453125h1.125v1.0625c.550781-.820313 1.34375-1.234375 2.375-1.234375.445313 0 .859375.085938 1.234375.25.382812.15625.671875.367188.859375.625.1875.261719.316406.574219.390625.9375.039062.242188.0625.652344.0625 1.234375v4.578125h-1.265625v-4.53125c0-.519531-.046875-.90625-.140625-1.15625-.09375-.257812-.265625-.460938-.515625-.609375-.25-.15625-.546875-.234375-.890625-.234375-.53125 0-.996094.171875-1.390625.515625-.386719.34375-.578125.992187-.578125 1.9375v4.078125zm0 0"/></symbol><symbol id="O" overflow="visible"><path d="m5.8125-2.734375 1.234375.171875c-.136719.855469-.484375 1.527344-1.046875 2.015625-.554688.4804688-1.234375.71875-2.046875.71875-1.023437 0-1.84375-.332031-2.46875-1-.617187-.664063-.921875-1.625-.921875-2.875 0-.800781.128906-1.503906.390625-2.109375.269531-.601562.675781-1.054688 1.21875-1.359375.550781-.300781 1.144531-.453125 1.78125-.453125.8125 0 1.472656.210938 1.984375.625.519531.40625.851562.984375 1 1.734375l-1.234375.1875c-.117187-.5-.324219-.875-.625-1.125-.292969-.25-.648437-.375-1.0625-.375-.648437 0-1.167969.230469-1.5625.6875-.398437.449219-.59375 1.167969-.59375 2.15625 0 1 .191406 1.730469.578125 2.1875.382812.449219.882812.671875 1.5.671875.5 0 .910156-.148438 1.234375-.453125.332031-.300781.546875-.769531.640625-1.40625zm0 0"/></symbol><symbol id="P" overflow="visible"><path d="m.953125 0v-10.296875h1.265625v5.875l2.984375-3.03125h1.640625l-2.84375 2.765625 3.125 4.6875h-1.546875l-2.46875-3.8125-.890625.859375v2.953125zm0 0"/></symbol><symbol id="Q" overflow="visible"><path d="m.953125 0v-10.296875h1.265625v3.703125c.582031-.6875 1.320312-1.03125 2.21875-1.03125.550781 0 1.03125.109375 1.4375.328125.414062.21875.707031.523437.875.90625.175781.386719.265625.945313.265625 1.671875v4.71875h-1.265625v-4.71875c0-.632812-.136719-1.09375-.40625-1.375-.273438-.289062-.65625-.4375-1.15625-.4375-.375 0-.730469.101562-1.0625.296875-.335938.1875-.570312.449219-.703125.78125-.136719.335937-.203125.792969-.203125 1.375v4.078125zm0 0"/></symbol><symbol id="R" overflow="visible"><path d="m1.109375 0v-10.296875h3.546875c.800781 0 1.410156.054687 1.828125.15625.59375.136719 1.097656.382813 1.515625.734375.539062.460938.941406 1.046875 1.203125 1.765625.269531.710937.40625 1.523437.40625 2.4375 0 .78125-.09375 1.476563-.28125 2.078125-.179687.605469-.40625 1.105469-.6875 1.5-.28125.398438-.59375.710938-.9375.9375-.34375.230469-.757813.402344-1.234375.515625-.480469.1171875-1.027344.171875-1.640625.171875zm1.359375-1.21875h2.203125c.675781 0 1.207031-.0625 1.59375-.1875.382813-.125.691406-.300781.921875-.53125.320312-.320312.570312-.753906.75-1.296875.1875-.550781.28125-1.210937.28125-1.984375 0-1.082031-.179688-1.910156-.53125-2.484375-.355469-.570313-.789062-.957031-1.296875-1.15625-.367187-.144531-.953125-.21875-1.765625-.21875h-2.15625zm0 0"/></symbol><symbol id="S" overflow="visible"><path d="m-.015625 0 3.953125-10.296875h1.453125l4.21875 10.296875h-1.546875l-1.203125-3.109375h-4.296875l-1.140625 3.109375zm2.96875-4.21875h3.484375l-1.078125-2.859375c-.324219-.863281-.570313-1.570313-.734375-2.125-.125.65625-.308594 1.308594-.546875 1.953125zm0 0"/></symbol><symbol id="T" overflow="visible"><path d="m0 .140625 2.390625-8.515625h.796875l-2.375 8.515625zm0 0"/></symbol><symbol id="U" overflow="visible"><path d="m4.625 0v-.75c-.375.59375-.933594.890625-1.671875.890625-.46875 0-.90625-.1328125-1.3125-.390625-.398437-.269531-.703125-.640625-.921875-1.109375s-.328125-1.003906-.328125-1.609375c0-.601562.097656-1.144531.296875-1.625.195312-.488281.492188-.859375.890625-1.109375.394531-.257813.84375-.390625 1.34375-.390625.351563 0 .671875.078125.953125.234375.28125.148437.507812.339844.6875.578125v-2.953125h1v8.234375zm-3.1875-2.96875c0 .761719.15625 1.328125.46875 1.703125.320312.375.707031.5625 1.15625.5625.4375 0 .804688-.175781 1.109375-.53125.3125-.363281.46875-.914063.46875-1.65625 0-.8125-.15625-1.410156-.46875-1.796875-.3125-.382812-.699219-.578125-1.15625-.578125-.449219 0-.824219.1875-1.125.5625-.304687.367187-.453125.945313-.453125 1.734375zm0 0"/></symbol><symbol id="V" overflow="visible"><path d="m4.84375-1.921875 1.046875.125c-.167969.617187-.476563 1.09375-.921875 1.4375-.449219.3359375-1.015625.5-1.703125.5-.875 0-1.570313-.269531-2.078125-.8125-.511719-.539063-.765625-1.296875-.765625-2.265625 0-1 .253906-1.773438.765625-2.328125.519531-.550781 1.191406-.828125 2.015625-.828125.800781 0 1.453125.273438 1.953125.8125.507812.542969.765625 1.304688.765625 2.28125 0 .0625-.007813.15625-.015625.28125h-4.4375c.03125.65625.210938 1.15625.546875 1.5.332031.34375.75.515625 1.25.515625.375 0 .691406-.09375.953125-.28125.257812-.195313.46875-.507813.625-.9375zm-3.328125-1.625h3.34375c-.054687-.507813-.183594-.890625-.390625-1.140625-.324219-.382812-.742188-.578125-1.25-.578125-.46875 0-.859375.15625-1.171875.46875s-.492187.730469-.53125 1.25zm0 0"/></symbol><symbol id="W" overflow="visible"><path d="m2.421875 0-2.28125-5.96875h1.078125l1.28125 3.578125c.132812.386719.257812.789063.375 1.203125.09375-.3125.21875-.691406.375-1.140625l1.328125-3.640625h1.03125l-2.25 5.96875zm0 0"/></symbol><symbol id="X" overflow="visible"><path d="m2.96875-.90625.140625.890625c-.28125.0625-.539063.09375-.765625.09375-.367188 0-.652344-.0585938-.859375-.171875-.199219-.113281-.339844-.265625-.421875-.453125-.085938-.195313-.125-.597656-.125-1.203125v-3.421875h-.734375v-.796875h.734375v-1.46875l1.015625-.609375v2.078125h1.015625v.796875h-1.015625v3.484375c0 .28125.015625.464844.046875.546875.039062.085937.097656.152344.171875.203125.082031.054688.195313.078125.34375.078125.113281 0 .265625-.015625.453125-.046875zm0 0"/></symbol><symbol id="Y" overflow="visible"><path d="m.71875 2.296875-.125-.953125c.226562.0625.421875.09375.578125.09375.226563 0 .410156-.039062.546875-.109375.132812-.074219.242188-.179687.328125-.3125.0625-.105469.164063-.355469.3125-.75.019531-.0625.050781-.148437.09375-.25l-2.265625-5.984375h1.09375l1.234375 3.453125c.15625.4375.300781.902344.4375 1.390625.113281-.46875.25-.921875.40625-1.359375l1.28125-3.484375h1.015625l-2.28125 6.0625c-.242188.65625-.429688 1.109375-.5625 1.359375-.179688.332031-.386719.578125-.625.734375-.230469.15625-.507812.234375-.828125.234375-.1875 0-.402344-.042969-.640625-.125zm0 0"/></symbol><symbol id="Z" overflow="visible"><path d="m6.296875-8.234375h1.078125v4.765625c0 .824219-.09375 1.480469-.28125 1.96875-.1875.480469-.527344.875-1.015625 1.1875-.492187.3046875-1.132813.453125-1.921875.453125-.773438 0-1.402344-.1328125-1.890625-.390625-.492187-.269531-.839844-.65625-1.046875-1.15625-.210938-.507812-.3125-1.195312-.3125-2.0625v-4.765625h1.09375v4.75c0 .71875.0625 1.25.1875 1.59375.132812.335937.363281.59375.6875.78125.320312.179687.71875.265625 1.1875.265625.800781 0 1.375-.179688 1.71875-.546875.34375-.363281.515625-1.0625.515625-2.09375zm0 0"/></symbol><symbol id="aa" overflow="visible"><path d="m.515625-2.640625 1.03125-.09375c.050781.417969.164063.757813.34375 1.015625.175781.261719.453125.476562.828125.640625.375.15625.789062.234375 1.25.234375.414062 0 .78125-.054688 1.09375-.171875.320312-.125.5625-.296875.71875-.515625s.234375-.453125.234375-.703125c0-.257813-.074219-.484375-.21875-.671875-.148437-.195312-.398437-.359375-.75-.484375-.21875-.09375-.710937-.226563-1.46875-.40625-.75-.1875-1.277344-.359375-1.578125-.515625-.398438-.207031-.695312-.460938-.890625-.765625-.1875-.300781-.28125-.644531-.28125-1.03125 0-.414063.113281-.800781.34375-1.15625.238281-.363281.582031-.640625 1.03125-.828125.457031-.1875.96875-.28125 1.53125-.28125.601563 0 1.140625.101562 1.609375.296875.46875.199219.828125.492187 1.078125.875.25.375.382813.808594.40625 1.296875l-1.046875.078125c-.0625-.519531-.257812-.910156-.578125-1.171875-.324219-.269531-.796875-.40625-1.421875-.40625-.667969 0-1.152344.121094-1.453125.359375-.304687.242187-.453125.53125-.453125.875 0 .292969.109375.53125.328125.71875.207031.199219.753906.398437 1.640625.59375.882812.199219 1.492188.375 1.828125.53125.476563.21875.828125.5 1.046875.84375.226562.335937.34375.71875.34375 1.15625s-.125.855469-.375 1.25c-.25.386719-.609375.6875-1.078125.90625-.46875.2070312-.996094.3125-1.578125.3125-.75 0-1.382812-.109375-1.890625-.328125-.5-.21875-.890625-.539062-1.171875-.96875-.28125-.4375-.433594-.929688-.453125-1.484375zm0 0"/></symbol><symbol id="ab" overflow="visible"><path d="m.84375 0v-8.234375h3.09375c.625 0 1.125.085937 1.5.25.382812.167969.679688.429687.890625.78125.21875.34375.328125.703125.328125 1.078125 0 .355469-.09375.6875-.28125 1-.1875.304688-.476562.554688-.859375.75.488281.148438.867187.398438 1.140625.75.269531.34375.40625.757812.40625 1.234375 0 .386719-.085938.746094-.25 1.078125-.167969.335938-.371094.589844-.609375.765625-.242187.179687-.542969.3125-.90625.40625-.355469.09375-.792969.140625-1.3125.140625zm1.09375-4.765625h1.78125c.476562 0 .820312-.035156 1.03125-.109375.28125-.070312.488281-.203125.625-.390625.144531-.195313.21875-.441406.21875-.734375 0-.269531-.070312-.507812-.203125-.71875-.136719-.207031-.324219-.347656-.5625-.421875-.242187-.082031-.65625-.125-1.25-.125h-1.640625zm0 3.796875h2.046875c.351563 0 .597656-.015625.734375-.046875.25-.039063.457031-.113281.625-.21875.175781-.101563.316406-.253906.421875-.453125.113281-.207031.171875-.441406.171875-.703125 0-.300781-.085938-.566406-.25-.796875-.15625-.226562-.375-.382812-.65625-.46875-.273438-.09375-.671875-.140625-1.203125-.140625h-1.890625zm0 0"/></symbol><symbol id="ac" overflow="visible"><path d="m4.28125 0h-1v-6.4375c-.25.230469-.574219.464844-.96875.703125-.398438.230469-.75.402344-1.0625.515625v-.984375c.5625-.257813 1.054688-.578125 1.484375-.953125.425781-.382812.726563-.753906.90625-1.109375h.640625zm0 0"/></symbol><symbol id="ad" overflow="visible"><path d="m4.9375-12.921875c1.238281 0 2.210938.449219 2.921875 1.34375.832031 1.054687 1.25 2.796875 1.25 5.234375s-.421875 4.1875-1.265625 5.25c-.699219.875-1.667969 1.3125-2.90625 1.3125-1.261719 0-2.277344-.476562-3.046875-1.4375-.761719-.96875-1.140625-2.6875-1.140625-5.15625 0-2.414062.421875-4.15625 1.265625-5.21875.695313-.882812 1.671875-1.328125 2.921875-1.328125zm0 2.046875c-.304688 0-.574219.101562-.8125.296875-.230469.1875-.40625.527344-.53125 1.015625-.179688.636719-.265625 1.710938-.265625 3.21875 0 1.511719.078125 2.546875.234375 3.109375s.347656.9375.578125 1.125c.226563.1875.492187.28125.796875.28125.289062 0 .550781-.09375.78125-.28125.238281-.1875.421875-.523437.546875-1.015625.175781-.632812.265625-1.707031.265625-3.21875 0-1.507812-.078125-2.546875-.234375-3.109375-.148437-.5625-.339844-.9375-.578125-1.125-.230469-.195313-.492188-.296875-.78125-.296875zm0 0"/></symbol><symbol id="ae" overflow="visible"><path d="m2.875-6.9375c-.636719-.269531-1.101562-.640625-1.390625-1.109375-.292969-.46875-.4375-.984375-.4375-1.546875 0-.957031.332031-1.75 1-2.375.675781-.632812 1.628906-.953125 2.859375-.953125 1.226562 0 2.179688.320313 2.859375.953125.675781.625 1.015625 1.417969 1.015625 2.375 0 .59375-.15625 1.125-.46875 1.59375-.3125.460938-.75.8125-1.3125 1.0625.71875.28125 1.257812.699219 1.625 1.25.375.554688.5625 1.1875.5625 1.90625 0 1.1875-.382812 2.15625-1.140625 2.90625-.761719.742188-1.765625 1.109375-3.015625 1.109375-1.179688 0-2.152344-.3046875-2.921875-.921875-.917969-.726562-1.375-1.722656-1.375-2.984375 0-.695313.171875-1.335937.515625-1.921875.34375-.582031.882812-1.03125 1.625-1.34375zm.515625-2.484375c0 .492187.132813.875.40625 1.15625.28125.273437.648437.40625 1.109375.40625.46875 0 .84375-.132813 1.125-.40625.28125-.28125.421875-.671875.421875-1.171875 0-.457031-.140625-.820312-.421875-1.09375-.273438-.28125-.636719-.421875-1.09375-.421875-.46875 0-.84375.140625-1.125.421875s-.421875.652344-.421875 1.109375zm-.234375 5.515625c0 .679688.171875 1.210938.515625 1.59375.351563.375.789063.5625 1.3125.5625.507813 0 .929687-.179688 1.265625-.546875.332031-.363281.5-.894531.5-1.59375 0-.601563-.171875-1.085937-.515625-1.453125-.335937-.363281-.761719-.546875-1.28125-.546875-.605469 0-1.058594.210937-1.359375.625-.292969.417969-.4375.871094-.4375 1.359375zm0 0"/></symbol><symbol id="af" overflow="visible"><path d="m1.765625-6.859375v-2.453125h2.46875v2.453125zm0 6.859375v-2.46875h2.46875v2.46875zm0 0"/></symbol><symbol id="ag" overflow="visible"><path d="m6.6875-2.96875 2.453125.421875c-.3125.898437-.8125 1.578125-1.5 2.046875-.679687.46875-1.527344.703125-2.546875.703125-1.625 0-2.828125-.523437-3.609375-1.578125-.617187-.851562-.921875-1.925781-.921875-3.21875 0-1.539062.398438-2.75 1.203125-3.625.8125-.875 1.835937-1.3125 3.078125-1.3125 1.382812 0 2.476562.460938 3.28125 1.375.800781.917969 1.1875 2.320312 1.15625 4.203125h-6.1875c.019531.742187.21875 1.3125.59375 1.71875.382812.40625.859375.609375 1.421875.609375.382813 0 .707031-.101562.96875-.3125.269531-.21875.472656-.5625.609375-1.03125zm.140625-2.484375c-.023437-.71875-.210937-1.257813-.5625-1.625-.34375-.375-.765625-.5625-1.265625-.5625-.542969 0-.992188.199219-1.34375.59375-.355469.386719-.527344.917969-.515625 1.59375zm0 0"/></symbol><symbol id="ah" overflow="visible"><path d="m1.1875 0v-12.859375h2.46875v4.625c.757812-.863281 1.660156-1.296875 2.703125-1.296875 1.125 0 2.054687.414062 2.796875 1.234375.75.824219 1.125 2.007813 1.125 3.546875 0 1.585938-.382812 2.808594-1.140625 3.671875-.75.855469-1.667969 1.28125-2.75 1.28125-.53125 0-1.058594-.1328125-1.578125-.390625-.523438-.269531-.96875-.664062-1.34375-1.1875v1.375zm2.4375-4.859375c0 .96875.15625 1.683594.46875 2.140625.425781.65625.992188.984375 1.703125.984375.539063 0 1-.226563 1.375-.6875.382813-.46875.578125-1.203125.578125-2.203125 0-1.070312-.195312-1.84375-.578125-2.3125-.386719-.46875-.882813-.703125-1.484375-.703125-.585938 0-1.074219.230469-1.46875.6875-.398438.460937-.59375 1.15625-.59375 2.09375zm0 0"/></symbol><symbol id="ai" overflow="visible"><path d="m9.828125 0h-2.28125v-1.375c-.386719.542969-.839844.945312-1.359375 1.203125-.511719.25-1.03125.375-1.5625.375-1.0625 0-1.980469-.425781-2.75-1.28125-.761719-.863281-1.140625-2.066406-1.140625-3.609375 0-1.582031.367187-2.785156 1.109375-3.609375.75-.820313 1.691406-1.234375 2.828125-1.234375 1.039063 0 1.941406.433594 2.703125 1.296875v-4.625h2.453125zm-6.578125-4.859375c0 .992187.140625 1.710937.421875 2.15625.394531.648437.945313.96875 1.65625.96875.570313 0 1.054687-.238281 1.453125-.71875.394531-.488281.59375-1.210937.59375-2.171875 0-1.070312-.195312-1.84375-.578125-2.3125-.386719-.46875-.882813-.703125-1.484375-.703125-.585938 0-1.074219.234375-1.46875.703125-.398438.460938-.59375 1.152344-.59375 2.078125zm0 0"/></symbol><symbol id="aj" overflow="visible"><path d="m.203125-9.3125h1.375v-.703125c0-.789063.082031-1.378906.25-1.765625.164063-.382812.472656-.695312.921875-.9375.445312-.238281 1.015625-.359375 1.703125-.359375.695313 0 1.382813.105469 2.0625.3125l-.34375 1.71875c-.386719-.09375-.761719-.140625-1.125-.140625-.355469 0-.609375.085938-.765625.25-.15625.167969-.234375.492188-.234375.96875v.65625h1.84375v1.9375h-1.84375v7.375h-2.46875v-7.375h-1.375zm0 0"/></symbol><symbol id="ak" overflow="visible"><path d="m.671875-3.40625 2.390625-.296875c.070312.605469.273438 1.070313.609375 1.390625.332031.324219.738281.484375 1.21875.484375.507813 0 .9375-.191406 1.28125-.578125.34375-.382812.515625-.90625.515625-1.5625 0-.613281-.167969-1.101562-.5-1.46875-.335938-.363281-.742188-.546875-1.21875-.546875-.3125 0-.6875.0625-1.125.1875l.265625-2.015625c.664063.023438 1.175781-.117188 1.53125-.421875.351563-.3125.53125-.722656.53125-1.234375 0-.425781-.132813-.769531-.390625-1.03125-.261719-.257812-.605469-.390625-1.03125-.390625-.417969 0-.777344.148437-1.078125.4375-.292969.292969-.476563.71875-.546875 1.28125l-2.265625-.375c.15625-.78125.390625-1.398437.703125-1.859375.320312-.46875.769531-.835938 1.34375-1.109375.570312-.269531 1.210938-.40625 1.921875-.40625 1.207031 0 2.175781.390625 2.90625 1.171875.601563.625.90625 1.339844.90625 2.140625 0 1.125-.617187 2.027344-1.84375 2.703125.726563.15625 1.3125.511719 1.75 1.0625.445313.542969.671875 1.203125.671875 1.984375 0 1.125-.414062 2.089844-1.234375 2.890625-.824219.792969-1.851563 1.1875-3.078125 1.1875-1.167969 0-2.136719-.332031-2.90625-1-.761719-.675781-1.203125-1.550781-1.328125-2.625zm0 0"/></symbol><symbol id="al" overflow="visible"><path d="m.765625-10.390625v-2.296875h8.421875v1.796875c-.6875.679687-1.390625 1.65625-2.109375 2.9375s-1.273437 2.648437-1.65625 4.09375c-.375 1.4375-.558594 2.726563-.546875 3.859375h-2.390625c.039063-1.78125.40625-3.59375 1.09375-5.4375.695313-1.851562 1.628906-3.503906 2.796875-4.953125zm0 0"/></symbol><symbol id="am" overflow="visible"><path d="m1.3125 0v-12.859375h9.53125v2.171875h-6.9375v2.859375h6.453125v2.15625h-6.453125v3.5h7.1875v2.171875zm0 0"/></symbol><symbol id="an" overflow="visible"><path d="m1.296875-12.859375h4.75c1.070313 0 1.890625.085937 2.453125.25.75.21875 1.390625.617187 1.921875 1.1875.539063.5625.953125 1.257813 1.234375 2.078125.28125.824219.421875 1.835938.421875 3.03125 0 1.0625-.132813 1.976562-.390625 2.734375-.324219.9375-.78125 1.699219-1.375 2.28125-.449219.4375-1.058594.78125-1.828125 1.03125-.574219.1796875-1.339844.265625-2.296875.265625h-4.890625zm2.59375 2.171875v8.515625h1.9375c.726563 0 1.253906-.039063 1.578125-.125.414062-.101563.765625-.28125 1.046875-.53125s.503906-.660156.671875-1.234375c.175781-.582031.265625-1.367188.265625-2.359375 0-.988281-.089844-1.75-.265625-2.28125-.167969-.539063-.414062-.957031-.734375-1.25-.3125-.300781-.714844-.503906-1.203125-.609375-.355469-.082031-1.0625-.125-2.125-.125zm0 0"/></symbol><symbol id="ao" overflow="visible"><path d="m5.59375 0v-2.59375h-5.265625v-2.15625l5.578125-8.171875h2.078125v8.171875h1.59375v2.15625h-1.59375v2.59375zm0-4.75v-4.40625l-2.953125 4.40625zm0 0"/></symbol><symbol id="ap" overflow="visible"><path d="m7.078125 0h-2.46875v-9.296875c-.90625.84375-1.96875 1.46875-3.1875 1.875v-2.234375c.644531-.207031 1.34375-.601562 2.09375-1.1875.757813-.59375 1.28125-1.285156 1.5625-2.078125h2zm0 0"/></symbol><symbol id="aq" overflow="visible"><path d="m.8125-2.96875 2.390625-.265625c.0625.480469.210937.839844.453125 1.078125.25.230469.570312.34375.96875.34375.507812 0 .941406-.234375 1.296875-.703125.363281-.46875.59375-1.4375.6875-2.90625-.617187.71875-1.386719 1.078125-2.3125 1.078125-1.023437 0-1.902344-.390625-2.640625-1.171875-.730469-.78125-1.09375-1.796875-1.09375-3.046875 0-1.300781.382812-2.351562 1.15625-3.15625.78125-.800781 1.769531-1.203125 2.96875-1.203125 1.3125 0 2.382812.507813 3.21875 1.515625.832031 1.011719 1.25 2.671875 1.25 4.984375 0 2.355469-.4375 4.054687-1.3125 5.09375-.867188 1.042969-1.996094 1.5625-3.390625 1.5625-1.011719 0-1.828125-.265625-2.453125-.796875-.617188-.539062-1.011719-1.34375-1.1875-2.40625zm5.578125-5.390625c0-.789063-.183594-1.40625-.546875-1.84375-.367188-.445313-.789062-.671875-1.265625-.671875-.460937 0-.839844.183594-1.140625.546875-.304688.355469-.453125.945313-.453125 1.765625 0 .835938.160156 1.445312.484375 1.828125.332031.386719.75.578125 1.25.578125.46875 0 .863281-.1875 1.1875-.5625.320312-.375.484375-.921875.484375-1.640625zm0 0"/></symbol><symbol id="ar" overflow="visible"><path d="m9.53125-4.734375 2.53125.796875c-.398438 1.40625-1.042969 2.453125-1.9375 3.140625-.898438.679687-2.03125 1.015625-3.40625 1.015625-1.710938 0-3.117188-.582031-4.21875-1.75-1.105469-1.164062-1.65625-2.757812-1.65625-4.78125 0-2.144531.550781-3.804688 1.65625-4.984375 1.113281-1.1875 2.570312-1.78125 4.375-1.78125 1.570312 0 2.847656.464844 3.828125 1.390625.582031.554688 1.019531 1.34375 1.3125 2.375l-2.5625.609375c-.15625-.664063-.476563-1.191406-.953125-1.578125-.480469-.382812-1.070312-.578125-1.765625-.578125-.949219 0-1.71875.34375-2.3125 1.03125-.59375.679687-.890625 1.78125-.890625 3.3125 0 1.625.289062 2.789063.875 3.484375.582031.6875 1.34375 1.03125 2.28125 1.03125.6875 0 1.28125-.21875 1.78125-.65625s.851562-1.128906 1.0625-2.078125zm0 0"/></symbol><symbol id="as" overflow="visible"><path d="m9.109375-9.71875-2.375.265625c-.0625-.488281-.21875-.847656-.46875-1.078125-.242187-.238281-.558594-.359375-.953125-.359375-.523438 0-.964844.234375-1.328125.703125-.355469.46875-.578125 1.445312-.671875 2.921875.613281-.726563 1.378906-1.09375 2.296875-1.09375 1.03125 0 1.910156.398437 2.640625 1.1875.738281.78125 1.109375 1.792969 1.109375 3.03125 0 1.3125-.390625 2.371094-1.171875 3.171875-.773438.792969-1.761719 1.1875-2.96875 1.1875-1.304688 0-2.371094-.503906-3.203125-1.515625-.835937-1.007813-1.25-2.660156-1.25-4.953125 0-2.363281.429687-4.066406 1.296875-5.109375.875-1.039063 2.007812-1.5625 3.40625-1.5625.976562 0 1.785156.277344 2.421875.828125.644531.542969 1.050781 1.335938 1.21875 2.375zm-5.578125 5.390625c0 .804687.179688 1.421875.546875 1.859375.363281.429688.785156.640625 1.265625.640625.457031 0 .835938-.175781 1.140625-.53125.300781-.351563.453125-.9375.453125-1.75 0-.84375-.167969-1.457031-.5-1.84375-.324219-.382813-.730469-.578125-1.21875-.578125-.46875 0-.871094.1875-1.203125.5625-.324219.367188-.484375.914062-.484375 1.640625zm0 0"/></symbol><g clip-path="url(#a)"><path d="m0 0h557v344.980469h-557zm0 0" fill="#fff"/></g><path d="m268.410156 40.066406c-.667968.675782-1.738281.777344-2.472656-.164062-.539062-.746094-.28125-1.636719.171875-2.0625 2.585937-2.6875 6.71875-4.597656 11.074219-4.554688 5.046875.078125 8.675781 2.246094 11.003906 4.570313.742188.796875.519531 1.808593-.105469 2.304687-.757812.597656-1.667969.582032-2.332031-.136718-2.109375-2.097657-5.074219-3.476563-8.304688-3.5625-3.050781-.066407-6.328124.90625-9.035156 3.605468zm4.160156 4.472656c-.695312.632813-1.71875.546876-2.320312-.195312-.417969-.53125-.554688-1.394531.078125-2.078125 1.675781-1.78125 4.21875-2.851563 6.761719-2.851563 2.796875.035157 5.160156 1.222657 6.75 3.003907.539062.769531.300781 1.574219-.199219 2.097656-.453125.503906-1.496094.734375-2.28125-.078125-1.085937-1.078125-2.609375-1.769531-4.289063-1.789062-1.734374.007812-3.328124.691406-4.5 1.890624zm34.679688 46.421876h-60.375v-43h60.375zm-23.496094 3.355468c.546875.660156.460938 1.457032.058594 1.976563-1.734375 1.996093-4.371094 2.9375-6.65625 2.9375-2.625.007812-5.039062-1.019531-6.804688-2.785157-.570312-.625-.675781-1.570312.113282-2.324218.691406-.59375 1.546875-.496094 2.140625.042968.992187 1.050782 2.582031 1.878907 4.515625 1.855469 2.082031-.027343 3.492187-1 4.476562-1.984375.410156-.324218 1.394532-.617187 2.15625.28125zm4.332032 6.425782c-2.679688 2.882812-6.691407 4.726562-10.964844 4.726562-4.070313 0-8.101563-1.523438-11.191406-4.75-.359376-.410156-.695313-1.371094.171874-2.210938.660157-.582031 1.617188-.578124 2.242188.113282 2.285156 2.257812 5.269531 3.578125 8.753906 3.601562 4.046875-.078125 6.871094-1.882812 8.652344-3.652344.527344-.507812 1.4375-.769531 2.242188-.011718.546874.566406.71875 1.433594.09375 2.183594zm0 0" fill="#c00"/><path d="m246.875 88.367188h60.375v2.59375h-60.375zm0 0" fill-opacity=".302"/><path d="m307.25 79.308594h-10.164062c-.605469 0-1.191407-.550782-1.191407-1.222656v-4.554688c-.675781-.273438-1.769531-1.179688-1.769531-2.746094 0-1.632812 1.292969-2.988281 3.046875-2.988281 1.335937 0 2.917969 1.121094 2.917969 2.988281 0 1.222656-.71875 2.273438-1.78125 2.753906v3.328126h8.941406zm-18.78125 6.226562c-.582031 0-1.1875-.539062-1.1875-1.230468v-10.765626c-.589844-.265624-1.703125-1.027343-1.773438-2.6875-.042968-1.230468.96875-3.113281 3.113282-3.046874 1.636718.078124 2.828125 1.40625 2.851562 2.972656-.015625 1.238281-.710937 2.285156-1.773437 2.738281v9.589844h17.550781v2.429687zm-4.167969-37.574218v8.988281h5.152344v-5.09375c0-.691407.515625-1.308594 1.308594-1.308594h12.675781c.785156 0 1.308594.617187 1.308594 1.285156v12.84375c0 .5625-.515625 1.257813-1.300782 1.257813h-12.714843c-.667969 0-1.277344-.523438-1.277344-1.277344v-5.277344h-12.492187c-.410157.941406-1.394532 1.785156-2.714844 1.777344-1.675782 0-2.984375-1.351562-2.984375-3.027344 0-1.542968 1.246093-2.953125 3.035156-2.953125 1.105469 0 2.25.71875 2.664063 1.773438h4.925781v-8.988281zm-17.625 0h2.417969v18.304687l4.496094 4.519531 2.136718-2.148437c-.308593-.832031-.332031-2.085938.625-3.140625 1.308594-1.328125 3.03125-1.054688 3.9375-.335938 1.511719 1.15625 1.53125 3.1875.425782 4.402344-1.007813 1.117188-2.402344 1.152344-3.269532.792969l-2.136718 2.15625 3.808594 3.835937c.964843-.367187 2.222656-.28125 3.171874.648438 1.484376 1.542968.898438 3.519531-.125 4.390625-1.386718 1.179687-3.238281.898437-4.261718-.332031-.507813-.625-.933594-1.714844-.503906-2.945313l-10.417969-10.5c-.195313-.195313-.304688-.496094-.304688-.847656zm-15.933593 0h2.417968v8.988281h4.1875c.539063-1.164063 1.648438-1.789063 2.71875-1.789063 1.695313 0 2.980469 1.378906 2.980469 3.003906 0 1.488282-1.121094 3-3.066406 3-.8125 0-2.050781-.496093-2.632813-1.785156h-4.1875v9.640625l7.378906 7.4375c1.460938-.617187 3.421876 0 4.023438 1.960938.519531 2.042969-1.003906 3.882812-3.015625 3.796875-1.070313-.042969-2.335937-.757813-2.746094-2.214844-.152343-.582031-.117187-1.222656.0625-1.753906l-7.789062-7.839844c-.179688-.179688-.332031-.441406-.332031-.914062zm19.40625 40.40625v-8.75l-9.214844-9.242188c-1.398438.496094-2.746094-.078125-3.441406-1.078125-.964844-1.394531-.652344-3.253906.789062-4.253906 1.34375-.863281 3.019531-.511719 3.933594.609375.890625 1.128906.753906 2.359375.460937 3.042968l9.886719 9.875v9.796876zm-19.332032 0v-6.40625c-.792968-.328126-1.761718-1.328126-1.761718-2.6875 0-1.953126 1.566406-3.054688 2.933593-3.054688 1.636719 0 3.011719 1.273438 3.011719 3.003906 0 1.152344-.664062 2.242188-1.753906 2.738282v6.40625zm0 0" fill="#fff"/><g><use x="214.366367" xlink:href="#g" y="122.899339"/><use x="223.953841" xlink:href="#h" y="122.899339"/><use x="233.541315" xlink:href="#i" y="122.899339"/><use x="243.128788" xlink:href="#j" y="122.899339"/><use x="247.915506" xlink:href="#k" y="122.899339"/><use x="261.482554" xlink:href="#l" y="122.899339"/><use x="271.863134" xlink:href="#m" y="122.899339"/><use x="283.043841" xlink:href="#n" y="122.899339"/><use x="292.631315" xlink:href="#g" y="122.899339"/><use x="302.218788" xlink:href="#l" y="122.899339"/><use x="312.599369" xlink:href="#j" y="122.899339"/><use x="317.386087" xlink:href="#o" y="122.899339"/><use x="326.973561" xlink:href="#p" y="122.899339"/><use x="330.967172" xlink:href="#q" y="122.899339"/></g><use x="339.747497" xlink:href="#r" y="122.899339"/><g><use x="205.169127" xlink:href="#s" y="140.148369"/><use x="209.955845" xlink:href="#t" y="140.148369"/><use x="217.950086" xlink:href="#u" y="140.148369"/><use x="225.137181" xlink:href="#v" y="140.148369"/><use x="233.131422" xlink:href="#w" y="140.148369"/><use x="241.125662" xlink:href="#x" y="140.148369"/><use x="249.119903" xlink:href="#y" y="140.148369"/><use x="257.114143" xlink:href="#z" y="140.148369"/><use x="261.900861" xlink:href="#A" y="140.148369"/><use x="265.094346" xlink:href="#B" y="140.148369"/><use x="272.281442" xlink:href="#t" y="140.148369"/><use x="280.275682" xlink:href="#z" y="140.148369"/><use x="285.0624" xlink:href="#r" y="140.148369"/><use x="289.056011" xlink:href="#C" y="140.148369"/><use x="293.049622" xlink:href="#A" y="140.148369"/><use x="296.243107" xlink:href="#z" y="140.148369"/><use x="301.029825" xlink:href="#D" y="140.148369"/><use x="313.003639" xlink:href="#E" y="140.148369"/><use x="323.38422" xlink:href="#F" y="140.148369"/><use x="331.37846" xlink:href="#z" y="140.148369"/><use x="336.165178" xlink:href="#t" y="140.148369"/><use x="344.159419" xlink:href="#G" y="140.148369"/></g><use x="348.944737" xlink:href="#r" y="140.148369"/><path d="m100.800781 116.480469c1.660157 0 2.816407-.6875 2.492188-1.222657l-3.300781-5.121093c-.414063-.785157-1.003907-.941407-1.980469-.941407h-21.375c-1.035157 0-1.566407.191407-2.078125.96875l-3.054688 5.066407c-.597656.8125 1.1875 1.25 2.464844 1.25zm49.914063-16.660157v-74.996093h-126.875v74.996093zm-140.703125 23.4375c-3.386719-.027343-6.410157-1.222656-7.691407-3.0625-1.242187-1.808593-.738281-3.621093.332032-4.871093l12.28125-13.160157v-77.742187c0-3.910156 3.328125-8.96875 8.847656-8.96875h126.96875c4.296875 0 8.867188 3.621094 8.867188 9.464844v77.246093l12.40625 13.28125c1.042968 1.25 1.546874 2.90625.300781 4.6875-1.636719 2.25-4.722657 2.96875-7.632813 3.125zm0 0" fill="#505050"/><g stroke="#000" transform="matrix(.71871 0 0 .71871 .359355 .359355)"><path d="m229.371621 95.999991h53.628015l53.628016.092397" fill="none" stroke-miterlimit="10"/><path d="m224.121326 95.999991 7.000393-3.500197-1.750098 3.500197 1.750098 3.500197zm0 0" stroke-miterlimit="10"/><path d="m341.877947 96.097823-7.000394 3.494762 1.750099-3.500197-1.739229-3.500197zm0 0" stroke-miterlimit="10"/></g><g><use x="48.176002" xlink:href="#H" y="48.153542"/><use x="57.763476" xlink:href="#q" y="48.153542"/><use x="66.543805" xlink:href="#r" y="48.153542"/><use x="70.537415" xlink:href="#g" y="48.153542"/><use x="80.124889" xlink:href="#I" y="48.153542"/><use x="87.311985" xlink:href="#v" y="48.153542"/><use x="95.306225" xlink:href="#J" y="48.153542"/><use x="98.49971" xlink:href="#K" y="48.153542"/><use x="106.493951" xlink:href="#A" y="48.153542"/><use x="109.687436" xlink:href="#L" y="48.153542"/><use x="113.681046" xlink:href="#t" y="48.153542"/><use x="121.675287" xlink:href="#z" y="48.153542"/></g><use x="126.459201" xlink:href="#r" y="48.153542"/><g><use x="33.386306" xlink:href="#i" y="65.402572"/><use x="42.97378" xlink:href="#z" y="65.402572"/><use x="47.760498" xlink:href="#K" y="65.402572"/><use x="55.754738" xlink:href="#K" y="65.402572"/><use x="63.748979" xlink:href="#C" y="65.402572"/><use x="67.74259" xlink:href="#r" y="65.402572"/><use x="71.7362" xlink:href="#K" y="65.402572"/><use x="79.730441" xlink:href="#C" y="65.402572"/><use x="83.724052" xlink:href="#r" y="65.402572"/><use x="87.717663" xlink:href="#M" y="65.402572"/><use x="98.098243" xlink:href="#K" y="65.402572"/><use x="106.092484" xlink:href="#N" y="65.402572"/><use x="114.086724" xlink:href="#O" y="65.402572"/><use x="121.27382" xlink:href="#t" y="65.402572"/><use x="129.26806" xlink:href="#v" y="65.402572"/><use x="137.262301" xlink:href="#L" y="65.402572"/></g><use x="141.248893" xlink:href="#r" y="65.402572"/><g><use x="68.558157" xlink:href="#s" y="82.651602"/><use x="73.344875" xlink:href="#i" y="82.651602"/><use x="82.932348" xlink:href="#K" y="82.651602"/><use x="90.926589" xlink:href="#M" y="82.651602"/><use x="101.30717" xlink:href="#G" y="82.651602"/></g><g><use x="169.480704" xlink:href="#T" y="63.246444"/><use x="172.675593" xlink:href="#U" y="63.246444"/><use x="179.070985" xlink:href="#V" y="63.246444"/><use x="185.466378" xlink:href="#W" y="63.246444"/><use x="191.216054" xlink:href="#T" y="63.246444"/><use x="194.410943" xlink:href="#X" y="63.246444"/><use x="197.605832" xlink:href="#X" y="63.246444"/><use x="200.80072" xlink:href="#Y" y="63.246444"/><use x="206.550397" xlink:href="#Z" y="63.246444"/><use x="214.854862" xlink:href="#aa" y="63.246444"/><use x="222.524841" xlink:href="#ab" y="63.246444"/><use x="230.194819" xlink:href="#ac" y="63.246444"/></g><path d="m453.835938 40.246094c-.667969.675781-1.738282.777344-2.472657-.164063-.539062-.746093-.28125-1.636719.171875-2.0625 2.589844-2.6875 6.722656-4.597656 11.078125-4.554687 5.042969.078125 8.671875 2.246094 11 4.570312.742188.796875.519531 1.808594-.105469 2.304688-.753906.597656-1.667968.582031-2.328124-.136719-2.113282-2.097656-5.074219-3.476563-8.308594-3.5625-3.046875-.066406-6.324219.90625-9.035156 3.605469zm4.160156 4.472656c-.695313.632812-1.714844.546875-2.320313-.195312-.417969-.53125-.554687-1.394532.078125-2.078126 1.675782-1.78125 4.21875-2.851562 6.765625-2.851562 2.792969.035156 5.160157 1.222656 6.746094 3.003906.539063.769532.304687 1.574219-.199219 2.097656-.453125.503907-1.496094.734376-2.277344-.078124-1.085937-1.078126-2.609374-1.769532-4.292968-1.789063-1.730469.007813-3.328125.691406-4.5 1.890625zm34.679687 46.421875h-60.371093v-43h60.371093zm-23.496093 3.355469c.546874.660156.460937 1.457031.058593 1.976562-1.730469 1.996094-4.371093 2.9375-6.65625 2.9375-2.621093.007813-5.039062-1.019531-6.804687-2.785156-.566406-.628906-.675782-1.570312.113281-2.324219.691406-.59375 1.546875-.496093 2.144531.042969.992188 1.050781 2.578125 1.878906 4.511719 1.855469 2.085937-.027344 3.492187-1 4.476563-1.984375.410156-.324219 1.394531-.617188 2.15625.28125zm4.335937 6.425781c-2.683594 2.882813-6.691406 4.726563-10.96875 4.726563-4.066406 0-8.101563-1.523438-11.191406-4.75-.359375-.410157-.695313-1.371094.175781-2.210938.660156-.582031 1.613281-.578125 2.242188.113281 2.285156 2.257813 5.265624 3.578125 8.753906 3.601563 4.042968-.078125 6.867187-1.882813 8.652344-3.652344.523437-.507812 1.4375-.769531 2.242187-.015625.546875.570313.71875 1.4375.09375 2.1875zm0 0" fill="#5294cf"/><path d="m432.304688 88.546875h60.371093v2.59375h-60.371093zm0 0" fill-opacity=".302"/><path d="m492.675781 79.488281h-10.164062c-.601563 0-1.191407-.550781-1.191407-1.222656v-4.554687c-.675781-.273438-1.769531-1.179688-1.769531-2.746094 0-1.632813 1.292969-2.988282 3.046875-2.988282 1.339844 0 2.917969 1.121094 2.917969 2.988282 0 1.222656-.71875 2.273437-1.78125 2.753906v3.328125h8.941406zm-18.78125 6.226563c-.582031 0-1.183593-.539063-1.183593-1.230469v-10.765625c-.589844-.265625-1.703126-1.027344-1.777344-2.6875-.042969-1.230469.972656-3.113281 3.113281-3.046875 1.636719.078125 2.832031 1.40625 2.851563 2.972656-.011719 1.238281-.710938 2.285157-1.773438 2.738281v9.589844h17.550781v2.429688zm-4.167969-37.574219v8.988281h5.152344v-5.09375c0-.691406.519532-1.308594 1.308594-1.308594h12.679688c.78125 0 1.308593.617188 1.308593 1.285157v12.84375c0 .5625-.519531 1.257812-1.300781 1.257812h-12.714844c-.667968 0-1.28125-.523437-1.28125-1.277343v-5.277344h-12.488281c-.410156.941406-1.394531 1.785156-2.71875 1.777344-1.675781 0-2.980469-1.351563-2.980469-3.027344 0-1.542969 1.242188-2.953125 3.03125-2.953125 1.105469 0 2.25.71875 2.667969 1.773437h4.921875v-8.988281zm-17.621093 0h2.414062v18.304687l4.5 4.519532 2.132813-2.148438c-.308594-.832031-.332032-2.085937.625-3.140625 1.308594-1.328125 3.035156-1.054687 3.9375-.335937 1.511718 1.15625 1.53125 3.1875.425781 4.402344-1.007813 1.117187-2.402344 1.152343-3.269531.792968l-2.136719 2.15625 3.8125 3.835938c.960937-.367188 2.21875-.28125 3.167969.648437 1.488281 1.542969.898437 3.519531-.121094 4.390625-1.386719 1.179688-3.242188.898438-4.261719-.332031-.511719-.625-.9375-1.714844-.503906-2.945313l-10.421875-10.5c-.195312-.195312-.300781-.496093-.300781-.847656zm-15.933594 0h2.414063v8.988281h4.191406c.539062-1.164062 1.644531-1.789062 2.714844-1.789062 1.695312 0 2.984374 1.378906 2.984374 3.003906 0 1.488281-1.121093 3-3.070312 3-.8125 0-2.046875-.496094-2.628906-1.785156h-4.191406v9.640625l7.378906 7.4375c1.460937-.617188 3.421875 0 4.027344 1.960937.515624 2.042969-1.007813 3.882813-3.019532 3.796875-1.070312-.042969-2.335937-.757812-2.746094-2.214843-.148437-.582032-.113281-1.222657.066407-1.753907l-7.792969-7.839843c-.179688-.179688-.328125-.441407-.328125-.914063zm19.402344 40.40625v-8.75l-9.210938-9.242187c-1.402343.496093-2.746093-.078126-3.445312-1.078126-.960938-1.394531-.652344-3.253906.792969-4.253906 1.34375-.863281 3.015624-.511718 3.929687.609375.890625 1.128907.753906 2.359375.460937 3.042969l9.890626 9.875v9.796875zm-19.332031 0v-6.40625c-.789063-.328125-1.761719-1.328125-1.761719-2.6875 0-1.953125 1.566406-3.054687 2.933593-3.054687 1.636719 0 3.011719 1.273437 3.011719 3.003906 0 1.152344-.660156 2.242187-1.753906 2.738281v6.40625zm0 0" fill="#fff"/><g clip-path="url(#b)"><path d="m398.175781 124.335938h128.628907v1.4375h-128.628907zm0 0"/></g><g><use x="398.176344" xlink:href="#H" y="123.618049"/><use x="407.763818" xlink:href="#q" y="123.618049"/><use x="416.544147" xlink:href="#r" y="123.618049"/><use x="420.537758" xlink:href="#h" y="123.618049"/><use x="430.125231" xlink:href="#v" y="123.618049"/><use x="438.119472" xlink:href="#t" y="123.618049"/><use x="446.113712" xlink:href="#F" y="123.618049"/><use x="454.107952" xlink:href="#P" y="123.618049"/><use x="461.295048" xlink:href="#t" y="123.618049"/><use x="469.289288" xlink:href="#z" y="123.618049"/><use x="474.076007" xlink:href="#r" y="123.618049"/><use x="478.069617" xlink:href="#M" y="123.618049"/><use x="488.450198" xlink:href="#Q" y="123.618049"/><use x="496.444439" xlink:href="#A" y="123.618049"/><use x="499.637924" xlink:href="#v" y="123.618049"/><use x="507.632164" xlink:href="#u" y="123.618049"/><use x="514.81926" xlink:href="#t" y="123.618049"/><use x="522.8135" xlink:href="#L" y="123.618049"/></g><use x="526.8029" xlink:href="#r" y="123.618049"/><path d="m338.503906 73.09375-.011718 7.546875-13.636719-11.464844 13.679687-11.414062-.015625 7.546875 71.484375.128906.011719-8.402344 14.742187 12.320313-14.785156 12.269531.015625-8.402344zm0 0" fill="#dae8fc"/><path d="m338.855469 77.40625-.003907 2.15625-.71875-.003906.003907-2.152344zm-1.421875 2.8125-1.648438-1.386719.460938-.550781 1.652344 1.390625zm-3.300782-2.773438-1.648437-1.386718.460937-.550782 1.652344 1.386719zm-3.300781-2.773437-1.648437-1.390625.460937-.546875 1.652344 1.386719zm-3.300781-2.777344-1.648438-1.386719.460938-.550781 1.652344 1.386719zm-2.511719-3.324219 1.65625-1.382812.460938.554688-1.65625 1.378906zm3.3125-2.761718 1.65625-1.382813.460938.550781-1.65625 1.382813zm3.3125-2.765625 1.652344-1.378907.460937.550782-1.652343 1.382812zm3.308594-2.761719 1.65625-1.382812.460937.554687-1.65625 1.378906zm3.3125-2.761719.039063-.03125c.074218-.066406.164062-.09375.261718-.082031.097656.007812.179688.050781.242188.125.058594.066406.085937.144531.085937.230469l-.003906 2.109375-.71875-.003906.003906-2.105469h.359375l.230469.277343-.039063.03125zm.621094 4.507813-.003907 2.152344h-.71875l.003907-2.15625zm.660156 2.925781 2.15625.003906v.71875l-2.15625-.003906zm4.3125.007813 2.15625.003906v.71875l-2.15625-.003906zm4.3125.007812 2.15625.003906v.71875l-2.15625-.003906zm4.3125.007812 2.15625.003907v.71875l-2.15625-.003907zm4.3125.007813 2.15625.003906v.71875l-2.15625-.003906zm4.3125.007813 2.15625.003906v.71875l-2.15625-.003906zm4.3125.007812 2.15625.003906v.71875l-2.15625-.003906zm4.3125.007812 2.15625.003907-.003906.71875-2.152344-.003907zm4.3125.007813 2.15625.003906-.003906.71875-2.15625-.003906zm4.3125.007813 2.15625.003906-.003906.71875-2.15625-.003906zm4.3125.007812 2.15625.003906-.003906.71875-2.15625-.003906zm4.3125.007812 2.15625.003907-.003906.71875-2.15625-.003907zm4.3125.007813 2.152344.003906v.71875l-2.15625-.003906zm4.308594.007813 2.15625.003906v.71875l-2.15625-.003906zm4.3125.007812 2.15625.003906v.71875l-2.15625-.003906zm4.3125.007812 2.15625.003907v.71875l-2.15625-.003907zm4.3125.007813h1.460937v.359375h-.359375v-.695312h.71875v.695312c0 .101562-.039062.183594-.109375.253906-.070312.070313-.152344.105469-.253906.105469h-1.457031zm1.105469-2.492187.003906-2.15625h.71875l-.003906 2.15625zm.007812-4.3125v-1.238282c0-.097656.035156-.183594.105469-.253906.070312-.070312.15625-.105469.253906-.105469.089844 0 .164063.03125.230469.085938l.707031.589843-.460937.550782-.707032-.589844.230469-.277344.359375.003906v1.234376zm2.953125.460937 1.652344 1.382813-.460938.550781-1.652343-1.382813zm3.308594 2.765625 1.652343 1.382812-.460937.550782-1.652344-1.382813zm3.308593 2.765625 1.652344 1.382813-.460937.550781-1.652344-1.382813zm3.308594 2.765625 1.652344 1.378906-.460938.554688-1.652343-1.382813zm1.59375 3.3125-1.660156 1.378906-.457031-.554687 1.660156-1.378907zm-3.320312 2.753906-1.65625 1.378906-.460938-.554687 1.660156-1.378906zm-3.316406 2.753906-1.660157 1.375-.457031-.550781 1.65625-1.378906zm-3.320313 2.753907-1.65625 1.375-.460937-.550781 1.660156-1.378907zm-3.316406 2.753906-.652344.539063c-.078125.066406-.164063.09375-.261719.082031-.101562-.007813-.179687-.050781-.246094-.128907-.054687-.066406-.082031-.140624-.082031-.226562l.003907-1.308594h.71875l-.003907 1.308594h-.359375l-.230468-.277344.652343-.542968zm-1.234375-3.199219.003906-2.15625h.71875l-.003906 2.15625zm.007812-4.3125v-.625h.359375v.359375l-1.53125-.003906v-.71875l1.53125.003906c.097657 0 .183594.035157.253907.105469.070312.070312.105468.15625.105468.253906v.625zm-3.328125-.273437-2.15625-.003907v-.71875l2.15625.003907zm-4.3125-.007813-2.15625-.003906v-.71875l2.15625.003906zm-4.3125-.007812-2.15625-.003906v-.71875l2.15625.003906zm-4.3125-.007813-2.15625-.003906v-.71875l2.15625.003906zm-4.3125-.007812-2.15625-.003907v-.71875l2.15625.003907zm-4.3125-.007813-2.15625-.003906v-.71875l2.15625.003906zm-4.3125-.007812-2.15625-.003906v-.71875l2.15625.003906zm-4.3125-.007813-2.15625-.003906.003907-.71875 2.15625.003906zm-4.3125-.007812-2.15625-.003907.003907-.71875 2.15625.003907zm-4.3125-.007813-2.15625-.003906.003907-.71875 2.15625.003906zm-4.3125-.007812-2.15625-.003906.003907-.71875 2.15625.003906zm-4.3125-.007813-2.15625-.003906.003907-.71875 2.15625.003906zm-4.3125-.007812-2.152343-.003907v-.71875l2.15625.003907zm-4.308593-.007813-2.15625-.003906v-.71875l2.15625.003906zm-4.3125-.007812-2.15625-.003906v-.71875l2.15625.003906zm-4.3125-.007813-2.15625-.003906v-.71875l2.15625.003906zm-2.753907-.363281-.003906 2.15625h-.71875l.003906-2.15625zm0 0" fill="#6c8ebf"/><path d="m511.001559 132.610717 20.001124-15.620443-10.000562-7.190622v30.001687l10.000562-7.190622-20.001124-15.620443" fill="none" stroke="#0080f0" stroke-miterlimit="10" stroke-width="2" transform="scale(.71871)"/><path d="m721.002525 139.801367v-89.999626l-14.402984 26.996084h-7.201491v36.002024h7.201491zm-36.002024-36.002024h14.397549m-14.397549-18.001012h14.397549" fill="#f5f5f5" stroke="#666" stroke-miterlimit="10" transform="matrix(.71871 0 0 .71871 .359355 .359355)"/><path d="m706.599541 76.797825v36.002024" fill="none" stroke="#666" stroke-miterlimit="10" transform="matrix(.71871 0 0 .71871 .359355 .359355)"/><g fill="#909"><use x="388.597289" xlink:href="#ad" y="21.561288"/><use x="398.59009" xlink:href="#ae" y="21.561288"/><use x="408.58289" xlink:href="#af" y="21.561288"/><use x="414.566288" xlink:href="#ag" y="21.561288"/><use x="424.559088" xlink:href="#ah" y="21.561288"/><use x="435.5345" xlink:href="#af" y="21.561288"/><use x="441.517897" xlink:href="#ag" y="21.561288"/><use x="451.510698" xlink:href="#ai" y="21.561288"/><use x="462.486109" xlink:href="#af" y="21.561288"/><use x="468.469506" xlink:href="#ae" y="21.561288"/><use x="478.462307" xlink:href="#aj" y="21.561288"/><use x="484.445705" xlink:href="#af" y="21.561288"/><use x="490.429102" xlink:href="#ak" y="21.561288"/><use x="500.421903" xlink:href="#al" y="21.561288"/><use x="510.414703" xlink:href="#af" y="21.561288"/><use x="516.398101" xlink:href="#ae" y="21.561288"/><use x="526.390901" xlink:href="#ad" y="21.561288"/></g><g fill="#ff8000"><use x="198.610902" xlink:href="#am" y="21.561288"/><use x="210.595244" xlink:href="#ad" y="21.561288"/><use x="220.588045" xlink:href="#af" y="21.561288"/><use x="226.571442" xlink:href="#an" y="21.561288"/><use x="239.547168" xlink:href="#ao" y="21.561288"/><use x="249.539969" xlink:href="#af" y="21.561288"/><use x="255.523366" xlink:href="#am" y="21.561288"/><use x="267.507708" xlink:href="#ae" y="21.561288"/><use x="277.500509" xlink:href="#af" y="21.561288"/><use x="283.483907" xlink:href="#ap" y="21.561288"/><use x="293.476707" xlink:href="#aq" y="21.561288"/><use x="303.469507" xlink:href="#af" y="21.561288"/><use x="309.452905" xlink:href="#ar" y="21.561288"/><use x="322.428631" xlink:href="#al" y="21.561288"/><use x="332.421432" xlink:href="#af" y="21.561288"/><use x="338.404829" xlink:href="#as" y="21.561288"/><use x="348.39763" xlink:href="#aq" y="21.561288"/></g><g clip-path="url(#c)"><path d="m2.90046 4.699909c12.099562-6.400253-6.999908 3.399224 5.099655-3.001029.801467-.398195 1.800068-.297837 2.999037.401432l-5.099656 3.001029c-1.198968-.702506-2.300985-.802864-2.999036-.401432zm27.598895 62.998948-5.099655 3.001029c.801466-.401432 1.399335-1.498896 1.399335-3.001029l5.099655-2.997792c-.100183 1.498896-.597868 2.499239-1.399335 2.997792zm0 0" fill="none" stroke="#231f20" stroke-linejoin="round" stroke-width="3" transform="matrix(1.208721 0 0 1.206617 451.349621 220.805571)"/></g><g clip-path="url(#d)"><path d="m5.899496 5.101341 5.099656-3.001029 16.400983 9.699119-5.099656 3.001029zm20.799355 17.497909 5.099656-2.997791v45.099606l-5.099656 2.997792zm0 0" fill="none" stroke="#231f20" stroke-linejoin="round" stroke-width="3" transform="matrix(1.208721 0 0 1.206617 451.349621 220.805571)"/></g><g clip-path="url(#e)"><path d="m27.400135 11.799431c2.401168 1.401775 4.30142 5.001715 4.398372 7.899148l-5.099656 3.001029c0-2.900671-2.000435-6.400253-4.398372-7.899148" fill="none" stroke="#231f20" stroke-linecap="round" stroke-linejoin="round" stroke-width="3" transform="matrix(1.208721 0 0 1.206617 451.349621 220.805571)"/></g><g clip-path="url(#f)"><path d="m22.300479 14.80046c2.397937 1.398537 4.398372 4.998477 4.398372 7.899148v44.999249c0 2.900671-1.900251 4.10173-4.298188 2.599597l-16.501167-9.699119c-2.397936-1.398538-4.398371-4.998478-4.398371-7.899149v-44.999248c0-2.900671 1.900251-4.10173 4.398371-2.599597zm0 0" fill="none" stroke="#231f20" stroke-linejoin="round" stroke-width="3" transform="matrix(1.208721 0 0 1.206617 451.349621 220.805571)"/></g><path d="m463.992188 222.535156.050781-.027344c-.605469-.242187-1.089844-.363281-1.574219-.363281-.515625-.113281-1-.03125-1.449219.242188l-6.164062 3.621093c.484375-.242187.964843-.242187 1.449219-.242187.484374 0 .96875.121094 1.449218.359375l.726563.363281 6.164062-3.621093c-.222656-.109376-.347656-.222657-.652343-.332032zm0 0" fill="#606163"/><path d="m458.480469 226.476562 6.164062-3.621093 19.945313 11.707031-6.164063 3.617188zm0 0" fill="#808184"/><path d="m483.621094 247.59375 6.164062-3.621094.121094 54.417969-6.285156 3.621094zm0 0" fill="#231f20"/><path d="m489.785156 242.886719-.359375-1.570313-.039062.023438-.324219-.867188c0-.242187-.121094-.480468-.242188-.722656-.121093-.363281-.242187-.605469-.363281-.84375-.242187-.484375-.484375-.964844-.847656-1.449219-.238281-.242187-.359375-.484375-.601563-.722656-.242187-.242187-.363281-.484375-.605468-.726563-.242188-.238281-.605469-.601562-.964844-.84375-.253906-.242187-.539062-.441406-.847656-.601562l-6.164063 3.617188c.242188.121093.484375.363281.84375.605468.363281.242188.605469.601563.96875.84375.242188.242188.363281.484375.605469.722656.242188.242188.359375.484376.601562.726563.242188.480469.605469.964844.847657 1.445313.121093.242187.242187.484374.363281.847656.121094.238281.242188.480468.242188.722656.121093.242188.242187.601562.363281.964844h.023437l.324219 1.398437-.105469.0625c.121094.359375.121094.722657.121094 1.085938l6.164062-3.621094c0-.339844-.101562-.679687-.113281-1.019531l.113281-.066406zm0 0" fill="#231f20"/><path d="m478.425781 238.179688c2.898438 1.691406 5.316407 6.035156 5.316407 9.535156v54.296875c0 3.5-2.296876 4.945312-5.195313 3.136719l-20.066406-11.703126c-2.898438-1.691406-5.316407-6.035156-5.316407-9.535156v-54.296875c0-3.5 2.296876-4.945312 5.316407-3.136719zm0 0" fill="#6d6e70"/><path d="m483.621094 302.132812v-54.300781c0-3.257812-2.175782-7.117187-4.832032-8.6875l-19.945312-11.703125c-2.660156-1.566406-4.835938-.242187-4.835938 2.894532v54.300781c0 3.257812 2.175782 7.117187 4.835938 8.6875l19.945312 11.703125c2.65625 1.570312 4.832032.363281 4.832032-2.894532zm-4.953125-64.074218c3.140625 1.933594 5.679687 6.515625 5.679687 10.257812v54.296875c0 3.742188-2.539062 5.308594-5.679687 3.378907l-19.824219-11.582032c-3.144531-1.929687-5.679688-6.515625-5.679688-10.257812v-54.296875c0-3.742188 2.535157-5.308594 5.679688-3.378907zm0 0" fill="#c6c8c7"/><path d="m480.480469 294.289062-23.328125-14.238281v-45.007812l23.328125 14.238281zm0 0" fill="#a6a8ab"/><path d="m464.523438 242.523438 13.78125 8.207031.121093 11.101562s1.085938-6.636719-4.835937-11.585937z" fill="#c4cace"/><path d="m470.6875 295.738281c0 1.566407-1.207031 2.050781-2.777344 1.085938-1.453125-.847657-2.78125-2.898438-2.78125-4.34375 0-1.570313 1.207032-1.933594 2.78125-1.085938 1.570313.84375 2.777344 2.773438 2.777344 4.34375m.363281-55.746093-6.164062-3.621094v-1.449219l6.164062 3.621094zm0 0" fill="#404042"/><path d="m462.1875 148.054688h-7.546875l11.441406-13.65625 11.441407 13.65625h-7.542969v35.546874h8.398437l-12.296875 14.761719-12.296875-14.761719h8.402344zm0 0" fill="#dae8fc"/><path d="m457.875 148.414062h-2.15625v-.71875h2.15625zm-2.816406-1.417968 1.382812-1.652344.550782.460938-1.382813 1.652343zm2.769531-3.304688 1.382813-1.652344.550781.460938-1.382813 1.652344zm2.769531-3.304687 1.382813-1.652344.550781.460937-1.382812 1.652344zm2.769532-3.304688 1.382812-1.652343.550781.460937-1.382812 1.652344zm3.320312-2.523437 1.382812 1.652344-.550781.464843-1.382812-1.652343zm2.769531 3.308594 1.382813 1.652343-.550782.460938-1.382812-1.652344zm2.769531 3.304687 1.382813 1.652344-.550781.460937-1.382813-1.652344zm2.769532 3.304687 1.382812 1.652344-.550781.460938-1.382813-1.652344zm2.769531 3.304688.035156.042969c.0625.074219.089844.164062.082031.261719-.007812.097656-.050781.179687-.128906.242187-.066406.058594-.140625.085937-.230468.085937h-2.101563v-.71875h2.101563v.359376l-.273438.230468-.035156-.042968zm-4.5.632812h-2.15625v-.71875h2.15625zm-2.925781.664063v2.15625h-.71875v-2.15625zm0 4.3125v2.15625h-.71875v-2.15625zm0 4.3125v2.15625h-.71875v-2.15625zm0 4.3125v2.15625h-.71875v-2.15625zm0 4.3125v2.15625h-.71875v-2.15625zm0 4.3125v2.15625h-.71875v-2.15625zm0 4.308594v2.15625h-.71875v-2.15625zm0 4.3125v2.15625h-.71875v-2.15625zm0 4.3125v.027343h-.359375v-.359374h2.128906v.71875h-2.128906c-.101563 0-.1875-.035157-.257813-.105469-.070312-.070313-.101562-.15625-.101562-.253907v-.027343zm3.925781-.332031h2.15625v.71875h-2.15625zm4.265625.742187-1.382812 1.65625-.550782-.460937 1.378906-1.65625zm-2.761719 3.3125-1.378906 1.65625-.550781-.460937 1.378906-1.65625zm-2.757812 3.3125-1.382813 1.65625-.550781-.460937 1.378906-1.65625zm-2.761719 3.3125-1.378906 1.65625-.554688-.457031 1.382813-1.660156zm-2.757812 3.3125-1.132813 1.359375c-.0625.078125-.144531.117188-.242187.128906-.101563.007813-.1875-.019531-.265626-.082031-.015624-.015625-.03125-.03125-.042968-.046875l-.25-.296875.550781-.460937.25.296874-.277344.230469-.273437-.230469 1.128906-1.355468zm-3.3125-.597656-1.382813-1.65625.554687-.457031 1.378907 1.65625zm-2.761719-3.3125-1.378907-1.65625.550782-.460938 1.378906 1.65625zm-2.761719-3.3125-1.378906-1.65625.554687-.460938 1.378907 1.65625zm-2.757812-3.3125-1.378907-1.65625.550781-.460938 1.378907 1.65625zm-1.53125-3.457031h2.15625v.71875h-2.15625zm4.3125 0h2.15625v.71875h-2.15625zm3.148437-.445313v-2.15625h.71875v2.15625zm0-4.3125v-2.15625h.71875v2.15625zm0-4.3125v-2.15625h.71875v2.15625zm0-4.3125v-2.15625h.71875v2.15625zm0-4.3125v-2.152344h.71875v2.152344zm0-4.308594v-2.15625h.71875v2.15625zm0-4.3125v-2.15625h.71875v2.15625zm0-4.3125v-2.15625h.71875v2.15625zm0-4.3125v-.246093h.359375v.359374h-2.15625v-.71875h2.15625c.097656 0 .183594.035157.253906.105469.070313.070313.105469.152344.105469.253907v.246093zm0 0" fill="#6c8ebf"/><path d="m664.999348 238.812341 20.001125-15.620444-10.000563-7.190621v29.996252l10.000563-7.185187-20.001125-15.620444" fill="none" stroke="#0080f0" stroke-miterlimit="10" stroke-width="2" transform="scale(.71871)"/><g fill="#ff8000"><use x="391.943781" xlink:href="#am" y="215.612876"/><use x="403.928123" xlink:href="#ad" y="215.612876"/><use x="413.920923" xlink:href="#af" y="215.612876"/><use x="419.904321" xlink:href="#an" y="215.612876"/><use x="432.880047" xlink:href="#ao" y="215.612876"/><use x="442.872847" xlink:href="#af" y="215.612876"/><use x="448.856245" xlink:href="#am" y="215.612876"/><use x="460.840587" xlink:href="#ae" y="215.612876"/><use x="470.833388" xlink:href="#af" y="215.612876"/><use x="476.816785" xlink:href="#ap" y="215.612876"/><use x="486.809586" xlink:href="#aq" y="215.612876"/><use x="496.802386" xlink:href="#af" y="215.612876"/><use x="502.785784" xlink:href="#ar" y="215.612876"/><use x="515.76151" xlink:href="#al" y="215.612876"/><use x="525.75431" xlink:href="#af" y="215.612876"/><use x="531.737708" xlink:href="#as" y="215.612876"/><use x="541.730508" xlink:href="#aq" y="215.612876"/></g><g><use x="449.54162" xlink:href="#R" y="319.825766"/><use x="459.922201" xlink:href="#t" y="319.825766"/><use x="467.916441" xlink:href="#B" y="319.825766"/><use x="475.103537" xlink:href="#A" y="319.825766"/><use x="478.297022" xlink:href="#O" y="319.825766"/><use x="485.484118" xlink:href="#t" y="319.825766"/><use x="493.478358" xlink:href="#r" y="319.825766"/><use x="497.471969" xlink:href="#S" y="319.825766"/></g><use x="507.049613" xlink:href="#r" y="319.825766"/><g><use x="434.35888" xlink:href="#s" y="337.074796"/><use x="439.145598" xlink:href="#h" y="337.074796"/><use x="448.733072" xlink:href="#D" y="337.074796"/><use x="460.706886" xlink:href="#F" y="337.074796"/><use x="468.701126" xlink:href="#z" y="337.074796"/><use x="473.487844" xlink:href="#L" y="337.074796"/><use x="477.481455" xlink:href="#v" y="337.074796"/><use x="485.475695" xlink:href="#Q" y="337.074796"/><use x="493.469936" xlink:href="#K" y="337.074796"/><use x="501.464176" xlink:href="#N" y="337.074796"/><use x="509.458416" xlink:href="#t" y="337.074796"/><use x="517.452657" xlink:href="#G" y="337.074796"/></g></svg>