<svg height="114.959999pt" viewBox="0 0 172.08 114.959999" width="172.08pt" xmlns="http://www.w3.org/2000/svg" xmlns:xlink="http://www.w3.org/1999/xlink"><clipPath id="a"><path d="m0 0h172v114.667969h-172zm0 0"/></clipPath><clipPath id="b"><path d="m136 4h36v48h-36zm0 0"/></clipPath><clipPath id="c"><path d="m93 70h47v42.515625h-47zm0 0"/></clipPath><symbol id="d" overflow="visible"><path d="m.640625 0v-6.15625h1.21875l1.453125 4.359375c.132812.40625.234375.710937.296875.90625.070313-.21875.179687-.546875.328125-.984375l1.46875-4.28125h1.109375v6.15625h-.796875v-5.15625l-1.78125 5.15625h-.734375l-1.78125-5.234375v5.234375zm0 0"/></symbol><symbol id="e" overflow="visible"><path d="m3.46875-.546875c-.273438.242187-.539062.40625-.796875.5-.261719.09375-.542969.140625-.84375.140625-.492187 0-.867187-.1132812-1.125-.34375-.261719-.238281-.390625-.546875-.390625-.921875 0-.21875.046875-.414063.140625-.59375.101563-.1875.234375-.332031.390625-.4375.164062-.113281.347656-.195313.546875-.25.144531-.039063.367187-.078125.671875-.109375.613281-.070312 1.0625-.160156 1.34375-.265625.007812-.101563.015625-.171875.015625-.203125 0-.300781-.074219-.515625-.21875-.640625-.199219-.175781-.484375-.265625-.859375-.265625-.355469 0-.621094.0625-.796875.1875-.167969.125-.292969.351562-.375.671875l-.734375-.109375c.070312-.3125.179688-.566406.328125-.765625.15625-.195313.378906-.347656.671875-.453125.289062-.101562.628906-.15625 1.015625-.15625.375 0 .679687.046875.921875.140625.238281.09375.410156.210937.515625.34375.113281.136719.195313.304687.25.5.019531.136719.03125.371094.03125.703125v1c0 .710938.015625 1.15625.046875 1.34375s.097656.367188.203125.53125h-.796875c-.074219-.15625-.125-.335938-.15625-.546875zm-.0625-1.6875c-.273438.117187-.683594.210937-1.234375.28125-.304687.042969-.523437.09375-.65625.15625-.125.054687-.226563.136719-.296875.25-.074219.105469-.109375.21875-.109375.34375 0 .210937.078125.382813.234375.515625.15625.136719.378906.203125.671875.203125.289063 0 .546875-.0625.765625-.1875.226562-.132813.398438-.3125.515625-.53125.070313-.164063.109375-.414063.109375-.75zm0 0"/></symbol><symbol id="f" overflow="visible"><path d="m.265625-1.328125.75-.125c.039063.304687.15625.539063.34375.703125.195313.15625.46875.234375.8125.234375s.597656-.066406.765625-.203125c.164062-.144531.25-.316406.25-.515625 0-.164063-.074219-.296875-.21875-.390625-.105469-.070312-.367188-.160156-.78125-.265625-.554688-.132813-.9375-.253906-1.15625-.359375-.210938-.101562-.371094-.242188-.484375-.421875-.105469-.1875-.15625-.382813-.15625-.59375 0-.207031.039063-.394531.125-.5625.09375-.164063.21875-.304687.375-.421875.125-.082031.285156-.15625.484375-.21875.207031-.0625.425781-.09375.65625-.09375.351562 0 .660156.054688.921875.15625.257813.105469.453125.246094.578125.421875.125.167969.210938.390625.265625.671875l-.734375.109375c-.03125-.226563-.132812-.40625-.296875-.53125-.15625-.132813-.386719-.203125-.6875-.203125-.34375 0-.589844.058594-.734375.171875-.148438.117187-.21875.25-.21875.40625 0 .09375.03125.183594.09375.265625.0625.085938.15625.152344.28125.203125.070312.023437.296875.085937.671875.1875.53125.148437.898437.265625 1.109375.359375.21875.085938.382812.214844.5.390625.125.179687.1875.390625.1875.640625s-.074219.492188-.21875.71875c-.148438.21875-.359375.390625-.640625.515625-.28125.1132812-.59375.171875-.9375.171875-.585937 0-1.027344-.1171875-1.328125-.359375-.304688-.238281-.496094-.59375-.578125-1.0625zm0 0"/></symbol><symbol id="g" overflow="visible"><path d="m2.21875-.671875.109375.65625c-.21875.0507812-.414063.078125-.578125.078125-.273438 0-.484375-.0429688-.640625-.125-.148437-.09375-.25-.207031-.3125-.34375-.0625-.144531-.09375-.445312-.09375-.90625v-2.5625h-.546875v-.578125h.546875v-1.109375l.75-.453125v1.5625h.765625v.578125h-.765625v2.609375c0 .21875.007813.359375.03125.421875.03125.0625.078125.117188.140625.15625.0625.03125.148438.046875.265625.046875.082031 0 .191406-.007813.328125-.03125zm0 0"/></symbol><symbol id="h" overflow="visible"><path d="m3.609375-1.4375.78125.09375c-.117187.460938-.339844.8125-.671875 1.0625-.335938.25-.761719.375-1.28125.375-.65625 0-1.179688-.195312-1.5625-.59375-.375-.40625-.5625-.96875-.5625-1.6875 0-.75.191406-1.332031.578125-1.75.382813-.414062.882813-.625 1.5-.625.601563 0 1.09375.203125 1.46875.609375s.5625.980469.5625 1.71875v.203125h-3.328125c.03125.492188.171875.867188.421875 1.125.25.261719.554687.390625.921875.390625.28125 0 .515625-.070313.703125-.21875.195313-.144531.351563-.378906.46875-.703125zm-2.46875-1.21875h2.484375c-.03125-.375-.125-.65625-.28125-.84375-.242188-.289062-.554688-.4375-.9375-.4375-.34375 0-.636719.121094-.875.359375-.242188.230469-.371094.539063-.390625.921875zm0 0"/></symbol><symbol id="i" overflow="visible"><path d="m.5625 0v-4.453125h.671875v.671875c.175781-.3125.335937-.519531.484375-.625.144531-.101562.304688-.15625.484375-.15625.25 0 .507813.085938.78125.25l-.265625.703125c-.1875-.113281-.371094-.171875-.546875-.171875-.167969 0-.320313.054688-.453125.15625-.136719.09375-.230469.230469-.28125.40625-.085938.273438-.125.570312-.125.890625v2.328125zm0 0"/></symbol><symbol id="j" overflow="visible"/><symbol id="k" overflow="visible"><path d="m2.015625 1.8125c-.417969-.53125-.773437-1.148438-1.0625-1.84375-.292969-.707031-.4375-1.441406-.4375-2.203125 0-.664063.109375-1.300781.328125-1.90625.25-.707031.640625-1.410156 1.171875-2.109375h.53125c-.335937.574219-.558594.984375-.671875 1.234375-.167969.386719-.296875.792969-.390625 1.21875-.125.523437-.1875 1.046875-.1875 1.578125 0 1.34375.414063 2.6875 1.25 4.03125zm0 0"/></symbol><symbol id="l" overflow="visible"><path d="m-.015625 0 2.359375-6.15625h.890625l2.515625 6.15625h-.9375l-.71875-1.859375h-2.5625l-.671875 1.859375zm1.78125-2.53125h2.078125l-.640625-1.703125c-.199219-.507813-.34375-.929687-.4375-1.265625-.074219.398438-.183594.789062-.328125 1.171875zm0 0"/></symbol><symbol id="m" overflow="visible"><path d="m3.46875-1.625.75.09375c-.085938.511719-.292969.914062-.625 1.203125-.335938.28125-.746094.421875-1.234375.421875-.605469 0-1.09375-.195312-1.46875-.59375-.375-.394531-.5625-.96875-.5625-1.71875 0-.476562.078125-.894531.234375-1.25.164062-.363281.410156-.632812.734375-.8125.332031-.1875.6875-.28125 1.0625-.28125.488281 0 .882813.125 1.1875.375.3125.242188.507813.589844.59375 1.046875l-.734375.109375c-.0625-.300781-.183594-.523438-.359375-.671875-.179687-.15625-.398437-.234375-.65625-.234375-.375 0-.683594.136719-.921875.40625-.242188.273438-.359375.703125-.359375 1.296875 0 .605469.113281 1.042969.34375 1.3125.226563.273437.53125.40625.90625.40625.289063 0 .535156-.085937.734375-.265625.195312-.1875.320312-.46875.375-.84375zm0 0"/></symbol><symbol id="n" overflow="visible"><path d="m.578125 0v-6.15625h.75v3.515625l1.78125-1.8125h.984375l-1.703125 1.65625 1.875 2.796875h-.9375l-1.46875-2.28125-.53125.515625v1.765625zm0 0"/></symbol><symbol id="o" overflow="visible"><path d="m1.0625 1.8125h-.546875c.84375-1.34375 1.265625-2.6875 1.265625-4.03125 0-.53125-.0625-1.054688-.1875-1.578125-.09375-.414063-.226562-.816406-.390625-1.203125-.117187-.25-.34375-.664062-.6875-1.25h.546875c.519531.699219.910156 1.402344 1.171875 2.109375.207031.605469.3125 1.242187.3125 1.90625 0 .761719-.148437 1.496094-.4375 2.203125-.28125.695312-.632813 1.3125-1.046875 1.84375zm0 0"/></symbol><symbol id="p" overflow="visible"><path d="m.390625-1.96875.765625-.078125c.03125.3125.113281.570313.25.765625.132812.199219.34375.359375.625.484375.28125.117187.59375.171875.9375.171875.3125 0 .585938-.046875.828125-.140625.238281-.09375.414063-.21875.53125-.375.113281-.164063.171875-.34375.171875-.53125s-.058594-.351563-.171875-.5c-.117187-.144531-.296875-.265625-.546875-.359375-.167969-.070312-.539062-.175781-1.109375-.3125-.5625-.132812-.953125-.257812-1.171875-.375-.304688-.15625-.527344-.347656-.671875-.578125-.136719-.226563-.203125-.484375-.203125-.765625 0-.3125.085938-.601562.265625-.875.175781-.269531.429687-.472656.765625-.609375.34375-.132813.71875-.203125 1.125-.203125.457031 0 .859375.074219 1.203125.21875.351563.148438.625.367188.8125.65625.1875.28125.285156.601562.296875.953125l-.78125.0625c-.042969-.382813-.183594-.675781-.421875-.875-.242187-.195313-.601563-.296875-1.078125-.296875-.492188 0-.851562.089844-1.078125.265625-.21875.179687-.328125.398437-.328125.65625 0 .21875.078125.402344.234375.546875.15625.136719.5625.28125 1.21875.4375.664063.148438 1.125.277344 1.375.390625.351563.167969.613281.375.78125.625.175781.25.265625.542969.265625.875 0 .324219-.09375.632813-.28125.921875-.1875.292969-.460938.523438-.8125.6875-.34375.15625-.734375.234375-1.171875.234375-.5625 0-1.03125-.078125-1.40625-.234375-.375-.164062-.671875-.410156-.890625-.734375-.210938-.332031-.320312-.703125-.328125-1.109375zm0 0"/></symbol><symbol id="q" overflow="visible"><path d="m.546875 0v-6.15625h.765625v6.15625zm0 0"/></symbol><symbol id="r" overflow="visible"><path d="m1.796875 0-1.6875-4.453125h.796875l.953125 2.671875c.101563.28125.203125.578125.296875.890625.0625-.226563.148438-.507813.265625-.84375l1-2.71875h.78125l-1.6875 4.453125zm0 0"/></symbol><symbol id="s" overflow="visible"><path d="m.625 0v-6.15625h.8125v5.4375h3.03125v.71875zm0 0"/></symbol><symbol id="t" overflow="visible"><path d="m.65625 0v-6.15625h2.328125c.40625 0 .71875.023438.9375.0625.300781.054688.550781.152344.75.296875.207031.136719.375.335937.5.59375.125.25.1875.527344.1875.828125 0 .523438-.167969.964844-.5 1.328125-.335937.367187-.933594.546875-1.796875.546875h-1.578125v2.5zm.828125-3.234375h1.578125c.53125 0 .90625-.09375 1.125-.28125.21875-.195313.328125-.472656.328125-.828125 0-.257812-.070313-.476562-.203125-.65625-.125-.1875-.292969-.3125-.5-.375-.136719-.03125-.390625-.046875-.765625-.046875h-1.5625zm0 0"/></symbol><symbol id="u" overflow="visible"><path d="m.796875 0v-6.15625h.8125v6.15625zm0 0"/></symbol><symbol id="v" overflow="visible"><path d="m.5625 0v-4.453125h.6875v.625c.320312-.488281.796875-.734375 1.421875-.734375.257813 0 .503906.054688.734375.15625.226562.09375.394531.21875.5.375.113281.15625.191406.34375.234375.5625.03125.136719.046875.382812.046875.734375v2.734375h-.75v-2.703125c0-.3125-.03125-.539063-.09375-.6875-.0625-.15625-.167969-.28125-.3125-.375-.148438-.09375-.324219-.140625-.53125-.140625-.324219 0-.601562.105469-.828125.3125-.230469.199219-.34375.585938-.34375 1.15625v2.4375zm0 0"/></symbol><symbol id="w" overflow="visible"><path d="m.75 0v-3.875h-.671875v-.578125h.671875v-.484375c0-.289062.023438-.507812.078125-.65625.070313-.195312.195313-.351562.375-.46875.1875-.125.445313-.1875.78125-.1875.207031 0 .441406.023438.703125.0625l-.109375.671875c-.15625-.03125-.308594-.046875-.453125-.046875-.230469 0-.390625.054688-.484375.15625-.09375.09375-.140625.273438-.140625.53125v.421875h.859375v.578125h-.859375v3.875zm0 0"/></symbol><symbol id="x" overflow="visible"><path d="m.28125-2.234375c0-.820313.226562-1.429687.6875-1.828125.382812-.332031.851562-.5 1.40625-.5.613281 0 1.113281.203125 1.5.609375.382812.398437.578125.949219.578125 1.65625 0 .574219-.089844 1.027344-.265625 1.359375-.167969.335938-.417969.589844-.75.765625-.324219.17578125-.679688.265625-1.0625.265625-.625 0-1.132812-.195312-1.515625-.59375-.386719-.394531-.578125-.972656-.578125-1.734375zm.78125 0c0 .574219.125 1.007813.375 1.296875.25.28125.5625.421875.9375.421875s.6875-.140625.9375-.421875c.25-.289062.375-.726562.375-1.3125 0-.550781-.125-.96875-.375-1.25-.25-.289062-.5625-.4375-.9375-.4375s-.6875.148438-.9375.4375c-.25.28125-.375.703125-.375 1.265625zm0 0"/></symbol><symbol id="y" overflow="visible"><path d="m.5625 0v-4.453125h.671875v.625c.144531-.21875.332031-.394531.5625-.53125.238281-.132813.503906-.203125.796875-.203125.332031 0 .601562.074219.8125.21875.207031.136719.359375.324219.453125.5625.34375-.519531.800781-.78125 1.375-.78125.4375 0 .773437.125 1.015625.375.238281.242188.359375.617188.359375 1.125v3.0625h-.75v-2.8125c0-.300781-.027344-.515625-.078125-.640625-.054688-.132813-.140625-.242187-.265625-.328125-.125-.082031-.277344-.125-.453125-.125-.3125 0-.574219.105469-.78125.3125-.210938.210938-.3125.542969-.3125 1v2.59375h-.75v-2.890625c0-.34375-.0625-.597656-.1875-.765625-.125-.164062-.328125-.25-.609375-.25-.210937 0-.40625.058594-.59375.171875-.179687.117187-.308594.28125-.390625.5-.074219.210937-.109375.515625-.109375.921875v2.3125zm0 0"/></symbol><symbol id="z" overflow="visible"><path d="m.578125-5.28125v-.875h.75v.875zm0 5.28125v-4.453125h.75v4.453125zm0 0"/></symbol><symbol id="A" overflow="visible"><path d="m.671875 0v-6.15625h2.734375c.539062 0 .953125.058594 1.234375.171875.289063.117187.519531.3125.6875.59375.175781.273437.265625.578125.265625.921875 0 .4375-.140625.808594-.421875 1.109375-.28125.292969-.71875.480469-1.3125.5625.21875.105469.378906.203125.484375.296875.238281.21875.46875.496094.6875.828125l1.0625 1.671875h-1.015625l-.8125-1.28125c-.242187-.363281-.4375-.644531-.59375-.84375-.15625-.195312-.296875-.332031-.421875-.40625-.117188-.082031-.234375-.140625-.359375-.171875-.09375-.019531-.246094-.03125-.453125-.03125h-.953125v2.734375zm.8125-3.4375h1.75c.375 0 .664063-.035156.875-.109375.207031-.082031.363281-.207031.46875-.375.113281-.164063.171875-.347656.171875-.546875 0-.289062-.105469-.53125-.3125-.71875-.210938-.1875-.542969-.28125-1-.28125h-1.953125zm0 0"/></symbol><symbol id="B" overflow="visible"><path d="m3.40625 1.703125v-2.171875c-.117188.15625-.28125.292969-.5.40625-.210938.1015625-.433594.15625-.671875.15625-.523437 0-.976563-.207031-1.359375-.625-.386719-.425781-.578125-1.003906-.578125-1.734375 0-.445313.078125-.847656.234375-1.203125.15625-.351562.378906-.625.671875-.8125.300781-.1875.628906-.28125.984375-.28125.550781 0 .984375.234375 1.296875.703125v-.59375h.671875v6.15625zm-2.328125-3.9375c0 .574219.117187 1.007813.359375 1.296875.238281.28125.523438.421875.859375.421875.320313 0 .597656-.132813.828125-.40625.238281-.28125.359375-.695313.359375-1.25 0-.59375-.125-1.039063-.375-1.34375-.242187-.300781-.527344-.453125-.859375-.453125-.324219 0-.601562.140625-.828125.421875-.230469.28125-.34375.71875-.34375 1.3125zm0 0"/></symbol><symbol id="C" overflow="visible"><path d="m3.484375 0v-.65625c-.34375.5-.8125.75-1.40625.75-.273437 0-.523437-.046875-.75-.140625-.21875-.101563-.386719-.226563-.5-.375-.117187-.15625-.195313-.34375-.234375-.5625-.03125-.15625-.046875-.390625-.046875-.703125v-2.765625h.765625v2.46875c0 .398437.007812.664063.03125.796875.050781.199219.15625.355469.3125.46875.15625.117188.34375.171875.5625.171875.226562 0 .441406-.054687.640625-.171875.195313-.113281.335937-.269531.421875-.46875.082031-.207031.125-.5.125-.875v-2.390625h.75v4.453125zm0 0"/></symbol><symbol id="D" overflow="visible"><path d="m-.125 1.703125v-.546875h5v.546875zm0 0"/></symbol><symbol id="E" overflow="visible"><path d="m.5625 0v-6.15625h.765625v2.21875c.34375-.414062.785156-.625 1.328125-.625.332031 0 .617188.070312.859375.203125.238281.125.410156.304687.515625.53125.113281.230469.171875.5625.171875 1v2.828125h-.765625v-2.828125c0-.375-.085938-.644531-.25-.8125-.15625-.175781-.386719-.265625-.6875-.265625-.21875 0-.429688.058594-.625.171875-.199219.117187-.339844.273437-.421875.46875-.085937.199219-.125.476563-.125.828125v2.4375zm0 0"/></symbol><symbol id="F" overflow="visible"><path d="m.5625 1.703125v-6.15625h.6875v.578125c.164062-.226562.347656-.398438.546875-.515625.207031-.113281.457031-.171875.75-.171875.382813 0 .71875.101562 1 .296875.289063.199219.507813.476563.65625.828125.15625.355469.234375.746094.234375 1.171875 0 .460937-.085938.871094-.25 1.234375-.167969.367188-.40625.648438-.71875.84375-.304688.1875-.625.28125-.96875.28125-.261719 0-.492188-.0546875-.6875-.15625-.199219-.101562-.359375-.238281-.484375-.40625v2.171875zm.6875-3.90625c0 .574219.113281 1 .34375 1.28125.238281.273437.519531.40625.84375.40625.34375 0 .628906-.140625.859375-.421875.238281-.289062.359375-.734375.359375-1.328125 0-.570313-.117188-1-.34375-1.28125-.230469-.28125-.511719-.421875-.84375-.421875-.3125 0-.59375.152344-.84375.453125-.25.304687-.375.742187-.375 1.3125zm0 0"/></symbol><symbol id="G" overflow="visible"><path d="m3.453125 0v-.5625c-.28125.4375-.695313.65625-1.234375.65625-.367188 0-.699219-.09375-1-.28125-.292969-.195312-.523438-.472656-.6875-.828125-.15625-.351563-.234375-.753906-.234375-1.203125 0-.445312.070313-.851562.21875-1.21875.144531-.363281.363281-.640625.65625-.828125.300781-.195313.632813-.296875 1-.296875.269531 0 .507813.058594.71875.171875.207031.117187.378906.265625.515625.453125v-2.21875h.75v6.15625zm-2.390625-2.21875c0 .5625.117188.992188.359375 1.28125.25.28125.535156.421875.859375.421875.332031 0 .613281-.132813.84375-.40625.226562-.269531.34375-.679687.34375-1.234375 0-.613281-.121094-1.0625-.359375-1.34375-.230469-.289062-.515625-.4375-.859375-.4375-.335938 0-.617188.140625-.84375.421875-.230469.273437-.34375.703125-.34375 1.296875zm0 0"/></symbol><symbol id="H" overflow="visible"><path d="m.515625 0v-5.140625h1.671875c.625 0 1.035156.027344 1.234375.078125.289063.085938.535156.257812.734375.515625.195312.25.296875.585937.296875 1 0 .3125-.058594.578125-.171875.796875-.117188.210938-.261719.375-.4375.5-.179688.125-.355469.203125-.53125.234375-.25.054687-.609375.078125-1.078125.078125h-.671875v1.9375zm1.046875-4.265625v1.453125h.5625c.40625 0 .675781-.023438.8125-.078125.144531-.050781.253906-.132813.328125-.25.082031-.113281.125-.25.125-.40625 0-.1875-.058594-.335937-.171875-.453125-.105469-.125-.242188-.203125-.40625-.234375-.125-.019531-.375-.03125-.75-.03125zm0 0"/></symbol><symbol id="I" overflow="visible"><path d="m1.25-2.578125-.890625-.171875c.09375-.351562.265625-.613281.515625-.78125.25-.175781.613281-.265625 1.09375-.265625.4375 0 .757812.054687.96875.15625.21875.105469.367188.234375.453125.390625.09375.15625.140625.449219.140625.875l-.015625 1.15625c0 .324219.015625.5625.046875.71875.039062.15625.101562.324219.1875.5h-.96875c-.03125-.0625-.070312-.160156-.109375-.296875-.011719-.050781-.023437-.085937-.03125-.109375-.167969.167969-.351563.292969-.546875.375-.1875.0703125-.390625.109375-.609375.109375-.375 0-.679687-.1015625-.90625-.3125-.21875-.207031-.328125-.46875-.328125-.78125 0-.207031.050781-.394531.15625-.5625.101562-.164063.242188-.289063.421875-.375.175781-.09375.4375-.171875.78125-.234375.457031-.082031.773437-.160156.953125-.234375v-.109375c0-.1875-.046875-.316406-.140625-.390625-.09375-.082031-.273437-.125-.53125-.125-.167969 0-.304687.039063-.40625.109375-.09375.0625-.171875.183594-.234375.359375zm1.3125.796875c-.125.042969-.324219.09375-.59375.15625-.273438.054688-.449219.105469-.53125.15625-.136719.09375-.203125.214844-.203125.359375 0 .136719.050781.257813.15625.359375.101563.09375.234375.140625.390625.140625.175781 0 .347656-.054687.515625-.171875.113281-.09375.191406-.203125.234375-.328125.019531-.082031.03125-.242187.03125-.484375zm0 0"/></symbol><symbol id="J" overflow="visible"><path d="m.421875.25 1.125.125c.019531.132812.0625.226562.125.28125.09375.0625.242187.09375.453125.09375.25 0 .441406-.039062.578125-.109375.082031-.054687.144531-.136719.1875-.25.03125-.085937.046875-.234375.046875-.453125v-.546875c-.292969.40625-.664062.609375-1.109375.609375-.5 0-.898437-.210938-1.1875-.640625-.230469-.332031-.34375-.742187-.34375-1.234375 0-.625.144531-1.097656.4375-1.421875.300781-.332031.675781-.5 1.125-.5.457031 0 .835937.199219 1.140625.59375v-.515625h.921875v3.34375c0 .4375-.039063.757812-.109375.96875-.074219.21875-.179688.390625-.3125.515625-.125.125-.296875.222656-.515625.296875-.21875.070312-.496094.109375-.828125.109375-.625 0-1.074219-.109375-1.34375-.328125-.261719-.21875-.390625-.496094-.390625-.828125 0-.03125 0-.070313 0-.109375zm.875-2.1875c0 .398438.078125.6875.234375.875.15625.179688.34375.265625.5625.265625.238281 0 .441406-.09375.609375-.28125.164063-.1875.25-.460937.25-.828125 0-.382812-.078125-.671875-.234375-.859375s-.359375-.28125-.609375-.28125c-.230469 0-.421875.09375-.578125.28125-.15625.179687-.234375.453125-.234375.828125zm0 0"/></symbol><symbol id="K" overflow="visible"><path d="m.515625-4.21875v-.921875h.984375v.921875zm0 4.21875v-3.71875h.984375v3.71875zm0 0"/></symbol><symbol id="L" overflow="visible"><path d="m3.890625 0h-.984375v-1.890625c0-.40625-.023438-.664063-.0625-.78125-.042969-.125-.109375-.21875-.203125-.28125s-.210937-.09375-.34375-.09375c-.167969 0-.320313.046875-.453125.140625-.136719.09375-.230469.21875-.28125.375-.054688.148438-.078125.429688-.078125.84375v1.6875h-.984375v-3.71875h.921875v.546875c.320313-.414063.726563-.625 1.21875-.625.21875 0 .414063.042969.59375.125.1875.074219.320313.171875.40625.296875.09375.117188.15625.25.1875.40625.039063.15625.0625.375.0625.65625zm0 0"/></symbol><symbol id="M" overflow="visible"/><symbol id="N" overflow="visible"><path d="m.265625-1.671875 1-.09375c.0625.335937.1875.585937.375.75.1875.15625.4375.234375.75.234375.332031 0 .582031-.066406.75-.203125.164063-.144531.25-.3125.25-.5 0-.125-.039063-.226563-.109375-.3125-.0625-.082031-.183594-.160156-.359375-.234375-.125-.039062-.402344-.113281-.828125-.21875-.5625-.132812-.953125-.300781-1.171875-.5-.324219-.289062-.484375-.632812-.484375-1.03125 0-.269531.070312-.515625.21875-.734375.15625-.226563.367188-.398437.640625-.515625.28125-.125.617187-.1875 1.015625-.1875.644531 0 1.128906.140625 1.453125.421875.332031.28125.503906.65625.515625 1.125l-1.03125.046875c-.042969-.257812-.136719-.445312-.28125-.5625-.148438-.113281-.367188-.171875-.65625-.171875-.304688 0-.542969.0625-.71875.1875-.105469.074219-.15625.179687-.15625.3125 0 .125.050781.230469.15625.3125.125.105469.4375.21875.9375.34375.507812.117187.882812.242187 1.125.375.25.125.441406.296875.578125.515625.132813.21875.203125.492188.203125.8125 0 .304688-.085938.585938-.25.84375-.167969.25-.402344.4375-.703125.5625-.292969.125-.664063.1875-1.109375.1875-.648438 0-1.148438-.1484375-1.5-.453125-.34375-.300781-.546875-.738281-.609375-1.3125zm0 0"/></symbol><symbol id="O" overflow="visible"><path d="m3.75-2.625-.96875.1875c-.03125-.195312-.105469-.34375-.21875-.4375-.117188-.101562-.265625-.15625-.453125-.15625-.242187 0-.433594.089844-.578125.265625-.148438.167969-.21875.449219-.21875.84375 0 .4375.070312.75.21875.9375.144531.179687.34375.265625.59375.265625.1875 0 .335938-.050781.453125-.15625.125-.101562.210937-.285156.265625-.546875l.96875.15625c-.105469.449219-.304688.789063-.59375 1.015625-.28125.21875-.664062.328125-1.140625.328125-.542969 0-.976563-.171875-1.296875-.515625-.324219-.34375-.484375-.816406-.484375-1.421875 0-.613281.160156-1.085937.484375-1.421875.320312-.34375.757812-.515625 1.3125-.515625.457031 0 .816406.101563 1.078125.296875.269531.1875.460937.480469.578125.875zm0 0"/></symbol><symbol id="P" overflow="visible"><path d="m.515625-5.140625h1.890625c.425781 0 .753906.039063.984375.109375.300781.085938.554687.242188.765625.46875.21875.230469.382812.511719.5.84375.113281.324219.171875.726562.171875 1.203125 0 .417969-.054687.78125-.15625 1.09375-.136719.375-.324219.679687-.5625.90625-.179687.179687-.417969.3125-.71875.40625-.230469.0742188-.539063.109375-.921875.109375h-1.953125zm1.046875.875v3.40625h.765625c.289063 0 .5-.015625.625-.046875.164063-.050781.304687-.125.421875-.21875.113281-.101562.203125-.269531.265625-.5.070313-.226562.109375-.539062.109375-.9375 0-.394531-.039062-.695312-.109375-.90625-.0625-.21875-.164063-.382812-.296875-.5-.125-.125-.28125-.207031-.46875-.25-.148438-.03125-.433594-.046875-.859375-.046875zm0 0"/></symbol><symbol id="Q" overflow="visible"><path d="m.171875-1.0625.984375-.15625c.039062.199219.125.351562.25.453125.132812.09375.316406.140625.546875.140625.25 0 .441406-.046875.578125-.140625.082031-.0625.125-.148437.125-.265625 0-.070312-.027344-.132812-.078125-.1875-.042969-.039062-.152344-.082031-.328125-.125-.792969-.175781-1.292969-.335938-1.5-.484375-.304688-.195313-.453125-.472656-.453125-.828125 0-.320312.125-.59375.375-.8125.257813-.21875.660156-.328125 1.203125-.328125.507812 0 .882812.085937 1.125.25.25.15625.421875.402344.515625.734375l-.921875.171875c-.042969-.144531-.121094-.253906-.234375-.328125-.105469-.082031-.261719-.125-.46875-.125-.261719 0-.449219.039062-.5625.109375-.074219.054687-.109375.121094-.109375.203125 0 .0625.03125.121094.09375.171875.09375.0625.398438.15625.921875.28125.519531.117187.882813.261719 1.09375.4375.207031.179687.3125.421875.3125.734375 0 .335938-.148437.625-.4375.875-.28125.2421875-.699219.359375-1.25.359375-.511719 0-.917969-.0976562-1.21875-.296875-.292969-.207031-.480469-.488281-.5625-.84375zm0 0"/></symbol><symbol id="R" overflow="visible"><path d="m.46875 0v-5.140625h.984375v1.859375c.300781-.34375.660156-.515625 1.078125-.515625.457031 0 .832031.167969 1.125.5.300781.324219.453125.792969.453125 1.40625 0 .625-.152344 1.109375-.453125 1.453125-.304688.34375-.671875.515625-1.109375.515625-.210937 0-.417969-.0546875-.625-.15625-.210937-.101563-.386719-.257813-.53125-.46875v.546875zm.984375-1.9375c0 .386719.054687.671875.171875.859375.175781.261719.40625.390625.6875.390625.21875 0 .398438-.09375.546875-.28125.15625-.1875.234375-.476562.234375-.875 0-.425781-.078125-.734375-.234375-.921875-.148437-.1875-.34375-.28125-.59375-.28125-.230469 0-.421875.09375-.578125.28125-.15625.179687-.234375.453125-.234375.828125zm0 0"/></symbol><symbol id="S" overflow="visible"><path d="m.515625 0v-5.140625h.984375v5.140625zm0 0"/></symbol><symbol id="T" overflow="visible"><path d="m2.671875-1.1875.984375.171875c-.136719.355469-.339844.625-.609375.8125-.273437.1875-.609375.28125-1.015625.28125-.648438 0-1.125-.207031-1.4375-.625-.242188-.34375-.359375-.769531-.359375-1.28125 0-.613281.15625-1.09375.46875-1.4375.320313-.351563.734375-.53125 1.234375-.53125.550781 0 .984375.183594 1.296875.546875.320313.367188.476563.921875.46875 1.671875h-2.46875c.007813.292969.085937.523437.234375.6875.15625.15625.347656.234375.578125.234375.144531 0 .269531-.039062.375-.125.113281-.082031.195313-.21875.25-.40625zm.046875-.984375c0-.289063-.074219-.507813-.21875-.65625-.136719-.144531-.304688-.21875-.5-.21875-.21875 0-.402344.078125-.546875.234375-.136719.15625-.203125.371094-.203125.640625zm0 0"/></symbol><symbol id="U" overflow="visible"><path d="m2.96875 0v-.5625c-.136719.199219-.320312.355469-.546875.46875-.21875.1132812-.449219.171875-.6875.171875-.25 0-.476563-.0546875-.671875-.15625-.199219-.113281-.34375-.269531-.4375-.46875-.085938-.195313-.125-.46875-.125-.8125v-2.359375h.984375v1.703125c0 .53125.015625.855469.046875.96875.039062.117187.109375.210937.203125.28125.09375.0625.210937.09375.359375.09375.164062 0 .316406-.039063.453125-.125.132813-.09375.222656-.207031.265625-.34375.050781-.144531.078125-.484375.078125-1.015625v-1.5625h.984375v3.71875zm0 0"/></symbol><symbol id="V" overflow="visible"><path d="m.484375-3.71875h.921875v.546875c.113281-.1875.269531-.335937.46875-.453125.207031-.113281.4375-.171875.6875-.171875.4375 0 .800781.171875 1.09375.515625.300781.335938.453125.804688.453125 1.40625 0 .617188-.152344 1.09375-.453125 1.4375-.304688.34375-.667969.515625-1.09375.515625-.210938 0-.398438-.0390625-.5625-.109375-.167969-.082031-.34375-.222656-.53125-.421875v1.875h-.984375zm.96875 1.796875c0 .417969.082031.726563.25.921875.164063.199219.367187.296875.609375.296875.226562 0 .414062-.085937.5625-.265625.15625-.1875.234375-.488281.234375-.90625 0-.382812-.078125-.671875-.234375-.859375-.15625-.195313-.351562-.296875-.578125-.296875-.242187 0-.445313.09375-.609375.28125-.15625.1875-.234375.464844-.234375.828125zm0 0"/></symbol><symbol id="W" overflow="visible"><path d="m2.21875-3.71875v.78125h-.671875v1.5c0 .304688.003906.480469.015625.53125.019531.054688.050781.09375.09375.125.039062.03125.097656.046875.171875.046875.082031 0 .210937-.03125.390625-.09375l.078125.765625c-.230469.09375-.492187.140625-.78125.140625-.179687 0-.339844-.0273438-.484375-.078125-.136719-.0625-.242188-.140625-.3125-.234375-.0625-.09375-.105469-.222656-.125-.390625-.023438-.113281-.03125-.34375-.03125-.6875v-1.625h-.453125v-.78125h.453125v-.734375l.984375-.578125v1.3125zm0 0"/></symbol><symbol id="X" overflow="visible"><path d="m3.921875 0h-.90625v-.546875c-.15625.210937-.339844.367187-.546875.46875-.199219.1015625-.40625.15625-.625.15625-.429688 0-.792969-.171875-1.09375-.515625-.304688-.34375-.453125-.820312-.453125-1.4375 0-.625.144531-1.097656.4375-1.421875.300781-.332031.675781-.5 1.125-.5.414063 0 .773437.171875 1.078125.515625v-1.859375h.984375zm-2.625-1.9375c0 .398438.054687.683594.171875.859375.15625.261719.375.390625.65625.390625.226562 0 .421875-.09375.578125-.28125.15625-.195312.234375-.488281.234375-.875 0-.425781-.078125-.734375-.234375-.921875-.148437-.1875-.339844-.28125-.578125-.28125-.242188 0-.4375.09375-.59375.28125-.15625.179687-.234375.453125-.234375.828125zm0 0"/></symbol><g clip-path="url(#a)"><path d="m0 0h172v114.667969h-172zm0 0" fill="#fff"/></g><path d="m149.726562 2.972656c-.203124.1875-.515624.214844-.738281-.046875-.15625-.210937-.078125-.453125.050781-.574219.773438-.746093 2-1.277343 3.289063-1.261718 1.496094.019531 2.570313.621094 3.265625 1.269531.214844.21875.152344.5-.035156.636719-.222656.164062-.492188.164062-.6875-.035156-.628906-.582032-1.503906-.96875-2.464844-.988282-.902344-.023437-1.878906.25-2.679688 1zm1.230469 1.242188c-.207031.179687-.507812.148437-.6875-.058594-.121093-.144531-.164062-.386719.023438-.574219.492187-.492187 1.253906-.792969 2.003906-.792969.832031.011719 1.535156.34375 2.007813.835938.160156.214844.085937.4375-.0625.582031-.128907.144531-.445313.199219-.675782-.023437-.320312-.300782-.773437-.492188-1.273437-.492188-.511719 0-.992188.1875-1.335938.523438zm10.292969 12.890625h-17.917969v-11.9375h17.917969zm-6.972656.941406c.164062.179687.136718.398437.015625.542969-.511719.558594-1.300781.816406-1.972657.816406-.78125 0-1.496093-.277344-2.019531-.773438-.171875-.171874-.203125-.4375.035157-.644531.199218-.164062.457031-.136719.628906.015625.300781.285156.769531.523438 1.339844.515625.625-.015625 1.039062-.28125 1.335937-.550781.121094-.09375.414063-.175781.636719.078125zm1.289062 1.785156c-.796875.792969-1.992187 1.308594-3.261718 1.308594-1.203126 0-2.398438-.421875-3.316407-1.316406-.109375-.117188-.207031-.382813.050781-.617188.199219-.164062.480469-.15625.664063.035157.683594.625 1.5625.988281 2.601563.996093 1.199218-.019531 2.035156-.523437 2.566406-1.011719.160156-.140624.421875-.214843.667968-.003906.15625.15625.207032.398438.027344.609375zm0 0" fill="#5294cf"/><path d="m143.332031 16.390625h17.917969v.714844h-17.917969zm0 0" fill-opacity=".302"/><path d="m161.25 13.875h-3.015625c-.179687 0-.351563-.15625-.351563-.34375v-1.261719c-.203124-.078125-.53125-.328125-.53125-.765625 0-.453125.386719-.824218.910157-.824218.394531 0 .867187.308593.867187.824218 0 .34375-.214844.628906-.53125.765625v.925781h2.652344zm-5.574219 1.726562c-.171875 0-.351562-.148437-.351562-.335937v-2.996094c-.171875-.070312-.503907-.285156-.523438-.746093-.015625-.34375.285157-.867188.917969-.84375.484375.019531.84375.386718.851562.824218-.007812.34375-.214843.636719-.53125.757813v2.667969h5.210938v.671874zm-1.234375-10.433593v2.492187h1.527344v-1.410156c0-.195312.148438-.367188.386719-.367188h3.761719c.238281 0 .386718.171876.386718.359376v3.570312c0 .148438-.148437.351562-.378906.351562h-3.777344c-.199218 0-.378906-.152343-.378906-.359374v-1.46875h-3.707031c-.121094.265624-.414063.492187-.808594.492187-.496094 0-.882813-.371094-.882813-.835937 0-.429688.367188-.824219.90625-.824219.320313 0 .65625.199219.785157.492187h1.464843v-2.492187zm-5.230468 0h.714843v5.082031l1.332031 1.253906.640626-.597656c-.09375-.226562-.101563-.578125.179687-.871094.394531-.367187.902344-.296875 1.175781-.09375.441406.320313.449219.886719.121094 1.222656-.296875.308594-.710938.324219-.96875.222657l-.636719.597656 1.132813 1.066406c.285156-.101562.65625-.078125.9375.179688.445312.429687.273437.980469-.035156 1.226562-.410157.320313-.960938.242188-1.261719-.09375-.152344-.179687-.28125-.480469-.152344-.824219l-3.09375-2.917968c-.058594-.050782-.085937-.136719-.085937-.238282zm-4.730469 0h.714843v2.492187h1.25c.15625-.320312.484376-.492187.800782-.492187.5 0 .890625.378906.890625.828125 0 .417968-.339844.832031-.910157.832031-.246093 0-.609374-.136719-.78125-.492187h-1.25v2.679687l2.195313 2.0625c.429687-.171875 1.015625 0 1.1875.546875.160156.570312-.292969 1.082031-.886719 1.050781-.324218-.003906-.695312-.207031-.816406-.609375-.042969-.164062-.039062-.34375.011719-.484375l-2.304688-2.179687c-.058593-.050782-.101562-.121094-.101562-.257813zm5.761719 11.222656v-2.429687l-2.738282-2.566407c-.414062.136719-.816406-.019531-1.015625-.300781-.289062-.386719-.203125-.902344.226563-1.183594.402344-.242187.898437-.140625 1.167968.171875.265626.308594.222657.652344.136719.839844l2.9375 2.746094v2.722656zm-5.742188 0v-1.777344c-.234375-.09375-.523438-.375-.523438-.753906 0-.535156.46875-.84375.875-.84375.488282 0 .890626.351563.890626.832031 0 .320313-.195313.621094-.515626.765625v1.777344zm0 0" fill="#fff"/><g><use x="11.466665" xlink:href="#d" y="12.899999"/><use x="18.630532" xlink:href="#e" y="12.899999"/><use x="23.413441" xlink:href="#f" y="12.899999"/><use x="27.713441" xlink:href="#g" y="12.899999"/><use x="30.102796" xlink:href="#h" y="12.899999"/><use x="34.885706" xlink:href="#i" y="12.899999"/><use x="37.749572" xlink:href="#j" y="12.899999"/><use x="40.138928" xlink:href="#k" y="12.899999"/><use x="43.002794" xlink:href="#l" y="12.899999"/><use x="48.738927" xlink:href="#g" y="12.899999"/><use x="51.128282" xlink:href="#g" y="12.899999"/><use x="53.517637" xlink:href="#e" y="12.899999"/><use x="58.300547" xlink:href="#m" y="12.899999"/><use x="62.600546" xlink:href="#n" y="12.899999"/><use x="66.900546" xlink:href="#h" y="12.899999"/><use x="71.683455" xlink:href="#i" y="12.899999"/><use x="74.547322" xlink:href="#o" y="12.899999"/></g><path d="m5.734375 108.214844v-4.296875h1.433594v4.296875m-1.433594-8.597656v-4.300782h1.433594v4.300782m-1.433594-8.601563v-4.300781h1.433594v4.300781m-1.433594-8.597656v-4.300781h1.433594v4.300781m-1.433594-8.601563v-4.300781h1.433594v4.300781m-1.433594-8.601562v-4.296875h1.433594v4.296875m-1.433594-8.597656v-4.300782h1.433594v4.300782m-1.433594-8.601563v-4.300781h1.433594v4.300781m-1.433594-8.597656v-4.300781h1.433594v4.300781m-1.433594-8.601563v-4.300781h1.433594v4.300781m-1.433594-8.601562v-4.296875h1.433594v4.296875m-1.433594-8.597656v-4.300782h1.433594v4.300782m-1.433594-8.601563v-4.300781h1.433594v4.300781"/><path d="m163.398438 108.214844v-4.296875h1.433593v4.296875m-1.433593-8.597656v-4.300782h1.433593v4.300782m-1.433593-8.601563v-4.300781h1.433593v4.300781m-1.433593-8.597656v-4.300781h1.433593v4.300781m-1.433593-8.601563v-4.300781h1.433593v4.300781m-1.433593-8.601562v-4.296875h1.433593v4.296875m-1.433593-8.597656v-4.300782h1.433593v4.300782m-1.433593-8.601563v-4.300781h1.433593v4.300781m-1.433593-8.597656v-4.300781h1.433593v4.300781m-1.433593-8.601563v-4.300781h1.433593v4.300781m-1.433593-8.601562v-4.296875h1.433593v4.296875m-1.433593-8.597656v-4.300782h1.433593v4.300782m-1.433593-8.601563v-4.300781h1.433593v4.300781"/><g><use x="118.966653" xlink:href="#p" y="12.899999"/><use x="124.702785" xlink:href="#q" y="12.899999"/><use x="126.61343" xlink:href="#e" y="12.899999"/><use x="131.396339" xlink:href="#r" y="12.899999"/><use x="135.696339" xlink:href="#h" y="12.899999"/></g><path d="m85.285156 14.691406v-.714844h.714844v.714844m-.714844-2.867187v-.714844h.714844v.714844m-.714844-2.867188v-.714843h.714844v.714843m-.714844-2.867187v-.714844h.714844v.714844"/><g stroke-miterlimit="10"><path d="m204.50184 118.99856h5.826672l4.169695 5.919332 4.169696-5.919332h5.832122l-7.080306 10.001818 7.080306 10.001818h-5.832122l-4.169696-5.924783-4.169695 5.924783h-5.826672l6.666062-10.001818zm0 0" fill="#f8cecc" stroke="#b85450" transform="matrix(.716667 0 0 .716667 .358333 .358333)"/><path d="m17.741644 38.998914h202.516375" fill="none" stroke="#d6b656" stroke-width="2" transform="scale(.716667)"/><path d="m11.740554 38.998914 8.001454-4.000727-2.000364 4.000727 2.000364 4.000727zm0 0" fill="#d6b656" stroke="#d6b656" stroke-width="2" transform="scale(.716667)"/></g><path d="m162.152344 27.949219-5.734375 2.867187 1.433593-2.867187-1.433593-2.867188zm0 0" fill="#d6b656"/><g clip-path="url(#b)"><path d="m226.25911 38.998914-8.001455 4.000727 2.000364-4.000727-2.000364-4.000727zm0 0" fill="none" stroke="#d6b656" stroke-miterlimit="10" stroke-width="2" transform="scale(.716667)"/></g><path d="m46.249642 30.998913h156.502561c.294331 0 .583212.059957.861192.174419.272529.114462.517805.272529.724927.485102.212573.212573.376091.452398.490553.730378s.168968.56141.168968.861192v10.497821c0 .299782-.054506.588663-.168968.861192-.114462.277979-.27798.523256-.490553.730378-.207122.212572-.452398.37609-.724927.490552-.27798.114462-.566861.168968-.861192.168968h-156.502561c-.299782 0-.583212-.054506-.861192-.168968-.272529-.114462-.517805-.27798-.730378-.490552-.212573-.207122-.37064-.452399-.485102-.730378-.114462-.272529-.174418-.56141-.174418-.861192v-10.497821c0-.299782.059956-.583212.174418-.861192s.272529-.517805.485102-.730378.457849-.37064.730378-.485102c.27798-.114462.56141-.174419.861192-.174419zm0 0" fill="#fff2cc" stroke="#d6b656" transform="matrix(.716667 0 0 .716667 .358333 .358333)"/><g><use x="34.97109" xlink:href="#s" y="31.53333"/><use x="39.753999" xlink:href="#d" y="31.53333"/><use x="46.917866" xlink:href="#t" y="31.53333"/><use x="52.653998" xlink:href="#j" y="31.53333"/><use x="55.043353" xlink:href="#u" y="31.53333"/><use x="57.432708" xlink:href="#v" y="31.53333"/><use x="62.215618" xlink:href="#w" y="31.53333"/><use x="64.604973" xlink:href="#x" y="31.53333"/><use x="69.387883" xlink:href="#i" y="31.53333"/><use x="72.25175" xlink:href="#y" y="31.53333"/><use x="79.415616" xlink:href="#e" y="31.53333"/><use x="84.198525" xlink:href="#g" y="31.53333"/><use x="86.587881" xlink:href="#z" y="31.53333"/><use x="88.498525" xlink:href="#x" y="31.53333"/><use x="93.281435" xlink:href="#v" y="31.53333"/><use x="98.064344" xlink:href="#e" y="31.53333"/><use x="102.847254" xlink:href="#q" y="31.53333"/><use x="104.757898" xlink:href="#j" y="31.53333"/><use x="107.147253" xlink:href="#A" y="31.53333"/><use x="113.357897" xlink:href="#h" y="31.53333"/><use x="118.140807" xlink:href="#B" y="31.53333"/><use x="122.923716" xlink:href="#C" y="31.53333"/><use x="127.706626" xlink:href="#h" y="31.53333"/><use x="132.489535" xlink:href="#f" y="31.53333"/><use x="136.789535" xlink:href="#g" y="31.53333"/><use x="139.17889" xlink:href="#f" y="31.53333"/></g><g fill="#c00"><use x="90.523948" xlink:href="#H" y="106.783321"/><use x="95.304058" xlink:href="#I" y="106.783321"/><use x="99.289816" xlink:href="#J" y="106.783321"/><use x="103.667501" xlink:href="#K" y="106.783321"/><use x="105.658631" xlink:href="#L" y="106.783321"/><use x="110.036316" xlink:href="#J" y="106.783321"/><use x="114.414001" xlink:href="#M" y="106.783321"/><use x="116.40513" xlink:href="#N" y="106.783321"/><use x="121.18524" xlink:href="#O" y="106.783321"/><use x="125.170998" xlink:href="#I" y="106.783321"/><use x="129.156756" xlink:href="#L" y="106.783321"/><use x="133.534441" xlink:href="#M" y="106.783321"/><use x="135.525571" xlink:href="#P" y="106.783321"/><use x="140.701107" xlink:href="#K" y="106.783321"/><use x="142.692236" xlink:href="#Q" y="106.783321"/><use x="146.677994" xlink:href="#I" y="106.783321"/><use x="150.663752" xlink:href="#R" y="106.783321"/><use x="155.041437" xlink:href="#S" y="106.783321"/><use x="157.032567" xlink:href="#T" y="106.783321"/></g><g fill="#ff8000"><use x="126.133319" xlink:href="#P" y="63.783326"/><use x="131.308856" xlink:href="#U" y="63.783326"/><use x="135.686541" xlink:href="#V" y="63.783326"/><use x="140.064226" xlink:href="#S" y="63.783326"/><use x="142.055355" xlink:href="#K" y="63.783326"/><use x="144.046484" xlink:href="#O" y="63.783326"/><use x="148.032242" xlink:href="#I" y="63.783326"/><use x="152.018" xlink:href="#W" y="63.783326"/><use x="154.404556" xlink:href="#T" y="63.783326"/><use x="158.390314" xlink:href="#X" y="63.783326"/></g><path d="m8.998911 66.998554h151.760555" fill="none" stroke="#000" stroke-miterlimit="10" stroke-width="2" transform="scale(.716667)"/><path d="m166.760557 66.998554-8.001455 4.000727 2.000364-4.000727-2.000364-4.000727zm0 0" stroke="#000" stroke-miterlimit="10" stroke-width="2" transform="scale(.716667)"/><g><use x="8.599999" xlink:href="#s" y="45.149995"/><use x="13.382909" xlink:href="#d" y="45.149995"/><use x="20.546775" xlink:href="#t" y="45.149995"/><use x="26.282907" xlink:href="#D" y="45.149995"/><use x="31.065817" xlink:href="#E" y="45.149995"/><use x="35.848726" xlink:href="#x" y="45.149995"/><use x="40.631636" xlink:href="#f" y="45.149995"/><use x="44.931635" xlink:href="#g" y="45.149995"/><use x="47.320991" xlink:href="#D" y="45.149995"/><use x="52.1039" xlink:href="#m" y="45.149995"/><use x="56.4039" xlink:href="#x" y="45.149995"/><use x="61.186809" xlink:href="#v" y="45.149995"/><use x="65.969719" xlink:href="#v" y="45.149995"/><use x="70.752628" xlink:href="#h" y="45.149995"/><use x="75.535538" xlink:href="#m" y="45.149995"/><use x="79.835538" xlink:href="#g" y="45.149995"/><use x="82.224893" xlink:href="#z" y="45.149995"/><use x="84.135537" xlink:href="#x" y="45.149995"/><use x="88.918447" xlink:href="#v" y="45.149995"/><use x="93.701356" xlink:href="#D" y="45.149995"/><use x="98.484266" xlink:href="#i" y="45.149995"/><use x="101.348133" xlink:href="#h" y="45.149995"/><use x="106.131042" xlink:href="#B" y="45.149995"/></g><path d="m8.998911 85.999283h151.760555" fill="none" stroke="#d79b00" stroke-miterlimit="10" stroke-width="2" transform="scale(.716667)"/><path d="m166.760557 85.999283-8.001455 4.000727 2.000364-4.000727-2.000364-4.000727zm0 0" fill="#d79b00" stroke="#d79b00" stroke-miterlimit="10" stroke-width="2" transform="scale(.716667)"/><g><use x="8.599999" xlink:href="#s" y="58.76666"/><use x="13.382909" xlink:href="#d" y="58.76666"/><use x="20.546775" xlink:href="#t" y="58.76666"/><use x="26.282907" xlink:href="#D" y="58.76666"/><use x="31.065817" xlink:href="#E" y="58.76666"/><use x="35.848726" xlink:href="#x" y="58.76666"/><use x="40.631636" xlink:href="#f" y="58.76666"/><use x="44.931635" xlink:href="#g" y="58.76666"/><use x="47.320991" xlink:href="#D" y="58.76666"/><use x="52.1039" xlink:href="#m" y="58.76666"/><use x="56.4039" xlink:href="#x" y="58.76666"/><use x="61.186809" xlink:href="#v" y="58.76666"/><use x="65.969719" xlink:href="#v" y="58.76666"/><use x="70.752628" xlink:href="#h" y="58.76666"/><use x="75.535538" xlink:href="#m" y="58.76666"/><use x="79.835538" xlink:href="#g" y="58.76666"/><use x="82.224893" xlink:href="#z" y="58.76666"/><use x="84.135537" xlink:href="#x" y="58.76666"/><use x="88.918447" xlink:href="#v" y="58.76666"/><use x="93.701356" xlink:href="#D" y="58.76666"/><use x="98.484266" xlink:href="#i" y="58.76666"/><use x="101.348133" xlink:href="#h" y="58.76666"/><use x="106.131042" xlink:href="#B" y="58.76666"/></g><path d="m162.683594 76.683594h-4.300782v-1.433594h4.300782m-8.601563 1.433594h-4.296875v-1.433594h4.296875m-8.597656 1.433594h-4.300781v-1.433594h4.300781m-8.601563 1.433594h-4.300781v-1.433594h4.300781m-8.597656 1.433594h-4.300781v-1.433594h4.300781m-8.601562 1.433594h-4.300782v-1.433594h4.300782m-8.601563 1.433594h-4.296875v-1.433594h4.296875m-8.597656 1.433594h-4.300781v-1.433594h4.300781m-8.601563 1.433594h-4.300781v-1.433594h4.300781m-8.597656 1.433594h-4.300781v-1.433594h4.300781m-8.601562 1.433594h-4.300782v-1.433594h4.300782m-8.601563 1.433594h-4.296875v-1.433594h4.296875m-8.597656 1.433594h-4.300781v-1.433594h4.300781m-8.601563 1.433594h-.542968v-1.433594h.542968"/><path d="m64.24056 105.997468 8.001454-3.995276-2.000364 3.995276 2.000364 4.000727zm0 0" stroke="#000" stroke-miterlimit="10" stroke-width="2" transform="scale(.716667)"/><g><use x="67.366659" xlink:href="#s" y="73.099992"/><use x="72.149569" xlink:href="#d" y="73.099992"/><use x="79.313435" xlink:href="#t" y="73.099992"/><use x="85.049567" xlink:href="#D" y="73.099992"/><use x="89.832477" xlink:href="#v" y="73.099992"/><use x="94.615386" xlink:href="#x" y="73.099992"/><use x="99.398296" xlink:href="#g" y="73.099992"/><use x="101.787651" xlink:href="#D" y="73.099992"/><use x="106.570561" xlink:href="#e" y="73.099992"/><use x="111.35347" xlink:href="#m" y="73.099992"/><use x="115.65347" xlink:href="#m" y="73.099992"/><use x="119.953469" xlink:href="#h" y="73.099992"/><use x="124.736379" xlink:href="#F" y="73.099992"/><use x="129.519289" xlink:href="#h" y="73.099992"/><use x="134.302198" xlink:href="#g" y="73.099992"/><use x="136.691553" xlink:href="#h" y="73.099992"/><use x="141.474463" xlink:href="#G" y="73.099992"/></g><path d="m8.998911 130.001831h151.760555" fill="none" stroke="#000" stroke-miterlimit="10" stroke-width="2" transform="scale(.716667)"/><path d="m119.511719 93.167969-5.734375 2.867187 1.433594-2.867187-1.433594-2.867188zm0 0"/><g clip-path="url(#c)"><path d="m166.760557 130.001831-8.001455 4.000728 2.000364-4.000728-2.000364-4.000727zm0 0" fill="none" stroke="#000" stroke-miterlimit="10" stroke-width="2" transform="scale(.716667)"/></g><g><use x="7.883332" xlink:href="#s" y="90.29999"/><use x="12.666242" xlink:href="#d" y="90.29999"/><use x="19.830108" xlink:href="#t" y="90.29999"/><use x="25.566241" xlink:href="#D" y="90.29999"/><use x="30.34915" xlink:href="#G" y="90.29999"/><use x="35.13206" xlink:href="#h" y="90.29999"/><use x="39.914969" xlink:href="#g" y="90.29999"/><use x="42.304325" xlink:href="#e" y="90.29999"/><use x="47.087234" xlink:href="#m" y="90.29999"/><use x="51.387234" xlink:href="#E" y="90.29999"/></g></svg>