<svg height="108pt" viewBox="0 0 168 108" width="168pt" xmlns="http://www.w3.org/2000/svg" xmlns:xlink="http://www.w3.org/1999/xlink"><clipPath id="a"><path d="m0 0h168v107.433594h-168zm0 0"/></clipPath><clipPath id="b"><path d="m2 15h160v90.992188h-160zm0 0"/></clipPath><clipPath id="c"><path d="m0 11h166v94.992188h-166zm0 0"/></clipPath><clipPath id="d"><path d="m131 77h36v28.992188h-36zm0 0"/></clipPath><symbol id="e" overflow="visible"><path d="m.640625 0v-6.203125h1.234375l1.46875 4.390625c.132812.40625.234375.714844.296875.921875.070313-.226563.179687-.5625.328125-1l1.484375-4.3125h1.109375v6.203125h-.796875v-5.1875l-1.796875 5.1875h-.75l-1.78125-5.28125v5.28125zm0 0"/></symbol><symbol id="f" overflow="visible"><path d="m3.5-.546875c-.28125.242187-.554688.40625-.8125.5-.261719.09375-.542969.140625-.84375.140625-.492188 0-.871094-.1171875-1.140625-.359375-.261719-.238281-.390625-.546875-.390625-.921875 0-.21875.046875-.414062.140625-.59375.101563-.1875.234375-.332031.390625-.4375.164062-.113281.351562-.195312.5625-.25.144531-.039062.367188-.082031.671875-.125.613281-.070312 1.066406-.15625 1.359375-.25 0-.101562 0-.171875 0-.203125 0-.3125-.074219-.53125-.21875-.65625-.1875-.164063-.476562-.25-.859375-.25-.355469 0-.621094.0625-.796875.1875-.167969.125-.292969.34375-.375.65625l-.75-.09375c.070312-.320313.1875-.578125.34375-.765625.15625-.195312.378906-.347656.671875-.453125.289063-.113281.628906-.171875 1.015625-.171875.382812 0 .695312.046875.9375.140625.238281.09375.410156.210937.515625.34375.113281.136719.195313.308594.25.515625.019531.125.03125.359375.03125.703125v1.015625c0 .710938.015625 1.15625.046875 1.34375.03125.179688.097656.355469.203125.53125h-.796875c-.085938-.15625-.136719-.335938-.15625-.546875zm-.0625-1.703125c-.28125.117188-.699219.210938-1.25.28125-.3125.054688-.539062.105469-.671875.15625-.125.054688-.226563.136719-.296875.25-.0625.105469-.09375.226562-.09375.359375 0 .199219.070312.367187.21875.5.15625.136719.382812.203125.6875.203125.289062 0 .550781-.0625.78125-.1875.226562-.125.394531-.300781.5-.53125.082031-.164062.125-.414062.125-.75zm0 0"/></symbol><symbol id="g" overflow="visible"><path d="m.265625-1.34375.75-.109375c.039063.304687.15625.53125.34375.6875.195313.15625.472656.234375.828125.234375.34375 0 .597656-.066406.765625-.203125.175781-.144531.265625-.3125.265625-.5 0-.175781-.078125-.3125-.234375-.40625-.105469-.070313-.367187-.160156-.78125-.265625-.554687-.132812-.9375-.253906-1.15625-.359375-.210937-.101563-.371094-.242187-.484375-.421875-.117188-.1875-.171875-.390625-.171875-.609375 0-.195313.046875-.378906.140625-.546875.09375-.175781.21875-.320312.375-.4375.113281-.082031.269531-.15625.46875-.21875.207031-.0625.429688-.09375.671875-.09375.351563 0 .660156.054688.921875.15625.269531.105469.46875.246094.59375.421875.125.167969.210938.398437.265625.6875l-.75.09375c-.03125-.226563-.132813-.40625-.296875-.53125-.15625-.132813-.386719-.203125-.6875-.203125-.34375 0-.59375.058594-.75.171875-.148438.117187-.21875.25-.21875.40625 0 .105469.03125.195313.09375.265625.0625.085938.160156.152344.296875.203125.070313.03125.296875.101563.671875.203125.539062.148438.914062.265625 1.125.359375.207031.085937.375.214844.5.390625.125.179688.1875.398438.1875.65625 0 .25-.078125.492188-.234375.71875-.148437.21875-.359375.390625-.640625.515625-.273438.1132812-.585938.171875-.9375.171875-.585938 0-1.03125-.1171875-1.34375-.359375-.304688-.238281-.496094-.597656-.578125-1.078125zm0 0"/></symbol><symbol id="h" overflow="visible"><path d="m2.234375-.6875.109375.671875c-.21875.0507812-.414062.078125-.578125.078125-.273437 0-.484375-.0429688-.640625-.125-.15625-.09375-.265625-.207031-.328125-.34375-.0625-.144531-.09375-.445312-.09375-.90625v-2.578125h-.546875v-.59375h.546875v-1.109375l.765625-.46875v1.578125h.765625v.59375h-.765625v2.625c0 .210937.007812.34375.03125.40625.03125.0625.078125.117187.140625.15625.0625.03125.144531.046875.25.046875.09375 0 .207031-.007812.34375-.03125zm0 0"/></symbol><symbol id="i" overflow="visible"><path d="m3.640625-1.453125.78125.109375c-.117187.460938-.34375.8125-.6875 1.0625-.335937.25-.761719.375-1.28125.375-.65625 0-1.179687-.195312-1.5625-.59375-.386719-.40625-.578125-.972656-.578125-1.703125 0-.757813.191406-1.347656.578125-1.765625.394531-.414062.898437-.625 1.515625-.625.601562 0 1.09375.210938 1.46875.625.382812.40625.578125.980469.578125 1.71875v.203125h-3.34375c.019531.492187.15625.867187.40625 1.125.25.261719.5625.390625.9375.390625.28125 0 .519531-.070312.71875-.21875.195313-.144531.351563-.378906.46875-.703125zm-2.5-1.21875h2.515625c-.042969-.375-.140625-.660156-.296875-.859375-.242187-.289062-.554687-.4375-.9375-.4375-.355469 0-.652344.121094-.890625.359375-.230469.230469-.359375.542969-.390625.9375zm0 0"/></symbol><symbol id="j" overflow="visible"><path d="m.5625 0v-4.484375h.6875v.671875c.175781-.3125.335938-.519531.484375-.625.144531-.101562.304687-.15625.484375-.15625.257812 0 .519531.085938.78125.25l-.265625.703125c-.1875-.101563-.371094-.15625-.546875-.15625-.167969 0-.320312.054687-.453125.15625-.136719.09375-.230469.230469-.28125.40625-.085937.273437-.125.570313-.125.890625v2.34375zm0 0"/></symbol><symbol id="k" overflow="visible"/><symbol id="l" overflow="visible"><path d="m2.03125 1.828125c-.429688-.53125-.789062-1.152344-1.078125-1.859375-.28125-.71875-.421875-1.457031-.421875-2.21875 0-.664062.101562-1.304688.3125-1.921875.257812-.707031.65625-1.414063 1.1875-2.125h.53125c-.335938.585937-.558594 1-.671875 1.25-.167969.386719-.304687.792969-.40625 1.21875-.117187.53125-.171875 1.0625-.171875 1.59375 0 1.355469.414062 2.707031 1.25 4.0625zm0 0"/></symbol><symbol id="m" overflow="visible"><path d="m-.015625 0 2.375-6.203125h.890625l2.53125 6.203125h-.921875l-.734375-1.875h-2.59375l-.671875 1.875zm1.796875-2.546875h2.09375l-.640625-1.71875c-.199219-.519531-.34375-.945313-.4375-1.28125-.085937.398437-.199219.792969-.34375 1.1875zm0 0"/></symbol><symbol id="n" overflow="visible"><path d="m3.5-1.640625.75.09375c-.085938.511719-.296875.914063-.640625 1.203125-.335937.2929688-.746094.4375-1.234375.4375-.617188 0-1.109375-.195312-1.484375-.59375-.367187-.40625-.546875-.984375-.546875-1.734375 0-.476563.078125-.898437.234375-1.265625.15625-.363281.398437-.632812.734375-.8125.332031-.1875.691406-.28125 1.078125-.28125.476563 0 .875.125 1.1875.375s.507813.601562.59375 1.046875l-.734375.109375c-.074219-.300781-.199219-.523438-.375-.671875-.179688-.15625-.398438-.234375-.65625-.234375-.375 0-.683594.140625-.921875.421875-.242187.273437-.359375.703125-.359375 1.296875 0 .605469.113281 1.042969.34375 1.3125.226562.273438.53125.40625.90625.40625.289062 0 .535156-.085938.734375-.265625.207031-.1875.335937-.46875.390625-.84375zm0 0"/></symbol><symbol id="o" overflow="visible"><path d="m.578125 0v-6.203125h.75v3.546875l1.8125-1.828125h.984375l-1.71875 1.65625 1.890625 2.828125h-.9375l-1.484375-2.296875-.546875.515625v1.78125zm0 0"/></symbol><symbol id="p" overflow="visible"><path d="m1.0625 1.828125h-.53125c.832031-1.355469 1.25-2.707031 1.25-4.0625 0-.53125-.058594-1.054687-.171875-1.578125-.09375-.425781-.230469-.832031-.40625-1.21875-.105469-.257812-.328125-.679688-.671875-1.265625h.53125c.53125.710937.925781 1.417969 1.1875 2.125.207031.617187.3125 1.257813.3125 1.921875 0 .761719-.148438 1.5-.4375 2.21875-.292969.707031-.648438 1.328125-1.0625 1.859375zm0 0"/></symbol><symbol id="q" overflow="visible"><path d="m.390625-1.984375.765625-.078125c.039062.3125.128906.570312.265625.765625.132813.199219.34375.359375.625.484375s.597656.1875.953125.1875c.3125 0 .585938-.046875.828125-.140625.238281-.09375.414063-.21875.53125-.375.113281-.164063.171875-.347656.171875-.546875 0-.1875-.058594-.351562-.171875-.5-.117187-.144531-.304687-.269531-.5625-.375-.167969-.0625-.539063-.160156-1.109375-.296875-.5625-.132813-.960938-.265625-1.1875-.390625-.292969-.15625-.511719-.347656-.65625-.578125-.148438-.226563-.21875-.484375-.21875-.765625 0-.3125.085938-.601562.265625-.875.175781-.269531.4375-.472656.78125-.609375.34375-.144531.722656-.21875 1.140625-.21875.457031 0 .859375.074219 1.203125.21875.351563.148437.625.367187.8125.65625.1875.28125.289063.605469.3125.96875l-.796875.0625c-.042969-.394531-.1875-.691406-.4375-.890625-.242188-.195312-.59375-.296875-1.0625-.296875-.5 0-.867188.09375-1.09375.28125-.21875.179687-.328125.390625-.328125.640625 0 .230469.078125.417969.234375.5625.15625.136719.566406.28125 1.234375.4375.664063.148438 1.125.277344 1.375.390625.363281.167969.628906.382813.796875.640625.175781.25.265625.542969.265625.875 0 .335938-.101563.648438-.296875.9375-.1875.292969-.460938.523438-.8125.6875-.355469.15625-.75.234375-1.1875.234375-.5625 0-1.039062-.0859375-1.421875-.25-.375-.164063-.671875-.410156-.890625-.734375-.210938-.332031-.320312-.703125-.328125-1.109375zm0 0"/></symbol><symbol id="r" overflow="visible"><path d="m.546875 0v-6.203125h.765625v6.203125zm0 0"/></symbol><symbol id="s" overflow="visible"><path d="m1.8125 0-1.703125-4.484375h.796875l.96875 2.6875c.101562.292969.203125.59375.296875.90625.0625-.238281.15625-.523437.28125-.859375l.984375-2.734375h.796875l-1.703125 4.484375zm0 0"/></symbol><symbol id="t" overflow="visible"><path d="m.640625 0v-6.203125h.8125v5.46875h3.046875v.734375zm0 0"/></symbol><symbol id="u" overflow="visible"><path d="m.671875 0v-6.203125h2.328125c.414062 0 .734375.023437.953125.0625.300781.054687.550781.152344.75.296875.207031.136719.375.335938.5.59375.125.261719.1875.542969.1875.84375 0 .53125-.167969.980469-.5 1.34375-.335937.367188-.9375.546875-1.8125.546875h-1.59375v2.515625zm.8125-3.25h1.609375c.53125 0 .90625-.097656 1.125-.296875.21875-.195313.328125-.472656.328125-.828125 0-.257812-.070313-.484375-.203125-.671875-.125-.1875-.292969-.304687-.5-.359375-.148438-.039062-.402344-.0625-.765625-.0625h-1.59375zm0 0"/></symbol><symbol id="v" overflow="visible"><path d="m-.125 1.71875v-.546875h5.03125v.546875zm0 0"/></symbol><symbol id="w" overflow="visible"><path d="m.75 0v-3.890625h-.671875v-.59375h.671875v-.484375c0-.300781.023438-.523438.078125-.671875.070313-.195313.203125-.351563.390625-.46875.1875-.125.445312-.1875.78125-.1875.207031 0 .441406.027344.703125.078125l-.109375.65625c-.15625-.03125-.308594-.046875-.453125-.046875-.230469 0-.390625.054687-.484375.15625-.09375.09375-.140625.277344-.140625.546875v.421875h.875v.59375h-.875v3.890625zm0 0"/></symbol><symbol id="x" overflow="visible"><path d="m3.515625 0v-.65625c-.355469.5-.828125.75-1.421875.75-.273438 0-.523438-.046875-.75-.140625-.230469-.101563-.402344-.226563-.515625-.375-.105469-.15625-.183594-.347656-.234375-.578125-.03125-.144531-.046875-.378906-.046875-.703125v-2.78125h.765625v2.484375c0 .398438.015625.664062.046875.796875.050781.210937.148437.371094.296875.484375.15625.117188.347656.171875.578125.171875.226563 0 .441406-.054687.640625-.171875.207031-.125.351562-.285156.4375-.484375.082031-.207031.125-.5.125-.875v-2.40625h.75v4.484375zm0 0"/></symbol><symbol id="y" overflow="visible"><path d="m3.4375 1.71875v-2.203125c-.125.167969-.296875.308594-.515625.421875-.210937.1015625-.433594.15625-.671875.15625-.53125 0-.992188-.207031-1.375-.625-.386719-.425781-.578125-1.007812-.578125-1.75 0-.457031.078125-.863281.234375-1.21875.164062-.351562.394531-.625.6875-.8125.300781-.1875.628906-.28125.984375-.28125.550781 0 .988281.234375 1.3125.703125v-.59375h.671875v6.203125zm-2.34375-3.96875c0 .574219.117188 1.007812.359375 1.296875.238281.28125.53125.421875.875.421875.320313 0 .597656-.132812.828125-.40625.238281-.269531.359375-.6875.359375-1.25 0-.59375-.125-1.039062-.375-1.34375-.25-.300781-.542969-.453125-.875-.453125-.324219 0-.601563.140625-.828125.421875-.230469.273438-.34375.710938-.34375 1.3125zm0 0"/></symbol><symbol id="z" overflow="visible"><path d="m.0625 0 1.640625-2.328125-1.515625-2.15625h.953125l.6875 1.046875c.125.199219.226563.367188.3125.5.125-.1875.238281-.347656.34375-.484375l.75-1.0625h.90625l-1.546875 2.109375 1.671875 2.375h-.9375l-.921875-1.390625-.234375-.375-1.1875 1.765625zm0 0"/></symbol><symbol id="A" overflow="visible"><path d="m.578125 1.71875v-6.203125h.6875v.578125c.164063-.226562.347656-.398438.546875-.515625.207031-.113281.457031-.171875.75-.171875.382812 0 .722656.101562 1.015625.296875.289063.199219.507813.480469.65625.84375.15625.355469.234375.746094.234375 1.171875 0 .460938-.085938.875-.25 1.25-.167969.367188-.40625.648438-.71875.84375-.3125.1875-.640625.28125-.984375.28125-.261719 0-.492187-.0546875-.6875-.15625-.199219-.101562-.367187-.238281-.5-.40625v2.1875zm.6875-3.9375c0 .574219.113281 1 .34375 1.28125.238281.273438.519531.40625.84375.40625.34375 0 .632813-.140625.875-.421875.238281-.28125.359375-.722656.359375-1.328125 0-.570312-.121094-1-.359375-1.28125-.230469-.289062-.507813-.4375-.828125-.4375-.335938 0-.625.15625-.875.46875-.242188.304688-.359375.742188-.359375 1.3125zm0 0"/></symbol><symbol id="B" overflow="visible"><path d="m5.171875 0h-1.125l-.453125-1.171875h-2.0625l-.421875 1.171875h-1.109375l2.015625-5.15625h1.09375zm-1.921875-2.046875-.703125-1.90625-.703125 1.90625zm0 0"/></symbol><symbol id="C" overflow="visible"><path d="m3.828125-1.890625 1 .3125c-.15625.5625-.417969.984375-.78125 1.265625-.355469.2734375-.808594.40625-1.359375.40625-.6875 0-1.25-.234375-1.6875-.703125s-.65625-1.109375-.65625-1.921875c0-.851562.21875-1.519531.65625-2 .445312-.476562 1.03125-.71875 1.75-.71875.632812 0 1.148438.1875 1.546875.5625.226563.21875.398437.539062.515625.953125l-1.03125.25c-.054688-.269531-.179688-.484375-.375-.640625-.199219-.15625-.433594-.234375-.703125-.234375-.386719 0-.699219.140625-.9375.421875-.242187.273438-.359375.714844-.359375 1.328125 0 .65625.117188 1.125.359375 1.40625.238281.273437.546875.40625.921875.40625.269531 0 .503906-.085937.703125-.265625.195313-.175781.34375-.453125.4375-.828125zm0 0"/></symbol><symbol id="D" overflow="visible"><path d="m.53125 0v-5.15625h3.8125v.875h-2.78125v1.140625h2.59375v.875h-2.59375v1.390625h2.890625v.875zm0 0"/></symbol><symbol id="E" overflow="visible"/><symbol id="F" overflow="visible"><path d="m-.015625.09375 1.28125-5.34375h.75l-1.296875 5.34375zm0 0"/></symbol><symbol id="G" overflow="visible"><path d="m.515625-5.15625h1.90625c.425781 0 .753906.03125.984375.09375.300781.09375.554688.257812.765625.484375.21875.230469.382813.511719.5.84375.113281.324219.171875.726563.171875 1.203125 0 .429688-.054688.792969-.15625 1.09375-.136719.375-.324219.683594-.5625.921875-.179688.179687-.417969.3125-.71875.40625-.230469.0742188-.539062.109375-.921875.109375h-1.96875zm1.046875.875v3.40625h.78125c.289062 0 .5-.015625.625-.046875.164062-.039063.304688-.109375.421875-.203125.113281-.101562.203125-.269531.265625-.5.070312-.238281.109375-.554688.109375-.953125 0-.394531-.039063-.695313-.109375-.90625-.0625-.21875-.164062-.382813-.296875-.5-.125-.125-.28125-.207031-.46875-.25-.148437-.03125-.433594-.046875-.859375-.046875zm0 0"/></symbol><symbol id="H" overflow="visible"><path d="m2.6875-1.1875.984375.15625c-.136719.367188-.339844.640625-.609375.828125-.273438.1875-.609375.28125-1.015625.28125-.65625 0-1.140625-.207031-1.453125-.625-.242188-.34375-.359375-.773437-.359375-1.296875 0-.613281.160156-1.09375.484375-1.4375.320312-.351562.726562-.53125 1.21875-.53125.5625 0 1 .183594 1.3125.546875.320312.367187.476562.929687.46875 1.6875h-2.484375c.007813.292969.085937.523437.234375.6875.15625.15625.347656.234375.578125.234375.15625 0 .285156-.039062.390625-.125.101562-.082031.1875-.21875.25-.40625zm.046875-1c-.011719-.28125-.089844-.492188-.234375-.640625-.136719-.15625-.304688-.234375-.5-.234375-.21875 0-.398438.078125-.53125.234375-.148438.15625-.214844.371094-.203125.640625zm0 0"/></symbol><symbol id="I" overflow="visible"><path d="m1.25-2.59375-.890625-.15625c.101563-.363281.273437-.628906.515625-.796875.25-.175781.617188-.265625 1.109375-.265625.4375 0 .757813.054688.96875.15625.21875.105469.367187.234375.453125.390625.09375.15625.140625.453125.140625.890625l-.015625 1.140625c0 .335937.015625.578125.046875.734375.039063.15625.101563.324219.1875.5h-.984375c-.023438-.0625-.054688-.160156-.09375-.296875-.011719-.050781-.023438-.085937-.03125-.109375-.167969.167969-.351562.292969-.546875.375-.1875.0703125-.390625.109375-.609375.109375-.386719 0-.695312-.1015625-.921875-.3125-.21875-.207031-.328125-.46875-.328125-.78125 0-.21875.050781-.40625.15625-.5625.101562-.164063.242188-.289063.421875-.375.1875-.09375.453125-.171875.796875-.234375.457031-.09375.773438-.175781.953125-.25v-.09375c0-.195312-.046875-.332031-.140625-.40625-.09375-.082031-.273438-.125-.53125-.125-.179688 0-.320312.039062-.421875.109375-.09375.0625-.171875.183594-.234375.359375zm1.328125.796875c-.125.042969-.328125.09375-.609375.15625-.273438.0625-.449219.121094-.53125.171875-.125.09375-.1875.210938-.1875.34375 0 .136719.046875.257812.140625.359375.101563.105469.238281.15625.40625.15625.175781 0 .34375-.054687.5-.171875.125-.09375.207031-.203125.25-.328125.019531-.082031.03125-.242187.03125-.484375zm0 0"/></symbol><symbol id="J" overflow="visible"><path d="m3.9375 0h-.90625v-.546875c-.15625.210937-.339844.367187-.546875.46875-.210937.1015625-.417969.15625-.625.15625-.429687 0-.796875-.171875-1.109375-.515625-.304688-.34375-.453125-.820312-.453125-1.4375 0-.632812.144531-1.113281.4375-1.4375.300781-.332031.679687-.5 1.140625-.5.414062 0 .773438.171875 1.078125.515625v-1.859375h.984375zm-2.625-1.953125c0 .40625.050781.699219.15625.875.15625.25.378906.375.671875.375.226563 0 .421875-.09375.578125-.28125.15625-.195313.234375-.488281.234375-.875 0-.425781-.078125-.734375-.234375-.921875-.148438-.1875-.34375-.28125-.59375-.28125-.230469 0-.421875.09375-.578125.28125s-.234375.464844-.234375.828125zm0 0"/></symbol><symbol id="K" overflow="visible"><path d="m.515625 0v-5.15625h.984375v5.15625zm0 0"/></symbol><symbol id="L" overflow="visible"><path d="m.28125-1.921875c0-.320313.082031-.632813.25-.9375.164062-.3125.394531-.546875.6875-.703125.289062-.164062.625-.25 1-.25.5625 0 1.019531.183594 1.375.546875.363281.367187.546875.828125.546875 1.390625s-.183594 1.03125-.546875 1.40625c-.367188.367188-.824219.546875-1.375.546875-.34375 0-.671875-.07421875-.984375-.21875-.304687-.15625-.539063-.382813-.703125-.6875-.167969-.300781-.25-.664063-.25-1.09375zm1.015625.046875c0 .375.085937.664062.265625.859375.175781.199219.394531.296875.65625.296875.257812 0 .472656-.097656.640625-.296875.175781-.195313.265625-.484375.265625-.859375 0-.363281-.089844-.644531-.265625-.84375-.167969-.195312-.382813-.296875-.640625-.296875-.261719 0-.480469.101563-.65625.296875-.179688.199219-.265625.480469-.265625.84375zm0 0"/></symbol><symbol id="M" overflow="visible"><path d="m3.78125-2.625-.984375.171875c-.03125-.195313-.105469-.34375-.21875-.4375-.117187-.101563-.265625-.15625-.453125-.15625-.25 0-.449219.089844-.59375.265625-.148438.167969-.21875.449219-.21875.84375 0 .449219.070312.765625.21875.953125.15625.179687.359375.265625.609375.265625.1875 0 .335937-.050781.453125-.15625.125-.113281.210938-.300781.265625-.5625l.96875.171875c-.105469.449219-.304687.789063-.59375 1.015625-.28125.21875-.664063.328125-1.140625.328125-.554688 0-.992188-.171875-1.3125-.515625-.324219-.34375-.484375-.816406-.484375-1.421875 0-.625.160156-1.101563.484375-1.4375.332031-.34375.773438-.515625 1.328125-.515625.457031 0 .816406.101562 1.078125.296875.269531.1875.46875.484375.59375.890625zm0 0"/></symbol><symbol id="N" overflow="visible"><path d="m.484375 0v-5.15625h.984375v2.734375l1.15625-1.3125h1.21875l-1.28125 1.359375 1.375 2.375h-1.0625l-.9375-1.671875-.46875.46875v1.203125zm0 0"/></symbol><symbol id="O" overflow="visible"><path d="m1.46875 0h-1v-3.734375h.921875v.53125c.15625-.25.296875-.410156.421875-.484375.125-.082031.269531-.125.4375-.125.21875 0 .429688.058594.640625.171875l-.296875.875c-.167969-.113281-.324219-.171875-.46875-.171875-.136719 0-.257812.042969-.359375.125-.09375.074219-.167969.210938-.21875.40625-.054687.199219-.078125.617188-.078125 1.25zm0 0"/></symbol><symbol id="P" overflow="visible"><path d="m.171875-1.0625.984375-.15625c.039062.199219.125.351562.25.453125.132812.09375.316406.140625.546875.140625.257813 0 .453125-.046875.578125-.140625.09375-.070313.140625-.160156.140625-.265625 0-.070312-.027344-.132812-.078125-.1875-.054688-.050781-.164062-.09375-.328125-.125-.804687-.175781-1.308594-.335938-1.515625-.484375-.292969-.207031-.4375-.488281-.4375-.84375 0-.320313.125-.59375.375-.8125.257812-.21875.65625-.328125 1.1875-.328125.507812 0 .890625.085938 1.140625.25.25.167969.421875.414062.515625.734375l-.9375.171875c-.03125-.144531-.105469-.253906-.21875-.328125-.117188-.082031-.277344-.125-.484375-.125-.261719 0-.445313.039063-.546875.109375-.085938.054688-.125.121094-.125.203125 0 .074219.035156.132813.109375.171875.082031.074219.382813.171875.90625.296875.53125.117187.898437.257813 1.109375.421875.207031.179688.3125.421875.3125.734375 0 .34375-.148438.640625-.4375.890625-.28125.2421875-.703125.359375-1.265625.359375-.5 0-.902344-.0976562-1.203125-.296875-.292969-.207031-.484375-.488281-.578125-.84375zm0 0"/></symbol><symbol id="Q" overflow="visible"><path d="m1.5-5.15625v1.890625c.320312-.363281.703125-.546875 1.140625-.546875.226563 0 .429687.042969.609375.125.1875.085938.328125.195312.421875.328125.09375.125.15625.273437.1875.4375.039063.15625.0625.402344.0625.734375v2.1875h-1v-1.96875c0-.394531-.023437-.644531-.0625-.75-.03125-.101562-.09375-.1875-.1875-.25s-.214844-.09375-.359375-.09375c-.167969 0-.3125.042969-.4375.125-.125.074219-.21875.195312-.28125.359375-.0625.15625-.09375.390625-.09375.703125v1.875h-.984375v-5.15625zm0 0"/></symbol><symbol id="R" overflow="visible"><path d="m.515625 0v-5.15625h1.546875l.9375 3.515625.921875-3.515625h1.5625v5.15625h-.96875v-4.0625l-1.015625 4.0625h-1l-1.015625-4.0625v4.0625zm0 0"/></symbol><symbol id="S" overflow="visible"><path d="m2.96875 0v-.5625c-.136719.199219-.3125.355469-.53125.46875-.21875.1132812-.453125.171875-.703125.171875s-.476563-.0546875-.671875-.15625c-.199219-.113281-.34375-.269531-.4375-.46875-.085938-.195313-.125-.472656-.125-.828125v-2.359375h.984375v1.71875c0 .523437.015625.84375.046875.96875.039062.117187.109375.210937.203125.28125.09375.0625.21875.09375.375.09375.164063 0 .3125-.046875.4375-.140625.132813-.09375.226563-.207031.28125-.34375.050781-.132812.078125-.46875.078125-1v-1.578125h.984375v3.734375zm0 0"/></symbol><symbol id="T" overflow="visible"><path d="m2.234375-3.734375v.78125h-.6875v1.515625c0 .304688.003906.480469.015625.53125.019531.054688.050781.09375.09375.125.050781.03125.109375.046875.171875.046875.09375 0 .222656-.03125.390625-.09375l.09375.765625c-.230469.09375-.492188.140625-.78125.140625-.179688 0-.339844-.0273438-.484375-.078125-.148437-.0625-.25-.140625-.3125-.234375s-.109375-.222656-.140625-.390625c-.023438-.113281-.03125-.34375-.03125-.6875v-1.640625h-.453125v-.78125h.453125v-.75l.984375-.5625v1.3125zm0 0"/></symbol><symbol id="U" overflow="visible"><path d="m.46875 0v-4.640625h.625v4.09375h2.28125v.546875zm0 0"/></symbol><symbol id="V" overflow="visible"><path d="m.484375 0v-4.640625h.921875l1.09375 3.28125c.101562.3125.175781.542969.21875.6875.0625-.164063.144531-.410156.25-.734375l1.109375-3.234375h.828125v4.640625h-.59375v-3.890625l-1.34375 3.890625h-.546875l-1.34375-3.953125v3.953125zm0 0"/></symbol><symbol id="W" overflow="visible"><path d="m.5 0v-4.640625h1.75c.3125 0 .546875.015625.703125.046875.226563.03125.421875.105469.578125.21875.15625.105469.28125.257812.375.453125.09375.1875.140625.398437.140625.625 0 .398437-.125.730469-.375 1-.25.273437-.703125.40625-1.359375.40625h-1.203125v1.890625zm.609375-2.4375h1.203125c.394531 0 .675781-.070312.84375-.21875.164062-.144531.25-.351562.25-.625 0-.195312-.054688-.363281-.15625-.5-.09375-.132812-.21875-.222656-.375-.265625-.105469-.03125-.296875-.046875-.578125-.046875h-1.1875zm0 0"/></symbol><symbol id="X" overflow="visible"><path d="m.53125 0v-.578125h.5625v.578125zm0 0"/></symbol><symbol id="Y" overflow="visible"><path d="m.46875 0v-4.125h2.78125v.484375h-2.234375v1.28125h1.9375v.484375h-1.9375v1.875zm0 0"/></symbol><symbol id="Z" overflow="visible"><path d="m2.421875-.96875.53125.078125c-.085937.304687-.242187.539063-.46875.703125-.21875.1679688-.5.25-.84375.25-.4375 0-.789063-.1289062-1.046875-.390625-.25-.269531-.375-.648437-.375-1.140625 0-.5.125-.890625.375-1.171875.257812-.28125.597656-.421875 1.015625-.421875.394531 0 .71875.140625.96875.421875.257813.273437.390625.652344.390625 1.140625v.140625h-2.234375c.019531.324219.113281.574219.28125.75.164063.179687.375.265625.625.265625.1875 0 .34375-.046875.46875-.140625.132813-.101563.238281-.265625.3125-.484375zm-1.65625-.8125h1.671875c-.023438-.25-.089844-.4375-.203125-.5625-.15625-.195312-.367187-.296875-.625-.296875-.230469 0-.429687.078125-.59375.234375-.15625.15625-.242187.367188-.25.625zm0 0"/></symbol><symbol id="aa" overflow="visible"><path d="m2.328125-.375c-.1875.167969-.371094.28125-.546875.34375-.167969.0625-.351562.09375-.546875.09375-.335937 0-.589844-.078125-.765625-.234375-.179688-.15625-.265625-.359375-.265625-.609375 0-.15625.03125-.289062.09375-.40625.070313-.125.160156-.222656.265625-.296875.113281-.070313.238281-.125.375-.15625.09375-.03125.242188-.054687.453125-.078125.40625-.050781.703125-.109375.890625-.171875.007812-.070313.015625-.117187.015625-.140625 0-.207031-.054687-.351562-.15625-.4375-.125-.113281-.3125-.171875-.5625-.171875-.242187 0-.417969.042969-.53125.125-.117187.085937-.199219.234375-.25.453125l-.5-.078125c.039063-.207031.113281-.375.21875-.5.101563-.132813.253906-.238281.453125-.3125.195312-.070313.421875-.109375.671875-.109375.257813 0 .46875.03125.625.09375s.269531.140625.34375.234375c.082031.085937.140625.199219.171875.34375.007812.085937.015625.242187.015625.46875v.671875c0 .46875.007813.765625.03125.890625.019531.125.066406.246094.140625.359375h-.53125c-.054688-.101562-.089844-.226562-.109375-.375zm-.046875-1.125c-.179688.074219-.449219.136719-.8125.1875-.210938.03125-.359375.070312-.453125.109375-.085937.03125-.152344.085937-.203125.15625-.042969.074219-.0625.15625-.0625.25 0 .136719.050781.25.15625.34375.101562.085937.25.125.4375.125.195312 0 .367188-.039063.515625-.125.15625-.082031.269531-.203125.34375-.359375.050781-.113281.078125-.28125.078125-.5zm0 0"/></symbol><symbol id="ab" overflow="visible"><path d="m1.484375-.453125.078125.453125c-.148438.03125-.277344.046875-.390625.046875-.179687 0-.320313-.03125-.421875-.09375-.105469-.0625-.179688-.140625-.21875-.234375-.042969-.09375-.0625-.289062-.0625-.59375v-1.71875h-.375v-.390625h.375v-.75l.515625-.296875v1.046875h.5v.390625h-.5v1.75c0 .148438.003906.242188.015625.28125.019531.042969.050781.074219.09375.09375.039062.023438.097656.03125.171875.03125.050781 0 .125-.003906.21875-.015625zm0 0"/></symbol><symbol id="ac" overflow="visible"/><symbol id="ad" overflow="visible"><path d="m.4375 0v-4.125h1.5625c.269531 0 .476562.011719.625.03125.207031.042969.378906.109375.515625.203125.132813.09375.242187.230469.328125.40625.082031.167969.125.351563.125.546875 0 .355469-.117188.65625-.34375.90625-.21875.242188-.621094.359375-1.203125.359375h-1.0625v1.671875zm.546875-2.171875h1.078125c.351562 0 .601562-.0625.75-.1875.144531-.132813.21875-.320313.21875-.5625 0-.164063-.046875-.3125-.140625-.4375-.085937-.125-.195313-.207031-.328125-.25-.09375-.019531-.265625-.03125-.515625-.03125h-1.0625zm0 0"/></symbol><symbol id="ae" overflow="visible"><path d="m.28125.25.5.078125c.019531.144531.078125.253906.171875.328125.125.09375.296875.140625.515625.140625.226562 0 .40625-.046875.53125-.140625.132812-.09375.222656-.226562.265625-.390625.03125-.105469.046875-.3203125.046875-.65625-.230469.261719-.507812.390625-.828125.390625-.417969 0-.742187-.144531-.96875-.4375-.21875-.300781-.328125-.660156-.328125-1.078125 0-.28125.050781-.539063.15625-.78125.101562-.238281.25-.425781.4375-.5625.195312-.132813.429688-.203125.703125-.203125.351563 0 .644531.148438.875.4375v-.359375h.46875v2.578125c0 .46875-.054687.796875-.15625.984375-.09375.195313-.246094.351563-.453125.46875-.199219.113281-.449219.171875-.75.171875-.355469 0-.640625-.085938-.859375-.25-.21875-.15625-.328125-.398438-.328125-.71875zm.421875-1.796875c0 .398437.078125.683594.234375.859375.15625.179688.351562.265625.59375.265625.226562 0 .421875-.085937.578125-.265625.15625-.175781.234375-.457031.234375-.84375 0-.363281-.085938-.640625-.25-.828125-.15625-.1875-.351562-.28125-.578125-.28125-.230469 0-.421875.09375-.578125.28125-.15625.179687-.234375.449219-.234375.8125zm0 0"/></symbol><symbol id="af" overflow="visible"><path d="m.171875-.890625.5-.078125c.03125.199219.109375.355469.234375.46875.132812.105469.316406.15625.546875.15625.226563 0 .398437-.046875.515625-.140625.113281-.101563.171875-.21875.171875-.34375 0-.113281-.054687-.203125-.15625-.265625-.0625-.039062-.234375-.097656-.515625-.171875-.367188-.09375-.621094-.171875-.765625-.234375-.148437-.070312-.257813-.164062-.328125-.28125-.074219-.125-.109375-.265625-.109375-.421875 0-.125.023437-.242187.078125-.359375.0625-.113281.148438-.207031.265625-.28125.070313-.0625.175781-.113281.3125-.15625.132813-.039062.28125-.0625.4375-.0625.238281 0 .445313.039062.625.109375.175781.0625.304687.152344.390625.265625.082031.117188.140625.273438.171875.46875l-.5.0625c-.023437-.144531-.089844-.257812-.203125-.34375-.105469-.09375-.25-.140625-.4375-.140625-.242188 0-.414062.042969-.515625.125-.09375.074219-.140625.164063-.140625.265625 0 .0625.019531.121094.0625.171875.039062.054687.109375.101563.203125.140625.039063.011719.1875.054688.4375.125.363281.09375.613281.171875.75.234375.144531.0625.253906.152344.328125.265625.082031.117188.125.261719.125.4375 0 .167969-.054688.328125-.15625.484375-.09375.148437-.234375.261719-.421875.34375-.179687.0703125-.386719.109375-.625.109375-.386719 0-.683594-.078125-.890625-.234375-.199219-.164063-.328125-.40625-.390625-.71875zm0 0"/></symbol><symbol id="ag" overflow="visible"><path d="m3.046875-2.421875h-2.71875v-.484375h2.71875zm0 1.25h-2.71875v-.46875h2.71875zm0 0"/></symbol><symbol id="ah" overflow="visible"><path d="m.234375-2.03125c0-.488281.050781-.878906.15625-1.171875.101563-.300781.253906-.53125.453125-.6875.195312-.164063.441406-.25.734375-.25.226563 0 .425781.046875.59375.140625.164063.085938.300781.210938.40625.375.113281.167969.203125.371094.265625.609375.0625.242187.09375.570313.09375.984375 0 .480469-.054688.871094-.15625 1.171875-.105469.292969-.257812.523437-.453125.6875-.199219.16796875-.449219.25-.75.25-.398437 0-.710937-.1445312-.9375-.4375-.273437-.34375-.40625-.898437-.40625-1.671875zm.53125 0c0 .679688.078125 1.132812.234375 1.359375.15625.21875.347656.328125.578125.328125.238281 0 .4375-.109375.59375-.328125.15625-.226563.234375-.679687.234375-1.359375 0-.675781-.078125-1.125-.234375-1.34375-.15625-.226562-.355469-.34375-.59375-.34375-.230469 0-.417969.101562-.5625.296875-.167969.25-.25.714844-.25 1.390625zm0 0"/></symbol><symbol id="ai" overflow="visible"><path d="m.046875 0 1.09375-1.546875-1.015625-1.4375h.625l.46875.703125c.082031.125.148438.234375.203125.328125.082031-.125.160156-.234375.234375-.328125l.5-.703125h.609375l-1.03125 1.40625 1.109375 1.578125h-.625l-.609375-.921875-.171875-.25-.78125 1.171875zm0 0"/></symbol><symbol id="aj" overflow="visible"><path d="m2.875-3.109375-.515625.03125c-.042969-.195313-.105469-.34375-.1875-.4375-.136719-.144531-.304687-.21875-.5-.21875-.167969 0-.3125.046875-.4375.140625-.15625.117188-.28125.289062-.375.515625-.09375.21875-.140625.539063-.140625.953125.125-.1875.273438-.320312.453125-.40625.175781-.09375.359375-.140625.546875-.140625.34375 0 .628906.125.859375.375.238281.242187.359375.558594.359375.953125 0 .261719-.058594.507812-.171875.734375-.105469.21875-.257813.390625-.453125.515625-.199219.1132812-.417969.171875-.65625.171875-.429688 0-.777344-.15625-1.046875-.46875-.261719-.3125-.390625-.828125-.390625-1.546875 0-.789062.144531-1.367188.4375-1.734375.257812-.3125.609375-.46875 1.046875-.46875.320313 0 .585937.09375.796875.28125.207031.179687.332031.429687.375.75zm-2.078125 1.765625c0 .179688.035156.351562.109375.515625.070312.15625.175781.277344.3125.359375.132812.085938.273438.125.421875.125.21875 0 .398437-.082031.546875-.25.15625-.175781.234375-.414062.234375-.71875 0-.28125-.078125-.503906-.234375-.671875-.148438-.164063-.335938-.25-.5625-.25-.230469 0-.429688.085937-.59375.25-.15625.167969-.234375.382813-.234375.640625zm0 0"/></symbol><symbol id="ak" overflow="visible"><path d="m2.90625-.484375v.484375h-2.734375c0-.125.019531-.242188.0625-.359375.070313-.175781.179687-.351563.328125-.53125.15625-.1875.378906-.398437.671875-.640625.445313-.363281.75-.648438.90625-.859375.15625-.21875.234375-.425781.234375-.625 0-.195313-.074219-.363281-.21875-.5-.136719-.132813-.324219-.203125-.5625-.203125-.242188 0-.433594.074219-.578125.21875-.148437.148438-.21875.351562-.21875.609375l-.53125-.0625c.039063-.382813.175781-.675781.40625-.875.226563-.207031.539063-.3125.9375-.3125.394531 0 .707031.109375.9375.328125.226563.21875.34375.492188.34375.8125 0 .167969-.039063.335938-.109375.5-.0625.15625-.171875.324219-.328125.5-.15625.167969-.417969.40625-.78125.71875-.304687.261719-.496094.4375-.578125.53125-.085938.085938-.15625.171875-.21875.265625zm0 0"/></symbol><symbol id="al" overflow="visible"><path d="m.28125-2.015625c0-.675781.179688-1.207031.546875-1.59375.363281-.394531.835937-.59375 1.421875-.59375.382812 0 .726562.09375 1.03125.28125.3125.179687.546875.433594.703125.765625.15625.324219.234375.6875.234375 1.09375 0 .417969-.085938.792969-.25 1.125-.167969.335938-.40625.589844-.71875.765625-.304688.16796875-.636719.25-1 .25-.386719 0-.734375-.09375-1.046875-.28125-.304687-.195313-.53125-.457031-.6875-.78125-.15625-.320313-.234375-.664063-.234375-1.03125zm.5625.015625c0 .5.128906.898438.390625 1.1875.269531.28125.609375.421875 1.015625.421875s.738281-.144531 1-.4375c.269531-.289063.40625-.703125.40625-1.234375 0-.332031-.058594-.625-.171875-.875-.105469-.25-.265625-.441406-.484375-.578125-.21875-.144531-.464844-.21875-.734375-.21875-.398437 0-.734375.136719-1.015625.40625-.273438.261719-.40625.703125-.40625 1.328125zm0 0"/></symbol><symbol id="am" overflow="visible"><path d="m.375 1.140625v-4.125h.46875v.390625c.101562-.15625.222656-.269531.359375-.34375.144531-.082031.3125-.125.5-.125.257813 0 .484375.070312.671875.203125.195312.136719.34375.324219.4375.5625.101562.230469.15625.492187.15625.78125 0 .304687-.058594.578125-.171875.828125-.105469.242188-.261719.429688-.46875.5625-.210937.125-.429687.1875-.65625.1875-.167969 0-.320313-.03125-.453125-.09375-.136719-.070312-.246094-.164062-.328125-.28125v1.453125zm.46875-2.625c0 .386719.078125.671875.234375.859375s.34375.28125.5625.28125.40625-.09375.5625-.28125c.164063-.195312.25-.492188.25-.890625 0-.382813-.078125-.671875-.234375-.859375s-.34375-.28125-.5625-.28125c-.210938 0-.398438.101562-.5625.296875-.167969.199219-.25.492187-.25.875zm0 0"/></symbol><symbol id="an" overflow="visible"><path d="m2.328125-1.09375.5.0625c-.054687.34375-.195313.617188-.421875.8125-.21875.1875-.496094.28125-.828125.28125-.40625 0-.734375-.1289062-.984375-.390625-.25-.269531-.375-.65625-.375-1.15625 0-.320313.050781-.601563.15625-.84375.113281-.238281.28125-.421875.5-.546875s.457031-.1875.71875-.1875c.320312 0 .582031.085938.78125.25.207031.167969.34375.402344.40625.703125l-.5.078125c-.042969-.207031-.125-.359375-.25-.453125-.117188-.101563-.257812-.15625-.421875-.15625-.261719 0-.46875.09375-.625.28125-.15625.179687-.234375.464844-.234375.859375 0 .40625.070312.703125.21875.890625.15625.179687.359375.265625.609375.265625.195313 0 .363281-.0625.5-.1875.132813-.125.21875-.3125.25-.5625zm0 0"/></symbol><symbol id="ao" overflow="visible"><path d="m.1875-1.5c0-.550781.15625-.957031.46875-1.21875.25-.226562.5625-.34375.9375-.34375.40625 0 .738281.136719 1 .40625.269531.273438.40625.648438.40625 1.125 0 .386719-.0625.6875-.1875.90625-.117188.21875-.28125.390625-.5.515625-.21875.11328125-.460938.171875-.71875.171875-.417969 0-.757812-.1289062-1.015625-.390625-.261719-.269531-.390625-.660156-.390625-1.171875zm.53125 0c0 .386719.082031.679688.25.875.164062.1875.375.28125.625.28125s.457031-.09375.625-.28125c.164062-.195312.25-.492188.25-.890625 0-.363281-.085938-.640625-.25-.828125-.167969-.195312-.375-.296875-.625-.296875s-.460938.101563-.625.296875c-.167969.1875-.25.46875-.25.84375zm0 0"/></symbol><symbol id="ap" overflow="visible"><path d="m2.3125 0v-.375c-.1875.2929688-.464844.4375-.828125.4375-.242187 0-.460937-.0625-.65625-.1875-.199219-.132812-.355469-.316406-.46875-.546875-.105469-.238281-.15625-.507813-.15625-.8125 0-.300781.046875-.570313.140625-.8125.101562-.25.253906-.4375.453125-.5625.195313-.132813.421875-.203125.671875-.203125.175781 0 .332031.042969.46875.125.144531.074219.257812.171875.34375.296875v-1.484375h.515625v4.125zm-1.59375-1.484375c0 .375.078125.664063.234375.859375.164063.1875.359375.28125.578125.28125s.40625-.085938.5625-.265625c.15625-.1875.234375-.46875.234375-.84375 0-.40625-.078125-.703125-.234375-.890625-.15625-.195312-.351562-.296875-.578125-.296875-.230469 0-.421875.09375-.578125.28125-.148438.179687-.21875.46875-.21875.875zm0 0"/></symbol><symbol id="aq" overflow="visible"><path d="m1.5 0v-3.640625h-1.359375v-.484375h3.265625v.484375h-1.359375v3.640625zm0 0"/></symbol><symbol id="ar" overflow="visible"><path d="m.53125 0v-4.125h.546875v4.125zm0 0"/></symbol><symbol id="as" overflow="visible"><path d="m.4375 0v-4.125h1.421875c.320313 0 .566406.023438.734375.0625.238281.054688.441406.152344.609375.296875.21875.179687.378906.414063.484375.703125.113281.28125.171875.605469.171875.96875 0 .324219-.039063.605469-.109375.84375-.074219.242188-.167969.445312-.28125.609375-.117188.15625-.242188.28125-.375.375-.136719.085937-.304688.152344-.5.203125-.1875.0429688-.40625.0625-.65625.0625zm.546875-.484375h.890625c.269531 0 .484375-.023437.640625-.078125.15625-.050781.28125-.125.375-.21875.125-.125.222656-.296875.296875-.515625.070312-.21875.109375-.484375.109375-.796875 0-.425781-.074219-.753906-.21875-.984375-.136719-.238281-.308594-.398437-.515625-.484375-.148438-.050781-.382812-.078125-.703125-.078125h-.875zm0 0"/></symbol><symbol id="at" overflow="visible"><path d="m-.015625 0 1.59375-4.125h.59375l1.6875 4.125h-.625l-.484375-1.25h-1.71875l-.453125 1.25zm1.203125-1.6875h1.390625l-.421875-1.15625c-.136719-.34375-.234375-.625-.296875-.84375-.054687.261719-.125.523438-.21875.78125zm0 0"/></symbol><symbol id="au" overflow="visible"><path d="m3.390625-1.453125.546875.140625c-.117188.449219-.324219.792969-.625 1.03125-.292969.2421875-.652344.359375-1.078125.359375-.449219 0-.8125-.0859375-1.09375-.265625-.28125-.1875-.496094-.453125-.640625-.796875-.148438-.34375-.21875-.710937-.21875-1.109375 0-.425781.082031-.800781.25-1.125.164062-.320312.398438-.566406.703125-.734375.300781-.164063.632813-.25 1-.25.414063 0 .765625.109375 1.046875.328125.28125.210938.472656.5.578125.875l-.53125.125c-.09375-.289062-.234375-.503906-.421875-.640625-.179688-.144531-.40625-.21875-.6875-.21875-.3125 0-.578125.078125-.796875.234375-.210937.148438-.359375.351562-.453125.609375-.085938.261719-.125.527344-.125.796875 0 .34375.050781.652344.15625.921875.101562.261719.257812.460937.46875.59375.21875.125.457031.1875.71875.1875.300781 0 .554688-.085937.765625-.265625.21875-.175781.363281-.441406.4375-.796875zm0 0"/></symbol><symbol id="av" overflow="visible"><path d="m.421875 0v-4.125h.546875v3.640625h2.03125v.484375zm0 0"/></symbol><symbol id="aw" overflow="visible"><path d="m.46875 0v-4.125h.546875v1.6875h2.140625v-1.6875h.546875v4.125h-.546875v-1.953125h-2.140625v1.953125zm0 0"/></symbol><symbol id="ax" overflow="visible"><path d="m.375 0v-2.984375h.453125v.453125c.113281-.21875.21875-.359375.3125-.421875.101563-.070313.21875-.109375.34375-.109375.164063 0 .335937.058594.515625.171875l-.171875.46875c-.125-.070313-.25-.109375-.375-.109375-.117187 0-.21875.039062-.3125.109375-.085937.0625-.140625.152344-.171875.265625-.0625.179688-.09375.375-.09375.59375v1.5625zm0 0"/></symbol><symbol id="ay" overflow="visible"><path d="m.421875 0v-4.125h1.546875c.3125 0 .5625.042969.75.125.195312.085938.347656.214844.453125.390625.113281.167969.171875.34375.171875.53125 0 .179687-.054688.34375-.15625.5-.09375.15625-.234375.28125-.421875.375.25.074219.4375.199219.5625.375.132813.179687.203125.386719.203125.625 0 .199219-.042969.382813-.125.546875-.074219.167969-.171875.296875-.296875.390625-.117187.085937-.265625.152344-.453125.203125-.179688.0429688-.398438.0625-.65625.0625zm.546875-2.390625h.890625c.238281 0 .410156-.015625.515625-.046875.144531-.039062.25-.109375.3125-.203125.070312-.101563.109375-.222656.109375-.359375 0-.144531-.03125-.269531-.09375-.375-.0625-.101562-.15625-.171875-.28125-.203125-.125-.039063-.335937-.0625-.625-.0625h-.828125zm0 1.90625h1.03125c.175781 0 .300781-.003906.375-.015625.125-.03125.226562-.070312.3125-.125.082031-.050781.148438-.125.203125-.21875.050781-.101562.078125-.222656.078125-.359375 0-.144531-.042969-.273437-.125-.390625-.074219-.113281-.183594-.191406-.328125-.234375-.136719-.050781-.335937-.078125-.59375-.078125h-.953125zm0 0"/></symbol><g clip-path="url(#a)"><path d="m0 0h168v107.433594h-168zm0 0" fill="#fff"/></g><g clip-path="url(#b)"><path d="m5.226562 15.503906h153.21875c.359376 0 .703126.066406 1.035157.203125s.625.332031.878906.585938c.253906.253906.449219.546875.585937.878906.136719.332031.203126.675781.203126 1.035156v84.71875c0 .359375-.066407.703125-.203126 1.035157-.136718.332031-.332031.625-.585937.878906s-.546875.449218-.878906.585937-.675781.207031-1.035157.207031h-153.21875c-.359374 0-.703124-.070312-1.035156-.207031-.328125-.136719-.621094-.332031-.875-.585937s-.449218-.546875-.585937-.878906c-.136719-.332032-.207031-.675782-.207031-1.035157v-84.71875c0-.359375.070312-.703125.207031-1.035156s.332031-.625.585937-.878906c.253906-.253907.546875-.449219.875-.585938.332032-.136719.675782-.203125 1.035156-.203125zm0 0" fill="#dae8fc" fill-opacity=".302"/></g><g clip-path="url(#c)"><path d="m6.748745 21.002443h212.499826c.498419 0 .975167.092099 1.435663.281715s.866816.460495 1.218959.812639c.352144.352144.623024.758464.81264 1.21896.189616.460495.281715.937244.281715 1.435663v117.496844c0 .498419-.092099.975168-.281715 1.435663-.189616.460496-.460496.866816-.81264 1.21896-.352143.352144-.758463.623023-1.218959.812639s-.937244.287133-1.435663.287133h-212.499826c-.498419 0-.975168-.097517-1.435663-.287133-.455079-.189616-.861398-.460495-1.213542-.812639s-.623024-.758464-.81264-1.21896c-.189616-.460495-.287132-.937244-.287132-1.435663v-117.496844c0-.498419.097516-.975168.287132-1.435663.189616-.460496.460496-.866816.81264-1.21896s.758463-.623023 1.213542-.812639c.460495-.189616.937244-.281715 1.435663-.281715zm0 0" fill="none" stroke="#6c8ebf" stroke-opacity=".302" transform="matrix(.72103 0 0 .72103 .360515 .360515)"/></g><path d="m146.3125 2.992188c-.203125.1875-.519531.214843-.742188-.050782-.160156-.207031-.082031-.453125.050782-.578125.777344-.75 2.011718-1.28125 3.308594-1.265625 1.507812.019532 2.585937.625 3.285156 1.273438.21875.226562.152344.503906-.035156.644531-.222657.164063-.496094.164063-.691407-.039063-.632812-.582031-1.515625-.972656-2.480469-.992187-.910156-.023437-1.890624.25-2.695312 1.007813zm1.238281 1.246093c-.207031.179688-.511719.152344-.691406-.054687-.121094-.144532-.164063-.390625.023437-.578125.496094-.496094 1.261719-.800781 2.015626-.800781.835937.015624 1.542968.347656 2.019531.84375.160156.214843.085937.441406-.0625.585937-.132813.140625-.449219.199219-.679688-.023437-.324219-.304688-.777343-.496094-1.28125-.496094-.515625 0-.996093.1875-1.34375.523437zm10.355469 12.972657h-18.027344v-12.011719h18.027344zm-7.015625.945312c.164063.179688.136719.402344.015625.546875-.515625.5625-1.308594.824219-1.984375.824219-.785156 0-1.507813-.28125-2.035156-.78125-.171875-.171875-.199219-.4375.039062-.648438.199219-.164062.460938-.136718.632813.015625.304687.289063.773437.523438 1.347656.519531.628906-.015624 1.046875-.28125 1.34375-.554687.121094-.09375.417969-.175781.640625.078125zm1.296875 1.792969c-.800781.800781-2.003906 1.320312-3.28125 1.320312-1.210938 0-2.414062-.425781-3.335938-1.324219-.109374-.117187-.210937-.382812.050782-.621093.199218-.167969.480468-.160157.667968.035156.6875.628906 1.574219.996094 2.617188 1.003906 1.203125-.023437 2.046875-.527343 2.582031-1.019531.160157-.144531.425781-.214844.671875-.003906.15625.15625.207032.402344.027344.609375zm0 0" fill="#5294cf"/><path d="m139.878906 16.488281h18.027344v.722657h-18.027344zm0 0" fill-opacity=".302"/><path d="m157.90625 13.960938h-3.035156c-.179688 0-.355469-.160157-.355469-.347657v-1.269531c-.199219-.078125-.53125-.332031-.53125-.769531 0-.457031.386719-.832031.914063-.832031.398437 0 .871093.3125.871093.832031 0 .34375-.214843.632812-.53125.769531v.929688h2.667969zm-5.609375 1.734374c-.175781 0-.355469-.148437-.355469-.335937v-3.015625c-.171875-.070312-.503906-.289062-.523437-.75-.015625-.34375.285156-.871094.921875-.851562.488281.023437.851562.390624.855468.832031-.003906.34375-.214843.640625-.53125.761719v2.683593h5.242188v.675781zm-1.242187-10.496093v2.507812h1.535156v-1.417969c0-.195312.152344-.371093.390625-.371093h3.785156c.238281 0 .390625.175781.390625.363281v3.589844c0 .152344-.152344.351562-.382812.351562h-3.800782c-.199218 0-.382812-.148437-.382812-.359375v-1.476562h-3.726563c-.121093.265625-.417969.496093-.8125.496093-.5 0-.886719-.375-.886719-.84375 0-.433593.367188-.828124.90625-.828124.324219 0 .664063.203124.792969.496093h1.472657v-2.507812zm-5.261719 0h.71875v5.113281l1.34375 1.261719.640625-.601563c-.09375-.230468-.101563-.582031.179687-.878906.398438-.367188.910157-.296875 1.183594-.09375.445313.324219.453125.894531.121094 1.234375-.292969.308594-.710938.324219-.972657.222656l-.640624.597657 1.136718 1.074218c.289063-.101562.664063-.078125.945313.179688.449219.433594.273437.988281-.035157 1.234375-.410156.324219-.964843.246093-1.269531-.09375-.152343-.179688-.28125-.484375-.152343-.828125l-3.113282-2.933594c-.058594-.050781-.085937-.140625-.085937-.238281zm-4.757813 0h.71875v2.507812h1.253906c.160157-.324219.492188-.496093.808594-.496093.503906 0 .894532.382812.894532.835937 0 .417969-.339844.835937-.914063.835937-.246094 0-.613281-.136718-.789063-.496093h-1.253906v2.695312l2.207032 2.078125c.433593-.175781 1.023437 0 1.195312.546875.160156.578125-.292969 1.089844-.890625 1.058594-.328125-.007813-.703125-.207031-.824219-.613281-.042968-.164063-.035156-.34375.015625-.488282l-2.324219-2.191406c-.054687-.050781-.097656-.125-.097656-.261718zm5.796875 11.289062v-2.441406l-2.753906-2.582031c-.421875.136718-.824219-.023438-1.027344-.304688-.285156-.386718-.199219-.90625.230469-1.1875.40625-.246094.902344-.144531 1.175781.171875.269531.308594.226563.65625.136719.84375l2.957031 2.761719v2.738281zm-5.777343 0v-1.785156c-.238282-.09375-.527344-.375-.527344-.757813 0-.542968.46875-.851562.882812-.851562.488282 0 .890625.351562.890625.835938 0 .324218-.191406.628906-.515625.773437v1.785156zm0 0" fill="#fff"/><g><use x="7.2103" xlink:href="#e" y="12.97854"/><use x="14.417783" xlink:href="#f" y="12.97854"/><use x="19.229814" xlink:href="#g" y="12.97854"/><use x="23.555994" xlink:href="#h" y="12.97854"/><use x="25.959897" xlink:href="#i" y="12.97854"/><use x="30.771927" xlink:href="#j" y="12.97854"/><use x="33.65323" xlink:href="#k" y="12.97854"/><use x="36.057133" xlink:href="#l" y="12.97854"/><use x="38.938436" xlink:href="#m" y="12.97854"/><use x="44.709493" xlink:href="#h" y="12.97854"/><use x="47.113396" xlink:href="#h" y="12.97854"/><use x="49.517299" xlink:href="#f" y="12.97854"/><use x="54.329329" xlink:href="#n" y="12.97854"/><use x="58.655509" xlink:href="#o" y="12.97854"/><use x="62.981689" xlink:href="#i" y="12.97854"/><use x="67.793719" xlink:href="#j" y="12.97854"/><use x="70.675023" xlink:href="#p" y="12.97854"/></g><path d="m1.441406 101.664062v-4.324218h1.441406v4.324218m-1.441406-8.652343v-4.324219h1.441406v4.324219m-1.441406-8.652344v-4.324219h1.441406v4.324219m-1.441406-8.652344v-4.324219h1.441406v4.324219m-1.441406-8.652343v-4.324219h1.441406v4.324219m-1.441406-8.652344v-4.324219h1.441406v4.324219m-1.441406-8.652344v-4.324219h1.441406v4.324219m-1.441406-8.652344v-4.324218h1.441406v4.324218m-1.441406-8.652344v-4.324218h1.441406v4.324218m-1.441406-8.652343v-4.324219h1.441406v4.324219m-1.441406-8.652344v-4.324219h1.441406v4.324219m-1.441406-8.652344v-4.324219h1.441406v4.324219"/><path d="m160.070312 101.664062v-4.324218h1.441407v4.324218m-1.441407-8.652343v-4.324219h1.441407v4.324219m-1.441407-8.652344v-4.324219h1.441407v4.324219m-1.441407-8.652344v-4.324219h1.441407v4.324219m-1.441407-8.652343v-4.324219h1.441407v4.324219m-1.441407-8.652344v-4.324219h1.441407v4.324219m-1.441407-8.652344v-4.324219h1.441407v4.324219m-1.441407-8.652344v-4.324218h1.441407v4.324218m-1.441407-8.652344v-4.324218h1.441407v4.324218m-1.441407-8.652343v-4.324219h1.441407v4.324219m-1.441407-8.652344v-4.324219h1.441407v4.324219m-1.441407-8.652344v-4.324219h1.441407v4.324219"/><g><use x="115.3648" xlink:href="#q" y="12.97854"/><use x="121.135857" xlink:href="#r" y="12.97854"/><use x="123.058134" xlink:href="#f" y="12.97854"/><use x="127.870164" xlink:href="#s" y="12.97854"/><use x="132.196344" xlink:href="#i" y="12.97854"/></g><path d="m157.183594 47.589844h-4.324219v-1.445313h4.324219m-8.652344 1.445313h-4.324219v-1.445313h4.324219m-8.652344 1.445313h-4.324218v-1.445313h4.324218m-8.652344 1.445313h-4.324218v-1.445313h4.324218m-8.652343 1.445313h-4.324219v-1.445313h4.324219m-8.652344 1.445313h-4.324219v-1.445313h4.324219m-8.652344 1.445313h-4.324219v-1.445313h4.324219m-8.652343 1.445313h-4.324219v-1.445313h4.324219m-8.652344 1.445313h-4.324219v-1.445313h4.324219m-8.652344 1.445313h-4.324219v-1.445313h4.324219m-8.652344 1.445313h-4.324218v-1.445313h4.324218m-8.652344 1.445313h-4.324218v-1.445313h4.324218m-8.652343 1.445313h-4.324219v-1.445313h4.324219m-8.652344 1.445313h-.546875v-1.445313h.546875"/><path d="m55.237819 65.000329 8.001791-3.998186-1.999093 3.998186 1.999093 3.998187zm0 0" stroke="#000" stroke-miterlimit="10" stroke-width="2" transform="scale(.72103)"/><g><use x="61.28755" xlink:href="#t" y="43.98283"/><use x="66.09958" xlink:href="#e" y="43.98283"/><use x="73.307064" xlink:href="#u" y="43.98283"/><use x="79.07812" xlink:href="#v" y="43.98283"/><use x="83.890151" xlink:href="#w" y="43.98283"/><use x="86.294053" xlink:href="#i" y="43.98283"/><use x="91.106084" xlink:href="#f" y="43.98283"/><use x="95.918114" xlink:href="#h" y="43.98283"/><use x="98.322017" xlink:href="#x" y="43.98283"/><use x="103.134047" xlink:href="#j" y="43.98283"/><use x="106.015351" xlink:href="#i" y="43.98283"/><use x="110.827381" xlink:href="#g" y="43.98283"/><use x="115.153561" xlink:href="#v" y="43.98283"/><use x="119.965591" xlink:href="#j" y="43.98283"/><use x="122.846895" xlink:href="#i" y="43.98283"/><use x="127.658925" xlink:href="#y" y="43.98283"/><use x="132.470955" xlink:href="#v" y="43.98283"/><use x="137.282985" xlink:href="#i" y="43.98283"/><use x="142.095016" xlink:href="#z" y="43.98283"/><use x="146.421196" xlink:href="#h" y="43.98283"/></g><path d="m81.476562 14.78125v-.722656h.722657v.722656m-.722657-2.882812v-.722657h.722657v.722657m-.722657-2.886719v-.71875h.722657v.71875m-.722657-2.882813v-.722656h.722657v.722656"/><g><use x="7.2103" xlink:href="#t" y="62.00858"/><use x="12.02233" xlink:href="#e" y="62.00858"/><use x="19.229814" xlink:href="#u" y="62.00858"/><use x="25.00087" xlink:href="#v" y="62.00858"/><use x="29.812901" xlink:href="#w" y="62.00858"/><use x="32.216803" xlink:href="#i" y="62.00858"/><use x="37.028834" xlink:href="#f" y="62.00858"/><use x="41.840864" xlink:href="#h" y="62.00858"/><use x="44.244767" xlink:href="#x" y="62.00858"/><use x="49.056797" xlink:href="#j" y="62.00858"/><use x="51.9381" xlink:href="#i" y="62.00858"/><use x="56.750131" xlink:href="#g" y="62.00858"/><use x="61.076311" xlink:href="#v" y="62.00858"/><use x="65.888341" xlink:href="#j" y="62.00858"/><use x="68.769644" xlink:href="#i" y="62.00858"/><use x="73.581675" xlink:href="#g" y="62.00858"/><use x="77.907855" xlink:href="#v" y="62.00858"/><use x="82.719885" xlink:href="#i" y="62.00858"/><use x="87.531915" xlink:href="#z" y="62.00858"/><use x="91.858095" xlink:href="#h" y="62.00858"/></g><path d="m6.128906 84 25.234375-17.304688h100.945313l25.238281 17.304688zm0 0" fill="#f5f5f5"/><path d="m9.492188 81.257812 1.785156-1.226562.40625.597656-1.78125 1.222656zm3.570312-2.449218 1.78125-1.222656.410156.59375-1.785156 1.222656zm3.566406-2.445313 1.785156-1.222656.40625.59375-1.785156 1.222656zm3.566406-2.445312 1.785157-1.226563.40625.597656-1.78125 1.222657zm3.570313-2.449219 1.78125-1.222656.410156.59375-1.785156 1.222656zm3.566406-2.445312 1.785157-1.222657.40625.59375-1.785157 1.222657zm3.566407-2.445313.355468-.242187h1.957032v.71875h-1.847657v-.359376l.207031.296876-.261718.179687zm4.476562-.242187h2.164062v.71875h-2.164062zm4.328125 0h2.160156v.71875h-2.160156zm4.324219 0h2.164062v.71875h-2.164062zm4.328125 0h2.160156v.71875h-2.160156zm4.324219 0h2.164062v.71875h-2.164062zm4.328124 0h2.160157v.71875h-2.160157zm4.324219 0h2.164063v.71875h-2.164063zm4.328125 0h2.160156v.71875h-2.160156zm4.324219 0h2.164063v.71875h-2.164063zm4.328125 0h2.160156v.71875h-2.160156zm4.324219 0h2.164062v.71875h-2.164062zm4.328125 0h2.160156v.71875h-2.160156zm4.324218 0h2.164063v.71875h-2.164063zm4.328126 0h2.160156v.71875h-2.160156zm4.324218 0h2.164063v.71875h-2.164063zm4.328125 0h2.160157v.71875h-2.160157zm4.324219 0h2.164062v.71875h-2.164062zm4.328125 0h2.160156v.71875h-2.160156zm4.324219 0h2.164062v.71875h-2.164062zm4.328125 0h2.160156v.71875h-2.160156zm4.324219 0h2.164062v.71875h-2.164062zm4.328124 0h2.160157v.71875h-2.160157zm4.324219 0h1.871094l.425781.292968-.410156.59375-.332031-.230468.203125-.296876v.359376h-1.757813zm4.082031 1.515624 1.78125 1.222657-.40625.59375-1.785156-1.222657zm3.566407 2.445313 1.785156 1.222656-.410156.59375-1.78125-1.222656zm3.566406 2.445313 1.785156 1.222656-.40625.597656-1.785156-1.222656zm3.570313 2.449218 1.78125 1.222656-.40625.59375-1.785157-1.222656zm3.566406 2.445313 1.785156 1.222656-.410156.59375-1.78125-1.222656zm3.566406 2.445312 1.785156 1.222657-.40625.597656-1.785156-1.222656zm3.570312 2.449219 2.667969 1.828125h-1.25v-.71875h.089844v.359375l-.207031.296875-1.710938-1.171875zm-.746093 1.828125h-2.164063v-.71875h2.164063zm-4.328125 0h-2.160156v-.71875h2.160156zm-4.324219 0h-2.164063v-.71875h2.164063zm-4.328125 0h-2.160156v-.71875h2.160156zm-4.324219 0h-2.164062v-.71875h2.164062zm-4.328125 0h-2.160156v-.71875h2.160156zm-4.324218 0h-2.164063v-.71875h2.164063zm-4.328126 0h-2.160156v-.71875h2.160156zm-4.324218 0h-2.164063v-.71875h2.164063zm-4.328125 0h-2.160157v-.71875h2.160157zm-4.324219 0h-2.164062v-.71875h2.164062zm-4.328125 0h-2.160156v-.71875h2.160156zm-4.324219 0h-2.164062v-.71875h2.164062zm-4.328125 0h-2.160156v-.71875h2.160156zm-4.324219 0h-2.164062v-.71875h2.164062zm-4.328124 0h-2.160157v-.71875h2.160157zm-4.324219 0h-2.164063v-.71875h2.164063zm-4.328125 0h-2.160156v-.71875h2.160156zm-4.324219 0h-2.164063v-.71875h2.164063zm-4.328125 0h-2.160156v-.71875h2.160156zm-4.324219 0h-2.164062v-.71875h2.164062zm-4.328125 0h-2.160156v-.71875h2.160156zm-4.324218 0h-2.164063v-.71875h2.164063zm-4.328126 0h-2.160156v-.71875h2.160156zm-4.324218 0h-2.164063v-.71875h2.164063zm-4.328125 0h-2.160157v-.71875h2.160157zm-4.324219 0h-2.164062v-.71875h2.164062zm-4.328125 0h-2.160156v-.71875h2.160156zm-4.324219 0h-2.164062v-.71875h2.164062zm-4.328125 0h-2.160156v-.71875h2.160156zm-4.324219 0h-2.164062v-.71875h2.164062zm-4.328124 0h-2.160157v-.71875h2.160157zm-4.324219 0h-2.164063v-.71875h2.164063zm-4.328125 0h-2.160156v-.71875h2.160156zm-4.324219 0h-3.238281l2.742187-1.878906.410157.59375-1.785157 1.222656-.203125-.296875v-.359375h2.074219zm0 0" fill="#666"/><path d="m8.001791 90.999377h141.756844" fill="none" stroke="#b85450" stroke-miterlimit="10" stroke-width="2" transform="scale(.72103)"/><path d="m155.761332 90.999377-8.00179 3.998187 1.999093-3.998187-1.999093-3.998186zm0 0" fill="#b85450" stroke="#b85450" stroke-miterlimit="10" stroke-width="2" transform="scale(.72103)"/><path d="m141.683594 87.605469h4.203125l3.007812 4.269531 3.003907-4.269531h4.203124l-5.101562 7.210937 5.101562 7.210938h-4.203124l-3.003907-4.269532-3.007812 4.269532h-4.203125l4.808594-7.210938zm0 0" fill="#f8cecc"/><g clip-path="url(#d)"><path d="m196.001662 121.000449h5.829334l4.17155 5.921433 4.166132-5.921433h5.829335l-7.075382 10.000884 7.075382 10.000884h-5.829335l-4.166132-5.921434-4.17155 5.921434h-5.829334l6.669062-10.000884zm0 0" fill="none" stroke="#b85450" stroke-miterlimit="10" transform="matrix(.72103 0 0 .72103 .360515 .360515)"/></g><g fill="#c00"><use x="58.549889" xlink:href="#B" y="100.22317"/><use x="63.756937" xlink:href="#C" y="100.22317"/><use x="68.963985" xlink:href="#D" y="100.22317"/><use x="73.773199" xlink:href="#E" y="100.22317"/><use x="75.776451" xlink:href="#F" y="100.22317"/><use x="77.779703" xlink:href="#E" y="100.22317"/><use x="79.782956" xlink:href="#G" y="100.22317"/><use x="84.990003" xlink:href="#H" y="100.22317"/><use x="89.000028" xlink:href="#I" y="100.22317"/><use x="93.010054" xlink:href="#J" y="100.22317"/><use x="97.414392" xlink:href="#K" y="100.22317"/><use x="99.417644" xlink:href="#L" y="100.22317"/><use x="103.821983" xlink:href="#M" y="100.22317"/><use x="107.832008" xlink:href="#N" y="100.22317"/><use x="111.842033" xlink:href="#E" y="100.22317"/><use x="113.845286" xlink:href="#F" y="100.22317"/><use x="115.848538" xlink:href="#E" y="100.22317"/><use x="117.85179" xlink:href="#C" y="100.22317"/><use x="123.058838" xlink:href="#O" y="100.22317"/><use x="125.8648" xlink:href="#I" y="100.22317"/><use x="129.874825" xlink:href="#P" y="100.22317"/><use x="133.88485" xlink:href="#Q" y="100.22317"/></g><g fill="#c00"><use x="114.64377" xlink:href="#R" y="64.8927"/><use x="120.650007" xlink:href="#S" y="64.8927"/><use x="125.054345" xlink:href="#T" y="64.8927"/><use x="127.455431" xlink:href="#I" y="64.8927"/><use x="131.465456" xlink:href="#T" y="64.8927"/><use x="133.866543" xlink:href="#H" y="64.8927"/><use x="137.876568" xlink:href="#J" y="64.8927"/></g><g><use x="96.798278" xlink:href="#U" y="92.29184"/><use x="100.4073" xlink:href="#V" y="92.29184"/><use x="105.812913" xlink:href="#W" y="92.29184"/></g><g stroke-miterlimit="10"><path d="m188.001452 38.827918 26.757512.130022" fill="none" stroke="#6c8ebf" stroke-width="2" transform="scale(.72103)"/><path d="m220.761662 38.990446-8.012626 3.960263 2.009928-3.992769-1.977423-4.009022zm0 0" fill="#6c8ebf" stroke="#6c8ebf" stroke-width="2" transform="scale(.72103)"/><path d="m198.000755 98.999587h15.001327l5.000442 5.000442v10.000884h-15.001327l-5.000442-5.000442zm0 0" fill="#cce5ff" stroke="#36393d" transform="matrix(.72103 0 0 .72103 .360515 .360515)"/></g><path d="m143.125 71.742188h10.816406l3.605469 3.605468h-10.816406zm0 0" fill-opacity=".051"/><path d="m143.125 71.742188 3.605469 3.605468v7.210938l-3.605469-3.605469zm0 0" fill-opacity=".102"/><path d="m203.001197 114.000913v-10.000884l-5.000442-5.000442m5.000442 5.000442h15.001327" fill="none" stroke="#36393d" stroke-miterlimit="10" transform="matrix(.72103 0 0 .72103 .360515 .360515)"/><g><use x="148.565982" xlink:href="#X" y="80.75536"/><use x="150.168584" xlink:href="#X" y="80.75536"/><use x="151.771186" xlink:href="#X" y="80.75536"/><use x="153.373788" xlink:href="#X" y="80.75536"/></g><path d="m126.997729 98.999587h71.003026l5.000442 5.000442v10.000884h-71.003026l-5.000442-5.000442zm0 0" fill="#cce5ff" stroke="#36393d" stroke-miterlimit="10" transform="matrix(.72103 0 0 .72103 .360515 .360515)"/><path d="m91.929688 71.742188h51.195312l3.605469 3.605468h-51.195313zm0 0" fill-opacity=".051"/><path d="m91.929688 71.742188 3.605468 3.605468v7.210938l-3.605468-3.605469zm0 0" fill-opacity=".102"/><path d="m131.998171 114.000913v-10.000884l-5.000442-5.000442m5.000442 5.000442h71.003026" fill="none" stroke="#36393d" stroke-miterlimit="10" transform="matrix(.72103 0 0 .72103 .360515 .360515)"/><g fill="#f00"><use x="97.28272" xlink:href="#Y" y="80.75536"/><use x="100.806191" xlink:href="#Z" y="80.75536"/><use x="104.014211" xlink:href="#aa" y="80.75536"/><use x="107.222231" xlink:href="#ab" y="80.75536"/><use x="108.824833" xlink:href="#X" y="80.75536"/><use x="110.427435" xlink:href="#ac" y="80.75536"/><use x="112.030036" xlink:href="#ad" y="80.75536"/><use x="115.877408" xlink:href="#aa" y="80.75536"/><use x="119.085428" xlink:href="#ae" y="80.75536"/><use x="122.293448" xlink:href="#Z" y="80.75536"/><use x="125.501468" xlink:href="#af" y="80.75536"/><use x="128.385588" xlink:href="#ag" y="80.75536"/><use x="131.75415" xlink:href="#ah" y="80.75536"/><use x="134.96217" xlink:href="#ai" y="80.75536"/><use x="137.84629" xlink:href="#aj" y="80.75536"/><use x="141.054311" xlink:href="#ak" y="80.75536"/></g><path d="m93.002307 98.999587h34.997677l5.000442 5.000442v10.000884h-35.003094l-4.995025-5.000442zm0 0" fill="#cce5ff" stroke="#36393d" stroke-miterlimit="10" transform="matrix(.72103 0 0 .72103 .360515 .360515)"/><path d="m67.417969 71.742188h25.234375l3.605468 3.605468h-25.238281zm0 0" fill-opacity=".051"/><path d="m67.417969 71.742188 3.601562 3.605468v7.210938l-3.601562-3.605469zm0 0" fill-opacity=".102"/><path d="m97.997332 114.000913v-10.000884l-4.995025-5.000442m4.995025 5.000442h35.003094" fill="none" stroke="#36393d" stroke-miterlimit="10" transform="matrix(.72103 0 0 .72103 .360515 .360515)"/><g><use x="71.731219" xlink:href="#al" y="80.75536"/><use x="76.217941" xlink:href="#am" y="80.75536"/><use x="79.425961" xlink:href="#an" y="80.75536"/><use x="82.310081" xlink:href="#ao" y="80.75536"/><use x="85.518101" xlink:href="#ap" y="80.75536"/><use x="88.726121" xlink:href="#Z" y="80.75536"/><use x="91.934142" xlink:href="#af" y="80.75536"/></g><path d="m78.000981 98.999587h15.001326l4.995025 5.000442v10.000884h-14.995909l-5.000442-5.000442zm0 0" fill="#cce5ff" stroke="#36393d" stroke-miterlimit="10" transform="matrix(.72103 0 0 .72103 .360515 .360515)"/><path d="m56.601562 71.742188h10.816407l3.601562 3.605468h-10.8125zm0 0" fill-opacity=".051"/><path d="m56.601562 71.742188 3.605469 3.605468v7.210938l-3.605469-3.605469zm0 0" fill-opacity=".102"/><path d="m83.001423 114.000913v-10.000884l-5.000442-5.000442m5.000442 5.000442h14.995909" fill="none" stroke="#36393d" stroke-miterlimit="10" transform="matrix(.72103 0 0 .72103 .360515 .360515)"/><g><use x="60.600318" xlink:href="#aq" y="80.75536"/><use x="64.123789" xlink:href="#ar" y="80.75536"/><use x="65.726391" xlink:href="#as" y="80.75536"/></g><path d="m28.001978 98.999587h49.999003l5.000442 5.000442v10.000884h-49.999003l-5.000442-5.000442zm0 0" fill="#fc9" stroke="#36393d" stroke-miterlimit="10" transform="matrix(.72103 0 0 .72103 .360515 .360515)"/><path d="m20.550781 71.742188h36.050781l3.605469 3.605468h-36.050781zm0 0" fill-opacity=".051"/><path d="m20.550781 71.742188 3.605469 3.605468v7.210938l-3.605469-3.605469zm0 0" fill-opacity=".102"/><path d="m33.00242 114.000913v-10.000884l-5.000442-5.000442m5.000442 5.000442h49.999003" fill="none" stroke="#36393d" stroke-miterlimit="10" transform="matrix(.72103 0 0 .72103 .360515 .360515)"/><g><use x="25.945814" xlink:href="#at" y="81.47639"/><use x="29.793185" xlink:href="#au" y="81.47639"/><use x="33.958823" xlink:href="#av" y="81.47639"/><use x="37.166843" xlink:href="#ac" y="81.47639"/><use x="38.769445" xlink:href="#aw" y="81.47639"/><use x="42.935083" xlink:href="#Z" y="81.47639"/><use x="46.143104" xlink:href="#aa" y="81.47639"/><use x="49.351124" xlink:href="#ap" y="81.47639"/><use x="52.559144" xlink:href="#Z" y="81.47639"/><use x="55.767164" xlink:href="#ax" y="81.47639"/></g><path d="m8.00021 98.999587h20.001768l5.000442 5.000442v10.000884h-20.001768l-5.000442-5.000442zm0 0" fill="#eee" stroke="#36393d" stroke-miterlimit="10" transform="matrix(.72103 0 0 .72103 .360515 .360515)"/><path d="m6.128906 71.742188h14.421875l3.605469 3.605468h-14.421875zm0 0" fill-opacity=".051"/><path d="m6.128906 71.742188 3.605469 3.605468v7.210938l-3.605469-3.605469zm0 0" fill-opacity=".102"/><path d="m13.000652 114.000913v-10.000884l-5.000442-5.000442m5.000442 5.000442h20.001768" fill="none" stroke="#36393d" stroke-miterlimit="10" transform="matrix(.72103 0 0 .72103 .360515 .360515)"/><g><use x="12.730686" xlink:href="#ay" y="81.47639"/><use x="16.578057" xlink:href="#ay" y="81.47639"/></g><path d="m50.252049 30.997909h135.499519c.297968 0 .585101.059594.861398.173363.276298.11377.514672.276298.725958.487584.211287.211286.373815.455078.487584.731376.11377.276297.173363.56343.173363.861398v10.499303c0 .297967-.059593.5851-.173363.861398-.113769.276297-.276297.520089-.487584.725958-.211286.211286-.44966.373814-.725958.493001-.276297.113769-.56343.167945-.861398.167945h-135.499519c-.297968 0-.5851-.054176-.861398-.167945-.276297-.119187-.520089-.281715-.731376-.493001-.211286-.205869-.373814-.449661-.487583-.725958-.11377-.276298-.173363-.563431-.173363-.861398v-10.499303c0-.297968.059593-.585101.173363-.861398.113769-.276298.276297-.52009.487583-.731376.211287-.211286.455079-.373814.731376-.487584.276298-.113769.56343-.173363.861398-.173363zm0 0" fill="#dae8fc" stroke="#6c8ebf" transform="matrix(.72103 0 0 .72103 .360515 .360515)"/><g><use x="63.675962" xlink:href="#t" y="31.72532"/><use x="68.487992" xlink:href="#e" y="31.72532"/><use x="75.695476" xlink:href="#u" y="31.72532"/><use x="81.466532" xlink:href="#k" y="31.72532"/><use x="83.870435" xlink:href="#q" y="31.72532"/><use x="89.641492" xlink:href="#i" y="31.72532"/><use x="94.453522" xlink:href="#h" y="31.72532"/><use x="96.857425" xlink:href="#x" y="31.72532"/><use x="101.669455" xlink:href="#A" y="31.72532"/></g><path d="m16.241956 38.95794 31.757954-.13544" fill="none" stroke="#6c8ebf" stroke-miterlimit="10" stroke-width="2" transform="scale(.72103)"/><path d="m10.239258 38.990446 7.980121-4.041528-1.977423 4.009022 2.009928 3.992769zm0 0" fill="#6c8ebf" stroke="#6c8ebf" stroke-miterlimit="10" stroke-width="2" transform="scale(.72103)"/></svg>