<svg height="95pt" viewBox="0 0 198 95" width="198pt" xmlns="http://www.w3.org/2000/svg" xmlns:xlink="http://www.w3.org/1999/xlink"><clipPath id="a"><path d="m156 51.859375h13.707031v30.992187h-13.707031zm0 0"/></clipPath><clipPath id="b"><path d="m157 52h12.707031v30h-12.707031zm0 0"/></clipPath><clipPath id="c"><path d="m164 56h5.707031v7h-5.707031zm0 0"/></clipPath><clipPath id="d"><path d="m155.507812 53h12.492188v29.851562h-12.492188zm0 0"/></clipPath><clipPath id="e"><path d="m166 60h3.707031v21h-3.707031zm0 0"/></clipPath><clipPath id="f"><path d="m165 56h4.707031v6h-4.707031zm0 0"/></clipPath><clipPath id="g"><path d="m156 53h11v29.851562h-11zm0 0"/></clipPath><clipPath id="h"><path d="m156 53h12v29.851562h-12zm0 0"/></clipPath><clipPath id="i"><path d="m117 32h4v4.296875h-4zm0 0"/></clipPath><clipPath id="j"><path d="m120.714844 34.625c0 .21875-.042969.429688-.128906.636719-.082032.203125-.203126.382812-.359376.539062s-.335937.277344-.539062.359375c-.207031.085938-.417969.128906-.636719.128906-.222656 0-.433593-.042968-.640625-.128906-.203125-.082031-.382812-.203125-.539062-.359375s-.277344-.335937-.359375-.539062c-.085938-.207031-.128907-.417969-.128907-.636719 0-.222656.042969-.433594.128907-.640625.082031-.203125.203125-.382813.359375-.539063s.335937-.277343.539062-.359374c.207032-.085938.417969-.128907.640625-.128907.21875 0 .429688.042969.636719.128907.203125.082031.382812.203124.539062.359374s.277344.335938.359376.539063c.085937.207031.128906.417969.128906.640625zm0 0"/></clipPath><linearGradient id="k"><stop offset="0" stop-color="#a97ef5"/><stop offset=".015625" stop-color="#a97ff5"/><stop offset=".03125" stop-color="#a97ff5"/><stop offset=".046875" stop-color="#aa80f5"/><stop offset=".0625" stop-color="#aa80f5"/><stop offset=".078125" stop-color="#aa81f5"/><stop offset=".09375" stop-color="#ab82f5"/><stop offset=".109375" stop-color="#ab82f5"/><stop offset=".125" stop-color="#ab83f6"/><stop offset=".140625" stop-color="#ac83f6"/><stop offset=".15625" stop-color="#ac84f6"/><stop offset=".171875" stop-color="#ac84f6"/><stop offset=".1875" stop-color="#ad85f6"/><stop offset=".203125" stop-color="#ad86f6"/><stop offset=".21875" stop-color="#ad86f6"/><stop offset=".234375" stop-color="#ae87f6"/><stop offset=".25" stop-color="#ae87f6"/><stop offset=".265625" stop-color="#ae88f6"/><stop offset=".28125" stop-color="#af88f7"/><stop offset=".296875" stop-color="#af89f7"/><stop offset=".3125" stop-color="#b089f7"/><stop offset=".328125" stop-color="#b08af7"/><stop offset=".34375" stop-color="#b08bf7"/><stop offset=".359375" stop-color="#b18bf7"/><stop offset=".375" stop-color="#b18cf7"/><stop offset=".390625" stop-color="#b18cf7"/><stop offset=".40625" stop-color="#b28df7"/><stop offset=".421875" stop-color="#b28df7"/><stop offset=".4375" stop-color="#b28ef8"/><stop offset=".453125" stop-color="#b38ff8"/><stop offset=".46875" stop-color="#b38ff8"/><stop offset=".484375" stop-color="#b390f8"/><stop offset=".5" stop-color="#b490f8"/><stop offset=".515625" stop-color="#b491f8"/><stop offset=".53125" stop-color="#b491f8"/><stop offset=".546875" stop-color="#b592f8"/><stop offset=".5625" stop-color="#b593f8"/><stop offset=".578125" stop-color="#b593f8"/><stop offset=".59375" stop-color="#b694f8"/><stop offset=".609375" stop-color="#b694f9"/><stop offset=".625" stop-color="#b695f9"/><stop offset=".75" stop-color="#b796f9"/><stop offset="1" stop-color="#b796f9"/></linearGradient><linearGradient id="l" gradientUnits="userSpaceOnUse" x1="119.460497048" x2="119.460497048" xlink:href="#k" y1="36.28791926746" y2="32.95867794259"/><clipPath id="m"><path d="m126 25h3.378906v5h-3.378906zm0 0"/></clipPath><clipPath id="n"><path d="m129.378906 27.523438c0 .21875-.042968.433593-.128906.636718-.082031.203125-.203125.382813-.359375.539063s-.335937.277343-.539063.363281c-.203124.082031-.417968.125-.636718.125-.222656 0-.433594-.042969-.636719-.125-.207031-.085938-.386719-.207031-.542969-.363281s-.273437-.335938-.359375-.539063c-.085937-.203125-.125-.417968-.125-.636718 0-.222657.039063-.433594.125-.636719.085938-.203125.203125-.382813.359375-.539063s.335938-.277344.542969-.363281c.203125-.082031.414063-.125.636719-.125.21875 0 .433594.042969.636718.125.203126.085937.382813.207031.539063.363281s.277344.335938.359375.539063c.085938.203125.128906.414062.128906.636719zm0 0"/></clipPath><linearGradient id="o" gradientUnits="userSpaceOnUse" x1="128.125281176" x2="128.125281176" xlink:href="#k" y1="29.18761257616" y2="25.85837040973"/><clipPath id="p"><path d="m123 31h4v4h-4zm0 0"/></clipPath><clipPath id="q"><path d="m126.625 32.976562c0 .21875-.042969.429688-.128906.636719-.082032.203125-.203125.382813-.359375.539063s-.335938.277344-.539063.359375c-.207031.085937-.417968.128906-.636718.128906-.222657 0-.433594-.042969-.636719-.128906-.207031-.082031-.386719-.203125-.542969-.359375s-.277344-.335938-.359375-.539063c-.085937-.207031-.128906-.417969-.128906-.636719 0-.222656.042969-.433593.128906-.640624.082031-.203126.203125-.382813.359375-.539063s.335938-.277344.542969-.359375c.203125-.085938.414062-.128906.636719-.128906.21875 0 .429687.042968.636718.128906.203125.082031.382813.203125.539063.359375s.277343.335937.359375.539063c.085937.207031.128906.417968.128906.640624zm0 0"/></clipPath><linearGradient id="r" gradientUnits="userSpaceOnUse" x1="125.370829112" x2="125.370829112" xlink:href="#k" y1="34.63928839702" y2="31.31004623059"/><clipPath id="s"><path d="m115.054688 21.972656h7.945312v8.027344h-7.945312zm0 0"/></clipPath><clipPath id="t"><path d="m122.804688 25.855469c0 .515625-.097657 1.007812-.292969 1.484375-.199219.476562-.480469.894531-.84375 1.257812-.363281.363282-.78125.644532-1.253907.839844-.476562.195312-.96875.292969-1.484374.292969-.515626 0-1.007813-.097657-1.484376-.292969-.472656-.195312-.894531-.476562-1.257812-.839844-.363281-.363281-.640625-.78125-.839844-1.257812-.195312-.476563-.292968-.96875-.292968-1.484375 0-.511719.097656-1.007813.292968-1.480469.199219-.476562.476563-.894531.839844-1.257812.363281-.363282.785156-.644532 1.257812-.839844.476563-.199219.96875-.296875 1.484376-.296875.515624 0 1.007812.097656 1.484374.296875.472657.195312.890626.476562 1.253907.839844.363281.363281.644531.78125.84375 1.257812.195312.472656.292969.96875.292969 1.480469zm0 0"/></clipPath><linearGradient id="u" gradientUnits="userSpaceOnUse" x1="119.340994392" x2="119.340994392" y1="29.73210707216" y2="21.98126831686"><stop offset="0" stop-color="#a77bf4"/><stop offset=".03125" stop-color="#a77cf4"/><stop offset=".0625" stop-color="#a87df4"/><stop offset=".09375" stop-color="#a87df5"/><stop offset=".125" stop-color="#a97ef5"/><stop offset=".15625" stop-color="#a97ff5"/><stop offset=".1875" stop-color="#aa80f5"/><stop offset=".21875" stop-color="#aa81f5"/><stop offset=".25" stop-color="#ab82f5"/><stop offset=".28125" stop-color="#ab82f5"/><stop offset=".3125" stop-color="#ac83f6"/><stop offset=".34375" stop-color="#ac84f6"/><stop offset=".375" stop-color="#ad85f6"/><stop offset=".40625" stop-color="#ad86f6"/><stop offset=".4375" stop-color="#ae87f6"/><stop offset=".453125" stop-color="#ae87f6"/><stop offset=".46875" stop-color="#af88f6"/><stop offset=".484375" stop-color="#af89f6"/><stop offset=".5" stop-color="#af89f6"/><stop offset=".515625" stop-color="#b08af7"/><stop offset=".53125" stop-color="#b08af7"/><stop offset=".546875" stop-color="#b08bf7"/><stop offset=".5625" stop-color="#b18bf7"/><stop offset=".578125" stop-color="#b18cf7"/><stop offset=".59375" stop-color="#b18df7"/><stop offset=".609375" stop-color="#b28df7"/><stop offset=".625" stop-color="#b28ef7"/><stop offset=".640625" stop-color="#b28ef7"/><stop offset=".65625" stop-color="#b38ff8"/><stop offset=".671875" stop-color="#b38ff8"/><stop offset=".6875" stop-color="#b390f8"/><stop offset=".703125" stop-color="#b491f8"/><stop offset=".71875" stop-color="#b491f8"/><stop offset=".734375" stop-color="#b492f8"/><stop offset=".75" stop-color="#b592f8"/><stop offset=".765625" stop-color="#b593f8"/><stop offset=".78125" stop-color="#b693f8"/><stop offset=".796875" stop-color="#b694f9"/><stop offset=".8125" stop-color="#b695f9"/><stop offset=".828125" stop-color="#b795f9"/><stop offset=".84375" stop-color="#b796f9"/><stop offset=".875" stop-color="#b796f9"/><stop offset="1" stop-color="#b796f9"/></linearGradient><clipPath id="v"><path d="m116 23h6v6h-6zm0 0"/></clipPath><clipPath id="w"><path d="m121.589844 25.855469c0 .355469-.070313.691406-.203125 1.019531-.136719.324219-.328125.613281-.578125.863281s-.535156.441407-.863282.574219c-.324218.136719-.664062.203125-1.015624.203125-.351563 0-.691407-.066406-1.019532-.203125-.324218-.132812-.613281-.324219-.859375-.574219-.25-.25-.441406-.539062-.578125-.863281-.136718-.328125-.203125-.664062-.203125-1.019531 0-.351563.066407-.691407.203125-1.015625.136719-.328125.328125-.613282.578125-.863282.246094-.25.535157-.441406.859375-.578124.328125-.132813.667969-.199219 1.019532-.199219.351562 0 .691406.066406 1.015624.199219.328126.136718.613282.328124.863282.578124s.441406.535157.578125.863282c.132812.324218.203125.664062.203125 1.015625zm0 0"/></clipPath><linearGradient id="x" gradientUnits="userSpaceOnUse" x1="119.340994392" x2="119.340994392" y1="28.51604131216" y2="23.1973332353"><stop offset="0" stop-color="#e7e7e7"/><stop offset=".0625" stop-color="#e7e7e7"/><stop offset=".125" stop-color="#e8e8e8"/><stop offset=".1875" stop-color="#e9e9e9"/><stop offset=".25" stop-color="#eaeaea"/><stop offset=".3125" stop-color="#ebebeb"/><stop offset=".375" stop-color="#ececec"/><stop offset=".4375" stop-color="#ececec"/><stop offset=".5" stop-color="#ededed"/><stop offset=".5625" stop-color="#eee"/><stop offset=".625" stop-color="#efefef"/><stop offset=".6875" stop-color="#f0f0f0"/><stop offset=".75" stop-color="#f1f1f1"/><stop offset="1" stop-color="#f2f2f2"/></linearGradient><symbol id="y" overflow="visible"><path d="m.703125 0v-6.15625h4.15625v.734375h-3.34375v1.90625h2.890625v.71875h-2.890625v2.796875zm0 0"/></symbol><symbol id="z" overflow="visible"><path d="m.390625-1.96875.765625-.078125c.03125.3125.113281.570313.25.765625.132812.199219.34375.359375.625.484375.28125.117187.59375.171875.9375.171875.3125 0 .585938-.046875.828125-.140625.238281-.09375.414063-.21875.53125-.375.113281-.164063.171875-.34375.171875-.53125s-.058594-.351563-.171875-.5c-.117187-.144531-.296875-.265625-.546875-.359375-.167969-.070312-.539062-.175781-1.109375-.3125-.5625-.132812-.953125-.257812-1.171875-.375-.304688-.15625-.527344-.347656-.671875-.578125-.136719-.226563-.203125-.484375-.203125-.765625 0-.3125.085938-.601562.265625-.875.175781-.269531.429687-.472656.765625-.609375.34375-.132813.71875-.203125 1.125-.203125.457031 0 .859375.074219 1.203125.21875.351563.148438.625.367188.8125.65625.1875.28125.285156.601562.296875.953125l-.78125.0625c-.042969-.382813-.183594-.675781-.421875-.875-.242187-.195313-.601563-.296875-1.078125-.296875-.492188 0-.851562.089844-1.078125.265625-.21875.179687-.328125.398437-.328125.65625 0 .21875.078125.402344.234375.546875.15625.136719.5625.28125 1.21875.4375.664063.148438 1.125.277344 1.375.390625.351563.167969.613281.375.78125.625.175781.25.265625.542969.265625.875 0 .324219-.09375.632813-.28125.921875-.1875.292969-.460938.523438-.8125.6875-.34375.15625-.734375.234375-1.171875.234375-.5625 0-1.03125-.078125-1.40625-.234375-.375-.164062-.671875-.410156-.890625-.734375-.210938-.332031-.320312-.703125-.328125-1.109375zm0 0"/></symbol><symbol id="A" overflow="visible"><path d="m.640625 0v-6.15625h1.21875l1.453125 4.359375c.132812.40625.234375.710937.296875.90625.070313-.21875.179687-.546875.328125-.984375l1.46875-4.28125h1.109375v6.15625h-.796875v-5.15625l-1.78125 5.15625h-.734375l-1.78125-5.234375v5.234375zm0 0"/></symbol><symbol id="B" overflow="visible"><path d="m.796875 0v-6.15625h.8125v6.15625zm0 0"/></symbol><symbol id="C" overflow="visible"><path d="m.5625 0v-4.453125h.6875v.625c.320312-.488281.796875-.734375 1.421875-.734375.257813 0 .503906.054688.734375.15625.226562.09375.394531.21875.5.375.113281.15625.191406.34375.234375.5625.03125.136719.046875.382812.046875.734375v2.734375h-.75v-2.703125c0-.3125-.03125-.539063-.09375-.6875-.0625-.15625-.167969-.28125-.3125-.375-.148438-.09375-.324219-.140625-.53125-.140625-.324219 0-.601562.105469-.828125.3125-.230469.199219-.34375.585938-.34375 1.15625v2.4375zm0 0"/></symbol><symbol id="D" overflow="visible"><path d="m.5625-5.28125v-.875h.75v.875zm-.953125 7.015625.140625-.640625c.148438.03125.265625.046875.359375.046875.144531 0 .253906-.054687.328125-.15625.082031-.09375.125-.34375.125-.75v-4.6875h.75v4.703125c0 .539062-.070312.921875-.203125 1.140625-.1875.28125-.492187.421875-.90625.421875-.20703125 0-.40625-.027344-.59375-.078125zm0 0"/></symbol><symbol id="E" overflow="visible"><path d="m3.609375-1.4375.78125.09375c-.117187.460938-.339844.8125-.671875 1.0625-.335938.25-.761719.375-1.28125.375-.65625 0-1.179688-.195312-1.5625-.59375-.375-.40625-.5625-.96875-.5625-1.6875 0-.75.191406-1.332031.578125-1.75.382813-.414062.882813-.625 1.5-.625.601563 0 1.09375.203125 1.46875.609375s.5625.980469.5625 1.71875v.203125h-3.328125c.03125.492188.171875.867188.421875 1.125.25.261719.554687.390625.921875.390625.28125 0 .515625-.070313.703125-.21875.195313-.144531.351563-.378906.46875-.703125zm-2.46875-1.21875h2.484375c-.03125-.375-.125-.65625-.28125-.84375-.242188-.289062-.554688-.4375-.9375-.4375-.34375 0-.636719.121094-.875.359375-.242188.230469-.371094.539063-.390625.921875zm0 0"/></symbol><symbol id="F" overflow="visible"><path d="m3.46875-1.625.75.09375c-.085938.511719-.292969.914062-.625 1.203125-.335938.28125-.746094.421875-1.234375.421875-.605469 0-1.09375-.195312-1.46875-.59375-.375-.394531-.5625-.96875-.5625-1.71875 0-.476562.078125-.894531.234375-1.25.164062-.363281.410156-.632812.734375-.8125.332031-.1875.6875-.28125 1.0625-.28125.488281 0 .882813.125 1.1875.375.3125.242188.507813.589844.59375 1.046875l-.734375.109375c-.0625-.300781-.183594-.523438-.359375-.671875-.179687-.15625-.398437-.234375-.65625-.234375-.375 0-.683594.136719-.921875.40625-.242188.273438-.359375.703125-.359375 1.296875 0 .605469.113281 1.042969.34375 1.3125.226563.273437.53125.40625.90625.40625.289063 0 .535156-.085937.734375-.265625.195312-.1875.320312-.46875.375-.84375zm0 0"/></symbol><symbol id="G" overflow="visible"><path d="m2.21875-.671875.109375.65625c-.21875.0507812-.414063.078125-.578125.078125-.273438 0-.484375-.0429688-.640625-.125-.148437-.09375-.25-.207031-.3125-.34375-.0625-.144531-.09375-.445312-.09375-.90625v-2.5625h-.546875v-.578125h.546875v-1.109375l.75-.453125v1.5625h.765625v.578125h-.765625v2.609375c0 .21875.007813.359375.03125.421875.03125.0625.078125.117188.140625.15625.0625.03125.148438.046875.265625.046875.082031 0 .191406-.007813.328125-.03125zm0 0"/></symbol><symbol id="H" overflow="visible"><path d="m.625 0v-6.15625h.8125v5.4375h3.03125v.71875zm0 0"/></symbol><symbol id="I" overflow="visible"><path d="m.421875.375.734375.109375c.03125.21875.117188.378906.265625.484375.1875.144531.441406.21875.765625.21875.34375 0 .609375-.074219.796875-.21875.195313-.136719.328125-.328125.390625-.578125.039062-.15625.0625-.4765625.0625-.96875-.335938.386719-.746094.578125-1.234375.578125-.617187 0-1.089844-.21875-1.421875-.65625-.335938-.445312-.5-.976562-.5-1.59375 0-.425781.070312-.816406.21875-1.171875.15625-.363281.378906-.644531.671875-.84375.289063-.195313.632813-.296875 1.03125-.296875.53125 0 .96875.214844 1.3125.640625v-.53125h.6875v3.84375c0 .6953125-.074219 1.191406-.21875 1.484375-.136719.289062-.359375.519531-.671875.6875-.304688.164062-.679688.25-1.125.25-.53125 0-.964844-.121094-1.296875-.359375-.324219-.242187-.480469-.601563-.46875-1.078125zm.625-2.6875c0 .585938.113281 1.011719.34375 1.28125.238281.273438.535156.40625.890625.40625.34375 0 .628906-.128906.859375-.390625.238281-.269531.359375-.691406.359375-1.265625 0-.539062-.121094-.953125-.359375-1.234375-.242187-.28125-.53125-.421875-.875-.421875-.335937 0-.621094.140625-.859375.421875-.242188.273437-.359375.671875-.359375 1.203125zm0 0"/></symbol><symbol id="J" overflow="visible"><path d="m.578125-5.28125v-.875h.75v.875zm0 5.28125v-4.453125h.75v4.453125zm0 0"/></symbol><symbol id="K" overflow="visible"><path d="m.5625 0v-4.453125h.671875v.625c.144531-.21875.332031-.394531.5625-.53125.238281-.132813.503906-.203125.796875-.203125.332031 0 .601562.074219.8125.21875.207031.136719.359375.324219.453125.5625.34375-.519531.800781-.78125 1.375-.78125.4375 0 .773437.125 1.015625.375.238281.242188.359375.617188.359375 1.125v3.0625h-.75v-2.8125c0-.300781-.027344-.515625-.078125-.640625-.054688-.132813-.140625-.242187-.265625-.328125-.125-.082031-.277344-.125-.453125-.125-.3125 0-.574219.105469-.78125.3125-.210938.210938-.3125.542969-.3125 1v2.59375h-.75v-2.890625c0-.34375-.0625-.597656-.1875-.765625-.125-.164062-.328125-.25-.609375-.25-.210937 0-.40625.058594-.59375.171875-.179687.117187-.308594.28125-.390625.5-.074219.210937-.109375.515625-.109375.921875v2.3125zm0 0"/></symbol><symbol id="L" overflow="visible"><path d="m3.46875-.546875c-.273438.242187-.539062.40625-.796875.5-.261719.09375-.542969.140625-.84375.140625-.492187 0-.867187-.1132812-1.125-.34375-.261719-.238281-.390625-.546875-.390625-.921875 0-.21875.046875-.414063.140625-.59375.101563-.1875.234375-.332031.390625-.4375.164062-.113281.347656-.195313.546875-.25.144531-.039063.367187-.078125.671875-.109375.613281-.070312 1.0625-.160156 1.34375-.265625.007812-.101563.015625-.171875.015625-.203125 0-.300781-.074219-.515625-.21875-.640625-.199219-.175781-.484375-.265625-.859375-.265625-.355469 0-.621094.0625-.796875.1875-.167969.125-.292969.351562-.375.671875l-.734375-.109375c.070312-.3125.179688-.566406.328125-.765625.15625-.195313.378906-.347656.671875-.453125.289062-.101562.628906-.15625 1.015625-.15625.375 0 .679687.046875.921875.140625.238281.09375.410156.210937.515625.34375.113281.136719.195313.304687.25.5.019531.136719.03125.371094.03125.703125v1c0 .710938.015625 1.15625.046875 1.34375s.097656.367188.203125.53125h-.796875c-.074219-.15625-.125-.335938-.15625-.546875zm-.0625-1.6875c-.273438.117187-.683594.210937-1.234375.28125-.304687.042969-.523437.09375-.65625.15625-.125.054687-.226563.136719-.296875.25-.074219.105469-.109375.21875-.109375.34375 0 .210937.078125.382813.234375.515625.15625.136719.378906.203125.671875.203125.289063 0 .546875-.0625.765625-.1875.226562-.132813.398438-.3125.515625-.53125.070313-.164063.109375-.414063.109375-.75zm0 0"/></symbol><symbol id="M" overflow="visible"/><symbol id="N" overflow="visible"><path d="m.65625 0v-6.15625h.828125l3.234375 4.828125v-4.828125h.78125v6.15625h-.828125l-3.234375-4.828125v4.828125zm0 0"/></symbol><symbol id="O" overflow="visible"><path d="m.625 0v-6.15625h2.3125c.46875 0 .84375.0625 1.125.1875.289062.125.515625.320312.671875.578125.164063.261719.25.53125.25.8125 0 .261719-.074219.511719-.21875.75-.148437.230469-.367187.417969-.65625.5625.375.105469.660156.289063.859375.546875.207031.261719.3125.574219.3125.9375 0 .292969-.0625.5625-.1875.8125-.125.242188-.277344.429688-.453125.5625-.179687.136719-.402344.242188-.671875.3125-.273438.0625-.605469.09375-1 .09375zm.8125-3.5625h1.34375c.351562 0 .609375-.023438.765625-.078125.207031-.0625.363281-.160156.46875-.296875.101563-.144531.15625-.328125.15625-.546875 0-.195313-.054687-.375-.15625-.53125-.09375-.15625-.230469-.257813-.40625-.3125-.179687-.0625-.492187-.09375-.9375-.09375h-1.234375zm0 2.84375h1.53125c.269531 0 .457031-.007812.5625-.03125.1875-.039062.34375-.097656.46875-.171875.125-.082031.226562-.195313.3125-.34375.082031-.144531.125-.316406.125-.515625 0-.226562-.0625-.425781-.1875-.59375-.117188-.175781-.277344-.296875-.484375-.359375-.210937-.070313-.511719-.109375-.90625-.109375h-1.421875zm0 0"/></symbol><symbol id="P" overflow="visible"><path d="m-.015625 0 2.359375-6.15625h.890625l2.515625 6.15625h-.9375l-.71875-1.859375h-2.5625l-.671875 1.859375zm1.78125-2.53125h2.078125l-.640625-1.703125c-.199219-.507813-.34375-.929687-.4375-1.265625-.074219.398438-.183594.789062-.328125 1.171875zm0 0"/></symbol><symbol id="Q" overflow="visible"><path d="m3.453125 0v-.5625c-.28125.4375-.695313.65625-1.234375.65625-.367188 0-.699219-.09375-1-.28125-.292969-.195312-.523438-.472656-.6875-.828125-.15625-.351563-.234375-.753906-.234375-1.203125 0-.445312.070313-.851562.21875-1.21875.144531-.363281.363281-.640625.65625-.828125.300781-.195313.632813-.296875 1-.296875.269531 0 .507813.058594.71875.171875.207031.117187.378906.265625.515625.453125v-2.21875h.75v6.15625zm-2.390625-2.21875c0 .5625.117188.992188.359375 1.28125.25.28125.535156.421875.859375.421875.332031 0 .613281-.132813.84375-.40625.226562-.269531.34375-.679687.34375-1.234375 0-.613281-.121094-1.0625-.359375-1.34375-.230469-.289062-.515625-.4375-.859375-.4375-.335938 0-.617188.140625-.84375.421875-.230469.273437-.34375.703125-.34375 1.296875zm0 0"/></symbol><symbol id="R" overflow="visible"><path d="m1.796875 0-1.6875-4.453125h.796875l.953125 2.671875c.101563.28125.203125.578125.296875.890625.0625-.226563.148438-.507813.265625-.84375l1-2.71875h.78125l-1.6875 4.453125zm0 0"/></symbol><symbol id="S" overflow="visible"><path d="m.5625 0v-4.453125h.671875v.671875c.175781-.3125.335937-.519531.484375-.625.144531-.101562.304688-.15625.484375-.15625.25 0 .507813.085938.78125.25l-.265625.703125c-.1875-.113281-.371094-.171875-.546875-.171875-.167969 0-.320313.054688-.453125.15625-.136719.09375-.230469.230469-.28125.40625-.085938.273438-.125.570312-.125.890625v2.328125zm0 0"/></symbol><symbol id="T" overflow="visible"><path d="m.265625-1.328125.75-.125c.039063.304687.15625.539063.34375.703125.195313.15625.46875.234375.8125.234375s.597656-.066406.765625-.203125c.164062-.144531.25-.316406.25-.515625 0-.164063-.074219-.296875-.21875-.390625-.105469-.070312-.367188-.160156-.78125-.265625-.554688-.132813-.9375-.253906-1.15625-.359375-.210938-.101562-.371094-.242188-.484375-.421875-.105469-.1875-.15625-.382813-.15625-.59375 0-.207031.039063-.394531.125-.5625.09375-.164063.21875-.304687.375-.421875.125-.082031.285156-.15625.484375-.21875.207031-.0625.425781-.09375.65625-.09375.351562 0 .660156.054688.921875.15625.257813.105469.453125.246094.578125.421875.125.167969.210938.390625.265625.671875l-.734375.109375c-.03125-.226563-.132812-.40625-.296875-.53125-.15625-.132813-.386719-.203125-.6875-.203125-.34375 0-.589844.058594-.734375.171875-.148438.117187-.21875.25-.21875.40625 0 .09375.03125.183594.09375.265625.0625.085938.15625.152344.28125.203125.070312.023437.296875.085937.671875.1875.53125.148437.898437.265625 1.109375.359375.21875.085938.382812.214844.5.390625.125.179687.1875.390625.1875.640625s-.074219.492188-.21875.71875c-.148438.21875-.359375.390625-.640625.515625-.28125.1132812-.59375.171875-.9375.171875-.585937 0-1.027344-.1171875-1.328125-.359375-.304688-.238281-.496094-.59375-.578125-1.0625zm0 0"/></symbol><symbol id="U" overflow="visible"><path d="m.546875 0v-6.15625h.765625v6.15625zm0 0"/></symbol><symbol id="V" overflow="visible"><path d="m.28125-2.234375c0-.820313.226562-1.429687.6875-1.828125.382812-.332031.851562-.5 1.40625-.5.613281 0 1.113281.203125 1.5.609375.382812.398437.578125.949219.578125 1.65625 0 .574219-.089844 1.027344-.265625 1.359375-.167969.335938-.417969.589844-.75.765625-.324219.17578125-.679688.265625-1.0625.265625-.625 0-1.132812-.195312-1.515625-.59375-.386719-.394531-.578125-.972656-.578125-1.734375zm.78125 0c0 .574219.125 1.007813.375 1.296875.25.28125.5625.421875.9375.421875s.6875-.140625.9375-.421875c.25-.289062.375-.726562.375-1.3125 0-.550781-.125-.96875-.375-1.25-.25-.289062-.5625-.4375-.9375-.4375s-.6875.148438-.9375.4375c-.25.28125-.375.703125-.375 1.265625zm0 0"/></symbol><symbol id="W" overflow="visible"><path d="m3.484375 0v-.65625c-.34375.5-.8125.75-1.40625.75-.273437 0-.523437-.046875-.75-.140625-.21875-.101563-.386719-.226563-.5-.375-.117187-.15625-.195313-.34375-.234375-.5625-.03125-.15625-.046875-.390625-.046875-.703125v-2.765625h.765625v2.46875c0 .398437.007812.664063.03125.796875.050781.199219.15625.355469.3125.46875.15625.117188.34375.171875.5625.171875.226562 0 .441406-.054687.640625-.171875.195313-.113281.335937-.269531.421875-.46875.082031-.207031.125-.5.125-.875v-2.390625h.75v4.453125zm0 0"/></symbol><symbol id="X" overflow="visible"><path d="m2.015625 1.8125c-.417969-.53125-.773437-1.148438-1.0625-1.84375-.292969-.707031-.4375-1.441406-.4375-2.203125 0-.664063.109375-1.300781.328125-1.90625.25-.707031.640625-1.410156 1.171875-2.109375h.53125c-.335937.574219-.558594.984375-.671875 1.234375-.167969.386719-.296875.792969-.390625 1.21875-.125.523437-.1875 1.046875-.1875 1.578125 0 1.34375.414063 2.6875 1.25 4.03125zm0 0"/></symbol><symbol id="Y" overflow="visible"><path d="m.6875 0v-6.15625h.8125v2.53125h3.203125v-2.53125h.8125v6.15625h-.8125v-2.90625h-3.203125v2.90625zm0 0"/></symbol><symbol id="Z" overflow="visible"><path d="m.5625 0v-6.15625h.765625v2.21875c.34375-.414062.785156-.625 1.328125-.625.332031 0 .617188.070312.859375.203125.238281.125.410156.304687.515625.53125.113281.230469.171875.5625.171875 1v2.828125h-.765625v-2.828125c0-.375-.085938-.644531-.25-.8125-.15625-.175781-.386719-.265625-.6875-.265625-.21875 0-.429688.058594-.625.171875-.199219.117187-.339844.273437-.421875.46875-.085937.199219-.125.476563-.125.828125v2.4375zm0 0"/></symbol><symbol id="aa" overflow="visible"><path d="m.671875 0v-6.15625h2.734375c.539062 0 .953125.058594 1.234375.171875.289063.117187.519531.3125.6875.59375.175781.273437.265625.578125.265625.921875 0 .4375-.140625.808594-.421875 1.109375-.28125.292969-.71875.480469-1.3125.5625.21875.105469.378906.203125.484375.296875.238281.21875.46875.496094.6875.828125l1.0625 1.671875h-1.015625l-.8125-1.28125c-.242187-.363281-.4375-.644531-.59375-.84375-.15625-.195312-.296875-.332031-.421875-.40625-.117188-.082031-.234375-.140625-.359375-.171875-.09375-.019531-.246094-.03125-.453125-.03125h-.953125v2.734375zm.8125-3.4375h1.75c.375 0 .664063-.035156.875-.109375.207031-.082031.363281-.207031.46875-.375.113281-.164063.171875-.347656.171875-.546875 0-.289062-.105469-.53125-.3125-.71875-.210938-.1875-.542969-.28125-1-.28125h-1.953125zm0 0"/></symbol><symbol id="ab" overflow="visible"><path d="m1.0625 1.8125h-.546875c.84375-1.34375 1.265625-2.6875 1.265625-4.03125 0-.53125-.0625-1.054688-.1875-1.578125-.09375-.414063-.226562-.816406-.390625-1.203125-.117187-.25-.34375-.664062-.6875-1.25h.546875c.519531.699219.910156 1.402344 1.171875 2.109375.207031.605469.3125 1.242187.3125 1.90625 0 .761719-.148437 1.496094-.4375 2.203125-.28125.695312-.632813 1.3125-1.046875 1.84375zm0 0"/></symbol><symbol id="ac" overflow="visible"><path d="m.65625 0v-6.15625h2.125c.476562 0 .84375.03125 1.09375.09375.351562.085938.65625.230469.90625.4375.320312.273438.5625.621094.71875 1.046875.164062.429687.25.917969.25 1.46875 0 .46875-.058594.886719-.171875 1.25-.105469.355469-.246094.652344-.421875.890625-.167969.242188-.355469.429688-.5625.5625-.199219.136719-.445312.242188-.734375.3125-.28125.0625-.609375.09375-.984375.09375zm.828125-.71875h1.3125c.40625 0 .722656-.035156.953125-.109375.226562-.082031.410156-.191406.546875-.328125.195313-.195312.347656-.457031.453125-.78125.101562-.320312.15625-.71875.15625-1.1875 0-.644531-.105469-1.140625-.3125-1.484375-.210938-.34375-.464844-.570313-.765625-.6875-.21875-.082031-.574219-.125-1.0625-.125h-1.28125zm0 0"/></symbol><symbol id="ad" overflow="visible"><path d="m1.390625 0-1.359375-4.453125h.78125l.703125 2.5625.265625.96875c.007812-.050781.085938-.359375.234375-.921875l.703125-2.609375h.78125l.65625 2.578125.234375.859375.25-.859375.765625-2.578125h.734375l-1.390625 4.453125h-.78125l-.71875-2.671875-.171875-.75-.90625 3.421875zm0 0"/></symbol><symbol id="ae" overflow="visible"><path d="m.578125 0v-6.15625h.75v3.515625l1.78125-1.8125h.984375l-1.703125 1.65625 1.875 2.796875h-.9375l-1.46875-2.28125-.53125.515625v1.765625zm0 0"/></symbol><symbol id="af" overflow="visible"><path d="m4.703125-6.15625h.8125v3.5625c0 .617188-.074219 1.105469-.21875 1.46875-.136719.367188-.386719.664062-.75.890625-.367187.23046875-.84375.34375-1.4375.34375-.574219 0-1.046875-.1015625-1.421875-.296875-.367188-.195312-.625-.484375-.78125-.859375-.15625-.382813-.234375-.898437-.234375-1.546875v-3.5625h.8125v3.546875c0 .542969.046875.9375.140625 1.1875.101562.25.273438.449219.515625.59375.25.136719.546875.203125.890625.203125.601562 0 1.03125-.132812 1.28125-.40625.257812-.269531.390625-.796875.390625-1.578125zm0 0"/></symbol><symbol id="ag" overflow="visible"><path d="m.5625 1.703125v-6.15625h.6875v.578125c.164062-.226562.347656-.398438.546875-.515625.207031-.113281.457031-.171875.75-.171875.382813 0 .71875.101562 1 .296875.289063.199219.507813.476563.65625.828125.15625.355469.234375.746094.234375 1.171875 0 .460937-.085938.871094-.25 1.234375-.167969.367188-.40625.648438-.71875.84375-.304688.1875-.625.28125-.96875.28125-.261719 0-.492188-.0546875-.6875-.15625-.199219-.101562-.359375-.238281-.484375-.40625v2.171875zm.6875-3.90625c0 .574219.113281 1 .34375 1.28125.238281.273437.519531.40625.84375.40625.34375 0 .628906-.140625.859375-.421875.238281-.289062.359375-.734375.359375-1.328125 0-.570313-.117188-1-.34375-1.28125-.230469-.28125-.511719-.421875-.84375-.421875-.3125 0-.59375.152344-.84375.453125-.25.304687-.375.742187-.375 1.3125zm0 0"/></symbol><symbol id="ah" overflow="visible"><path d="m.75 0v-3.875h-.671875v-.578125h.671875v-.484375c0-.289062.023438-.507812.078125-.65625.070313-.195312.195313-.351562.375-.46875.1875-.125.445313-.1875.78125-.1875.207031 0 .441406.023438.703125.0625l-.109375.671875c-.15625-.03125-.308594-.046875-.453125-.046875-.230469 0-.390625.054688-.484375.15625-.09375.09375-.140625.273438-.140625.53125v.421875h.859375v.578125h-.859375v3.875zm0 0"/></symbol><symbol id="ai" overflow="visible"><path d="m.53125 1.71875-.078125-.71875c.164063.050781.304687.078125.421875.078125.175781 0 .3125-.03125.40625-.09375.101562-.054687.1875-.132813.25-.234375.050781-.074219.128906-.261719.234375-.5625.007813-.042969.03125-.1015625.0625-.171875l-1.6875-4.46875h.8125l.921875 2.578125c.125.324219.234375.667969.328125 1.03125.082031-.34375.1875-.679688.3125-1.015625l.953125-2.59375h.75l-1.6875 4.53125c-.1875.488281-.328125.828125-.421875 1.015625-.136719.238281-.292969.414062-.46875.53125-.179687.125-.386719.1875-.625.1875-.148437 0-.308594-.03125-.484375-.09375zm0 0"/></symbol><symbol id="aj" overflow="visible"><path d="m.359375-1.609375.796875-.0625c.050781.386719.179688.679687.390625.875.21875.1875.476563.28125.78125.28125.363281 0 .671875-.132813.921875-.40625.257812-.28125.390625-.644531.390625-1.09375 0-.4375-.125-.773437-.375-1.015625-.242187-.25-.554687-.375-.9375-.375-.25 0-.476563.058594-.671875.171875-.1875.105469-.339844.246094-.453125.421875l-.71875-.09375.609375-3.15625h3.046875v.71875h-2.453125l-.328125 1.65625c.363281-.257812.75-.390625 1.15625-.390625.539063 0 .992187.1875 1.359375.5625.375.367187.5625.84375.5625 1.4375 0 .554687-.164062 1.03125-.484375 1.4375-.398437.5-.9375.75-1.625.75-.554687 0-1.007813-.15625-1.359375-.46875-.355469-.3125-.558594-.726563-.609375-1.25zm0 0"/></symbol><symbol id="ak" overflow="visible"><path d="m3.546875-2.40625v-.734375h2.59375v2.28125c-.398437.324219-.808594.570313-1.234375.734375-.429688.15625-.867188.234375-1.3125.234375-.605469 0-1.152344-.1289062-1.640625-.390625-.492187-.257812-.867187-.632812-1.125-1.125-.25-.488281-.375-1.035156-.375-1.640625 0-.59375.125-1.148437.375-1.671875.25-.519531.609375-.90625 1.078125-1.15625.476562-.25 1.019531-.375 1.625-.375.445312 0 .847656.074219 1.203125.21875.363281.136719.644531.335938.84375.59375.207031.261719.367187.59375.484375 1l-.734375.203125c-.09375-.3125-.214844-.554687-.359375-.734375-.136719-.175781-.335938-.316406-.59375-.421875-.25-.113281-.527344-.171875-.828125-.171875-.375 0-.699219.058594-.96875.171875-.273437.117187-.492187.265625-.65625.453125-.167969.179688-.296875.382812-.390625.609375-.15625.375-.234375.789063-.234375 1.234375 0 .542969.09375 1 .28125 1.375.1875.367188.460937.640625.828125.828125.363281.179687.742188.265625 1.140625.265625.351563 0 .695313-.066406 1.03125-.203125.34375-.132813.597656-.28125.765625-.4375v-1.140625zm0 0"/></symbol><symbol id="al" overflow="visible"><path d="m.6875 0v-6.15625h4.4375v.734375h-3.625v1.875h3.390625v.734375h-3.390625v2.09375h3.765625v.71875zm0 0"/></symbol><symbol id="am" overflow="visible"><path d="m.53125 0v-5.125h.671875v4.515625h2.515625v.609375zm0 0"/></symbol><symbol id="an" overflow="visible"><path d="m.234375-1.859375c0-.6875.191406-1.191406.578125-1.515625.320312-.28125.710938-.421875 1.171875-.421875.507813 0 .925781.167969 1.25.5.320313.335937.484375.796875.484375 1.390625 0 .480469-.074219.855469-.21875 1.125-.148438.273438-.355469.484375-.625.640625-.273438.14453125-.570312.21875-.890625.21875-.523437 0-.945313-.1640625-1.265625-.5-.324219-.332031-.484375-.8125-.484375-1.4375zm.65625 0c0 .480469.097656.839844.296875 1.078125.207031.230469.472656.34375.796875.34375.3125 0 .566406-.113281.765625-.34375.207031-.238281.3125-.601562.3125-1.09375 0-.457031-.105469-.804688-.3125-1.046875-.210938-.238281-.464844-.359375-.765625-.359375-.324219 0-.589844.121094-.796875.359375-.199219.242187-.296875.59375-.296875 1.0625zm0 0"/></symbol><symbol id="ao" overflow="visible"><path d="m.46875 1.421875v-5.125h.578125v.46875c.132813-.1875.285156-.328125.453125-.421875.164062-.09375.375-.140625.625-.140625.3125 0 .585938.085937.828125.25.25.15625.429687.386719.546875.6875.125.292969.1875.617187.1875.96875 0 .386719-.070312.730469-.203125 1.03125-.136719.304687-.335937.539063-.59375.703125-.261719.15625-.53125.234375-.8125.234375-.210937 0-.398437-.0429688-.5625-.125-.167969-.09375-.308594-.207031-.421875-.34375v1.8125zm.578125-3.25c0 .46875.09375.820313.28125 1.046875.195313.230469.429687.34375.703125.34375.28125 0 .519531-.113281.71875-.34375.195312-.238281.296875-.609375.296875-1.109375 0-.46875-.101563-.816406-.296875-1.046875-.1875-.238281-.417969-.359375-.6875-.359375-.273438 0-.511719.125-.71875.375-.199219.25-.296875.617187-.296875 1.09375zm0 0"/></symbol><path d="m0 0h198v95h-198z" fill="#fff"/><g><use x="112.782299" xlink:href="#y" y="44.175132"/><use x="118.032219" xlink:href="#z" y="44.175132"/><use x="123.764746" xlink:href="#A" y="44.175132"/></g><path d="m100.085938 38.753906 1.296874-1.714844.570313.433594-1.296875 1.710938m2.023438-3.855469 1.300781-1.714844.570312.433594-1.296875 1.710937m2.023438-3.855468 1.296875-1.710938.570312.429688-1.296875 1.714844m2.023438-3.859376.058594-.074218.570312.433594-.058594.074218" fill="#d90000"/><path d="m112.511719 19.824219h2.148437v.714843h-2.148437zm4.296875 0h2.148437v.714843h-2.148437zm4.296875 0h2.148437v.714843h-2.148437zm4.296875 0h2.148437v.714843h-2.148437zm4.296875 0h2.148437v.714843h-2.148437zm4.296875 0h2.152344v.714843h-2.152344zm4.300781 0h2.148437v.714843h-2.148437zm4.296875 0h2.148438v.714843h-2.148438zm4.296875 0h2.148437v.714843h-2.148437zm4.296875 0h2.148438v.714843h-2.148438zm4.296875 0h2.148437v.714843h-2.148437zm4.296875 0h2.148438v.714843h-2.148438zm4.296875 0h2.148437v.714843h-2.148437zm4.296875 0h2.148438v.714843h-2.148438zm4.296875 0h2.152344v.714843h-2.152344zm4.300781 0h2.148438v.714843h-2.148438zm4.296875 0h2.148438v.714843h-2.148438zm4.296875 0h2.148438v.714843h-2.148438zm4.296875 0h2.148438v.714843h-2.148438zm4.296875 0h2.148438v.714843h-2.148438zm3.257813 1.753906v2.148437h-.714844v-2.148437zm0 4.296875v2.148438h-.714844v-2.148438zm0 4.296875v2.148437h-.714844v-2.148437zm0 4.296875v2.148438h-.714844v-2.148438zm0 4.300781v2.148438h-.714844v-2.148438zm0 4.296875v2.148438h-.714844v-2.148438zm0 4.296875v.394531h-2.46875v-.71875h2.113281v.359376h-.359375v-.035157zm-4.617188.394531h-2.148437v-.71875h2.148437zm-4.296875 0h-2.152344v-.71875h2.152344zm-4.300781 0h-2.148437v-.71875h2.148437zm-4.296875 0h-2.148438v-.71875h2.148438zm-4.296875 0h-2.148437v-.71875h2.148437zm-4.296875 0h-2.148438v-.71875h2.148438zm-4.296875 0h-2.148437v-.71875h2.148437zm-4.296875 0h-2.148438v-.71875h2.148438zm-4.296875 0h-2.148437v-.71875h2.148437zm-4.296875 0h-2.148438v-.71875h2.148438zm-4.296875 0h-2.152344v-.71875h2.152344zm-4.300781 0h-2.148438v-.71875h2.148438zm-4.296875 0h-2.148438v-.71875h2.148438zm-4.296875 0h-2.148438v-.71875h2.148438zm-4.296875 0h-2.148438v-.71875h2.148438zm-4.296875 0h-2.148438v-.71875h2.148438zm-4.296875 0h-2.148438v-.71875h2.148438zm-4.296875 0h-2.148438v-.71875h2.148438zm-4.296875 0h-2.148438v-.71875h2.148438zm-4.296875 0h-2.148438v-.71875h2.148438zm-3.296875-1.71875v-2.152343h.71875v2.152343zm0-4.300781v-2.148437h.71875v2.148437zm0-4.296875v-2.148437h.71875v2.148437zm0-4.296875v-2.148437h.71875v2.148437zm0-4.296875v-2.148437h.71875v2.148437zm0-4.296875v-2.148437h.71875v2.148437zm0-4.296875v-.429687h2.507812v.714843h-2.148437v-.355468h.359375v.070312zm0 0" fill="#d90000"/><path d="m155.863281 50.621094h2.148438v.714844h-2.148438zm4.296875 0h2.148438v.714844h-2.148438zm4.296875 0h2.148438v.714844h-2.148438zm4.300781 0h2.148438v.714844h-2.148438zm4.296876 0h2.148437v.714844h-2.148437zm4.296874 0h2.148438v.714844h-2.148438zm4.296876 0h2.148437v.714844h-2.148437zm4.296874 0h2.148438v.714844h-2.148438zm4.296876 0h2.148437v.714844h-2.148437zm4.296874 0h2.148438v.714844h-2.148438zm2.878907 2.132812v2.148438h-.714844v-2.148438zm0 4.296875v2.152344h-.714844v-2.152344zm0 4.300781v2.148438h-.714844v-2.148438zm0 4.296876v2.148437h-.714844v-2.148437zm0 4.296874v2.148438h-.714844v-2.148438zm0 4.296876v2.148437h-.714844v-2.148437zm0 4.296874v2.148438h-.714844v-2.148438zm0 4.296876v2.148437h-.714844v-2.148437zm0 4.296874v2.148438h-.714844v-2.148438zm0 4.296876v2.148437h-.714844v-2.148437zm-2.132813 2.878906h-2.148437v-.714844h2.148437zm-4.296875 0h-2.148437v-.714844h2.148437zm-4.296875 0h-2.148437v-.714844h2.148437zm-4.296875 0h-2.152343v-.714844h2.152343zm-4.300781 0h-2.148438v-.714844h2.148438zm-4.296875 0h-2.148437v-.714844h2.148437zm-4.296875 0h-2.148438v-.714844h2.148438zm-4.296875 0h-2.148437v-.714844h2.148437zm-4.296875 0h-2.148438v-.714844h2.148438zm-4.296875 0h-2.148437v-.714844h2.148437zm-4.296875 0h-1.105469v-1.761719h.71875v1.40625h-.359375v-.359375h.746094zm-1.105469-3.910156v-2.148438h.71875v2.148438zm0-4.296876v-2.148437h.71875v2.148437zm0-4.296874v-2.148438h.71875v2.148438zm0-4.296876v-2.148437h.71875v2.148437zm0-4.296874v-2.148438h.71875v2.148438zm0-4.296876v-2.148437h.71875v2.148437zm0-4.296874v-2.148438h.71875v2.148438zm0-4.296876v-2.148437h.71875v2.148437zm0-4.300781v-2.148437h.71875v2.148437zm0-4.296875v-1.101562h2.507813v.714844h-2.148438v-.355469h.359375v.742187zm0 0" fill="#d79b00"/><g><use x="168.165947" xlink:href="#B" y="44.175132"/><use x="170.553801" xlink:href="#C" y="44.175132"/><use x="175.333704" xlink:href="#D" y="44.175132"/><use x="177.243148" xlink:href="#E" y="44.175132"/><use x="182.023051" xlink:href="#F" y="44.175132"/><use x="186.320348" xlink:href="#G" y="44.175132"/></g><path d="m45.688241 138.999586 10.313533-37.949001 10.308078 37.949001" fill="none" stroke="#82b366" stroke-linejoin="round" stroke-miterlimit="10" stroke-width=".92" transform="matrix(.716216 0 0 .716216 -11 -5.959999)"/><path d="m65.840808 136.468926-17.338298-7.586528 13.585939-5.061321-10.537147-5.061322 7.728332-4.832252-5.388562-4.368662" fill="none" stroke="#82b366" stroke-linejoin="round" stroke-miterlimit="10" stroke-width=".92" transform="matrix(.716216 0 0 .716216 -11 -5.959999)"/><path d="m57.872499 101.972313c0 .239976-.043632.474499-.141804.703567-.092718.223615-.229069.425413-.403597.594487-.174528.174529-.381781.305425-.610849.398143s-.469045.141804-.714475.141804c-.250885 0-.490861-.049086-.71993-.141804-.229068-.092718-.430866-.223614-.605395-.398143-.179982-.169074-.310878-.370872-.40905-.594487-.092719-.229068-.141805-.463591-.141805-.703567 0-.245431.049086-.479953.141805-.709021.098172-.223615.229068-.419959.40905-.594488.174529-.174528.376327-.305424.605395-.398142.229069-.092718.469045-.141804.71993-.141804.24543 0 .485407.049086.714475.141804s.436321.223614.610849.398142c.174528.174529.310879.370873.403597.594488.098172.229068.141804.46359.141804.709021zm0 0" fill="#d5e8d4" stroke="#82b366" stroke-width=".92" transform="matrix(.716216 0 0 .716216 -11 -5.959999)"/><path d="m59.19237 98.841711.649027-.779923c2.14888 2.137972 2.14888 5.579452 0 7.728332l-.649027-.741746c1.636202-1.756191 1.636202-4.450472 0-6.206663zm2.33977-2.301592.659935-.638119c3.326946 3.376032 3.326946 8.748232 0 12.140626l-.659935-.643573c2.977889-3.026976 2.977889-7.826504 0-10.858934zm2.33977-2.301592.659935-.687205c2.519753 2.099793 3.970519 5.181309 3.970519 8.420991s-1.450766 6.315743-3.970519 8.415537l-.659935-.687205c2.399764-1.881634 3.790537-4.723173 3.790537-7.728332 0-3.010614-1.390773-5.852153-3.790537-7.733786zm-11.060732 4.603184-.649027-.779923c-2.154334 2.137972-2.154334 5.579452 0 7.728332l.649027-.741746c-1.641657-1.756191-1.641657-4.450472 0-6.206663zm-2.33977-2.301592-.659936-.638119c-3.3324 3.376032-3.3324 8.748232 0 12.140626l.659936-.643573c-2.983344-3.026976-2.983344-7.826504 0-10.858934zm-2.339771-2.301592-.659935-.687205c-2.519752 2.099793-3.970519 5.181309-3.970519 8.420991s1.450767 6.315743 3.970519 8.415537l.659935-.687205c-2.399764-1.881634-3.790536-4.723173-3.790536-7.728332 0-3.010614 1.390772-5.852153 3.790536-7.733786zm0 0" fill="#d5e8d4" stroke="#82b366" stroke-miterlimit="10" stroke-width=".92" transform="matrix(.716216 0 0 .716216 -11 -5.959999)"/><g><use x=".09016" xlink:href="#H" y="49.904861"/><use x="4.870063" xlink:href="#E" y="49.904861"/><use x="9.649966" xlink:href="#I" y="49.904861"/><use x="14.42987" xlink:href="#J" y="49.904861"/><use x="16.339313" xlink:href="#G" y="49.904861"/><use x="18.727167" xlink:href="#J" y="49.904861"/><use x="20.63661" xlink:href="#K" y="49.904861"/><use x="27.795974" xlink:href="#L" y="49.904861"/><use x="32.575878" xlink:href="#G" y="49.904861"/><use x="34.963731" xlink:href="#E" y="49.904861"/><use x="39.743635" xlink:href="#M" y="49.904861"/><use x="42.131488" xlink:href="#I" y="49.904861"/><use x="46.911392" xlink:href="#N" y="49.904861"/><use x="53.118132" xlink:href="#O" y="49.904861"/></g><path d="m104.820616 138.999586 22.677774-83.500892 22.683227 83.500892" fill="none" stroke="#b85450" stroke-linejoin="round" stroke-miterlimit="10" stroke-width="2.02" transform="matrix(.716216 0 0 .716216 -11 -5.959999)"/><path d="m149.150809 133.431042-38.150799-16.700178 29.898882-11.131635-23.201358-11.131634 17.021965-10.629865-11.857018-9.61542" fill="none" stroke="#b85450" stroke-linejoin="round" stroke-miterlimit="10" stroke-width="2.02" transform="matrix(.716216 0 0 .716216 -11 -5.959999)"/><path d="m131.627075 57.522132c0 .534493-.10908 1.052624-.316332 1.548939-.207253.496315-.507223.932636-.894458 1.314416-.387235.376327-.834464.670844-1.336233.872642-.507222.207252-1.030807.310878-1.581662.310878-.545401 0-1.068986-.103626-1.576209-.310878-.507223-.201798-.954452-.496315-1.336233-.872642-.387234-.38178-.687205-.818101-.894457-1.314416-.212707-.496315-.316333-1.014446-.316333-1.548939 0-.539947.103626-1.058078.316333-1.548939.207252-.496315.507223-.938089.894457-1.314416.381781-.381781.82901-.676297 1.336233-.878096.507223-.207252 1.030808-.310878 1.576209-.310878.550855 0 1.07444.103626 1.581662.310878.501769.201799.948998.496315 1.336233.878096.387235.376327.687205.818101.894458 1.314416.207252.490861.316332 1.008992.316332 1.548939zm0 0" fill="#f8cecc" stroke="#b85450" stroke-width="2.02" transform="matrix(.716216 0 0 .716216 -11 -5.959999)"/><path d="m134.512246 50.639172 1.445313-1.718013c4.712265 4.717718 4.712265 12.276976 0 17.000148l-1.445313-1.619841c3.605101-3.861439 3.605101-9.789947 0-13.662294zm5.159494-5.061322 1.439858-1.418042c7.33019 7.450177 7.33019 19.269017 0 26.719194l-1.439858-1.407134c6.539358-6.670254 6.539358-17.229217 0-23.894018zm5.148585-5.055867 1.450767-1.521669c5.541274 4.619547 8.726416 11.387973 8.726416 18.521818 0 7.139299-3.185142 13.907725-8.726416 18.516364l-1.450767-1.510761c5.268574-4.128685 8.339181-10.389889 8.339181-17.005603 0-6.61026-3.070607-12.871463-8.339181-17.000149zm-24.330338 10.117189-1.450767-1.718013c-4.70681 4.717718-4.70681 12.276976 0 17.000148l1.450767-1.619841c-3.610555-3.861439-3.610555-9.789947 0-13.662294zm-5.159494-5.061322-1.439858-1.418042c-7.330189 7.450177-7.330189 19.269017 0 26.719194l1.439858-1.407134c-6.539357-6.670254-6.539357-17.229217 0-23.894018zm-5.148585-5.055867-1.450767-1.521669c-5.541274 4.619547-8.731869 11.387973-8.731869 18.521818 0 7.139299 3.190595 13.907725 8.731869 18.516364l1.450767-1.510761c-5.274027-4.128685-8.344635-10.389889-8.344635-17.005603 0-6.61026 3.070608-12.871463 8.344635-17.000149zm0 0" fill="#f8cecc" stroke="#b85450" stroke-miterlimit="10" stroke-width="2.02" transform="matrix(.716216 0 0 .716216 -11 -5.959999)"/><g><use x="25.146534" xlink:href="#P" y="6.931892"/><use x="30.879061" xlink:href="#Q" y="6.931892"/><use x="35.658964" xlink:href="#R" y="6.931892"/><use x="39.956261" xlink:href="#E" y="6.931892"/><use x="44.736165" xlink:href="#S" y="6.931892"/><use x="47.598232" xlink:href="#T" y="6.931892"/><use x="51.895529" xlink:href="#L" y="6.931892"/><use x="56.675432" xlink:href="#S" y="6.931892"/><use x="59.537499" xlink:href="#J" y="6.931892"/><use x="61.446943" xlink:href="#L" y="6.931892"/><use x="66.226846" xlink:href="#U" y="6.931892"/><use x="68.136289" xlink:href="#M" y="6.931892"/><use x="70.524143" xlink:href="#V" y="6.931892"/><use x="75.304046" xlink:href="#S" y="6.931892"/><use x="78.166113" xlink:href="#M" y="6.931892"/><use x="80.553967" xlink:href="#A" y="6.931892"/><use x="87.713331" xlink:href="#L" y="6.931892"/><use x="92.493234" xlink:href="#U" y="6.931892"/><use x="94.402677" xlink:href="#J" y="6.931892"/><use x="96.312121" xlink:href="#F" y="6.931892"/><use x="100.609418" xlink:href="#J" y="6.931892"/><use x="102.518861" xlink:href="#V" y="6.931892"/><use x="107.298765" xlink:href="#W" y="6.931892"/><use x="112.078668" xlink:href="#T" y="6.931892"/><use x="116.375965" xlink:href="#M" y="6.931892"/><use x="118.763819" xlink:href="#I" y="6.931892"/><use x="123.543722" xlink:href="#N" y="6.931892"/><use x="129.750463" xlink:href="#O" y="6.931892"/></g><g fill="#d90000"><use x="53.571363" xlink:href="#X" y="17.675134"/><use x="56.43343" xlink:href="#Y" y="17.675134"/><use x="62.64017" xlink:href="#J" y="17.675134"/><use x="64.549613" xlink:href="#I" y="17.675134"/><use x="69.329517" xlink:href="#Z" y="17.675134"/><use x="74.10942" xlink:href="#E" y="17.675134"/><use x="78.889324" xlink:href="#S" y="17.675134"/><use x="81.751391" xlink:href="#M" y="17.675134"/><use x="84.139244" xlink:href="#aa" y="17.675134"/><use x="90.345985" xlink:href="#z" y="17.675134"/><use x="96.078512" xlink:href="#z" y="17.675134"/><use x="101.811039" xlink:href="#B" y="17.675134"/><use x="104.198892" xlink:href="#ab" y="17.675134"/></g><g clip-path="url(#a)"><path d="m2.898596 4.703181c12.098741-6.401942-6.997303 3.397884 5.101438-3.004059.796813-.402983 1.804278-.302237 3.004078.402984l-5.101438 2.9949c-1.199799-.696062-2.298852-.796808-3.004078-.393825zm27.604546 62.99365-5.101437 3.004059c.796813-.402984 1.401292-1.50203 1.401292-3.004059l5.101438-2.9949c-.100747 1.502029-.60448 2.500329-1.401293 2.9949zm0 0" fill="none" stroke="#231f20" stroke-linejoin="round" stroke-width="3" transform="matrix(.426504 0 0 .426506 155.505926 51.915939)"/></g><g clip-path="url(#b)"><path d="m5.902674 5.097006 5.101438-2.9949 16.394206 9.69908-5.101438 2.994901zm20.799577 17.502307 5.101437-2.994901v45.097519l-5.101437 2.9949zm0 0" fill="none" stroke="#231f20" stroke-linejoin="round" stroke-width="3" transform="matrix(.426504 0 0 .426506 155.505926 51.915939)"/></g><g clip-path="url(#c)"><path d="m27.398318 11.801186c2.399598 1.401284 4.304624 5.000659 4.40537 7.894814l-5.101437 3.004059c0-2.903313-2.005772-6.401943-4.405371-7.903972" fill="none" stroke="#231f20" stroke-linecap="round" stroke-linejoin="round" stroke-width="3" transform="matrix(.426504 0 0 .426506 155.505926 51.915939)"/></g><g clip-path="url(#d)"><path d="m22.29688 14.796087c2.399599 1.401283 4.405371 5.000659 4.405371 7.903972v44.996772c0 2.903313-1.905025 4.103105-4.304624 2.601075l-16.494953-9.69908c-2.399599-1.401284-4.40537-5.000659-4.40537-7.894813v-45.005931c0-2.894155 1.905025-4.093947 4.40537-2.601076zm0 0" fill="none" stroke="#231f20" stroke-linejoin="round" stroke-width="3" transform="matrix(.426504 0 0 .426506 155.505926 51.915939)"/></g><path d="m159.96875 52.527344.015625-.011719c-.214844-.082031-.382813-.125-.554687-.125-.183594-.039063-.351563-.011719-.511719.085937l-2.175781 1.277344c.171874-.085937.34375-.085937.511718-.085937.171875 0 .34375.042969.511719.128906l.257813.128906 2.175781-1.28125c-.082031-.039062-.125-.078125-.230469-.117187zm0 0" fill="#606163"/><path d="m158.023438 53.921875 2.175781-1.28125 7.035156 4.136719-2.175781 1.28125zm0 0" fill="#808184"/><g clip-path="url(#e)"><path d="m166.894531 61.382812 2.175781-1.277343.042969 19.234375-2.21875 1.28125zm0 0" fill="#231f20"/></g><g clip-path="url(#f)"><path d="m169.070312 59.722656-.128906-.554687-.011718.007812-.117188-.308593c0-.085938-.042969-.167969-.085938-.253907-.042968-.128906-.085937-.214843-.128906-.300781-.082031-.167969-.167968-.339844-.296875-.511719-.085937-.085937-.128906-.167969-.214843-.253906-.082032-.085937-.125-.171875-.210938-.257813-.085938-.085937-.214844-.210937-.339844-.296874-.089844-.085938-.191406-.15625-.300781-.214844l-2.175781 1.28125c.085937.042968.171875.128906.300781.210937.125.085938.210937.214844.339844.300781.085937.085938.128906.167969.214843.253907.082032.085937.125.171875.210938.257812.085938.167969.214844.339844.300781.511719.042969.085938.082031.167969.125.296875.042969.085937.085938.171875.085938.257813.042969.085937.085937.210937.128906.339843h.007813l.113281.496094-.035157.019531c.042969.128906.042969.257813.042969.382813l2.175781-1.277344c0-.121094-.035156-.242187-.042968-.359375l.042968-.023438zm0 0" fill="#231f20"/></g><g clip-path="url(#g)"><path d="m165.058594 58.058594c1.023437.597656 1.878906 2.132812 1.878906 3.367187v19.195313c0 1.234375-.8125 1.746094-1.835938 1.109375l-7.078124-4.140625c-1.023438-.59375-1.878907-2.128906-1.878907-3.367188v-19.191406c0-1.238281.8125-1.75 1.878907-1.109375zm0 0" fill="#6d6e70"/></g><g clip-path="url(#h)"><path d="m166.894531 80.664062v-19.195312c0-1.152344-.769531-2.515625-1.707031-3.070312l-7.039062-4.136719c-.9375-.554688-1.703126-.085938-1.703126 1.023437v19.191406c0 1.152344.765626 2.519532 1.703126 3.074219l7.039062 4.136719c.9375.554688 1.707031.125 1.707031-1.023438zm-1.75-22.648437c1.109375.683594 2.003907 2.300781 2.003907 3.625v19.191406c0 1.324219-.894532 1.878907-2.003907 1.195313l-6.996093-4.09375c-1.105469-.683594-2.003907-2.304688-2.003907-3.625v-19.195313c0-1.320312.898438-1.875 2.003907-1.191406zm0 0" fill="#c6c8c7"/></g><path d="m165.785156 77.890625-8.230468-5.035156v-15.90625l8.230468 5.03125zm0 0" fill="#a6a8ab"/><path d="m160.15625 59.59375 4.859375 2.898438.042969 3.925781s.386718-2.347657-1.703125-4.09375z" fill="#c4cace"/><path d="m162.328125 78.402344c0 .554687-.425781.726562-.980469.382812-.511718-.296875-.980468-1.023437-.980468-1.535156 0-.554688.425781-.683594.980468-.382812.554688.296874.980469.980468.980469 1.535156m.128906-19.703125-2.175781-1.28125v-.511719l2.175781 1.28125zm0 0" fill="#404042"/><path d="m118.316406 28.75h1.226563v5.121094h-1.226563zm0 0" fill="#773adc"/><path d="m121.785156 28.136719v-1.226563h5.125v1.226563zm0 0" fill="#773adc"/><path d="m120.203125 29.167969.867187-.867188 3.621094 3.625-.863281.867188zm0 0" fill="#773adc"/><g clip-path="url(#i)"><g clip-path="url(#j)"><path d="m117.382812 32.957031v3.332031h3.332032v-3.332031zm0 0" fill="url(#l)"/></g></g><g clip-path="url(#m)"><g clip-path="url(#n)"><path d="m126.050781 25.859375v3.328125h3.328125v-3.328125zm0 0" fill="url(#o)"/></g></g><g clip-path="url(#p)"><g clip-path="url(#q)"><path d="m123.292969 31.308594v3.332031h3.332031v-3.332031zm0 0" fill="url(#r)"/></g></g><g clip-path="url(#s)"><g clip-path="url(#t)"><path d="m115.054688 21.980469v7.75h7.75v-7.75zm0 0" fill="url(#u)"/></g></g><g clip-path="url(#v)"><g clip-path="url(#w)"><path d="m116.269531 23.199219v5.316406h5.320313v-5.316406zm0 0" fill="url(#x)"/></g></g><path d="m155.501045 90.24796v-2.896079h58.968755v-10.504423l10.029925 11.95519-10.029925 11.949736v-10.504424zm0 0" fill="#e1d5e7" stroke="#9673a6" stroke-linejoin="round" stroke-miterlimit="10" transform="matrix(.716216 0 0 .716216 -10.641892 -5.601891)"/><g><use x="100.125413" xlink:href="#ac" y="66.377833"/><use x="106.332153" xlink:href="#V" y="66.377833"/><use x="111.112057" xlink:href="#ad" y="66.377833"/><use x="117.318797" xlink:href="#C" y="66.377833"/><use x="122.0987" xlink:href="#U" y="66.377833"/><use x="124.008144" xlink:href="#J" y="66.377833"/><use x="125.917587" xlink:href="#C" y="66.377833"/><use x="130.697491" xlink:href="#ae" y="66.377833"/></g><path d="m223.512549 118.379744-.021816 3.637824-58.270642-.169074-.032724 10.498969-9.686322-12.347878 9.757224-12.287885-.02727 10.498969zm0 0" fill="#d5e8d4" stroke="#82b366" stroke-linejoin="round" stroke-miterlimit="10" transform="matrix(.716216 0 0 .716216 -10.641892 -5.601891)"/><g><use x="124.957973" xlink:href="#af" y="90.012966"/><use x="131.164714" xlink:href="#ag" y="90.012966"/><use x="135.944617" xlink:href="#U" y="90.012966"/><use x="137.854061" xlink:href="#J" y="90.012966"/><use x="139.763504" xlink:href="#C" y="90.012966"/><use x="144.543408" xlink:href="#ae" y="90.012966"/></g><g stroke-miterlimit="10"><path d="m69.998532 116.808989h23.632225" fill="none" stroke="#000" transform="matrix(.716216 0 0 .716216 -10.641892 -5.601891)"/><path d="m98.877515 116.808989-6.997495 3.501474 1.750737-3.501474-1.750737-3.501475zm0 0" stroke="#000" transform="matrix(.716216 0 0 .716216 -10.641892 -5.601891)"/><path d="m76.001213 115.078708h4.79757v-4.79757h2.398785v4.79757l4.801427.003857v2.398785h-4.79757v4.79757h-2.398785l-.003857-4.801427h-4.79757zm0 0" fill="#f8cecc" stroke="#b85450" transform="matrix(.506441 -.506441 .506441 .506441 -52.329349 60.318919)"/><path d="m232.631653 49.779207-25.633846.21816" fill="none" stroke="#000" transform="matrix(.716216 0 0 .716216 -10.641892 -5.601891)"/><path d="m237.878411 49.730121-6.970225 3.561468 1.723467-3.512382-1.783461-3.490566zm0 0" stroke="#000" transform="matrix(.716216 0 0 .716216 -10.641892 -5.601891)"/><path d="m213.482364 42.750565h4.079599l2.917896 4.139594 2.917895-4.139594h4.079599l-4.957695 6.997495 4.957695 7.002948h-4.079599l-2.917895-4.139593-2.917896 4.139593h-4.079599l4.668632-7.002948zm0 0" fill="#e1d5e7" stroke="#9673a6" transform="matrix(-.716216 0 0 -.716216 305.180768 65.661614)"/></g><g><use x="135.701216" xlink:href="#A" y="44.175132"/><use x="142.860579" xlink:href="#V" y="44.175132"/><use x="147.640483" xlink:href="#Q" y="44.175132"/><use x="152.420386" xlink:href="#J" y="44.175132"/><use x="154.32983" xlink:href="#ah" y="44.175132"/><use x="156.717683" xlink:href="#ai" y="44.175132"/></g><g fill="#366b00"><use x="3.67124" xlink:href="#X" y="59.215671"/><use x="6.533307" xlink:href="#H" y="59.215671"/><use x="11.313211" xlink:href="#V" y="59.215671"/><use x="16.093114" xlink:href="#ad" y="59.215671"/><use x="22.299855" xlink:href="#E" y="59.215671"/><use x="27.079758" xlink:href="#S" y="59.215671"/><use x="29.941825" xlink:href="#M" y="59.215671"/><use x="32.329678" xlink:href="#aa" y="59.215671"/><use x="38.536419" xlink:href="#z" y="59.215671"/><use x="44.268946" xlink:href="#z" y="59.215671"/><use x="50.001473" xlink:href="#B" y="59.215671"/><use x="52.389326" xlink:href="#ab" y="59.215671"/></g><path d="m248.999137 53.002527h28.633552" fill="none" stroke="#d79b00" stroke-miterlimit="10" transform="matrix(.716216 0 0 .716216 -10.641892 -5.601891)"/><path d="m282.879447 53.002527-6.997495 3.49602 1.750737-3.49602-1.750737-3.501475zm0 0" fill="#d79b00" stroke="#d79b00" stroke-miterlimit="10" transform="matrix(.716216 0 0 .716216 -10.641892 -5.601891)"/><path d="m277.632689 47.461253-28.633552-.163621" fill="none" stroke="#000" stroke-miterlimit="10" transform="matrix(.716216 0 0 .716216 -10.641892 -5.601891)"/><path d="m282.879447 47.488523-7.019311 3.463296 1.772553-3.490566-1.734375-3.512383zm0 0" stroke="#000" stroke-miterlimit="10" transform="matrix(.716216 0 0 .716216 -10.641892 -5.601891)"/><g><use x="121.846909" xlink:href="#P" y="18.39135"/><use x="127.579436" xlink:href="#G" y="18.39135"/><use x="129.96729" xlink:href="#G" y="18.39135"/><use x="132.355143" xlink:href="#L" y="18.39135"/><use x="137.135047" xlink:href="#F" y="18.39135"/><use x="141.432344" xlink:href="#ae" y="18.39135"/><use x="145.729641" xlink:href="#E" y="18.39135"/><use x="150.509544" xlink:href="#S" y="18.39135"/><use x="153.371611" xlink:href="#M" y="18.39135"/></g><g><use x="155.285251" xlink:href="#P" y="18.39135"/><use x="161.017778" xlink:href="#F" y="18.39135"/><use x="165.315075" xlink:href="#G" y="18.39135"/><use x="167.702928" xlink:href="#J" y="18.39135"/><use x="169.612372" xlink:href="#V" y="18.39135"/><use x="174.392275" xlink:href="#C" y="18.39135"/><use x="179.172179" xlink:href="#T" y="18.39135"/></g><path d="m188.765625 69.371094c.460937-.007813.761719-.378906.769531-.757813.003906-.429687-.332031-.789062-.773437-.789062-.46875.015625-.777344.378906-.769531.789062 0 .421875.359374.757813.773437.757813zm-16.449219 3.09375c-.171875 0-.316406-.148438-.316406-.355469v-4.992187c-.007812-.128907.101562-.238282.242188-.339844.46875-.292969.910156-.386719 1.289062-.507813v-4.015625h.308594v-3.71875h.617187v3.71875h.308594v3.714844c2.929687-.363281 5.601563-.449219 8.070313-.464844 2.996093-.035156 5.894531.050782 8.539062.457032v-3.707032h.3125v-3.71875h.609375v3.71875h.316406v4.015625c.445313.128907.894531.230469 1.296875.507813.140625.101562.207032.203125.207032.339844v5.011718c0 .179688-.15625.335938-.328126.335938h-1.804687c-.136719 0-.296875-.148438-.296875-.335938v-.902344h-16.921875v.894532c0 .203125-.128906.34375-.324219.34375zm0 0" fill="#505050"/><g><use x="159.101337" xlink:href="#aj" y="91.445398"/><use x="163.88124" xlink:href="#ak" y="91.445398"/><use x="170.56639" xlink:href="#M" y="91.445398"/><use x="172.954244" xlink:href="#af" y="91.445398"/><use x="179.160984" xlink:href="#al" y="91.445398"/><use x="184.893511" xlink:href="#T" y="91.445398"/></g><path d="m209.70913 103.577561c-2.36704-1.385319-5.388561-1.107164-7.466539.681751-2.083432 1.788915-2.765183 4.690448-1.690743 7.188385 1.068986 2.514299 3.65964 4.063237 6.408461 3.850531 2.748821-.21816 5.061322-2.137972 5.721257-4.788621" fill="none" stroke="#366b00" stroke-miterlimit="10" transform="matrix(-.716216 0 0 .716216 285.341598 -5.601891)"/><path d="m212.037993 110.509607.959905-1.570755.272701 1.892542zm0 0" fill="#dae8fc" stroke="#366b00" stroke-miterlimit="10" transform="matrix(-.716216 0 0 .716216 285.341598 -5.601891)"/><g fill="#366b00"><use x="114.606408" xlink:href="#am" y="74.25621"/><use x="118.589661" xlink:href="#an" y="74.25621"/><use x="122.572914" xlink:href="#an" y="74.25621"/><use x="126.556167" xlink:href="#ao" y="74.25621"/></g></svg>