<svg height="108.959999pt" viewBox="0 0 163.919998 108.959999" width="163.919998pt" xmlns="http://www.w3.org/2000/svg" xmlns:xlink="http://www.w3.org/1999/xlink"><clipPath id="a"><path d="m0 0h163.921875v108.613281h-163.921875zm0 0"/></clipPath><clipPath id="b"><path d="m0 11h163.921875v96.894531h-163.921875zm0 0"/></clipPath><clipPath id="c"><path d="m132 70h31.921875v35h-31.921875zm0 0"/></clipPath><symbol id="d" overflow="visible"><path d="m.640625 0v-6.171875h1.234375l1.453125 4.375c.132813.40625.234375.710937.296875.90625.070312-.21875.179688-.546875.328125-.984375l1.484375-4.296875h1.09375v6.171875h-.78125v-5.171875l-1.796875 5.171875h-.734375l-1.796875-5.25v5.25zm0 0"/></symbol><symbol id="e" overflow="visible"><path d="m3.484375-.546875c-.28125.242187-.554687.40625-.8125.5-.261719.09375-.539063.140625-.828125.140625-.492188 0-.871094-.1171875-1.140625-.359375-.261719-.238281-.390625-.539063-.390625-.90625 0-.21875.046875-.414063.140625-.59375.101563-.1875.234375-.332031.390625-.4375.164062-.113281.347656-.203125.546875-.265625.15625-.03125.382813-.066406.6875-.109375.601563-.070313 1.050781-.160156 1.34375-.265625 0-.101562 0-.164062 0-.1875 0-.3125-.070313-.53125-.203125-.65625-.199219-.175781-.492188-.265625-.875-.265625-.355469 0-.617188.0625-.78125.1875-.167969.125-.292969.351563-.375.671875l-.75-.109375c.070312-.3125.179688-.5625.328125-.75.15625-.195313.378906-.347656.671875-.453125.289062-.113281.628906-.171875 1.015625-.171875.382813 0 .695313.046875.9375.140625.238281.09375.410156.210938.515625.34375.113281.136719.195312.308594.25.515625.019531.125.03125.355469.03125.6875v1.015625c0 .710938.015625 1.15625.046875 1.34375s.097656.367188.203125.53125h-.796875c-.085937-.15625-.136719-.335938-.15625-.546875zm-.0625-1.703125c-.273437.117188-.683594.214844-1.234375.296875-.3125.042969-.539062.09375-.671875.15625-.125.054687-.226563.136719-.296875.25-.0625.105469-.09375.21875-.09375.34375 0 .210937.070312.382813.21875.515625.15625.125.378906.1875.671875.1875.289063 0 .550781-.0625.78125-.1875.226563-.125.394531-.296875.5-.515625.082031-.175781.125-.429687.125-.765625zm0 0"/></symbol><symbol id="f" overflow="visible"><path d="m.265625-1.328125.75-.125c.039063.304687.15625.539063.34375.703125.195313.15625.46875.234375.8125.234375.351563 0 .613281-.070313.78125-.21875.164063-.144531.25-.3125.25-.5 0-.164063-.074219-.300781-.21875-.40625-.105469-.0625-.367187-.144531-.78125-.25-.554687-.144531-.9375-.265625-1.15625-.359375-.21875-.101562-.386719-.242188-.5-.421875-.105469-.1875-.15625-.390625-.15625-.609375 0-.195312.046875-.378906.140625-.546875.09375-.175781.21875-.320313.375-.4375.113281-.082031.269531-.15625.46875-.21875.207031-.0625.425781-.09375.65625-.09375.351562 0 .660156.054687.921875.15625.269531.105469.46875.246094.59375.421875.125.167969.210937.398438.265625.6875l-.75.09375c-.03125-.226562-.132812-.40625-.296875-.53125-.15625-.132812-.382813-.203125-.671875-.203125-.34375 0-.59375.058594-.75.171875-.148438.117188-.21875.25-.21875.40625 0 .105469.03125.195312.09375.265625.0625.085937.15625.152344.28125.203125.082031.03125.304688.09375.671875.1875.539063.148438.914063.265625 1.125.359375.21875.09375.382813.230469.5.40625.125.167969.1875.382813.1875.640625 0 .25-.078125.492188-.234375.71875-.148438.21875-.359375.390625-.640625.515625-.273437.1132812-.585937.171875-.9375.171875-.574219 0-1.015625-.1171875-1.328125-.359375-.304688-.238281-.496094-.59375-.578125-1.0625zm0 0"/></symbol><symbol id="g" overflow="visible"><path d="m2.21875-.671875.109375.65625c-.210937.0507812-.398437.078125-.5625.078125-.28125 0-.5-.0429688-.65625-.125-.148437-.09375-.25-.207031-.3125-.34375-.0625-.144531-.09375-.445312-.09375-.90625v-2.578125h-.546875v-.578125h.546875v-1.109375l.765625-.453125v1.5625h.75v.578125h-.75v2.625c0 .21875.007812.359375.03125.421875.03125.054688.070312.101562.125.140625.0625.03125.148438.046875.265625.046875.082031 0 .191406-.003906.328125-.015625zm0 0"/></symbol><symbol id="h" overflow="visible"><path d="m3.625-1.4375.78125.09375c-.117188.460938-.34375.8125-.6875 1.0625-.335938.25-.757812.375-1.265625.375-.65625 0-1.179687-.195312-1.5625-.59375-.386719-.40625-.578125-.972656-.578125-1.703125 0-.75.191406-1.332031.578125-1.75.394531-.414063.898437-.625 1.515625-.625.59375 0 1.078125.203125 1.453125.609375.382813.40625.578125.980469.578125 1.71875v.203125h-3.34375c.03125.492187.171875.871094.421875 1.140625.25.261719.5625.390625.9375.390625.28125 0 .515625-.070313.703125-.21875.195312-.144531.351562-.378906.46875-.703125zm-2.484375-1.234375h2.5c-.03125-.375-.125-.65625-.28125-.84375-.25-.289063-.570313-.4375-.953125-.4375-.34375 0-.636719.121094-.875.359375-.242188.230469-.371094.539062-.390625.921875zm0 0"/></symbol><symbol id="i" overflow="visible"><path d="m.5625 0v-4.46875h.6875v.671875c.164062-.3125.320312-.519531.46875-.625.15625-.101563.320312-.15625.5-.15625.25 0 .503906.085937.765625.25l-.25.703125c-.1875-.113281-.375-.171875-.5625-.171875-.167969 0-.320313.054687-.453125.15625-.125.105469-.21875.246094-.28125.421875-.085938.261719-.125.554688-.125.875v2.34375zm0 0"/></symbol><symbol id="j" overflow="visible"/><symbol id="k" overflow="visible"><path d="m2.015625 1.8125c-.417969-.53125-.773437-1.148438-1.0625-1.84375-.292969-.707031-.4375-1.441406-.4375-2.203125 0-.664063.109375-1.304687.328125-1.921875.25-.707031.640625-1.414062 1.171875-2.125h.546875c-.34375.585938-.570312 1-.671875 1.25-.179687.386719-.3125.792969-.40625 1.21875-.125.523438-.1875 1.046875-.1875 1.578125 0 1.355469.421875 2.703125 1.265625 4.046875zm0 0"/></symbol><symbol id="l" overflow="visible"><path d="m-.015625 0 2.375-6.171875h.875l2.53125 6.171875h-.9375l-.71875-1.875h-2.578125l-.671875 1.875zm1.78125-2.53125h2.09375l-.640625-1.71875c-.199219-.519531-.34375-.945312-.4375-1.28125-.085938.398438-.195312.792969-.328125 1.1875zm0 0"/></symbol><symbol id="m" overflow="visible"><path d="m3.484375-1.640625.75.09375c-.085937.523437-.292969.929687-.625 1.21875-.335937.28125-.746094.421875-1.234375.421875-.617188 0-1.109375-.195312-1.484375-.59375-.367187-.394531-.546875-.96875-.546875-1.71875 0-.476562.078125-.898438.234375-1.265625.15625-.363281.394531-.632813.71875-.8125.332031-.1875.691406-.28125 1.078125-.28125.488281 0 .882812.125 1.1875.375.3125.242187.507812.589844.59375 1.046875l-.734375.109375c-.074219-.300781-.199219-.523437-.375-.671875-.179687-.15625-.390625-.234375-.640625-.234375-.386719 0-.699219.140625-.9375.421875-.242188.273438-.359375.703125-.359375 1.296875s.113281 1.03125.34375 1.3125c.238281.273437.539063.40625.90625.40625.300781 0 .550781-.085937.75-.265625.195313-.1875.320313-.472656.375-.859375zm0 0"/></symbol><symbol id="n" overflow="visible"><path d="m.578125 0v-6.171875h.75v3.515625l1.796875-1.8125h.984375l-1.71875 1.65625 1.890625 2.8125h-.9375l-1.484375-2.28125-.53125.515625v1.765625zm0 0"/></symbol><symbol id="o" overflow="visible"><path d="m1.0625 1.8125h-.546875c.84375-1.34375 1.265625-2.691406 1.265625-4.046875 0-.53125-.0625-1.050781-.1875-1.5625-.09375-.425781-.226562-.832031-.390625-1.21875-.117187-.25-.34375-.671875-.6875-1.265625h.546875c.53125.710938.921875 1.417969 1.171875 2.125.21875.617188.328125 1.257812.328125 1.921875 0 .761719-.148438 1.496094-.4375 2.203125-.292969.695312-.648438 1.3125-1.0625 1.84375zm0 0"/></symbol><symbol id="p" overflow="visible"><path d="m.390625-1.984375.765625-.0625c.039062.304687.125.554687.25.75.132812.199219.34375.359375.625.484375s.597656.1875.953125.1875c.3125 0 .585937-.046875.828125-.140625.238281-.09375.414062-.21875.53125-.375.113281-.164063.171875-.34375.171875-.53125 0-.195313-.058594-.367187-.171875-.515625-.117188-.144531-.296875-.265625-.546875-.359375-.167969-.0625-.539063-.160156-1.109375-.296875-.5625-.132812-.960938-.265625-1.1875-.390625-.292969-.15625-.511719-.347656-.65625-.578125-.148438-.226562-.21875-.484375-.21875-.765625 0-.3125.085938-.601563.265625-.875.175781-.269531.429687-.472656.765625-.609375.34375-.144531.722656-.21875 1.140625-.21875.457031 0 .859375.074219 1.203125.21875.351562.148438.625.367188.8125.65625.1875.28125.285156.605469.296875.96875l-.78125.0625c-.042969-.394531-.183594-.691406-.421875-.890625-.242188-.195313-.601562-.296875-1.078125-.296875-.492187 0-.851563.09375-1.078125.28125-.230469.179688-.34375.398438-.34375.65625 0 .21875.082031.402344.25.546875.15625.136719.5625.28125 1.21875.4375.664062.148437 1.125.277344 1.375.390625.351562.167969.613281.382812.78125.640625.175781.25.265625.539063.265625.859375 0 .335938-.09375.648438-.28125.9375-.1875.292969-.460937.523438-.8125.6875-.34375.15625-.742187.234375-1.1875.234375-.554687 0-1.023437-.0859375-1.40625-.25-.375-.164063-.671875-.410156-.890625-.734375-.210938-.320312-.320312-.691406-.328125-1.109375zm0 0"/></symbol><symbol id="q" overflow="visible"><path d="m.546875 0v-6.171875h.765625v6.171875zm0 0"/></symbol><symbol id="r" overflow="visible"><path d="m1.8125 0-1.703125-4.46875h.796875l.96875 2.671875c.101562.292969.195312.59375.28125.90625.0625-.238281.15625-.523437.28125-.859375l1-2.71875h.78125l-1.703125 4.46875zm0 0"/></symbol><symbol id="s" overflow="visible"><path d="m.625 0v-6.171875h.828125v5.4375h3.03125v.734375zm0 0"/></symbol><symbol id="t" overflow="visible"><path d="m.671875 0v-6.171875h2.328125c.40625 0 .71875.023437.9375.0625.300781.042969.550781.136719.75.28125.207031.148437.375.351563.5.609375.125.25.1875.527344.1875.828125 0 .53125-.167969.980469-.5 1.34375-.335938.355469-.9375.53125-1.8125.53125h-1.578125v2.515625zm.8125-3.234375h1.59375c.53125 0 .90625-.097656 1.125-.296875.21875-.195312.328125-.472656.328125-.828125 0-.257813-.070312-.476563-.203125-.65625-.125-.1875-.292969-.3125-.5-.375-.136719-.039063-.390625-.0625-.765625-.0625h-1.578125zm0 0"/></symbol><symbol id="u" overflow="visible"><path d="m-.125 1.71875v-.546875h5.015625v.546875zm0 0"/></symbol><symbol id="v" overflow="visible"><path d="m.5625 1.71875v-6.1875h.703125v.578125c.15625-.226563.335937-.398437.546875-.515625.207031-.113281.457031-.171875.75-.171875.375 0 .707031.101563 1 .296875.289062.199219.507812.480469.65625.84375.15625.355469.234375.746094.234375 1.171875 0 .460937-.085937.871094-.25 1.234375-.167969.367188-.40625.648438-.71875.84375-.3125.1875-.640625.28125-.984375.28125-.25 0-.480469-.0546875-.6875-.15625-.199219-.101562-.359375-.238281-.484375-.40625v2.1875zm.6875-3.9375c0 .585938.113281 1.015625.34375 1.296875.238281.273437.523438.40625.859375.40625.332031 0 .617187-.140625.859375-.421875.238281-.289062.359375-.738281.359375-1.34375 0-.5625-.121094-.984375-.359375-1.265625-.230469-.289063-.507812-.4375-.828125-.4375-.324219 0-.609375.152344-.859375.453125-.25.304688-.375.742188-.375 1.3125zm0 0"/></symbol><symbol id="w" overflow="visible"><path d="m3.46875 0v-.5625c-.28125.4375-.699219.65625-1.25.65625-.355469 0-.683594-.09375-.984375-.28125-.304687-.195312-.539063-.472656-.703125-.828125-.15625-.351563-.234375-.757813-.234375-1.21875 0-.445313.070313-.851563.21875-1.21875.144531-.363281.367187-.640625.671875-.828125.300781-.195312.632812-.296875 1-.296875.269531 0 .507812.058594.71875.171875.207031.117188.378906.265625.515625.453125v-2.21875h.75v6.171875zm-2.390625-2.234375c0 .574219.117187 1.007813.359375 1.296875.238281.28125.523438.421875.859375.421875.320313 0 .597656-.132813.828125-.40625.238281-.269531.359375-.6875.359375-1.25 0-.613281-.121094-1.0625-.359375-1.34375-.230469-.289063-.523438-.4375-.875-.4375-.335938 0-.617188.140625-.84375.421875-.21875.273438-.328125.703125-.328125 1.296875zm0 0"/></symbol><symbol id="x" overflow="visible"><path d="m.0625 0 1.640625-2.328125-1.515625-2.140625h.953125l.671875 1.046875c.132812.199219.238281.367187.3125.5.125-.1875.238281-.351563.34375-.5l.75-1.046875h.90625l-1.546875 2.109375 1.671875 2.359375h-.9375l-.90625-1.390625-.25-.375-1.171875 1.765625zm0 0"/></symbol><symbol id="y" overflow="visible"><path d="m5.078125-2.171875.8125.21875c-.179687.667969-.492187 1.179687-.9375 1.53125-.4375.3554688-.980469.53125-1.625.53125-.667969 0-1.210937-.1328125-1.625-.40625-.417969-.269531-.734375-.660156-.953125-1.171875-.21875-.519531-.328125-1.078125-.328125-1.671875 0-.632813.125-1.191406.375-1.671875.25-.476562.597656-.84375 1.046875-1.09375.457031-.25.957031-.375 1.5-.375.613281 0 1.128906.164062 1.546875.484375.425781.3125.722656.75.890625 1.3125l-.796875.1875c-.148437-.445313-.355469-.769531-.625-.96875-.273437-.207031-.617187-.3125-1.03125-.3125-.480469 0-.882813.117187-1.203125.34375-.3125.230469-.539062.539063-.671875.921875-.125.375-.1875.765625-.1875 1.171875 0 .53125.078125.996094.234375 1.390625.15625.386719.394531.679688.71875.875.320312.1875.671875.28125 1.046875.28125.457031 0 .84375-.128906 1.15625-.390625.320313-.269531.539063-.664063.65625-1.1875zm0 0"/></symbol><symbol id="z" overflow="visible"><path d="m.421875-3c0-1.03125.269531-1.832031.8125-2.40625.550781-.582031 1.265625-.875 2.140625-.875.570312 0 1.082031.136719 1.53125.40625.457031.273438.804688.652344 1.046875 1.140625.25.492187.375 1.042969.375 1.65625 0 .625-.132813 1.1875-.390625 1.6875-.25.492187-.609375.867187-1.078125 1.125-.460937.25-.953125.375-1.484375.375-.585938 0-1.105469-.140625-1.5625-.421875-.460938-.28125-.808594-.660156-1.046875-1.140625-.230469-.488281-.34375-1.003906-.34375-1.546875zm.84375 0c0 .75.195313 1.339844.59375 1.765625.394531.429687.894531.640625 1.5.640625.613281 0 1.117187-.210938 1.515625-.640625.40625-.4375.609375-1.050781.609375-1.84375 0-.507813-.089844-.953125-.265625-1.328125-.167969-.375-.417969-.660156-.75-.859375-.324219-.207031-.6875-.3125-1.09375-.3125-.574219 0-1.070312.199219-1.484375.59375-.417969.398437-.625 1.058594-.625 1.984375zm0 0"/></symbol><symbol id="A" overflow="visible"><path d="m.578125-5.296875v-.875h.75v.875zm0 5.296875v-4.46875h.75v4.46875zm0 0"/></symbol><symbol id="B" overflow="visible"><path d="m.5625 0v-4.46875h.6875v.625c.332031-.488281.804688-.734375 1.421875-.734375.269531 0 .515625.054687.734375.15625.226562.09375.398438.21875.515625.375.113281.15625.191406.34375.234375.5625.03125.136719.046875.382813.046875.734375v2.75h-.765625v-2.71875c0-.3125-.03125-.539062-.09375-.6875-.054688-.15625-.15625-.28125-.3125-.375-.148438-.09375-.320312-.140625-.515625-.140625-.324219 0-.605469.105469-.84375.3125-.230469.210937-.34375.601563-.34375 1.171875v2.4375zm0 0"/></symbol><symbol id="C" overflow="visible"><path d="m3.421875 1.71875v-2.1875c-.117187.15625-.28125.292969-.5.40625-.210937.1015625-.433594.15625-.671875.15625-.53125 0-.992188-.207031-1.375-.625-.386719-.425781-.578125-1.007812-.578125-1.75 0-.445312.078125-.847656.234375-1.203125.15625-.351563.378906-.625.671875-.8125.300781-.1875.628906-.28125.984375-.28125.550781 0 .988281.234375 1.3125.703125v-.59375h.671875v6.1875zm-2.34375-3.96875c0 .574219.117187 1.007812.359375 1.296875.25.292969.539062.4375.875.4375.320312 0 .597656-.132813.828125-.40625.238281-.28125.359375-.703125.359375-1.265625 0-.59375-.125-1.035156-.375-1.328125-.242188-.300781-.527344-.453125-.859375-.453125-.335937 0-.617187.140625-.84375.421875-.230469.273437-.34375.703125-.34375 1.296875zm0 0"/></symbol><symbol id="D" overflow="visible"><path d="m.5625 0v-4.46875h.6875v.625c.132812-.21875.316406-.394531.546875-.53125.238281-.132812.507813-.203125.8125-.203125.320313 0 .585937.074219.796875.21875.21875.136719.367188.324219.453125.5625.351563-.519531.816406-.78125 1.390625-.78125.4375 0 .773438.125 1.015625.375.238281.242187.359375.621094.359375 1.140625v3.0625h-.75v-2.8125c0-.300781-.027344-.519531-.078125-.65625-.042969-.132812-.132813-.242188-.265625-.328125-.125-.082031-.277344-.125-.453125-.125-.3125 0-.574219.105469-.78125.3125-.210937.210937-.3125.546875-.3125 1.015625v2.59375h-.765625v-2.90625c0-.332031-.0625-.582031-.1875-.75-.117188-.175781-.3125-.265625-.59375-.265625-.21875 0-.417969.058594-.59375.171875-.179688.117188-.308594.28125-.390625.5-.085937.210938-.125.515625-.125.921875v2.328125zm0 0"/></symbol><symbol id="E" overflow="visible"><path d="m.28125-2.234375c0-.832031.234375-1.445313.703125-1.84375.375-.332031.84375-.5 1.40625-.5.613281 0 1.113281.203125 1.5.609375.394531.40625.59375.964844.59375 1.671875 0 .574219-.089844 1.027344-.265625 1.359375-.179688.324219-.433594.578125-.765625.765625-.324219.17578125-.679687.265625-1.0625.265625-.636719 0-1.148437-.195312-1.53125-.59375-.386719-.40625-.578125-.984375-.578125-1.734375zm.78125 0c0 .574219.125 1.007813.375 1.296875.25.28125.566406.421875.953125.421875.375 0 .6875-.140625.9375-.421875.25-.289062.375-.734375.375-1.328125 0-.550781-.132813-.96875-.390625-1.25-.25-.289063-.558594-.4375-.921875-.4375-.386719 0-.703125.148437-.953125.4375-.25.28125-.375.710937-.375 1.28125zm0 0"/></symbol><symbol id="F" overflow="visible"><path d="m.515625 0v-5.140625h1.671875c.632812 0 1.046875.027344 1.234375.078125.300781.074219.550781.242188.75.5.195313.261719.296875.59375.296875 1 0 .3125-.058594.578125-.171875.796875-.117187.21875-.261719.390625-.4375.515625-.179687.117188-.359375.195312-.546875.234375-.25.054687-.609375.078125-1.078125.078125h-.671875v1.9375zm1.046875-4.28125v1.46875h.5625c.414062 0 .691406-.023438.828125-.078125.132813-.050781.238281-.132813.3125-.25.082031-.113281.125-.25.125-.40625 0-.1875-.058594-.335937-.171875-.453125-.105469-.125-.242188-.203125-.40625-.234375-.125-.03125-.375-.046875-.75-.046875zm0 0"/></symbol><symbol id="G" overflow="visible"><path d="m1.25-2.59375-.890625-.15625c.101563-.363281.273437-.628906.515625-.796875.25-.175781.613281-.265625 1.09375-.265625.4375 0 .765625.054688.984375.15625.21875.105469.367187.242188.453125.40625.09375.15625.140625.449219.140625.875l-.015625 1.15625c0 .324219.015625.5625.046875.71875s.085937.324219.171875.5h-.96875c-.03125-.0625-.0625-.160156-.09375-.296875-.023438-.050781-.03125-.085937-.03125-.109375-.179688.167969-.359375.292969-.546875.375-.1875.0703125-.390625.109375-.609375.109375-.386719 0-.695312-.1015625-.921875-.3125-.21875-.207031-.328125-.46875-.328125-.78125 0-.207031.050781-.394531.15625-.5625.101562-.164063.242188-.289063.421875-.375.1875-.09375.445313-.171875.78125-.234375.46875-.082031.789063-.164062.96875-.25v-.09375c0-.1875-.046875-.320312-.140625-.40625-.09375-.082031-.273438-.125-.53125-.125-.179688 0-.320312.039062-.421875.109375-.09375.074219-.171875.195313-.234375.359375zm1.328125.796875c-.125.042969-.328125.09375-.609375.15625-.273438.0625-.449219.121094-.53125.171875-.125.09375-.1875.210938-.1875.34375 0 .148438.046875.273438.140625.375.101563.09375.238281.140625.40625.140625.175781 0 .34375-.054687.5-.171875.125-.09375.203125-.203125.234375-.328125.03125-.082031.046875-.242187.046875-.484375zm0 0"/></symbol><symbol id="H" overflow="visible"><path d="m.421875.25 1.125.125c.019531.132812.066406.226562.140625.28125.09375.070312.238281.109375.4375.109375.257812 0 .453125-.042969.578125-.125.082031-.054687.148437-.136719.203125-.25.019531-.085937.03125-.234375.03125-.453125v-.546875c-.292969.40625-.664062.609375-1.109375.609375-.5 0-.898437-.210938-1.1875-.640625-.230469-.332031-.34375-.75-.34375-1.25 0-.625.148437-1.097656.453125-1.421875.300781-.332031.671875-.5 1.109375-.5.46875 0 .847656.203125 1.140625.609375v-.53125h.9375v3.359375c0 .4375-.039062.765625-.109375.984375-.074219.21875-.179687.382813-.3125.5-.136719.125-.3125.222656-.53125.296875-.21875.070312-.496094.109375-.828125.109375-.625 0-1.074219-.109375-1.34375-.328125-.261719-.21875-.390625-.496094-.390625-.828125 0-.03125 0-.070313 0-.109375zm.890625-2.1875c0 .398438.070312.6875.21875.875.15625.179688.347656.265625.578125.265625.238281 0 .441406-.09375.609375-.28125.164062-.1875.25-.46875.25-.84375 0-.382813-.085938-.671875-.25-.859375-.15625-.1875-.355469-.28125-.59375-.28125-.242188 0-.4375.09375-.59375.28125-.148438.1875-.21875.46875-.21875.84375zm0 0"/></symbol><symbol id="I" overflow="visible"><path d="m.515625-4.234375v-.90625h.984375v.90625zm0 4.234375v-3.734375h.984375v3.734375zm0 0"/></symbol><symbol id="J" overflow="visible"><path d="m3.90625 0h-.984375v-1.90625c0-.394531-.023437-.648438-.0625-.765625-.042969-.125-.109375-.21875-.203125-.28125-.09375-.070313-.210938-.109375-.34375-.109375-.179688 0-.335938.046875-.46875.140625-.136719.09375-.230469.21875-.28125.375-.042969.15625-.0625.445313-.0625.859375v1.6875h-.984375v-3.734375h.90625v.5625c.320313-.425781.734375-.640625 1.234375-.640625.21875 0 .414062.042969.59375.125.175781.074219.3125.171875.40625.296875.09375.117187.15625.25.1875.40625.039062.15625.0625.382813.0625.671875zm0 0"/></symbol><symbol id="K" overflow="visible"/><symbol id="L" overflow="visible"><path d="m.265625-1.671875 1-.09375c.0625.335937.1875.585937.375.75.1875.15625.4375.234375.75.234375.332031 0 .582031-.066406.75-.203125.175781-.144531.265625-.316406.265625-.515625 0-.113281-.039062-.210938-.109375-.296875-.074219-.09375-.199219-.171875-.375-.234375-.125-.039062-.402344-.113281-.828125-.21875-.5625-.132812-.953125-.304688-1.171875-.515625-.3125-.28125-.46875-.625-.46875-1.03125 0-.257813.070313-.503906.21875-.734375.144531-.226562.359375-.398438.640625-.515625.28125-.125.617188-.1875 1.015625-.1875.644531 0 1.128906.140625 1.453125.421875.320312.28125.492188.664062.515625 1.140625l-1.046875.046875c-.042969-.269531-.136719-.460938-.28125-.578125-.148438-.113281-.367188-.171875-.65625-.171875-.304688 0-.539062.0625-.703125.1875-.117187.085938-.171875.1875-.171875.3125s.050781.230469.15625.3125c.132812.117188.453125.234375.953125.359375.507813.117187.882813.234375 1.125.359375.238281.125.425781.304688.5625.53125.132813.21875.203125.492188.203125.8125 0 .292969-.085938.570312-.25.828125-.15625.261719-.386719.453125-.6875.578125-.304688.125-.671875.1875-1.109375.1875-.65625 0-1.164063-.1484375-1.515625-.453125-.34375-.300781-.546875-.738281-.609375-1.3125zm0 0"/></symbol><symbol id="M" overflow="visible"><path d="m3.765625-2.625-.96875.171875c-.03125-.1875-.109375-.328125-.234375-.421875-.117188-.101562-.261719-.15625-.4375-.15625-.25 0-.449219.085938-.59375.25-.148438.167969-.21875.449219-.21875.84375 0 .449219.070312.765625.21875.953125.15625.179687.359375.265625.609375.265625.1875 0 .335937-.050781.453125-.15625.113281-.101562.195312-.285156.25-.546875l.96875.15625c-.105469.449219-.296875.789063-.578125 1.015625-.28125.21875-.664063.328125-1.140625.328125-.554688 0-.992188-.171875-1.3125-.515625-.324219-.34375-.484375-.816406-.484375-1.421875 0-.613281.160156-1.09375.484375-1.4375.332031-.34375.773438-.515625 1.328125-.515625.445313 0 .804687.101562 1.078125.296875.269531.199219.460938.496094.578125.890625zm0 0"/></symbol><symbol id="N" overflow="visible"><path d="m.515625-5.140625h1.90625c.425781 0 .75.03125.96875.09375.300781.09375.5625.257813.78125.484375.21875.21875.378906.496094.484375.828125.113281.324219.171875.730469.171875 1.21875 0 .417969-.054687.78125-.15625 1.09375-.125.375-.308594.679687-.546875.90625-.179688.179687-.421875.3125-.734375.40625-.230469.0742188-.539063.109375-.921875.109375h-1.953125zm1.046875.859375v3.421875h.765625c.289063 0 .503906-.019531.640625-.0625.164062-.039063.300781-.109375.40625-.203125.113281-.101562.207031-.269531.28125-.5.070312-.226562.109375-.539062.109375-.9375 0-.40625-.039063-.710938-.109375-.921875-.074219-.207031-.171875-.367187-.296875-.484375-.125-.125-.289063-.207031-.484375-.25-.148438-.039062-.429688-.0625-.84375-.0625zm0 0"/></symbol><symbol id="O" overflow="visible"><path d="m.171875-1.0625.984375-.15625c.039062.199219.125.351562.25.453125.132812.09375.316406.140625.546875.140625.257813 0 .453125-.046875.578125-.140625.082031-.0625.125-.148437.125-.265625 0-.070312-.023438-.132812-.0625-.1875-.054688-.039062-.164062-.082031-.328125-.125-.804687-.175781-1.308594-.335938-1.515625-.484375-.292969-.195313-.4375-.476563-.4375-.84375 0-.320313.125-.59375.375-.8125.257812-.21875.65625-.328125 1.1875-.328125.507812 0 .890625.085938 1.140625.25.25.167969.421875.414062.515625.734375l-.9375.171875c-.042969-.144531-.121094-.253906-.234375-.328125-.105469-.082031-.261719-.125-.46875-.125-.261719 0-.449219.039063-.5625.109375-.074219.054688-.109375.121094-.109375.203125 0 .074219.03125.136719.09375.1875.09375.0625.398438.15625.921875.28125.53125.117187.898437.257813 1.109375.421875.207031.179688.3125.421875.3125.734375 0 .34375-.148438.640625-.4375.890625-.28125.2421875-.703125.359375-1.265625.359375-.511719 0-.914063-.0976562-1.203125-.296875-.292969-.207031-.484375-.488281-.578125-.84375zm0 0"/></symbol><symbol id="P" overflow="visible"><path d="m.46875 0v-5.140625h.984375v1.84375c.3125-.34375.675781-.515625 1.09375-.515625.445313 0 .816406.167969 1.109375.5.300781.324219.453125.792969.453125 1.40625 0 .636719-.152344 1.125-.453125 1.46875-.304688.34375-.667969.515625-1.09375.515625-.21875 0-.433594-.0546875-.640625-.15625-.210937-.101563-.386719-.257813-.53125-.46875v.546875zm.984375-1.9375c0 .386719.0625.667969.1875.84375.164063.273438.390625.40625.671875.40625.21875 0 .40625-.09375.5625-.28125s.234375-.484375.234375-.890625c0-.414063-.078125-.71875-.234375-.90625-.15625-.195313-.355469-.296875-.59375-.296875-.242188 0-.4375.09375-.59375.28125s-.234375.46875-.234375.84375zm0 0"/></symbol><symbol id="Q" overflow="visible"><path d="m.515625 0v-5.140625h.984375v5.140625zm0 0"/></symbol><symbol id="R" overflow="visible"><path d="m2.671875-1.1875.984375.171875c-.125.355469-.324219.625-.59375.8125-.273438.1875-.617188.28125-1.03125.28125-.648438 0-1.125-.207031-1.4375-.625-.242188-.34375-.359375-.769531-.359375-1.28125 0-.625.160156-1.109375.484375-1.453125.320312-.351562.726562-.53125 1.21875-.53125.550781 0 .988281.183594 1.3125.546875.320312.367187.472656.929687.453125 1.6875h-2.46875c.007813.292969.085937.523437.234375.6875.15625.15625.347656.234375.578125.234375.15625 0 .285156-.039062.390625-.125.101562-.082031.179688-.21875.234375-.40625zm.0625-1c-.011719-.28125-.089844-.492188-.234375-.640625-.136719-.15625-.304688-.234375-.5-.234375-.21875 0-.398438.078125-.53125.234375-.148438.15625-.21875.371094-.21875.640625zm0 0"/></symbol><symbol id="S" overflow="visible"><path d="m3.9375 0h-.921875v-.546875c-.148437.210937-.324219.367187-.53125.46875-.210937.1015625-.417969.15625-.625.15625-.4375 0-.808594-.171875-1.109375-.515625-.304688-.34375-.453125-.820312-.453125-1.4375 0-.632812.144531-1.113281.4375-1.4375.300781-.332031.675781-.5 1.125-.5.414063 0 .78125.171875 1.09375.515625v-1.84375h.984375zm-2.640625-1.9375c0 .398438.054687.683594.171875.859375.15625.261719.378906.390625.671875.390625.21875 0 .40625-.097656.5625-.296875.164063-.195313.25-.484375.25-.859375 0-.425781-.078125-.734375-.234375-.921875-.15625-.195313-.355469-.296875-.59375-.296875-.230469 0-.429688.09375-.59375.28125-.15625.1875-.234375.46875-.234375.84375zm0 0"/></symbol><symbol id="T" overflow="visible"><path d="m.515625 0v-5.140625h1.546875l.9375 3.5.921875-3.5h1.5625v5.140625h-.96875v-4.046875l-1.03125 4.046875h-1l-1.015625-4.046875v4.046875zm0 0"/></symbol><symbol id="U" overflow="visible"><path d="m2.96875 0v-.5625c-.136719.199219-.3125.355469-.53125.46875-.21875.1132812-.453125.171875-.703125.171875s-.476563-.0546875-.671875-.15625c-.199219-.113281-.34375-.269531-.4375-.46875-.085938-.195313-.125-.472656-.125-.828125v-2.359375h.984375v1.71875c0 .523437.015625.84375.046875.96875.039062.117187.109375.210937.203125.28125.09375.0625.210937.09375.359375.09375.164062 0 .316406-.039063.453125-.125.132813-.09375.226563-.207031.28125-.34375.050781-.144531.078125-.484375.078125-1.015625v-1.578125h.984375v3.734375zm0 0"/></symbol><symbol id="V" overflow="visible"><path d="m2.21875-3.734375v.796875h-.671875v1.5c0 .304688.003906.480469.015625.53125.019531.054688.050781.09375.09375.125.050781.03125.109375.046875.171875.046875.09375 0 .222656-.03125.390625-.09375l.09375.765625c-.230469.09375-.492188.140625-.78125.140625-.179688 0-.339844-.0273438-.484375-.078125-.148437-.0625-.257813-.140625-.328125-.234375-.0625-.09375-.105469-.222656-.125-.390625-.023438-.113281-.03125-.34375-.03125-.6875v-1.625h-.453125v-.796875h.453125v-.734375l.984375-.578125v1.3125zm0 0"/></symbol><symbol id="W" overflow="visible"><path d="m1.484375 0v-3.625h-1.34375v-.484375h3.25v.484375h-1.359375v3.625zm0 0"/></symbol><symbol id="X" overflow="visible"><path d="m.375 0v-2.984375h.453125v.453125c.113281-.207031.21875-.34375.3125-.40625.101563-.070312.210937-.109375.328125-.109375.175781 0 .351562.054687.53125.15625l-.1875.46875c-.117188-.070313-.234375-.109375-.359375-.109375-.117187 0-.21875.039062-.3125.109375-.085937.0625-.140625.152344-.171875.265625-.0625.1875-.09375.386719-.09375.59375v1.5625zm0 0"/></symbol><symbol id="Y" overflow="visible"><path d="m2.328125 0v-.4375c-.230469.335938-.542969.5-.9375.5-.179687 0-.34375-.03125-.5-.09375-.148437-.070312-.261719-.15625-.34375-.25-.074219-.101562-.121094-.226562-.140625-.375-.023438-.101562-.03125-.265625-.03125-.484375v-1.84375h.5v1.65625c0 .261719.007812.4375.03125.53125.03125.136719.097656.242187.203125.3125.101563.074219.226563.109375.375.109375.15625 0 .296875-.035156.421875-.109375.132812-.070313.226562-.175781.28125-.3125.0625-.132813.09375-.332031.09375-.59375v-1.59375h.5v2.984375zm0 0"/></symbol><symbol id="Z" overflow="visible"><path d="m.375 0v-2.984375h.453125v.421875c.21875-.320312.535156-.484375.953125-.484375.175781 0 .335938.03125.484375.09375.15625.0625.269531.148437.34375.25.082031.105469.140625.230469.171875.375.007812.09375.015625.261719.015625.5v1.828125h-.5v-1.8125c0-.207031-.023437-.359375-.0625-.453125-.042969-.101563-.117187-.1875-.21875-.25-.09375-.0625-.210937-.09375-.34375-.09375-.210937 0-.390625.070313-.546875.203125-.15625.136719-.234375.398438-.234375.78125v1.625zm0 0"/></symbol><symbol id="aa" overflow="visible"><path d="m2.328125-1.09375.5.0625c-.0625.34375-.210937.617188-.4375.8125-.21875.1875-.492187.28125-.8125.28125-.40625 0-.734375-.1289062-.984375-.390625-.25-.269531-.375-.65625-.375-1.15625 0-.320313.050781-.601563.15625-.84375.113281-.238281.28125-.414063.5-.53125.21875-.125.453125-.1875.703125-.1875.320313 0 .585937.085937.796875.25.207031.15625.34375.386719.40625.6875l-.5.078125c-.042969-.195312-.125-.347656-.25-.453125-.117188-.101563-.257812-.15625-.421875-.15625-.261719 0-.46875.09375-.625.28125-.15625.179687-.234375.464844-.234375.859375 0 .40625.070312.703125.21875.890625.15625.179687.359375.265625.609375.265625.195313 0 .359375-.0625.484375-.1875.132812-.125.222656-.3125.265625-.5625zm0 0"/></symbol><symbol id="ab" overflow="visible"><path d="m2.328125-.375c-.1875.167969-.371094.28125-.546875.34375-.167969.0625-.351562.09375-.546875.09375-.335937 0-.589844-.078125-.765625-.234375-.179688-.15625-.265625-.359375-.265625-.609375 0-.144531.03125-.28125.09375-.40625.070313-.125.160156-.222656.265625-.296875.113281-.070313.238281-.125.375-.15625.09375-.03125.238281-.054687.4375-.078125.414062-.050781.71875-.109375.90625-.171875 0-.070313 0-.117187 0-.140625 0-.195312-.046875-.335938-.140625-.421875-.125-.113281-.320313-.171875-.578125-.171875-.242188 0-.417969.042969-.53125.125-.105469.085938-.1875.230469-.25.4375l-.484375-.0625c.039063-.21875.113281-.390625.21875-.515625.101563-.132813.25-.234375.4375-.296875.195313-.070312.425781-.109375.6875-.109375.25 0 .453125.03125.609375.09375.164062.054687.285156.125.359375.21875.070313.09375.125.210937.15625.34375.019531.085937.03125.242187.03125.46875v.671875c0 .46875.007813.765625.03125.890625.019531.125.0625.246094.125.359375h-.53125c-.054687-.101562-.085937-.226562-.09375-.375zm-.046875-1.125c-.1875.074219-.464844.136719-.828125.1875-.210937.03125-.355469.070312-.4375.109375-.085937.042969-.152344.101563-.203125.171875-.042969.0625-.0625.140625-.0625.234375 0 .136719.046875.25.140625.34375.101563.085937.253906.125.453125.125.195312 0 .367188-.039063.515625-.125.15625-.082031.269531-.203125.34375-.359375.050781-.113281.078125-.28125.078125-.5zm0 0"/></symbol><symbol id="ac" overflow="visible"><path d="m1.484375-.453125.078125.453125c-.148438.03125-.277344.046875-.390625.046875-.179687 0-.320313-.03125-.421875-.09375-.105469-.0625-.179688-.140625-.21875-.234375-.042969-.09375-.0625-.289062-.0625-.59375v-1.71875h-.375v-.390625h.375v-.734375l.5-.296875v1.03125h.515625v.390625h-.515625v1.75c0 .148438.007812.242188.03125.28125.019531.042969.046875.074219.078125.09375.039063.023438.101563.03125.1875.03125.050781 0 .125-.003906.21875-.015625zm0 0"/></symbol><symbol id="ad" overflow="visible"><path d="m2.421875-.953125.515625.0625c-.085938.304687-.234375.539063-.453125.703125-.21875.1679688-.507813.25-.859375.25-.429688 0-.773438-.1289062-1.03125-.390625-.261719-.269531-.390625-.648437-.390625-1.140625 0-.5.128906-.882812.390625-1.15625.257812-.28125.597656-.421875 1.015625-.421875.394531 0 .71875.136719.96875.40625.25.273437.375.652344.375 1.140625v.140625h-2.21875c.019531.324219.113281.574219.28125.75.164063.179687.375.265625.625.265625.175781 0 .332031-.046875.46875-.140625.132813-.101563.238281-.257813.3125-.46875zm-1.65625-.828125h1.65625c-.023437-.25-.085937-.4375-.1875-.5625-.15625-.195312-.367187-.296875-.625-.296875-.230469 0-.429687.078125-.59375.234375-.15625.15625-.242187.367188-.25.625zm0 0"/></symbol><symbol id="ae" overflow="visible"><path d="m2.3125 0v-.375c-.1875.2929688-.464844.4375-.828125.4375-.242187 0-.460937-.0625-.65625-.1875-.199219-.132812-.355469-.316406-.46875-.546875-.105469-.238281-.15625-.507813-.15625-.8125 0-.300781.046875-.570313.140625-.8125.101562-.238281.253906-.421875.453125-.546875.195313-.132812.414063-.203125.65625-.203125.1875 0 .347656.039063.484375.109375.132812.074219.25.171875.34375.296875v-1.46875h.5v4.109375zm-1.59375-1.484375c0 .375.078125.664063.234375.859375.164063.1875.359375.28125.578125.28125s.40625-.085938.5625-.265625c.15625-.1875.234375-.46875.234375-.84375 0-.40625-.085937-.703125-.25-.890625-.15625-.1875-.351563-.28125-.578125-.28125-.21875 0-.40625.09375-.5625.28125-.148438.179688-.21875.464844-.21875.859375zm0 0"/></symbol><symbol id="af" overflow="visible"><path d="m.28125-2c0-.6875.179688-1.222656.546875-1.609375.363281-.382813.835937-.578125 1.421875-.578125.375 0 .710938.09375 1.015625.28125.3125.179688.546875.429688.703125.75.164062.324219.25.695312.25 1.109375 0 .417969-.089844.792969-.265625 1.125-.167969.324219-.40625.570313-.71875.734375-.304687.1679688-.632813.25-.984375.25-.386719 0-.734375-.0859375-1.046875-.265625-.304687-.1875-.53125-.441406-.6875-.765625-.15625-.332031-.234375-.675781-.234375-1.03125zm.5625 0c0 .5.128906.898438.390625 1.1875.269531.28125.609375.421875 1.015625.421875s.738281-.144531 1-.4375c.269531-.289063.40625-.703125.40625-1.234375 0-.332031-.058594-.625-.171875-.875-.117187-.25-.28125-.441406-.5-.578125-.21875-.132813-.464844-.203125-.734375-.203125-.386719 0-.71875.136719-1 .40625-.273438.261719-.40625.699219-.40625 1.3125zm0 0"/></symbol><symbol id="ag" overflow="visible"><path d="m.375 1.140625v-4.125h.46875v.390625c.101562-.15625.222656-.269531.359375-.34375.132813-.070312.300781-.109375.5-.109375.257813 0 .484375.070313.671875.203125.195312.125.34375.308594.4375.546875.101562.242187.15625.5.15625.78125 0 .304687-.058594.578125-.171875.828125-.105469.242188-.261719.429688-.46875.5625-.210937.125-.429687.1875-.65625.1875-.167969 0-.320313-.03125-.453125-.09375-.136719-.070312-.246094-.164062-.328125-.28125v1.453125zm.46875-2.609375c0 .375.070312.65625.21875.84375.15625.1875.347656.28125.578125.28125.21875 0 .40625-.09375.5625-.28125.164063-.195312.25-.492188.25-.890625 0-.382813-.078125-.671875-.234375-.859375s-.34375-.28125-.5625-.28125-.414062.105469-.578125.3125c-.15625.199219-.234375.492188-.234375.875zm0 0"/></symbol><symbol id="ah" overflow="visible"><path d="m.1875-1.484375c0-.550781.15625-.960937.46875-1.234375.25-.21875.5625-.328125.9375-.328125.40625 0 .738281.136719 1 .40625.257812.261719.390625.632813.390625 1.109375 0 .386719-.058594.6875-.171875.90625-.117188.21875-.28125.390625-.5.515625-.21875.11328125-.460938.171875-.71875.171875-.417969 0-.757812-.1289062-1.015625-.390625-.261719-.269531-.390625-.65625-.390625-1.15625zm.515625 0c0 .375.082031.664063.25.859375.164063.1875.378906.28125.640625.28125.25 0 .457031-.09375.625-.28125.164062-.195312.25-.488281.25-.875 0-.375-.085938-.65625-.25-.84375-.167969-.1875-.375-.28125-.625-.28125-.261719 0-.476562.09375-.640625.28125-.167969.1875-.25.476562-.25.859375zm0 0"/></symbol><symbol id="ai" overflow="visible"><path d="m.53125 0v-4.109375h.546875v4.109375zm0 0"/></symbol><symbol id="aj" overflow="visible"><path d="m.4375 0v-4.109375h1.421875c.320313 0 .566406.015625.734375.046875.238281.0625.441406.164062.609375.296875.21875.1875.378906.429687.484375.71875.101562.28125.15625.605469.15625.96875 0 .3125-.039062.589844-.109375.828125-.074219.242188-.167969.445312-.28125.609375-.117187.15625-.242187.28125-.375.375-.136719.085937-.304687.152344-.5.203125-.1875.0429688-.40625.0625-.65625.0625zm.546875-.484375h.875c.28125 0 .492187-.023437.640625-.078125.15625-.050781.28125-.125.375-.21875.125-.125.222656-.296875.296875-.515625.070313-.21875.109375-.484375.109375-.796875 0-.425781-.074219-.753906-.21875-.984375-.136719-.226563-.304688-.382813-.5-.46875-.148438-.050781-.382812-.078125-.703125-.078125h-.875zm0 0"/></symbol><symbol id="ak" overflow="visible"><path d="m.421875 0v-4.109375h.546875v3.625h2.03125v.484375zm0 0"/></symbol><symbol id="al" overflow="visible"><path d="m.28125.25.5.0625c.019531.15625.078125.269531.171875.34375.125.09375.296875.140625.515625.140625.226562 0 .40625-.046875.53125-.140625.132812-.09375.222656-.226562.265625-.390625.019531-.105469.03125-.3203125.03125-.65625-.21875.261719-.496094.390625-.828125.390625-.40625 0-.726562-.144531-.953125-.4375-.21875-.300781-.328125-.65625-.328125-1.0625 0-.289062.050781-.554688.15625-.796875.101562-.238281.25-.421875.4375-.546875.195312-.132812.429688-.203125.703125-.203125.34375 0 .628906.140625.859375.421875v-.359375h.46875v2.578125c0 .46875-.046875.796875-.140625.984375-.09375.195313-.246094.347656-.453125.453125-.199219.113281-.449219.171875-.75.171875-.355469 0-.640625-.078125-.859375-.234375s-.328125-.398438-.328125-.71875zm.421875-1.796875c0 .398437.078125.683594.234375.859375.15625.179688.347656.265625.578125.265625.238281 0 .4375-.085937.59375-.265625.15625-.175781.234375-.457031.234375-.84375 0-.363281-.085938-.632812-.25-.8125-.15625-.1875-.351562-.28125-.578125-.28125-.230469 0-.421875.09375-.578125.28125-.15625.179688-.234375.445312-.234375.796875zm0 0"/></symbol><symbol id="am" overflow="visible"><path d="m.375 0v-4.109375h.515625v1.46875c.226563-.269531.523437-.40625.890625-.40625.21875 0 .40625.046875.5625.140625.164062.085938.285156.203125.359375.359375.070313.148437.109375.367187.109375.65625v1.890625h-.515625v-1.890625c0-.25-.058594-.429687-.171875-.546875-.105469-.113281-.257812-.171875-.453125-.171875-.148437 0-.289063.042969-.421875.125-.136719.074219-.230469.179687-.28125.3125-.054688.125-.078125.308594-.078125.546875v1.625zm0 0"/></symbol><symbol id="an" overflow="visible"/><symbol id="ao" overflow="visible"><path d="m3.03125-2.421875h-2.71875v-.46875h2.71875zm0 1.25h-2.71875v-.46875h2.71875zm0 0"/></symbol><symbol id="ap" overflow="visible"><path d="m2.890625-.484375v.484375h-2.71875c0-.125.019531-.238281.0625-.34375.070313-.1875.179687-.367188.328125-.546875.15625-.1875.378906-.394531.671875-.625.4375-.375.734375-.664063.890625-.875.164062-.21875.25-.421875.25-.609375 0-.195312-.074219-.363281-.21875-.5-.148438-.144531-.335938-.21875-.5625-.21875-.242188 0-.433594.074219-.578125.21875-.148437.148438-.226563.351562-.234375.609375l-.515625-.046875c.039063-.394531.175781-.691406.40625-.890625.226563-.207031.539063-.3125.9375-.3125.394531 0 .707031.117187.9375.34375.226563.21875.34375.492187.34375.8125 0 .15625-.039063.320313-.109375.484375-.0625.15625-.171875.324219-.328125.5-.15625.179688-.417969.417969-.78125.71875-.304687.261719-.5.4375-.59375.53125-.085937.085938-.152344.171875-.203125.265625zm0 0"/></symbol><symbol id="aq" overflow="visible"><path d="m.46875 0v-4.109375h2.78125v.484375h-2.234375v1.265625h1.9375v.484375h-1.9375v1.875zm0 0"/></symbol><symbol id="ar" overflow="visible"><path d="m.375 0v-4.109375h.5v4.109375zm0 0"/></symbol><symbol id="as" overflow="visible"><path d="m.921875 0-.90625-2.984375h.53125l.46875 1.71875.171875.640625c.007812-.03125.0625-.234375.15625-.609375l.46875-1.75h.53125l.4375 1.734375.15625.5625.171875-.578125.5-1.71875h.5l-.9375 2.984375h-.515625l-.484375-1.78125-.109375-.515625-.609375 2.296875zm0 0"/></symbol><symbol id="at" overflow="visible"><path d="m.421875 0v-4.109375h1.546875c.3125 0 .5625.042969.75.125.1875.085937.332031.214844.4375.390625.113281.167969.171875.34375.171875.53125 0 .179688-.046875.34375-.140625.5s-.242188.28125-.4375.375c.25.074219.441406.199219.578125.375.132813.179688.203125.386719.203125.625 0 .1875-.042969.367188-.125.53125-.085938.167969-.1875.296875-.3125.390625-.117188.085937-.261719.152344-.4375.203125-.179688.0429688-.402344.0625-.671875.0625zm.546875-2.390625h.890625c.238281 0 .410156-.015625.515625-.046875.132812-.039062.238281-.109375.3125-.203125.070312-.09375.109375-.210937.109375-.359375 0-.132812-.039063-.253906-.109375-.359375-.0625-.101563-.15625-.171875-.28125-.203125-.117188-.039062-.324219-.0625-.625-.0625h-.8125zm0 1.90625h1.015625c.175781 0 .300781-.003906.375-.015625.125-.03125.226563-.070312.3125-.125.082031-.050781.148437-.125.203125-.21875.0625-.101562.09375-.21875.09375-.34375 0-.15625-.042969-.289062-.125-.40625-.074219-.113281-.183594-.191406-.328125-.234375-.136719-.050781-.335937-.078125-.59375-.078125h-.953125zm0 0"/></symbol><symbol id="au" overflow="visible"><path d="m-.015625 0 1.78125-4.625h.65625l1.90625 4.625h-.703125l-.546875-1.40625h-1.921875l-.515625 1.40625zm1.34375-1.90625h1.5625l-.484375-1.28125c-.148438-.382812-.257812-.703125-.328125-.953125-.054687.292969-.136719.585937-.25.875zm0 0"/></symbol><symbol id="av" overflow="visible"><path d="m3.796875-1.625.625.15625c-.136719.5-.371094.886719-.703125 1.15625-.335938.2617188-.742188.390625-1.21875.390625-.5 0-.90625-.0976562-1.21875-.296875-.3125-.207031-.554688-.503906-.71875-.890625-.15625-.382813-.234375-.796875-.234375-1.234375 0-.488281.085937-.910156.265625-1.265625.1875-.363281.445312-.632813.78125-.8125.34375-.1875.722656-.28125 1.140625-.28125.457031 0 .84375.121094 1.15625.359375.320313.230469.546875.558594.671875.984375l-.609375.140625c-.105469-.332031-.261719-.578125-.46875-.734375-.210937-.15625-.464844-.234375-.765625-.234375-.355469 0-.652344.089844-.890625.265625-.242187.167969-.414063.398437-.515625.6875-.09375.28125-.140625.574219-.140625.875 0 .398437.054687.746094.171875 1.046875.113281.292969.289062.511719.53125.65625.25.136719.515625.203125.796875.203125.34375 0 .628906-.097656.859375-.296875.238281-.195312.398438-.488281.484375-.875zm0 0"/></symbol><symbol id="aw" overflow="visible"><path d="m.46875 0v-4.625h.625v4.078125h2.265625v.546875zm0 0"/></symbol><symbol id="ax" overflow="visible"/><symbol id="ay" overflow="visible"><path d="m.515625 0v-4.625h.609375v1.890625h2.40625v-1.890625h.625v4.625h-.625v-2.1875h-2.40625v2.1875zm0 0"/></symbol><symbol id="az" overflow="visible"><path d="m2.71875-1.078125.59375.078125c-.09375.335938-.265625.601562-.515625.796875-.25.1875-.574219.28125-.96875.28125-.492187 0-.882813-.1484375-1.171875-.453125-.28125-.300781-.421875-.726562-.421875-1.28125 0-.5625.144531-1 .4375-1.3125.289063-.3125.664063-.46875 1.125-.46875.445313 0 .8125.15625 1.09375.46875.289063.304688.4375.730469.4375 1.28125v.15625h-2.5c.019531.367188.125.648438.3125.84375.1875.199219.421875.296875.703125.296875.207031 0 .382812-.050781.53125-.15625.144531-.113281.257812-.289063.34375-.53125zm-1.859375-.921875h1.875c-.03125-.28125-.105469-.492188-.21875-.640625-.179687-.21875-.414063-.328125-.703125-.328125-.261719 0-.480469.089844-.65625.265625-.179688.179687-.277344.414063-.296875.703125zm0 0"/></symbol><symbol id="aA" overflow="visible"><path d="m2.609375-.40625c-.210937.179688-.414063.304688-.609375.375-.1875.0703125-.398438.109375-.625.109375-.367188 0-.648438-.0859375-.84375-.265625-.199219-.1875-.296875-.421875-.296875-.703125 0-.15625.035156-.300781.109375-.4375.070312-.132813.171875-.242187.296875-.328125.125-.082031.257813-.144531.40625-.1875.113281-.03125.28125-.0625.5-.09375.46875-.050781.804687-.113281 1.015625-.1875.007812-.082031.015625-.132812.015625-.15625 0-.226562-.058594-.390625-.171875-.484375-.148438-.125-.359375-.1875-.640625-.1875-.273437 0-.46875.046875-.59375.140625s-.21875.257812-.28125.484375l-.5625-.0625c.050781-.238281.132813-.429687.25-.578125.113281-.144531.28125-.257812.5-.34375.21875-.082031.472656-.125.765625-.125.289062 0 .523438.039062.703125.109375.175781.0625.304687.148437.390625.25.082031.105469.140625.234375.171875.390625.019531.09375.03125.273438.03125.53125v.75c0 .53125.007813.871094.03125 1.015625.03125.136719.082031.265625.15625.390625h-.59375c-.0625-.113281-.105469-.25-.125-.40625zm-.046875-1.28125c-.199219.085938-.507812.15625-.921875.21875-.242187.03125-.40625.070312-.5.109375-.09375.042969-.167969.105469-.21875.1875-.054687.085937-.078125.171875-.078125.265625 0 .15625.054688.289062.171875.390625.113281.09375.28125.140625.5.140625s.410156-.046875.578125-.140625c.175781-.09375.300781-.222656.375-.390625.0625-.125.09375-.3125.09375-.5625zm0 0"/></symbol><symbol id="aB" overflow="visible"><path d="m2.609375 0v-.421875c-.21875.3359375-.53125.5-.9375.5-.273437 0-.523437-.07421875-.75-.21875-.21875-.144531-.390625-.347656-.515625-.609375-.125-.269531-.1875-.578125-.1875-.921875 0-.332031.054688-.632813.171875-.90625.113281-.28125.28125-.492187.5-.640625.21875-.144531.46875-.21875.75-.21875.195313 0 .375.046875.53125.140625.164063.085937.296875.195313.390625.328125v-1.65625h.5625v4.625zm-1.796875-1.671875c0 .429687.085938.75.265625.96875.175781.210937.390625.3125.640625.3125s.457031-.097656.625-.296875c.175781-.207031.265625-.519531.265625-.9375 0-.457031-.089844-.789062-.265625-1-.179688-.21875-.398438-.328125-.65625-.328125-.25 0-.460938.105469-.625.3125-.167969.199219-.25.523437-.25.96875zm0 0"/></symbol><symbol id="aC" overflow="visible"><path d="m.421875 0v-3.359375h.515625v.515625c.125-.238281.238281-.394531.34375-.46875.113281-.082031.238281-.125.375-.125.195312 0 .394531.0625.59375.1875l-.203125.53125c-.136719-.082031-.277344-.125-.421875-.125-.125 0-.242188.039062-.34375.109375-.09375.074219-.164062.179687-.203125.3125-.0625.210937-.09375.433594-.09375.671875v1.75zm0 0"/></symbol><symbol id="aD" overflow="visible"><path d="m.484375 0v-4.625h.921875l1.09375 3.265625c.101562.3125.175781.542969.21875.6875.050781-.164063.132812-.410156.25-.734375l1.109375-3.21875h.828125v4.625h-.59375v-3.875l-1.34375 3.875h-.5625l-1.328125-3.9375v3.9375zm0 0"/></symbol><symbol id="aE" overflow="visible"><path d="m.5 0v-4.625h1.75c.300781 0 .535156.011719.703125.03125.226563.042969.414063.121094.5625.234375.15625.105469.28125.25.375.4375s.140625.398437.140625.625c0 .398437-.125.734375-.375 1.015625-.25.273438-.703125.40625-1.359375.40625h-1.1875v1.875zm.609375-2.421875h1.203125c.394531 0 .675781-.070313.84375-.21875.164062-.15625.25-.363281.25-.625 0-.195313-.054688-.363281-.15625-.5-.09375-.144531-.21875-.238281-.375-.28125-.105469-.019531-.296875-.03125-.578125-.03125h-1.1875zm0 0"/></symbol><g clip-path="url(#a)"><path d="m0 0h164v108.613281h-164zm0 0" fill="#fff"/></g><path d="m5.214844 15.464844h152.851562c.355469 0 .699219.070312 1.03125.207031.332032.136719.621094.332031.875.582031.253906.253906.449219.546875.585938.875.136718.332032.203125.675782.203125 1.035156v84.515626c0 .359374-.066407.703124-.203125 1.03125-.136719.332031-.332032.625-.585938.875-.253906.253906-.542968.449218-.875.585937-.332031.136719-.675781.207031-1.03125.207031h-152.851562c-.359375 0-.703125-.070312-1.03125-.207031-.332032-.136719-.625-.332031-.875-.585937-.253906-.25-.449219-.542969-.585938-.875-.136718-.328126-.207031-.671876-.207031-1.03125v-84.515626c0-.359374.070313-.703124.207031-1.035156.136719-.328125.332032-.621094.585938-.875.25-.25.542968-.445312.875-.582031.328125-.136719.671875-.207031 1.03125-.207031zm0 0" fill="#dae8fc" fill-opacity=".302"/><g clip-path="url(#b)"><path d="m6.749906 20.999907h212.500977c.494188 0 .972085.097752 1.433689.287824.461605.190073.863472.461605 1.216464.809166.352991.352991.624523.760289.814596 1.216463.190072.461605.282393.939501.282393 1.43912v117.497346c0 .499619-.092321.977515-.282393 1.433689-.190073.461605-.461605.868903-.814596 1.216464-.352992.352991-.754859.624523-1.216464.814596-.461604.190072-.939501.287824-1.433689.287824h-212.500977c-.499619 0-.977516-.097752-1.43369-.287824-.461604-.190073-.868902-.461605-1.216463-.814596-.352992-.347561-.624524-.754859-.814596-1.216464-.190073-.456174-.287824-.93407-.287824-1.433689v-117.497346c0-.499619.097751-.977515.287824-1.43912.190072-.456174.461604-.863472.814596-1.216463.347561-.347561.754859-.619093 1.216463-.809166.456174-.190072.934071-.287824 1.43369-.287824zm0 0" fill="none" stroke="#6c8ebf" stroke-opacity=".302" transform="matrix(.719298 0 0 .719298 .359649 .359649)"/></g><path d="m145.960938 2.984375c-.203126.1875-.519532.214844-.742188-.050781-.15625-.207032-.078125-.453125.050781-.574219.777344-.75 2.007813-1.28125 3.300781-1.265625 1.503907.019531 2.582032.625 3.28125 1.273438.214844.222656.152344.503906-.035156.640624-.222656.164063-.496094.164063-.691406-.039062-.632812-.582031-1.511719-.96875-2.476562-.992188-.90625-.019531-1.882813.253907-2.6875 1.007813zm1.234374 1.246094c-.207031.179687-.507812.148437-.6875-.058594-.125-.144531-.167968-.386719.019532-.574219.496094-.496094 1.257812-.800781 2.015625-.800781.832031.015625 1.539062.347656 2.011719.84375.160156.214844.089843.4375-.0625.582031-.128907.144532-.445313.199219-.675782-.023437-.324218-.300781-.777344-.496094-1.28125-.496094-.511718 0-.992187.1875-1.339844.527344zm10.332032 12.9375h-17.984375v-11.980469h17.984375zm-7 .945312c.164062.179688.136718.402344.015625.546875-.511719.558594-1.304688.820313-1.980469.820313-.78125 0-1.503906-.28125-2.027344-.777344-.171875-.175781-.199218-.441406.035156-.648437.203126-.164063.460938-.136719.632813.015624.304687.285157.769531.523438 1.347656.515626.625-.011719 1.042969-.28125 1.335938-.554688.121093-.09375.417969-.171875.640625.082031zm1.296875 1.789063c-.800781.800781-2 1.316406-3.273438 1.316406-1.210937 0-2.410156-.425781-3.332031-1.324219-.109375-.113281-.207031-.378906.050781-.617187.203125-.164063.480469-.160156.667969.035156.683594.625 1.570312.992188 2.613281 1 1.199219-.019531 2.042969-.523438 2.574219-1.015625.15625-.140625.425781-.214844.667969-.003906.160156.15625.210937.402343.03125.609375zm0 0" fill="#5294cf"/><path d="m139.542969 16.449219h17.984375v.71875h-17.984375zm0 0" fill-opacity=".302"/><path d="m157.527344 13.925781h-3.03125c-.179688 0-.351563-.160156-.351563-.34375v-1.269531c-.199219-.078125-.53125-.328125-.53125-.769531 0-.453125.386719-.824219.914063-.824219.394531 0 .871094.308594.871094.824219 0 .347656-.21875.632812-.535157.769531v.929688h2.664063zm-5.597656 1.734375c-.171876 0-.351563-.152344-.351563-.339844v-3.007812c-.171875-.070312-.503906-.285156-.527344-.746094-.011719-.34375.289063-.871094.921875-.847656.488282.019531.847656.386719.855469.824219-.007813.347656-.214844.640625-.53125.765625v2.675781h5.230469v.675781zm-1.238282-10.472656v2.5h1.535156v-1.414062c0-.195313.148438-.367188.386719-.367188h3.777344c.238281 0 .386719.171875.386719.359375v3.582031c0 .152344-.148438.351563-.378906.351563h-3.792969c-.199219 0-.378907-.152344-.378907-.359375v-1.472656h-3.71875c-.125.265624-.417968.496093-.8125.496093-.5 0-.886718-.375-.886718-.84375 0-.429687.367187-.828125.90625-.828125.324218 0 .660156.203125.792968.496094h1.464844v-2.5zm-5.25 0h.71875v5.097656l1.339844 1.257813.640625-.59375c-.09375-.230469-.101563-.585938.179687-.878907.394532-.367187.90625-.296874 1.179688-.09375.445312.324219.453125.890626.121094 1.230469-.292969.308594-.710938.324219-.972656.222657l-.636719.597656 1.132812 1.070312c.289063-.101562.664063-.078125.945313.179688.445312.433594.273437.988281-.035156 1.230468-.410157.324219-.964844.246094-1.269532-.09375-.148437-.179687-.277344-.480468-.148437-.828124l-3.109375-2.925782c-.054688-.050781-.085938-.136718-.085938-.238281zm-4.746094 0h.71875v2.5h1.25c.160157-.320312.492188-.496094.808594-.496094.503906 0 .890625.382813.890625.835938 0 .417968-.339843.835937-.914062.835937-.246094 0-.609375-.136719-.785157-.496093h-1.25v2.6875l2.199219 2.074218c.433594-.175781 1.023438 0 1.195313.546875.160156.574219-.292969 1.085938-.890625 1.054688-.324219-.007813-.699219-.207031-.820313-.609375-.042968-.167969-.035156-.347656.015625-.492188l-2.316406-2.183594c-.058594-.050781-.101563-.125-.101563-.261718zm5.78125 11.261719v-2.4375l-2.746093-2.574219c-.417969.136719-.820313-.023438-1.023438-.304688-.285156-.386718-.199219-.90625.230469-1.183593.402344-.246094.902344-.144531 1.175781.171875.265625.308594.222657.652344.132813.839844l2.949218 2.757812v2.730469zm-5.761718 0v-1.78125c-.234375-.09375-.523438-.375-.523438-.757813 0-.539062.46875-.847656.878906-.847656.488282 0 .890626.351562.890626.835938 0 .320312-.195313.625-.519532.769531v1.78125zm0 0" fill="#fff"/><g><use x="7.192982" xlink:href="#d" y="12.947367"/><use x="14.383153" xlink:href="#e" y="12.947367"/><use x="19.183626" xlink:href="#f" y="12.947367"/><use x="23.499415" xlink:href="#g" y="12.947367"/><use x="25.897544" xlink:href="#h" y="12.947367"/><use x="30.698016" xlink:href="#i" y="12.947367"/><use x="33.572399" xlink:href="#j" y="12.947367"/><use x="35.970527" xlink:href="#k" y="12.947367"/><use x="38.84491" xlink:href="#l" y="12.947367"/><use x="44.602105" xlink:href="#g" y="12.947367"/><use x="47.000234" xlink:href="#g" y="12.947367"/><use x="49.398363" xlink:href="#e" y="12.947367"/><use x="54.198835" xlink:href="#m" y="12.947367"/><use x="58.514624" xlink:href="#n" y="12.947367"/><use x="62.830413" xlink:href="#h" y="12.947367"/><use x="67.630886" xlink:href="#i" y="12.947367"/><use x="70.505268" xlink:href="#o" y="12.947367"/></g><path d="m1.4375 101.421875v-4.316406h1.441406v4.316406m-1.441406-8.632813v-4.316406h1.441406v4.316406m-1.441406-8.632812v-4.3125h1.441406v4.3125m-1.441406-8.628906v-4.316406h1.441406v4.316406m-1.441406-8.632813v-4.316406h1.441406v4.316406m-1.441406-8.632812v-4.3125h1.441406v4.3125m-1.441406-8.628907v-4.316406h1.441406v4.316406m-1.441406-8.632812v-4.316406h1.441406v4.316406m-1.441406-8.632812v-4.316407h1.441406v4.316407m-1.441406-8.628907v-4.316406h1.441406v4.316406m-1.441406-8.632812v-4.316407h1.441406v4.316407m-1.441406-8.632813v-4.316406h1.441406v4.316406"/><path d="m159.683594 101.421875v-4.316406h1.4375v4.316406m-1.4375-8.632813v-4.316406h1.4375v4.316406m-1.4375-8.632812v-4.3125h1.4375v4.3125m-1.4375-8.628906v-4.316406h1.4375v4.316406m-1.4375-8.632813v-4.316406h1.4375v4.316406m-1.4375-8.632812v-4.3125h1.4375v4.3125m-1.4375-8.628907v-4.316406h1.4375v4.316406m-1.4375-8.632812v-4.316406h1.4375v4.316406m-1.4375-8.632812v-4.316407h1.4375v4.316407m-1.4375-8.628907v-4.316406h1.4375v4.316406m-1.4375-8.632812v-4.316407h1.4375v4.316407m-1.4375-8.632813v-4.316406h1.4375v4.316406"/><g><use x="115.087706" xlink:href="#p" y="12.947367"/><use x="120.844901" xlink:href="#q" y="12.947367"/><use x="122.762561" xlink:href="#e" y="12.947367"/><use x="127.563033" xlink:href="#r" y="12.947367"/><use x="131.878822" xlink:href="#h" y="12.947367"/></g><path d="m156.808594 28.773438h-4.316406v-1.441407h4.316406m-8.632813 1.441407h-4.316406v-1.441407h4.316406m-8.632812 1.441407h-4.316407v-1.441407h4.316407m-8.628907 1.441407h-4.316406v-1.441407h4.316406m-8.632812 1.441407h-4.316406v-1.441407h4.316406m-8.632812 1.441407h-4.316407v-1.441407h4.316407m-8.632813 1.441407h-4.3125v-1.441407h4.3125m-8.628906 1.441407h-4.316407v-1.441407h4.316407m-8.632813 1.441407h-4.316406v-1.441407h4.316406m-8.632812 1.441407h-4.3125v-1.441407h4.3125m-8.628906 1.441407h-4.316407v-1.441407h4.316407m-8.632813 1.441407h-4.316406v-1.441407h4.316406m-8.632813 1.441407h-4.3125v-1.441407h4.3125m-8.628906 1.441407h-.546875v-1.441407h.546875"/><path d="m55.240479 38.997432 7.999334-3.996952-1.998476 3.996952 1.998476 4.002382zm0 0" stroke="#000" stroke-miterlimit="10" stroke-width="2" transform="scale(.719298)"/><g><use x="61.140344" xlink:href="#s" y="25.175436"/><use x="65.940816" xlink:href="#d" y="25.175436"/><use x="73.130988" xlink:href="#t" y="25.175436"/><use x="78.888183" xlink:href="#u" y="25.175436"/><use x="83.688655" xlink:href="#e" y="25.175436"/><use x="88.489128" xlink:href="#m" y="25.175436"/><use x="92.804916" xlink:href="#m" y="25.175436"/><use x="97.120705" xlink:href="#h" y="25.175436"/><use x="101.921178" xlink:href="#v" y="25.175436"/><use x="106.72165" xlink:href="#g" y="25.175436"/><use x="109.119779" xlink:href="#h" y="25.175436"/><use x="113.920251" xlink:href="#w" y="25.175436"/><use x="118.720723" xlink:href="#u" y="25.175436"/><use x="123.521196" xlink:href="#h" y="25.175436"/><use x="128.321668" xlink:href="#x" y="25.175436"/><use x="132.637457" xlink:href="#g" y="25.175436"/></g><path d="m81.28125 14.746094v-.71875h.71875v.71875m-.71875-2.878906v-.71875h.71875v.71875m-.71875-2.875v-.71875h.71875v.71875m-.71875-2.878907v-.71875h.71875v.71875"/><g><use x="7.192982" xlink:href="#s" y="54.66666"/><use x="11.993454" xlink:href="#d" y="54.66666"/><use x="19.183626" xlink:href="#t" y="54.66666"/><use x="24.940821" xlink:href="#u" y="54.66666"/><use x="29.741293" xlink:href="#p" y="54.66666"/><use x="35.498488" xlink:href="#y" y="54.66666"/><use x="41.731937" xlink:href="#z" y="54.66666"/><use x="48.445855" xlink:href="#u" y="54.66666"/><use x="53.246327" xlink:href="#q" y="54.66666"/><use x="55.163987" xlink:href="#A" y="54.66666"/><use x="57.081648" xlink:href="#B" y="54.66666"/><use x="61.88212" xlink:href="#n" y="54.66666"/><use x="66.197909" xlink:href="#u" y="54.66666"/><use x="70.998381" xlink:href="#i" y="54.66666"/><use x="73.872764" xlink:href="#h" y="54.66666"/><use x="78.673236" xlink:href="#C" y="54.66666"/></g><path d="m6.113281 75.167969 25.175781-17.265625h100.703126l25.175781 17.265625zm0 0" fill="#f5f5f5"/><path d="m9.46875 72.429688 1.78125-1.21875.40625.589843-1.78125 1.222657zm3.5625-2.441407 1.777344-1.21875.40625.59375-1.777344 1.21875zm3.558594-2.441406 1.777344-1.21875.40625.59375-1.777344 1.21875zm3.558594-2.441406 1.78125-1.21875.40625.59375-1.78125 1.21875zm3.558593-2.4375 1.78125-1.222657.40625.59375-1.78125 1.21875zm3.558594-2.441407 1.78125-1.222656.40625.59375-1.78125 1.222656zm3.558594-2.441406.355469-.242187h1.953124v.71875h-1.84375v-.359375l.203126.296875-.257813.179687zm4.464843-.242187h2.160157v.71875h-2.160157zm4.316407 0h2.160156v.71875h-2.160156zm4.316406 0h2.15625v.71875h-2.15625zm4.316406 0h2.15625v.71875h-2.15625zm4.316407 0h2.15625v.71875h-2.15625zm4.3125 0h2.160156v.71875h-2.160156zm4.316406 0h2.160156v.71875h-2.160156zm4.316406 0h2.160156v.71875h-2.160156zm4.316406 0h2.15625v.71875h-2.15625zm4.316406 0h2.15625v.71875h-2.15625zm4.316407 0h2.15625v.71875h-2.15625zm4.316406 0h2.15625v.71875h-2.15625zm4.3125 0h2.160156v.71875h-2.160156zm4.316406 0h2.160157v.71875h-2.160157zm4.316407 0h2.15625v.71875h-2.15625zm4.316406 0h2.15625v.71875h-2.15625zm4.316406 0h2.15625v.71875h-2.15625zm4.316406 0h2.15625v.71875h-2.15625zm4.3125 0h2.160156v.71875h-2.160156zm4.316406 0h2.160157v.71875h-2.160157zm4.316407 0h2.160156v.71875h-2.160156zm4.316406 0h2.15625v.71875h-2.15625zm4.316406 0h1.863281l.425782.292969-.40625.59375-.332032-.230469.203126-.296875v.359375h-1.753907zm4.070313 1.511719 1.777344 1.222656-.40625.59375-1.777344-1.222656zm3.558594 2.441406 1.78125 1.222656-.410157.589844-1.777343-1.21875zm3.558593 2.441406 1.78125 1.21875-.40625.59375-1.78125-1.21875zm3.558594 2.441406 1.78125 1.21875-.40625.59375-1.78125-1.21875zm3.5625 2.441406 1.777344 1.21875-.40625.59375-1.78125-1.222656zm3.558594 2.4375 1.777343 1.222657-.40625.59375-1.777343-1.222657zm3.558593 2.441407 2.664063 1.828125h-1.25v-.71875h.089844v.359375l-.203125.296875-1.707032-1.171875zm-.746093 1.828125h-2.15625v-.71875h2.15625zm-4.3125 0h-2.160157v-.71875h2.160157zm-4.316407 0h-2.160156v-.71875h2.160156zm-4.316406 0h-2.15625v-.71875h2.15625zm-4.316406 0h-2.15625v-.71875h2.15625zm-4.316406 0h-2.15625v-.71875h2.15625zm-4.316406 0h-2.15625v-.71875h2.15625zm-4.3125 0h-2.160157v-.71875h2.160157zm-4.316407 0h-2.160156v-.71875h2.160156zm-4.316406 0h-2.160156v-.71875h2.160156zm-4.316406 0h-2.15625v-.71875h2.15625zm-4.316407 0h-2.15625v-.71875h2.15625zm-4.316406 0h-2.15625v-.71875h2.15625zm-4.3125 0h-2.160156v-.71875h2.160156zm-4.316406 0h-2.160156v-.71875h2.160156zm-4.316406 0h-2.160156v-.71875h2.160156zm-4.316406 0h-2.15625v-.71875h2.15625zm-4.316407 0h-2.15625v-.71875h2.15625zm-4.316406 0h-2.15625v-.71875h2.15625zm-4.316406 0h-2.15625v-.71875h2.15625zm-4.3125 0h-2.160157v-.71875h2.160157zm-4.316407 0h-2.160156v-.71875h2.160156zm-4.316406 0h-2.15625v-.71875h2.15625zm-4.316406 0h-2.15625v-.71875h2.15625zm-4.316406 0h-2.15625v-.71875h2.15625zm-4.316406 0h-2.15625v-.71875h2.15625zm-4.3125 0h-2.160157v-.71875h2.160157zm-4.316407 0h-2.160156v-.71875h2.160156zm-4.316406 0h-2.160156v-.71875h2.160156zm-4.316406 0h-2.15625v-.71875h2.15625zm-4.316407 0h-2.15625v-.71875h2.15625zm-4.316406 0h-2.15625v-.71875h2.15625zm-4.3125 0h-2.160156v-.71875h2.160156zm-4.316406 0h-2.160156v-.71875h2.160156zm-4.316406 0h-3.230469l2.738281-1.878906.40625.59375-1.78125 1.222656-.203125-.296875v-.359375h2.070313zm0 0" fill="#666"/><path d="m7.999334 78.999533h141.761449" fill="none" stroke="#b85450" stroke-miterlimit="10" stroke-width="2" transform="scale(.719298)"/><path d="m155.761642 78.999533-7.999334 4.002382 1.998475-4.002382-1.998475-3.996952zm0 0" fill="#b85450" stroke="#b85450" stroke-miterlimit="10" stroke-width="2" transform="scale(.719298)"/><path d="m143.140625 80.203125h4.191406l3 4.257813 3-4.257813h4.195313l-5.09375 7.191406 5.09375 7.191407h-4.195313l-3-4.257813-3 4.257813h-4.191406l4.796875-7.191407zm0 0" fill="#f8cecc"/><g clip-path="url(#c)"><path d="m198.500404 111.001918h5.827078l4.170732 5.919399 4.170732-5.919399h5.832509l-7.081556 9.99781 7.081556 9.99781h-5.832509l-4.170732-5.919398-4.170732 5.919398h-5.827078l6.668827-9.99781zm0 0" fill="none" stroke="#b85450" stroke-miterlimit="10" transform="matrix(.719298 0 0 .719298 .359649 .359649)"/></g><g fill="#c00"><use x="82.910352" xlink:href="#F" y="102.140339"/><use x="87.708015" xlink:href="#G" y="102.140339"/><use x="91.708408" xlink:href="#H" y="102.140339"/><use x="96.102168" xlink:href="#I" y="102.140339"/><use x="98.100609" xlink:href="#J" y="102.140339"/><use x="102.494369" xlink:href="#H" y="102.140339"/><use x="106.888128" xlink:href="#K" y="102.140339"/><use x="108.886569" xlink:href="#L" y="102.140339"/><use x="113.684231" xlink:href="#M" y="102.140339"/><use x="117.684625" xlink:href="#G" y="102.140339"/><use x="121.685019" xlink:href="#J" y="102.140339"/><use x="126.078778" xlink:href="#K" y="102.140339"/><use x="128.077219" xlink:href="#N" y="102.140339"/><use x="133.27176" xlink:href="#I" y="102.140339"/><use x="135.270201" xlink:href="#O" y="102.140339"/><use x="139.270594" xlink:href="#G" y="102.140339"/><use x="143.270988" xlink:href="#P" y="102.140339"/><use x="147.664748" xlink:href="#Q" y="102.140339"/><use x="149.663188" xlink:href="#R" y="102.140339"/><use x="153.663582" xlink:href="#S" y="102.140339"/></g><g fill="#c00"><use x="114.368408" xlink:href="#T" y="56.105257"/><use x="120.360218" xlink:href="#U" y="56.105257"/><use x="124.753977" xlink:href="#V" y="56.105257"/><use x="127.149296" xlink:href="#G" y="56.105257"/><use x="131.14969" xlink:href="#V" y="56.105257"/><use x="133.545009" xlink:href="#R" y="56.105257"/><use x="137.545403" xlink:href="#S" y="56.105257"/></g><g><use x="7.192982" xlink:href="#s" y="40.280697"/><use x="11.993454" xlink:href="#d" y="40.280697"/><use x="19.183626" xlink:href="#t" y="40.280697"/><use x="24.940821" xlink:href="#u" y="40.280697"/><use x="29.741293" xlink:href="#D" y="40.280697"/><use x="36.931465" xlink:href="#e" y="40.280697"/><use x="41.731937" xlink:href="#x" y="40.280697"/><use x="46.047726" xlink:href="#u" y="40.280697"/><use x="50.848198" xlink:href="#f" y="40.280697"/><use x="55.163987" xlink:href="#q" y="40.280697"/><use x="57.081648" xlink:href="#E" y="40.280697"/><use x="61.88212" xlink:href="#g" y="40.280697"/><use x="64.280249" xlink:href="#u" y="40.280697"/><use x="69.080721" xlink:href="#i" y="40.280697"/><use x="71.955104" xlink:href="#h" y="40.280697"/><use x="76.755576" xlink:href="#C" y="40.280697"/></g><path d="m7.999334 59.99772h141.761449" fill="none" stroke="#000" stroke-miterlimit="10" stroke-width="2" transform="scale(.719298)"/><path d="m155.761642 59.99772-7.999334 4.002383 1.998475-4.002383-1.998475-3.996951zm0 0" stroke="#000" stroke-miterlimit="10" stroke-width="2" transform="scale(.719298)"/><path d="m121.203125 62.9375h28.769531l3.597656 3.597656v7.191406h-28.773437l-3.59375-3.59375zm0 0" fill="#cce5ff"/><path d="m125.515625 62.578125h2.160156v.71875h-2.160156zm4.316406 0h2.160157v.71875h-2.160157zm4.316407 0h2.160156v.71875h-2.160156zm4.316406 0h2.15625v.71875h-2.15625zm4.316406 0h2.15625v.71875h-2.15625zm4.316406 0h2.15625v.71875h-2.15625zm4.148438 1.125 1.523437 1.523437-.507812.507813-1.523438-1.523437zm2.683594 3.5v2.15625h-.71875v-2.15625zm0 4.316406v2.15625h-.71875v-2.15625zm-2.464844 2.566407h-2.160156v-.71875h2.160156zm-4.316406 0h-2.160157v-.71875h2.160157zm-4.316407 0h-2.15625v-.71875h2.15625zm-4.316406 0h-2.15625v-.71875h2.15625zm-4.316406 0h-2.15625v-.71875h2.15625zm-4.316407 0h-2.15625v-.71875h2.15625zm-4.3125 0h-.921874l-1.085938-1.085938.507812-.507812.980469.980468-.253906.253906v-.359374h.773437zm-3.535156-2.609376-1.191406-1.195312v-.765625h.71875v.617187h-.359375l.253906-.253906 1.089844 1.085938zm-1.191406-4.121093v-2.15625h.71875v2.15625zm0-4.316407v-.460937h2.515625v.71875h-2.15625v-.359375h.359375v.101562zm0 0" fill="#36393d"/><path d="m121.203125 62.9375h28.769531l3.597656 3.597656h-28.773437zm0 0" fill-opacity=".051"/><path d="m121.203125 62.9375 3.59375 3.597656v7.191406l-3.59375-3.59375zm0 0" fill-opacity=".102"/><path d="m124.4375 73.726562v-2.15625h.71875v2.15625zm0-4.3125v-2.160156h.71875v2.160156zm-.910156-3.640624-1.527344-1.527344.507812-.507813 1.527344 1.523438zm1.269531.402343h2.160156v.71875h-2.160156zm4.316406 0h2.160157v.71875h-2.160157zm4.316407 0h2.15625v.71875h-2.15625zm4.316406 0h2.15625v.71875h-2.15625zm4.316406 0h2.15625v.71875h-2.15625zm4.316406 0h2.15625v.71875h-2.15625zm4.3125 0h2.160156v.71875h-2.160156zm0 0" fill="#36393d"/><use x="125.967091" xlink:href="#W" y="71.929816"/><g><use x="129.268557" xlink:href="#X" y="71.929816"/><use x="131.184812" xlink:href="#Y" y="71.929816"/><use x="134.385127" xlink:href="#Z" y="71.929816"/><use x="137.585442" xlink:href="#aa" y="71.929816"/><use x="140.462634" xlink:href="#ab" y="71.929816"/><use x="143.662949" xlink:href="#ac" y="71.929816"/><use x="145.261702" xlink:href="#ad" y="71.929816"/><use x="148.462017" xlink:href="#ae" y="71.929816"/></g><path d="m137.997634 86.998486h30.004291l4.99619 5.00162v9.99781h-29.998861l-5.00162-4.99619zm0 0" fill="#cce5ff" stroke="#36393d" stroke-miterlimit="10" transform="matrix(.719298 0 0 .719298 .359649 .359649)"/><path d="m99.621094 62.9375h21.582031l3.59375 3.597656h-21.578125zm0 0" fill-opacity=".051"/><path d="m99.621094 62.9375 3.597656 3.597656v7.191406l-3.597656-3.59375zm0 0" fill-opacity=".102"/><path d="m142.999254 101.997916v-9.99781l-5.00162-5.00162m5.00162 5.00162h29.998861" fill="none" stroke="#36393d" stroke-miterlimit="10" transform="matrix(.719298 0 0 .719298 .359649 .359649)"/><g><use x="103.567696" xlink:href="#af" y="71.929816"/><use x="108.043641" xlink:href="#ag" y="71.929816"/><use x="111.243956" xlink:href="#aa" y="71.929816"/><use x="114.121149" xlink:href="#ah" y="71.929816"/><use x="117.321464" xlink:href="#ae" y="71.929816"/><use x="120.521779" xlink:href="#ad" y="71.929816"/></g><path d="m122.998204 86.998486h14.99943l5.00162 5.00162v9.99781h-14.99943l-5.00162-4.99619zm0 0" fill="#cce5ff" stroke="#36393d" stroke-miterlimit="10" transform="matrix(.719298 0 0 .719298 .359649 .359649)"/><path d="m88.832031 62.9375h10.789063l3.597656 3.597656h-10.789062zm0 0" fill-opacity=".051"/><path d="m88.832031 62.9375 3.597657 3.597656v7.191406l-3.597657-3.59375zm0 0" fill-opacity=".102"/><path d="m127.999824 101.997916v-9.99781l-5.00162-5.00162m5.00162 5.00162h14.99943" fill="none" stroke="#36393d" stroke-miterlimit="10" transform="matrix(.719298 0 0 .719298 .359649 .359649)"/><g><use x="92.82318" xlink:href="#W" y="71.929816"/><use x="96.338188" xlink:href="#ai" y="71.929816"/><use x="97.93694" xlink:href="#aj" y="71.929816"/></g><path d="m83.001534 86.998486h39.99667l5.00162 5.00162v9.99781h-40.0021l-4.99619-4.99619zm0 0" fill="#fc9" stroke="#36393d" stroke-miterlimit="10" transform="matrix(.719298 0 0 .719298 .359649 .359649)"/><path d="m60.0625 62.9375h28.769531l3.597657 3.597656h-28.773438zm0 0" fill-opacity=".051"/><path d="m60.0625 62.9375 3.59375 3.597656v7.191406l-3.59375-3.59375zm0 0" fill-opacity=".102"/><path d="m87.997724 101.997916v-9.99781l-4.99619-5.00162m4.99619 5.00162h40.0021" fill="none" stroke="#36393d" stroke-miterlimit="10" transform="matrix(.719298 0 0 .719298 .359649 .359649)"/><g fill="#c00"><use x="63.995058" xlink:href="#ak" y="72.649114"/><use x="67.195373" xlink:href="#ad" y="72.649114"/><use x="70.395688" xlink:href="#Z" y="72.649114"/><use x="73.596003" xlink:href="#al" y="72.649114"/><use x="76.796318" xlink:href="#ac" y="72.649114"/><use x="78.39507" xlink:href="#am" y="72.649114"/><use x="81.595385" xlink:href="#an" y="72.649114"/><use x="83.194138" xlink:href="#ao" y="72.649114"/><use x="86.554609" xlink:href="#an" y="72.649114"/><use x="88.153361" xlink:href="#ap" y="72.649114"/></g><path d="m63.000484 86.998486h20.00105l4.99619 5.00162v9.99781h-19.99562l-5.00162-4.99619zm0 0" fill="#fc9" stroke="#36393d" stroke-miterlimit="10" transform="matrix(.719298 0 0 .719298 .359649 .359649)"/><path d="m45.675781 62.9375h14.386719l3.59375 3.597656h-14.382812zm0 0" fill-opacity=".051"/><path d="m45.675781 62.9375 3.597657 3.597656v7.191406l-3.597657-3.59375zm0 0" fill-opacity=".102"/><path d="m68.002104 101.997916v-9.99781l-5.00162-5.00162m5.00162 5.00162h19.99562" fill="none" stroke="#36393d" stroke-miterlimit="10" transform="matrix(.719298 0 0 .719298 .359649 .359649)"/><g><use x="50.024939" xlink:href="#aq" y="72.649114"/><use x="53.539947" xlink:href="#ar" y="72.649114"/><use x="54.818387" xlink:href="#ah" y="72.649114"/><use x="58.018702" xlink:href="#as" y="72.649114"/></g><path d="m42.999433 86.998486h20.001051l5.00162 5.00162v9.99781h-20.00105l-5.001621-4.99619zm0 0" fill="#fc9" stroke="#36393d" stroke-miterlimit="10" transform="matrix(.719298 0 0 .719298 .359649 .359649)"/><path d="m31.289062 62.9375h14.386719l3.597657 3.597656h-14.386719zm0 0" fill-opacity=".051"/><path d="m31.289062 62.9375 3.597657 3.597656v7.191406l-3.597657-3.59375zm0 0" fill-opacity=".102"/><path d="m48.001054 101.997916v-9.99781l-5.001621-5.00162m5.001621 5.00162h20.00105" fill="none" stroke="#36393d" stroke-miterlimit="10" transform="matrix(.719298 0 0 .719298 .359649 .359649)"/><g><use x="35.638976" xlink:href="#ak" y="72.649114"/><use x="38.839291" xlink:href="#ak" y="72.649114"/><use x="42.039606" xlink:href="#ai" y="72.649114"/><use x="43.638358" xlink:href="#aj" y="72.649114"/></g><path d="m22.998383 86.998486h20.00105l5.001621 5.00162v9.99781h-20.001051l-5.00162-4.99619zm0 0" fill="#eee" stroke="#36393d" stroke-miterlimit="10" transform="matrix(.719298 0 0 .719298 .359649 .359649)"/><path d="m16.902344 62.9375h14.386718l3.597657 3.597656h-14.386719zm0 0" fill-opacity=".051"/><path d="m16.902344 62.9375 3.597656 3.597656v7.191406l-3.597656-3.59375zm0 0" fill-opacity=".102"/><path d="m28.000003 101.997916v-9.99781l-5.00162-5.00162m5.00162 5.00162h20.001051" fill="none" stroke="#36393d" stroke-miterlimit="10" transform="matrix(.719298 0 0 .719298 .359649 .359649)"/><g><use x="23.489581" xlink:href="#at" y="72.649114"/><use x="27.327711" xlink:href="#at" y="72.649114"/></g><g><use x="40.808932" xlink:href="#au" y="83.438587"/><use x="45.126828" xlink:href="#av" y="83.438587"/><use x="49.801915" xlink:href="#aw" y="83.438587"/><use x="53.402269" xlink:href="#ax" y="83.438587"/><use x="55.200866" xlink:href="#ay" y="83.438587"/><use x="59.875952" xlink:href="#az" y="83.438587"/><use x="63.476307" xlink:href="#aA" y="83.438587"/><use x="67.076661" xlink:href="#aB" y="83.438587"/><use x="70.677015" xlink:href="#az" y="83.438587"/><use x="74.277369" xlink:href="#aC" y="83.438587"/></g><g><use x="113.828934" xlink:href="#aw" y="83.438587"/><use x="117.429288" xlink:href="#aD" y="83.438587"/><use x="122.821917" xlink:href="#aE" y="83.438587"/></g></svg>