<svg height="91.919998pt" viewBox="0 0 324.95999 91.919998" width="324.95999pt" xmlns="http://www.w3.org/2000/svg" xmlns:xlink="http://www.w3.org/1999/xlink"><clipPath id="a"><path d="m0 0h324.960938v91.519531h-324.960938zm0 0"/></clipPath><clipPath id="b"><path d="m290 1h34.960938v89.796875h-34.960938zm0 0"/></clipPath><clipPath id="c"><path d="m280 37h44.960938v47h-44.960938zm0 0"/></clipPath><symbol id="d" overflow="visible"><path d="m.796875 0v-7.21875h3.203125c.644531 0 1.132812.0625 1.46875.1875.332031.125.597656.355469.796875.6875.195313.335938.296875.699219.296875 1.09375 0 .511719-.167969.945312-.5 1.296875-.324219.34375-.835938.570313-1.53125.671875.25.117188.441406.234375.578125.359375.28125.25.546875.570313.796875.953125l1.25 1.96875h-1.203125l-.953125-1.5c-.28125-.4375-.511719-.769531-.6875-1-.179688-.226562-.339844-.390625-.484375-.484375-.148437-.09375-.292969-.15625-.4375-.1875-.105469-.019531-.28125-.03125-.53125-.03125h-1.109375v3.203125zm.953125-4.03125h2.0625c.425781 0 .765625-.046875 1.015625-.140625s.4375-.238281.5625-.4375c.125-.195313.1875-.410156.1875-.640625 0-.34375-.125-.625-.375-.84375-.242187-.21875-.632813-.328125-1.171875-.328125h-2.28125zm0 0"/></symbol><symbol id="e" overflow="visible"><path d="m4.25-1.6875.921875.109375c-.148437.542969-.417969.964844-.8125 1.265625-.386719.2929688-.886719.4375-1.5.4375-.761719 0-1.367187-.234375-1.8125-.703125-.449219-.476563-.671875-1.144531-.671875-2 0-.875.222656-1.554687.671875-2.046875.457031-.488281 1.046875-.734375 1.765625-.734375.695312 0 1.265625.242187 1.703125.71875.445313.480469.671875 1.152344.671875 2.015625v.234375h-3.90625c.03125.574219.191406 1.015625.484375 1.328125.300781.304688.671875.453125 1.109375.453125.320312 0 .597656-.082031.828125-.25.226563-.175781.410156-.453125.546875-.828125zm-2.921875-1.4375h2.9375c-.042969-.4375-.15625-.765625-.34375-.984375-.28125-.34375-.648437-.515625-1.09375-.515625-.40625 0-.75.136719-1.03125.40625-.28125.273438-.4375.636719-.46875 1.09375zm0 0"/></symbol><symbol id="f" overflow="visible"><path d="m.5.4375.859375.125c.039063.269531.144531.460938.3125.578125.21875.164063.515625.25.890625.25.414062 0 .734375-.085937.953125-.25.226563-.167969.378906-.398437.453125-.6875.050781-.179687.070312-.554687.0625-1.140625-.386719.460938-.867188.6875-1.4375.6875-.71875 0-1.277344-.257812-1.671875-.78125-.398437-.519531-.59375-1.140625-.59375-1.859375 0-.5.085937-.957031.265625-1.375.1875-.425781.445312-.753906.78125-.984375.34375-.238281.75-.359375 1.21875-.359375.613281 0 1.125.25 1.53125.75v-.625h.8125v4.53125c0 .8125-.085938 1.382813-.25 1.71875-.167969.34375-.433594.613281-.796875.8125-.355469.195313-.792969.296875-1.3125.296875-.625 0-1.132813-.140625-1.515625-.421875-.386719-.28125-.574219-.703125-.5625-1.265625zm.734375-3.140625c0 .679687.132813 1.179687.40625 1.5.28125.3125.625.46875 1.03125.46875s.742187-.15625 1.015625-.46875c.28125-.3125.421875-.804687.421875-1.484375 0-.632812-.148437-1.113281-.4375-1.4375-.28125-.332031-.621094-.5-1.015625-.5-.398438 0-.734375.164062-1.015625.484375-.273437.324219-.40625.804687-.40625 1.4375zm0 0"/></symbol><symbol id="g" overflow="visible"><path d="m.671875-6.203125v-1.015625h.890625v1.015625zm0 6.203125v-5.234375h.890625v5.234375zm0 0"/></symbol><symbol id="h" overflow="visible"><path d="m.3125-1.5625.875-.140625c.050781.355469.1875.625.40625.8125.226562.1875.546875.28125.953125.28125s.707031-.082031.90625-.25c.195313-.164063.296875-.359375.296875-.578125 0-.207031-.089844-.367188-.265625-.484375-.125-.070313-.429687-.171875-.90625-.296875-.648437-.164062-1.101563-.304688-1.359375-.421875-.25-.125-.445312-.289063-.578125-.5-.125-.207031-.1875-.441406-.1875-.703125 0-.226562.050781-.441406.15625-.640625.113281-.207031.265625-.375.453125-.5.132812-.101563.316406-.191406.546875-.265625.238281-.070312.5-.109375.78125-.109375.40625 0 .765625.0625 1.078125.1875.3125.117187.539062.277344.6875.484375.144531.199219.242188.464844.296875.796875l-.859375.125c-.042969-.269531-.15625-.476563-.34375-.625-.1875-.15625-.453125-.234375-.796875-.234375-.40625 0-.699219.070312-.875.203125-.179687.136719-.265625.292969-.265625.46875 0 .117187.035156.21875.109375.3125.070313.09375.1875.171875.34375.234375.082031.042969.34375.121094.78125.234375.625.167969 1.0625.304687 1.3125.40625.25.105469.441406.261719.578125.46875.144531.210937.21875.464844.21875.765625 0 .292969-.089844.570312-.265625.828125-.167969.261719-.414063.464844-.734375.609375-.324219.1445312-.695312.21875-1.109375.21875-.679687 0-1.199219-.140625-1.5625-.421875-.355469-.289063-.578125-.710937-.671875-1.265625zm0 0"/></symbol><symbol id="i" overflow="visible"><path d="m2.609375-.796875.125.78125c-.25.0507812-.476563.078125-.671875.078125-.324219 0-.574219-.046875-.75-.140625-.179688-.101563-.304688-.238281-.375-.40625-.074219-.164063-.109375-.515625-.109375-1.046875v-3.015625h-.65625v-.6875h.65625v-1.296875l.875-.53125v1.828125h.90625v.6875h-.90625v3.0625c0 .25.015625.414063.046875.484375.03125.074219.082031.132812.15625.171875.070312.042969.175781.0625.3125.0625.09375 0 .222656-.007813.390625-.03125zm0 0"/></symbol><symbol id="j" overflow="visible"><path d="m.65625 0v-5.234375h.796875v.796875c.207031-.375.394531-.617188.5625-.734375.175781-.125.367187-.1875.578125-.1875.289062 0 .59375.101563.90625.296875l-.3125.8125c-.210938-.125-.421875-.1875-.640625-.1875-.199219 0-.375.0625-.53125.1875-.148437.117188-.257813.273438-.328125.46875-.09375.324219-.140625.671875-.140625 1.046875v2.734375zm0 0"/></symbol><symbol id="k" overflow="visible"><path d="m4.078125-.640625c-.324219.273437-.640625.46875-.953125.59375-.304688.1132812-.625.171875-.96875.171875-.574219 0-1.015625-.140625-1.328125-.421875s-.46875-.640625-.46875-1.078125c0-.257812.054687-.492188.171875-.703125.125-.21875.28125-.390625.46875-.515625s.398438-.222656.640625-.296875c.164063-.039063.425781-.082031.78125-.125.71875-.082031 1.242187-.1875 1.578125-.3125.007812-.113281.015625-.1875.015625-.21875 0-.363281-.085937-.617187-.25-.765625-.230469-.207031-.570313-.3125-1.015625-.3125-.417969 0-.726562.078125-.921875.234375-.199219.148437-.34375.402344-.4375.765625l-.875-.109375c.082031-.375.210937-.675781.390625-.90625.175781-.226563.4375-.40625.78125-.53125s.738281-.1875 1.1875-.1875c.445312 0 .8125.058594 1.09375.171875.28125.105469.484375.234375.609375.390625.132813.15625.226563.359375.28125.609375.03125.148438.046875.417969.046875.8125v1.1875c0 .824219.015625 1.34375.046875 1.5625.039063.21875.117187.429688.234375.625h-.921875c-.09375-.1875-.15625-.398438-.1875-.640625zm-.078125-1.984375c-.3125.125-.792969.234375-1.4375.328125-.367188.054687-.625.117187-.78125.1875-.148438.0625-.261719.15625-.34375.28125-.085938.125-.125.265625-.125.421875 0 .242188.085938.4375.265625.59375.175781.15625.4375.234375.78125.234375s.644531-.070313.90625-.21875c.269531-.15625.46875-.363281.59375-.625.09375-.195313.140625-.488281.140625-.875zm0 0"/></symbol><symbol id="l" overflow="visible"><path d="m.328125-2.609375c0-.976563.269531-1.695313.8125-2.15625.445313-.394531 1-.59375 1.65625-.59375.71875 0 1.300781.242187 1.75.71875.457031.46875.6875 1.121094.6875 1.953125 0 .667969-.101563 1.199219-.296875 1.59375-.199219.386719-.496094.6875-.890625.90625-.386719.2070312-.804687.3125-1.25.3125-.742187 0-1.339844-.234375-1.796875-.703125-.449219-.476563-.671875-1.15625-.671875-2.03125zm.921875 0c0 .667969.144531 1.167969.4375 1.5.289062.335937.660156.5 1.109375.5.4375 0 .800781-.164063 1.09375-.5.289063-.332031.4375-.84375.4375-1.53125 0-.65625-.152344-1.148437-.453125-1.484375-.292969-.332031-.652344-.5-1.078125-.5-.449219 0-.820313.167969-1.109375.5-.292969.335938-.4375.839844-.4375 1.515625zm0 0"/></symbol><symbol id="m" overflow="visible"><path d="m.671875 0v-5.234375h.796875v.75c.382812-.582031.9375-.875 1.65625-.875.320312 0 .613281.058594.875.171875.257812.117188.457031.265625.59375.453125.132812.1875.226562.40625.28125.65625.03125.167969.046875.453125.046875.859375v3.21875h-.890625v-3.1875c0-.351562-.039062-.617188-.109375-.796875-.0625-.1875-.183594-.332031-.359375-.4375-.179688-.101563-.386719-.15625-.625-.15625-.375 0-.703125.121094-.984375.359375-.273437.242188-.40625.695312-.40625 1.359375v2.859375zm0 0"/></symbol><symbol id="n" overflow="visible"/><symbol id="o" overflow="visible"><path d="m4 2v-2.5625c-.136719.199219-.328125.367188-.578125.5-.25.125-.515625.1875-.796875.1875-.617188 0-1.148438-.25-1.59375-.75-.449219-.5-.671875-1.179688-.671875-2.046875 0-.519531.085937-.988281.265625-1.40625.1875-.414063.453125-.734375.796875-.953125s.722656-.328125 1.140625-.328125c.644531 0 1.15625.277344 1.53125.828125v-.703125h.796875v7.234375zm-2.734375-4.625c0 .667969.140625 1.171875.421875 1.515625.28125.335937.617188.5 1.015625.5.375 0 .695313-.160156.96875-.484375.28125-.320312.421875-.804688.421875-1.453125 0-.695313-.148438-1.222656-.4375-1.578125-.28125-.351562-.621094-.53125-1.015625-.53125-.386719 0-.714844.167969-.984375.5-.261719.324219-.390625.835938-.390625 1.53125zm0 0"/></symbol><symbol id="p" overflow="visible"><path d="m4.09375 0v-.765625c-.40625.59375-.960938.890625-1.65625.890625-.3125 0-.605469-.0585938-.875-.171875-.261719-.125-.460938-.273437-.59375-.453125-.125-.1875-.214844-.40625-.265625-.65625-.042969-.175781-.0625-.453125-.0625-.828125v-3.25h.890625v2.90625c0 .460937.019531.773437.0625.9375.050781.230469.164062.414063.34375.546875.1875.136719.410156.203125.671875.203125.269531 0 .519531-.066406.75-.203125.238281-.144531.40625-.332031.5-.5625.09375-.238281.140625-.582031.140625-1.03125v-2.796875h.890625v5.234375zm0 0"/></symbol><symbol id="q" overflow="visible"><path d="m.65625-6.1875v-1.03125h.890625v1.03125zm-1.125 8.21875.171875-.75c.179687.039062.3164062.0625.421875.0625.175781 0 .304688-.0625.390625-.1875.09375-.117188.140625-.414062.140625-.890625v-5.5h.890625v5.515625c0 .644531-.085937 1.09375-.25 1.34375-.21875.332031-.574219.5-1.0625.5-.23828125 0-.472656-.03125-.703125-.09375zm0 0"/></symbol><symbol id="r" overflow="visible"><path d="m4.078125-1.921875.875.125c-.09375.59375-.339844 1.0625-.734375 1.40625-.398438.34375-.875.515625-1.4375.515625-.71875 0-1.296875-.234375-1.734375-.703125s-.65625-1.140625-.65625-2.015625c0-.5625.09375-1.054688.28125-1.484375.1875-.425781.472656-.742187.859375-.953125.382812-.21875.800781-.328125 1.25-.328125.5625 0 1.023438.148437 1.390625.4375.363281.292969.597656.699219.703125 1.21875l-.875.140625c-.074219-.351562-.21875-.617188-.4375-.796875-.210938-.175781-.460938-.265625-.75-.265625-.449219 0-.8125.164062-1.09375.484375-.273438.324219-.40625.828125-.40625 1.515625 0 .710938.128906 1.226562.390625 1.546875.269531.3125.625.46875 1.0625.46875.34375 0 .628906-.101563.859375-.3125.238281-.21875.390625-.550781.453125-1zm0 0"/></symbol><symbol id="s" overflow="visible"><path d="m5.9375-2.53125.953125.234375c-.199219.792969-.558594 1.398437-1.078125 1.8125-.523438.40625-1.15625.609375-1.90625.609375-.78125 0-1.417969-.15625-1.90625-.46875-.492188-.320312-.867188-.78125-1.125-1.375-.25-.601562-.375-1.253906-.375-1.953125 0-.75.140625-1.398437.421875-1.953125.289063-.5625.703125-.988281 1.234375-1.28125.53125-.289062 1.113281-.4375 1.75-.4375.726562 0 1.335938.183594 1.828125.546875.488281.367187.832031.882813 1.03125 1.546875l-.9375.234375c-.167969-.53125-.414063-.914063-.734375-1.15625-.3125-.238281-.714844-.359375-1.203125-.359375-.554687 0-1.015625.136719-1.390625.40625-.375.261719-.640625.617188-.796875 1.0625-.148437.449219-.21875.914062-.21875 1.390625 0 .617187.085937 1.152344.265625 1.609375.1875.460938.46875.804688.84375 1.03125.375.230469.78125.34375 1.21875.34375.539062 0 .992188-.15625 1.359375-.46875.375-.3125.628906-.769531.765625-1.375zm0 0"/></symbol><symbol id="t" overflow="visible"><path d="m5.078125-.859375v.859375h-4.765625c-.011719-.21875.019531-.421875.09375-.609375.125-.332031.316406-.65625.578125-.96875.269531-.3125.660156-.675781 1.171875-1.09375.78125-.644531 1.304688-1.15625 1.578125-1.53125.28125-.375.421875-.726563.421875-1.0625 0-.351563-.125-.648437-.375-.890625-.25-.238281-.578125-.359375-.984375-.359375-.429687 0-.773437.132813-1.03125.390625-.25.25-.375.601562-.375 1.046875l-.921875-.09375c.0625-.675781.296875-1.191406.703125-1.546875.414063-.351562.960937-.53125 1.640625-.53125.695312 0 1.25.195312 1.65625.578125.40625.375.609375.851563.609375 1.421875 0 .292969-.0625.578125-.1875.859375-.117187.273437-.3125.5625-.59375.875-.273437.3125-.726563.734375-1.359375 1.265625-.53125.449219-.875.757812-1.03125.921875-.148438.15625-.273438.3125-.375.46875zm0 0"/></symbol><symbol id="u" overflow="visible"><path d="m.484375-6.28125v-.84375h4.671875v.6875c-.460938.492188-.917969 1.140625-1.375 1.953125-.449219.8125-.796875 1.648437-1.046875 2.5-.179687.605469-.289063 1.265625-.328125 1.984375h-.921875c.007813-.570312.117187-1.257812.328125-2.0625.21875-.800781.523438-1.578125.921875-2.328125.40625-.75.832031-1.378906 1.28125-1.890625zm0 0"/></symbol><symbol id="v" overflow="visible"><path d="m2.359375 2.125c-.492187-.617188-.90625-1.335938-1.25-2.15625-.335937-.832031-.5-1.691406-.5-2.578125 0-.789063.125-1.539063.375-2.25.300781-.832031.757813-1.660156 1.375-2.484375h.640625c-.398438.679688-.664062 1.164062-.796875 1.453125-.199219.460937-.355469.933594-.46875 1.421875-.148437.617188-.21875 1.234375-.21875 1.859375 0 1.585937.492187 3.160156 1.484375 4.734375zm0 0"/></symbol><symbol id="w" overflow="visible"><path d="m.765625 0v-7.21875h.984375l3.796875 5.671875v-5.671875h.921875v7.21875h-.984375l-3.796875-5.671875v5.671875zm0 0"/></symbol><symbol id="x" overflow="visible"><path d="m3.765625 0h-.890625v-5.65625c-.21875.210938-.5.417969-.84375.625-.34375.199219-.65625.351562-.9375.453125v-.859375c.5-.238281.929688-.519531 1.296875-.84375.375-.332031.640625-.65625.796875-.96875h.578125zm0 0"/></symbol><symbol id="y" overflow="visible"><path d="m.75 0v-7.21875h1.4375l1.71875 5.109375c.15625.480469.269531.835937.34375 1.0625.070312-.257813.195312-.644531.375-1.15625l1.734375-5.015625h1.28125v7.21875h-.921875v-6.046875l-2.09375 6.046875h-.859375l-2.09375-6.15625v6.15625zm0 0"/></symbol><symbol id="z" overflow="visible"><path d="m4.0625 0v-.65625c-.335938.523438-.824219.78125-1.46875.78125-.417969 0-.804688-.1171875-1.15625-.34375-.34375-.238281-.617188-.5625-.8125-.96875-.1875-.414062-.28125-.890625-.28125-1.421875 0-.519531.085938-.992187.265625-1.421875.175781-.425781.4375-.753906.78125-.984375.34375-.226563.734375-.34375 1.171875-.34375.3125 0 .585938.070313.828125.203125.25.136719.453125.308594.609375.515625v-2.578125h.890625v7.21875zm-2.8125-2.609375c0 .667969.140625 1.167969.421875 1.5.289063.335937.628906.5 1.015625.5.382812 0 .710938-.15625.984375-.46875.269531-.320313.40625-.804687.40625-1.453125 0-.71875-.140625-1.242188-.421875-1.578125-.273438-.34375-.609375-.515625-1.015625-.515625-.398437 0-.730469.164062-1 .484375-.261719.324219-.390625.835937-.390625 1.53125zm0 0"/></symbol><symbol id="A" overflow="visible"><path d="m.640625 0v-7.21875h.890625v7.21875zm0 0"/></symbol><symbol id="B" overflow="visible"><path d="m1.625 0-1.59375-5.234375h.921875l.828125 3.015625.3125 1.125c.007812-.050781.097656-.410156.265625-1.078125l.828125-3.0625h.921875l.78125 3.03125.265625 1 .296875-1 .890625-3.03125h.859375l-1.625 5.234375h-.921875l-.84375-3.140625-.1875-.890625-1.0625 4.03125zm0 0"/></symbol><symbol id="C" overflow="visible"><path d="m1.25 2.125h-.640625c.976563-1.574219 1.46875-3.148438 1.46875-4.734375 0-.613281-.070313-1.226563-.203125-1.84375-.117188-.488281-.273438-.960937-.46875-1.421875-.125-.289062-.390625-.78125-.796875-1.46875h.640625c.613281.824219 1.066406 1.652344 1.359375 2.484375.257813.710937.390625 1.460937.390625 2.25 0 .886719-.171875 1.746094-.515625 2.578125-.34375.820312-.757813 1.539062-1.234375 2.15625zm0 0"/></symbol><symbol id="D" overflow="visible"><path d="m.421875-1.890625.921875-.078125c.070312.449219.234375.789062.484375 1.015625.25.230469.550781.34375.90625.34375.425781 0 .785156-.160156 1.078125-.484375.300781-.320312.453125-.75.453125-1.28125 0-.5-.140625-.894531-.421875-1.1875-.28125-.289062-.65625-.4375-1.125-.4375-.28125 0-.539062.0625-.765625.1875-.230469.125-.414063.292969-.546875.5l-.828125-.109375.703125-3.703125h3.59375v.84375h-2.890625l-.390625 1.9375c.4375-.300781.894531-.453125 1.375-.453125.625 0 1.148438.21875 1.578125.65625.4375.4375.65625 1 .65625 1.6875 0 .65625-.1875 1.226563-.5625 1.703125-.46875.585938-1.105469.875-1.90625.875-.65625 0-1.195313-.1796875-1.609375-.546875-.417969-.375-.652344-.863281-.703125-1.46875zm0 0"/></symbol><symbol id="E" overflow="visible"><path d="m4.15625-2.828125v-.859375h3.0625v2.6875c-.46875.375-.953125.65625-1.453125.84375s-1.011719.28125-1.53125.28125c-.710937 0-1.355469-.1484375-1.9375-.453125-.585937-.300781-1.027344-.738281-1.328125-1.3125-.292969-.582031-.4375-1.226563-.4375-1.9375 0-.707031.144531-1.363281.4375-1.96875.300781-.613281.726562-1.066406 1.28125-1.359375.550781-.289062 1.1875-.4375 1.90625-.4375.519531 0 .988281.085938 1.40625.25.425781.167969.757812.402344 1 .703125.238281.304687.421875.699219.546875 1.1875l-.859375.234375c-.105469-.363281-.242188-.648438-.40625-.859375-.15625-.21875-.386719-.390625-.6875-.515625-.304688-.125-.636719-.1875-1-.1875-.4375 0-.820312.070312-1.140625.203125-.3125.136719-.570313.3125-.765625.53125-.1875.210937-.339844.445313-.453125.703125-.1875.449219-.28125.933594-.28125 1.453125 0 .648437.109375 1.1875.328125 1.625.226562.429687.550781.75.96875.96875.425781.210937.878906.3125 1.359375.3125.414063 0 .820313-.078125 1.21875-.234375.394531-.164062.691406-.335938.890625-.515625v-1.34375zm0 0"/></symbol><symbol id="F" overflow="visible"><path d="m.734375 0v-7.21875h2.71875c.550781 0 .992187.074219 1.328125.21875.332031.148438.59375.371094.78125.671875.1875.304687.28125.621094.28125.953125 0 .3125-.085938.605469-.25.875-.167969.273438-.421875.492188-.765625.65625.4375.125.769531.34375 1 .65625.238281.3125.359375.679688.359375 1.09375 0 .335938-.074219.648438-.21875.9375-.136719.292969-.308594.523438-.515625.6875-.210937.15625-.476563.277344-.796875.359375-.3125.0742188-.699219.109375-1.15625.109375zm.96875-4.1875h1.546875c.425781 0 .734375-.023438.921875-.078125.238281-.070313.421875-.191406.546875-.359375.125-.175781.1875-.390625.1875-.640625 0-.238281-.058594-.445313-.171875-.625-.117187-.1875-.28125-.3125-.5-.375-.210937-.070313-.574219-.109375-1.09375-.109375h-1.4375zm0 3.328125h1.796875c.300781 0 .515625-.007813.640625-.03125.21875-.039063.398437-.101563.546875-.1875.15625-.09375.28125-.226563.375-.40625.09375-.175781.140625-.378906.140625-.609375 0-.269531-.070313-.503906-.203125-.703125-.136719-.195313-.328125-.335937-.578125-.421875-.242187-.082031-.59375-.125-1.0625-.125h-1.65625zm0 0"/></symbol><symbol id="G" overflow="visible"><path d="m3.265625 0v-1.734375h-3.140625v-.8125l3.296875-4.671875h.734375v4.671875h.96875v.8125h-.96875v1.734375zm0-2.546875v-3.25l-2.265625 3.25zm0 0"/></symbol><symbol id="H" overflow="visible"><path d="m.453125-2.328125.90625-.078125c.039063.367188.140625.667969.296875.90625.15625.230469.394531.417969.71875.5625.332031.136719.703125.203125 1.109375.203125.363281 0 .6875-.050781.96875-.15625.28125-.113281.488281-.265625.625-.453125.132813-.1875.203125-.394531.203125-.625 0-.21875-.070312-.410156-.203125-.578125-.125-.175781-.339844-.320313-.640625-.4375-.199219-.070313-.632812-.1875-1.296875-.34375-.65625-.164063-1.121094-.316406-1.390625-.453125-.34375-.1875-.601562-.410156-.765625-.671875-.167969-.269531-.25-.570313-.25-.90625 0-.363281.097656-.703125.296875-1.015625.207031-.320312.507812-.5625.90625-.71875.40625-.164062.847656-.25 1.328125-.25.539063 0 1.015625.089844 1.421875.265625.40625.167969.71875.417969.9375.75.226562.335937.347656.714844.359375 1.140625l-.90625.0625c-.054687-.457031-.226563-.800781-.515625-1.03125-.28125-.226562-.699219-.34375-1.25-.34375-.585938 0-1.007812.105469-1.265625.3125-.261719.210938-.390625.464844-.390625.765625 0 .261719.09375.476563.28125.640625.175781.167969.65625.339844 1.4375.515625.78125.179687 1.3125.328125 1.59375.453125.425781.199219.738281.449219.9375.75.195312.292969.296875.632812.296875 1.015625 0 .386719-.109375.75-.328125 1.09375s-.539062.609375-.953125.796875c-.40625.1875-.871094.28125-1.390625.28125-.65625 0-1.203125-.09375-1.640625-.28125-.4375-.195312-.789063-.484375-1.046875-.859375-.25-.382813-.382812-.820313-.390625-1.3125zm0 0"/></symbol><symbol id="I" overflow="visible"><path d="m.671875 2v-7.234375h.796875v.6875c.195312-.269531.414062-.472656.65625-.609375.238281-.132812.523438-.203125.859375-.203125.445313 0 .84375.121094 1.1875.359375.34375.230469.597656.554688.765625.96875.175781.417969.265625.875.265625 1.375 0 .53125-.09375 1.015625-.28125 1.453125-.1875.429687-.46875.757813-.84375.984375-.367187.2265625-.75.34375-1.15625.34375-.292969 0-.558594-.0625-.796875-.1875-.230469-.125-.421875-.285156-.578125-.484375v2.546875zm.796875-4.59375c0 .679688.132812 1.179688.40625 1.5.269531.324219.601562.484375 1 .484375.382812 0 .71875-.164063 1-.5.28125-.332031.421875-.847656.421875-1.546875 0-.664062-.136719-1.164062-.40625-1.5-.273437-.332031-.601563-.5-.984375-.5-.375 0-.710938.179688-1 .53125-.292969.355469-.4375.867188-.4375 1.53125zm0 0"/></symbol><symbol id="J" overflow="visible"><path d="m4.71875-6.1875h.828125v3.578125c0 .625-.074219 1.121094-.21875 1.484375-.136719.367188-.390625.664062-.765625.890625-.367188.23046875-.84375.34375-1.4375.34375-.585938 0-1.058594-.1015625-1.421875-.296875-.367187-.207031-.632813-.5-.796875-.875-.15625-.375-.234375-.890625-.234375-1.546875v-3.578125h.828125v3.578125c0 .53125.046875.929687.140625 1.1875.101563.25.273437.445313.515625.578125.25.136719.546875.203125.890625.203125.601563 0 1.03125-.132813 1.28125-.40625.257813-.269531.390625-.789063.390625-1.5625zm0 0"/></symbol><symbol id="K" overflow="visible"><path d="m.6875 0v-6.1875h4.46875v.734375h-3.65625v1.890625h3.421875v.734375h-3.421875v2.09375h3.796875v.734375zm0 0"/></symbol><symbol id="L" overflow="visible"/><symbol id="M" overflow="visible"><path d="m2.234375 0v-5.453125h-2.03125v-.734375h4.90625v.734375h-2.046875v5.453125zm0 0"/></symbol><symbol id="N" overflow="visible"><path d="m3.5-.546875c-.28125.242187-.554688.40625-.8125.5-.261719.09375-.542969.140625-.84375.140625-.492188 0-.871094-.1171875-1.140625-.359375-.261719-.238281-.390625-.546875-.390625-.921875 0-.21875.046875-.414062.140625-.59375.101563-.175781.234375-.320312.390625-.4375.164062-.113281.351562-.195312.5625-.25.144531-.039062.367188-.078125.671875-.109375.613281-.070313 1.066406-.160156 1.359375-.265625 0-.101562 0-.171875 0-.203125 0-.300781-.074219-.519531-.21875-.65625-.199219-.164063-.484375-.25-.859375-.25-.367187 0-.632813.0625-.796875.1875-.167969.125-.292969.351563-.375.671875l-.75-.109375c.070312-.3125.1875-.566406.34375-.765625.15625-.195312.378906-.347656.671875-.453125.289063-.101563.628906-.15625 1.015625-.15625.375 0 .679688.046875.921875.140625.238281.085938.414063.195312.53125.328125.113281.136719.191406.308594.234375.515625.03125.136719.046875.371094.046875.703125v1.015625c0 .710938.015625 1.15625.046875 1.34375s.09375.367188.1875.53125h-.796875c-.074219-.15625-.121094-.335938-.140625-.546875zm-.0625-1.703125c-.28125.117188-.699219.210938-1.25.28125-.3125.054688-.539062.109375-.671875.171875-.125.054687-.226563.132813-.296875.234375-.0625.105469-.09375.226562-.09375.359375 0 .199219.070312.367187.21875.5.15625.136719.382812.203125.6875.203125.289062 0 .546875-.0625.765625-.1875.226563-.125.398437-.296875.515625-.515625.082031-.175781.125-.429687.125-.765625zm0 0"/></symbol><symbol id="O" overflow="visible"><path d="m.5625 0v-4.484375h.6875v.6875c.164062-.320313.320312-.53125.46875-.625.15625-.101563.320312-.15625.5-.15625.25 0 .507812.078125.78125.234375l-.265625.71875c-.1875-.113281-.375-.171875-.5625-.171875-.167969 0-.320313.054687-.453125.15625-.125.09375-.214844.230469-.265625.40625-.085937.273437-.125.570313-.125.890625v2.34375zm0 0"/></symbol><symbol id="P" overflow="visible"><path d="m.4375.375.734375.109375c.03125.226563.113281.394531.25.5.1875.132813.445313.203125.78125.203125.34375 0 .609375-.074219.796875-.21875.195312-.136719.332031-.328125.40625-.578125.03125-.15625.046875-.484375.046875-.984375-.335937.398438-.746094.59375-1.234375.59375-.617188 0-1.09375-.21875-1.4375-.65625-.335938-.445312-.5-.984375-.5-1.609375 0-.425781.078125-.816406.234375-1.171875.15625-.363281.378906-.644531.671875-.84375.289062-.195312.632812-.296875 1.03125-.296875.53125 0 .96875.214844 1.3125.640625v-.546875h.703125v3.875c0 .6953125-.074219 1.191406-.21875 1.484375-.148437.289062-.375.519531-.6875.6875-.304687.164062-.679687.25-1.125.25-.53125 0-.964844-.121094-1.296875-.359375-.335938-.242187-.492188-.601563-.46875-1.078125zm.625-2.703125c0 .59375.113281 1.027344.34375 1.296875.238281.273438.53125.40625.875.40625.351562 0 .644531-.132812.875-.40625.238281-.269531.359375-.691406.359375-1.265625 0-.550781-.125-.960937-.375-1.234375-.242187-.28125-.527344-.421875-.859375-.421875-.34375 0-.636719.140625-.875.421875-.230469.273438-.34375.671875-.34375 1.203125zm0 0"/></symbol><symbol id="Q" overflow="visible"><path d="m3.640625-1.4375.78125.09375c-.125.460938-.355469.8125-.6875 1.0625-.335937.25-.761719.375-1.28125.375-.65625 0-1.179687-.195312-1.5625-.59375-.386719-.40625-.578125-.972656-.578125-1.703125 0-.75.191406-1.332031.578125-1.75.394531-.414063.898437-.625 1.515625-.625.601562 0 1.09375.203125 1.46875.609375.382812.40625.578125.980469.578125 1.71875 0 .042969-.007813.109375-.015625.203125h-3.34375c.03125.492187.171875.871094.421875 1.140625.25.261719.5625.390625.9375.390625.28125 0 .519531-.070313.71875-.21875.195313-.15625.351563-.390625.46875-.703125zm-2.5-1.234375h2.5c-.03125-.375-.125-.65625-.28125-.84375-.242187-.289063-.554687-.4375-.9375-.4375-.355469 0-.652344.121094-.890625.359375-.230469.230469-.359375.539062-.390625.921875zm0 0"/></symbol><symbol id="R" overflow="visible"><path d="m2.234375-.671875.109375.65625c-.21875.0507812-.414062.078125-.578125.078125-.28125 0-.5-.0429688-.65625-.125-.148437-.09375-.25-.207031-.3125-.34375-.0625-.144531-.09375-.445312-.09375-.90625v-2.578125h-.546875v-.59375h.546875v-1.109375l.765625-.453125v1.5625h.765625v.59375h-.765625v2.625c0 .21875.007812.359375.03125.421875.03125.054688.070312.101562.125.140625.0625.03125.148438.046875.265625.046875.082031 0 .195313-.003906.34375-.015625zm0 0"/></symbol><symbol id="S" overflow="visible"><path d="m.59375 1.71875v-7.90625h1.671875v.625h-.921875v6.65625h.921875v.625zm0 0"/></symbol><symbol id="T" overflow="visible"><path d="m.8125 0v-6.1875h.8125v6.1875zm0 0"/></symbol><symbol id="U" overflow="visible"><path d="m.65625 0v-6.1875h.84375l3.25 4.859375v-4.859375h.78125v6.1875h-.84375l-3.25-4.859375v4.859375zm0 0"/></symbol><symbol id="V" overflow="visible"><path d="m.703125 0v-6.1875h4.171875v.734375h-3.34375v1.90625h2.90625v.734375h-2.90625v2.8125zm0 0"/></symbol><symbol id="W" overflow="visible"><path d="m.421875-3.015625c0-1.019531.273437-1.820313.828125-2.40625.550781-.582031 1.257812-.875 2.125-.875.570312 0 1.085938.140625 1.546875.421875.457031.273438.804687.652344 1.046875 1.140625.238281.480469.359375 1.03125.359375 1.65625s-.125 1.1875-.375 1.6875c-.25.492187-.609375.867187-1.078125 1.125-.460938.25-.960938.375-1.5.375-.585938 0-1.105469-.140625-1.5625-.421875-.460938-.28125-.808594-.664062-1.046875-1.15625-.230469-.488281-.34375-1.003906-.34375-1.546875zm.84375.015625c0 .75.195313 1.339844.59375 1.765625.40625.429687.910156.640625 1.515625.640625.613281 0 1.117188-.210938 1.515625-.640625.394531-.4375.59375-1.054687.59375-1.859375 0-.5-.085937-.9375-.25-1.3125-.167969-.375-.417969-.664062-.75-.875-.324219-.207031-.6875-.3125-1.09375-.3125-.585937 0-1.085937.203125-1.5.609375-.417969.398437-.625 1.058594-.625 1.984375zm0 0"/></symbol><symbol id="X" overflow="visible"><path d="m1.84375 1.71875h-1.671875v-.625h.90625v-6.65625h-.90625v-.625h1.671875zm0 0"/></symbol><symbol id="Y" overflow="visible"><path d="m3.5-1.640625.734375.09375c-.074219.523437-.28125.929687-.625 1.21875-.335937.28125-.746094.421875-1.234375.421875-.617188 0-1.109375-.195312-1.484375-.59375-.367187-.394531-.546875-.96875-.546875-1.71875 0-.488281.078125-.910156.234375-1.265625.15625-.363281.394531-.632813.71875-.8125.332031-.1875.691406-.28125 1.078125-.28125.488281 0 .882812.125 1.1875.375.3125.242187.515625.585937.609375 1.03125l-.734375.125c-.074219-.300781-.203125-.523437-.390625-.671875-.179687-.15625-.390625-.234375-.640625-.234375-.386719 0-.699219.136719-.9375.40625-.230469.273437-.34375.703125-.34375 1.296875 0 .605469.113281 1.046875.34375 1.328125.226562.273437.523438.40625.890625.40625.300781 0 .550781-.09375.75-.28125.195313-.1875.328125-.46875.390625-.84375zm0 0"/></symbol><symbol id="Z" overflow="visible"><path d="m.28125-2.234375c0-.832031.234375-1.445313.703125-1.84375.382813-.332031.851563-.5 1.40625-.5.613281 0 1.113281.203125 1.5.609375.394531.398438.59375.953125.59375 1.671875 0 .574219-.089844 1.027344-.265625 1.359375-.167969.324219-.417969.578125-.75.765625-.335938.17578125-.695312.265625-1.078125.265625-.625 0-1.136719-.195312-1.53125-.59375-.386719-.40625-.578125-.984375-.578125-1.734375zm.78125 0c0 .574219.125 1.007813.375 1.296875.25.28125.566406.421875.953125.421875.375 0 .6875-.144531.9375-.4375.25-.289063.375-.726563.375-1.3125 0-.550781-.125-.96875-.375-1.25-.25-.289063-.5625-.4375-.9375-.4375-.386719 0-.703125.148437-.953125.4375-.25.28125-.375.710937-.375 1.28125zm0 0"/></symbol><symbol id="aa" overflow="visible"><path d="m.5625 0v-4.484375h.6875v.640625c.332031-.488281.804688-.734375 1.421875-.734375.269531 0 .519531.046875.75.140625.226563.09375.394531.226562.5.390625.113281.15625.195313.339844.25.546875.019531.148438.03125.398438.03125.75v2.75h-.75v-2.71875c0-.3125-.03125-.546875-.09375-.703125-.054687-.15625-.15625-.273437-.3125-.359375-.148437-.09375-.324219-.140625-.53125-.140625-.324219 0-.605469.105469-.84375.3125-.230469.199219-.34375.585937-.34375 1.15625v2.453125zm0 0"/></symbol><symbol id="ab" overflow="visible"><path d="m.578125-5.3125v-.875h.75v.875zm0 5.3125v-4.484375h.75v4.484375zm0 0"/></symbol><symbol id="ac" overflow="visible"><path d="m.53125 1.71875-.078125-.703125c.164063.039063.3125.0625.4375.0625.164063 0 .296875-.03125.390625-.09375.101562-.054687.191406-.125.265625-.21875.039063-.085937.113281-.277344.21875-.578125.019531-.042969.046875-.1015625.078125-.171875l-1.703125-4.5h.8125l.9375 2.59375c.125.335937.234375.683594.328125 1.046875.082031-.351562.1875-.695312.3125-1.03125l.953125-2.609375h.765625l-1.703125 4.5625c-.1875.488281-.335937.828125-.4375 1.015625-.136719.25-.292969.429688-.46875.546875-.167969.113281-.371094.171875-.609375.171875-.148438 0-.3125-.03125-.5-.09375zm0 0"/></symbol><symbol id="ad" overflow="visible"><path d="m.5625 1.71875v-6.203125h.703125v.59375c.15625-.226563.335937-.398437.546875-.515625.207031-.113281.457031-.171875.75-.171875.382812 0 .722656.101563 1.015625.296875.289063.199219.507813.476562.65625.828125.144531.355469.21875.746094.21875 1.171875 0 .460938-.085937.875-.25 1.25-.15625.367188-.390625.648438-.703125.84375-.3125.1875-.648438.28125-1 .28125-.25 0-.480469-.0546875-.6875-.15625-.199219-.101562-.359375-.238281-.484375-.40625v2.1875zm.6875-3.9375c0 .585938.113281 1.015625.34375 1.296875.238281.273437.523438.40625.859375.40625.34375 0 .632813-.140625.875-.421875.238281-.289062.359375-.738281.359375-1.34375 0-.570312-.121094-1-.359375-1.28125-.230469-.28125-.511719-.421875-.84375-.421875-.324219 0-.609375.152344-.859375.453125-.25.304688-.375.742188-.375 1.3125zm0 0"/></symbol><symbol id="ae" overflow="visible"><path d="m.78125-3.609375v-.875h.859375v.875zm0 3.609375v-.859375h.859375v.859375zm0 0"/></symbol><symbol id="af" overflow="visible"><path d="m.640625 0v-6.1875h.8125v5.453125h3.046875v.734375zm0 0"/></symbol><symbol id="ag" overflow="visible"><path d="m.96875-1.53125-.21875-3.28125v-1.375h.9375v1.375l-.21875 3.28125zm-.1875 1.53125v-.859375h.875v.859375zm0 0"/></symbol><symbol id="ah" overflow="visible"><path d="m.671875 0v-6.1875h2.125c.476563 0 .84375.03125 1.09375.09375.363281.085938.671875.230469.921875.4375.320312.28125.5625.636719.71875 1.0625.164062.429688.25.917969.25 1.46875 0 .46875-.058594.886719-.171875 1.25-.105469.367188-.246094.667969-.421875.90625-.167969.230469-.355469.414062-.5625.546875-.199219.136719-.445312.242187-.734375.3125-.292969.0742188-.621094.109375-.984375.109375zm.8125-.734375h1.328125c.40625 0 .722656-.035156.953125-.109375.226563-.070312.414063-.179688.5625-.328125.1875-.1875.332031-.441406.4375-.765625.113281-.332031.171875-.734375.171875-1.203125 0-.644531-.109375-1.140625-.328125-1.484375-.210937-.351562-.464844-.585938-.765625-.703125-.21875-.082031-.574219-.125-1.0625-.125h-1.296875zm0 0"/></symbol><symbol id="ai" overflow="visible"><path d="m1.390625 0-1.359375-4.484375h.78125l.703125 2.59375.265625.953125c.019531-.039062.097656-.347656.234375-.921875l.71875-2.625h.78125l.671875 2.609375.21875.84375.265625-.859375.765625-2.59375h.734375l-1.40625 4.484375h-.78125l-.71875-2.6875-.171875-.765625-.90625 3.453125zm0 0"/></symbol><symbol id="aj" overflow="visible"><path d="m3.46875 0v-.5625c-.28125.4375-.699219.65625-1.25.65625-.355469 0-.683594-.09375-.984375-.28125-.304687-.195312-.539063-.472656-.703125-.828125-.15625-.351563-.234375-.757813-.234375-1.21875 0-.445313.070313-.851563.21875-1.21875.15625-.363281.378906-.640625.671875-.828125.300781-.195312.632812-.296875 1-.296875.269531 0 .507812.058594.71875.171875.21875.117188.390625.261719.515625.4375v-2.21875h.765625v6.1875zm-2.390625-2.234375c0 .574219.117187 1.007813.359375 1.296875.238281.28125.523438.421875.859375.421875.332031 0 .613281-.132813.84375-.40625.226563-.28125.34375-.695313.34375-1.25 0-.613281-.121094-1.0625-.359375-1.34375-.230469-.289063-.515625-.4375-.859375-.4375s-.632813.140625-.859375.421875c-.21875.273438-.328125.703125-.328125 1.296875zm0 0"/></symbol><symbol id="ak" overflow="visible"><path d="m2.796875 0v-1.484375h-2.6875v-.6875l2.828125-4.015625h.609375v4.015625h.84375v.6875h-.84375v1.484375zm0-2.171875v-2.796875l-1.9375 2.796875zm0 0"/></symbol><symbol id="al" overflow="visible"><path d="m3.5625-2.421875v-.734375h2.625v2.296875c-.40625.324219-.824219.570313-1.25.734375-.429688.15625-.867188.234375-1.3125.234375-.617188 0-1.171875-.1289062-1.671875-.390625-.492187-.257812-.867187-.632812-1.125-1.125-.25-.5-.375-1.050781-.375-1.65625 0-.601562.125-1.164062.375-1.6875.257813-.519531.625-.90625 1.09375-1.15625.46875-.257812 1.015625-.390625 1.640625-.390625.445312 0 .847656.074219 1.203125.21875.363281.148437.644531.351563.84375.609375.207031.261719.367187.601562.484375 1.015625l-.75.203125c-.09375-.3125-.210938-.554688-.34375-.734375-.136719-.1875-.335938-.332031-.59375-.4375-.25-.113281-.53125-.171875-.84375-.171875-.375 0-.699219.058594-.96875.171875-.273438.117187-.496094.265625-.671875.453125-.167969.1875-.292969.390625-.375.609375-.167969.386719-.25.804687-.25 1.25 0 .554687.09375 1.015625.28125 1.390625.195313.367188.476563.636719.84375.8125.363281.179688.75.265625 1.15625.265625.351563 0 .695313-.066406 1.03125-.203125.34375-.132812.597656-.28125.765625-.4375v-1.140625zm0 0"/></symbol><symbol id="am" overflow="visible"><path d="m.578125 0v-6.1875h.75v3.53125l1.796875-1.828125h.984375l-1.703125 1.671875 1.875 2.8125h-.9375l-1.46875-2.296875-.546875.515625v1.78125zm0 0"/></symbol><g clip-path="url(#a)"><path d="m0 0h325v91.519531h-325zm0 0" fill="#fff"/></g><g transform="scale(.720621)"><path d="m206.999254 119.997447v-89.999441" fill="none" stroke="#000" stroke-miterlimit="10" stroke-width="2"/><path d="m9.307296 28.848824 6.190409-22.766828 6.190409 22.766828" fill="none" stroke="#c00" stroke-linejoin="round" stroke-miterlimit="10" stroke-width=".55"/><path d="m21.41166 27.331035-10.413114-4.553365 8.163534-3.035578-6.331346-3.030156 4.640096-2.90006-3.241562-2.623606" fill="none" stroke="#c00" stroke-linejoin="round" stroke-miterlimit="10" stroke-width=".55"/><path d="m16.625205 6.629484c0 .303557-.108413.56375-.330661.780577-.216827.216826-.48244.32524-.796839.32524-.308978 0-.574591-.108414-.791418-.32524-.222248-.216827-.330661-.47702-.330661-.780577 0-.303558.108413-.56375.330661-.780577.216827-.216827.48244-.325241.791418-.325241.314399 0 .580012.108414.796839.325241.222248.216827.330661.477019.330661.780577zm0 0" fill="#f8cecc" stroke="#c00" stroke-width=".55"/><path d="m17.411203 4.74851.40113-.466178c1.279279 1.29012 1.279279 3.349976 0 4.640096l-.40113-.444495c.986562-1.04619.986562-2.666971 0-3.729423zm1.409375-1.376851.390288-.379447c2.000229 2.027332 2.000229 5.247212 0 7.279964l-.390288-.384868c1.777981-1.815925 1.777981-4.699724 0-6.515649zm1.398534-1.382272.40113-.411971c1.512367 1.263017 2.379675 3.111466 2.379675 5.052068 0 1.951442-.867308 3.78905-2.379675 5.052067l-.40113-.411971c1.441899-1.1275 2.282103-2.829592 2.282103-4.640096 0-1.799664-.840204-3.507176-2.282103-4.640097zm-6.629484 2.759123-.40113-.466178c-1.279279 1.29012-1.279279 3.349976 0 4.640096l.40113-.444495c-.991983-1.04619-.991983-2.666971 0-3.729423zm-1.409375-1.376851-.390288-.379447c-2.000229 2.027332-2.000229 5.247212 0 7.279964l.390288-.384868c-1.777981-1.815925-1.777981-4.699724 0-6.515649zm-1.398534-1.382272-.401129-.411971c-1.512368 1.263017-2.379676 3.111466-2.379676 5.052068 0 1.951442.867308 3.78905 2.379676 5.052067l.401129-.411971c-1.441899-1.1275-2.282103-2.829592-2.282103-4.640096 0-1.799664.840204-3.507176 2.282103-4.640097zm0 0" fill="#f8cecc" stroke="#c00" stroke-miterlimit="10" stroke-width=".55"/></g><path d="m168.214844 17.195312c.488281-.015624.8125-.503906.8125-1.011718.015625-.574219-.34375-1.058594-.820313-1.058594-.496093.023438-.828125.511719-.820312 1.058594 0 .554687.382812 1.011718.828125 1.011718zm-17.621094 4.128907c-.179688 0-.335938-.203125-.335938-.476563v-6.660156c-.007812-.171875.105469-.316406.257813-.453125.496094-.386719.972656-.519531 1.382813-.675781v-5.363282h.332031v-4.957031h.65625v4.957031h.332031v4.957032c3.132812-.488282 5.996094-.605469 8.648438-.617188 3.199218-.050781 6.304687.0625 9.144531.613282v-4.953126h.332031v-4.957031h.652344v4.957031h.332031v5.363282c.476563.171875.960937.300781 1.398437.683594.144532.121093.21875.257812.21875.441406v6.691406c0 .230469-.167968.449219-.355468.449219h-1.929688c-.144531 0-.316406-.203125-.316406-.449219v-1.203125h-18.125v1.199219c0 .265625-.136719.453125-.347656.453125zm0 0" fill="#505050"/><path d="m11.703125 37.472656h1.441406v1.441406h-1.441406m2.882813-1.441406h1.441406v1.441406h-1.441406m2.882812-1.441406h1.441406v1.441406h-1.441406m2.882812-1.441406h1.441407v1.441406h-1.441407m2.882813-1.441406h1.441406v1.441406h-1.441406m2.882813-1.441406h1.4375v1.441406h-1.4375m2.878906-1.441406h1.441406v1.441406h-1.441406m2.882812-1.441406h1.441406v1.441406h-1.441406m2.882813-1.441406h1.441406v1.441406h-1.441406m2.882812-1.441406h1.441407v1.441406h-1.441407m2.882813-1.441406h1.441406v1.441406h-1.441406m2.882812-1.441406h1.441406v1.441406h-1.441406m2.882813-1.441406h1.441406v1.441406h-1.441406m2.882812-1.441406h1.441407v1.441406h-1.441407m2.882813-1.441406h1.441406v1.441406h-1.441406m2.882812-1.441406h1.441406v1.441406h-1.441406m2.882813-1.441406h1.441406v1.441406h-1.441406m2.882812-1.441406h1.4375v1.441406h-1.4375m2.878907-1.441406h1.441406v1.441406h-1.441406m2.882812-1.441406h1.441406v1.441406h-1.441406m2.882812-1.441406h1.441407v1.441406h-1.441407m2.882813-1.441406h1.441406v1.441406h-1.441406m2.882813-1.441406h1.441406v1.441406h-1.441406m2.882812-1.441406h1.441406v1.441406h-1.441406m2.882812-1.441406h1.441407v1.441406h-1.441407m2.882813-1.441406h1.441406v1.441406h-1.441406m2.882813-1.441406h1.441406v1.441406h-1.441406m2.882812-1.441406h1.441406v1.441406h-1.441406m2.882812-1.441406h1.441407v1.441406h-1.441407m2.878907-1.441406h1.441406v1.441406h-1.441406m2.882812-1.441406h1.441407v1.441406h-1.441407m2.882813-1.441406h1.441406v1.441406h-1.441406m2.882812-1.441406h1.441406v1.441406h-1.441406m2.882813-1.441406h1.441406v1.441406h-1.441406m2.882812-1.441406h1.441407v1.441406h-1.441407m2.882813-1.441406h1.441406v1.441406h-1.441406m2.882812-1.441406h1.441406v1.441406h-1.441406m2.882813-1.441406h1.441406v1.441406h-1.441406m2.882812-1.441406h1.441407v1.441406h-1.441407m2.882813-1.441406h1.441406v1.441406h-1.441406m2.882812-1.441406h1.441406v1.441406h-1.441406m2.878906-1.441406h1.441407v1.441406h-1.441407m2.882813-1.441406h1.441406v1.441406h-1.441406m2.882813-1.441406h1.441406v1.441406h-1.441406m2.882812-1.441406h1.441406v1.441406h-1.441406m2.882812-1.441406h1.441407v1.441406h-1.441407m2.882813-1.441406h1.441406v1.441406h-1.441406m2.882813-1.441406h1.441406v1.441406h-1.441406" fill="#82b366"/><path d="m10.239652 52.997924 8.000914-4.000457-2.000229 4.000457 2.000229 4.000457zm0 0" fill="#82b366" stroke="#82b366" stroke-miterlimit="10" stroke-width="2" transform="scale(.720621)"/><g><use x="28.824832" xlink:href="#d" y="35.310419"/><use x="36.110562" xlink:href="#e" y="35.310419"/><use x="41.721411" xlink:href="#f" y="35.310419"/><use x="47.33226" xlink:href="#g" y="35.310419"/><use x="49.573644" xlink:href="#h" y="35.310419"/><use x="54.61799" xlink:href="#i" y="35.310419"/><use x="57.420951" xlink:href="#j" y="35.310419"/><use x="60.780564" xlink:href="#k" y="35.310419"/><use x="66.391414" xlink:href="#i" y="35.310419"/><use x="69.194375" xlink:href="#g" y="35.310419"/><use x="71.435759" xlink:href="#l" y="35.310419"/><use x="77.046608" xlink:href="#m" y="35.310419"/><use x="82.657458" xlink:href="#n" y="35.310419"/><use x="85.460419" xlink:href="#d" y="35.310419"/><use x="92.746149" xlink:href="#e" y="35.310419"/><use x="98.356998" xlink:href="#o" y="35.310419"/><use x="103.967847" xlink:href="#p" y="35.310419"/><use x="109.578697" xlink:href="#e" y="35.310419"/><use x="115.189546" xlink:href="#h" y="35.310419"/><use x="120.233892" xlink:href="#i" y="35.310419"/></g><g><use x="11.135843" xlink:href="#d" y="50.443456"/><use x="18.421573" xlink:href="#e" y="50.443456"/><use x="24.032422" xlink:href="#f" y="50.443456"/><use x="29.643271" xlink:href="#g" y="50.443456"/><use x="31.884656" xlink:href="#h" y="50.443456"/><use x="36.929001" xlink:href="#i" y="50.443456"/><use x="39.731963" xlink:href="#j" y="50.443456"/><use x="43.091576" xlink:href="#k" y="50.443456"/><use x="48.702425" xlink:href="#i" y="50.443456"/><use x="51.505386" xlink:href="#g" y="50.443456"/><use x="53.746771" xlink:href="#l" y="50.443456"/><use x="59.35762" xlink:href="#m" y="50.443456"/><use x="64.968469" xlink:href="#n" y="50.443456"/><use x="67.771431" xlink:href="#d" y="50.443456"/><use x="75.05716" xlink:href="#e" y="50.443456"/><use x="80.668009" xlink:href="#q" y="50.443456"/><use x="82.909393" xlink:href="#e" y="50.443456"/><use x="88.520243" xlink:href="#r" y="50.443456"/><use x="93.564588" xlink:href="#i" y="50.443456"/><use x="96.36755" xlink:href="#n" y="50.443456"/><use x="99.170511" xlink:href="#s" y="50.443456"/><use x="106.456241" xlink:href="#k" y="50.443456"/><use x="112.06709" xlink:href="#p" y="50.443456"/><use x="117.67794" xlink:href="#h" y="50.443456"/><use x="122.722285" xlink:href="#e" y="50.443456"/><use x="128.333134" xlink:href="#n" y="50.443456"/><use x="131.136096" xlink:href="#t" y="50.443456"/><use x="136.746945" xlink:href="#u" y="50.443456"/></g><g><use x="24.591185" xlink:href="#v" y="62.69401"/><use x="27.950798" xlink:href="#w" y="62.69401"/><use x="35.236528" xlink:href="#x" y="62.69401"/><use x="40.847377" xlink:href="#n" y="62.69401"/><use x="43.650338" xlink:href="#y" y="62.69401"/><use x="52.054297" xlink:href="#l" y="62.69401"/><use x="57.665146" xlink:href="#z" y="62.69401"/><use x="63.275995" xlink:href="#e" y="62.69401"/><use x="68.886845" xlink:href="#n" y="62.69401"/><use x="71.689806" xlink:href="#m" y="62.69401"/><use x="77.300655" xlink:href="#l" y="62.69401"/><use x="82.911505" xlink:href="#i" y="62.69401"/><use x="85.714466" xlink:href="#n" y="62.69401"/><use x="88.517428" xlink:href="#k" y="62.69401"/><use x="94.128277" xlink:href="#A" y="62.69401"/><use x="96.369661" xlink:href="#A" y="62.69401"/><use x="98.611045" xlink:href="#l" y="62.69401"/><use x="104.221894" xlink:href="#B" y="62.69401"/><use x="111.507624" xlink:href="#e" y="62.69401"/><use x="117.118473" xlink:href="#z" y="62.69401"/><use x="122.729322" xlink:href="#C" y="62.69401"/></g><use x="126.088935" xlink:href="#n" y="62.69401"/><g><use x="109.489323" xlink:href="#J" y="18.01552"/><use x="115.734234" xlink:href="#K" y="18.01552"/><use x="121.502016" xlink:href="#L" y="18.01552"/></g><use x="123.748325" xlink:href="#M" y="18.01552"/><g><use x="128.07205" xlink:href="#N" y="18.01552"/><use x="132.88135" xlink:href="#O" y="18.01552"/><use x="135.761018" xlink:href="#P" y="18.01552"/><use x="140.570317" xlink:href="#Q" y="18.01552"/><use x="145.379617" xlink:href="#R" y="18.01552"/></g><g fill="#c00"><use x="19.085192" xlink:href="#y" y="17.294899"/><use x="27.48915" xlink:href="#k" y="17.294899"/><use x="33.099999" xlink:href="#A" y="17.294899"/><use x="35.341383" xlink:href="#g" y="17.294899"/><use x="37.582767" xlink:href="#r" y="17.294899"/><use x="42.627113" xlink:href="#g" y="17.294899"/><use x="44.868497" xlink:href="#l" y="17.294899"/><use x="50.479346" xlink:href="#p" y="17.294899"/><use x="56.090196" xlink:href="#h" y="17.294899"/><use x="61.134541" xlink:href="#n" y="17.294899"/><use x="63.937503" xlink:href="#D" y="17.294899"/><use x="69.548352" xlink:href="#E" y="17.294899"/><use x="77.395659" xlink:href="#n" y="17.294899"/><use x="80.198621" xlink:href="#f" y="17.294899"/><use x="85.80947" xlink:href="#w" y="17.294899"/><use x="93.0952" xlink:href="#F" y="17.294899"/></g><path d="m8.000914 73.997612 191.761741-.178882" fill="none" stroke="#c00" stroke-miterlimit="10" stroke-width="2" transform="scale(.720621)"/><path d="m205.75792 73.807889-7.990072 4.011298 1.994807-4.000457-2.000228-4.000457zm0 0" fill="#c00" stroke="#c00" stroke-miterlimit="10" stroke-width="2" transform="scale(.720621)"/><path d="m8.998318 119.997447v-90.910114" fill="none" stroke="#000" stroke-miterlimit="10" stroke-width="2" transform="scale(.720621)"/><g clip-path="url(#b)"><path d="m431.041106 121.677855-.16262-90.677024" fill="none" stroke="#000" stroke-miterlimit="10" stroke-width="2" transform="scale(.720621)"/></g><path d="m419.310769 28.848824 6.190409-22.766828 6.190409 22.766828" fill="none" stroke="#c00" stroke-linejoin="round" stroke-miterlimit="10" stroke-width=".55" transform="scale(.720621)"/><path d="m431.409712 27.331035-10.407693-4.553365 8.158113-3.035578-6.331346-3.030156 4.640096-2.90006-3.241562-2.623606" fill="none" stroke="#c00" stroke-linejoin="round" stroke-miterlimit="10" stroke-width=".55" transform="scale(.720621)"/><path d="m426.623257 6.629484c0 .303557-.108413.56375-.32524.780577-.222248.216826-.487861.32524-.796839.32524-.314399 0-.574592-.108414-.796839-.32524-.216827-.216827-.330661-.47702-.330661-.780577 0-.303558.113834-.56375.330661-.780577.222247-.216827.48244-.325241.796839-.325241.308978 0 .574591.108414.796839.325241.216827.216827.32524.477019.32524.780577zm0 0" fill="#f8cecc" stroke="#c00" stroke-width=".55" transform="scale(.720621)"/><path d="m427.409255 4.74851.40113-.466178c1.279279 1.29012 1.279279 3.349976 0 4.640096l-.40113-.444495c.991983-1.04619.991983-2.666971 0-3.729423zm1.409375-1.376851.390288-.379447c2.000229 2.027332 2.000229 5.247212 0 7.279964l-.390288-.384868c1.783401-1.815925 1.783401-4.699724 0-6.515649zm1.403954-1.382272.395709-.411971c1.512368 1.263017 2.379676 3.111466 2.379676 5.052068 0 1.951442-.867308 3.78905-2.379676 5.052067l-.395709-.411971c1.436479-1.1275 2.276683-2.829592 2.276683-4.640096 0-1.799664-.840204-3.507176-2.276683-4.640097zm-6.634904 2.759123-.395709-.466178c-1.279279 1.29012-1.279279 3.349976 0 4.640096l.395709-.444495c-.986562-1.04619-.986562-2.666971 0-3.729423zm-1.409375-1.376851-.390288-.379447c-2.000229 2.027332-2.000229 5.247212 0 7.279964l.390288-.384868c-1.777981-1.815925-1.777981-4.699724 0-6.515649zm-1.398534-1.382272-.40113-.411971c-1.506947 1.263017-2.379675 3.111466-2.379675 5.052068 0 1.951442.872728 3.78905 2.379675 5.052067l.40113-.411971c-1.441899-1.1275-2.282103-2.829592-2.282103-4.640096 0-1.799664.840204-3.507176 2.282103-4.640097zm0 0" fill="#f8cecc" stroke="#c00" stroke-miterlimit="10" stroke-width=".55" transform="scale(.720621)"/><g fill="#c00"><use x="261.292599" xlink:href="#G" y="17.294899"/><use x="266.903448" xlink:href="#E" y="17.294899"/><use x="274.750755" xlink:href="#n" y="17.294899"/><use x="277.553717" xlink:href="#e" y="17.294899"/><use x="283.164566" xlink:href="#w" y="17.294899"/><use x="290.450296" xlink:href="#F" y="17.294899"/></g><g><use x="181.28117" xlink:href="#G" y="56.929043"/><use x="186.89202" xlink:href="#E" y="56.929043"/><use x="194.739327" xlink:href="#n" y="56.929043"/><use x="197.542288" xlink:href="#s" y="56.929043"/><use x="204.828018" xlink:href="#l" y="56.929043"/><use x="210.438867" xlink:href="#m" y="56.929043"/><use x="216.049717" xlink:href="#m" y="56.929043"/><use x="221.660566" xlink:href="#e" y="56.929043"/><use x="227.271415" xlink:href="#r" y="56.929043"/><use x="232.315761" xlink:href="#i" y="56.929043"/><use x="235.118722" xlink:href="#g" y="56.929043"/><use x="237.360106" xlink:href="#l" y="56.929043"/><use x="242.970956" xlink:href="#m" y="56.929043"/><use x="248.581805" xlink:href="#n" y="56.929043"/><use x="251.384766" xlink:href="#H" y="56.929043"/><use x="258.113845" xlink:href="#e" y="56.929043"/><use x="263.724694" xlink:href="#i" y="56.929043"/><use x="266.527655" xlink:href="#p" y="56.929043"/><use x="272.138505" xlink:href="#I" y="56.929043"/></g><path d="m216.241503 83.998755h203.519182" fill="none" stroke="#000" stroke-miterlimit="10" stroke-width="2" transform="scale(.720621)"/><path d="m210.240817 83.998755 8.000914-4.000457-2.000228 4.000457 2.000228 4.000457zm0 0" stroke="#000" stroke-miterlimit="10" stroke-width="2" transform="scale(.720621)"/><path d="m306.8125 60.53125-5.765625 2.882812 1.441406-2.882812-1.441406-2.882812zm0 0"/><g clip-path="url(#c)"><path d="m425.76137 83.998755-8.000914 4.000457 2.000229-4.000457-2.000229-4.000457zm0 0" fill="none" stroke="#000" stroke-miterlimit="10" stroke-width="2" transform="scale(.720621)"/></g><g><use x="152.77161" xlink:href="#S" y="72.06208"/><use x="155.174149" xlink:href="#T" y="72.06208"/><use x="157.576687" xlink:href="#U" y="72.06208"/><use x="163.821598" xlink:href="#V" y="72.06208"/><use x="169.103805" xlink:href="#W" y="72.06208"/><use x="175.830068" xlink:href="#X" y="72.06208"/><use x="178.232607" xlink:href="#L" y="72.06208"/><use x="180.635145" xlink:href="#J" y="72.06208"/><use x="186.880056" xlink:href="#K" y="72.06208"/><use x="192.647838" xlink:href="#L" y="72.06208"/><use x="195.050376" xlink:href="#Y" y="72.06208"/><use x="199.374101" xlink:href="#Z" y="72.06208"/><use x="204.1834" xlink:href="#aa" y="72.06208"/><use x="208.9927" xlink:href="#aa" y="72.06208"/><use x="213.801999" xlink:href="#Q" y="72.06208"/><use x="218.611298" xlink:href="#Y" y="72.06208"/><use x="222.935023" xlink:href="#R" y="72.06208"/><use x="225.337562" xlink:href="#ab" y="72.06208"/><use x="227.258748" xlink:href="#Z" y="72.06208"/><use x="232.068047" xlink:href="#aa" y="72.06208"/><use x="236.877347" xlink:href="#L" y="72.06208"/><use x="239.279885" xlink:href="#R" y="72.06208"/><use x="241.682424" xlink:href="#ac" y="72.06208"/><use x="246.006148" xlink:href="#ad" y="72.06208"/><use x="250.815448" xlink:href="#Q" y="72.06208"/><use x="255.624747" xlink:href="#ae" y="72.06208"/><use x="258.027286" xlink:href="#L" y="72.06208"/><use x="260.429824" xlink:href="#af" y="72.06208"/></g><g><use x="264.597321" xlink:href="#M" y="72.06208"/><use x="269.879528" xlink:href="#K" y="72.06208"/></g><g fill="#f33"><use x="152.77161" xlink:href="#S" y="82.871392"/><use x="155.174149" xlink:href="#ag" y="82.871392"/><use x="157.576687" xlink:href="#ag" y="82.871392"/><use x="159.979225" xlink:href="#ag" y="82.871392"/><use x="162.381764" xlink:href="#X" y="82.871392"/><use x="164.784302" xlink:href="#L" y="82.871392"/><use x="167.186841" xlink:href="#ah" y="82.871392"/><use x="173.431752" xlink:href="#Z" y="82.871392"/><use x="178.241051" xlink:href="#ai" y="82.871392"/><use x="184.485963" xlink:href="#aa" y="82.871392"/><use x="189.295262" xlink:href="#P" y="82.871392"/><use x="194.104561" xlink:href="#O" y="82.871392"/><use x="196.984229" xlink:href="#N" y="82.871392"/><use x="201.793529" xlink:href="#aj" y="82.871392"/><use x="206.602828" xlink:href="#Q" y="82.871392"/><use x="211.412128" xlink:href="#L" y="82.871392"/><use x="213.814666" xlink:href="#R" y="82.871392"/><use x="216.217204" xlink:href="#Z" y="82.871392"/><use x="221.026504" xlink:href="#L" y="82.871392"/><use x="223.429042" xlink:href="#ak" y="82.871392"/><use x="228.238342" xlink:href="#al" y="82.871392"/><use x="234.964605" xlink:href="#L" y="82.871392"/><use x="237.367143" xlink:href="#aa" y="82.871392"/><use x="242.176443" xlink:href="#Q" y="82.871392"/><use x="246.985742" xlink:href="#R" y="82.871392"/><use x="249.388281" xlink:href="#ai" y="82.871392"/><use x="255.633192" xlink:href="#Z" y="82.871392"/><use x="260.442491" xlink:href="#O" y="82.871392"/><use x="263.322159" xlink:href="#am" y="82.871392"/><use x="267.645884" xlink:href="#L" y="82.871392"/><use x="270.048423" xlink:href="#aj" y="82.871392"/><use x="274.857722" xlink:href="#Q" y="82.871392"/><use x="279.667021" xlink:href="#R" y="82.871392"/><use x="282.06956" xlink:href="#Q" y="82.871392"/><use x="286.878859" xlink:href="#Y" y="82.871392"/><use x="291.202584" xlink:href="#R" y="82.871392"/><use x="293.605122" xlink:href="#Q" y="82.871392"/><use x="298.414422" xlink:href="#aj" y="82.871392"/><use x="303.223721" xlink:href="#ag" y="82.871392"/><use x="305.62626" xlink:href="#ag" y="82.871392"/><use x="308.028798" xlink:href="#ag" y="82.871392"/></g></svg>