<svg height="181.92pt" viewBox="0 0 287.04001 181.92" width="287.04001pt" xmlns="http://www.w3.org/2000/svg" xmlns:xlink="http://www.w3.org/1999/xlink"><clipPath id="a"><path d="m0 0h287v181.921875h-287zm0 0"/></clipPath><clipPath id="b"><path d="m114 1h42v179.542969h-42zm0 0"/></clipPath><clipPath id="c"><path d="m244 130h43v48h-43zm0 0"/></clipPath><symbol id="d" overflow="visible"><path d="m4.71875-6.171875h.8125v3.5625c0 .625-.074219 1.121094-.21875 1.484375-.136719.367188-.386719.664062-.75.890625-.367188.23046875-.84375.34375-1.4375.34375-.585938 0-1.058594-.1015625-1.421875-.296875-.367187-.207031-.632813-.5-.796875-.875-.15625-.375-.234375-.890625-.234375-1.546875v-3.5625h.828125v3.5625c0 .53125.046875.929687.140625 1.1875.101563.25.273437.449219.515625.59375.238281.136719.535156.203125.890625.203125.601563 0 1.03125-.132812 1.28125-.40625.257813-.28125.390625-.804688.390625-1.578125zm0 0"/></symbol><symbol id="e" overflow="visible"><path d="m.6875 0v-6.171875h4.453125v.71875h-3.640625v1.90625h3.421875v.71875h-3.421875v2.09375h3.796875v.734375zm0 0"/></symbol><symbol id="f" overflow="visible"/><symbol id="g" overflow="visible"><path d="m2.234375 0v-5.453125h-2.03125v-.71875h4.890625v.71875h-2.046875v5.453125zm0 0"/></symbol><symbol id="h" overflow="visible"><path d="m3.484375-.546875c-.28125.242187-.554687.40625-.8125.5-.261719.09375-.539063.140625-.828125.140625-.492188 0-.871094-.1171875-1.140625-.359375-.261719-.238281-.390625-.539063-.390625-.90625 0-.21875.046875-.414063.140625-.59375.101563-.1875.234375-.332031.390625-.4375.164062-.113281.347656-.203125.546875-.265625.15625-.03125.382813-.066406.6875-.109375.601563-.070313 1.050781-.160156 1.34375-.265625 0-.101562 0-.164062 0-.1875 0-.3125-.070313-.53125-.203125-.65625-.199219-.175781-.492188-.265625-.875-.265625-.355469 0-.617188.0625-.78125.1875-.167969.125-.292969.351563-.375.671875l-.75-.109375c.070312-.3125.179688-.5625.328125-.75.15625-.195313.378906-.347656.671875-.453125.289062-.113281.628906-.171875 1.015625-.171875.382813 0 .695313.046875.9375.140625.238281.09375.410156.210938.515625.34375.113281.136719.195312.308594.25.515625.019531.125.03125.355469.03125.6875v1.015625c0 .710938.015625 1.15625.046875 1.34375s.097656.367188.203125.53125h-.796875c-.085937-.15625-.136719-.335938-.15625-.546875zm-.0625-1.703125c-.273437.117188-.683594.214844-1.234375.296875-.3125.042969-.539062.09375-.671875.15625-.125.054687-.226563.136719-.296875.25-.0625.105469-.09375.21875-.09375.34375 0 .210937.070312.382813.21875.515625.15625.125.378906.1875.671875.1875.289063 0 .550781-.0625.78125-.1875.226563-.125.394531-.296875.5-.515625.082031-.175781.125-.429687.125-.765625zm0 0"/></symbol><symbol id="i" overflow="visible"><path d="m.5625 0v-4.46875h.6875v.671875c.164062-.3125.320312-.519531.46875-.625.15625-.101563.320312-.15625.5-.15625.25 0 .503906.085937.765625.25l-.25.703125c-.1875-.113281-.375-.171875-.5625-.171875-.167969 0-.320313.054687-.453125.15625-.125.105469-.21875.246094-.28125.421875-.085938.261719-.125.554688-.125.875v2.34375zm0 0"/></symbol><symbol id="j" overflow="visible"><path d="m.421875.375.75.109375c.03125.226563.113281.394531.25.5.1875.132813.441406.203125.765625.203125.351562 0 .625-.074219.8125-.21875.195312-.136719.328125-.328125.390625-.578125.039063-.15625.0625-.4765625.0625-.96875-.335937.386719-.746094.578125-1.234375.578125-.625 0-1.105469-.21875-1.4375-.65625-.335938-.445312-.5-.984375-.5-1.609375 0-.425781.070312-.816406.21875-1.171875.15625-.363281.378906-.644531.671875-.84375.300781-.195312.648437-.296875 1.046875-.296875.519531 0 .953125.214844 1.296875.640625v-.53125h.703125v3.859375c0 .6953125-.074219 1.191406-.21875 1.484375-.136719.289062-.359375.519531-.671875.6875-.304687.164062-.679687.25-1.125.25-.542969 0-.980469-.121094-1.3125-.359375-.324219-.242187-.480469-.601563-.46875-1.078125zm.640625-2.6875c0 .585938.113281 1.011719.34375 1.28125.226562.273438.519531.40625.875.40625.351562 0 .644531-.132812.875-.40625.238281-.269531.359375-.691406.359375-1.265625 0-.539063-.125-.953125-.375-1.234375-.242187-.28125-.53125-.421875-.875-.421875-.335937 0-.621094.140625-.859375.421875-.230469.273438-.34375.679688-.34375 1.21875zm0 0"/></symbol><symbol id="k" overflow="visible"><path d="m3.625-1.4375.78125.09375c-.117188.460938-.34375.8125-.6875 1.0625-.335938.25-.757812.375-1.265625.375-.65625 0-1.179687-.195312-1.5625-.59375-.386719-.40625-.578125-.972656-.578125-1.703125 0-.75.191406-1.332031.578125-1.75.394531-.414063.898437-.625 1.515625-.625.59375 0 1.078125.203125 1.453125.609375.382813.40625.578125.980469.578125 1.71875v.203125h-3.34375c.03125.492187.171875.871094.421875 1.140625.25.261719.5625.390625.9375.390625.28125 0 .515625-.070313.703125-.21875.195312-.144531.351562-.378906.46875-.703125zm-2.484375-1.234375h2.5c-.03125-.375-.125-.65625-.28125-.84375-.25-.289063-.570313-.4375-.953125-.4375-.34375 0-.636719.121094-.875.359375-.242188.230469-.371094.539062-.390625.921875zm0 0"/></symbol><symbol id="l" overflow="visible"><path d="m2.21875-.671875.109375.65625c-.210937.0507812-.398437.078125-.5625.078125-.28125 0-.5-.0429688-.65625-.125-.148437-.09375-.25-.207031-.3125-.34375-.0625-.144531-.09375-.445312-.09375-.90625v-2.578125h-.546875v-.578125h.546875v-1.109375l.765625-.453125v1.5625h.75v.578125h-.75v2.625c0 .21875.007812.359375.03125.421875.03125.054688.070312.101562.125.140625.0625.03125.148438.046875.265625.046875.082031 0 .191406-.003906.328125-.015625zm0 0"/></symbol><symbol id="m" overflow="visible"><path d="m.75 0v-7.203125h1.4375l1.703125 5.09375c.15625.480469.269531.839844.34375 1.078125.082031-.269531.207031-.65625.375-1.15625l1.734375-5.015625h1.28125v7.203125h-.921875v-6.03125l-2.09375 6.03125h-.859375l-2.078125-6.125v6.125zm0 0"/></symbol><symbol id="n" overflow="visible"><path d="m4.0625-.640625c-.324219.28125-.636719.480469-.9375.59375-.304688.1132812-.632812.171875-.984375.171875-.574219 0-1.015625-.140625-1.328125-.421875-.304688-.28125-.453125-.640625-.453125-1.078125 0-.257812.054687-.492188.171875-.703125.125-.207031.28125-.375.46875-.5.1875-.132813.394531-.234375.625-.296875.175781-.039062.441406-.082031.796875-.125.707031-.09375 1.234375-.195312 1.578125-.3125 0-.125 0-.203125 0-.234375 0-.351563-.085938-.601563-.25-.75-.230469-.207031-.570312-.3125-1.015625-.3125-.40625 0-.714844.074219-.921875.21875-.199219.148437-.34375.40625-.4375.78125l-.859375-.125c.082031-.363281.210937-.660156.390625-.890625.175781-.226562.4375-.398438.78125-.515625.34375-.125.738281-.1875 1.1875-.1875.4375 0 .796875.054687 1.078125.15625.28125.105469.484375.234375.609375.390625.132812.15625.226562.355469.28125.59375.03125.15625.046875.433594.046875.828125v1.171875c0 .824219.015625 1.34375.046875 1.5625.039062.21875.117188.429688.234375.625h-.921875c-.09375-.1875-.15625-.398438-.1875-.640625zm-.0625-1.984375c-.324219.136719-.808594.25-1.453125.34375-.367187.054688-.625.109375-.78125.171875-.148437.0625-.261719.164063-.34375.296875-.074219.125-.109375.261719-.109375.40625 0 .242188.085938.4375.265625.59375.175781.15625.4375.234375.78125.234375s.644531-.070313.90625-.21875c.269531-.144531.46875-.347656.59375-.609375.09375-.195312.140625-.492188.140625-.890625zm0 0"/></symbol><symbol id="o" overflow="visible"><path d="m.640625 0v-7.203125h.890625v7.203125zm0 0"/></symbol><symbol id="p" overflow="visible"><path d="m.671875-6.1875v-1.015625h.875v1.015625zm0 6.1875v-5.21875h.875v5.21875zm0 0"/></symbol><symbol id="q" overflow="visible"><path d="m4.0625-1.90625.875.109375c-.09375.59375-.339844 1.0625-.734375 1.40625-.386719.34375-.867187.515625-1.4375.515625-.71875 0-1.296875-.234375-1.734375-.703125-.429688-.46875-.640625-1.140625-.640625-2.015625 0-.5625.09375-1.050781.28125-1.46875.1875-.425781.46875-.742188.84375-.953125.382813-.207031.800781-.3125 1.25-.3125.570313 0 1.035156.148437 1.390625.4375.363281.28125.597656.683594.703125 1.203125l-.859375.140625c-.085938-.351563-.230469-.617187-.4375-.796875-.210938-.175781-.460938-.265625-.75-.265625-.449219 0-.8125.164063-1.09375.484375-.28125.3125-.421875.820312-.421875 1.515625 0 .699219.132813 1.210937.40625 1.53125.269531.3125.617187.46875 1.046875.46875.351562 0 .644531-.101563.875-.3125.226562-.21875.375-.546875.4375-.984375zm0 0"/></symbol><symbol id="r" overflow="visible"><path d="m.328125-2.609375c0-.96875.269531-1.679687.8125-2.140625.445313-.382812.992187-.578125 1.640625-.578125.71875 0 1.300781.234375 1.75.703125.457031.46875.6875 1.117188.6875 1.9375 0 .679688-.101562 1.210938-.296875 1.59375-.199219.386719-.492187.6875-.875.90625-.386719.2070312-.808594.3125-1.265625.3125-.730469 0-1.324219-.234375-1.78125-.703125-.449219-.46875-.671875-1.144531-.671875-2.03125zm.921875 0c0 .667969.144531 1.167969.4375 1.5.289062.335937.65625.5 1.09375.5s.800781-.164063 1.09375-.5c.289062-.332031.4375-.84375.4375-1.53125 0-.644531-.148438-1.132813-.4375-1.46875-.292969-.332031-.65625-.5-1.09375-.5s-.804688.167969-1.09375.5c-.292969.335937-.4375.835937-.4375 1.5zm0 0"/></symbol><symbol id="s" overflow="visible"><path d="m4.078125 0v-.765625c-.40625.59375-.960937.890625-1.65625.890625-.304687 0-.589844-.0585938-.859375-.171875-.261719-.125-.460938-.273437-.59375-.453125-.125-.175781-.214844-.394531-.265625-.65625-.042969-.175781-.0625-.453125-.0625-.828125v-3.234375h.890625v2.890625c0 .46875.015625.78125.046875.9375.0625.230469.179687.414063.359375.546875.175781.136719.398438.203125.671875.203125.257813 0 .503906-.066406.734375-.203125.238281-.132812.40625-.316406.5-.546875.09375-.238281.140625-.582031.140625-1.03125v-2.796875h.890625v5.21875zm0 0"/></symbol><symbol id="t" overflow="visible"><path d="m.3125-1.5625.875-.125c.050781.34375.1875.609375.40625.796875.226562.1875.539062.28125.9375.28125.40625 0 .707031-.082031.90625-.25.195312-.164063.296875-.359375.296875-.578125 0-.195312-.089844-.351562-.265625-.46875-.117188-.082031-.417969-.1875-.90625-.3125-.648438-.15625-1.09375-.289062-1.34375-.40625-.25-.125-.445312-.289062-.578125-.5-.125-.21875-.1875-.453125-.1875-.703125 0-.238281.050781-.457031.15625-.65625.113281-.195313.257813-.359375.4375-.484375.144531-.101562.332031-.1875.5625-.25.238281-.070312.492187-.109375.765625-.109375.414062 0 .773438.058594 1.078125.171875.3125.117188.539063.277344.6875.484375.144531.199219.25.464844.3125.796875l-.875.125c-.042969-.269531-.15625-.476562-.34375-.625-.1875-.15625-.453125-.234375-.796875-.234375-.40625 0-.699219.070313-.875.203125-.167969.136719-.25.292969-.25.46875 0 .117188.035156.21875.109375.3125.070313.09375.1875.171875.34375.234375.082031.03125.34375.105469.78125.21875.625.179687 1.054687.320313 1.296875.421875.25.105469.441406.261719.578125.46875.144531.199219.21875.449219.21875.75 0 .292969-.089844.570312-.265625.828125-.167969.261719-.414062.464844-.734375.609375-.324219.1445312-.6875.21875-1.09375.21875-.6875 0-1.210937-.140625-1.5625-.421875-.355469-.289063-.578125-.710937-.671875-1.265625zm0 0"/></symbol><symbol id="u" overflow="visible"/><symbol id="v" overflow="visible"><path d="m.421875-1.890625.921875-.078125c.070312.460938.234375.804688.484375 1.03125.25.21875.550781.328125.90625.328125.425781 0 .785156-.15625 1.078125-.46875.289062-.320313.4375-.75.4375-1.28125 0-.507813-.140625-.910156-.421875-1.203125-.28125-.289062-.652344-.4375-1.109375-.4375-.28125 0-.539062.070312-.765625.203125-.230469.125-.414063.292969-.546875.5l-.828125-.109375.6875-3.703125h3.59375v.84375h-2.875l-.390625 1.9375c.425781-.300781.878906-.453125 1.359375-.453125.625 0 1.148437.21875 1.578125.65625.4375.4375.65625 1 .65625 1.6875 0 .648438-.1875 1.210938-.5625 1.6875-.460938.585938-1.089844.875-1.890625.875-.65625 0-1.195313-.1796875-1.609375-.546875-.417969-.375-.652344-.863281-.703125-1.46875zm0 0"/></symbol><symbol id="w" overflow="visible"><path d="m4.140625-2.828125v-.84375h3.0625v2.671875c-.46875.375-.953125.65625-1.453125.84375s-1.011719.28125-1.53125.28125c-.710938 0-1.355469-.1484375-1.9375-.453125-.574219-.300781-1.011719-.738281-1.3125-1.3125-.292969-.570313-.4375-1.210937-.4375-1.921875 0-.707031.144531-1.363281.4375-1.96875.300781-.601562.722656-1.050781 1.265625-1.34375.550781-.300781 1.1875-.453125 1.90625-.453125.519531 0 .988281.089844 1.40625.265625.425781.167969.757813.402344 1 .703125.238281.292969.421875.683594.546875 1.171875l-.859375.234375c-.117187-.363281-.25-.648437-.40625-.859375-.15625-.207031-.386719-.375-.6875-.5-.304687-.132812-.636719-.203125-1-.203125-.429687 0-.804687.070313-1.125.203125-.3125.136719-.570313.3125-.765625.53125-.199219.210938-.351562.445312-.453125.703125-.1875.449219-.28125.933594-.28125 1.453125 0 .648438.109375 1.1875.328125 1.625.226562.429688.550781.746094.96875.953125.425781.210937.875.3125 1.34375.3125.414062 0 .816406-.078125 1.203125-.234375.394531-.164062.695313-.335938.90625-.515625v-1.34375zm0 0"/></symbol><symbol id="x" overflow="visible"><path d="m.5.4375.859375.125c.039063.257812.140625.453125.296875.578125.21875.164063.519531.25.90625.25.40625 0 .71875-.085937.9375-.25.226562-.167969.378906-.398437.453125-.6875.050781-.179687.078125-.554687.078125-1.140625-.398438.460938-.882812.6875-1.453125.6875-.71875 0-1.277344-.253906-1.671875-.765625-.386719-.519531-.578125-1.144531-.578125-1.875 0-.5.085937-.957031.265625-1.375.175781-.414063.4375-.738281.78125-.96875.34375-.226563.742188-.34375 1.203125-.34375.625 0 1.132813.246094 1.53125.734375v-.625h.8125v4.515625c0 .8125-.085937 1.382813-.25 1.71875-.167969.34375-.433594.613281-.796875.8125-.355469.195313-.792969.296875-1.3125.296875-.625 0-1.132812-.140625-1.515625-.421875-.375-.28125-.558594-.703125-.546875-1.265625zm.734375-3.140625c0 .6875.132813 1.1875.40625 1.5.269531.3125.609375.46875 1.015625.46875s.742188-.15625 1.015625-.46875c.28125-.3125.421875-.800781.421875-1.46875 0-.632813-.140625-1.113281-.421875-1.4375-.28125-.332031-.625-.5-1.03125-.5-.386719 0-.71875.164063-1 .484375-.273437.324219-.40625.796875-.40625 1.421875zm0 0"/></symbol><symbol id="y" overflow="visible"><path d="m.765625 0v-7.203125h.984375l3.78125 5.65625v-5.65625h.90625v7.203125h-.96875l-3.78125-5.65625v5.65625zm0 0"/></symbol><symbol id="z" overflow="visible"><path d="m.734375 0v-7.203125h2.703125c.550781 0 .992188.074219 1.328125.21875.332031.148437.59375.371094.78125.671875.1875.304688.28125.621094.28125.953125 0 .304687-.085937.59375-.25.875-.167969.273437-.421875.492187-.765625.65625.4375.125.769531.34375 1 .65625.238281.304687.359375.664063.359375 1.078125 0 .34375-.074219.664062-.21875.953125-.136719.28125-.308594.507813-.515625.671875-.210938.15625-.476562.277344-.796875.359375-.3125.0742188-.699219.109375-1.15625.109375zm.953125-4.171875h1.5625c.414062 0 .71875-.03125.90625-.09375.238281-.070313.421875-.191406.546875-.359375.125-.164062.1875-.375.1875-.625 0-.238281-.058594-.445312-.171875-.625-.117188-.1875-.28125-.3125-.5-.375-.210938-.070312-.574219-.109375-1.09375-.109375h-1.4375zm0 3.328125h1.796875c.3125 0 .523437-.015625.640625-.046875.226562-.03125.414062-.09375.5625-.1875.144531-.09375.265625-.226563.359375-.40625.09375-.175781.140625-.378906.140625-.609375 0-.257812-.070312-.488281-.203125-.6875-.136719-.195312-.328125-.335938-.578125-.421875-.242188-.082031-.589844-.125-1.046875-.125h-1.671875zm0 0"/></symbol><symbol id="A" overflow="visible"><path d="m3.25 0v-1.71875h-3.125v-.8125l3.296875-4.671875h.71875v4.671875h.96875v.8125h-.96875v1.71875zm0-2.53125v-3.25l-2.25 3.25zm0 0"/></symbol><symbol id="B" overflow="visible"><path d="m4.234375-1.6875.921875.125c-.148438.53125-.417969.949219-.8125 1.25-.386719.2929688-.882812.4375-1.484375.4375-.773437 0-1.382813-.234375-1.828125-.703125-.4375-.476563-.65625-1.140625-.65625-1.984375 0-.875.222656-1.550781.671875-2.03125.445313-.488281 1.035156-.734375 1.765625-.734375.695312 0 1.265625.242187 1.703125.71875.4375.46875.65625 1.132813.65625 1.984375v.234375h-3.890625c.03125.585937.191406 1.027344.484375 1.328125.289063.304688.65625.453125 1.09375.453125.320313 0 .597656-.082031.828125-.25.226562-.175781.410156-.453125.546875-.828125zm-2.90625-1.421875h2.921875c-.042969-.4375-.15625-.765625-.34375-.984375-.28125-.34375-.648438-.515625-1.09375-.515625-.40625 0-.75.136719-1.03125.40625-.273438.273437-.421875.636719-.453125 1.09375zm0 0"/></symbol><symbol id="C" overflow="visible"><path d="m.796875 0v-7.203125h3.1875c.644531 0 1.132813.070313 1.46875.203125.332031.125.597656.355469.796875.6875.195312.324219.296875.683594.296875 1.078125 0 .511719-.167969.945313-.5 1.296875-.324219.34375-.835937.5625-1.53125.65625.257813.125.453125.246094.578125.359375.28125.261719.546875.585937.796875.96875l1.25 1.953125h-1.203125l-.953125-1.5c-.28125-.425781-.511719-.753906-.6875-.984375-.179687-.226563-.339844-.390625-.484375-.484375-.148438-.09375-.292969-.160156-.4375-.203125-.105469-.019531-.28125-.03125-.53125-.03125h-1.09375v3.203125zm.953125-4.03125h2.046875c.4375 0 .773437-.039062 1.015625-.125.25-.09375.4375-.238281.5625-.4375.125-.195312.1875-.410156.1875-.640625 0-.34375-.125-.625-.375-.84375-.242188-.21875-.625-.328125-1.15625-.328125h-2.28125zm0 0"/></symbol><symbol id="D" overflow="visible"><path d="m2.59375-.796875.125.78125c-.25.0507812-.476562.078125-.671875.078125-.3125 0-.558594-.046875-.734375-.140625-.179688-.101563-.304688-.238281-.375-.40625-.074219-.164063-.109375-.515625-.109375-1.046875v-3h-.65625v-.6875h.65625v-1.296875l.875-.53125v1.828125h.890625v.6875h-.890625v3.046875c0 .261719.015625.429687.046875.5.03125.0625.082031.121094.15625.171875.070312.042969.171875.0625.296875.0625.101563 0 .234375-.015625.390625-.046875zm0 0"/></symbol><symbol id="E" overflow="visible"><path d="m.65625 0v-5.21875h.796875v.796875c.195313-.375.378906-.617187.546875-.734375.175781-.113281.367188-.171875.578125-.171875.300781 0 .601563.09375.90625.28125l-.296875.8125c-.21875-.125-.4375-.1875-.65625-.1875-.1875 0-.359375.058594-.515625.171875-.15625.117188-.265625.277344-.328125.484375-.105469.3125-.15625.65625-.15625 1.03125v2.734375zm0 0"/></symbol><symbol id="F" overflow="visible"><path d="m.65625 0v-5.21875h.796875v.75c.382813-.570312.941406-.859375 1.671875-.859375.3125 0 .597656.058594.859375.171875.257813.105469.457031.25.59375.4375.132813.179688.226563.398438.28125.65625.03125.15625.046875.445312.046875.859375v3.203125h-.890625v-3.171875c0-.363281-.039063-.632813-.109375-.8125-.0625-.175781-.183594-.316406-.359375-.421875-.179687-.101562-.382813-.15625-.609375-.15625-.375 0-.703125.121094-.984375.359375-.273437.230469-.40625.683594-.40625 1.359375v2.84375zm0 0"/></symbol><symbol id="G" overflow="visible"><path d="m3.984375 2v-2.5625c-.136719.199219-.328125.367188-.578125.5-.242188.125-.5.1875-.78125.1875-.625 0-1.164062-.242188-1.609375-.734375-.4375-.5-.65625-1.179687-.65625-2.046875 0-.519531.085937-.988281.265625-1.40625.1875-.414062.453125-.726562.796875-.9375.34375-.21875.722656-.328125 1.140625-.328125.632812 0 1.140625.273437 1.515625.8125v-.703125h.796875v7.21875zm-2.71875-4.625c0 .679688.140625 1.183594.421875 1.515625.28125.335937.617188.5 1.015625.5.375 0 .695313-.15625.96875-.46875.269531-.320313.40625-.8125.40625-1.46875 0-.695313-.148437-1.21875-.4375-1.5625-.28125-.351563-.617187-.53125-1-.53125-.386719 0-.714844.167969-.984375.5-.261719.324219-.390625.828125-.390625 1.515625zm0 0"/></symbol><symbol id="H" overflow="visible"><path d="m-.015625 0 2.765625-7.203125h1.03125l2.9375 7.203125h-1.078125l-.84375-2.1875h-3.015625l-.78125 2.1875zm2.078125-2.953125h2.4375l-.75-2c-.230469-.601563-.398438-1.101563-.5-1.5-.09375.46875-.226562.929687-.390625 1.375zm0 0"/></symbol><symbol id="I" overflow="visible"><path d="m5.921875-2.53125.953125.25c-.210938.78125-.574219 1.382812-1.09375 1.796875-.511719.40625-1.140625.609375-1.890625.609375-.78125 0-1.417969-.15625-1.90625-.46875-.480469-.320312-.851563-.78125-1.109375-1.375-.25-.601562-.375-1.25-.375-1.9375 0-.75.140625-1.398438.421875-1.953125.289063-.5625.703125-.988281 1.234375-1.28125.53125-.289063 1.113281-.4375 1.75-.4375.71875 0 1.320312.1875 1.8125.5625.488281.367187.832031.875 1.03125 1.53125l-.9375.234375c-.167969-.53125-.414062-.914062-.734375-1.15625-.3125-.238281-.714844-.359375-1.203125-.359375-.554688 0-1.015625.136719-1.390625.40625-.367187.261719-.625.617187-.78125 1.0625-.148437.449219-.21875.914063-.21875 1.390625 0 .617188.085937 1.152344.265625 1.609375.175781.449219.453125.789063.828125 1.015625.382813.230469.796875.34375 1.234375.34375.53125 0 .976562-.148438 1.34375-.453125.375-.3125.628906-.773437.765625-1.390625zm0 0"/></symbol><symbol id="J" overflow="visible"><path d="m.734375 0v-7.203125h.953125v3.578125l3.578125-3.578125h1.296875l-3.03125 2.921875 3.15625 4.28125h-1.25l-2.5625-3.640625-1.1875 1.140625v2.5zm0 0"/></symbol><symbol id="K" overflow="visible"><path d="m-.15625 2v-.640625h5.859375v.640625zm0 0"/></symbol><symbol id="L" overflow="visible"><path d="m.453125-2.3125.890625-.078125c.050781.355469.148438.652344.296875.890625.15625.230469.394531.417969.71875.5625.332031.136719.707031.203125 1.125.203125.363281 0 .679687-.050781.953125-.15625.28125-.113281.488281-.265625.625-.453125.132812-.1875.203125-.390625.203125-.609375 0-.226563-.070313-.425781-.203125-.59375-.125-.164063-.339844-.304687-.640625-.421875-.199219-.070312-.632813-.1875-1.296875-.34375-.65625-.164062-1.117188-.320312-1.375-.46875-.34375-.175781-.601562-.394531-.765625-.65625-.167969-.269531-.25-.570312-.25-.90625 0-.363281.097656-.703125.296875-1.015625.207031-.3125.507812-.550781.90625-.71875.394531-.164063.835938-.25 1.328125-.25.53125 0 1 .089844 1.40625.265625.40625.167969.71875.417969.9375.75.21875.335938.335937.714844.359375 1.140625l-.90625.0625c-.054688-.445313-.226562-.785156-.515625-1.015625-.28125-.238281-.699219-.359375-1.25-.359375-.574219 0-.996094.105469-1.265625.3125-.261719.210937-.390625.464844-.390625.765625 0 .261719.09375.476562.28125.640625.1875.167969.664063.339844 1.4375.515625.78125.179688 1.3125.328125 1.59375.453125.425781.199219.738281.449219.9375.75.195313.292969.296875.632813.296875 1.015625 0 .386719-.109375.75-.328125 1.09375-.21875.335938-.539063.59375-.953125.78125-.40625.1875-.871094.28125-1.390625.28125-.648437 0-1.195313-.09375-1.640625-.28125-.4375-.195312-.78125-.484375-1.03125-.859375-.25-.382813-.382812-.816406-.390625-1.296875zm0 0"/></symbol><symbol id="M" overflow="visible"><path d="m5.3125-4.234375h-4.75v-.828125h4.75zm0 2.1875h-4.75v-.828125h4.75zm0 0"/></symbol><symbol id="N" overflow="visible"><path d="m3.75 0h-.890625v-5.640625c-.210937.210937-.484375.417969-.828125.625-.34375.199219-.65625.351563-.9375.453125v-.859375c.5-.226563.929688-.507813 1.296875-.84375.375-.332031.632813-.65625.78125-.96875h.578125zm0 0"/></symbol><symbol id="O" overflow="visible"><path d="m.78125 0v-7.203125h2.46875c.5625 0 .992188.039063 1.296875.109375.40625.09375.753906.265625 1.046875.515625.382812.3125.671875.71875.859375 1.21875s.28125 1.074219.28125 1.71875c0 .554687-.070313 1.042969-.203125 1.46875-.125.417969-.289062.765625-.484375 1.046875-.199219.273438-.417969.484375-.65625.640625-.242187.15625-.527344.277344-.859375.359375-.335938.0859375-.71875.125-1.15625.125zm.953125-.84375h1.53125c.476563 0 .851563-.039062 1.125-.125.269531-.09375.484375-.222656.640625-.390625.226562-.21875.40625-.519531.53125-.90625.125-.382813.1875-.847656.1875-1.390625 0-.75-.125-1.328125-.375-1.734375s-.554688-.675781-.90625-.8125c-.25-.101563-.65625-.15625-1.21875-.15625h-1.515625zm0 0"/></symbol><symbol id="P" overflow="visible"><path d="m.65625 2v-7.21875h.8125v.671875c.1875-.257813.398438-.453125.640625-.578125.238281-.132812.53125-.203125.875-.203125.445313 0 .835937.117187 1.171875.34375.34375.230469.597656.554687.765625.96875.175781.417969.265625.875.265625 1.375 0 .53125-.09375 1.011719-.28125 1.4375-.1875.429687-.46875.757813-.84375.984375-.367188.2265625-.746094.34375-1.140625.34375-.304687 0-.570313-.0625-.796875-.1875-.230469-.125-.421875-.285156-.578125-.484375v2.546875zm.8125-4.578125c0 .667969.132812 1.164063.40625 1.484375.269531.324219.597656.484375.984375.484375.394531 0 .734375-.164063 1.015625-.5.28125-.332031.421875-.847656.421875-1.546875 0-.664062-.140625-1.160156-.421875-1.484375-.273438-.332031-.59375-.5-.96875-.5-.386719 0-.726562.179687-1.015625.53125-.28125.34375-.421875.855469-.421875 1.53125zm0 0"/></symbol><symbol id="Q" overflow="visible"><path d="m.65625 0v-7.203125h.890625v2.578125c.414063-.46875.9375-.703125 1.5625-.703125.382813 0 .71875.078125 1 .234375.289063.148438.492187.355469.609375.625.125.261719.1875.648438.1875 1.15625v3.3125h-.875v-3.3125c0-.4375-.101562-.753906-.296875-.953125-.1875-.207031-.460937-.3125-.8125-.3125-.261719 0-.507813.070313-.734375.203125-.230469.136719-.398438.324219-.5.5625-.09375.230469-.140625.546875-.140625.953125v2.859375zm0 0"/></symbol><symbol id="R" overflow="visible"><path d="m1.484375 0h-.828125v-7.203125h.890625v2.5625c.375-.457031.847656-.6875 1.421875-.6875.320312 0 .625.0625.90625.1875.289062.125.53125.308594.71875.546875.1875.230469.332031.511719.4375.84375.101562.335938.15625.6875.15625 1.0625 0 .898438-.226562 1.589844-.671875 2.078125-.4375.492187-.96875.734375-1.59375.734375-.617187 0-1.09375-.257812-1.4375-.78125zm-.015625-2.640625c0 .625.082031 1.074219.25 1.34375.28125.460937.660156.6875 1.140625.6875.382813 0 .71875-.164063 1-.5.28125-.332031.421875-.832031.421875-1.5 0-.6875-.136719-1.191406-.40625-1.515625-.273438-.320312-.601562-.484375-.984375-.484375-.386719 0-.71875.171875-1 .515625-.28125.335938-.421875.820312-.421875 1.453125zm0 0"/></symbol><symbol id="S" overflow="visible"><path d="m2.109375 0-1.984375-5.21875h.9375l1.125 3.125c.113281.335938.222656.683594.328125 1.046875.082031-.269531.191406-.597656.328125-.984375l1.15625-3.1875h.90625l-1.96875 5.21875zm0 0"/></symbol><symbol id="T" overflow="visible"><path d="m.875 0v-4.53125h-.78125v-.6875h.78125v-.546875c0-.351563.03125-.613281.09375-.78125.082031-.226563.226562-.414063.4375-.5625.21875-.144531.519531-.21875.90625-.21875.25 0 .523438.03125.828125.09375l-.125.765625c-.1875-.03125-.367187-.046875-.53125-.046875-.261719 0-.449219.058594-.5625.171875-.117187.117188-.171875.328125-.171875.640625v.484375h1.015625v.6875h-1.015625v4.53125zm0 0"/></symbol><symbol id="U" overflow="visible"><path d="m.65625 0v-5.21875h.796875v.734375c.164063-.257813.382813-.460937.65625-.609375.269531-.15625.578125-.234375.921875-.234375.382812 0 .703125.078125.953125.234375s.425781.382812.53125.671875c.40625-.601563.941406-.90625 1.609375-.90625.507812 0 .90625.148437 1.1875.4375.28125.28125.421875.71875.421875 1.3125v3.578125h-.875v-3.28125c0-.351562-.03125-.609375-.09375-.765625-.054687-.15625-.15625-.28125-.3125-.375-.148437-.09375-.324219-.140625-.53125-.140625-.367187 0-.671875.121094-.921875.359375-.242188.242187-.359375.632813-.359375 1.171875v3.03125h-.875v-3.390625c0-.394531-.074219-.6875-.21875-.875-.148437-.195313-.382813-.296875-.703125-.296875-.25 0-.484375.070312-.703125.203125-.210937.125-.359375.3125-.453125.5625s-.140625.617187-.140625 1.09375v2.703125zm0 0"/></symbol><symbol id="V" overflow="visible"><path d="m.078125 0 1.90625-2.71875-1.765625-2.5h1.109375l.796875 1.21875c.144531.242188.265625.4375.359375.59375.144531-.21875.28125-.410156.40625-.578125l.875-1.234375h1.046875l-1.796875 2.453125 1.9375 2.765625h-1.078125l-1.078125-1.625-.28125-.4375-1.375 2.0625zm0 0"/></symbol><symbol id="W" overflow="visible"><path d="m.625 2.015625-.09375-.84375c.1875.0625.351562.09375.5.09375.195312 0 .351562-.039063.46875-.109375.125-.0625.222656-.152344.296875-.265625.050781-.09375.140625-.320313.265625-.671875.019531-.042969.046875-.109375.078125-.203125l-1.984375-5.234375h.953125l1.09375 3.015625c.132813.386719.257813.792969.375 1.21875.101563-.40625.222656-.800781.359375-1.1875l1.125-3.046875h.875l-1.984375 5.3125c-.210937.570312-.371094.960938-.484375 1.171875-.167969.289063-.355469.503906-.5625.640625-.199219.144531-.4375.21875-.71875.21875-.167969 0-.355469-.039062-.5625-.109375zm0 0"/></symbol><symbol id="X" overflow="visible"><path d="m.71875-7.203125h1.453125v3.90625c0 .617187.019531 1.015625.0625 1.203125.0625.292969.207031.527344.4375.703125.238281.179687.5625.265625.96875.265625s.710937-.082031.921875-.25c.21875-.164062.347656-.367188.390625-.609375.039063-.25.0625-.660156.0625-1.234375v-3.984375h1.453125v3.78125c0 .867187-.042969 1.480469-.125 1.84375-.074219.355469-.21875.65625-.4375.90625-.210938.242187-.492188.433594-.84375.578125-.355469.1445312-.8125.21875-1.375.21875-.699219 0-1.226562-.078125-1.578125-.234375-.355469-.164063-.636719-.375-.84375-.625-.199219-.25-.335937-.515625-.40625-.796875-.09375-.414062-.140625-1.023438-.140625-1.828125zm0 0"/></symbol><symbol id="Y" overflow="visible"><path d="m.734375 0v-7.203125h5.34375v1.21875h-3.890625v1.59375h3.609375v1.21875h-3.609375v1.953125h4.015625v1.21875zm0 0"/></symbol><symbol id="Z" overflow="visible"/><symbol id="aa" overflow="visible"><path d="m.734375-7.203125h2.65625c.59375 0 1.046875.046875 1.359375.140625.425781.125.789062.351562 1.09375.671875.300781.3125.53125.699219.6875 1.15625.15625.460937.234375 1.027344.234375 1.703125 0 .59375-.074219 1.105469-.21875 1.53125-.179687.523438-.4375.945312-.78125 1.265625-.25.25-.589844.445313-1.015625.578125-.324219.1054688-.75.15625-1.28125.15625h-2.734375zm1.453125 1.21875v4.765625h1.078125c.40625 0 .695313-.019531.875-.0625.238281-.0625.4375-.160156.59375-.296875.15625-.144531.28125-.378906.375-.703125.101563-.320312.15625-.757812.15625-1.3125 0-.5625-.054687-.988281-.15625-1.28125-.09375-.300781-.230469-.535156-.40625-.703125-.179687-.164063-.402344-.28125-.671875-.34375-.210938-.039063-.609375-.0625-1.203125-.0625zm0 0"/></symbol><symbol id="ab" overflow="visible"><path d="m.40625-2.6875c0-.457031.109375-.898438.328125-1.328125.226563-.425781.550781-.75.96875-.96875.414063-.226563.878906-.34375 1.390625-.34375.789062 0 1.4375.257813 1.9375.765625.5.511719.75 1.15625.75 1.9375 0 .792969-.257812 1.449219-.765625 1.96875-.5.523438-1.140625.78125-1.921875.78125-.46875 0-.921875-.109375-1.359375-.328125s-.773437-.535156-1-.953125c-.21875-.414062-.328125-.925781-.328125-1.53125zm1.40625.078125c0 .523437.125.921875.375 1.203125.25.273438.550781.40625.90625.40625.363281 0 .664062-.132812.90625-.40625.25-.28125.375-.6875.375-1.21875 0-.507812-.125-.898438-.375-1.171875-.242188-.269531-.542969-.40625-.90625-.40625-.355469 0-.65625.136719-.90625.40625-.25.273437-.375.667969-.375 1.1875zm0 0"/></symbol><symbol id="ac" overflow="visible"><path d="m1.6875 0-1.640625-5.21875h1.34375l.96875 3.421875.90625-3.421875h1.328125l.875 3.421875 1-3.421875h1.359375l-1.6875 5.21875h-1.328125l-.890625-3.359375-.890625 3.359375zm0 0"/></symbol><symbol id="ad" overflow="visible"><path d="m5.46875 0h-1.375v-2.65625c0-.570312-.03125-.9375-.09375-1.09375-.0625-.164062-.164062-.296875-.296875-.390625-.125-.09375-.28125-.140625-.46875-.140625-.242187 0-.460937.070312-.65625.203125-.1875.125-.320313.296875-.390625.515625-.0625.21875-.09375.621094-.09375 1.203125v2.359375h-1.375v-5.21875h1.28125v.765625c.445312-.582031 1.019531-.875 1.71875-.875.300781 0 .578125.058594.828125.171875.25.105469.4375.242188.5625.40625.132813.167969.226563.359375.28125.578125.050781.21875.078125.527344.078125.921875zm0 0"/></symbol><symbol id="ae" overflow="visible"><path d="m.59375.34375 1.578125.1875c.03125.1875.09375.3125.1875.375.125.101562.328125.15625.609375.15625.363281 0 .632812-.054688.8125-.15625.125-.074219.21875-.195312.28125-.359375.039062-.117187.0625-.324219.0625-.625v-.765625c-.417969.5625-.9375.84375-1.5625.84375-.699219 0-1.257812-.296875-1.671875-.890625-.324219-.46875-.484375-1.050781-.484375-1.75 0-.875.207031-1.539063.625-2 .425781-.457031.953125-.6875 1.578125-.6875.644531 0 1.175781.28125 1.59375.84375v-.734375h1.296875v4.6875c0 .6132812-.054688 1.070312-.15625 1.375-.09375.300781-.234375.539062-.421875.71875-.1875.175781-.433594.3125-.734375.40625-.304688.101562-.6875.15625-1.15625.15625-.886719 0-1.515625-.15625-1.890625-.46875-.367187-.304688-.546875-.683594-.546875-1.140625 0-.054687 0-.109375 0-.171875zm1.234375-3.0625c0 .554688.101563.960938.3125 1.21875.21875.261719.484375.390625.796875.390625.34375 0 .628906-.128906.859375-.390625.226563-.269531.34375-.664062.34375-1.1875 0-.539062-.109375-.941406-.328125-1.203125-.21875-.257813-.5-.390625-.84375-.390625-.335938 0-.609375.132812-.828125.390625-.210937.25-.3125.640625-.3125 1.171875zm0 0"/></symbol><symbol id="af" overflow="visible"><path d="m2.046875 0h-1.390625v-5.21875h1.296875v.75c.21875-.351562.410156-.582031.578125-.6875.175781-.113281.378906-.171875.609375-.171875.3125 0 .613281.085937.90625.25l-.4375 1.203125c-.230469-.144531-.445313-.21875-.640625-.21875-.199219 0-.367188.054688-.5.15625-.125.105469-.230469.296875-.3125.578125-.074219.28125-.109375.867187-.109375 1.75zm0 0"/></symbol><symbol id="ag" overflow="visible"><path d="m1.75-3.625-1.25-.234375c.144531-.5.390625-.867187.734375-1.109375.34375-.238281.851563-.359375 1.53125-.359375.613281 0 1.070313.074219 1.375.21875.300781.136719.507813.320313.625.546875.125.230469.1875.640625.1875 1.234375l-.015625 1.609375c0 .460938.019531.796875.0625 1.015625.050781.21875.132812.453125.25.703125h-1.359375c-.03125-.09375-.074219-.226562-.125-.40625-.03125-.082031-.054687-.132812-.0625-.15625-.230469.230469-.480469.402344-.75.515625-.273437.1132812-.558594.171875-.859375.171875-.542969 0-.96875-.1445312-1.28125-.4375-.304688-.289062-.453125-.660156-.453125-1.109375 0-.289063.066406-.550781.203125-.78125.144531-.238281.34375-.414063.59375-.53125.257812-.125.628906-.234375 1.109375-.328125.644531-.125 1.085937-.238281 1.328125-.34375v-.140625c0-.257813-.070312-.445313-.203125-.5625-.125-.113281-.371094-.171875-.734375-.171875-.242188 0-.433594.054688-.578125.15625-.136719.09375-.246094.261719-.328125.5zm1.84375 1.125c-.167969.054688-.445312.121094-.828125.203125-.386719.085937-.636719.167969-.75.25-.1875.125-.28125.289063-.28125.484375 0 .1875.070313.355469.21875.5.144531.136719.328125.203125.546875.203125.25 0 .488281-.078125.71875-.234375.164062-.125.273438-.28125.328125-.46875.03125-.113281.046875-.335938.046875-.671875zm0 0"/></symbol><symbol id="ah" overflow="visible"><path d="m5.515625 0h-1.296875v-.765625c-.210938.304687-.460938.527344-.75.671875-.292969.1445312-.585938.21875-.875.21875-.605469 0-1.121094-.238281-1.546875-.71875-.429687-.488281-.640625-1.164062-.640625-2.03125 0-.882812.207031-1.554688.625-2.015625.414062-.457031.941406-.6875 1.578125-.6875.582031 0 1.085937.242187 1.515625.71875v-2.59375h1.390625zm-3.6875-2.71875c0 .554688.070313.953125.21875 1.203125.226563.367187.539063.546875.9375.546875.320313 0 .59375-.132812.8125-.40625.21875-.269531.328125-.675781.328125-1.21875 0-.59375-.109375-1.019531-.328125-1.28125-.210937-.269531-.480469-.40625-.8125-.40625-.335937 0-.609375.132812-.828125.390625-.21875.261719-.328125.652344-.328125 1.171875zm0 0"/></symbol><symbol id="ai" overflow="visible"><path d="m3.75-1.65625 1.375.21875c-.179688.511719-.460938.902344-.84375 1.171875-.386719.26171875-.867188.390625-1.4375.390625-.90625 0-1.578125-.296875-2.015625-.890625-.34375-.476563-.515625-1.078125-.515625-1.796875 0-.863281.222656-1.539062.671875-2.03125.457031-.488281 1.035156-.734375 1.734375-.734375.769531 0 1.378906.257813 1.828125.765625.445313.511719.660156 1.292969.640625 2.34375h-3.453125c.007813.417969.117187.742188.328125.96875.21875.230469.484375.34375.796875.34375.21875 0 .398437-.054688.546875-.171875.144531-.125.257812-.316406.34375-.578125zm.078125-1.40625c-.011719-.394531-.117187-.695312-.3125-.90625-.199219-.207031-.4375-.3125-.71875-.3125-.304687 0-.554687.109375-.75.328125-.199219.21875-.292969.515625-.28125.890625zm0 0"/></symbol><symbol id="aj" overflow="visible"><path d="m.234375-1.484375 1.390625-.21875c.050781.273437.164062.480469.34375.625.1875.136719.441406.203125.765625.203125.351563 0 .625-.066406.8125-.203125.113281-.09375.171875-.210937.171875-.359375 0-.113281-.03125-.203125-.09375-.265625-.074219-.0625-.226562-.125-.453125-.1875-1.117187-.238281-1.824219-.460937-2.125-.671875-.417969-.28125-.625-.671875-.625-1.171875 0-.445313.175781-.820313.53125-1.125.363281-.3125.921875-.46875 1.671875-.46875.707031 0 1.234375.117187 1.578125.34375.351563.230469.597656.574219.734375 1.03125l-1.3125.234375c-.054688-.195312-.15625-.347656-.3125-.453125-.15625-.113281-.382812-.171875-.671875-.171875-.355469 0-.617187.054688-.78125.15625-.105469.074219-.15625.167969-.15625.28125 0 .09375.046875.179688.140625.25.125.09375.550781.226562 1.28125.390625.738281.167969 1.253906.371094 1.546875.609375.289063.242188.4375.585938.4375 1.03125 0 .480469-.203125.890625-.609375 1.234375-.398438.34375-.984375.515625-1.765625.515625-.710937 0-1.273437-.1445312-1.6875-.4375-.417969-.289062-.6875-.679688-.8125-1.171875zm0 0"/></symbol><symbol id="ak" overflow="visible"><path d="m3.109375-5.21875v1.09375h-.9375v2.109375c0 .429687.003906.679687.015625.75.019531.0625.0625.121094.125.171875.070312.042969.15625.0625.25.0625.125 0 .304688-.039062.546875-.125l.125 1.0625c-.324219.1445312-.6875.21875-1.09375.21875-.25 0-.476563-.0429688-.671875-.125-.199219-.0820312-.34375-.191406-.4375-.328125-.09375-.132813-.164062-.316406-.203125-.546875-.03125-.15625-.046875-.476562-.046875-.96875v-2.28125h-.625v-1.09375h.625v-1.03125l1.390625-.8125v1.84375zm0 0"/></symbol><symbol id="al" overflow="visible"><path d="m3.140625 0v-1.453125h-2.953125v-1.203125l3.125-4.578125h1.15625v4.578125h.890625v1.203125h-.890625v1.453125zm0-2.65625v-2.46875l-1.65625 2.46875zm0 0"/></symbol><symbol id="am" overflow="visible"><path d="m4.078125-2.640625v-1.21875h3.140625v2.859375c-.304688.304688-.746094.570312-1.328125.796875-.574219.21875-1.15625.328125-1.75.328125-.761719 0-1.421875-.15625-1.984375-.46875-.554688-.320312-.96875-.773438-1.25-1.359375-.28125-.59375-.421875-1.234375-.421875-1.921875 0-.75.15625-1.414062.46875-2 .3125-.582031.769531-1.03125 1.375-1.34375.46875-.238281 1.046875-.359375 1.734375-.359375.894531 0 1.59375.1875 2.09375.5625s.820312.898437.96875 1.5625l-1.4375.265625c-.105469-.351562-.296875-.628906-.578125-.828125-.28125-.207031-.632813-.3125-1.046875-.3125-.636719 0-1.140625.203125-1.515625.609375-.375.398438-.5625.992188-.5625 1.78125 0 .855469.1875 1.496094.5625 1.921875.382813.429687.882813.640625 1.5.640625.300781 0 .601563-.054688.90625-.171875.3125-.125.578125-.269531.796875-.4375v-.90625zm0 0"/></symbol><symbol id="an" overflow="visible"><path d="m.65625 0v-7.203125h1.390625v2.59375c.425781-.476563.929687-.71875 1.515625-.71875.632812 0 1.160156.230469 1.578125.6875.414063.460937.625 1.121094.625 1.984375 0 .886719-.214844 1.574219-.640625 2.0625-.429688.480469-.945312.71875-1.546875.71875-.304687 0-.601563-.0742188-.890625-.21875-.28125-.15625-.527344-.378906-.734375-.671875v.765625zm1.375-2.71875c0 .542969.085938.945312.265625 1.203125.226563.367187.546875.546875.953125.546875.300781 0 .554688-.128906.765625-.390625.21875-.257813.328125-.671875.328125-1.234375 0-.59375-.109375-1.019531-.328125-1.28125-.21875-.269531-.496094-.40625-.828125-.40625-.335938 0-.609375.132812-.828125.390625-.21875.25-.328125.640625-.328125 1.171875zm0 0"/></symbol><symbol id="ao" overflow="visible"><path d="m.71875-5.921875v-1.28125h1.390625v1.28125zm0 5.921875v-5.21875h1.390625v5.21875zm0 0"/></symbol><symbol id="ap" overflow="visible"><path d="m.484375 1.421875v-6.5625h1.390625v.515625h-.75v5.53125h.75v.515625zm0 0"/></symbol><symbol id="aq" overflow="visible"><path d="m.671875 0v-5.140625h.671875v5.140625zm0 0"/></symbol><symbol id="ar" overflow="visible"><path d="m.546875 0v-5.140625h.703125l2.703125 4.03125v-4.03125h.640625v5.140625h-.6875l-2.703125-4.046875v4.046875zm0 0"/></symbol><symbol id="as" overflow="visible"><path d="m.59375 0v-5.140625h3.46875v.609375h-2.796875v1.59375h2.421875v.59375h-2.421875v2.34375zm0 0"/></symbol><symbol id="at" overflow="visible"><path d="m.34375-2.5c0-.851562.226562-1.519531.6875-2 .457031-.488281 1.050781-.734375 1.78125-.734375.476562 0 .90625.117187 1.28125.34375.382812.21875.675781.53125.875.9375.195312.40625.296875.871094.296875 1.390625 0 .523438-.105469.992188-.3125 1.40625-.210937.40625-.507813.71875-.890625.9375-.386719.2109375-.804688.3125-1.25.3125-.492188 0-.929688-.1132812-1.3125-.34375-.375-.238281-.664062-.5625-.859375-.96875-.199219-.40625-.296875-.832031-.296875-1.28125zm.703125 0c0 .625.164063 1.117188.5 1.46875.332031.355469.75.53125 1.25.53125.519531 0 .941406-.175781 1.265625-.53125.332031-.363281.5-.875.5-1.53125 0-.425781-.074219-.796875-.21875-1.109375-.136719-.3125-.339844-.550781-.609375-.71875-.273437-.175781-.578125-.265625-.921875-.265625-.480469 0-.898438.167969-1.25.5-.34375.335938-.515625.886719-.515625 1.65625zm0 0"/></symbol><symbol id="au" overflow="visible"><path d="m1.53125 1.421875h-1.390625v-.515625h.765625v-5.53125h-.765625v-.515625h1.390625zm0 0"/></symbol><symbol id="av" overflow="visible"/><symbol id="aw" overflow="visible"><path d="m3.9375-5.140625h.671875v2.96875c0 .523437-.058594.933594-.171875 1.234375-.117188.304688-.328125.554688-.640625.75-.304687.1875-.703125.28125-1.203125.28125-.480469 0-.875-.0859375-1.1875-.25-.304688-.164062-.523438-.40625-.65625-.71875-.125-.320312-.1875-.753906-.1875-1.296875v-2.96875h.6875v2.96875c0 .449219.039062.777344.125.984375.082031.210938.222656.371094.421875.484375.207031.117187.457031.171875.75.171875.5 0 .851563-.109375 1.0625-.328125.21875-.226563.328125-.664063.328125-1.3125zm0 0"/></symbol><symbol id="ax" overflow="visible"><path d="m.5625 0v-5.140625h3.71875v.609375h-3.03125v1.5625h2.84375v.609375h-2.84375v1.75h3.15625v.609375zm0 0"/></symbol><symbol id="ay" overflow="visible"><path d="m2.90625-1.359375.625.078125c-.074219.429688-.25.761719-.53125 1-.273438.2421875-.617188.359375-1.03125.359375-.511719 0-.921875-.1640625-1.234375-.5-.304687-.332031-.453125-.804687-.453125-1.421875 0-.40625.066406-.757812.203125-1.0625.132813-.300781.335937-.523438.609375-.671875.269531-.15625.566406-.234375.890625-.234375.40625 0 .734375.105469.984375.3125.257812.199219.425781.492188.5.875l-.609375.09375c-.0625-.25-.171875-.4375-.328125-.5625-.148438-.132812-.324219-.203125-.53125-.203125-.3125 0-.570312.117187-.765625.34375-.199219.230469-.296875.59375-.296875 1.09375s.09375.867187.28125 1.09375c.1875.21875.4375.328125.75.328125.25 0 .457031-.070312.625-.21875.164062-.15625.269531-.390625.3125-.703125zm0 0"/></symbol><symbol id="az" overflow="visible"><path d="m.234375-1.859375c0-.695313.191406-1.207031.578125-1.53125.320312-.28125.710938-.421875 1.171875-.421875.507813 0 .925781.171875 1.25.515625.332031.335937.5.792969.5 1.375 0 .480469-.074219.859375-.21875 1.140625-.148437.273438-.359375.484375-.640625.640625-.273438.14453125-.570312.21875-.890625.21875-.523437 0-.945313-.1640625-1.265625-.5-.324219-.332031-.484375-.8125-.484375-1.4375zm.65625 0c0 .480469.101563.839844.3125 1.078125.207031.230469.46875.34375.78125.34375s.570313-.117188.78125-.359375c.207031-.238281.3125-.601563.3125-1.09375 0-.457031-.105469-.800781-.3125-1.03125-.210937-.238281-.46875-.359375-.78125-.359375s-.574219.121094-.78125.359375c-.210937.230469-.3125.585937-.3125 1.0625zm0 0"/></symbol><symbol id="aA" overflow="visible"><path d="m.46875 0v-3.734375h.578125v.53125c.269531-.40625.664063-.609375 1.1875-.609375.21875 0 .421875.042969.609375.125.1875.085938.328125.195312.421875.328125.09375.125.160156.277344.203125.453125.019531.117188.03125.320312.03125.609375v2.296875h-.625v-2.265625c0-.257813-.027344-.453125-.078125-.578125-.054687-.125-.140625-.222656-.265625-.296875-.125-.082031-.273438-.125-.4375-.125-.273438 0-.507812.089844-.703125.265625-.1875.167969-.28125.492188-.28125.96875v2.03125zm0 0"/></symbol><symbol id="aB" overflow="visible"><path d="m3.03125-1.203125.640625.078125c-.09375.386719-.28125.683594-.5625.890625-.28125.2109375-.640625.3125-1.078125.3125-.542969 0-.976562-.1640625-1.296875-.5-.3125-.332031-.46875-.800781-.46875-1.40625 0-.625.160156-1.109375.484375-1.453125.320312-.351562.738281-.53125 1.25-.53125.5 0 .90625.171875 1.21875.515625.320312.335937.484375.808594.484375 1.421875v.171875h-2.78125c.019531.40625.132813.71875.34375.9375.207031.21875.46875.328125.78125.328125.226563 0 .421875-.054688.578125-.171875.164062-.125.300781-.320313.40625-.59375zm-2.078125-1.015625h2.078125c-.03125-.3125-.109375-.546875-.234375-.703125-.210937-.25-.46875-.375-.78125-.375-.292969 0-.539063.101563-.734375.296875-.199219.199219-.308594.460938-.328125.78125zm0 0"/></symbol><symbol id="aC" overflow="visible"><path d="m1.859375-.5625.078125.5625c-.179688.03125-.335938.046875-.46875.046875-.230469 0-.40625-.0390625-.53125-.109375-.125-.070312-.214844-.164062-.265625-.28125-.054687-.113281-.078125-.363281-.078125-.75v-2.140625h-.46875v-.5h.46875v-.921875l.625-.375v1.296875h.640625v.5h-.640625v2.171875c0 .1875.007812.308594.03125.359375.019531.054687.054688.09375.109375.125.050781.023437.125.03125.21875.03125.070313 0 .164063-.003906.28125-.015625zm0 0"/></symbol><symbol id="aD" overflow="visible"><path d="m.484375-4.421875v-.71875h.625v.71875zm0 4.421875v-3.734375h.625v3.734375zm0 0"/></symbol><symbol id="aE" overflow="visible"><path d="m.453125 1.4375-.078125-.59375c.132812.039062.253906.0625.359375.0625.144531 0 .257813-.027344.34375-.078125.082031-.042969.148437-.109375.203125-.203125.039062-.0625.101562-.21875.1875-.46875.007812-.03125.03125-.0859375.0625-.15625l-1.421875-3.734375h.6875l.78125 2.171875c.09375.273438.179687.558594.265625.859375.070312-.289063.160156-.578125.265625-.859375l.796875-2.171875h.625l-1.421875 3.796875c-.148437.40625-.261719.6875-.34375.84375-.117187.207031-.246094.359375-.390625.453125-.148438.101563-.320312.15625-.515625.15625-.125 0-.261719-.027344-.40625-.078125zm0 0"/></symbol><symbol id="aF" overflow="visible"><path d="m.46875 1.421875v-5.15625h.578125v.484375c.132813-.1875.285156-.328125.453125-.421875.175781-.09375.382812-.140625.625-.140625.320312 0 .601562.085938.84375.25.25.167969.429688.402344.546875.703125.125.292969.1875.617187.1875.96875 0 .386719-.070313.730469-.203125 1.03125-.136719.304687-.335938.539063-.59375.703125-.261719.15625-.539062.234375-.828125.234375-.210937 0-.398437-.0429688-.5625-.125-.167969-.09375-.304687-.207031-.40625-.34375v1.8125zm.578125-3.265625c0 .480469.09375.835938.28125 1.0625.195313.230469.4375.34375.71875.34375s.519531-.113281.71875-.34375c.195313-.238281.296875-.609375.296875-1.109375 0-.476563-.101562-.832031-.296875-1.0625-.1875-.238281-.417969-.359375-.6875-.359375-.273437 0-.511719.125-.71875.375-.210937.25-.3125.617188-.3125 1.09375zm0 0"/></symbol><symbol id="aG" overflow="visible"><path d="m.65625-3v-.734375h.71875v.734375zm0 3v-.71875h.71875v.71875zm0 0"/></symbol><symbol id="aH" overflow="visible"><path d="m.53125 0v-5.140625h.671875v4.53125h2.53125v.609375zm0 0"/></symbol><symbol id="aI" overflow="visible"><path d="m1.859375 0v-4.53125h-1.6875v-.609375h4.078125v.609375h-1.703125v4.53125zm0 0"/></symbol><symbol id="aJ" overflow="visible"><path d="m.8125-1.28125-.1875-2.71875v-1.140625h.78125v1.140625l-.1875 2.71875zm-.171875 1.28125v-.71875h.734375v.71875zm0 0"/></symbol><symbol id="aK" overflow="visible"><path d="m.546875 0v-5.140625h1.78125c.394531 0 .703125.023437.921875.0625.289062.074219.539062.199219.75.375.269531.230469.472656.527344.609375.890625.132813.355469.203125.761719.203125 1.21875 0 .386719-.046875.730469-.140625 1.03125-.09375.304688-.214844.554688-.359375.75-.136719.199219-.292969.355469-.46875.46875-.167969.117188-.371094.203125-.609375.265625-.242187.0546875-.515625.078125-.828125.078125zm.6875-.609375h1.09375c.34375 0 .609375-.03125.796875-.09375.195312-.0625.351562-.148437.46875-.265625.15625-.15625.28125-.367188.375-.640625.09375-.28125.140625-.613281.140625-1 0-.539063-.089844-.953125-.265625-1.234375-.179688-.289062-.390625-.488281-.640625-.59375-.1875-.0625-.484375-.09375-.890625-.09375h-1.078125zm0 0"/></symbol><symbol id="aL" overflow="visible"><path d="m1.15625 0-1.140625-3.734375h.65625l.59375 2.15625.21875.796875c.007813-.03125.078125-.285156.203125-.765625l.59375-2.1875h.640625l.5625 2.171875.1875.703125.203125-.71875.640625-2.15625h.625l-1.171875 3.734375h-.65625l-.59375-2.234375-.140625-.640625-.75 2.875zm0 0"/></symbol><symbol id="aM" overflow="visible"><path d="m.359375.3125.609375.09375c.03125.1875.101562.320312.21875.40625.15625.113281.367188.171875.640625.171875.289063 0 .515625-.058594.671875-.171875.164062-.117188.273438-.277344.328125-.484375.03125-.136719.046875-.40625.046875-.8125-.28125.324219-.625.484375-1.03125.484375-.511719 0-.90625-.179688-1.1875-.546875-.28125-.375-.421875-.820313-.421875-1.34375 0-.351563.0625-.675781.1875-.96875.132813-.300781.320313-.535156.5625-.703125.238281-.164062.523437-.25.859375-.25.4375 0 .800781.179688 1.09375.53125v-.453125h.578125v3.234375c0 .5703125-.0625.976562-.1875 1.21875-.117187.25-.304687.441406-.5625.578125-.25.144531-.5625.21875-.9375.21875-.4375 0-.796875-.105469-1.078125-.3125-.273438-.199219-.402344-.496094-.390625-.890625zm.515625-2.25c0 .492188.097656.851562.296875 1.078125.195313.230469.441406.34375.734375.34375.289062 0 .53125-.109375.71875-.328125.195312-.226562.296875-.582031.296875-1.0625 0-.457031-.105469-.800781-.3125-1.03125-.199219-.226562-.4375-.34375-.71875-.34375s-.523437.117188-.71875.34375c-.199219.21875-.296875.554688-.296875 1zm0 0"/></symbol><symbol id="aN" overflow="visible"><path d="m.46875 0v-3.734375h.5625v.578125c.144531-.269531.28125-.445312.40625-.53125.125-.082031.257812-.125.40625-.125.207031 0 .421875.070312.640625.203125l-.203125.59375c-.15625-.09375-.3125-.140625-.46875-.140625-.136719 0-.261719.042969-.375.125-.105469.085938-.183594.199219-.234375.34375-.074219.230469-.109375.476562-.109375.734375v1.953125zm0 0"/></symbol><symbol id="aO" overflow="visible"><path d="m2.90625-.453125c-.230469.199219-.453125.339844-.671875.421875-.21875.0703125-.453125.109375-.703125.109375-.40625 0-.71875-.0976562-.9375-.296875-.21875-.195312-.328125-.453125-.328125-.765625 0-.175781.039063-.335937.125-.484375.082031-.15625.1875-.28125.3125-.375.132813-.09375.289063-.160156.46875-.203125.113281-.039063.300781-.070313.5625-.09375.5-.0625.875-.132813 1.125-.21875 0-.09375 0-.148437 0-.171875 0-.257812-.0625-.441406-.1875-.546875-.15625-.132813-.398437-.203125-.71875-.203125-.292969 0-.511719.054688-.65625.15625-.136719.105469-.242187.289062-.3125.546875l-.609375-.078125c.050781-.269531.140625-.484375.265625-.640625.132813-.164063.320313-.289063.5625-.375.238281-.09375.519531-.140625.84375-.140625.320313 0 .582031.039062.78125.109375.195313.074219.34375.167969.4375.28125.09375.117187.15625.261719.1875.4375.019531.105469.03125.296875.03125.578125v.84375c0 .585938.015625.953125.046875 1.109375s.082031.308594.15625.453125h-.65625c-.0625-.132812-.105469-.285156-.125-.453125zm-.046875-1.421875c-.230469.09375-.574219.179688-1.03125.25-.261719.03125-.449219.074219-.5625.125-.105469.042969-.1875.109375-.25.203125-.054687.085937-.078125.183594-.078125.296875 0 .167969.0625.308594.1875.421875.125.117187.3125.171875.5625.171875.238281 0 .453125-.050781.640625-.15625.195313-.113281.335937-.257812.421875-.4375.070312-.144531.109375-.359375.109375-.640625zm0 0"/></symbol><symbol id="aP" overflow="visible"><path d="m2.890625 0v-.46875c-.242187.367188-.589844.546875-1.046875.546875-.292969 0-.5625-.078125-.8125-.234375-.25-.164062-.445312-.394531-.578125-.6875-.136719-.289062-.203125-.628906-.203125-1.015625 0-.375.0625-.710937.1875-1.015625.125-.300781.304688-.53125.546875-.6875.25-.164062.53125-.25.84375-.25.21875 0 .414063.046875.59375.140625.175781.09375.316406.21875.421875.375v-1.84375h.640625v5.140625zm-2-1.859375c0 .480469.097656.839844.296875 1.078125.207031.230469.445312.34375.71875.34375.28125 0 .515625-.109375.703125-.328125.195313-.226563.296875-.578125.296875-1.046875 0-.507812-.101562-.878906-.296875-1.109375-.199219-.238281-.445313-.359375-.734375-.359375-.28125 0-.515625.117188-.703125.34375-.1875.230469-.28125.589844-.28125 1.078125zm0 0"/></symbol><symbol id="aQ" overflow="visible"><path d="m2.328125 0v-1.234375h-2.234375v-.578125l2.34375-3.328125h.515625v3.328125h.703125v.578125h-.703125v1.234375zm0-1.8125v-2.3125l-1.609375 2.3125zm0 0"/></symbol><symbol id="aR" overflow="visible"><path d="m2.96875-2.015625v-.609375h2.171875v1.90625c-.335937.273438-.679687.476562-1.03125.609375-.355469.1328125-.71875.203125-1.09375.203125-.511719 0-.976563-.109375-1.390625-.328125-.40625-.21875-.71875-.53125-.9375-.9375-.210938-.414063-.3125-.875-.3125-1.375s.101562-.960937.3125-1.390625c.21875-.4375.519531-.757812.90625-.96875.394531-.21875.847656-.328125 1.359375-.328125.375 0 .710937.0625 1.015625.1875.300781.117187.535156.28125.703125.5.175781.21875.304687.5.390625.84375l-.609375.171875c-.085937-.269531-.183594-.476562-.296875-.625-.117188-.144531-.277344-.265625-.484375-.359375-.210937-.09375-.445313-.140625-.703125-.140625-.3125 0-.585938.054688-.8125.15625-.230469.09375-.417969.21875-.5625.375-.136719.148438-.242188.3125-.3125.5-.136719.324219-.203125.667969-.203125 1.03125 0 .460938.078125.84375.234375 1.15625.164062.3125.398438.542969.703125.6875.300781.148438.617187.21875.953125.21875.300781 0 .585938-.050781.859375-.15625.28125-.113281.492187-.238281.640625-.375v-.953125zm0 0"/></symbol><symbol id="aS" overflow="visible"><path d="m.484375 0v-5.140625h.625v2.921875l1.5-1.515625h.8125l-1.421875 1.390625 1.5625 2.34375h-.78125l-1.21875-1.90625-.453125.421875v1.484375zm0 0"/></symbol><g clip-path="url(#a)"><path d="m0 0h287v181.984375h-287zm0 0" fill="#fff"/></g><g clip-path="url(#b)"><path d="m187.997926 241.000981-.999238-210.002883" fill="none" stroke="#000" stroke-miterlimit="10" stroke-width="2" transform="scale(.719298)"/></g><path d="m6.310405 29.108235 6.19093-22.770677 6.190931 22.770677" fill="none" stroke="#c00" stroke-linejoin="round" stroke-miterlimit="10" stroke-width=".55" transform="scale(.719298)"/><path d="m18.409873 27.587656-10.410539-4.545447 8.162253-3.041159-6.332127-3.030297 4.643198-2.899962-3.242093-2.623" fill="none" stroke="#c00" stroke-linejoin="round" stroke-miterlimit="10" stroke-width=".55" transform="scale(.719298)"/><path d="m13.625478 6.891483c0 .304116-.108613.564787-.331269.776582-.217226.217226-.483327.325838-.792874.325838-.309546 0-.575648-.108612-.798304-.325838-.217226-.211795-.325838-.472466-.325838-.776582s.108612-.564786.325838-.782012c.222656-.217226.488758-.325838.798304-.325838.309547 0 .575648.108612.792874.325838.222656.217226.331269.477896.331269.782012zm0 0" fill="#f8cecc" stroke="#c00" stroke-width=".55" transform="scale(.719298)"/><path d="m14.40749 5.012482.401868-.472466c1.281631 1.292492 1.281631 3.350705 0 4.637767l-.401868-.439882c.993808-1.048114.993808-2.666445 0-3.725419zm1.411967-1.384814.391006-.380145c1.998476 2.03106 1.998476 5.25143 0 7.28249l-.391006-.380145c1.78125-1.819265 1.78125-4.697505 0-6.5222zm1.401105-1.379383.401868-.407298c1.509718 1.259909 2.37862 3.106327 2.37862 5.050496 0 1.9496-.868902 3.790588-2.37862 5.050496l-.401868-.412728c1.43912-1.129574 2.280869-2.829364 2.280869-4.637768 0-1.802973-.841749-3.513624-2.280869-4.643198zm-6.630812 2.764197-.401868-.472466c-1.2762 1.292492-1.2762 3.350705 0 4.637767l.401868-.439882c-.988377-1.048114-.988377-2.666445 0-3.725419zm-1.411967-1.384814-.385575-.380145c-2.003907 2.03106-2.003907 5.25143 0 7.28249l.385575-.380145c-1.775819-1.819265-1.775819-4.697505 0-6.5222zm-1.395675-1.379383-.401867-.407298c-1.509718 1.259909-2.378621 3.106327-2.378621 5.050496 0 1.9496.868903 3.790588 2.378621 5.050496l.401867-.412728c-1.44455-1.129574-2.280869-2.829364-2.280869-4.637768 0-1.802973.836319-3.513624 2.280869-4.643198zm0 0" fill="#f8cecc" stroke="#c00" stroke-miterlimit="10" stroke-width=".55" transform="scale(.719298)"/><path d="m140.574219 17.882812c.488281-.015624.8125-.503906.8125-1.007812.011719-.574219-.347657-1.058594-.820313-1.058594-.496094.023438-.828125.511719-.820312 1.058594 0 .554688.378906 1.007812.828125 1.007812zm-17.589844 4.121094c-.179687 0-.335937-.203125-.335937-.476562v-6.644532c-.007813-.171874.105468-.316406.257812-.453124.496094-.390626.972656-.519532 1.382812-.675782v-5.351562h.328126v-4.949219h.65625v4.949219h.332031v4.949218c3.128906-.492187 5.984375-.605468 8.628906-.621093 3.195313-.050781 6.292969.066406 9.128906.613281v-4.941406h.332031v-4.949219h.652344v4.949219h.332032v5.351562c.476562.171875.957031.300782 1.394531.683594.144531.121094.214843.257812.214843.4375v6.683594c0 .230468-.164062.445312-.351562.445312h-1.925781c-.144531 0-.316407-.203125-.316407-.445312v-1.203125h-18.089843v1.195312c0 .265625-.136719.453125-.347657.453125zm0 0" fill="#505050"/><path d="m11.679688 31.648438h1.441406v1.4375h-1.441406m2.878906-1.4375h1.4375v1.4375h-1.4375m2.878906-1.4375h1.4375v1.4375h-1.4375m2.875-1.4375h1.4375v1.4375h-1.4375m2.878906-1.4375h1.4375v1.4375h-1.4375m2.875-1.4375h1.441406v1.4375h-1.441406m2.878906-1.4375h1.4375v1.4375h-1.4375m2.875-1.4375h1.441407v1.4375h-1.441407m2.878907-1.4375h1.4375v1.4375h-1.4375m2.875-1.4375h1.441406v1.4375h-1.441406m2.878906-1.4375h1.4375v1.4375h-1.4375m2.878906-1.4375h1.4375v1.4375h-1.4375m2.875-1.4375h1.4375v1.4375h-1.4375m2.878907-1.4375h1.4375v1.4375h-1.4375m2.875-1.4375h1.441406v1.4375h-1.441406m2.878906-1.4375h1.4375v1.4375h-1.4375m2.875-1.4375h1.441406v1.4375h-1.441406m2.878906-1.4375h1.4375v1.4375h-1.4375m2.878906-1.4375h1.4375v1.4375h-1.4375m2.875-1.4375h1.4375v1.4375h-1.4375m2.878906-1.4375h1.4375v1.4375h-1.4375m2.875-1.4375h1.441407v1.4375h-1.441407m2.878907-1.4375h1.4375v1.4375h-1.4375m2.875-1.4375h1.441406v1.4375h-1.441406m2.878906-1.4375h1.4375v1.4375h-1.4375m2.875-1.4375h1.441406v1.4375h-1.441406m2.878906-1.4375h1.4375v1.4375h-1.4375m2.878907-1.4375h1.4375v1.4375h-1.4375m2.875-1.4375h1.4375v1.4375h-1.4375m2.878906-1.4375h1.4375v1.4375h-1.4375m2.875-1.4375h1.441406v1.4375h-1.441406m2.878906-1.4375h1.4375v1.4375h-1.4375m2.875-1.4375h1.441406v1.4375h-1.441406m2.878906-1.4375h1.4375v1.4375h-1.4375m2.878906-1.4375h1.4375v1.4375h-1.4375m2.875-1.4375h1.4375v1.4375h-1.4375m2.878907-1.4375h1.4375v1.4375h-1.4375m2.875-1.4375h1.4375v1.4375h-1.4375m2.878906-1.4375h1.4375v1.4375h-1.4375m2.875-1.4375h1.441406v1.4375h-1.441406m2.878906-1.4375h1.4375v1.4375h-1.4375m2.875-1.4375h1.441407v1.4375h-1.441407m2.878907-1.4375h1.4375v1.4375h-1.4375" fill="#82b366"/><path d="m10.242189 44.99829 7.999334-3.996951-2.003907 3.996951 2.003907 4.002383zm0 0" fill="#82b366" stroke="#82b366" stroke-miterlimit="10" stroke-width="2" transform="scale(.719298)"/><path d="m265.96875 154.664062-1.4375.003907-.003906-1.441407h1.4375m-2.871094 1.441407-1.441406.003906v-1.4375l1.4375-.003906m-2.875 1.445312-1.4375.003907-.003906-1.441407 1.4375-.003906m-2.875 1.445313-1.4375.003906-.003907-1.4375 1.441407-.003906m-2.875 1.445312h-1.4375l-.003907-1.4375 1.4375-.003906m-2.875 1.445312-1.4375.003906-.003906-1.4375 1.441406-.003906m-2.875 1.445313h-1.441406v-1.4375l1.4375-.003907m-2.875 1.445313-1.4375.003906-.003906-1.4375 1.4375-.003906m-2.871094 1.445313h-1.441406v-1.4375l1.4375-.003907m-2.875 1.445313-1.4375.003906-.003907-1.441406h1.4375m-2.875 1.441406-1.4375.003906-.003906-1.4375 1.441406-.003906m-2.875 1.445312-1.4375.003907-.003906-1.441407h1.4375m-2.875 1.441407-1.4375.003906-.003906-1.4375 1.441406-.003906m-2.875 1.445312-1.4375.003907-.003906-1.441407h1.4375m-2.875 1.441407-1.4375.003906-.003906-1.4375 1.441406-.003906m-2.875 1.445312h-1.441406v-1.4375l1.4375-.003906m-2.875 1.445312-1.4375.003906-.003906-1.4375 1.4375-.003906m-2.871094 1.445313h-1.441406v-1.4375l1.4375-.003907m-2.875 1.445313-1.4375.003906-.003907-1.4375 1.4375-.003906m-2.875 1.445313h-1.4375l-.003906-1.4375 1.441406-.003907m-2.875 1.445313-1.4375.003906-.003906-1.441406h1.4375m-2.875 1.441406-1.4375.003906-.003906-1.4375 1.441406-.003906m-2.875 1.445312-1.4375.003907-.003906-1.441407h1.4375m-2.875 1.441407-1.4375.003906-.003907-1.4375 1.4375-.003906m-2.871093 1.445312-1.441407.003907v-1.441407h1.4375m-2.875 1.441407-1.4375.003906-.003906-1.4375 1.4375-.003906m-2.871094 1.445312-1.441406.003906v-1.441406h1.4375m-2.875 1.441406-1.4375.003906-.003906-1.4375 1.4375-.003906m-2.875 1.445313h-1.4375l-.003906-1.4375 1.441406-.003907m-2.875 1.445313-1.4375.003906-.003906-1.4375 1.4375-.003906m-2.875 1.445313h-1.4375l-.003906-1.4375 1.441406-.003907m-2.875 1.445313-1.441406.003906v-1.4375l1.4375-.003906m-2.875 1.445312h-1.4375l-.003907-1.4375 1.4375-.003906m-2.871093 1.445312-1.441407.003907v-1.441407h1.4375m-2.875 1.441407-1.4375.003906-.003906-1.4375 1.4375-.003906m-2.871094 1.445312-1.441406.003907-.003906-1.441407h1.441406m-2.875 1.441407-1.4375.003906-.003906-1.4375 1.4375-.003906m-2.875 1.445312-1.4375.003906-.003907-1.441406h1.441407m-2.875 1.441406-1.4375.003906-.003907-1.4375 1.4375-.003906m-2.875 1.445313h-1.4375l-.003906-1.4375 1.441406-.003907m-2.875 1.445313-1.441406.003906v-1.4375l1.4375-.003906m-2.875 1.445313h-1.4375l-.003906-1.4375 1.4375-.003907m-2.871094 1.445313-1.441406.003906v-1.4375l1.4375-.003906m-2.875 1.445312h-1.4375l-.003906-1.4375 1.4375-.003906m-2.875 1.445312-1.4375.003907-.003906-1.441407h1.441406m-2.875 1.445313h-1.265625l-.003907-1.4375 1.265626-.003906" fill="#82b366"/><path d="m270.285156 153.929688-5.75 2.890624 1.433594-2.875-1.441406-2.878906zm0 0" fill="#82b366"/><g clip-path="url(#c)"><path d="m375.762334 213.999834-7.993903 4.018675 1.993045-3.996952-2.003907-4.002382zm0 0" fill="none" stroke="#82b366" stroke-miterlimit="10" stroke-width="2" transform="scale(.719298)"/></g><g><use x="148.130465" xlink:href="#d" y="19.42105"/><use x="154.363914" xlink:href="#e" y="19.42105"/><use x="160.121109" xlink:href="#f" y="19.42105"/></g><use x="162.363296" xlink:href="#g" y="19.42105"/><g><use x="166.679085" xlink:href="#h" y="19.42105"/><use x="171.479558" xlink:href="#i" y="19.42105"/><use x="174.35394" xlink:href="#j" y="19.42105"/><use x="179.154413" xlink:href="#k" y="19.42105"/><use x="183.954885" xlink:href="#l" y="19.42105"/></g><g fill="#c00"><use x="15.453671" xlink:href="#m" y="18.701752"/><use x="23.842205" xlink:href="#n" y="18.701752"/><use x="29.442756" xlink:href="#o" y="18.701752"/><use x="31.680026" xlink:href="#p" y="18.701752"/><use x="33.917297" xlink:href="#q" y="18.701752"/><use x="38.952384" xlink:href="#p" y="18.701752"/><use x="41.189654" xlink:href="#r" y="18.701752"/><use x="46.790205" xlink:href="#s" y="18.701752"/><use x="52.390756" xlink:href="#t" y="18.701752"/><use x="57.425843" xlink:href="#u" y="18.701752"/><use x="60.22366" xlink:href="#v" y="18.701752"/><use x="65.824211" xlink:href="#w" y="18.701752"/><use x="73.657115" xlink:href="#u" y="18.701752"/><use x="76.454932" xlink:href="#x" y="18.701752"/><use x="82.055483" xlink:href="#y" y="18.701752"/><use x="89.32784" xlink:href="#z" y="18.701752"/></g><g transform="scale(.719298)"><path d="m7.999334 61.002389h171.76031" fill="none" stroke="#000" stroke-miterlimit="10" stroke-width="2"/><path d="m185.760502 61.002389-7.999334 3.996952 1.998476-3.996952-1.998476-4.002382zm0 0" stroke="#000" stroke-miterlimit="10" stroke-width="2"/><path d="m7.999334 240.088633v-209.997452" fill="none" stroke="#000" stroke-miterlimit="10" stroke-width="2"/><path d="m377.999758 242.999457v-210.171233" fill="none" stroke="#000" stroke-miterlimit="10" stroke-width="2"/><path d="m364.309112 32.491524 6.190931-22.770677 6.190931 22.770677" fill="none" stroke="#c00" stroke-linejoin="round" stroke-miterlimit="10" stroke-width=".55"/><path d="m376.40858 30.970945-10.410538-4.550877 8.162253-3.041159-6.332127-3.030298 4.643198-2.899962-3.242093-2.617569" fill="none" stroke="#c00" stroke-linejoin="round" stroke-miterlimit="10" stroke-width=".55"/><path d="m371.624186 10.269342c0 .304116-.108613.564787-.331269.782012-.217226.217226-.483327.320408-.792874.320408-.309546 0-.575648-.103182-.792874-.320408-.222656-.217225-.331269-.477896-.331269-.782012s.108613-.564787.331269-.782012c.217226-.211795.483328-.320408.792874-.320408.309547 0 .575648.108613.792874.320408.222656.217225.331269.477896.331269.782012zm0 0" fill="#f8cecc" stroke="#c00" stroke-width=".55"/><path d="m372.411629 8.39034.396436-.472466c1.281632 1.292493 1.281632 3.350706 0 4.643198l-.396436-.439882c.988376-1.053544.988376-2.671875 0-3.73085zm1.406536-1.379383.391006-.380144c1.998476 2.031059 1.998476 5.251429 0 7.277058l-.391006-.380145c1.78125-1.819264 1.78125-4.697504 0-6.516769zm1.401105-1.379382.401867-.412729c1.509719 1.259909 2.378621 3.111757 2.378621 5.050496 0 1.9496-.868902 3.790587-2.378621 5.050496l-.401867-.407298c1.43912-1.135004 2.280869-2.834795 2.280869-4.643198 0-1.797542-.841749-3.508194-2.280869-4.637767zm-6.630813 2.758765-.396436-.472466c-1.281632 1.292493-1.281632 3.350706 0 4.643198l.396436-.439882c-.988376-1.053544-.988376-2.671875 0-3.73085zm-1.406536-1.379383-.391006-.380144c-1.998476 2.031059-1.998476 5.251429 0 7.277058l.391006-.380145c-1.78125-1.819264-1.78125-4.697504 0-6.516769zm-1.401105-1.379382-.401867-.412729c-1.509718 1.259909-2.378621 3.111757-2.378621 5.050496 0 1.9496.868903 3.790587 2.378621 5.050496l.401867-.407298c-1.43912-1.135004-2.280869-2.834795-2.280869-4.643198 0-1.797542.841749-3.508194 2.280869-4.637767zm0 0" fill="#f8cecc" stroke="#c00" stroke-miterlimit="10" stroke-width=".55"/></g><g fill="#c00"><use x="221.251619" xlink:href="#A" y="17.263156"/><use x="226.85217" xlink:href="#w" y="17.263156"/><use x="234.685074" xlink:href="#u" y="17.263156"/><use x="237.482891" xlink:href="#B" y="17.263156"/><use x="243.083442" xlink:href="#y" y="17.263156"/><use x="250.355799" xlink:href="#z" y="17.263156"/></g><g fill="#c00"><use x="159.155961" xlink:href="#X" y="137.385949"/><use x="166.428318" xlink:href="#Y" y="137.385949"/><use x="173.145046" xlink:href="#Z" y="137.385949"/><use x="175.942863" xlink:href="#aa" y="137.385949"/><use x="183.21522" xlink:href="#ab" y="137.385949"/><use x="189.366484" xlink:href="#ac" y="137.385949"/><use x="197.199388" xlink:href="#ad" y="137.385949"/><use x="203.350652" xlink:href="#ae" y="137.385949"/><use x="209.501915" xlink:href="#af" y="137.385949"/><use x="213.420826" xlink:href="#ag" y="137.385949"/><use x="219.021377" xlink:href="#ah" y="137.385949"/><use x="225.17264" xlink:href="#ai" y="137.385949"/><use x="230.773191" xlink:href="#aj" y="137.385949"/><use x="236.373742" xlink:href="#Z" y="137.385949"/><use x="239.171559" xlink:href="#ak" y="137.385949"/><use x="242.525006" xlink:href="#ab" y="137.385949"/></g><g fill="#c00"><use x="166.416377" xlink:href="#al" y="149.614018"/><use x="172.016928" xlink:href="#am" y="149.614018"/><use x="179.849832" xlink:href="#Z" y="149.614018"/><use x="182.647649" xlink:href="#an" y="149.614018"/><use x="188.798912" xlink:href="#ag" y="149.614018"/><use x="194.399463" xlink:href="#aj" y="149.614018"/><use x="200.000014" xlink:href="#ai" y="149.614018"/><use x="205.600565" xlink:href="#Z" y="149.614018"/><use x="208.398382" xlink:href="#aj" y="149.614018"/><use x="213.998933" xlink:href="#ak" y="149.614018"/><use x="217.35238" xlink:href="#ag" y="149.614018"/><use x="222.952931" xlink:href="#ak" y="149.614018"/><use x="226.306378" xlink:href="#ao" y="149.614018"/><use x="229.104195" xlink:href="#ab" y="149.614018"/><use x="235.255458" xlink:href="#ad" y="149.614018"/></g><g><use x="136.666651" xlink:href="#ap" y="163.280683"/><use x="138.665091" xlink:href="#aq" y="163.280683"/><use x="140.663532" xlink:href="#ar" y="163.280683"/><use x="145.858073" xlink:href="#as" y="163.280683"/><use x="150.251833" xlink:href="#at" y="163.280683"/><use x="155.846764" xlink:href="#au" y="163.280683"/><use x="157.845205" xlink:href="#av" y="163.280683"/><use x="159.843646" xlink:href="#aw" y="163.280683"/><use x="165.038187" xlink:href="#ax" y="163.280683"/><use x="169.835849" xlink:href="#av" y="163.280683"/><use x="171.83429" xlink:href="#ay" y="163.280683"/><use x="175.430781" xlink:href="#az" y="163.280683"/><use x="179.431174" xlink:href="#aA" y="163.280683"/><use x="183.431568" xlink:href="#aA" y="163.280683"/><use x="187.431961" xlink:href="#aB" y="163.280683"/><use x="191.432355" xlink:href="#ay" y="163.280683"/><use x="195.028846" xlink:href="#aC" y="163.280683"/><use x="197.027286" xlink:href="#aD" y="163.280683"/><use x="198.625337" xlink:href="#az" y="163.280683"/><use x="202.62573" xlink:href="#aA" y="163.280683"/><use x="206.626124" xlink:href="#av" y="163.280683"/><use x="208.624564" xlink:href="#aC" y="163.280683"/><use x="210.623005" xlink:href="#aE" y="163.280683"/><use x="214.219496" xlink:href="#aF" y="163.280683"/><use x="218.219889" xlink:href="#aB" y="163.280683"/><use x="222.220283" xlink:href="#aG" y="163.280683"/><use x="224.218724" xlink:href="#av" y="163.280683"/><use x="226.217164" xlink:href="#aH" y="163.280683"/></g><g><use x="229.683704" xlink:href="#aI" y="163.280683"/><use x="234.077464" xlink:href="#ax" y="163.280683"/></g><g fill="#f33"><use x="136.666651" xlink:href="#ap" y="171.912261"/><use x="138.665091" xlink:href="#aJ" y="171.912261"/><use x="140.663532" xlink:href="#aJ" y="171.912261"/><use x="142.661973" xlink:href="#aJ" y="171.912261"/><use x="144.660414" xlink:href="#au" y="171.912261"/><use x="146.658854" xlink:href="#av" y="171.912261"/><use x="148.657295" xlink:href="#aK" y="171.912261"/><use x="153.851836" xlink:href="#az" y="171.912261"/><use x="157.852229" xlink:href="#aL" y="171.912261"/><use x="163.04677" xlink:href="#aA" y="171.912261"/><use x="167.047164" xlink:href="#aM" y="171.912261"/><use x="171.047557" xlink:href="#aN" y="171.912261"/><use x="173.442877" xlink:href="#aO" y="171.912261"/><use x="177.44327" xlink:href="#aP" y="171.912261"/><use x="181.443664" xlink:href="#aB" y="171.912261"/><use x="185.444057" xlink:href="#av" y="171.912261"/><use x="187.442498" xlink:href="#aC" y="171.912261"/><use x="189.440939" xlink:href="#az" y="171.912261"/><use x="193.441332" xlink:href="#av" y="171.912261"/><use x="195.439773" xlink:href="#aQ" y="171.912261"/><use x="199.440166" xlink:href="#aR" y="171.912261"/><use x="205.035098" xlink:href="#av" y="171.912261"/><use x="207.033539" xlink:href="#aA" y="171.912261"/><use x="211.033932" xlink:href="#aB" y="171.912261"/><use x="215.034326" xlink:href="#aC" y="171.912261"/><use x="217.032766" xlink:href="#aL" y="171.912261"/><use x="222.227307" xlink:href="#az" y="171.912261"/><use x="226.227701" xlink:href="#aN" y="171.912261"/><use x="228.62302" xlink:href="#aS" y="171.912261"/><use x="232.219511" xlink:href="#av" y="171.912261"/><use x="234.217951" xlink:href="#aP" y="171.912261"/><use x="238.218345" xlink:href="#aB" y="171.912261"/><use x="242.218739" xlink:href="#aC" y="171.912261"/><use x="244.217179" xlink:href="#aB" y="171.912261"/><use x="248.217573" xlink:href="#ay" y="171.912261"/><use x="251.814064" xlink:href="#aC" y="171.912261"/><use x="253.812504" xlink:href="#aB" y="171.912261"/><use x="257.812898" xlink:href="#aP" y="171.912261"/><use x="261.813291" xlink:href="#aJ" y="171.912261"/><use x="263.811732" xlink:href="#aJ" y="171.912261"/><use x="265.810173" xlink:href="#aJ" y="171.912261"/></g><g><use x="23.826752" xlink:href="#C" y="29.491225"/><use x="31.099109" xlink:href="#B" y="29.491225"/><use x="36.69966" xlink:href="#x" y="29.491225"/><use x="42.300211" xlink:href="#p" y="29.491225"/><use x="44.537481" xlink:href="#t" y="29.491225"/><use x="49.572568" xlink:href="#D" y="29.491225"/><use x="52.370385" xlink:href="#E" y="29.491225"/><use x="55.723832" xlink:href="#n" y="29.491225"/><use x="61.324383" xlink:href="#D" y="29.491225"/><use x="64.1222" xlink:href="#p" y="29.491225"/><use x="66.35947" xlink:href="#r" y="29.491225"/><use x="71.960021" xlink:href="#F" y="29.491225"/><use x="77.560572" xlink:href="#u" y="29.491225"/><use x="80.358389" xlink:href="#C" y="29.491225"/><use x="87.630746" xlink:href="#B" y="29.491225"/><use x="93.231297" xlink:href="#G" y="29.491225"/><use x="98.831848" xlink:href="#s" y="29.491225"/><use x="104.432399" xlink:href="#B" y="29.491225"/><use x="110.03295" xlink:href="#t" y="29.491225"/><use x="115.068037" xlink:href="#D" y="29.491225"/></g><path d="m187.997926 79.998771h-171.76031" fill="none" stroke="#000" stroke-miterlimit="10" stroke-width="2" transform="scale(.719298)"/><path d="m10.242189 79.998771 7.999334-3.996952-2.003907 3.996952 2.003907 4.002382zm0 0" stroke="#000" stroke-miterlimit="10" stroke-width="2" transform="scale(.719298)"/><g><use x="44.967374" xlink:href="#H" y="53.947362"/><use x="51.684102" xlink:href="#I" y="53.947362"/><use x="58.956459" xlink:href="#J" y="53.947362"/><use x="65.673187" xlink:href="#K" y="53.947362"/><use x="71.273738" xlink:href="#L" y="53.947362"/><use x="77.990465" xlink:href="#y" y="53.947362"/><use x="85.262823" xlink:href="#M" y="53.947362"/><use x="91.143647" xlink:href="#N" y="53.947362"/></g><path d="m7.999334 99.000583h171.76031" fill="none" stroke="#f33" stroke-miterlimit="10" stroke-width="2" transform="scale(.719298)"/><path d="m185.760502 99.000583-7.999334 3.996952 1.998476-3.996952-1.998476-4.002382zm0 0" fill="#f33" stroke="#f33" stroke-miterlimit="10" stroke-width="2" transform="scale(.719298)"/><g fill="#f33"><use x="23.714361" xlink:href="#O" y="69.052624"/><use x="30.986719" xlink:href="#B" y="69.052624"/><use x="36.58727" xlink:href="#E" y="69.052624"/><use x="39.940716" xlink:href="#B" y="69.052624"/><use x="45.541267" xlink:href="#x" y="69.052624"/><use x="51.141818" xlink:href="#p" y="69.052624"/><use x="53.379088" xlink:href="#t" y="69.052624"/><use x="58.414176" xlink:href="#D" y="69.052624"/><use x="61.211992" xlink:href="#E" y="69.052624"/><use x="64.565439" xlink:href="#n" y="69.052624"/><use x="70.16599" xlink:href="#D" y="69.052624"/><use x="72.963807" xlink:href="#p" y="69.052624"/><use x="75.201077" xlink:href="#r" y="69.052624"/><use x="80.801628" xlink:href="#F" y="69.052624"/><use x="86.402179" xlink:href="#u" y="69.052624"/></g><g fill="#f33"><use x="88.644367" xlink:href="#H" y="69.052624"/><use x="95.361095" xlink:href="#q" y="69.052624"/><use x="100.396182" xlink:href="#q" y="69.052624"/><use x="105.431269" xlink:href="#B" y="69.052624"/><use x="111.03182" xlink:href="#P" y="69.052624"/><use x="116.632371" xlink:href="#D" y="69.052624"/></g><path d="m7.999334 115.998489h171.76031" fill="none" stroke="#000" stroke-miterlimit="10" stroke-width="2" transform="scale(.719298)"/><path d="m185.760502 115.998489-7.999334 4.002382 1.998476-4.002382-1.998476-3.996952zm0 0" stroke="#000" stroke-miterlimit="10" stroke-width="2" transform="scale(.719298)"/><g><use x="19.510963" xlink:href="#H" y="40.999995"/><use x="26.22769" xlink:href="#s" y="40.999995"/><use x="31.828241" xlink:href="#D" y="40.999995"/><use x="34.626058" xlink:href="#Q" y="40.999995"/><use x="40.226609" xlink:href="#B" y="40.999995"/><use x="45.82716" xlink:href="#F" y="40.999995"/><use x="51.427711" xlink:href="#D" y="40.999995"/><use x="54.225528" xlink:href="#p" y="40.999995"/><use x="56.462798" xlink:href="#q" y="40.999995"/><use x="61.497885" xlink:href="#n" y="40.999995"/><use x="67.098436" xlink:href="#D" y="40.999995"/><use x="69.896253" xlink:href="#p" y="40.999995"/><use x="72.133524" xlink:href="#r" y="40.999995"/><use x="77.734074" xlink:href="#F" y="40.999995"/><use x="83.334625" xlink:href="#u" y="40.999995"/><use x="86.132442" xlink:href="#C" y="40.999995"/><use x="93.4048" xlink:href="#B" y="40.999995"/><use x="99.005351" xlink:href="#G" y="40.999995"/><use x="104.605902" xlink:href="#s" y="40.999995"/><use x="110.206453" xlink:href="#B" y="40.999995"/><use x="115.807004" xlink:href="#t" y="40.999995"/><use x="120.842091" xlink:href="#D" y="40.999995"/></g><g><use x="19.510963" xlink:href="#H" y="81.280692"/><use x="26.22769" xlink:href="#s" y="81.280692"/><use x="31.828241" xlink:href="#D" y="81.280692"/><use x="34.626058" xlink:href="#Q" y="81.280692"/><use x="40.226609" xlink:href="#B" y="81.280692"/><use x="45.82716" xlink:href="#F" y="81.280692"/><use x="51.427711" xlink:href="#D" y="81.280692"/><use x="54.225528" xlink:href="#p" y="81.280692"/><use x="56.462798" xlink:href="#q" y="81.280692"/><use x="61.497885" xlink:href="#n" y="81.280692"/><use x="67.098436" xlink:href="#D" y="81.280692"/><use x="69.896253" xlink:href="#p" y="81.280692"/><use x="72.133524" xlink:href="#r" y="81.280692"/><use x="77.734074" xlink:href="#F" y="81.280692"/><use x="83.334625" xlink:href="#u" y="81.280692"/><use x="86.132442" xlink:href="#C" y="81.280692"/><use x="93.4048" xlink:href="#B" y="81.280692"/><use x="99.005351" xlink:href="#G" y="81.280692"/><use x="104.605902" xlink:href="#s" y="81.280692"/><use x="110.206453" xlink:href="#B" y="81.280692"/><use x="115.807004" xlink:href="#t" y="81.280692"/><use x="120.842091" xlink:href="#D" y="81.280692"/></g><path d="m187.997926 169.001544-171.76031-.950362" fill="none" stroke="#000" stroke-miterlimit="10" stroke-width="2" transform="scale(.719298)"/><path d="m10.242189 168.007737 8.015626-3.948076-2.020199 3.991521 1.971323 4.007813zm0 0" stroke="#000" stroke-miterlimit="10" stroke-width="2" transform="scale(.719298)"/><g><use x="44.967374" xlink:href="#H" y="117.964899"/><use x="51.684102" xlink:href="#I" y="117.964899"/><use x="58.956459" xlink:href="#J" y="117.964899"/><use x="65.673187" xlink:href="#K" y="117.964899"/><use x="71.273738" xlink:href="#L" y="117.964899"/><use x="77.990465" xlink:href="#y" y="117.964899"/><use x="85.262823" xlink:href="#M" y="117.964899"/><use x="91.143647" xlink:href="#F" y="117.964899"/></g><g fill="#757575"><use x="28.738209" xlink:href="#C" y="94.947357"/><use x="36.010567" xlink:href="#B" y="94.947357"/><use x="41.611118" xlink:href="#P" y="94.947357"/><use x="47.211669" xlink:href="#B" y="94.947357"/><use x="52.81222" xlink:href="#n" y="94.947357"/><use x="58.412771" xlink:href="#D" y="94.947357"/><use x="61.210588" xlink:href="#u" y="94.947357"/><use x="64.008405" xlink:href="#n" y="94.947357"/><use x="69.608956" xlink:href="#R" y="94.947357"/><use x="75.209507" xlink:href="#r" y="94.947357"/><use x="80.810057" xlink:href="#S" y="94.947357"/><use x="85.845145" xlink:href="#B" y="94.947357"/><use x="91.445696" xlink:href="#u" y="94.947357"/><use x="94.243513" xlink:href="#T" y="94.947357"/><use x="97.04133" xlink:href="#r" y="94.947357"/><use x="102.641881" xlink:href="#E" y="94.947357"/><use x="105.995327" xlink:href="#u" y="94.947357"/><use x="108.793144" xlink:href="#F" y="94.947357"/></g><g fill="#757575"><use x="23.444624" xlink:href="#D" y="107.175426"/><use x="26.242441" xlink:href="#p" y="107.175426"/><use x="28.479712" xlink:href="#U" y="107.175426"/><use x="36.868245" xlink:href="#B" y="107.175426"/><use x="42.468796" xlink:href="#t" y="107.175426"/><use x="47.503884" xlink:href="#u" y="107.175426"/><use x="50.3017" xlink:href="#D" y="107.175426"/><use x="53.099517" xlink:href="#r" y="107.175426"/><use x="58.700068" xlink:href="#u" y="107.175426"/><use x="61.497885" xlink:href="#B" y="107.175426"/><use x="67.098436" xlink:href="#V" y="107.175426"/><use x="72.133524" xlink:href="#Q" y="107.175426"/><use x="77.734074" xlink:href="#n" y="107.175426"/><use x="83.334625" xlink:href="#s" y="107.175426"/><use x="88.935176" xlink:href="#t" y="107.175426"/><use x="93.970264" xlink:href="#D" y="107.175426"/><use x="96.768081" xlink:href="#u" y="107.175426"/><use x="99.565898" xlink:href="#E" y="107.175426"/><use x="102.919344" xlink:href="#B" y="107.175426"/><use x="108.519895" xlink:href="#D" y="107.175426"/><use x="111.317712" xlink:href="#E" y="107.175426"/><use x="114.671159" xlink:href="#W" y="107.175426"/></g><path d="m7.999334 185.99945h171.76031" fill="none" stroke="#f33" stroke-miterlimit="10" stroke-width="2" transform="scale(.719298)"/><path d="m185.760502 185.99945-7.999334 4.002382 1.998476-4.002382-1.998476-3.996952zm0 0" fill="#f33" stroke="#f33" stroke-miterlimit="10" stroke-width="2" transform="scale(.719298)"/><g fill="#f33"><use x="22.995063" xlink:href="#O" y="130.912265"/><use x="30.26742" xlink:href="#B" y="130.912265"/><use x="35.867971" xlink:href="#E" y="130.912265"/><use x="39.221418" xlink:href="#B" y="130.912265"/><use x="44.821969" xlink:href="#x" y="130.912265"/><use x="50.42252" xlink:href="#p" y="130.912265"/><use x="52.65979" xlink:href="#t" y="130.912265"/><use x="57.694877" xlink:href="#D" y="130.912265"/><use x="60.492694" xlink:href="#E" y="130.912265"/><use x="63.846141" xlink:href="#n" y="130.912265"/><use x="69.446692" xlink:href="#D" y="130.912265"/><use x="72.244509" xlink:href="#p" y="130.912265"/><use x="74.481779" xlink:href="#r" y="130.912265"/><use x="80.08233" xlink:href="#F" y="130.912265"/><use x="85.682881" xlink:href="#u" y="130.912265"/></g><g fill="#f33"><use x="87.925069" xlink:href="#H" y="130.912265"/><use x="94.641796" xlink:href="#q" y="130.912265"/><use x="99.676884" xlink:href="#q" y="130.912265"/><use x="104.711971" xlink:href="#B" y="130.912265"/><use x="110.312522" xlink:href="#P" y="130.912265"/><use x="115.913073" xlink:href="#D" y="130.912265"/></g><g><use x="18.791664" xlink:href="#H" y="143.140334"/><use x="25.508392" xlink:href="#s" y="143.140334"/><use x="31.108943" xlink:href="#D" y="143.140334"/><use x="33.90676" xlink:href="#Q" y="143.140334"/><use x="39.507311" xlink:href="#B" y="143.140334"/><use x="45.107862" xlink:href="#F" y="143.140334"/><use x="50.708413" xlink:href="#D" y="143.140334"/><use x="53.50623" xlink:href="#p" y="143.140334"/><use x="55.7435" xlink:href="#q" y="143.140334"/><use x="60.778587" xlink:href="#n" y="143.140334"/><use x="66.379138" xlink:href="#D" y="143.140334"/><use x="69.176955" xlink:href="#p" y="143.140334"/><use x="71.414225" xlink:href="#r" y="143.140334"/><use x="77.014776" xlink:href="#F" y="143.140334"/><use x="82.615327" xlink:href="#u" y="143.140334"/><use x="85.413144" xlink:href="#C" y="143.140334"/><use x="92.685502" xlink:href="#B" y="143.140334"/><use x="98.286053" xlink:href="#G" y="143.140334"/><use x="103.886604" xlink:href="#s" y="143.140334"/><use x="109.487155" xlink:href="#B" y="143.140334"/><use x="115.087706" xlink:href="#t" y="143.140334"/><use x="120.122793" xlink:href="#D" y="143.140334"/></g><path d="m7.999334 202.997356h171.76031" fill="none" stroke="#000" stroke-miterlimit="10" stroke-width="2" transform="scale(.719298)"/><path d="m185.760502 202.997356-7.999334 4.002382 1.998476-4.002382-1.998476-3.996952zm0 0" stroke="#000" stroke-miterlimit="10" stroke-width="2" transform="scale(.719298)"/></svg>