<svg height="64pt" viewBox="0 0 300 64" width="300pt" xmlns="http://www.w3.org/2000/svg" xmlns:xlink="http://www.w3.org/1999/xlink"><symbol id="a" overflow="visible"><path d="m5.90625-2.515625.953125.234375c-.199219.78125-.558594 1.382812-1.078125 1.796875-.523438.40625-1.15625.609375-1.90625.609375-.773438 0-1.402344-.15625-1.890625-.46875-.480469-.320312-.851563-.78125-1.109375-1.375-.25-.601562-.375-1.25-.375-1.9375 0-.738281.140625-1.390625.421875-1.953125.289063-.5625.695313-.984375 1.21875-1.265625.53125-.289062 1.113281-.4375 1.75-.4375.71875 0 1.320313.183594 1.8125.546875.5.367187.84375.882813 1.03125 1.546875l-.9375.21875c-.167969-.519531-.414063-.898438-.734375-1.140625-.3125-.238281-.710938-.359375-1.1875-.359375-.554688 0-1.015625.136719-1.390625.40625-.367187.261719-.625.617188-.78125 1.0625-.148437.449219-.21875.90625-.21875 1.375 0 .617188.085937 1.152344.265625 1.609375.175781.449219.453125.789063.828125 1.015625.375.230469.78125.34375 1.21875.34375.53125 0 .976563-.148438 1.34375-.453125.375-.3125.628906-.769531.765625-1.375zm0 0"/></symbol><symbol id="b" overflow="visible"><path d="m.328125-2.609375c0-.957031.269531-1.671875.8125-2.140625.445313-.382812.992187-.578125 1.640625-.578125.707031 0 1.289062.234375 1.75.703125.457031.46875.6875 1.121094.6875 1.953125 0 .667969-.105469 1.195313-.3125 1.578125-.199219.386719-.492188.6875-.875.90625-.386719.2070312-.804688.3125-1.25.3125-.730469 0-1.324219-.234375-1.78125-.703125-.449219-.46875-.671875-1.144531-.671875-2.03125zm.90625 0c0 .667969.144531 1.167969.4375 1.5.289063.335937.660156.5 1.109375.5.4375 0 .800781-.164063 1.09375-.5.289062-.332031.4375-.84375.4375-1.53125 0-.632813-.152344-1.117187-.453125-1.453125-.292969-.332031-.652344-.5-1.078125-.5-.449219 0-.820312.167969-1.109375.5-.292969.324219-.4375.820312-.4375 1.484375zm0 0"/></symbol><symbol id="c" overflow="visible"><path d="m.65625 0v-5.203125h.796875v.71875c.164063-.25.382813-.453125.65625-.609375.269531-.15625.578125-.234375.921875-.234375.382812 0 .695312.085937.9375.25.25.15625.425781.375.53125.65625.414062-.601563.953125-.90625 1.609375-.90625.519531 0 .914063.148437 1.1875.4375.28125.28125.421875.71875.421875 1.3125v3.578125h-.875v-3.28125c0-.351562-.03125-.609375-.09375-.765625-.054688-.15625-.15625-.28125-.3125-.375-.148438-.09375-.320312-.140625-.515625-.140625-.375 0-.683594.125-.921875.375-.242188.242188-.359375.625-.359375 1.15625v3.03125h-.890625v-3.390625c0-.382813-.074219-.675781-.21875-.875-.136719-.195313-.371094-.296875-.703125-.296875-.242187 0-.46875.070312-.6875.203125-.210937.125-.359375.3125-.453125.5625s-.140625.617187-.140625 1.09375v2.703125zm0 0"/></symbol><symbol id="d" overflow="visible"><path d="m.65625 2v-7.203125h.8125v.671875c.1875-.269531.398438-.46875.640625-.59375.238281-.132812.53125-.203125.875-.203125.4375 0 .828125.117187 1.171875.34375.34375.230469.597656.554687.765625.96875.175781.417969.265625.875.265625 1.375 0 .53125-.101562 1.011719-.296875 1.4375-.1875.429687-.464844.757813-.828125.984375-.367188.2265625-.75.34375-1.15625.34375-.292969 0-.558594-.0625-.796875-.1875-.230469-.125-.417969-.285156-.5625-.484375v2.546875zm.8125-4.578125c0 .679687.132812 1.179687.40625 1.5.269531.3125.597656.46875.984375.46875.382813 0 .71875-.164063 1-.5.28125-.332031.421875-.847656.421875-1.546875 0-.65625-.136719-1.148438-.40625-1.484375-.273438-.332031-.601562-.5-.984375-.5-.375 0-.710937.179687-1 .53125-.28125.355469-.421875.867187-.421875 1.53125zm0 0"/></symbol><symbol id="e" overflow="visible"><path d="m.671875-6.171875v-1.015625h.875v1.015625zm0 6.171875v-5.203125h.875v5.203125zm0 0"/></symbol><symbol id="f" overflow="visible"><path d="m.640625 0v-7.1875h.890625v7.1875zm0 0"/></symbol><symbol id="g" overflow="visible"><path d="m4.234375-1.671875.90625.109375c-.148437.53125-.417969.949219-.8125 1.25-.386719.2929688-.882813.4375-1.484375.4375-.761719 0-1.367188-.234375-1.8125-.703125-.4375-.476563-.65625-1.140625-.65625-1.984375 0-.875.222656-1.550781.671875-2.03125.445313-.488281 1.03125-.734375 1.75-.734375.695313 0 1.265625.242187 1.703125.71875.445312.46875.671875 1.136719.671875 2v.234375h-3.890625c.03125.574219.191406 1.011719.484375 1.3125.289063.304688.65625.453125 1.09375.453125.320313 0 .597656-.082031.828125-.25.226562-.175781.410156-.445313.546875-.8125zm-2.90625-1.4375h2.90625c-.042969-.4375-.152344-.765625-.328125-.984375-.28125-.332031-.648438-.5-1.09375-.5-.40625 0-.75.136719-1.03125.40625-.273438.273438-.421875.632812-.453125 1.078125zm0 0"/></symbol><symbol id="h" overflow="visible"><path d="m.65625 0v-5.203125h.796875v.78125c.195313-.363281.378906-.601563.546875-.71875.175781-.125.367188-.1875.578125-.1875.289063 0 .59375.09375.90625.28125l-.3125.828125c-.210937-.132812-.421875-.203125-.640625-.203125-.199219 0-.375.0625-.53125.1875-.148438.117187-.25.277344-.3125.484375-.105469.3125-.15625.652344-.15625 1.015625v2.734375zm0 0"/></symbol><symbol id="i" overflow="visible"><path d="m.734375 0v-7.1875h.953125v6.34375h3.546875v.84375zm0 0"/></symbol><symbol id="j" overflow="visible"><path d="m.65625 0v-5.203125h.796875v.734375c.382813-.570312.9375-.859375 1.65625-.859375.320313 0 .613281.058594.875.171875.257813.117188.453125.265625.578125.453125.132812.179687.226562.390625.28125.640625.03125.167969.046875.453125.046875.859375v3.203125h-.875v-3.171875c0-.351563-.039063-.617187-.109375-.796875-.0625-.1875-.183594-.332031-.359375-.4375-.179687-.101562-.386719-.15625-.625-.15625-.375 0-.699219.121094-.96875.359375-.273437.242187-.40625.695313-.40625 1.359375v2.84375zm0 0"/></symbol><symbol id="k" overflow="visible"><path d="m.671875 0v-7.1875h.875v4.09375l2.09375-2.109375h1.140625l-1.984375 1.921875 2.1875 3.28125h-1.09375l-1.71875-2.65625-.625.59375v2.0625zm0 0"/></symbol><symbol id="l" overflow="visible"><path d="m.078125 0 1.90625-2.703125-1.765625-2.5h1.09375l.8125 1.21875c.144531.230469.265625.421875.359375.578125.144531-.21875.273437-.410156.390625-.578125l.875-1.21875h1.0625l-1.796875 2.453125 1.9375 2.75h-1.09375l-1.0625-1.625-.28125-.4375-1.375 2.0625zm0 0"/></symbol><symbol id="m" overflow="visible"><path d="m2.59375-.796875.125.78125c-.25.0507812-.476562.078125-.671875.078125-.324219 0-.574219-.046875-.75-.140625-.167969-.101563-.289063-.238281-.359375-.40625-.074219-.164063-.109375-.515625-.109375-1.046875v-2.984375h-.65625v-.6875h.65625v-1.296875l.875-.53125v1.828125h.890625v.6875h-.890625v3.03125c0 .261719.015625.429687.046875.5.03125.0625.078125.121094.140625.171875.070313.042969.175781.0625.3125.0625.09375 0 .222656-.015625.390625-.046875zm0 0"/></symbol><symbol id="n" overflow="visible"><path d="m.3125-1.5625.875-.125c.039062.34375.171875.609375.390625.796875.226563.1875.546875.28125.953125.28125s.707031-.082031.90625-.25c.195312-.164063.296875-.359375.296875-.578125 0-.195312-.089844-.351562-.265625-.46875-.125-.082031-.429688-.179688-.90625-.296875-.648438-.164063-1.09375-.304687-1.34375-.421875-.25-.125-.445312-.289062-.578125-.5-.125-.207031-.1875-.441406-.1875-.703125 0-.226563.050781-.441406.15625-.640625.113281-.195312.257813-.363281.4375-.5.132813-.09375.320313-.175781.5625-.25.238281-.070312.492187-.109375.765625-.109375.40625 0 .765625.0625 1.078125.1875.3125.117187.539063.273437.6875.46875.144531.199219.242187.46875.296875.8125l-.859375.109375c-.042969-.269531-.15625-.476562-.34375-.625-.1875-.144531-.453125-.21875-.796875-.21875-.40625 0-.699219.070312-.875.203125-.167969.125-.25.28125-.25.46875 0 .117187.035156.214844.109375.296875.070313.09375.179687.171875.328125.234375.09375.042969.351562.121094.78125.234375.625.167969 1.0625.304688 1.3125.40625.25.105469.441406.261719.578125.46875.144531.199219.21875.449219.21875.75 0 .292969-.089844.570312-.265625.828125-.167969.261719-.414062.464844-.734375.609375-.324219.1445312-.695313.21875-1.109375.21875-.679688 0-1.195312-.140625-1.546875-.421875-.355469-.28125-.578125-.703125-.671875-1.265625zm0 0"/></symbol><symbol id="o" overflow="visible"><path d="m4.0625-.640625c-.324219.28125-.640625.480469-.953125.59375-.304687.1132812-.625.171875-.96875.171875-.574219 0-1.015625-.140625-1.328125-.421875-.304688-.28125-.453125-.640625-.453125-1.078125 0-.25.054687-.476562.171875-.6875.125-.21875.28125-.390625.46875-.515625s.394531-.222656.625-.296875c.175781-.039062.4375-.082031.78125-.125.71875-.082031 1.242188-.1875 1.578125-.3125.007813-.113281.015625-.1875.015625-.21875 0-.363281-.085938-.617188-.25-.765625-.230469-.195313-.570312-.296875-1.015625-.296875-.417969 0-.726563.074219-.921875.21875-.199219.148438-.34375.402344-.4375.765625l-.859375-.109375c.082031-.375.210937-.671875.390625-.890625.175781-.226563.429688-.40625.765625-.53125.34375-.125.738281-.1875 1.1875-.1875.445313 0 .804687.054687 1.078125.15625.28125.105469.488281.242187.625.40625.132812.15625.226562.355469.28125.59375.019531.148437.03125.417969.03125.8125v1.171875c0 .824219.019531 1.34375.0625 1.5625.039062.21875.113281.429688.21875.625h-.921875c-.09375-.1875-.152344-.398438-.171875-.640625zm-.078125-1.96875c-.324219.125-.804687.234375-1.4375.328125-.367187.054688-.625.117188-.78125.1875-.148437.0625-.261719.15625-.34375.28125-.074219.125-.109375.265625-.109375.421875 0 .230469.085938.421875.265625.578125.175781.15625.4375.234375.78125.234375.332031 0 .628906-.070313.890625-.21875.269531-.144531.46875-.347656.59375-.609375.09375-.195312.140625-.492188.140625-.890625zm0 0"/></symbol><symbol id="p" overflow="visible"><path d="m.3125-2.15625v-.890625h2.71875v.890625zm0 0"/></symbol><symbol id="q" overflow="visible"><path d="m1.484375 0h-.828125v-7.1875h.890625v2.5625c.363281-.46875.835937-.703125 1.421875-.703125.320312 0 .625.070313.90625.203125.289062.125.523438.308594.703125.546875.1875.230469.332031.511719.4375.84375.101563.324219.15625.671875.15625 1.046875 0 .898438-.226563 1.589844-.671875 2.078125-.4375.492187-.964844.734375-1.578125.734375-.617187 0-1.09375-.257812-1.4375-.78125zm-.015625-2.640625c0 .625.082031 1.074219.25 1.34375.28125.460937.65625.6875 1.125.6875.382812 0 .71875-.164063 1-.5.28125-.332031.421875-.832031.421875-1.5 0-.675781-.136719-1.175781-.40625-1.5-.261719-.320313-.585937-.484375-.96875-.484375-.386719 0-.71875.167969-1 .5-.28125.335938-.421875.820312-.421875 1.453125zm0 0"/></symbol><symbol id="r" overflow="visible"><path d="m.65625-6.171875v-1.015625h.890625v1.015625zm-1.125 8.1875.171875-.75c.179687.050781.3164062.078125.421875.078125.175781 0 .304688-.0625.390625-.1875.09375-.117188.140625-.414062.140625-.890625v-5.46875h.890625v5.484375c0 .644531-.085937 1.09375-.25 1.34375-.21875.320312-.574219.484375-1.0625.484375-.23828125 0-.472656-.03125-.703125-.09375zm0 0"/></symbol><symbol id="s" overflow="visible"><path d="m4.0625-1.90625.875.109375c-.105469.605469-.355469 1.078125-.75 1.421875-.386719.3359375-.859375.5-1.421875.5-.71875 0-1.296875-.234375-1.734375-.703125-.429688-.46875-.640625-1.132813-.640625-2 0-.5625.09375-1.050781.28125-1.46875.1875-.425781.46875-.742187.84375-.953125.382813-.21875.800781-.328125 1.25-.328125.5625 0 1.019531.148437 1.375.4375.363281.28125.597656.6875.703125 1.21875l-.859375.125c-.085937-.351563-.230469-.613281-.4375-.78125-.199219-.175781-.449219-.265625-.75-.265625-.4375 0-.796875.164062-1.078125.484375-.28125.3125-.421875.8125-.421875 1.5 0 .699219.132813 1.210937.40625 1.53125.269531.3125.617187.46875 1.046875.46875.34375 0 .628906-.101563.859375-.3125.238281-.21875.390625-.546875.453125-.984375zm0 0"/></symbol><symbol id="t" overflow="visible"><path d="m.625 2-.09375-.828125c.1875.050781.351562.078125.5.078125.195312 0 .351562-.03125.46875-.09375.113281-.0625.210938-.152344.296875-.265625.050781-.09375.140625-.320313.265625-.671875.007812-.042969.035156-.109375.078125-.203125l-1.984375-5.21875h.953125l1.09375 3.015625c.132813.375.257813.777344.375 1.203125.101563-.40625.222656-.800781.359375-1.1875l1.109375-3.03125h.890625l-1.984375 5.296875c-.210937.570312-.375.960938-.5 1.171875-.15625.289063-.339844.503906-.546875.640625-.199219.132812-.4375.203125-.71875.203125-.167969 0-.355469-.039063-.5625-.109375zm0 0"/></symbol><symbol id="u" overflow="visible"><path d="m.578125-5.640625h2.25c.445313 0 .78125.023437 1 .0625.226563.03125.425781.105469.59375.21875.175781.117187.320313.273437.4375.46875.113281.199219.171875.417969.171875.65625 0 .273437-.074219.515625-.21875.734375-.136719.21875-.328125.386719-.578125.5.34375.105469.609375.277344.796875.515625.1875.242187.28125.523437.28125.84375 0 .261719-.0625.511719-.1875.75-.117188.242187-.277344.433594-.484375.578125-.210937.148438-.464844.2421875-.765625.28125-.1875.0234375-.648438.03125-1.375.03125h-1.921875zm1.140625.9375v1.296875h.75c.4375 0 .710938-.003906.828125-.015625.195313-.019531.347656-.085937.453125-.203125.113281-.113281.171875-.257812.171875-.4375 0-.175781-.046875-.316406-.140625-.421875-.09375-.113281-.242188-.179687-.4375-.203125-.117188-.007812-.4375-.015625-.96875-.015625zm0 2.234375v1.515625h1.0625c.40625 0 .664062-.007813.78125-.03125.164062-.03125.300781-.101563.40625-.21875.101562-.125.15625-.285156.15625-.484375 0-.175781-.042969-.320312-.125-.4375-.074219-.113281-.1875-.195312-.34375-.25-.15625-.0625-.496094-.09375-1.015625-.09375zm0 0"/></symbol><symbol id="v" overflow="visible"><path d="m1.84375 0v-4.6875h-1.671875v-.953125h4.484375v.953125h-1.671875v4.6875zm0 0"/></symbol><symbol id="w" overflow="visible"><path d="m.578125 0v-5.640625h1.828125c.6875 0 1.140625.027344 1.359375.078125.320313.085938.59375.273438.8125.5625.21875.28125.328125.648438.328125 1.09375 0 .34375-.070312.636719-.203125.875-.125.230469-.289063.414062-.484375.546875-.1875.136719-.382812.226563-.578125.265625-.273437.0625-.667969.09375-1.1875.09375h-.734375v2.125zm1.140625-4.6875v1.59375h.625c.445312 0 .742188-.023438.890625-.078125.15625-.0625.273437-.15625.359375-.28125.082031-.125.125-.269531.125-.4375 0-.207031-.0625-.378906-.1875-.515625-.117188-.132812-.261719-.21875-.4375-.25-.148438-.019531-.421875-.03125-.828125-.03125zm0 0"/></symbol><symbol id="x" overflow="visible"><path d="m1.375-2.84375-.984375-.171875c.113281-.394531.304687-.6875.578125-.875.269531-.195313.671875-.296875 1.203125-.296875.476563 0 .832031.058594 1.0625.171875.238281.117187.40625.261719.5.4375.101563.179687.15625.5.15625.96875l-.015625 1.265625c0 .355469.015625.621094.046875.796875.039063.167969.109375.351563.203125.546875h-1.078125c-.023437-.0703125-.054687-.175781-.09375-.3125-.023437-.070312-.039063-.117188-.046875-.140625-.1875.1875-.386719.328125-.59375.421875-.210938.0820312-.433594.125-.671875.125-.417969 0-.75-.1132812-1-.34375-.242187-.226562-.359375-.519531-.359375-.875 0-.226562.050781-.429688.15625-.609375.113281-.175781.269531-.3125.46875-.40625.195312-.101563.484375-.191406.859375-.265625.507813-.09375.863281-.179688 1.0625-.265625v-.109375c0-.207031-.054687-.351562-.15625-.4375-.105469-.09375-.296875-.140625-.578125-.140625-.199219 0-.355469.042969-.46875.125-.105469.074219-.1875.203125-.25.390625zm1.453125.875c-.148437.054688-.371094.109375-.671875.171875-.292969.0625-.484375.125-.578125.1875-.148437.105469-.21875.230469-.21875.375 0 .15625.054687.292969.171875.40625.113281.105469.257812.15625.4375.15625.1875 0 .375-.0625.5625-.1875.125-.101563.207031-.222656.25-.359375.03125-.09375.046875-.269531.046875-.53125zm0 0"/></symbol><symbol id="y" overflow="visible"><path d="m2.4375-4.09375v.859375h-.734375v1.65625c0 .335937.003906.53125.015625.59375.019531.054687.050781.09375.09375.125.050781.03125.113281.046875.1875.046875.101562 0 .25-.03125.4375-.09375l.09375.84375c-.25.1015625-.539062.15625-.859375.15625-.1875 0-.367187-.03125-.53125-.09375-.15625-.0703125-.273437-.160156-.34375-.265625-.074219-.101563-.121094-.242187-.140625-.421875-.03125-.125-.046875-.375-.046875-.75v-1.796875h-.484375v-.859375h.484375v-.8125l1.09375-.625v1.4375zm0 0"/></symbol><symbol id="z" overflow="visible"><path d="m4.140625-2.875-1.078125.1875c-.03125-.21875-.117188-.378906-.25-.484375-.125-.101563-.289062-.15625-.484375-.15625-.273437 0-.492187.09375-.65625.28125-.15625.179687-.234375.484375-.234375.921875 0 .492188.082031.835938.25 1.03125.164062.199219.382812.296875.65625.296875.207031 0 .375-.054687.5-.171875.132812-.113281.226562-.3125.28125-.59375l1.0625.171875c-.117188.492187-.328125.859375-.640625 1.109375s-.730469.375-1.25.375c-.605469 0-1.085937-.1875-1.4375-.5625-.355469-.382812-.53125-.910156-.53125-1.578125 0-.675781.175781-1.203125.53125-1.578125.363281-.375.847656-.5625 1.453125-.5625.5 0 .894531.109375 1.1875.328125.289062.210937.503906.539063.640625.984375zm0 0"/></symbol><symbol id="A" overflow="visible"><path d="m1.640625-5.640625v2.0625c.351563-.40625.769531-.609375 1.25-.609375.25 0 .472656.046875.671875.140625.207031.09375.359375.214844.453125.359375.101563.148438.171875.308594.203125.484375.039062.167969.0625.433594.0625.796875v2.40625h-1.078125v-2.15625c0-.4375-.023437-.710938-.0625-.828125-.042969-.113281-.117187-.203125-.21875-.265625-.105469-.070312-.234375-.109375-.390625-.109375-.179688 0-.339844.046875-.484375.140625-.136719.085938-.242187.214844-.3125.390625-.0625.179687-.09375.4375-.09375.78125v2.046875h-1.078125v-5.640625zm0 0"/></symbol><symbol id="B" overflow="visible"><path d="m2.9375-1.296875 1.078125.171875c-.136719.398438-.355469.699219-.65625.90625-.304687.2109375-.679687.3125-1.125.3125-.710937 0-1.234375-.234375-1.578125-.703125-.273438-.363281-.40625-.832031-.40625-1.40625 0-.675781.175781-1.207031.53125-1.59375.351562-.382813.800781-.578125 1.34375-.578125.613281 0 1.09375.203125 1.4375.609375.351562.398437.523438 1.011719.515625 1.84375h-2.71875c.007813.324219.097656.574219.265625.75.164062.179687.375.265625.625.265625.164062 0 .304688-.046875.421875-.140625.113281-.09375.203125-.238281.265625-.4375zm.0625-1.09375c-.011719-.3125-.09375-.550781-.25-.71875-.148438-.164063-.335938-.25-.5625-.25-.230469 0-.421875.089844-.578125.265625-.15625.167969-.234375.402344-.234375.703125zm0 0"/></symbol><symbol id="C" overflow="visible"><path d="m1.609375 0h-1.09375v-4.09375h1.015625v.578125c.164062-.269531.316406-.445313.453125-.53125.144531-.09375.300781-.140625.46875-.140625.25 0 .488281.070312.71875.203125l-.34375.953125c-.179687-.125-.34375-.1875-.5-.1875s-.289063.042969-.390625.125c-.105469.085938-.1875.234375-.25.453125-.054688.21875-.078125.679687-.078125 1.375zm0 0"/></symbol><symbol id="D" overflow="visible"><path d="m.5625 0v-1.078125h1.09375v1.078125zm0 0"/></symbol><symbol id="E" overflow="visible"><path d="m.53125-4.09375h1.015625v.609375c.125-.207031.296875-.375.515625-.5.226562-.132813.476562-.203125.75-.203125.476562 0 .882812.1875 1.21875.5625.332031.375.5.898438.5 1.5625 0 .679688-.167969 1.210938-.5 1.59375-.335938.375-.742188.5625-1.21875.5625-.230469 0-.4375-.0429688-.625-.125-.179688-.09375-.367188-.25-.5625-.46875v2.0625h-1.09375zm1.078125 1.984375c0 .460937.085937.796875.265625 1.015625.1875.21875.410156.328125.671875.328125.25 0 .457031-.097656.625-.296875.164063-.207031.25-.539062.25-1 0-.425781-.089844-.742188-.265625-.953125-.167969-.207031-.375-.3125-.625-.3125-.273438 0-.496094.105469-.671875.3125-.167969.199219-.25.5-.25.90625zm0 0"/></symbol><symbol id="F" overflow="visible"><path d="m.046875-4.09375h1.15625l.984375 2.90625.953125-2.90625h1.125l-1.453125 3.9375-.25.71875c-.09375.238281-.1875.421875-.28125.546875-.085938.125-.183594.222656-.296875.296875-.105469.082031-.242187.144531-.40625.1875-.167969.039062-.351563.0625-.546875.0625-.210938 0-.417969-.023438-.625-.0625l-.09375-.84375c.164062.03125.320312.046875.46875.046875.25 0 .429688-.074219.546875-.21875.125-.148437.21875-.335937.28125-.5625zm0 0"/></symbol><symbol id="G" overflow="visible"><path d="m.546875 0v-5.640625h1.140625v5.640625zm0 0"/></symbol><symbol id="H" overflow="visible"><path d="m4.28125 0h-1.078125v-2.09375c0-.4375-.027344-.71875-.078125-.84375-.042969-.132812-.117188-.238281-.21875-.3125-.105469-.070312-.230469-.109375-.375-.109375-.1875 0-.355469.054687-.5.15625-.148438.105469-.25.246094-.3125.421875-.054688.167969-.078125.476562-.078125.921875v1.859375h-1.078125v-4.09375h1v.609375c.351562-.46875.800781-.703125 1.34375-.703125.238281 0 .457031.046875.65625.140625.195312.085937.347656.195313.453125.328125.101563.125.171875.277344.203125.453125.039062.167969.0625.40625.0625.71875zm0 0"/></symbol><symbol id="I" overflow="visible"><path d="m.5625-4.640625v-1h1.09375v1zm0 4.640625v-4.09375h1.09375v4.09375zm0 0"/></symbol><symbol id="J" overflow="visible"><path d="m.3125-2.109375c0-.351563.085938-.695313.265625-1.03125.175781-.34375.425781-.601563.75-.78125.332031-.175781.695313-.265625 1.09375-.265625.625 0 1.128906.203125 1.515625.609375.394531.398437.59375.902344.59375 1.515625 0 .625-.199219 1.140625-.59375 1.546875-.398438.40625-.898438.609375-1.5.609375-.375 0-.734375-.0859375-1.078125-.25-.34375-.175781-.605469-.425781-.78125-.75-.179687-.332031-.265625-.734375-.265625-1.203125zm1.109375.0625c0 .40625.09375.71875.28125.9375.195313.210937.4375.3125.71875.3125s.515625-.101563.703125-.3125c.195312-.21875.296875-.53125.296875-.9375s-.101563-.710937-.296875-.921875c-.1875-.21875-.421875-.328125-.703125-.328125s-.523437.109375-.71875.328125c-.1875.210938-.28125.515625-.28125.921875zm0 0"/></symbol><symbol id="K" overflow="visible"/><symbol id="L" overflow="visible"><path d="m.578125 0v-5.640625h1.140625v2.21875h2.234375v-2.21875h1.140625v5.640625h-1.140625v-2.46875h-2.234375v2.46875zm0 0"/></symbol><symbol id="M" overflow="visible"><path d="m.53125 0v-5.640625h1.078125v2.984375l1.265625-1.4375h1.34375l-1.40625 1.5 1.5 2.59375h-1.171875l-1.03125-1.84375-.5.53125v1.3125zm0 0"/></symbol><symbol id="N" overflow="visible"><path d="m.1875-1.171875 1.078125-.15625c.050781.210937.144531.371094.28125.484375.144531.105469.34375.15625.59375.15625.28125 0 .492187-.050781.640625-.15625.09375-.070312.140625-.164062.140625-.28125 0-.082031-.027344-.15625-.078125-.21875-.054688-.039062-.171875-.085938-.359375-.140625-.875-.1875-1.429687-.359375-1.65625-.515625-.335937-.226562-.5-.535156-.5-.921875 0-.351563.140625-.648437.421875-.890625.28125-.25.71875-.375 1.3125-.375.550781 0 .960938.09375 1.234375.28125.28125.179688.472656.449219.578125.8125l-1.03125.1875c-.042969-.164062-.125-.289062-.25-.375-.117188-.082031-.289062-.125-.515625-.125-.28125 0-.484375.042969-.609375.125-.085938.054688-.125.125-.125.21875 0 .074219.035156.136719.109375.1875.09375.074219.425781.179688 1 .3125.582031.125.988281.289062 1.21875.484375.21875.1875.328125.453125.328125.796875 0 .375-.15625.699219-.46875.96875-.3125.2734375-.777344.40625-1.390625.40625-.554687 0-.996094-.109375-1.328125-.328125-.324219-.226563-.53125-.539063-.625-.9375zm0 0"/></symbol><symbol id="O" overflow="visible"><path d="m.8125 0v-4.203125h-.71875v-.640625h.71875v-.515625c0-.320313.023438-.5625.078125-.71875.082031-.207031.222656-.378906.421875-.515625.195312-.132812.476562-.203125.84375-.203125.226562 0 .484375.03125.765625.09375l-.125.703125c-.179687-.03125-.339844-.046875-.484375-.046875-.25 0-.429688.058594-.53125.171875-.105469.105469-.15625.304688-.15625.59375v.4375h.9375v.640625h-.9375v4.203125zm0 0"/></symbol><symbol id="P" overflow="visible"><path d="m.625-5.734375v-.9375h.8125v.9375zm0 5.734375v-4.84375h.8125v4.84375zm0 0"/></symbol><symbol id="Q" overflow="visible"><path d="m.609375 0v-4.84375h.734375v.734375c.1875-.34375.359375-.566406.515625-.671875.164063-.113281.34375-.171875.53125-.171875.28125 0 .5625.089844.84375.265625l-.28125.765625c-.199219-.113281-.402344-.171875-.609375-.171875-.179688 0-.339844.054688-.484375.15625-.136719.105469-.234375.257812-.296875.453125-.09375.292969-.140625.609375-.140625.953125v2.53125zm0 0"/></symbol><symbol id="R" overflow="visible"><path d="m.609375 0v-4.84375h.734375v.6875c.15625-.238281.359375-.429688.609375-.578125.25-.144531.535156-.21875.859375-.21875.363281 0 .660156.078125.890625.234375.226563.148438.390625.355469.484375.625.375-.570312.867188-.859375 1.484375-.859375.476563 0 .847656.136719 1.109375.40625.257812.261719.390625.667969.390625 1.21875v3.328125h-.8125v-3.046875c0-.320313-.03125-.554687-.09375-.703125-.054687-.144531-.148437-.257812-.28125-.34375-.136719-.09375-.296875-.140625-.484375-.140625-.34375 0-.632812.117187-.859375.34375-.21875.21875-.328125.578125-.328125 1.078125v2.8125h-.828125v-3.140625c0-.363281-.070313-.632813-.203125-.8125-.125-.1875-.34375-.28125-.65625-.28125-.230469 0-.445312.0625-.640625.1875-.1875.117187-.328125.292969-.421875.53125-.085938.230469-.125.5625-.125 1v2.515625zm0 0"/></symbol><symbol id="S" overflow="visible"><path d="m1.5 0-1.46875-4.84375h.84375l.765625 2.796875.296875 1.046875c.007812-.050781.09375-.382812.25-1l.765625-2.84375h.84375l.71875 2.8125.25.921875.265625-.9375.828125-2.796875h.796875l-1.5 4.84375h-.859375l-.765625-2.890625-.1875-.828125-.984375 3.71875zm0 0"/></symbol><symbol id="T" overflow="visible"><path d="m3.765625-.59375c-.304687.261719-.59375.445312-.875.546875-.28125.1015625-.585937.15625-.90625.15625-.53125 0-.9375-.1289062-1.21875-.390625-.28125-.257812-.421875-.59375-.421875-1 0-.226562.050781-.441406.15625-.640625.101562-.195313.242188-.351563.421875-.46875.175781-.125.375-.21875.59375-.28125.15625-.039063.394531-.078125.71875-.109375.664063-.082031 1.15625-.175781 1.46875-.28125 0-.113281 0-.1875 0-.21875 0-.332031-.078125-.566406-.234375-.703125-.210938-.1875-.515625-.28125-.921875-.28125-.386719 0-.671875.070313-.859375.203125-.1875.136719-.324219.375-.40625.71875l-.796875-.109375c.070313-.34375.191406-.617187.359375-.828125.164062-.21875.40625-.382812.71875-.5.3125-.113281.675781-.171875 1.09375-.171875.414062 0 .75.054687 1 .15625.257812.09375.453125.214844.578125.359375.125.148438.207031.335938.25.5625.03125.136719.046875.386719.046875.75v1.09375c0 .761719.015625 1.246094.046875 1.453125.039063.199219.113281.390625.21875.578125h-.859375c-.085938-.164062-.140625-.363281-.171875-.59375zm-.0625-1.828125c-.304687.117187-.75.214844-1.34375.296875-.335937.054688-.574219.109375-.71875.171875-.136719.0625-.242187.152344-.3125.265625-.074219.117188-.109375.246094-.109375.390625 0 .21875.078125.402344.234375.546875.164063.148438.410156.21875.734375.21875.3125 0 .585938-.066406.828125-.203125.25-.144531.4375-.335937.5625-.578125.082031-.175781.125-.445312.125-.8125zm0 0"/></symbol><symbol id="U" overflow="visible"><path d="m3.921875-1.5625.84375.109375c-.125.5-.371094.886719-.734375 1.15625-.367188.2734375-.828125.40625-1.390625.40625-.710937 0-1.273437-.21875-1.6875-.65625-.40625-.4375-.609375-1.046875-.609375-1.828125 0-.8125.207031-1.441406.625-1.890625.414062-.457031.957031-.6875 1.625-.6875.65625 0 1.1875.226563 1.59375.671875.40625.4375.609375 1.058594.609375 1.859375v.21875h-3.609375c.03125.53125.179688.9375.453125 1.21875.269531.28125.609375.421875 1.015625.421875.300781 0 .554688-.078125.765625-.234375.207031-.15625.375-.410156.5-.765625zm-2.6875-1.328125h2.703125c-.042969-.40625-.148438-.707031-.3125-.90625-.261719-.3125-.601562-.46875-1.015625-.46875-.375 0-.695313.125-.953125.375-.25.25-.390625.585937-.421875 1zm0 0"/></symbol><symbol id="V" overflow="visible"><path d="m.84375 0v-.9375h.9375v.9375zm0 0"/></symbol><symbol id="W" overflow="visible"><path d="m3.765625-1.765625.8125.09375c-.085937.5625-.308594 1-.671875 1.3125-.367188.3125-.8125.46875-1.34375.46875-.65625 0-1.1875-.210937-1.59375-.640625-.40625-.4375-.609375-1.0625-.609375-1.875 0-.519531.085937-.972656.265625-1.359375.175781-.394531.4375-.691406.78125-.890625.351562-.195312.738281-.296875 1.15625-.296875.53125 0 .960938.136719 1.296875.40625.332031.261719.546875.636719.640625 1.125l-.796875.125c-.074219-.320313-.210937-.5625-.40625-.71875-.1875-.164063-.421875-.25-.703125-.25-.40625 0-.742188.148437-1 .4375-.261719.292969-.390625.761719-.390625 1.40625 0 .648437.125 1.121094.375 1.421875.25.292969.578125.4375.984375.4375.3125 0 .578125-.097656.796875-.296875.21875-.195313.351563-.5.40625-.90625zm0 0"/></symbol><symbol id="X" overflow="visible"><path d="m.3125-2.421875c0-.894531.25-1.554687.75-1.984375.414062-.363281.921875-.546875 1.515625-.546875.664063 0 1.207031.21875 1.625.65625.425781.4375.640625 1.042969.640625 1.8125 0 .625-.09375 1.117187-.28125 1.46875-.1875.355469-.460938.632813-.8125.828125-.355469.1953125-.746094.296875-1.171875.296875-.679687 0-1.226563-.210937-1.640625-.640625-.417969-.4375-.625-1.066406-.625-1.890625zm.84375 0c0 .625.132812 1.09375.40625 1.40625.269531.304687.609375.453125 1.015625.453125s.742187-.15625 1.015625-.46875c.269531-.3125.40625-.785156.40625-1.421875 0-.59375-.136719-1.039063-.40625-1.34375-.273438-.3125-.609375-.46875-1.015625-.46875s-.746094.15625-1.015625.46875c-.273438.304687-.40625.761719-.40625 1.375zm0 0"/></symbol><symbol id="Y" overflow="visible"><path d="m.609375 1.859375v-6.703125h.75v.640625c.175781-.25.375-.4375.59375-.5625.226563-.125.5-.1875.8125-.1875.414063 0 .78125.109375 1.09375.328125.3125.210938.546875.511719.703125.90625.164062.386719.25.808594.25 1.265625 0 .492187-.089844.933594-.265625 1.328125-.179687.398438-.4375.703125-.78125.921875-.335937.20703125-.6875.3125-1.0625.3125-.273437 0-.515625-.0585938-.734375-.171875-.21875-.113281-.398438-.257812-.53125-.4375v2.359375zm.75-4.25c0 .625.125 1.089844.375 1.390625.25.292969.554687.4375.921875.4375.363281 0 .671875-.148438.921875-.453125.257813-.3125.390625-.789063.390625-1.4375 0-.625-.125-1.085937-.375-1.390625-.25-.300781-.554688-.453125-.90625-.453125-.355469 0-.667969.164063-.9375.484375-.261719.324219-.390625.796875-.390625 1.421875zm0 0"/></symbol><symbol id="Z" overflow="visible"><path d="m2.40625-.734375.109375.71875c-.230469.0507812-.433594.078125-.609375.078125-.304688 0-.539062-.046875-.703125-.140625-.15625-.09375-.273437-.210937-.34375-.359375-.0625-.15625-.09375-.484375-.09375-.984375v-2.78125h-.609375v-.640625h.609375v-1.1875l.8125-.5v1.6875h.828125v.640625h-.828125v2.828125c0 .242188.015625.398438.046875.46875.03125.0625.078125.117188.140625.15625.0625.03125.15625.046875.28125.046875.09375 0 .210937-.007813.359375-.03125zm0 0"/></symbol><symbol id="aa" overflow="visible"><path d="m.609375 0v-6.671875h.828125v2.390625c.382812-.445312.867188-.671875 1.453125-.671875.351563 0 .660156.074219.921875.21875.269531.148437.460938.34375.578125.59375.113281.242187.171875.601563.171875 1.078125v3.0625h-.828125v-3.0625c0-.414062-.089844-.710938-.265625-.890625-.179688-.1875-.429688-.28125-.75-.28125-.25 0-.484375.0625-.703125.1875-.210937.125-.359375.296875-.453125.515625-.085938.210938-.125.507812-.125.890625v2.640625zm0 0"/></symbol><symbol id="ab" overflow="visible"><path d="m.421875-2.140625.828125-.078125c.039062.335938.132812.609375.28125.828125.144531.210937.367188.382813.671875.515625.300781.136719.640625.203125 1.015625.203125.34375 0 .640625-.050781.890625-.15625.257813-.101563.453125-.238281.578125-.40625.125-.175781.1875-.367187.1875-.578125 0-.207031-.0625-.390625-.1875-.546875-.117188-.15625-.3125-.285156-.59375-.390625-.179688-.070312-.574219-.179688-1.1875-.328125-.617188-.144531-1.042969-.285156-1.28125-.421875-.324219-.164062-.5625-.367188-.71875-.609375-.15625-.25-.234375-.53125-.234375-.84375 0-.332031.09375-.644531.28125-.9375.195313-.289063.476563-.515625.84375-.671875.363281-.15625.773437-.234375 1.234375-.234375.488281 0 .921875.085937 1.296875.25.382813.15625.675781.390625.875.703125.207031.304688.316406.652344.328125 1.046875l-.84375.0625c-.042969-.414063-.199219-.734375-.46875-.953125-.261719-.21875-.648438-.328125-1.15625-.328125-.53125 0-.921875.101563-1.171875.296875-.242187.199219-.359375.433594-.359375.703125 0 .242187.082031.4375.25.59375.175781.15625.617188.320313 1.328125.484375.71875.15625 1.210937.296875 1.484375.421875.382812.179687.671875.40625.859375.6875.1875.273437.28125.585937.28125.9375 0 .355469-.105469.695313-.3125 1.015625-.199219.3125-.492187.558594-.875.734375-.375.1640625-.804687.25-1.28125.25-.605469 0-1.109375-.0898438-1.515625-.265625-.40625-.175781-.730469-.4375-.96875-.78125-.230469-.351562-.351562-.753906-.359375-1.203125zm0 0"/></symbol><symbol id="ac" overflow="visible"><path d="m1.375 0h-.765625v-6.671875h.828125v2.375c.34375-.4375.78125-.65625 1.3125-.65625.300781 0 .582031.0625.84375.1875.269531.117187.488281.28125.65625.5.175781.21875.3125.484375.40625.796875.101562.304688.15625.632812.15625.984375 0 .824219-.210938 1.464844-.625 1.921875-.40625.449219-.898438.671875-1.46875.671875-.574219 0-1.023438-.238281-1.34375-.71875zm-.015625-2.453125c0 .585937.078125 1 .234375 1.25.257812.429687.609375.640625 1.046875.640625.363281 0 .675781-.15625.9375-.46875.257813-.3125.390625-.773438.390625-1.390625 0-.632813-.125-1.097656-.375-1.390625-.25-.300781-.554688-.453125-.90625-.453125-.367188 0-.679688.15625-.9375.46875-.261719.304687-.390625.75-.390625 1.34375zm0 0"/></symbol><symbol id="ad" overflow="visible"><path d="m.59375 0v-6.671875h.828125v6.671875zm0 0"/></symbol><symbol id="ae" overflow="visible"><path d="m.609375 0v-4.84375h.75v.6875c.351563-.53125.863281-.796875 1.53125-.796875.289063 0 .554687.058594.796875.171875.25.105469.429688.242188.546875.40625.125.167969.210937.371094.265625.609375.03125.148437.046875.414063.046875.796875v2.96875h-.828125v-2.9375c0-.332031-.03125-.582031-.09375-.75-.0625-.164062-.179688-.296875-.34375-.390625-.15625-.101563-.34375-.15625-.5625-.15625-.34375 0-.648438.109375-.90625.328125-.25.21875-.375.640625-.375 1.265625v2.640625zm0 0"/></symbol><symbol id="af" overflow="visible"><path d="m.671875 0v-6.671875h1.28125v6.671875zm0 0"/></symbol><symbol id="ag" overflow="visible"><path d="m.671875-5.5v-1.171875h1.28125v1.171875zm0 5.5v-4.84375h1.28125v4.84375zm0 0"/></symbol><symbol id="ah" overflow="visible"><path d="m.609375 0v-6.671875h1.28125v2.40625c.394531-.457031.863281-.6875 1.40625-.6875.59375 0 1.082031.214844 1.46875.640625.382813.429688.578125 1.042969.578125 1.84375 0 .824219-.199219 1.460938-.59375 1.90625-.398438.449219-.875.671875-1.4375.671875-.273438 0-.542969-.0703125-.8125-.203125-.273438-.144531-.507812-.347656-.703125-.609375v.703125zm1.28125-2.515625c0 .5.078125.871094.234375 1.109375.21875.335938.507812.5.875.5.289062 0 .535156-.117188.734375-.359375.195313-.238281.296875-.617187.296875-1.140625 0-.550781-.105469-.945312-.3125-1.1875-.199219-.25-.453125-.375-.765625-.375-.304687 0-.558594.121094-.765625.359375-.199219.242187-.296875.605469-.296875 1.09375zm0 0"/></symbol><symbol id="ai" overflow="visible"><path d="m2.890625-4.84375v1.03125h-.875v1.9375c0 .398438.003906.632812.015625.703125.019531.0625.054688.117187.109375.15625.0625.042969.140625.0625.234375.0625.113281 0 .285156-.039063.515625-.125l.109375 1c-.304688.125-.640625.1875-1.015625.1875-.230469 0-.4375-.0390625-.625-.109375-.1875-.0820312-.328125-.179688-.421875-.296875-.085938-.125-.140625-.296875-.171875-.515625-.023437-.144531-.03125-.441406-.03125-.890625v-2.109375h-.59375v-1.03125h.59375v-.953125l1.28125-.75v1.703125zm0 0"/></symbol><symbol id="aj" overflow="visible"><path d="m5.109375 0h-1.1875v-.703125c-.199219.273437-.433594.476563-.703125.609375-.273438.1328125-.542969.203125-.8125.203125-.554688 0-1.03125-.222656-1.4375-.671875-.398438-.445312-.59375-1.070312-.59375-1.875 0-.820312.191406-1.445312.578125-1.875.394531-.425781.882813-.640625 1.46875-.640625.539063 0 1.007813.230469 1.40625.6875v-2.40625h1.28125zm-3.421875-2.515625c0 .511719.070312.882813.21875 1.109375.207031.335938.492188.5.859375.5.300781 0 .550781-.125.75-.375.207031-.25.3125-.625.3125-1.125 0-.550781-.101563-.945312-.296875-1.1875-.199219-.25-.453125-.375-.765625-.375-.304687 0-.558594.121094-.765625.359375-.210938.242187-.3125.605469-.3125 1.09375zm0 0"/></symbol><symbol id="ak" overflow="visible"><path d="m.578125-4.84375h1.171875v.671875c.425781-.519531.929688-.78125 1.515625-.78125.300781 0 .566406.070313.796875.203125.226562.125.414062.320312.5625.578125.21875-.257813.445312-.453125.6875-.578125.25-.132812.515625-.203125.796875-.203125.351563 0 .648437.074219.890625.21875.25.148437.4375.359375.5625.640625.082031.210938.125.542969.125 1v3.09375h-1.28125v-2.765625c0-.476563-.042969-.785156-.125-.921875-.125-.1875-.308594-.28125-.546875-.28125-.179687 0-.351563.058594-.515625.171875-.15625.105469-.273438.265625-.34375.484375-.0625.210938-.09375.539062-.09375.984375v2.328125h-1.28125v-2.65625c0-.46875-.027344-.769531-.078125-.90625-.042969-.132812-.109375-.234375-.203125-.296875-.09375-.070313-.226562-.109375-.390625-.109375-.199219 0-.375.058594-.53125.171875-.15625.105469-.273437.257813-.34375.453125-.0625.199219-.09375.53125-.09375 1v2.34375h-1.28125zm0 0"/></symbol><symbol id="al" overflow="visible"><path d="m-.09375 1.84375v-.828125h5.328125v.828125zm0 0"/></symbol><symbol id="am" overflow="visible"><path d="m1.625-3.359375-1.15625-.21875c.125-.457031.34375-.800781.65625-1.03125.320312-.226563.800781-.34375 1.4375-.34375.570312 0 .992188.070313 1.265625.203125.28125.136719.476563.308594.59375.515625.113281.210937.171875.59375.171875 1.15625l-.015625 1.484375c0 .429688.019531.746094.0625.953125.039063.199219.117187.414063.234375.640625h-1.265625c-.03125-.0820312-.074219-.207031-.125-.375-.023437-.070312-.039063-.125-.046875-.15625-.21875.21875-.453125.382812-.703125.484375-.25.1015625-.515625.15625-.796875.15625-.5 0-.898438-.1328125-1.1875-.40625-.28125-.269531-.421875-.613281-.421875-1.03125 0-.269531.0625-.507813.1875-.71875.132813-.21875.320313-.382813.5625-.5.238281-.113281.578125-.210937 1.015625-.296875.601562-.113281 1.019531-.21875 1.25-.3125v-.125c0-.25-.0625-.425781-.1875-.53125-.125-.101562-.355469-.15625-.6875-.15625-.230469 0-.40625.046875-.53125.140625-.125.085937-.230469.242187-.3125.46875zm1.71875 1.03125c-.167969.0625-.429688.132813-.78125.203125-.355469.074219-.589844.148438-.703125.21875-.167969.125-.25.277344-.25.453125 0 .179687.066406.335937.203125.46875.132812.125.304688.1875.515625.1875.226563 0 .445313-.070313.65625-.21875.15625-.113281.253906-.253906.296875-.421875.039062-.113281.0625-.320312.0625-.625zm0 0"/></symbol><symbol id="an" overflow="visible"><path d="m.640625-4.84375h1.1875v.71875c.15625-.238281.363281-.4375.625-.59375.257813-.15625.550781-.234375.875-.234375.5625 0 1.039063.226563 1.4375.671875.394531.4375.59375 1.046875.59375 1.828125 0 .8125-.199219 1.445313-.59375 1.890625-.398437.449219-.875.671875-1.4375.671875-.273437 0-.515625-.0546875-.734375-.15625-.21875-.101563-.449219-.285156-.6875-.546875v2.4375h-1.265625zm1.265625 2.34375c0 .542969.101562.945312.3125 1.203125.21875.261719.484375.390625.796875.390625.289063 0 .535156-.117188.734375-.359375.195312-.238281.296875-.628906.296875-1.171875 0-.507812-.105469-.882812-.3125-1.125-.199219-.25-.449219-.375-.75-.375-.3125 0-.574219.121094-.78125.359375-.199219.242187-.296875.601563-.296875 1.078125zm0 0"/></symbol><symbol id="ao" overflow="visible"><path d="m.671875 0v-1.28125h1.28125v1.28125zm0 0"/></symbol><symbol id="ap" overflow="visible"><path d="m.109375-4.84375h.703125v-.359375c0-.40625.039062-.707031.125-.90625.09375-.195313.253906-.359375.484375-.484375.238281-.132812.535156-.203125.890625-.203125.363281 0 .71875.058594 1.0625.171875l-.171875.890625c-.199219-.050781-.390625-.078125-.578125-.078125s-.324219.046875-.40625.140625c-.085938.085937-.125.25-.125.5v.328125h.96875v1.015625h-.96875v3.828125h-1.28125v-3.828125h-.703125zm0 0"/></symbol><symbol id="aq" overflow="visible"><path d="m1.890625 0h-1.28125v-4.84375h1.1875v.6875c.207031-.320312.390625-.535156.546875-.640625.164062-.101563.351562-.15625.5625-.15625.289062 0 .570312.085937.84375.25l-.390625 1.109375c-.21875-.132812-.421875-.203125-.609375-.203125-.179688 0-.328125.054687-.453125.15625-.125.09375-.226563.273437-.296875.53125-.074219.25-.109375.789063-.109375 1.609375zm0 0"/></symbol><symbol id="ar" overflow="visible"><path d="m1.578125 0-1.53125-4.84375h1.234375l.90625 3.171875.84375-3.171875h1.234375l.796875 3.171875.921875-3.171875h1.265625l-1.546875 4.84375h-1.234375l-.828125-3.109375-.828125 3.109375zm0 0"/></symbol><symbol id="as" overflow="visible"><path d="m3.46875-1.546875 1.28125.21875c-.167969.46875-.429688.828125-.78125 1.078125-.355469.2421875-.796875.359375-1.328125.359375-.84375 0-1.464844-.273437-1.859375-.828125-.324219-.4375-.484375-.988281-.484375-1.65625 0-.800781.207031-1.429688.625-1.890625.414063-.457031.945313-.6875 1.59375-.6875.71875 0 1.285156.242187 1.703125.71875.414062.480469.613281 1.210937.59375 2.1875h-3.203125c.007813.375.113281.671875.3125.890625.195313.210938.441406.3125.734375.3125.195312 0 .363281-.050781.5-.15625.132812-.113281.238281-.296875.3125-.546875zm.078125-1.28125c-.011719-.375-.109375-.65625-.296875-.84375-.179688-.195313-.398438-.296875-.65625-.296875-.28125 0-.511719.105469-.6875.3125-.1875.199219-.28125.476562-.28125.828125zm0 0"/></symbol><symbol id="at" overflow="visible"><path d="m.609375 0v-5.640625h2.125c.375 0 .660156.015625.859375.046875.28125.042969.515625.132812.703125.265625.1875.125.335937.308594.453125.546875.113281.230469.171875.484375.171875.765625 0 .480469-.15625.886719-.46875 1.21875-.304687.335937-.851563.5-1.640625.5h-1.453125v2.296875zm.75-2.96875h1.453125c.488281 0 .832031-.085938 1.03125-.265625.207031-.175781.3125-.425781.3125-.75 0-.238281-.0625-.441406-.1875-.609375-.117188-.164062-.273438-.28125-.46875-.34375-.125-.03125-.359375-.046875-.703125-.046875h-1.4375zm0 0"/></symbol><symbol id="au" overflow="visible"><path d="m3.1875-.5c-.25.21875-.496094.375-.734375.46875-.242187.0820312-.496094.125-.765625.125-.449219 0-.796875-.109375-1.046875-.328125-.242187-.21875-.359375-.5-.359375-.84375 0-.195313.046875-.378906.140625-.546875.09375-.164062.210937-.296875.359375-.390625.144531-.101563.3125-.179687.5-.234375.132812-.039062.335938-.078125.609375-.109375.5625-.0625.972656-.140625 1.234375-.234375.007812-.09375.015625-.15625.015625-.1875 0-.28125-.070313-.476562-.203125-.59375-.179688-.15625-.4375-.234375-.78125-.234375-.335938 0-.578125.058594-.734375.171875-.15625.117188-.273437.320312-.34375.609375l-.671875-.09375c.0625-.289063.160156-.523437.296875-.703125.144531-.175781.347656-.3125.609375-.40625.269531-.101562.582031-.15625.9375-.15625.351562 0 .632812.042969.84375.125.21875.085938.378906.1875.484375.3125.101563.125.175781.28125.21875.46875.019531.125.03125.339844.03125.640625v.921875c0 .648438.015625 1.058594.046875 1.234375.03125.167969.085938.328125.171875.484375h-.71875c-.074219-.144531-.121094-.3125-.140625-.5zm-.0625-1.546875c-.25.09375-.625.179687-1.125.25-.28125.042969-.484375.089844-.609375.140625-.117187.054688-.203125.132812-.265625.234375-.0625.09375-.09375.203125-.09375.328125 0 .179688.066406.328125.203125.453125.132813.125.335937.1875.609375.1875.269531 0 .507812-.054687.71875-.171875.207031-.113281.359375-.273438.453125-.484375.070313-.15625.109375-.382813.109375-.6875zm0 0"/></symbol><symbol id="av" overflow="visible"><path d="m2.03125-.625.109375.625c-.199219.03125-.375.046875-.53125.046875-.25 0-.449219-.0390625-.59375-.109375-.136719-.082031-.234375-.1875-.296875-.3125-.054688-.132812-.078125-.410156-.078125-.828125v-2.34375h-.5v-.546875h.5v-1.015625l.703125-.40625v1.421875h.6875v.546875h-.6875v2.390625c0 .199219.007812.328125.03125.390625.019531.054687.054688.09375.109375.125.0625.03125.144531.046875.25.046875.070313 0 .171875-.007812.296875-.03125zm0 0"/></symbol><symbol id="aw" overflow="visible"><path d="m3.1875-1.5.6875.09375c-.074219.46875-.265625.839844-.578125 1.109375-.304687.2617188-.679687.390625-1.125.390625-.5625 0-1.015625-.1796875-1.359375-.546875-.335938-.363281-.5-.890625-.5-1.578125 0-.4375.070312-.820312.21875-1.15625.144531-.332031.363281-.582031.65625-.75.300781-.164062.628906-.25.984375-.25.445313 0 .8125.117188 1.09375.34375.28125.21875.460937.539062.546875.953125l-.6875.109375c-.0625-.28125-.179688-.488281-.34375-.625-.15625-.132812-.351562-.203125-.578125-.203125-.355469 0-.640625.125-.859375.375s-.328125.648437-.328125 1.1875c0 .554687.101563.953125.3125 1.203125.21875.242188.492187.359375.828125.359375.269531 0 .492188-.082031.671875-.25.1875-.164063.304687-.421875.359375-.765625zm0 0"/></symbol><symbol id="ax" overflow="visible"><path d="m.515625 0v-5.640625h.703125v2.015625c.320312-.375.726562-.5625 1.21875-.5625.300781 0 .5625.0625.78125.1875.226562.117188.390625.28125.484375.5.101563.210938.15625.511719.15625.90625v2.59375h-.703125v-2.59375c0-.34375-.078125-.59375-.234375-.75-.148437-.164062-.355469-.25-.625-.25-.210937 0-.40625.058594-.59375.171875-.179687.105469-.304687.25-.375.4375-.074219.179687-.109375.429687-.109375.75v2.234375zm0 0"/></symbol><symbol id="ay" overflow="visible"><path d="m3.328125-1.3125.703125.078125c-.105469.429687-.3125.757813-.625.984375-.304688.2304688-.695312.34375-1.171875.34375-.59375 0-1.070313-.1796875-1.421875-.546875-.355469-.375-.53125-.894531-.53125-1.5625 0-.6875.175781-1.21875.53125-1.59375.363281-.382813.828125-.578125 1.390625-.578125.539063 0 .984375.1875 1.328125.5625.351562.375.53125.902344.53125 1.578125v.171875h-3.0625c.03125.460938.160156.808594.390625 1.046875.226563.230469.515625.34375.859375.34375.25 0 .460938-.0625.640625-.1875.175781-.132813.320313-.347656.4375-.640625zm-2.28125-1.125h2.28125c-.03125-.34375-.121094-.601562-.265625-.78125-.21875-.257812-.507812-.390625-.859375-.390625-.3125 0-.578125.109375-.796875.328125-.21875.210938-.339844.492188-.359375.84375zm0 0"/></symbol><symbol id="az" overflow="visible"><path d="m3.171875 0v-.515625c-.261719.40625-.640625.609375-1.140625.609375-.324219 0-.625-.08984375-.90625-.265625-.273438-.1875-.484375-.4375-.640625-.75-.148437-.320313-.21875-.695313-.21875-1.125 0-.40625.066406-.773437.203125-1.109375.132812-.332031.335938-.585938.609375-.765625.28125-.175781.585937-.265625.921875-.265625.25 0 .46875.054688.65625.15625.195312.105469.351562.242188.46875.40625v-2.015625h.6875v5.640625zm-2.1875-2.046875c0 .53125.109375.929687.328125 1.1875.21875.25.476562.375.78125.375.300781 0 .554688-.117187.765625-.359375.21875-.25.328125-.628906.328125-1.140625 0-.5625-.109375-.972656-.328125-1.234375-.21875-.257812-.484375-.390625-.796875-.390625-.304688 0-.558594.125-.765625.375-.210937.25-.3125.648437-.3125 1.1875zm0 0"/></symbol><symbol id="aA" overflow="visible"/><symbol id="aB" overflow="visible"><path d="m.578125 0v-5.640625h2.125c.425781 0 .769531.058594 1.03125.171875.257813.105469.460937.277344.609375.515625.144531.242187.21875.492187.21875.75 0 .242187-.070312.46875-.203125.6875-.125.210937-.320313.382813-.578125.515625.34375.09375.601562.265625.78125.515625.1875.242187.28125.523437.28125.84375 0 .273437-.058594.523437-.171875.75-.105469.21875-.242187.390625-.40625.515625-.167969.125-.375.21875-.625.28125s-.554687.09375-.90625.09375zm.75-3.28125h1.21875c.332031 0 .570313-.019531.71875-.0625.1875-.050781.328125-.140625.421875-.265625.09375-.132813.140625-.300781.140625-.5 0-.1875-.046875-.351563-.140625-.5-.085938-.144531-.210938-.242187-.375-.296875-.167969-.050781-.453125-.078125-.859375-.078125h-1.125zm0 2.609375h1.40625c.238281 0 .40625-.003906.5-.015625.175781-.03125.320313-.082031.4375-.15625.113281-.070312.207031-.175781.28125-.3125.070313-.144531.109375-.304688.109375-.484375 0-.207031-.054688-.390625-.15625-.546875-.105469-.15625-.257812-.265625-.453125-.328125-.1875-.0625-.464844-.09375-.828125-.09375h-1.296875zm0 0"/></symbol><symbol id="aC" overflow="visible"><path d="m2.046875 0v-4.984375h-1.859375v-.65625h4.46875v.65625h-1.859375v4.984375zm0 0"/></symbol><symbol id="aD" overflow="visible"><path d="m.640625 0v-5.640625h3.8125v.65625h-3.0625v1.75h2.65625v.671875h-2.65625v2.5625zm0 0"/></symbol><symbol id="aE" overflow="visible"><path d="m.53125-4.84375v-.796875h.6875v.796875zm0 4.84375v-4.09375h.6875v4.09375zm0 0"/></symbol><symbol id="aF" overflow="visible"><path d="m.515625 0v-4.09375h.625v.625c.15625-.289062.300781-.484375.4375-.578125.132813-.09375.28125-.140625.4375-.140625.238281 0 .476563.078125.71875.234375l-.234375.640625c-.167969-.101562-.339844-.15625-.515625-.15625-.148437 0-.28125.046875-.40625.140625-.117187.09375-.199219.21875-.25.375-.085937.25-.125.523437-.125.8125v2.140625zm0 0"/></symbol><symbol id="aG" overflow="visible"><path d="m.515625 0v-4.09375h.625v.578125c.125-.195313.289063-.359375.5-.484375.21875-.125.460937-.1875.734375-.1875.300781 0 .550781.0625.75.1875.195312.125.332031.304688.40625.53125.320312-.476562.742188-.71875 1.265625-.71875.40625 0 .71875.117188.9375.34375.21875.21875.328125.5625.328125 1.03125v2.8125h-.6875v-2.578125c0-.28125-.027344-.476563-.078125-.59375-.042969-.125-.121094-.222656-.234375-.296875-.117188-.070312-.257812-.109375-.421875-.109375-.28125 0-.523437.09375-.71875.28125-.1875.1875-.28125.496094-.28125.921875v2.375h-.6875v-2.65625c0-.3125-.058594-.539062-.171875-.6875-.117188-.15625-.296875-.234375-.546875-.234375-.199219 0-.382813.054687-.546875.15625-.167969.09375-.289062.242187-.359375.4375-.074219.199219-.109375.484375-.109375.859375v2.125zm0 0"/></symbol><symbol id="aH" overflow="visible"><path d="m1.28125 0-1.265625-4.09375h.71875l.65625 2.359375.25.890625c.007813-.050781.078125-.332031.203125-.84375l.65625-2.40625h.703125l.625 2.375.203125.78125.234375-.78125.703125-2.375h.671875l-1.28125 4.09375h-.71875l-.65625-2.453125-.15625-.6875-.828125 3.140625zm0 0"/></symbol><symbol id="aI" overflow="visible"><path d="m1.453125 0h-.984375v-3.734375h.921875v.53125c.15625-.25.296875-.410156.421875-.484375.125-.082031.265625-.125.421875-.125.226563 0 .445313.0625.65625.1875l-.3125.859375c-.167969-.101563-.320313-.15625-.453125-.15625-.148438 0-.265625.039063-.359375.109375-.09375.074219-.171875.210938-.234375.40625-.054688.199219-.078125.617188-.078125 1.25zm0 0"/></symbol><symbol id="aJ" overflow="visible"><path d="m-.0625 1.421875v-.640625h4.09375v.640625zm0 0"/></symbol><symbol id="aK" overflow="visible"><path d="m.515625 0v-5.140625h.984375v5.140625zm0 0"/></symbol><symbol id="aL" overflow="visible"><path d="m3.9375 0h-.921875v-.546875c-.148437.210937-.324219.367187-.53125.46875-.210937.1015625-.417969.15625-.625.15625-.4375 0-.808594-.171875-1.109375-.515625-.304688-.34375-.453125-.820312-.453125-1.4375 0-.632812.144531-1.113281.4375-1.4375.300781-.332031.675781-.5 1.125-.5.414063 0 .78125.171875 1.09375.515625v-1.84375h.984375zm-2.640625-1.9375c0 .398438.054687.683594.171875.859375.15625.261719.378906.390625.671875.390625.21875 0 .40625-.097656.5625-.296875.164063-.195313.25-.484375.25-.859375 0-.425781-.078125-.734375-.234375-.921875-.15625-.195313-.355469-.296875-.59375-.296875-.230469 0-.429688.09375-.59375.28125-.15625.1875-.234375.46875-.234375.84375zm0 0"/></symbol><symbol id="aM" overflow="visible"><path d="m1.25-2.59375-.890625-.15625c.101563-.363281.273437-.628906.515625-.796875.25-.175781.613281-.265625 1.09375-.265625.4375 0 .765625.054688.984375.15625.21875.105469.367187.242188.453125.40625.09375.15625.140625.449219.140625.875l-.015625 1.15625c0 .324219.015625.5625.046875.71875s.085937.324219.171875.5h-.96875c-.03125-.0625-.0625-.160156-.09375-.296875-.023438-.050781-.03125-.085937-.03125-.109375-.179688.167969-.359375.292969-.546875.375-.1875.0703125-.390625.109375-.609375.109375-.386719 0-.695312-.1015625-.921875-.3125-.21875-.207031-.328125-.46875-.328125-.78125 0-.207031.050781-.394531.15625-.5625.101562-.164063.242188-.289063.421875-.375.1875-.09375.445313-.171875.78125-.234375.46875-.082031.789063-.164062.96875-.25v-.09375c0-.1875-.046875-.320312-.140625-.40625-.09375-.082031-.273438-.125-.53125-.125-.179688 0-.320312.039062-.421875.109375-.09375.074219-.171875.195313-.234375.359375zm1.328125.796875c-.125.042969-.328125.09375-.609375.15625-.273438.0625-.449219.121094-.53125.171875-.125.09375-.1875.210938-.1875.34375 0 .148438.046875.273438.140625.375.101563.09375.238281.140625.40625.140625.175781 0 .34375-.054687.5-.171875.125-.09375.203125-.203125.234375-.328125.03125-.082031.046875-.242187.046875-.484375zm0 0"/></symbol><symbol id="aN" overflow="visible"><path d="m3.765625-2.625-.96875.171875c-.03125-.1875-.109375-.328125-.234375-.421875-.117188-.101562-.261719-.15625-.4375-.15625-.25 0-.449219.085938-.59375.25-.148438.167969-.21875.449219-.21875.84375 0 .449219.070312.765625.21875.953125.15625.179687.359375.265625.609375.265625.1875 0 .335937-.050781.453125-.15625.113281-.101562.195312-.285156.25-.546875l.96875.15625c-.105469.449219-.296875.789063-.578125 1.015625-.28125.21875-.664063.328125-1.140625.328125-.554688 0-.992188-.171875-1.3125-.515625-.324219-.34375-.484375-.816406-.484375-1.421875 0-.613281.160156-1.09375.484375-1.4375.332031-.34375.773438-.515625 1.328125-.515625.445313 0 .804687.101562 1.078125.296875.269531.199219.460938.496094.578125.890625zm0 0"/></symbol><symbol id="aO" overflow="visible"><path d="m2.21875-3.734375v.796875h-.671875v1.5c0 .304688.003906.480469.015625.53125.019531.054688.050781.09375.09375.125.050781.03125.109375.046875.171875.046875.09375 0 .222656-.03125.390625-.09375l.09375.765625c-.230469.09375-.492188.140625-.78125.140625-.179688 0-.339844-.0273438-.484375-.078125-.148437-.0625-.257813-.140625-.328125-.234375-.0625-.09375-.105469-.222656-.125-.390625-.023438-.113281-.03125-.34375-.03125-.6875v-1.625h-.453125v-.796875h.453125v-.734375l.984375-.578125v1.3125zm0 0"/></symbol><symbol id="aP" overflow="visible"><path d="m.046875 0 1.34375-1.921875-1.296875-1.8125h1.203125l.671875 1.03125.6875-1.03125h1.15625l-1.265625 1.765625 1.390625 1.96875h-1.21875l-.75-1.15625-.765625 1.15625zm0 0"/></symbol><symbol id="aQ" overflow="visible"><path d="m1.640625-.734375v-1.34375h-1.34375v-.921875h1.34375v-1.34375h.90625v1.34375h1.34375v.921875h-1.34375v1.34375zm0 0"/></symbol><symbol id="aR" overflow="visible"><path d="m3.640625-3.890625-.953125.109375c-.023438-.195312-.085938-.34375-.1875-.4375-.09375-.09375-.21875-.140625-.375-.140625-.210938 0-.386719.09375-.53125.28125-.148438.1875-.234375.578125-.265625 1.171875.238281-.289062.546875-.4375.921875-.4375.40625 0 .753906.15625 1.046875.46875.289063.3125.4375.71875.4375 1.21875 0 .53125-.15625.960938-.46875 1.28125-.304687.3125-.695313.46875-1.171875.46875-.523438 0-.949219-.203125-1.28125-.609375-.335938-.40625-.5-1.066406-.5-1.984375 0-.945312.171875-1.628906.515625-2.046875.34375-.414063.796875-.625 1.359375-.625.382812 0 .707031.109375.96875.328125.257812.21875.421875.539062.484375.953125zm-2.234375 2.15625c0 .324219.070312.574219.21875.75.15625.167969.328125.25.515625.25.175781 0 .328125-.066406.453125-.203125.125-.144531.1875-.378906.1875-.703125 0-.332031-.070312-.578125-.203125-.734375-.125-.15625-.289063-.234375-.484375-.234375-.199219 0-.367188.074219-.5.21875-.125.148437-.1875.367187-.1875.65625zm0 0"/></symbol><symbol id="aS" overflow="visible"><path d="m1.96875-5.171875c.5 0 .890625.183594 1.171875.546875.332031.417969.5 1.117188.5 2.09375 0 .96875-.167969 1.667969-.5 2.09375-.28125.3554688-.671875.53125-1.171875.53125s-.90625-.1914062-1.21875-.578125c-.304688-.382813-.453125-1.070313-.453125-2.0625 0-.96875.171875-1.664063.515625-2.09375.269531-.351563.65625-.53125 1.15625-.53125zm0 .828125c-.117188 0-.21875.039062-.3125.109375-.09375.074219-.167969.210937-.21875.40625-.074219.261719-.109375.695313-.109375 1.296875 0 .605469.03125 1.023438.09375 1.25.0625.21875.140625.367188.234375.4375.09375.074219.195312.109375.3125.109375.125 0 .234375-.035156.328125-.109375.09375-.070312.164063-.207031.21875-.40625.0625-.25.09375-.675781.09375-1.28125 0-.601562-.03125-1.019531-.09375-1.25-.0625-.226562-.140625-.378906-.234375-.453125-.085938-.070313-.1875-.109375-.3125-.109375zm0 0"/></symbol><symbol id="aT" overflow="visible"><path d="m.328125-1.1875.953125-.109375c.019531.199219.078125.34375.171875.4375.101563.09375.238281.140625.40625.140625.195313 0 .367187-.09375.515625-.28125.144531-.1875.234375-.578125.265625-1.171875-.242187.292969-.546875.4375-.921875.4375-.40625 0-.757812-.15625-1.046875-.46875-.292969-.3125-.4375-.71875-.4375-1.21875 0-.519531.148437-.941406.453125-1.265625.3125-.320312.707031-.484375 1.1875-.484375.519531 0 .945312.203125 1.28125.609375.332031.40625.5 1.074219.5 2 0 .9375-.171875 1.617188-.515625 2.03125-.34375.417969-.796875.625-1.359375.625-.40625 0-.734375-.1015625-.984375-.3125-.242187-.21875-.398437-.539062-.46875-.96875zm2.234375-2.15625c0-.320312-.074219-.566406-.21875-.734375-.148438-.175781-.320312-.265625-.515625-.265625-.179687 0-.328125.074219-.453125.21875-.117188.136719-.171875.371094-.171875.703125 0 .335937.0625.578125.1875.734375.132813.15625.300781.234375.5.234375.1875 0 .34375-.070313.46875-.21875.132813-.15625.203125-.378906.203125-.671875zm0 0"/></symbol><symbol id="aU" overflow="visible"><path d="m.078125-3.734375h.546875v-.28125c0-.3125.03125-.539063.09375-.6875.070312-.15625.195312-.28125.375-.375.1875-.101563.414062-.15625.6875-.15625.28125 0 .554688.042969.828125.125l-.140625.6875c-.15625-.03125-.308594-.046875-.453125-.046875-.148437 0-.25.03125-.3125.09375-.054687.0625-.078125.195312-.078125.390625v.25h.734375v.78125h-.734375v2.953125h-1v-2.953125h-.546875zm0 0"/></symbol><symbol id="aV" overflow="visible"><path d="m.4375-3.734375h.90625v.515625c.332031-.394531.722656-.59375 1.171875-.59375.238281 0 .441406.054688.609375.15625.175781.09375.320312.242188.4375.4375.164062-.195312.34375-.34375.53125-.4375.1875-.101562.390625-.15625.609375-.15625.269531 0 .5.058594.6875.171875.195313.105469.34375.265625.4375.484375.0625.15625.09375.414062.09375.765625v2.390625h-.984375v-2.125c0-.375-.03125-.613281-.09375-.71875-.09375-.144531-.234375-.21875-.421875-.21875-.148437 0-.28125.046875-.40625.140625-.117187.085937-.199219.210937-.25.375-.054687.15625-.078125.40625-.078125.75v1.796875h-.984375v-2.046875c0-.363281-.023437-.597656-.0625-.703125-.03125-.101562-.085937-.179688-.15625-.234375-.074219-.050781-.179687-.078125-.3125-.078125-.148437 0-.28125.042969-.40625.125-.117187.085938-.203125.203125-.265625.359375-.054688.15625-.078125.414063-.078125.765625v1.8125h-.984375zm0 0"/></symbol><symbol id="aW" overflow="visible"><path d="m2.671875-1.1875.984375.171875c-.125.355469-.324219.625-.59375.8125-.273438.1875-.617188.28125-1.03125.28125-.648438 0-1.125-.207031-1.4375-.625-.242188-.34375-.359375-.769531-.359375-1.28125 0-.625.160156-1.109375.484375-1.453125.320312-.351562.726562-.53125 1.21875-.53125.550781 0 .988281.183594 1.3125.546875.320312.367187.472656.929687.453125 1.6875h-2.46875c.007813.292969.085937.523437.234375.6875.15625.15625.347656.234375.578125.234375.15625 0 .285156-.039062.390625-.125.101562-.082031.179688-.21875.234375-.40625zm.0625-1c-.011719-.28125-.089844-.492188-.234375-.640625-.136719-.15625-.304688-.234375-.5-.234375-.21875 0-.398438.078125-.53125.234375-.148438.15625-.21875.371094-.21875.640625zm0 0"/></symbol><symbol id="aX" overflow="visible"><path d="m.515625-4.234375v-.90625h.984375v.90625zm0 4.234375v-3.734375h.984375v3.734375zm0 0"/></symbol><symbol id="aY" overflow="visible"><path d="m.171875-1.0625.984375-.15625c.039062.199219.125.351562.25.453125.132812.09375.316406.140625.546875.140625.257813 0 .453125-.046875.578125-.140625.082031-.0625.125-.148437.125-.265625 0-.070312-.023438-.132812-.0625-.1875-.054688-.039062-.164062-.082031-.328125-.125-.804687-.175781-1.308594-.335938-1.515625-.484375-.292969-.195313-.4375-.476563-.4375-.84375 0-.320313.125-.59375.375-.8125.257812-.21875.65625-.328125 1.1875-.328125.507812 0 .890625.085938 1.140625.25.25.167969.421875.414062.515625.734375l-.9375.171875c-.042969-.144531-.121094-.253906-.234375-.328125-.105469-.082031-.261719-.125-.46875-.125-.261719 0-.449219.039063-.5625.109375-.074219.054688-.109375.121094-.109375.203125 0 .074219.03125.136719.09375.1875.09375.0625.398438.15625.921875.28125.53125.117187.898437.257813 1.109375.421875.207031.179688.3125.421875.3125.734375 0 .34375-.148438.640625-.4375.890625-.28125.2421875-.703125.359375-1.265625.359375-.511719 0-.914063-.0976562-1.203125-.296875-.292969-.207031-.484375-.488281-.578125-.84375zm0 0"/></symbol><symbol id="aZ" overflow="visible"><path d="m.3125-4.15625v-.921875h3.359375v.71875c-.273437.273437-.554687.667969-.84375 1.1875-.292969.511719-.515625 1.054687-.671875 1.625-.148438.574219-.214844 1.089844-.203125 1.546875h-.953125c.007812-.707031.15625-1.429688.4375-2.171875.28125-.738281.648438-1.398437 1.109375-1.984375zm0 0"/></symbol><symbol id="a0" overflow="visible"><path d="m.265625-1.359375.953125-.125c.03125.25.113281.4375.25.5625.132812.125.296875.1875.484375.1875.207031 0 .378906-.070313.515625-.21875.132812-.15625.203125-.367187.203125-.640625 0-.238281-.070313-.429688-.203125-.578125-.125-.144531-.289062-.21875-.484375-.21875-.125 0-.277344.027344-.453125.078125l.109375-.8125c.269531.011719.472656-.046875.609375-.171875.144531-.125.21875-.285156.21875-.484375 0-.175781-.054688-.316406-.15625-.421875-.105469-.101563-.242188-.15625-.40625-.15625-.167969 0-.3125.0625-.4375.1875-.117188.117187-.1875.28125-.21875.5l-.90625-.15625c.0625-.300781.15625-.546875.28125-.734375.132812-.1875.3125-.332031.53125-.4375.226562-.113281.488281-.171875.78125-.171875.476562 0 .863281.15625 1.15625.46875.238281.25.359375.539063.359375.859375 0 .449219-.246094.808594-.734375 1.078125.289062.0625.523438.203125.703125.421875.175781.21875.265625.484375.265625.796875 0 .460937-.167969.851563-.5 1.171875-.324219.3125-.730469.46875-1.21875.46875-.46875 0-.859375-.1328125-1.171875-.40625-.304687-.269531-.480469-.617188-.53125-1.046875zm0 0"/></symbol><symbol id="a1" overflow="visible"><path d="m2.828125 0h-.984375v-3.71875c-.367188.335938-.792969.585938-1.28125.75v-.890625c.257812-.082031.539062-.242187.84375-.484375.300781-.238281.507812-.515625.625-.828125h.796875zm0 0"/></symbol><symbol id="a2" overflow="visible"><path d="m1.15625-2.78125c-.261719-.101562-.449219-.25-.5625-.4375-.117188-.1875-.171875-.394531-.171875-.625 0-.382812.128906-.703125.390625-.953125.269531-.25.65625-.375 1.15625-.375.488281 0 .867188.125 1.140625.375.269531.25.40625.570313.40625.953125 0 .242188-.0625.453125-.1875.640625s-.304687.328125-.53125.421875c.289063.117188.507813.289062.65625.515625.144531.21875.21875.46875.21875.75 0 .480469-.152344.871094-.453125 1.171875-.304688.2929688-.703125.4375-1.203125.4375-.46875 0-.859375-.125-1.171875-.375-.367188-.289062-.546875-.6875-.546875-1.1875 0-.28125.066406-.535156.203125-.765625.132812-.238281.351562-.421875.65625-.546875zm.203125-.984375c0 .199219.050781.355469.15625.46875.113281.105469.265625.15625.453125.15625s.332031-.054687.4375-.171875c.113281-.113281.171875-.265625.171875-.453125s-.058594-.335937-.171875-.453125c-.105469-.113281-.25-.171875-.4375-.171875s-.339844.058594-.453125.171875c-.105469.117188-.15625.265625-.15625.453125zm-.09375 2.203125c0 .273438.066406.484375.203125.640625.144531.148437.320312.21875.53125.21875.195312 0 .363281-.070313.5-.21875.132812-.144531.203125-.359375.203125-.640625 0-.238281-.070313-.429688-.203125-.578125-.136719-.144531-.308594-.21875-.515625-.21875-.242187 0-.421875.085937-.546875.25-.117188.167969-.171875.351563-.171875.546875zm0 0"/></symbol><symbol id="a3" overflow="visible"><path d="m0 .921875h1.765625v1.78125h-1.765625zm0 0"/></symbol><path d="m76.46875 61.621094h-75.390625c5.742187-20.105469 5.742187-40.207032 0-60.3125h75.390625c5.742188 20.105468 5.742188 40.207031 0 60.3125zm0 0" fill="#f8cecc" fill-opacity=".4"/><path d="m72.160156 61.980469h-2.152344v-.71875h2.152344zm-4.308594 0h-2.152343v-.71875h2.152343zm-4.308593 0h-2.152344v-.71875h2.152344zm-4.308594 0h-2.152344v-.71875h2.152344zm-4.308594 0h-2.152343v-.71875h2.152343zm-4.304687 0h-2.15625v-.71875h2.15625zm-4.308594 0h-2.15625v-.71875h2.15625zm-4.308594 0h-2.15625v-.71875h2.15625zm-4.308594 0h-2.152343v-.71875h2.152343zm-4.308593 0h-2.152344v-.71875h2.152344zm-4.308594 0h-2.152344v-.71875h2.152344zm-4.308594 0h-2.152343v-.71875h2.152343zm-4.304687 0h-2.15625v-.71875h2.15625zm-4.308594 0h-2.15625v-.71875h2.15625zm-4.308594 0h-2.15625v-.71875h2.15625zm-4.308594 0h-2.152343v-.71875h2.152343zm-4.308593 0h-2.152344v-.71875h2.152344zm-1.917969-2.558594c.183594-.699219.363281-1.398437.535156-2.097656l.699219.167969c-.175781.707031-.355469 1.410156-.542969 2.113281zm1.03125-4.199219c.15625-.699218.308594-1.398437.453125-2.097656l.703125.144531c-.144531.703125-.296875 1.40625-.457031 2.113281zm.863281-4.199218c.128907-.699219.253907-1.398438.371094-2.097657l.707031.117188c-.117187.703125-.242187 1.40625-.371094 2.113281zm.699219-4.199219c.101562-.710938.199219-1.421875.289062-2.132813l.710938.089844c-.089844.714844-.1875 1.433594-.292969 2.148438zm.535156-4.273438c.074219-.714843.144532-1.429687.203125-2.144531l.714844.0625c-.058594.71875-.128906 1.4375-.203125 2.15625zm.363282-4.285156c.046874-.710937.085937-1.425781.117187-2.140625l.71875.03125c-.03125.71875-.070313 1.4375-.117187 2.15625zm.191406-4.28125c.015625-.714844.027344-1.425781.027344-2.140625h.71875c0 .71875-.011719 1.4375-.027344 2.15625zm.015625-4.28125c-.011719-.714844-.03125-1.429687-.058594-2.144531l.71875-.023438c.027344.71875.046875 1.4375.058594 2.15625zm-.160157-4.285156c-.039062-.710938-.089843-1.425781-.144531-2.140625l.714844-.054688c.058594.71875.105469 1.4375.148437 2.15625zm-.332031-4.28125c-.070312-.714844-.148437-1.429688-.234375-2.140625l.714844-.085938c.085938.71875.164062 1.4375.234375 2.15625zm-.507812-4.28125c-.097657-.703125-.203125-1.40625-.3125-2.109375l.707031-.113282c.113281.707032.21875 1.414063.316406 2.121094zm-.667969-4.207031c-.125-.703126-.257812-1.402344-.398438-2.101563l.707032-.140625c.136718.707031.269531 1.410156.398437 2.113281zm-.835938-4.199219c-.152343-.703125-.3125-1.402344-.480468-2.101563l.699218-.167968c.167969.707031.328126 1.410156.484376 2.113281zm-1.003906-4.199219c-.179687-.699219-.367187-1.402344-.5625-2.101562l.691406-.191407c.195313.703125.386719 1.40625.566407 2.113281zm.964844-3.300781h2.15625v.71875h-2.15625zm4.308594 0h2.15625v.71875h-2.15625zm4.308594 0h2.152343v.71875h-2.152343zm4.308593 0h2.152344v.71875h-2.152344zm4.308594 0h2.152344v.71875h-2.152344zm4.308594 0h2.152343v.71875h-2.152343zm4.304687 0h2.15625v.71875h-2.15625zm4.308594 0h2.15625v.71875h-2.15625zm4.308594 0h2.15625v.71875h-2.15625zm4.308594 0h2.152343v.71875h-2.152343zm4.308593 0h2.152344v.71875h-2.152344zm4.308594 0h2.152344v.71875h-2.152344zm4.308594 0h2.152343v.71875h-2.152343zm4.304687 0h2.15625v.71875h-2.15625zm4.308594 0h2.15625v.71875h-2.15625zm4.308594 0h2.15625v.71875h-2.15625zm4.308594 0h2.152343v.71875h-2.152343zm4.308593 0h1.03125l.074219.261719c.128906.453124.257812.910156.382812 1.363281l-.695312.191406c-.121094-.453125-.246094-.90625-.378906-1.359375l.347656-.097656v.359375h-.761719zm2.042969 3.738281c.179688.703125.347656 1.410156.511719 2.113281l-.699219.164063c-.160156-.699219-.332031-1.402344-.507812-2.101563zm.984375 4.226562c.148437.703126.292969 1.410157.429687 2.113282l-.707031.136718c-.132812-.703124-.277343-1.402343-.425781-2.101562zm.816406 4.226563c.121094.703125.234375 1.40625.34375 2.113281l-.710937.109375c-.105469-.703125-.21875-1.402343-.339844-2.101562zm.648438 4.246094c.09375.71875.183593 1.4375.265625 2.15625l-.714844.078125c-.078125-.710938-.167969-1.425782-.261719-2.140625zm.484375 4.3125c.066406.71875.125 1.4375.179687 2.15625l-.71875.050781c-.050781-.714844-.109375-1.429688-.175781-2.140625zm.3125 4.308593c.035156.71875.066406 1.4375.085937 2.15625l-.714843.023438c-.023438-.714844-.054688-1.425781-.089844-2.140625zm.132812 4.3125c.007813.71875.007813 1.4375 0 2.15625l-.714844-.007812c.003907-.710938.003907-1.425781-.003906-2.140625zm-.042968 4.3125c-.019532.71875-.046876 1.4375-.085938 2.15625l-.714844-.035156c.035156-.714844.0625-1.429687.085938-2.140625zm-.214844 4.3125c-.050782.71875-.109375 1.4375-.175782 2.15625l-.714843-.066406c.066406-.714844.125-1.425781.175781-2.140625zm-.390625 4.3125c-.082031.71875-.167969 1.4375-.265625 2.152344l-.710938-.09375c.09375-.710937.179688-1.425781.261719-2.140625zm-.566407 4.289063c-.105468.707031-.222656 1.410156-.34375 2.113281l-.707031-.121094c.121094-.699218.234375-1.398437.339844-2.097656zm-.726562 4.226563c-.136719.707031-.277344 1.410156-.425781 2.113281l-.703125-.148438c.148437-.699219.289062-1.398437.421875-2.097656zm-.894531 4.226562c-.164063.703125-.332031 1.410156-.511719 2.113281l-.695312-.175781c.175781-.699219.34375-1.398438.507812-2.097656zm-1.0625 4.226562c-.136719.496094-.273438.996094-.417969 1.492188l-.074219.261719h-2.425781v-.71875h2.15625v.359375l-.347656-.097656c.144531-.496094.28125-.992188.414062-1.484376zm0 0" fill="#b85450" fill-opacity=".4"/><path d="m223.660156 41.875h71.800782l3.589843 7.179688-3.589843 7.179687h-71.800782l3.589844-7.179687zm0 0" fill="#d5e8d4" stroke="#82b366" stroke-miterlimit="10" stroke-width=".718009"/><path d="m238.738281.589844h60.3125c-4.785156 12.683594-4.785156 25.371094 0 38.054687h-60.3125c-4.785156-12.683593-4.785156-25.371093 0-38.054687zm0 0" fill="#dae8fc"/><path d="m243.046875.230469h2.152344v.71875h-2.152344zm4.308594 0h2.152343v.71875h-2.152343zm4.308593 0h2.152344v.71875h-2.152344zm4.304688 0h2.15625v.71875h-2.15625zm4.308594 0h2.15625v.71875h-2.15625zm4.308594 0h2.15625v.71875h-2.15625zm4.308593 0h2.152344v.71875h-2.152344zm4.308594 0h2.152344v.71875h-2.152344zm4.308594 0h2.152343v.71875h-2.152343zm4.308593 0h2.152344v.71875h-2.152344zm4.304688 0h2.15625v.71875h-2.15625zm4.308594 0h2.15625v.71875h-2.15625zm4.308594 0h2.15625v.71875h-2.15625zm4.644531.488281c-.257813.683594-.503907 1.371094-.734375 2.058594l-.679688-.230469c.230469-.695313.480469-1.390625.742188-2.082031zm-1.386719 4.117188c-.203125.6875-.390625 1.375-.5625 2.058593l-.699219-.175781c.179688-.695312.371094-1.390625.574219-2.085938zm-1.042969 4.121093c-.148437.695313-.285156 1.390625-.402343 2.085938l-.707032-.121094c.121094-.703125.253906-1.410156.40625-2.117187zm-.722656 4.214844c-.089844.710937-.167969 1.421875-.230469 2.128906l-.714844-.058593c.0625-.722657.140626-1.441407.234376-2.160157zm-.367187 4.261719c-.03125.707031-.046876 1.417968-.046876 2.128906l-.71875-.003906c0-.71875.015626-1.4375.046876-2.15625zm-.003907 4.257812c.027344.707032.074219 1.417969.132813 2.128906l-.714844.058594c-.0625-.71875-.105469-1.4375-.136719-2.160156zm.355469 4.257813c.089844.710937.195312 1.417969.316406 2.128906l-.707031.121094c-.121094-.71875-.230469-1.441407-.320313-2.160157zm.714844 4.222656c.144531.683594.300781 1.371094.476562 2.058594l-.699218.175781c-.175782-.695312-.335938-1.390625-.480469-2.085938zm1.035156 4.117187c.203125.683594.417969 1.371094.644531 2.058594l-.679687.226563c-.230469-.695313-.449219-1.390625-.652344-2.082031zm1.378906 4.121094.222656.59375h-2.558593v-.71875h2.039062v.359375l-.335937.125-.042969-.109375zm-4.492187.59375h-2.152344v-.71875h2.152344zm-4.308594 0h-2.152344v-.71875h2.152344zm-4.304687 0h-2.15625v-.71875h2.15625zm-4.308594 0h-2.15625v-.71875h2.15625zm-4.308594 0h-2.15625v-.71875h2.15625zm-4.308594 0h-2.152344v-.71875h2.152344zm-4.308594 0h-2.152343v-.71875h2.152343zm-4.308593 0h-2.152344v-.71875h2.152344zm-4.308594 0h-2.152344v-.71875h2.152344zm-4.304687 0h-2.15625v-.71875h2.15625zm-4.308594 0h-2.15625v-.71875h2.15625zm-4.308594 0h-2.15625v-.71875h2.15625zm-4.308594 0h-2.152344v-.71875h2.152344zm-4.308594 0h-.363281l-.085937-.234375c-.25-.65625-.484375-1.3125-.707032-1.972656l.679688-.230469c.222656.652344.453125 1.300782.699219 1.953125l-.335938.125v-.359375h.113281zm-1.820312-4.292968c-.207031-.695313-.398438-1.390626-.574219-2.085938l.695313-.179688c.175781.6875.363281 1.375.570312 2.0625zm-1.066406-4.171876c-.152344-.703124-.289063-1.410156-.410156-2.113281l.707031-.121093c.121093.695312.253906 1.386718.402343 2.082031zm-.742188-4.273437c-.09375-.71875-.171875-1.4375-.234375-2.15625l.714844-.066406c.0625.710937.140625 1.421875.234375 2.132812zm-.378906-4.316406c-.035156-.722657-.050781-1.441407-.054688-2.160157l.71875-.003906c0 .710938.019532 1.421875.050782 2.128906zm-.015625-4.320313c.027344-.71875.070313-1.441406.128906-2.160156l.71875.058594c-.058593.710937-.101562 1.421875-.128906 2.128906zm.351563-4.320312c.089843-.71875.195312-1.4375.316406-2.160156l.707031.121093c-.117187.707031-.222656 1.417969-.308594 2.128907zm.714843-4.28125c.144531-.695313.304688-1.390625.476563-2.085938l.695312.171875c-.167968.6875-.328125 1.375-.46875 2.058594zm1.039063-4.171875c.203125-.695313.421875-1.390625.652344-2.085938l.679687.226563c-.226563.6875-.441406 1.371094-.640625 2.058594zm1.386718-4.171875.167969-.453125h2.402344v.71875h-2.152344v-.359375l.335938.125-.082031.21875zm0 0" fill="#6c8ebf"/><path d="m191.347656 11.71875h-14.359375 14.359375-9.785156" fill="none" stroke="#000" stroke-miterlimit="10" stroke-width=".718009"/><path d="m177.792969 11.71875 5.027343-2.511719-1.257812 2.511719 1.257812 2.511719zm0 0" stroke="#000" stroke-miterlimit="10" stroke-width=".718009"/><path d="m191.347656.949219h46.671875v21.539062h-46.671875zm0 0" fill="#dae8fc" stroke="#6c8ebf" stroke-width=".718009"/><g><use x="194.210337" xlink:href="#a" y="15.668245"/><use x="201.467976" xlink:href="#b" y="15.668245"/><use x="207.056962" xlink:href="#c" y="15.668245"/><use x="215.430388" xlink:href="#d" y="15.668245"/><use x="221.019373" xlink:href="#e" y="15.668245"/><use x="223.250946" xlink:href="#f" y="15.668245"/><use x="225.48252" xlink:href="#g" y="15.668245"/><use x="231.071505" xlink:href="#h" y="15.668245"/></g><path d="m144.679688 11.71875h-6.195313" fill="none" stroke="#000" stroke-miterlimit="10" stroke-width=".718009"/><path d="m134.714844 11.71875 5.023437-2.511719-1.253906 2.511719 1.253906 2.511719zm0 0" stroke="#000" stroke-miterlimit="10" stroke-width=".718009"/><path d="m144.679688.949219h32.308593v21.539062h-32.308593zm0 0" fill="#fff" stroke="#000" stroke-width=".718009"/><g><use x="146.776838" xlink:href="#i" y="15.668245"/><use x="152.365823" xlink:href="#e" y="15.668245"/><use x="154.597397" xlink:href="#j" y="15.668245"/><use x="160.186382" xlink:href="#k" y="15.668245"/><use x="165.212448" xlink:href="#g" y="15.668245"/><use x="170.801433" xlink:href="#h" y="15.668245"/></g><path d="m130.320312 49.054688h8.347657" fill="none" stroke="#000" stroke-miterlimit="10" stroke-width=".718009"/><path d="m142.4375 49.054688-5.023438 2.515624 1.253907-2.515624-1.253907-2.511719zm0 0" stroke="#000" stroke-miterlimit="10" stroke-width=".718009"/><path d="m76.46875 41.875h53.851562v14.359375h-53.851562zm0 0" fill="#f8cecc" stroke="#b85450" stroke-width=".718009"/><g><use x="77.791835" xlink:href="#u" y="51.568717"/><use x="83.494266" xlink:href="#v" y="51.568717"/><use x="88.31211" xlink:href="#w" y="51.568717"/><use x="93.572247" xlink:href="#x" y="51.568717"/><use x="97.963593" xlink:href="#y" y="51.568717"/><use x="100.593661" xlink:href="#z" y="51.568717"/><use x="104.985007" xlink:href="#A" y="51.568717"/><use x="109.802851" xlink:href="#B" y="51.568717"/><use x="114.194196" xlink:href="#C" y="51.568717"/></g><g><use x="116.832163" xlink:href="#D" y="51.568717"/><use x="119.019938" xlink:href="#E" y="51.568717"/><use x="123.837781" xlink:href="#F" y="51.568717"/></g><g><use x="240.196593" xlink:href="#O" y="9.92417"/><use x="242.782145" xlink:href="#P" y="9.92417"/><use x="244.85432" xlink:href="#Q" y="9.92417"/><use x="247.962583" xlink:href="#R" y="9.92417"/><use x="255.737908" xlink:href="#S" y="9.92417"/><use x="262.477145" xlink:href="#T" y="9.92417"/><use x="267.666917" xlink:href="#Q" y="9.92417"/><use x="270.77518" xlink:href="#U" y="9.92417"/><use x="275.964952" xlink:href="#V" y="9.92417"/><use x="278.550504" xlink:href="#W" y="9.92417"/></g><g fill="#c00"><g><use x="240.219031" xlink:href="#Q" y="27.156396"/><use x="243.327294" xlink:href="#X" y="27.156396"/><use x="248.517066" xlink:href="#R" y="27.156396"/><use x="256.292391" xlink:href="#Y" y="27.156396"/><use x="261.482163" xlink:href="#T" y="27.156396"/><use x="266.671936" xlink:href="#Z" y="27.156396"/><use x="269.257488" xlink:href="#W" y="27.156396"/><use x="273.924549" xlink:href="#aa" y="27.156396"/><use x="279.114322" xlink:href="#U" y="27.156396"/><use x="284.304094" xlink:href="#Q" y="27.156396"/></g><g><use x="286.89898" xlink:href="#V" y="27.156396"/><use x="289.484532" xlink:href="#aa" y="27.156396"/></g><g><use x="240.420971" xlink:href="#Q" y="35.77251"/><use x="243.529234" xlink:href="#X" y="35.77251"/><use x="248.719006" xlink:href="#R" y="35.77251"/><use x="256.494331" xlink:href="#Y" y="35.77251"/><use x="261.684103" xlink:href="#T" y="35.77251"/><use x="266.873876" xlink:href="#Z" y="35.77251"/><use x="269.459428" xlink:href="#W" y="35.77251"/><use x="274.126489" xlink:href="#aa" y="35.77251"/><use x="279.316262" xlink:href="#U" y="35.77251"/><use x="284.506034" xlink:href="#Q" y="35.77251"/></g><g><use x="287.10092" xlink:href="#V" y="35.77251"/><use x="289.686472" xlink:href="#ab" y="35.77251"/></g></g><g><use x="240.53316" xlink:href="#ac" y="18.540283"/><use x="245.722932" xlink:href="#Z" y="18.540283"/><use x="248.308484" xlink:href="#ad" y="18.540283"/><use x="250.38066" xlink:href="#P" y="18.540283"/><use x="252.452835" xlink:href="#ac" y="18.540283"/><use x="257.642607" xlink:href="#V" y="18.540283"/><use x="260.22816" xlink:href="#aa" y="18.540283"/></g><path d="m170.527344 32.902344h-9.691406v-5.839844" fill="none" stroke="#000" stroke-miterlimit="10" stroke-width=".718009"/><path d="m160.835938 23.292969 2.511718 5.027343-2.511718-1.257812-2.515626 1.257812zm0 0" stroke="#000" stroke-miterlimit="10" stroke-width=".718009"/><g><use x="171.604255" xlink:href="#af" y="35.772509"/><use x="174.189807" xlink:href="#ag" y="35.772509"/><use x="176.775359" xlink:href="#ah" y="35.772509"/><use x="182.469174" xlink:href="#ah" y="35.772509"/><use x="188.162989" xlink:href="#ai" y="35.772509"/><use x="191.271252" xlink:href="#aj" y="35.772509"/><use x="196.965067" xlink:href="#ak" y="35.772509"/><use x="205.263103" xlink:href="#al" y="35.772509"/><use x="210.452875" xlink:href="#am" y="35.772509"/><use x="215.642647" xlink:href="#an" y="35.772509"/><use x="221.336462" xlink:href="#an" y="35.772509"/><use x="227.030277" xlink:href="#ao" y="35.772509"/><use x="229.615829" xlink:href="#am" y="35.772509"/></g><path d="m103.609375 15.09375v18.164062l-.273437 4.058594" fill="none" stroke="#000" stroke-miterlimit="10" stroke-width=".718009"/><path d="m103.085938 41.070312-2.167969-5.175781 2.417969 1.421875 2.59375-1.089844zm0 0" stroke="#000" stroke-miterlimit="10" stroke-width=".718009"/><g><use x="81.853075" xlink:href="#ap" y="14.232226"/><use x="84.961338" xlink:href="#ag" y="14.232226"/><use x="87.54689" xlink:href="#aq" y="14.232226"/><use x="91.177864" xlink:href="#ak" y="14.232226"/><use x="99.475899" xlink:href="#ar" y="14.232226"/><use x="106.728513" xlink:href="#am" y="14.232226"/><use x="111.918285" xlink:href="#aq" y="14.232226"/><use x="115.549259" xlink:href="#as" y="14.232226"/><use x="120.739031" xlink:href="#ao" y="14.232226"/><use x="123.324583" xlink:href="#as" y="14.232226"/><use x="128.514356" xlink:href="#af" y="14.232226"/><use x="131.099908" xlink:href="#ap" y="14.232226"/></g><path d="m215.042969 49.054688h18.402343" fill="none" stroke="#000" stroke-miterlimit="10" stroke-width=".718009"/><path d="m237.214844 49.054688-5.023438 2.515624 1.253906-2.515624-1.253906-2.511719zm0 0" stroke="#000" stroke-miterlimit="10" stroke-width=".718009"/><path d="m143.242188 41.875h71.800781v14.359375h-71.800781zm0 0" fill="#fff" stroke="#000" stroke-width=".718009"/><g><use x="144.970592" xlink:href="#l" y="53.004736"/><use x="149.996658" xlink:href="#m" y="53.004736"/><use x="152.781099" xlink:href="#g" y="53.004736"/><use x="158.370084" xlink:href="#j" y="53.004736"/><use x="163.959069" xlink:href="#n" y="53.004736"/><use x="168.985135" xlink:href="#o" y="53.004736"/><use x="174.574121" xlink:href="#p" y="53.004736"/><use x="177.921481" xlink:href="#b" y="53.004736"/><use x="183.510466" xlink:href="#q" y="53.004736"/><use x="189.099451" xlink:href="#r" y="53.004736"/><use x="191.331025" xlink:href="#s" y="53.004736"/><use x="196.357091" xlink:href="#b" y="53.004736"/><use x="201.946076" xlink:href="#d" y="53.004736"/><use x="207.535062" xlink:href="#t" y="53.004736"/></g><g><use x="239.097142" xlink:href="#O" y="52.286726"/><use x="241.682694" xlink:href="#P" y="52.286726"/><use x="243.754869" xlink:href="#Q" y="52.286726"/><use x="246.863132" xlink:href="#R" y="52.286726"/><use x="254.638457" xlink:href="#S" y="52.286726"/><use x="261.377694" xlink:href="#T" y="52.286726"/><use x="266.567466" xlink:href="#Q" y="52.286726"/><use x="269.675729" xlink:href="#U" y="52.286726"/><use x="274.865501" xlink:href="#V" y="52.286726"/><use x="277.451053" xlink:href="#ac" y="52.286726"/><use x="282.640826" xlink:href="#P" y="52.286726"/><use x="284.713001" xlink:href="#ae" y="52.286726"/></g><g fill="#006934"><use x="216.838849" xlink:href="#at" y="63.056868"/><use x="222.098986" xlink:href="#au" y="63.056868"/><use x="226.490332" xlink:href="#av" y="63.056868"/><use x="228.678107" xlink:href="#aw" y="63.056868"/><use x="232.627159" xlink:href="#ax" y="63.056868"/><use x="237.018505" xlink:href="#ay" y="63.056868"/><use x="241.409851" xlink:href="#az" y="63.056868"/><use x="245.801196" xlink:href="#aA" y="63.056868"/><use x="247.988971" xlink:href="#aB" y="63.056868"/><use x="253.249108" xlink:href="#aC" y="63.056868"/><use x="258.066952" xlink:href="#aA" y="63.056868"/><use x="260.254727" xlink:href="#aD" y="63.056868"/><use x="265.07257" xlink:href="#aE" y="63.056868"/><use x="266.825949" xlink:href="#aF" y="63.056868"/><use x="269.456018" xlink:href="#aG" y="63.056868"/><use x="276.035138" xlink:href="#aH" y="63.056868"/><use x="281.73757" xlink:href="#au" y="63.056868"/><use x="286.128915" xlink:href="#aF" y="63.056868"/><use x="288.758984" xlink:href="#ay" y="63.056868"/></g><g fill="#c00"><use x="4.308057" xlink:href="#G" y="9.20616"/><use x="6.495832" xlink:href="#H" y="9.20616"/><use x="11.313675" xlink:href="#y" y="9.20616"/><use x="13.943744" xlink:href="#B" y="9.20616"/><use x="18.33509" xlink:href="#C" y="9.20616"/><use x="21.407452" xlink:href="#z" y="9.20616"/><use x="25.798798" xlink:href="#B" y="9.20616"/><use x="30.190144" xlink:href="#E" y="9.20616"/><use x="35.007987" xlink:href="#y" y="9.20616"/><use x="37.638056" xlink:href="#I" y="9.20616"/><use x="39.825831" xlink:href="#J" y="9.20616"/><use x="44.643674" xlink:href="#H" y="9.20616"/><use x="49.461518" xlink:href="#K" y="9.20616"/><use x="51.649292" xlink:href="#L" y="9.20616"/><use x="57.351723" xlink:href="#J" y="9.20616"/><use x="62.169567" xlink:href="#J" y="9.20616"/><use x="66.98741" xlink:href="#M" y="9.20616"/><use x="71.378756" xlink:href="#N" y="9.20616"/></g><g><use x="6.462085" xlink:href="#aI" y="25.720377"/><use x="9.255142" xlink:href="#aJ" y="25.720377"/><use x="13.247274" xlink:href="#aK" y="25.720377"/><use x="15.23616" xlink:href="#aL" y="25.720377"/><use x="19.616017" xlink:href="#aJ" y="25.720377"/><use x="23.608149" xlink:href="#aM" y="25.720377"/><use x="27.600282" xlink:href="#aN" y="25.720377"/><use x="31.592414" xlink:href="#aK" y="25.720377"/><use x="33.5813" xlink:href="#aJ" y="25.720377"/><use x="37.573432" xlink:href="#aL" y="25.720377"/><use x="41.95329" xlink:href="#aM" y="25.720377"/><use x="45.945422" xlink:href="#aO" y="25.720377"/><use x="48.336393" xlink:href="#aM" y="25.720377"/><use x="52.328525" xlink:href="#aJ" y="25.720377"/><use x="56.320658" xlink:href="#aO" y="25.720377"/><use x="58.711629" xlink:href="#aP" y="25.720377"/><use x="62.703761" xlink:href="#aQ" y="25.720377"/><use x="66.889756" xlink:href="#aR" y="25.720377"/><use x="70.881888" xlink:href="#aS" y="25.720377"/><use x="74.874021" xlink:href="#aT" y="25.720377"/></g><g><use x="6.462085" xlink:href="#aI" y="34.33649"/><use x="9.255142" xlink:href="#aJ" y="34.33649"/><use x="13.247274" xlink:href="#aK" y="34.33649"/><use x="15.23616" xlink:href="#aL" y="34.33649"/><use x="19.616017" xlink:href="#aJ" y="34.33649"/><use x="23.608149" xlink:href="#aU" y="34.33649"/><use x="25.999121" xlink:href="#aI" y="34.33649"/><use x="28.792177" xlink:href="#aM" y="34.33649"/><use x="32.78431" xlink:href="#aV" y="34.33649"/><use x="39.167413" xlink:href="#aW" y="34.33649"/><use x="43.159545" xlink:href="#aJ" y="34.33649"/><use x="47.151678" xlink:href="#aX" y="34.33649"/><use x="49.140564" xlink:href="#aY" y="34.33649"/><use x="53.132696" xlink:href="#aI" y="34.33649"/><use x="55.925753" xlink:href="#aQ" y="34.33649"/><use x="60.111747" xlink:href="#aZ" y="34.33649"/><use x="64.10388" xlink:href="#aS" y="34.33649"/></g><g><use x="6.462085" xlink:href="#aI" y="42.952603"/><use x="9.255142" xlink:href="#aJ" y="42.952603"/><use x="13.247274" xlink:href="#aK" y="42.952603"/><use x="15.23616" xlink:href="#aL" y="42.952603"/><use x="19.616017" xlink:href="#aJ" y="42.952603"/><use x="23.608149" xlink:href="#aU" y="42.952603"/><use x="25.999121" xlink:href="#aI" y="42.952603"/><use x="28.792177" xlink:href="#aM" y="42.952603"/><use x="32.78431" xlink:href="#aV" y="42.952603"/><use x="39.167413" xlink:href="#aW" y="42.952603"/><use x="43.159545" xlink:href="#aJ" y="42.952603"/><use x="47.151678" xlink:href="#aX" y="42.952603"/><use x="49.140564" xlink:href="#aY" y="42.952603"/><use x="53.132696" xlink:href="#aI" y="42.952603"/><use x="55.925753" xlink:href="#aQ" y="42.952603"/><use x="60.111747" xlink:href="#a0" y="42.952603"/><use x="64.10388" xlink:href="#a1" y="42.952603"/><use x="68.096012" xlink:href="#a2" y="42.952603"/></g><g><use x="39.490518" xlink:href="#a3" y="45.465637"/><use x="39.490518" xlink:href="#a3" y="49.045632"/><use x="39.490518" xlink:href="#a3" y="52.625627"/><use x="39.490518" xlink:href="#a3" y="56.205622"/></g></svg>