<svg height="146.126pt" viewBox="0 0 395.588 146.126" width="395.588pt" xmlns="http://www.w3.org/2000/svg" xmlns:xlink="http://www.w3.org/1999/xlink"><clipPath id="a"><path d="m200 136h7v7.949219h-7zm0 0"/></clipPath><clipPath id="b"><path d="m2.984375 81h8.015625v7h-8.015625zm0 0"/></clipPath><clipPath id="c"><path d="m2.984375 29h8.015625v6h-8.015625zm0 0"/></clipPath><clipPath id="d"><path d="m2.984375 25h8.015625v3h-8.015625zm0 0"/></clipPath><clipPath id="e"><path d="m2.984375 5h8.015625v7h-8.015625zm0 0"/></clipPath><clipPath id="f"><path d="m392 12h2.984375v103h-2.984375zm0 0"/></clipPath><clipPath id="g"><path d="m35 112h359.984375v3h-359.984375zm0 0"/></clipPath><clipPath id="h"><path d="m35 12h359.984375v2h-359.984375zm0 0"/></clipPath><path d="m49.299156 30.422656v-3.5" fill="none" stroke="#000" stroke-linejoin="round" stroke-miterlimit="10" stroke-width=".8" transform="matrix(1 0 0 -1 2.986 143.95)"/><path d="m52.285156 121.480469c-.511718 0-.890625.25-1.152344.75-.257812.5-.378906 1.25-.378906 2.25s.121094 1.75.378906 2.25c.261719.5.640626.75 1.152344.75.507813 0 .890625-.25 1.148438-.75.25-.5.382812-1.25.382812-2.25s-.132812-1.75-.382812-2.25c-.257813-.5-.640625-.75-1.148438-.75m0-.777344c.808594 0 1.429688.328125 1.871094.96875.429688.648437.648438 1.589844.648438 2.808594 0 1.230469-.21875 2.171875-.648438 2.8125-.441406.640625-1.0625.957031-1.871094.957031-.820312 0-1.449218-.316406-1.878906-.957031s-.640625-1.582031-.640625-2.8125c0-1.21875.210937-2.160157.640625-2.808594.429688-.640625 1.058594-.96875 1.878906-.96875"/><path d="m114.29525 30.422656v-3.5" fill="none" stroke="#000" stroke-linejoin="round" stroke-miterlimit="10" stroke-width=".8" transform="matrix(1 0 0 -1 2.986 143.95)"/><path d="m109.660156 127.292969h3.441406v.828125h-4.628906v-.828125c.367188-.382813.878906-.902344 1.527344-1.5625.640625-.648438 1.050781-1.070313 1.222656-1.257813.320313-.351562.539063-.652344.660156-.902344.117188-.238281.1875-.488281.1875-.726562 0-.382812-.140624-.703125-.410156-.941406-.269531-.242188-.617187-.371094-1.058594-.371094-.308593 0-.640624.0625-.980468.160156-.339844.109375-.710938.269532-1.101563.492188v-1c.402344-.160156.773438-.28125 1.113281-.363282.339844-.078124.660157-.117187.949219-.117187.75 0 1.347657.1875 1.800781.570313.449219.378906.679688.878906.679688 1.507812 0 .300781-.0625.589844-.171875.851562-.109375.269532-.308594.589844-.609375.949219-.078125.101563-.339844.371094-.78125.820313-.4375.449218-1.046875 1.078125-1.839844 1.890625"/><path d="m117.28125 121.480469c-.511719 0-.890625.25-1.148438.75-.261718.5-.382812 1.25-.382812 2.25s.121094 1.75.382812 2.25c.257813.5.636719.75 1.148438.75s.890625-.25 1.148438-.75c.25-.5.382812-1.25.382812-2.25s-.132812-1.75-.382812-2.25c-.257813-.5-.636719-.75-1.148438-.75m0-.777344c.808594 0 1.429688.328125 1.871094.96875.429687.648437.648437 1.589844.648437 2.808594 0 1.230469-.21875 2.171875-.648437 2.8125-.441406.640625-1.0625.957031-1.871094.957031-.820312 0-1.449219-.316406-1.878906-.957031-.429688-.640625-.640625-1.582031-.640625-2.8125 0-1.21875.210937-2.160157.640625-2.808594.429687-.640625 1.058594-.96875 1.878906-.96875"/><path d="m123.640625 121.480469c-.507813 0-.890625.25-1.148437.75-.261719.5-.382813 1.25-.382813 2.25s.121094 1.75.382813 2.25c.257812.5.640624.75 1.148437.75.511719 0 .890625-.25 1.152344-.75.25-.5.378906-1.25.378906-2.25s-.128906-1.75-.378906-2.25c-.261719-.5-.640625-.75-1.152344-.75m0-.777344c.8125 0 1.429687.328125 1.871094.96875.429687.648437.648437 1.589844.648437 2.808594 0 1.230469-.21875 2.171875-.648437 2.8125-.441407.640625-1.058594.957031-1.871094.957031-.820313 0-1.449219-.316406-1.878906-.957031-.429688-.640625-.640625-1.582031-.640625-2.8125 0-1.21875.210937-2.160157.640625-2.808594.429687-.640625 1.058593-.96875 1.878906-.96875"/><path d="m179.291344 30.422656v-3.5" fill="none" stroke="#000" stroke-linejoin="round" stroke-miterlimit="10" stroke-width=".8" transform="matrix(1 0 0 -1 2.986 143.95)"/><path d="m176.515625 121.691406-2.488281 3.890625h2.488281zm-.257813-.859375h1.238282v4.75h1.039062v.820313h-1.039062v1.71875h-.980469v-1.71875h-3.289063v-.949219z"/><path d="m182.277344 121.480469c-.511719 0-.890625.25-1.148438.75-.261718.5-.382812 1.25-.382812 2.25s.121094 1.75.382812 2.25c.257813.5.636719.75 1.148438.75.507812 0 .890625-.25 1.148437-.75.25-.5.382813-1.25.382813-2.25s-.132813-1.75-.382813-2.25c-.257812-.5-.640625-.75-1.148437-.75m0-.777344c.808594 0 1.429687.328125 1.871094.96875.429687.648437.648437 1.589844.648437 2.808594 0 1.230469-.21875 2.171875-.648437 2.8125-.441407.640625-1.0625.957031-1.871094.957031-.820313 0-1.449219-.316406-1.878906-.957031-.429688-.640625-.640626-1.582031-.640626-2.8125 0-1.21875.210938-2.160157.640626-2.808594.429687-.640625 1.058593-.96875 1.878906-.96875"/><path d="m188.636719 121.480469c-.507813 0-.890625.25-1.148438.75-.261719.5-.382812 1.25-.382812 2.25s.121093 1.75.382812 2.25c.257813.5.640625.75 1.148438.75.511719 0 .890625-.25 1.148437-.75.25-.5.382813-1.25.382813-2.25s-.132813-1.75-.382813-2.25c-.257812-.5-.636718-.75-1.148437-.75m0-.777344c.808593 0 1.429687.328125 1.871093.96875.429688.648437.648438 1.589844.648438 2.808594 0 1.230469-.21875 2.171875-.648438 2.8125-.441406.640625-1.0625.957031-1.871093.957031-.820313 0-1.449219-.316406-1.878907-.957031-.429687-.640625-.640624-1.582031-.640624-2.8125 0-1.21875.210937-2.160157.640624-2.808594.429688-.640625 1.058594-.96875 1.878907-.96875"/><path d="m244.287437 30.422656v-3.5" fill="none" stroke="#000" stroke-linejoin="round" stroke-miterlimit="10" stroke-width=".8" transform="matrix(1 0 0 -1 2.986 143.95)"/><path d="m241.03125 124.082031c-.4375 0-.789062.160157-1.046875.460938-.261719.300781-.390625.71875-.390625 1.238281 0 .53125.128906.949219.390625 1.25.257813.300781.609375.449219 1.046875.449219.441406 0 .792969-.148438 1.050781-.449219.261719-.300781.390625-.71875.390625-1.25 0-.519531-.128906-.9375-.390625-1.238281-.257812-.300781-.609375-.460938-1.050781-.460938m1.960938-3.089843v.898437c-.25-.117187-.5-.207031-.75-.269531-.257813-.058594-.507813-.089844-.75-.089844-.660157 0-1.160157.21875-1.5.660156-.339844.441406-.539063 1.109375-.578126 1.992188.1875-.28125.429688-.5.71875-.652344.289063-.148438.609376-.230469.960938-.230469.730469 0 1.308594.230469 1.730469.671875.417969.4375.640625 1.050782.640625 1.808594 0 .75-.230469 1.351562-.671875 1.800781-.441407.449219-1.03125.667969-1.761719.667969-.839844 0-1.488281-.316406-1.929688-.957031-.449218-.640625-.667968-1.582031-.667968-2.8125 0-1.148438.269531-2.070313.820312-2.75.539063-.679688 1.277344-1.027344 2.199219-1.027344.238281 0 .488281.027344.75.070313.25.046874.511719.117187.789063.21875"/><path d="m247.273438 121.480469c-.511719 0-.890626.25-1.152344.75-.257813.5-.378906 1.25-.378906 2.25s.121093 1.75.378906 2.25c.261718.5.640625.75 1.152344.75.507812 0 .890624-.25 1.148437-.75.25-.5.382813-1.25.382813-2.25s-.132813-1.75-.382813-2.25c-.257813-.5-.640625-.75-1.148437-.75m0-.777344c.808593 0 1.429687.328125 1.871093.96875.429688.648437.648438 1.589844.648438 2.808594 0 1.230469-.21875 2.171875-.648438 2.8125-.441406.640625-1.0625.957031-1.871093.957031-.820313 0-1.449219-.316406-1.878907-.957031-.429687-.640625-.640625-1.582031-.640625-2.8125 0-1.21875.210938-2.160157.640625-2.808594.429688-.640625 1.058594-.96875 1.878907-.96875"/><path d="m253.632812 121.480469c-.511718 0-.890624.25-1.148437.75-.261719.5-.382813 1.25-.382813 2.25s.121094 1.75.382813 2.25c.257813.5.636719.75 1.148437.75.511719 0 .890626-.25 1.148438-.75.25-.5.382812-1.25.382812-2.25s-.132812-1.75-.382812-2.25c-.257812-.5-.636719-.75-1.148438-.75m0-.777344c.808594 0 1.429688.328125 1.871094.96875.429688.648437.648438 1.589844.648438 2.808594 0 1.230469-.21875 2.171875-.648438 2.8125-.441406.640625-1.0625.957031-1.871094.957031-.820312 0-1.449218-.316406-1.878906-.957031-.429687-.640625-.640625-1.582031-.640625-2.8125 0-1.21875.210938-2.160157.640625-2.808594.429688-.640625 1.058594-.96875 1.878906-.96875"/><path d="m309.283531 30.422656v-3.5" fill="none" stroke="#000" stroke-linejoin="round" stroke-miterlimit="10" stroke-width=".8" transform="matrix(1 0 0 -1 2.986 143.95)"/><path d="m305.910156 124.660156c-.472656 0-.839844.132813-1.109375.382813-.273437.25-.402343.589843-.402343 1.027343 0 .441407.128906.792969.402343 1.042969.269531.25.636719.367188 1.109375.367188.457032 0 .828125-.117188 1.097656-.378907.269532-.25.410157-.589843.410157-1.03125 0-.4375-.140625-.777343-.398438-1.027343-.269531-.25-.640625-.382813-1.109375-.382813m-.992187-.417968c-.417969-.101563-.75-.300782-.988281-.589844-.242188-.289063-.351563-.640625-.351563-1.058594 0-.582031.199219-1.042969.621094-1.382812.410156-.339844.980469-.507813 1.710937-.507813.71875 0 1.289063.167969 1.707032.507813.410156.339843.621093.800781.621093 1.382812 0 .417969-.121093.769531-.359375 1.058594-.238281.289062-.558594.488281-.980468.589844.46875.109374.839843.328124 1.109374.648437.261719.320313.402344.722656.402344 1.179687 0 .710938-.222656 1.25-.652344 1.621094-.4375.378906-1.050781.558594-1.847656.558594-.8125 0-1.429687-.179688-1.859375-.558594-.433593-.371094-.640625-.910156-.640625-1.621094 0-.457031.128906-.859374.398438-1.179687.261718-.320313.628906-.539063 1.109375-.648437m-.359375-1.558594c0 .378906.109375.679687.351562.886718.238282.210938.570313.3125 1 .3125.417969 0 .75-.101562.988282-.3125.242187-.207031.359374-.507812.359374-.886718 0-.382813-.117187-.671875-.359374-.882813-.238282-.207031-.570313-.320312-.988282-.320312-.429687 0-.761718.113281-1 .320312-.242187.210938-.351562.5-.351562.882813"/><path d="m312.269531 121.480469c-.511719 0-.890625.25-1.152343.75-.257813.5-.378907 1.25-.378907 2.25s.121094 1.75.378907 2.25c.261718.5.640624.75 1.152343.75.507813 0 .890625-.25 1.148438-.75.25-.5.382812-1.25.382812-2.25s-.132812-1.75-.382812-2.25c-.257813-.5-.640625-.75-1.148438-.75m0-.777344c.808594 0 1.429688.328125 1.871094.96875.429687.648437.648437 1.589844.648437 2.808594 0 1.230469-.21875 2.171875-.648437 2.8125-.441406.640625-1.0625.957031-1.871094.957031-.820312 0-1.449219-.316406-1.878906-.957031-.433594-.640625-.640625-1.582031-.640625-2.8125 0-1.21875.207031-2.160157.640625-2.808594.429687-.640625 1.058594-.96875 1.878906-.96875"/><path d="m318.628906 121.480469c-.511718 0-.890625.25-1.148437.75-.261719.5-.382813 1.25-.382813 2.25s.121094 1.75.382813 2.25c.257812.5.636719.75 1.148437.75.511719 0 .890625-.25 1.148438-.75.25-.5.382812-1.25.382812-2.25s-.132812-1.75-.382812-2.25c-.257813-.5-.636719-.75-1.148438-.75m0-.777344c.808594 0 1.429688.328125 1.871094.96875.429688.648437.648438 1.589844.648438 2.808594 0 1.230469-.21875 2.171875-.648438 2.8125-.441406.640625-1.0625.957031-1.871094.957031-.820312 0-1.449218-.316406-1.878906-.957031s-.640625-1.582031-.640625-2.8125c0-1.21875.210937-2.160157.640625-2.808594.429688-.640625 1.058594-.96875 1.878906-.96875"/><path d="m374.279625 30.422656v-3.5" fill="none" stroke="#000" stroke-linejoin="round" stroke-miterlimit="10" stroke-width=".8" transform="matrix(1 0 0 -1 2.986 143.95)"/><path d="m365.785156 127.292969h1.609375v-5.5625l-1.75.351562v-.898437l1.742188-.351563h.988281v6.460938h1.609375v.828125h-4.199219z"/><path d="m374.085938 121.480469c-.511719 0-.890626.25-1.152344.75-.257813.5-.378906 1.25-.378906 2.25s.121093 1.75.378906 2.25c.261718.5.640625.75 1.152344.75.507812 0 .890624-.25 1.148437-.75.25-.5.378906-1.25.378906-2.25s-.128906-1.75-.378906-2.25c-.257813-.5-.640625-.75-1.148437-.75m0-.777344c.808593 0 1.429687.328125 1.871093.96875.429688.648437.648438 1.589844.648438 2.808594 0 1.230469-.21875 2.171875-.648438 2.8125-.441406.640625-1.0625.957031-1.871093.957031-.820313 0-1.449219-.316406-1.878907-.957031-.433593-.640625-.640625-1.582031-.640625-2.8125 0-1.21875.207032-2.160157.640625-2.808594.429688-.640625 1.058594-.96875 1.878907-.96875"/><path d="m380.445312 121.480469c-.511718 0-.890624.25-1.148437.75-.261719.5-.382813 1.25-.382813 2.25s.121094 1.75.382813 2.25c.257813.5.636719.75 1.148437.75.511719 0 .890626-.25 1.148438-.75.25-.5.382812-1.25.382812-2.25s-.132812-1.75-.382812-2.25c-.257812-.5-.636719-.75-1.148438-.75m0-.777344c.808594 0 1.429688.328125 1.871094.96875.429688.648437.648438 1.589844.648438 2.808594 0 1.230469-.21875 2.171875-.648438 2.8125-.441406.640625-1.0625.957031-1.871094.957031-.820312 0-1.449218-.316406-1.878906-.957031-.429687-.640625-.640625-1.582031-.640625-2.8125 0-1.21875.210938-2.160157.640625-2.808594.429688-.640625 1.058594-.96875 1.878906-.96875"/><path d="m386.804688 121.480469c-.507813 0-.890626.25-1.148438.75-.261719.5-.382812 1.25-.382812 2.25s.121093 1.75.382812 2.25c.257812.5.640625.75 1.148438.75.511718 0 .890624-.25 1.152343-.75.25-.5.378907-1.25.378907-2.25s-.128907-1.75-.378907-2.25c-.261719-.5-.640625-.75-1.152343-.75m0-.777344c.808593 0 1.429687.328125 1.871093.96875.429688.648437.648438 1.589844.648438 2.808594 0 1.230469-.21875 2.171875-.648438 2.8125-.441406.640625-1.0625.957031-1.871093.957031-.820313 0-1.449219-.316406-1.878907-.957031-.429687-.640625-.640625-1.582031-.640625-2.8125 0-1.21875.210938-2.160157.640625-2.808594.429688-.640625 1.058594-.96875 1.878907-.96875"/><path d="m165.144531 134.503906h5.070313v1.417969h-3.1875v1.363281h3v1.417969h-3v3.089844h-1.882813z"/><path d="m171.835938 139.664062v-3.339843h1.757812v.550781c0 .296875-.007812.667969-.007812 1.117188v.890624c0 .441407.007812.761719.03125.949219.019531.203125.058593.339844.117187.421875.070313.121094.160156.210938.28125.269532.109375.058593.238281.089843.398437.089843.363282 0 .652344-.140625.863282-.417969.199218-.28125.308594-.671874.308594-1.171874v-2.699219h1.75v5.46875h-1.75v-.789063c-.261719.320313-.539063.558594-.839844.699219-.300782.140625-.621094.21875-.96875.21875-.640625 0-1.121094-.1875-1.453125-.566406-.328125-.382813-.488281-.953125-.488281-1.691407"/><path d="m178.746094 136.324219h4.769531v1.21875l-2.878906 3h2.878906v1.25h-4.890625v-1.21875l2.878906-3h-2.757812z"/><path d="m184.566406 136.324219h4.769532v1.21875l-2.878907 3h2.878907v1.25h-4.890626v-1.21875l2.878907-3h-2.757813z"/><path d="m190.65625 136.324219h1.75v5.46875h-1.75zm0-2.128907h1.75v1.429688h-1.75z"/><path d="m199.585938 138.464844v3.328125h-1.761719v-2.550781c0-.46875-.007813-.789063-.027344-.96875-.019531-.179688-.0625-.308594-.109375-.398438-.070312-.109375-.160156-.203125-.28125-.261719-.121094-.058593-.261719-.097656-.402344-.097656-.367187 0-.660156.136719-.859375.417969-.207031.28125-.308593.671875-.308593 1.171875v2.6875h-1.75v-5.46875h1.75v.800781c.257812-.320312.53125-.550781.828124-.703125.300782-.148437.632813-.226563.992188-.226563.628906 0 1.109375.199219 1.4375.578126.320312.390624.492188.949218.492188 1.691406"/><g clip-path="url(#a)"><path d="m204.925781 140.863281c-.238281.320313-.511719.558594-.800781.710938-.289062.148437-.621094.21875-1 .21875-.667969 0-1.21875-.257813-1.660156-.789063-.4375-.519531-.648438-1.191406-.648438-2.011718 0-.808594.210938-1.476563.648438-2 .441406-.519532.992187-.789063 1.660156-.789063.378906 0 .710938.082031 1 .230469.289062.148437.5625.378906.800781.699218v-.808593h1.761719v4.917969c0 .871093-.28125 1.542968-.84375 2-.558594.460937-1.359375.703124-2.40625.703124-.34375 0-.671875-.03125-.992188-.082031-.320312-.058593-.640624-.140625-.960937-.238281v-1.359375c.300781.167969.601563.296875.902344.386719.289062.082031.578125.132812.878906.132812.570313 0 .988281-.132812 1.261719-.382812.257812-.25.398437-.628906.398437-1.160156zm-1.148437-3.398437c-.363282 0-.652344.140625-.851563.398437-.199219.269531-.300781.652344-.300781 1.128907 0 .5.089844.882812.289062 1.140624.203126.261719.480469.390626.863282.390626.359375 0 .648437-.128907.847656-.398438.199219-.261719.300781-.640625.300781-1.132812 0-.476563-.101562-.859376-.300781-1.128907-.199219-.257812-.488281-.398437-.847656-.398437"/></g><path d="m211.925781 134.503906h1.878907v7.289063h-1.878907z"/><path d="m217.476562 134.773438v1.550781h1.800782v1.25h-1.800782v2.320312c0 .257813.050782.429688.148438.519531.101562.089844.300781.128907.601562.128907h.898438v1.25h-1.5c-.6875 0-1.179688-.140625-1.46875-.429688-.289062-.28125-.429688-.769531-.429688-1.46875v-2.320312h-.871093v-1.25h.871093v-1.550781z"/><path d="m225.804688 139.042969v.5h-4.089844c.039062.410156.191406.722656.449218.921875.25.207031.601563.308594 1.0625.308594.359376 0 .738282-.050782 1.128907-.160157.378906-.109375.78125-.28125 1.191406-.5v1.351563c-.421875.160156-.832031.269531-1.242187.339844-.417969.078124-.828126.117187-1.238282.117187-.992187 0-1.761718-.25-2.3125-.75-.546875-.5-.816406-1.199219-.816406-2.109375 0-.890625.269531-1.589844.808594-2.097656.539062-.511719 1.28125-.769532 2.21875-.769532.859375 0 1.539062.257813 2.0625.777344.519531.519532.777344 1.210938.777344 2.070313m-1.800782-.578125c0-.332032-.097656-.601563-.289062-.800782-.199219-.199218-.449219-.308593-.757813-.308593-.339843 0-.621093.097656-.832031.289062-.210938.1875-.339844.460938-.390625.820313z"/><path d="m231.1875 137.8125c-.160156-.070312-.3125-.117188-.460938-.160156-.152343-.027344-.300781-.046875-.449218-.046875-.453125 0-.800782.148437-1.042969.429687-.238281.289063-.359375.699219-.359375 1.238282v2.519531h-1.75v-5.46875h1.75v.898437c.21875-.359375.46875-.617187.769531-.777344.292969-.160156.640625-.25 1.050781-.25.058594 0 .121094.007813.191407.007813.058593 0 .160156.011719.300781.03125z"/><path d="m234.503906 139.332031c-.367187 0-.648437.070313-.828125.191407-.179687.121093-.269531.300781-.269531.539062 0 .222656.070312.402344.21875.519531.152344.132813.359375.191407.621094.191407.328125 0 .609375-.109376.828125-.351563.222656-.238281.339843-.527344.339843-.886719v-.203125zm2.671875-.660156v3.121094h-1.761719v-.808594c-.238281.339844-.5.578125-.789062.71875-.300781.140625-.648438.21875-1.070312.21875-.570313 0-1.027344-.15625-1.378907-.488281-.359375-.320313-.53125-.75-.53125-1.28125 0-.636719.222657-1.109375.660157-1.410156.441406-.296876 1.132812-.449219 2.082031-.449219h1.027343v-.140625c0-.269532-.109374-.46875-.328124-.597656-.21875-.132813-.558594-.199219-1.019532-.199219-.378906 0-.730468.039062-1.050781.117187-.320313.082032-.621094.191406-.890625.332032v-1.332032c.371094-.089844.742188-.160156 1.121094-.207031.378906-.042969.757812-.070313 1.140625-.070313.980469 0 1.6875.199219 2.128906.589844.441406.386719.660156 1.019532.660156 1.886719"/><path d="m240.714844 134.773438v1.550781h1.800781v1.25h-1.800781v2.320312c0 .257813.050781.429688.152344.519531.097656.089844.296874.128907.597656.128907h.902344v1.25h-1.5c-.691407 0-1.179688-.140625-1.472657-.429688-.289062-.28125-.429687-.769531-.429687-1.46875v-2.320312h-.871094v-1.25h.871094v-1.550781z"/><path d="m243.585938 136.324219h1.75v5.46875h-1.75zm0-2.128907h1.75v1.429688h-1.75z"/><path d="m249.617188 137.445312c-.390626 0-.691407.136719-.890626.417969-.199218.28125-.300781.679688-.300781 1.199219 0 .53125.101563.929688.300781 1.210938.199219.28125.5.410156.890626.410156.378906 0 .667968-.128906.867187-.410156.203125-.28125.3125-.679688.3125-1.210938 0-.519531-.109375-.917969-.3125-1.199219-.199219-.28125-.488281-.417969-.867187-.417969m0-1.25c.9375 0 1.667968.257813 2.199218.757813.527344.511719.800782 1.210937.800782 2.109375 0 .902344-.273438 1.609375-.800782 2.109375-.53125.5-1.261718.75-2.199218.75-.941407 0-1.679688-.25-2.210938-.75-.539062-.5-.800781-1.207031-.800781-2.109375 0-.898438.261719-1.597656.800781-2.109375.53125-.5 1.269531-.757813 2.210938-.757813"/><path d="m259.386719 138.464844v3.328125h-1.761719v-2.550781c0-.46875-.007812-.789063-.03125-.96875-.019531-.179688-.058594-.308594-.109375-.398438-.070313-.109375-.160156-.203125-.277344-.261719-.121093-.058593-.261719-.097656-.402343-.097656-.367188 0-.660157.136719-.859376.417969-.210937.28125-.308593.671875-.308593 1.171875v2.6875h-1.75v-5.46875h1.75v.800781c.257812-.320312.527343-.550781.828125-.703125.300781-.148437.628906-.226563.992187-.226563.628907 0 1.109375.199219 1.4375.578126.320313.390624.492188.949218.492188 1.691406"/><path d="m265.277344 136.492188v1.332031c-.382813-.152344-.742188-.269531-1.082032-.351563-.351562-.078125-.679687-.117187-.988281-.117187-.339843 0-.582031.046875-.742187.128906-.160156.078125-.238282.210937-.238282.378906 0 .140625.058594.25.179688.320313.121094.082031.339844.128906.660156.171875l.308594.039062c.890625.121094 1.492188.300781 1.800781.558594.308594.261719.46875.671875.46875 1.230469 0 .582031-.21875 1.019531-.648437 1.308594-.429688.292968-1.070313.429687-1.921875.429687-.359375 0-.738281-.027344-1.117188-.078125-.390625-.050781-.792969-.128906-1.191406-.25v-1.328125c.339844.179687.699219.308594 1.070313.386719.359374.082031.738281.121094 1.121093.121094.339844 0 .589844-.039063.769531-.140626.167969-.089843.257813-.230468.257813-.417968 0-.160156-.058594-.269532-.179687-.351563-.117188-.078125-.359376-.140625-.710938-.179687l-.308594-.039063c-.78125-.089843-1.320312-.269531-1.628906-.539062-.320312-.261719-.46875-.660157-.46875-1.203125 0-.578125.1875-1.007813.589844-1.289063.398437-.28125 1.007812-.417969 1.828125-.417969.320312 0 .648437.027344 1.011719.078126.359374.050781.738281.121093 1.160156.21875"/><path d="m33.389 47.992969h-3.5" fill="none" stroke="#000" stroke-linejoin="round" stroke-miterlimit="10" stroke-width=".8" transform="matrix(1 0 0 -1 2.986 143.95)"/><path d="m24.9375 98.921875h3.441406v.832031h-4.632812v-.832031c.371094-.378906.882812-.898437 1.53125-1.558594.640625-.648437 1.050781-1.070312 1.21875-1.261719.320312-.347656.542968-.648437.660156-.898437.121094-.238281.191406-.488281.191406-.730469 0-.378906-.140625-.699218-.410156-.9375-.269531-.242187-.621094-.371094-1.058594-.371094-.3125 0-.640625.058594-.980468.160157-.339844.109375-.710938.269531-1.101563.488281v-1c.402344-.160156.769531-.277344 1.109375-.359375.339844-.078125.660156-.121094.949219-.121094.75 0 1.351562.191407 1.800781.570313.449219.382812.679688.882812.679688 1.511718 0 .300782-.058594.589844-.167969.847657-.109375.273437-.3125.589843-.609375.953125-.082032.097656-.339844.367187-.78125.820312-.441406.449219-1.050782 1.078125-1.839844 1.886719"/><path d="m33.389 61.008594h-3.5" fill="none" stroke="#000" stroke-linejoin="round" stroke-miterlimit="10" stroke-width=".8" transform="matrix(1 0 0 -1 2.986 143.95)"/><path d="m26.796875 80.308594-2.488281 3.886718h2.488281zm-.257813-.863282h1.238282v4.75h1.039062v.820313h-1.039062v1.722656h-.980469v-1.722656h-3.289063v-.949219z"/><path d="m33.389 74.024219h-3.5" fill="none" stroke="#000" stroke-linejoin="round" stroke-miterlimit="10" stroke-width=".8" transform="matrix(1 0 0 -1 2.986 143.95)"/><path d="m26.316406 69.679688c-.4375 0-.789062.160156-1.050781.460937-.257813.300781-.386719.71875-.386719 1.242187 0 .527344.128906.949219.386719 1.25.261719.296876.613281.449219 1.050781.449219.441406 0 .789063-.152343 1.050782-.449219.261718-.300781.390624-.722656.390624-1.25 0-.523437-.128906-.941406-.390624-1.242187-.261719-.300781-.609376-.460937-1.050782-.460937m1.960938-3.089844v.902344c-.25-.121094-.5-.210938-.75-.269532-.261719-.0625-.511719-.089844-.75-.089844-.660156 0-1.160156.21875-1.5.660157-.339844.4375-.539063 1.109375-.578125 1.988281.1875-.28125.429687-.5.71875-.648438.289062-.152343.609375-.230468.960937-.230468.726563 0 1.308594.230468 1.726563.667968.421875.441407.640625 1.050782.640625 1.8125 0 .75-.230469 1.347657-.667969 1.796876-.441406.453124-1.03125.671874-1.761719.671874-.839844 0-1.488281-.320312-1.929687-.960937-.449219-.640625-.667969-1.578125-.667969-2.808594 0-1.152343.269531-2.070312.820312-2.75.539063-.679687 1.277344-1.03125 2.199219-1.03125.238281 0 .488281.03125.75.070313.25.050781.507813.121094.789063.21875"/><path d="m33.389 87.04375h-3.5" fill="none" stroke="#000" stroke-linejoin="round" stroke-miterlimit="10" stroke-width=".8" transform="matrix(1 0 0 -1 2.986 143.95)"/><path d="m26.199219 57.246094c-.472657 0-.84375.128906-1.113281.378906-.269532.25-.398438.589844-.398438 1.03125 0 .4375.128906.789062.398438 1.039062.269531.25.640624.371094 1.113281.371094.457031 0 .828125-.121094 1.097656-.382812.269531-.25.410156-.589844.410156-1.027344 0-.441406-.140625-.78125-.398437-1.03125-.269532-.25-.640625-.378906-1.109375-.378906m-.992188-.421875c-.417969-.097657-.75-.300781-.988281-.589844-.242188-.289063-.351562-.640625-.351562-1.058594 0-.582031.199218-1.039062.621093-1.382812.410157-.339844.980469-.507813 1.710938-.507813.71875 0 1.289062.167969 1.707031.507813.410156.34375.621094.800781.621094 1.382812 0 .417969-.121094.769531-.359375 1.058594-.242188.289063-.5625.492187-.980469.589844.46875.109375.839844.332031 1.109375.652343.261719.316407.402344.71875.402344 1.179688 0 .707031-.222657 1.25-.652344 1.617188-.441406.382812-1.050781.5625-1.847656.5625-.8125 0-1.433594-.179688-1.863281-.5625-.429688-.367188-.636719-.910157-.636719-1.617188 0-.460938.128906-.863281.398437-1.179688.257813-.320312.628906-.542968 1.109375-.652343m-.359375-1.558594c0 .378906.109375.679687.351563.890625.238281.207031.566406.308594 1 .308594.417969 0 .75-.101563.988281-.308594.238281-.210938.359375-.511719.359375-.890625s-.121094-.671875-.359375-.878906c-.238281-.210938-.570312-.320313-.988281-.320313-.433594 0-.761719.109375-1 .320313-.242188.207031-.351563.5-.351563.878906"/><path d="m33.389 100.059375h-3.5" fill="none" stroke="#000" stroke-linejoin="round" stroke-miterlimit="10" stroke-width=".8" transform="matrix(1 0 0 -1 2.986 143.95)"/><path d="m17.898438 46.859375h1.609374v-5.5625l-1.75.351563v-.898438l1.738282-.351562h.992187v6.460937h1.609375v.828125h-4.199218z"/><path d="m26.199219 41.046875c-.511719 0-.890625.25-1.152344.75-.257813.5-.378906 1.25-.378906 2.25s.121093 1.75.378906 2.25c.261719.5.640625.75 1.152344.75.507812 0 .890625-.25 1.148437-.75.25-.5.378906-1.25.378906-2.25s-.128906-1.75-.378906-2.25c-.257812-.5-.640625-.75-1.148437-.75m0-.777344c.808593 0 1.429687.328125 1.867187.96875.429688.652344.652344 1.589844.652344 2.808594 0 1.230469-.222656 2.171875-.652344 2.8125-.4375.640625-1.058594.960937-1.867187.960937-.820313 0-1.453125-.320312-1.882813-.960937-.429687-.640625-.636718-1.582031-.636718-2.8125 0-1.21875.207031-2.15625.636718-2.808594.429688-.640625 1.0625-.96875 1.882813-.96875"/><path d="m33.389 113.075h-3.5" fill="none" stroke="#000" stroke-linejoin="round" stroke-miterlimit="10" stroke-width=".8" transform="matrix(1 0 0 -1 2.986 143.95)"/><path d="m17.898438 33.84375h1.609374v-5.5625l-1.75.351562v-.898437l1.738282-.351563h.992187v6.460938h1.609375v.828125h-4.199218z"/><path d="m24.9375 33.84375h3.441406v.828125h-4.632812v-.828125c.371094-.382812.882812-.902344 1.53125-1.5625.640625-.648438 1.050781-1.070312 1.21875-1.257812.320312-.351563.542968-.652344.660156-.902344.121094-.238282.191406-.488282.191406-.726563 0-.382812-.140625-.703125-.410156-.941406-.269531-.242187-.621094-.371094-1.058594-.371094-.3125 0-.640625.0625-.980468.160157-.339844.109374-.710938.269531-1.101563.492187v-1c.402344-.160156.769531-.28125 1.109375-.363281.339844-.078125.660156-.117188.953125-.117188.75 0 1.347656.1875 1.796875.570313.453125.378906.683594.878906.683594 1.507812 0 .300781-.0625.589844-.171875.851563-.109375.269531-.308594.589844-.609375.949218-.082032.101563-.339844.371094-.78125.820313-.4375.449219-1.050782 1.078125-1.839844 1.890625"/><path d="m33.389 126.090625h-3.5" fill="none" stroke="#000" stroke-linejoin="round" stroke-miterlimit="10" stroke-width=".8" transform="matrix(1 0 0 -1 2.986 143.95)"/><path d="m17.898438 20.828125h1.609374v-5.5625l-1.75.351563v-.902344l1.738282-.347656h.992187v6.460937h1.609375v.828125h-4.199218z"/><path d="m26.796875 15.226562-2.488281 3.890626h2.488281zm-.257813-.859374h1.238282v4.75h1.039062v.820312h-1.039062v1.71875h-.980469v-1.71875h-3.289063v-.949219z"/><path d="m3.398438 116.996094 1.882812.472656v-1.292969l-1.882812-.46875v-1.078125l1.882812.46875v-1.351562h1.039062v1.609375l1.339844.34375v-1.390625h1.050782v1.640625l1.867187.46875v1.078125l-1.867187-.46875v1.289062l1.867187.472656v1.089844l-1.867187-.472656v1.359375h-1.050782v-1.597656l-1.339844-.339844v1.378906h-1.039062v-1.648437l-1.882812-.472656zm2.921874-.546875v1.289062l1.339844.339844v-1.289063z"/><path d="m10.179688 106.367188c.179687.351562.320312.710937.398437 1.082031.082031.378906.132813.769531.132813 1.167969 0 1.21875-.332032 2.179687-1.011719 2.890624-.667969.710938-1.589844 1.058594-2.757813 1.058594-1.160156 0-2.082031-.347656-2.761718-1.058594-.679688-.710937-1.019532-1.671874-1.019532-2.890624 0-.398438.050782-.789063.140625-1.167969.089844-.371094.21875-.730469.398438-1.082031h1.511719c-.242188.351562-.410157.691406-.519532 1.03125-.113281.339843-.171875.699218-.171875 1.070312 0 .679688.21875 1.207031.648438 1.589844.433593.378906 1.023437.570312 1.773437.570312.757813 0 1.347656-.191406 1.777344-.570312.429688-.382813.640625-.910156.640625-1.589844 0-.371094-.050781-.730469-.160156-1.070312-.109375-.339844-.289063-.679688-.53125-1.03125z"/><path d="m6.601562 100.828125c-.070312.160156-.121093.308594-.160156.460937-.03125.148438-.050781.296876-.050781.449219 0 .449219.148437.800781.429687 1.039063.289063.238281.699219.359375 1.238282.359375h2.519531v1.75h-5.46875v-1.75h.902344c-.363281-.21875-.621094-.46875-.78125-.769531-.160157-.289063-.25-.640626-.25-1.050782 0-.058594.007812-.117187.007812-.1875 0-.0625.011719-.160156.03125-.300781z"/><path d="m8.121094 97.507812c0 .371094.070312.648438.1875.828126.121094.179687.300781.269531.542968.269531.21875 0 .398438-.066407.519532-.21875.128906-.148438.1875-.359375.1875-.621094 0-.328125-.109375-.609375-.347656-.828125-.242188-.21875-.53125-.339844-.890626-.339844h-.199218zm-.660156-2.671874h3.117187v1.761718h-.808594c.339844.238282.582031.5.71875.789063.140625.300781.222657.652343.222657 1.070312 0 .570313-.160157 1.03125-.492188 1.378907-.320312.363281-.75.53125-1.277344.53125-.640625 0-1.113281-.21875-1.410156-.660157-.300781-.441406-.453125-1.128906-.453125-2.078125v-1.03125h-.136719c-.273437 0-.472656.109375-.601562.328125-.128906.222657-.199219.5625-.199219 1.023438 0 .378906.039063.726562.121094 1.046875.078125.320312.1875.621094.328125.890625h-1.328125c-.09375-.371094-.160157-.738281-.210938-1.121094-.039062-.378906-.070312-.757813-.070312-1.136719 0-.980468.199219-1.691406.589843-2.132812.390626-.4375 1.019532-.660156 1.890626-.660156"/><path d="m5.28125 88.9375h1.328125c-.148437.378906-.269531.738281-.347656 1.078125-.082031.351563-.121094.683594-.121094.992187 0 .339844.050781.578126.128906.738282.082031.160156.210938.242187.378907.242187.140624 0 .25-.0625.320312-.179687.082031-.121094.132812-.339844.171875-.660156l.039063-.3125c.121093-.886719.300781-1.488282.558593-1.796876.261719-.3125.671875-.472656 1.230469-.472656.582031 0 1.019531.222656 1.3125.652344.289062.429688.429688 1.070312.429688 1.917969 0 .359375-.03125.742187-.082032 1.121093-.050781.390626-.128906.789063-.25 1.191407h-1.328125c.179688-.34375.308594-.703125.390625-1.070313.078125-.363281.117188-.742187.117188-1.121094 0-.339843-.039063-.589843-.140625-.769531-.089844-.171875-.226563-.261719-.417969-.261719-.160156 0-.269531.0625-.351562.179688-.078126.121094-.136719.359375-.179688.710938l-.039062.308593c-.089844.78125-.269532 1.320313-.539063 1.632813-.261719.320312-.660156.46875-1.199219.46875-.582031 0-1.011718-.191406-1.292968-.589844-.277344-.398438-.417969-1.011719-.417969-1.832031 0-.316407.03125-.648438.078125-1.007813.050781-.359375.121094-.742187.222656-1.160156"/><g clip-path="url(#b)"><path d="m7.25 81.757812h3.328125v1.757813h-2.539063c-.480468 0-.800781.011719-.980468.03125-.179688.019531-.308594.058594-.398438.109375-.109375.070312-.199218.160156-.261718.28125-.058594.121094-.097657.261719-.097657.398438 0 .371093.140625.660156.417969.863281.28125.207031.671875.308593 1.171875.308593h2.6875v1.75h-7.597656v-1.75h2.929687c-.320312-.261718-.550781-.53125-.699218-.832031-.152344-.296875-.230469-.628906-.230469-.988281 0-.628906.199219-1.109375.578125-1.441406.390625-.320313.953125-.488282 1.691406-.488282"/></g><path d="m4.308594 72.726562h2.5625v-2.550781h1.148437v2.550781h2.558594v1.160157h-2.558594v2.550781h-1.148437v-2.550781h-2.5625z"/><path d="m3.398438 61.1875 1.882812.46875v-1.289062l-1.882812-.46875v-1.082032l1.882812.472656v-1.351562h1.039062v1.609375l1.339844.339844v-1.390625h1.050782v1.640625l1.867187.46875v1.082031l-1.867187-.46875v1.289062l1.867187.46875v1.089844l-1.867187-.46875v1.359375h-1.050782v-1.601562l-1.339844-.339844v1.382813h-1.039062v-1.652344l-1.882812-.46875zm2.921874-.550781v1.289062l1.339844.339844v-1.289063z"/><path d="m4.710938 54.457031h4.449218v-.667969c0-.761718-.191406-1.351562-.570312-1.761718-.378906-.398438-.929688-.609375-1.660156-.609375-.71875 0-1.269532.210937-1.648438.609375-.382812.398437-.570312.988281-.570312 1.761718zm-1.421876 1.878907v-1.980469c0-1.097657.082032-1.929688.242188-2.46875.160156-.539063.417969-1.007813.796875-1.398438.332031-.339843.710937-.589843 1.140625-.761719.429688-.160156.921875-.25 1.460938-.25.550781 0 1.039062.089844 1.46875.25.441406.171876.820312.421876 1.140624.761719.378907.398438.652344.867188.8125 1.410157.160157.550781.226563 1.367187.226563 2.457031v1.980469z"/><path d="m7.828125 42.65625h.5v4.089844c.410156-.039063.722656-.1875.921875-.449219.210938-.25.308594-.597656.308594-1.058594 0-.359375-.046875-.742187-.160156-1.132812-.109376-.378907-.277344-.777344-.5-1.1875h1.351562c.160156.417969.269531.828125.339844 1.238281.078125.421875.121094.832031.121094 1.242188 0 .988281-.25 1.757812-.75 2.308593s-1.199219.820313-2.109376.820313c-.890624 0-1.589843-.269532-2.101562-.808594-.511719-.542969-.769531-1.28125-.769531-2.222656 0-.859375.257812-1.539063.78125-2.058594.519531-.519531 1.207031-.78125 2.066406-.78125m-.578125 1.800781c-.332031 0-.601562.101563-.800781.289063-.199219.203125-.308594.453125-.308594.761718 0 .339844.097656.621094.289063.828126.191406.210937.460937.339843.820312.390624z"/><path d="m8.121094 38.886719c0 .371093.070312.652343.1875.832031.121094.179688.300781.269531.542968.269531.21875 0 .398438-.070312.519532-.222656.128906-.148437.1875-.359375.1875-.617187 0-.332032-.109375-.609376-.347656-.832032-.242188-.21875-.53125-.339844-.890626-.339844h-.199218zm-.660156-2.667969h3.117187v1.757812h-.808594c.339844.242188.582031.5.71875.789063.140625.300781.222657.652344.222657 1.070313 0 .570312-.160157 1.03125-.492188 1.382812-.320312.359375-.75.527344-1.277344.527344-.640625 0-1.113281-.21875-1.410156-.660156-.300781-.4375-.453125-1.128907-.453125-2.078126v-1.03125h-.136719c-.273437 0-.472656.109376-.601562.332032-.128906.21875-.199219.558594-.199219 1.019531 0 .378906.039063.730469.121094 1.050781.078125.320313.1875.617188.328125.886719h-1.328125c-.09375-.367187-.160157-.738281-.210938-1.117187-.039062-.382813-.070312-.761719-.070312-1.140626 0-.980468.199219-1.691406.589843-2.128906.390626-.441406 1.019532-.660156 1.890626-.660156"/><g clip-path="url(#c)"><path d="m5.910156 30.867188h-2.929687v-1.761719h7.597656v1.761719h-.789063c.320313.238281.5625.511718.699219.800781.140625.289062.222657.621093.222657 1 0 .679687-.261719 1.230469-.792969 1.660156-.527344.4375-1.21875.648437-2.066407.648437-.839843 0-1.523437-.210937-2.0625-.648437-.539062-.429687-.808593-.980469-.808593-1.660156 0-.378907.078125-.710938.230469-1 .148437-.289063.378906-.5625.699218-.800781m3.539063 1.148437c0-.367187-.128907-.648437-.410157-.847656-.269531-.199219-.667968-.300781-1.1875-.300781-.523437 0-.910156.101562-1.191406.300781-.269531.199219-.410156.480469-.410156.847656 0 .382813.140625.660156.410156.863281.28125.199219.667969.289063 1.191406.289063.519532 0 .917969-.089844 1.1875-.289063.28125-.203125.410157-.480468.410157-.863281"/></g><g clip-path="url(#d)"><path d="m2.980469 27.425781v-1.75h7.597656v1.75z"/></g><path d="m6.230469 21.398438c0 .390624.140625.6875.417969.890624.28125.199219.679687.296876 1.203124.296876.527344 0 .929688-.097657 1.207032-.296876.28125-.203124.410156-.5.410156-.890624 0-.382813-.128906-.671876-.410156-.871094-.277344-.199219-.679688-.308594-1.207032-.308594-.523437 0-.921874.109375-1.203124.308594-.277344.199218-.417969.488281-.417969.871094m-1.25 0c0-.941407.257812-1.671876.757812-2.199219.511719-.53125 1.210938-.800781 2.113281-.800781.898438 0 1.609376.269531 2.109376.800781.5.527343.75 1.257812.75 2.199219 0 .9375-.25 1.679687-.75 2.207031-.5.542969-1.210938.800781-2.109376.800781-.902343 0-1.601562-.257812-2.113281-.800781-.5-.527344-.757812-1.269531-.757812-2.207031"/><path d="m5.28125 12.707031h1.429688c-.160157.242188-.28125.480469-.359376.71875-.082031.242188-.121093.492188-.121093.742188 0 .488281.148437.871093.429687 1.140625.28125.277344.679688.410156 1.191406.410156.519532 0 .917969-.132812 1.199219-.410156.277344-.269532.417969-.652344.417969-1.140625 0-.269531-.039062-.53125-.117188-.78125-.082031-.238281-.203124-.46875-.363281-.679688h1.429688c.101562.28125.171875.558594.222656.839844.039063.28125.070313.558594.070313.839844 0 .992187-.25 1.761719-.75 2.320312-.5.558594-1.210938.832031-2.109376.832031-.902343 0-1.601562-.273437-2.113281-.832031-.5-.558593-.757812-1.328125-.757812-2.320312 0-.28125.03125-.558594.078125-.839844.050781-.28125.121094-.558594.222656-.839844"/><g clip-path="url(#e)"><path d="m2.980469 11.199219v-1.75h4.140625l-2.011719-2.011719v-2.03125l2.511719 2.671875 2.957031-2.878906v2.117187l-2.277344 2.132813h2.277344v1.75z"/></g><g stroke-miterlimit="10"><path d="m49.623375 34.977344h.324219v6.507812h1.300781v6.507813h12.347656v6.507812h1.625v6.507813h11.699219v6.507812h11.375v6.507813h3.574219v6.507812h18.199218v6.511719h.976563v6.507812h18.847656v6.507813h19.824219v6.507812h78.96875v6.507813h48.097656v6.507812h.652344v6.507813h96.84375" fill="none" stroke="#1f77b4" stroke-dasharray="5.92 2.56" stroke-linejoin="round" stroke-width="1.6" transform="matrix(1 0 0 -1 2.986 143.95)"/><path d="m49.623375 34.977344h.324219v6.507812h19.5v6.507813h61.097656v6.507812h243.734375" fill="none" stroke="#000" stroke-dasharray="2.2 3.63" stroke-linejoin="round" stroke-width="2.2" transform="matrix(1 0 0 -1 2.986 143.95)"/><path d="m49.623375 34.977344h.324219v6.507812h5.199218v6.507813h7.476563v6.507812h18.199219v6.507813h12.023437v6.507812h7.472656v6.507813h7.800782v6.507812h21.773437v6.511719h27.625v6.507812h22.746094v6.507813h13.648437v6.507812h2.925782v6.507813h177.441406" fill="none" stroke="#ff7f0e" stroke-dasharray="10.24 2.56 1.6 2.56" stroke-linejoin="round" stroke-width="1.6" transform="matrix(1 0 0 -1 2.986 143.95)"/><path d="m49.623375 34.977344h.324219v6.507812h19.824218v6.507813h1.300782v6.507812h27.949218v6.507813h21.121094v6.507812h20.800781v6.507813h9.75v6.507812h18.195313v6.511719h98.46875v6.507812h106.921875" fill="none" stroke="#2ca02c" stroke-linecap="square" stroke-linejoin="round" stroke-width="1.6" transform="matrix(1 0 0 -1 2.986 143.95)"/><path d="m-3.000025-3.000156 6 6m-6 0 6-6" fill="#2ca02c" stroke="#2ca02c" stroke-linejoin="round" transform="matrix(1 0 0 -1 52.6094 108.9725)"/><path d="m-3.000706-3.000156 6 6m-6 0 6-6" fill="#2ca02c" stroke="#2ca02c" stroke-linejoin="round" transform="matrix(1 0 0 -1 52.9343 108.9725)"/><path d="m-3.000287-3.000444 6 6m-6 0 6-6" fill="#2ca02c" stroke="#2ca02c" stroke-linejoin="round" transform="matrix(1 0 0 -1 72.7581 102.4644)"/><path d="m-2.999406-3.000631 6 6m-6 0 6-6" fill="#2ca02c" stroke="#2ca02c" stroke-linejoin="round" transform="matrix(1 0 0 -1 74.058 95.9564)"/><path d="m-2.998388-3.000919 6 6m-6 0 6-6" fill="#2ca02c" stroke="#2ca02c" stroke-linejoin="round" transform="matrix(1 0 0 -1 102.0062 89.4483)"/><path d="m-3.000994-3.001106 6 6m-6 0 6-6" fill="#2ca02c" stroke="#2ca02c" stroke-linejoin="round" transform="matrix(1 0 0 -1 123.1299 82.9403)"/><path d="m-2.998913-3.001394 6 6m-6 0 6-6" fill="#2ca02c" stroke="#2ca02c" stroke-linejoin="round" transform="matrix(1 0 0 -1 143.9286 76.4322)"/><path d="m-2.998313-3.001581 6 6m-6 0 6-6" fill="#2ca02c" stroke="#2ca02c" stroke-linejoin="round" transform="matrix(1 0 0 -1 153.678 69.9242)"/><path d="m-3.0018-3.001869 6 6m-6 0 6-6" fill="#2ca02c" stroke="#2ca02c" stroke-linejoin="round" transform="matrix(1 0 0 -1 171.8768 63.4161)"/><path d="m-3.00185-2.99815 6 6m-6 0 6-6" fill="#2ca02c" stroke="#2ca02c" stroke-linejoin="round" transform="matrix(1 0 0 -1 270.3456 56.9081)"/><path d="m-2.999694-2.998438 6 6m-6 0 6-6" fill="#2ca02c" stroke="#2ca02c" stroke-linejoin="round" transform="matrix(1 0 0 -1 342.8161 50.4)"/><path d="m-2.998275-2.998438 6 6m-6 0 6-6" fill="#2ca02c" stroke="#2ca02c" stroke-linejoin="round" transform="matrix(1 0 0 -1 377.2639 50.4)"/><path d="m33.389 30.422656v100.222656" fill="none" stroke="#000" stroke-linecap="square" stroke-width=".8" transform="matrix(1 0 0 -1 2.986 143.95)"/></g><g clip-path="url(#f)"><path d="m390.510094 30.422656v100.222656" fill="none" stroke="#000" stroke-linecap="square" stroke-miterlimit="10" stroke-width=".8" transform="matrix(1 0 0 -1 2.986 143.95)"/></g><g clip-path="url(#g)"><path d="m33.389 30.422656h357.121094" fill="none" stroke="#000" stroke-linecap="square" stroke-miterlimit="10" stroke-width=".8" transform="matrix(1 0 0 -1 2.986 143.95)"/></g><g clip-path="url(#h)"><path d="m33.389 130.645312h357.121094" fill="none" stroke="#000" stroke-linecap="square" stroke-miterlimit="10" stroke-width=".8" transform="matrix(1 0 0 -1 2.986 143.95)"/></g><path d="m35.248375 137.598437h20" style="fill:none;stroke-width:1.6;stroke-linejoin:round;stroke:#1f77b4;stroke-dasharray:5.92 2.56;stroke-miterlimit:10" transform="matrix(1 0 0 -1 2.986 143.95)"/><path d="m69.035156 3.984375v4.449219h.667969c.761719 0 1.351563-.191406 1.761719-.570313.398437-.378906.609375-.929687.609375-1.660156 0-.71875-.210938-1.269531-.609375-1.648437-.402344-.382813-.992188-.570313-1.761719-.570313zm-1.882812-1.421875h1.980468c1.101563 0 1.929688.082031 2.472657.242188.539062.160156 1.007812.417968 1.398437.796874.339844.332032.589844.710938.761719 1.140626.160156.429687.25.921874.25 1.460937 0 .550781-.089844 1.039063-.25 1.46875-.171875.441406-.421875.820313-.761719 1.140625-.398437.378906-.871094.652344-1.410156.8125-.550781.15625-1.371094.226562-2.460938.226562h-1.980468z"/><path d="m75.3125 7.722656v-3.339844h1.761719v.550782c0 .300781-.011719.667968-.011719 1.121094v.886718c0 .441406.011719.761719.03125.953125.019531.199219.058594.339844.121094.417969.070312.121094.160156.210938.28125.269531.109375.0625.238281.089844.398437.089844.359375 0 .648438-.140625.859375-.417969.199219-.28125.308594-.671875.308594-1.171875v-2.699219h1.75v5.46875h-1.75v-.789062c-.257812.320312-.539062.5625-.839844.699219-.296875.140625-.617187.222656-.96875.222656-.640625 0-1.121094-.191406-1.449218-.570313-.332032-.382812-.492188-.949218-.492188-1.691406"/><path d="m84.246094 9.0625v2.859375h-1.75v-7.539063h1.75v.800782c.238281-.320313.5-.550782.796875-.699219.292969-.152344.632812-.230469 1.011719-.230469.667968 0 1.21875.269532 1.660156.808594.429687.539062.648437 1.21875.648437 2.0625 0 .847656-.21875 1.539062-.648437 2.066406-.441406.53125-.992188.792969-1.660156.792969-.378907 0-.71875-.082031-1.011719-.222656-.296875-.136719-.558594-.378907-.796875-.699219m1.15625-3.539062c-.378906 0-.65625.140624-.859375.410156-.199219.28125-.296875.667968-.296875 1.191406 0 .519531.097656.917969.296875 1.1875.203125.28125.480469.410156.859375.410156.371094 0 .652344-.128906.851562-.410156.199219-.269531.300782-.667969.300782-1.1875 0-.523438-.101563-.910156-.300782-1.191406-.199218-.269532-.480468-.410156-.851562-.410156"/><path d="m89.652344 2.253906h1.75v7.597656h-1.75z"/><path d="m93.085938 4.382812h1.75v5.46875h-1.75zm0-2.128906h1.75v1.429688h-1.75z"/><path d="m100.933594 4.554688v1.429687c-.238282-.160156-.480469-.28125-.71875-.359375-.242188-.082031-.492188-.121094-.742188-.121094-.488281 0-.867187.148438-1.136718.429688-.28125.28125-.410157.679687-.410157 1.191406 0 .519531.128907.917969.410157 1.199219.269531.277343.648437.417969 1.136718.417969.273438 0 .53125-.039063.78125-.117188.242188-.082031.46875-.203125.679688-.363281v1.429687c-.28125.101563-.558594.171875-.839844.222656-.28125.039063-.558594.070313-.839844.070313-.988281 0-1.757812-.25-2.320312-.75-.558594-.5-.828125-1.210937-.828125-2.109375 0-.902344.269531-1.601562.828125-2.113281.5625-.5 1.332031-.757813 2.320312-.757813.28125 0 .558594.027344.839844.078125s.558594.121094.839844.222657"/><path d="m104.894531 7.394531c-.371093 0-.648437.070313-.832031.1875-.179688.121094-.269531.300781-.269531.542969 0 .21875.070312.398438.222656.519531.148437.128907.359375.1875.617187.1875.332032 0 .613282-.109375.832032-.347656.21875-.242187.339844-.53125.339844-.890625v-.199219zm2.667969-.660156v3.117187h-1.757812v-.808593c-.242188.339843-.5.582031-.789063.71875-.300781.140625-.652344.222656-1.070313.222656-.570312 0-1.03125-.160156-1.382812-.492187-.359375-.320313-.527344-.75-.527344-1.277344 0-.640625.21875-1.113282.660156-1.410156.4375-.300782 1.128907-.453126 2.078126-.453126h1.03125v-.136718c0-.273438-.109376-.472656-.332032-.601563-.21875-.128906-.558594-.199219-1.019531-.199219-.378906 0-.730469.039063-1.050781.117188-.316406.082031-.617188.191406-.886719.332031v-1.332031c.367187-.089844.738281-.15625 1.117187-.207031.382813-.042969.761719-.070313 1.140626-.070313.980468 0 1.691406.199219 2.128906.589844.441406.390625.660156 1.019531.660156 1.890625"/><path d="m111.105469 2.832031v1.550781h1.796875v1.25h-1.796875v2.320313c0 .261719.046875.429687.148437.519531.101563.089844.300782.128906.601563.128906h.898437v1.25h-1.5c-.691406 0-1.179687-.136718-1.46875-.429687-.289062-.277344-.429687-.769531-.429687-1.46875v-2.320313h-.871094v-1.25h.871094v-1.550781z"/><path d="m113.972656 4.382812h1.75v5.46875h-1.75zm0-2.128906h1.75v1.429688h-1.75z"/><path d="m120.003906 5.503906c-.390625 0-.691406.140625-.890625.417969-.199219.28125-.300781.679687-.300781 1.203125 0 .527344.101562.929688.300781 1.207031.199219.28125.5.410157.890625.410157.378906 0 .671875-.128907.871094-.410157.199219-.277343.308594-.679687.308594-1.207031 0-.523438-.109375-.921875-.308594-1.203125-.199219-.277344-.492188-.417969-.871094-.417969m0-1.25c.941406 0 1.671875.257813 2.199219.757813.53125.511719.800781 1.210937.800781 2.113281 0 .898438-.269531 1.609375-.800781 2.109375-.527344.5-1.257813.75-2.199219.75s-1.679687-.25-2.210937-.75c-.539063-.5-.796875-1.210937-.796875-2.109375 0-.902344.257812-1.601562.796875-2.113281.53125-.5 1.269531-.757813 2.210937-.757813"/><path d="m129.773438 6.523438v3.328124h-1.757813v-2.546874c0-.472657-.011719-.792969-.03125-.972657-.019531-.179687-.058594-.308593-.109375-.398437-.070312-.109375-.160156-.199219-.28125-.261719-.121094-.058594-.257812-.097656-.398438-.097656-.371093 0-.660156.140625-.859374.417969-.210938.28125-.3125.671874-.3125 1.171874v2.6875h-1.75v-5.46875h1.75v.800782c.261718-.320313.53125-.550782.832031-.699219.296875-.152344.628906-.230469.988281-.230469.628906 0 1.109375.199219 1.441406.578125.320313.390625.488282.949219.488282 1.691407"/><path d="m147.54525 137.598437h20" style="fill:none;stroke-width:2.2;stroke-linejoin:round;stroke:#000;stroke-dasharray:2.2 3.63;stroke-miterlimit:10" transform="matrix(1 0 0 -1 2.986 143.95)"/><path d="m179.449219 2.5625h2.390625l1.660156 3.902344 1.671875-3.902344h2.390625v7.289062h-1.78125v-5.328124l-1.679688 3.929687h-1.191406l-1.679687-3.929687v5.328124h-1.78125z"/><path d="m189.261719 7.722656v-3.339844h1.757812v.550782c0 .300781-.007812.667968-.007812 1.121094v.886718c0 .441406.007812.761719.03125.953125.019531.199219.058593.339844.117187.417969.070313.121094.160156.210938.28125.269531.109375.0625.238282.089844.398438.089844.359375 0 .652344-.140625.859375-.417969.203125-.28125.3125-.671875.3125-1.171875v-2.699219h1.75v5.46875h-1.75v-.789062c-.261719.320312-.539063.5625-.839844.699219-.300781.140625-.621094.222656-.972656.222656-.636719 0-1.117188-.191406-1.449219-.570313-.328125-.382812-.488281-.949218-.488281-1.691406"/><path d="m198.351562 2.832031v1.550781h1.800782v1.25h-1.800782v2.320313c0 .261719.050782.429687.148438.519531.101562.089844.300781.128906.601562.128906h.898438v1.25h-1.5c-.6875 0-1.179688-.136718-1.46875-.429687-.289062-.277344-.429688-.769531-.429688-1.46875v-2.320313h-.871093v-1.25h.871093v-1.550781z"/><path d="m203.671875 7.394531c-.371094 0-.652344.070313-.832031.1875-.179688.121094-.269532.300781-.269532.542969 0 .21875.070313.398438.222657.519531.148437.128907.359375.1875.617187.1875.332032 0 .609375-.109375.832032-.347656.21875-.242187.339843-.53125.339843-.890625v-.199219zm2.667969-.660156v3.117187h-1.757813v-.808593c-.242187.339843-.5.582031-.789062.71875-.300781.140625-.652344.222656-1.070313.222656-.570312 0-1.03125-.160156-1.382812-.492187-.359375-.320313-.527344-.75-.527344-1.277344 0-.640625.21875-1.113282.660156-1.410156.4375-.300782 1.128906-.453126 2.078125-.453126h1.03125v-.136718c0-.273438-.109375-.472656-.332031-.601563-.21875-.128906-.558594-.199219-1.019531-.199219-.378907 0-.730469.039063-1.050781.117188-.320313.082031-.617188.191406-.886719.332031v-1.332031c.367187-.089844.738281-.15625 1.117187-.207031.382813-.042969.761719-.070313 1.140625-.070313.980469 0 1.691407.199219 2.128907.589844.441406.390625.660156 1.019531.660156 1.890625"/><path d="m209.882812 2.832031v1.550781h1.796876v1.25h-1.796876v2.320313c0 .261719.046876.429687.148438.519531s.300781.128906.601562.128906h.898438v1.25h-1.5c-.691406 0-1.179688-.136718-1.46875-.429687-.292969-.277344-.429688-.769531-.429688-1.46875v-2.320313h-.871093v-1.25h.871093v-1.550781z"/><path d="m212.75 4.382812h1.75v5.46875h-1.75zm0-2.128906h1.75v1.429688h-1.75z"/><path d="m218.78125 5.503906c-.390625 0-.691406.140625-.890625.417969-.199219.28125-.300781.679687-.300781 1.203125 0 .527344.101562.929688.300781 1.207031.199219.28125.5.410157.890625.410157.378906 0 .667969-.128907.871094-.410157.199218-.277343.308594-.679687.308594-1.207031 0-.523438-.109376-.921875-.308594-1.203125-.203125-.277344-.492188-.417969-.871094-.417969m0-1.25c.941406 0 1.667969.257813 2.199219.757813.53125.511719.800781 1.210937.800781 2.113281 0 .898438-.269531 1.609375-.800781 2.109375s-1.257813.75-2.199219.75-1.679688-.25-2.210938-.75c-.539062-.5-.800781-1.210937-.800781-2.109375 0-.902344.261719-1.601562.800781-2.113281.53125-.5 1.269532-.757813 2.210938-.757813"/><path d="m228.550781 6.523438v3.328124h-1.757812v-2.546874c0-.472657-.011719-.792969-.03125-.972657-.019531-.179687-.0625-.308593-.109375-.398437-.070313-.109375-.160156-.199219-.28125-.261719-.121094-.058594-.261719-.097656-.398438-.097656-.371094 0-.660156.140625-.863281.417969-.207031.28125-.308594.671874-.308594 1.171874v2.6875h-1.75v-5.46875h1.75v.800782c.261719-.320313.53125-.550782.832031-.699219.296876-.152344.628907-.230469.988282-.230469.628906 0 1.109375.199219 1.441406.578125.320312.390625.488281.949219.488281 1.691407"/><path d="m246.35775 137.598437h20" style="fill:none;stroke-width:1.6;stroke-linejoin:round;stroke:#ff7f0e;stroke-dasharray:10.24 2.56 1.6 2.56;stroke-miterlimit:10" transform="matrix(1 0 0 -1 2.986 143.95)"/><path d="m278.261719 2.5625h5.070312v1.421875h-3.1875v1.359375h3v1.417969h-3v1.671875h3.300781v1.417968h-5.183593z"/><path d="m284.324219 4.382812h1.75l1.359375 3.78125 1.359375-3.78125h1.75l-2.148438 5.46875h-1.921875z"/><path d="m294.132812 5.503906c-.390624 0-.6875.140625-.890624.417969-.199219.28125-.296876.679687-.296876 1.203125 0 .527344.097657.929688.296876 1.207031.203124.28125.5.410157.890624.410157.378907 0 .671876-.128907.871094-.410157.199219-.277343.308594-.679687.308594-1.207031 0-.523438-.109375-.921875-.308594-1.203125-.199218-.277344-.492187-.417969-.871094-.417969m0-1.25c.941407 0 1.671876.257813 2.199219.757813.53125.511719.800781 1.210937.800781 2.113281 0 .898438-.269531 1.609375-.800781 2.109375-.527343.5-1.257812.75-2.199219.75-.9375 0-1.679687-.25-2.210937-.75-.539063-.5-.796875-1.210937-.796875-2.109375 0-.902344.257812-1.601562.796875-2.113281.53125-.5 1.273437-.757813 2.210937-.757813"/><path d="m298.402344 2.253906h1.75v7.597656h-1.75z"/><path d="m301.773438 7.722656v-3.339844h1.761718v.550782c0 .300781-.011718.667968-.011718 1.121094v.886718c0 .441406.011718.761719.03125.953125.019531.199219.058593.339844.117187.417969.070313.121094.160156.210938.28125.269531.109375.0625.242187.089844.402344.089844.359375 0 .648437-.140625.859375-.417969.199218-.28125.308594-.671875.308594-1.171875v-2.699219h1.75v5.46875h-1.75v-.789062c-.261719.320312-.539063.5625-.839844.699219-.300782.140625-.621094.222656-.96875.222656-.640625 0-1.121094-.191406-1.453125-.570313-.328125-.382812-.488281-.949218-.488281-1.691406"/><path d="m310.863281 2.832031v1.550781h1.800781v1.25h-1.800781v2.320313c0 .261719.050781.429687.148438.519531.101562.089844.300781.128906.601562.128906h.898438v1.25h-1.5c-.6875 0-1.179688-.136718-1.46875-.429687-.289063-.277344-.429688-.769531-.429688-1.46875v-2.320313h-.871093v-1.25h.871093v-1.550781z"/><path d="m313.734375 4.382812h1.75v5.46875h-1.75zm0-2.128906h1.75v1.429688h-1.75z"/><path d="m319.761719 5.503906c-.386719 0-.6875.140625-.886719.417969-.203125.28125-.300781.679687-.300781 1.203125 0 .527344.097656.929688.300781 1.207031.199219.28125.5.410157.886719.410157.382812 0 .671875-.128907.871093-.410157.199219-.277343.3125-.679687.3125-1.207031 0-.523438-.113281-.921875-.3125-1.203125-.199218-.277344-.488281-.417969-.871093-.417969m0-1.25c.941406 0 1.671875.257813 2.203125.757813.527344.511719.796875 1.210937.796875 2.113281 0 .898438-.269531 1.609375-.796875 2.109375-.53125.5-1.261719.75-2.203125.75-.9375 0-1.679688-.25-2.207031-.75-.542969-.5-.800782-1.210937-.800782-2.109375 0-.902344.257813-1.601562.800782-2.113281.527343-.5 1.269531-.757813 2.207031-.757813"/><path d="m329.535156 6.523438v3.328124h-1.761718v-2.546874c0-.472657-.011719-.792969-.03125-.972657-.019532-.179687-.058594-.308593-.109376-.398437-.070312-.109375-.160156-.199219-.277343-.261719-.121094-.058594-.261719-.097656-.402344-.097656-.371094 0-.660156.140625-.859375.417969-.210938.28125-.308594.671874-.308594 1.171874v2.6875h-1.75v-5.46875h1.75v.800782c.257813-.320313.527344-.550782.828125-.699219.300781-.152344.628907-.230469.992188-.230469.628906 0 1.109375.199219 1.4375.578125.320312.390625.492187.949219.492187 1.691407"/><path d="m347.3265 137.598437h20" style="fill:none;stroke-width:1.6;stroke-linecap:square;stroke-linejoin:round;stroke:#2ca02c;stroke-miterlimit:10" transform="matrix(1 0 0 -1 2.986 143.95)"/><path d="m354.3265 134.598437 6 6m-6 0 6-6" fill="#2ca02c" stroke="#2ca02c" stroke-linejoin="round" stroke-miterlimit="10" transform="matrix(1 0 0 -1 2.986 143.95)"/><path d="m383.652344 8.523438h-2.941406l-.457032 1.328124h-1.890625l2.699219-7.289062h2.238281l2.703125 7.289062h-1.890625zm-2.46875-1.351563h2l-1-2.898437z"/><path d="m386.890625 2.253906h1.75v7.597656h-1.75z"/><path d="m390.324219 2.253906h1.75v7.597656h-1.75z"/></svg>