<svg height="46pt" viewBox="0 0 164 46" width="164pt" xmlns="http://www.w3.org/2000/svg" xmlns:xlink="http://www.w3.org/1999/xlink"><clipPath id="a"><path d="m0 0h164v46h-164z"/></clipPath><symbol id="b" overflow="visible"><path d="m2.75-3.59375h.484375v2.078125c0 .355469-.042969.640625-.125.859375-.085937.210938-.234375.382812-.453125.515625-.210938.13671875-.484375.203125-.828125.203125s-.625-.05859375-.84375-.171875c-.210937-.113281-.359375-.28125-.453125-.5-.09375-.226563-.140625-.53125-.140625-.90625v-2.078125h.484375v2.078125c0 .3125.023438.542969.078125.6875.0625.148437.160156.261719.296875.34375.144531.074219.320312.109375.53125.109375.34375 0 .585938-.078125.734375-.234375.15625-.15625.234375-.457031.234375-.90625zm0 0"/></symbol><symbol id="c" overflow="visible"><path d="m.21875-1.15625.453125-.046875c.019531.1875.066406.339844.140625.453125.082031.117188.207031.210938.375.28125.164062.074219.347656.109375.546875.109375.1875 0 .347656-.023437.484375-.078125.132812-.0625.238281-.140625.3125-.234375.070312-.09375.109375-.195313.109375-.3125 0-.101563-.039063-.195313-.109375-.28125-.0625-.09375-.167969-.164063-.3125-.21875-.105469-.039063-.324219-.097656-.65625-.171875-.324219-.082031-.554688-.160156-.6875-.234375-.179688-.082031-.308594-.191406-.390625-.328125-.085937-.132812-.125-.285156-.125-.453125 0-.175781.050781-.34375.15625-.5.101563-.164063.253906-.285156.453125-.359375.195312-.082031.414062-.125.65625-.125.269531 0 .503906.042969.703125.125.207031.085938.363281.210938.46875.375.113281.167969.175781.355469.1875.5625l-.453125.046875c-.03125-.226563-.121094-.398437-.265625-.515625-.136719-.125-.339844-.1875-.609375-.1875-.292969 0-.507812.058594-.640625.171875-.125.105469-.1875.230469-.1875.375 0 .125.046875.230469.140625.3125.082031.09375.316406.183594.703125.265625.394531.085938.664063.164062.8125.234375.207031.09375.359375.214844.453125.359375.101562.148438.15625.320312.15625.515625 0 .1875-.058594.371094-.171875.546875-.105469.167969-.261719.296875-.46875.390625-.210937.09375-.4375.140625-.6875.140625-.335937 0-.609375-.046875-.828125-.140625s-.390625-.234375-.515625-.421875c-.125-.195312-.195313-.414062-.203125-.65625zm0 0"/></symbol><symbol id="d" overflow="visible"><path d="m.375 0v-3.59375h1.34375c.269531 0 .488281.039062.65625.109375.164062.0625.296875.171875.390625.328125s.140625.3125.140625.46875-.042969.304688-.125.4375c-.085938.136719-.210938.246094-.375.328125.21875.0625.382812.171875.5.328125.125.15625.1875.339844.1875.546875 0 .167969-.039062.324219-.109375.46875-.074219.148437-.164063.261719-.265625.34375-.105469.074219-.242188.132813-.40625.171875-.15625.0429688-.351562.0625-.578125.0625zm.46875-2.09375h.78125c.207031 0 .359375-.007812.453125-.03125.125-.039062.210937-.101562.265625-.1875.0625-.082031.09375-.1875.09375-.3125 0-.113281-.03125-.21875-.09375-.3125-.054688-.09375-.132812-.15625-.234375-.1875-.105469-.03125-.289063-.046875-.546875-.046875h-.71875zm0 1.671875h.890625c.15625 0 .265625-.003906.328125-.015625.113281-.019531.207031-.050781.28125-.09375.070312-.050781.128906-.117188.171875-.203125.050781-.09375.078125-.195313.078125-.3125 0-.132813-.039062-.25-.109375-.34375-.0625-.101563-.15625-.171875-.28125-.203125-.125-.039062-.304687-.0625-.53125-.0625h-.828125zm0 0"/></symbol><symbol id="e" overflow="visible"><path d="m.390625 0v-3.59375h2.609375v.421875h-2.125v1.09375h1.984375v.421875h-1.984375v1.234375h2.203125v.421875zm0 0"/></symbol><symbol id="f" overflow="visible"><path d="m1.296875-.390625.0625.390625c-.125.0195312-.234375.03125-.328125.03125-.167969 0-.296875-.02734375-.390625-.078125-.085937-.0507812-.148437-.113281-.1875-.1875-.03125-.082031-.046875-.257813-.046875-.53125v-1.5h-.3125v-.34375h.3125v-.640625l.453125-.265625v.90625h.4375v.34375h-.4375v1.53125c0 .125.003906.210937.015625.25.019531.03125.046875.058594.078125.078125.03125.023438.082031.03125.15625.03125.039063 0 .101563-.003906.1875-.015625zm0 0"/></symbol><symbol id="g" overflow="visible"><path d="m.328125 0v-3.59375h.453125v1.28125c.195312-.238281.457031-.359375.78125-.359375.1875 0 .347656.042969.484375.125.144531.074219.25.179687.3125.3125.0625.136719.09375.328125.09375.578125v1.65625h-.4375v-1.65625c0-.21875-.046875-.375-.140625-.46875-.09375-.101562-.230469-.15625-.40625-.15625-.136719 0-.261719.039062-.375.109375-.117188.0625-.199219.152344-.25.265625-.042969.117188-.0625.277344-.0625.484375v1.421875zm0 0"/></symbol><symbol id="h" overflow="visible"><path d="m2.125-.84375.453125.0625c-.074219.261719-.210937.46875-.40625.625-.199219.1484375-.449219.21875-.75.21875-.375 0-.679687-.1132812-.90625-.34375-.21875-.238281-.328125-.570312-.328125-1 0-.4375.109375-.773438.328125-1.015625.226563-.25.523437-.375.890625-.375.34375 0 .625.121094.84375.359375.226562.242188.34375.574219.34375 1v.125h-1.953125c.019531.28125.101563.5.25.65625.144531.15625.328125.234375.546875.234375.15625 0 .289062-.039063.40625-.125.113281-.09375.207031-.234375.28125-.421875zm-1.453125-.71875h1.453125c-.023438-.21875-.078125-.378906-.171875-.484375-.136719-.164063-.320313-.25-.546875-.25-.199219 0-.371094.070313-.515625.203125-.136719.136719-.210937.3125-.21875.53125zm0 0"/></symbol><symbol id="i" overflow="visible"><path d="m.328125 0v-2.609375h.390625v.390625c.101562-.175781.195312-.296875.28125-.359375.09375-.0625.191406-.09375.296875-.09375.144531 0 .296875.046875.453125.140625l-.15625.421875c-.105469-.070313-.214844-.109375-.328125-.109375-.09375 0-.183594.03125-.265625.09375-.074219.0625-.125.148438-.15625.25-.054688.15625-.078125.328125-.078125.515625v1.359375zm0 0"/></symbol><symbol id="j" overflow="visible"><path d="m.328125 0v-2.609375h.40625v.375c.1875-.289063.460937-.4375.828125-.4375.15625 0 .296875.03125.421875.09375.132813.054687.234375.125.296875.21875.070312.09375.117188.203125.140625.328125.019531.085938.03125.226562.03125.421875v1.609375h-.4375v-1.59375c0-.175781-.023437-.304688-.0625-.390625-.03125-.09375-.09375-.164063-.1875-.21875-.085937-.050781-.183594-.078125-.296875-.078125-.1875 0-.351562.0625-.484375.1875-.136719.117188-.203125.339844-.203125.671875v1.421875zm0 0"/></symbol><symbol id="k" overflow="visible"/><symbol id="l" overflow="visible"><path d="m2.03125-.328125c-.167969.148437-.328125.25-.484375.3125-.148437.0507812-.304687.078125-.46875.078125-.292969 0-.515625-.06640625-.671875-.203125-.148438-.144531-.21875-.328125-.21875-.546875 0-.125.023438-.238281.078125-.34375.0625-.113281.140625-.203125.234375-.265625s.195312-.109375.3125-.140625c.09375-.019531.222656-.039062.390625-.0625.363281-.039062.628906-.09375.796875-.15625 0-.0625 0-.097656 0-.109375 0-.1875-.042969-.316406-.125-.390625-.117188-.09375-.28125-.140625-.5-.140625-.210938 0-.367188.039063-.46875.109375-.09375.074219-.167969.199219-.21875.375l-.421875-.046875c.03125-.1875.09375-.335937.1875-.453125.09375-.113281.222656-.203125.390625-.265625.164062-.0625.363281-.09375.59375-.09375.21875 0 .394531.027344.53125.078125.144531.054688.25.121094.3125.203125.070312.085937.117188.183594.140625.296875.007813.074219.015625.210938.015625.40625v.59375c0 .40625.007812.667969.03125.78125.019531.105469.054688.210938.109375.3125h-.453125c-.054688-.09375-.085938-.203125-.09375-.328125zm-.03125-.984375c-.167969.0625-.40625.121094-.71875.171875-.1875.023437-.320312.054687-.390625.09375-.074219.03125-.132813.078125-.171875.140625-.042969.0625-.0625.132812-.0625.203125 0 .125.039062.230469.125.3125.09375.074219.222656.109375.390625.109375.175781 0 .328125-.035156.453125-.109375.132812-.082031.234375-.1875.296875-.3125.050781-.101563.078125-.25.078125-.4375zm0 0"/></symbol><symbol id="m" overflow="visible"><path d="m2.046875 0v-.390625c-.210937.3046875-.484375.453125-.828125.453125-.15625 0-.304688-.03125-.4375-.09375-.136719-.0625-.234375-.132812-.296875-.21875-.0625-.09375-.109375-.203125-.140625-.328125-.011719-.082031-.015625-.222656-.015625-.421875v-1.609375h.4375v1.453125c0 .230469.007813.386719.03125.46875.019531.117188.078125.203125.171875.265625s.203125.09375.328125.09375c.132813 0 .257813-.03125.375-.09375.113281-.070313.195313-.164063.25-.28125.050781-.113281.078125-.285156.078125-.515625v-1.390625h.4375v2.609375zm0 0"/></symbol><symbol id="n" overflow="visible"><path d="m.328125 1v-3.609375h.40625v.34375c.09375-.132813.195313-.234375.3125-.296875.125-.070312.269531-.109375.4375-.109375.226563 0 .425781.058594.59375.171875.175781.117188.304687.277344.390625.484375.082031.210937.125.4375.125.6875 0 .273437-.046875.515625-.140625.734375-.09375.210938-.234375.371094-.421875.484375-.179688.11328125-.371094.171875-.578125.171875-.148437 0-.277344-.03125-.390625-.09375-.117188-.0625-.210938-.140625-.28125-.234375v1.265625zm.40625-2.296875c0 .34375.066406.601563.203125.765625.132812.15625.300781.234375.5.234375.1875 0 .347656-.082031.484375-.25.144531-.164063.21875-.425781.21875-.78125 0-.332031-.070313-.582031-.203125-.75-.136719-.164063-.296875-.25-.484375-.25s-.355469.089844-.5.265625c-.148437.179688-.21875.433594-.21875.765625zm0 0"/></symbol><symbol id="o" overflow="visible"><path d="m.171875-1.296875c0-.488281.128906-.847656.390625-1.078125.226562-.195312.503906-.296875.828125-.296875.351563 0 .644531.121094.875.359375.226563.230469.34375.554688.34375.96875 0 .335938-.054687.601562-.15625.796875-.09375.1875-.242187.339844-.4375.453125-.1875.1015625-.398437.15625-.625.15625-.367187 0-.664063-.1132812-.890625-.34375-.21875-.238281-.328125-.578125-.328125-1.015625zm.453125 0c0 .335937.070312.585937.21875.75.144531.167969.328125.25.546875.25s.398437-.082031.546875-.25c.144531-.175781.21875-.429687.21875-.765625 0-.320312-.074219-.566406-.21875-.734375-.148438-.164063-.328125-.25-.546875-.25s-.402344.085937-.546875.25c-.148438.15625-.21875.40625-.21875.75zm0 0"/></symbol><symbol id="p" overflow="visible"><path d="m2.03125 0v-.328125c-.167969.2617188-.414062.390625-.734375.390625-.210937 0-.402344-.05859375-.578125-.171875-.179688-.113281-.3125-.273437-.40625-.484375-.09375-.207031-.140625-.441406-.140625-.703125 0-.257813.039063-.492187.125-.703125.09375-.21875.222656-.382812.390625-.5.175781-.113281.375-.171875.59375-.171875.15625 0 .289062.039063.40625.109375.125.0625.226562.148438.3125.25v-1.28125h.4375v3.59375zm-1.40625-1.296875c0 .335937.066406.585937.203125.75.144531.167969.316406.25.515625.25.1875 0 .347656-.078125.484375-.234375.132813-.164062.203125-.410156.203125-.734375 0-.351563-.070312-.613281-.203125-.78125-.136719-.164063-.308594-.25-.515625-.25-.199219 0-.367188.078125-.5.234375-.125.15625-.1875.414062-.1875.765625zm0 0"/></symbol><symbol id="q" overflow="visible"><path d="m.375 0v-3.59375h.46875v3.171875h1.78125v.421875zm0 0"/></symbol><symbol id="r" overflow="visible"><path d="m.734375 0h-.40625v-3.59375h.4375v1.28125c.1875-.238281.425781-.359375.71875-.359375.164063 0 .316406.039063.453125.109375.144531.0625.265625.152344.359375.265625.09375.117187.164063.257813.21875.421875.050781.167969.078125.34375.078125.53125 0 .449219-.117188.796875-.34375 1.046875-.21875.2421875-.480469.359375-.78125.359375-.3125 0-.558594-.1289062-.734375-.390625zm0-1.328125c0 .3125.039063.542969.125.6875.144531.230469.332031.34375.5625.34375.195313 0 .363281-.082031.5-.25.144531-.175781.21875-.429687.21875-.765625 0-.332031-.070313-.578125-.203125-.734375-.136719-.164063-.296875-.25-.484375-.25-.199219 0-.371094.085937-.515625.25-.136719.167969-.203125.40625-.203125.71875zm0 0"/></symbol><symbol id="s" overflow="visible"><path d="m2.03125-.953125.4375.046875c-.054688.304688-.179688.542969-.375.71875-.1875.1679688-.421875.25-.703125.25-.367187 0-.65625-.1132812-.875-.34375-.210937-.238281-.3125-.578125-.3125-1.015625 0-.28125.046875-.523437.140625-.734375.09375-.207031.234375-.363281.421875-.46875.1875-.113281.394531-.171875.625-.171875.28125 0 .507813.074219.6875.21875.175781.148437.289063.351563.34375.609375l-.421875.0625c-.042969-.164062-.117188-.289062-.21875-.375-.105469-.09375-.230469-.140625-.375-.140625-.230469 0-.414062.078125-.546875.234375-.136719.15625-.203125.40625-.203125.75 0 .355469.0625.617188.1875.78125.132812.15625.3125.234375.53125.234375.175781 0 .320312-.050781.4375-.15625.113281-.113281.1875-.28125.21875-.5zm0 0"/></symbol><symbol id="t" overflow="visible"><path d="m.328125 0v-3.59375h.453125v2.046875l1.046875-1.0625h.5625l-1 .96875 1.109375 1.640625h-.546875l-.859375-1.328125-.3125.296875v1.03125zm0 0"/></symbol><symbol id="u" overflow="visible"><path d="m.921875 0-.921875-2.578125h.5625l.65625 1.90625.625-1.90625h.546875l-.921875 2.578125zm0 0"/></symbol><symbol id="v" overflow="visible"><path d="m.140625-.953125c0-.164063.039063-.320313.125-.46875.082031-.15625.195313-.273437.34375-.359375.144531-.082031.3125-.125.5-.125.28125 0 .507813.09375.6875.28125.175781.179688.265625.40625.265625.6875s-.09375.515625-.28125.703125c-.179688.1875-.402344.28125-.671875.28125-.179687 0-.34375-.0390625-.5-.109375-.148437-.082031-.261719-.195312-.34375-.34375-.085937-.15625-.125-.335938-.125-.546875zm.515625.015625c0 .1875.039062.335938.125.4375.082031.09375.191406.140625.328125.140625.125 0 .226563-.046875.3125-.140625.09375-.101562.140625-.25.140625-.4375 0-.175781-.046875-.3125-.140625-.40625-.085937-.101562-.1875-.15625-.3125-.15625-.136719 0-.246094.054688-.328125.15625-.085938.09375-.125.230469-.125.40625zm0 0"/></symbol><symbol id="w" overflow="visible"><path d="m.265625 0v-2.578125h.484375v2.578125zm0 0"/></symbol><symbol id="x" overflow="visible"><path d="m.265625 0v-.5h.484375v.5zm0 0"/></symbol><symbol id="y" overflow="visible"/><symbol id="z" overflow="visible"><path d="m.84375 0v-2.140625h-.765625v-.4375h2.046875v.4375h-.765625v2.140625zm0 0"/></symbol><symbol id="A" overflow="visible"><path d="m.75-2.578125v.953125c.15625-.1875.34375-.28125.5625-.28125.113281 0 .21875.023438.3125.0625.09375.042969.160156.101562.203125.171875.050781.0625.082031.136719.09375.21875.019531.074219.03125.195313.03125.359375v1.09375h-.5v-.984375c0-.195313-.011719-.320313-.03125-.375-.011719-.050781-.042969-.09375-.09375-.125-.042969-.03125-.101563-.046875-.171875-.046875-.085938 0-.15625.023438-.21875.0625-.0625.042969-.109375.105469-.140625.1875-.03125.074219-.046875.1875-.046875.34375v.9375h-.5v-2.578125zm0 0"/></symbol><symbol id="B" overflow="visible"><path d="m.734375 0h-.5v-1.859375h.453125v.265625c.082031-.125.15625-.207031.21875-.25.0625-.039062.132812-.0625.21875-.0625.101562 0 .207031.03125.3125.09375l-.140625.4375c-.085937-.0625-.164063-.09375-.234375-.09375-.074219 0-.136719.023438-.1875.0625-.042969.042969-.078125.117188-.109375.21875-.023437.09375-.03125.296875-.03125.609375zm0 0"/></symbol><symbol id="C" overflow="visible"><path d="m1.34375-.59375.484375.078125c-.0625.1875-.164063.328125-.296875.421875-.136719.09375-.308594.140625-.515625.140625-.324219 0-.5625-.109375-.71875-.328125-.125-.164062-.1875-.378906-.1875-.640625 0-.300781.078125-.539063.234375-.71875.164062-.175781.375-.265625.625-.265625.28125 0 .5.09375.65625.28125.15625.179688.234375.453125.234375.828125h-1.234375c0 .15625.035156.277344.109375.359375.082031.074219.175781.109375.28125.109375.082031 0 .148437-.019531.203125-.0625.050781-.039063.09375-.109375.125-.203125zm.015625-.5c0-.144531-.039063-.253906-.109375-.328125-.0625-.070313-.148438-.109375-.25-.109375-.105469 0-.195312.042969-.265625.125-.074219.074219-.109375.179688-.109375.3125zm0 0"/></symbol><symbol id="D" overflow="visible"><path d="m.078125-.53125.5-.078125c.019531.09375.0625.167969.125.21875.0625.054687.15625.078125.28125.078125s.21875-.023438.28125-.078125c.039063-.03125.0625-.070313.0625-.125 0-.039063-.011719-.070313-.03125-.09375-.023437-.019531-.078125-.039063-.171875-.0625-.398438-.09375-.648438-.175781-.75-.25-.148438-.09375-.21875-.226563-.21875-.40625 0-.164063.0625-.300781.1875-.40625.125-.113281.320312-.171875.59375-.171875.25 0 .4375.042969.5625.125.125.085938.210938.210938.265625.375l-.46875.078125c-.023437-.070313-.0625-.125-.125-.15625-.054687-.039063-.125-.0625-.21875-.0625-.136719 0-.230469.015625-.28125.046875-.042969.03125-.0625.070312-.0625.109375 0 .03125.015625.058594.046875.078125.039062.03125.191406.078125.453125.140625.269531.0625.457031.136719.5625.21875.101563.09375.15625.21875.15625.375 0 .167969-.074219.3125-.21875.4375-.148437.125-.355469.1875-.625.1875-.261719 0-.464844-.05078125-.609375-.15625-.148438-.101563-.246094-.242187-.296875-.421875zm0 0"/></symbol><symbol id="E" overflow="visible"><path d="m1.96875 0h-.453125v-.28125c-.085937.117188-.179687.1992188-.28125.25-.105469.0507812-.210937.078125-.3125.078125-.210937 0-.390625-.0820312-.546875-.25-.15625-.175781-.234375-.421875-.234375-.734375s.070313-.550781.21875-.71875c.15625-.164062.347656-.25.578125-.25.207031 0 .382812.089844.53125.265625v-.9375h.5zm-1.3125-.96875c0 .199219.023438.339844.078125.421875.082031.136719.191406.203125.328125.203125.113281 0 .207031-.046875.28125-.140625.082031-.101563.125-.25.125-.4375 0-.21875-.039062-.375-.109375-.46875-.074219-.09375-.171875-.140625-.296875-.140625-.117188 0-.214844.046875-.296875.140625-.074219.09375-.109375.234375-.109375.421875zm0 0"/></symbol><symbol id="F" overflow="visible"><path d="m.3125 0v-3.09375h.921875l.5625 2.109375.5625-2.109375h.921875v3.09375h-.578125v-2.4375l-.609375 2.4375h-.59375l-.609375-2.4375v2.4375zm0 0"/></symbol><symbol id="G" overflow="visible"><path d="m.3125-2.546875v-.546875h.59375v.546875zm0 2.546875v-2.234375h.59375v2.234375zm0 0"/></symbol><symbol id="H" overflow="visible"><path d="m2.265625-1.578125-.59375.109375c-.023437-.113281-.070313-.203125-.140625-.265625-.0625-.0625-.152344-.09375-.265625-.09375-.148437 0-.265625.054687-.359375.15625-.085938.105469-.125.277344-.125.515625 0 .261719.046875.449219.140625.5625.09375.105469.210937.15625.359375.15625.113281 0 .203125-.03125.265625-.09375.070313-.0625.125-.171875.15625-.328125l.578125.09375c-.054688.273437-.167969.476563-.34375.609375-.167969.1367188-.398438.203125-.6875.203125-.324219 0-.585938-.0976562-.78125-.296875-.199219-.207031-.296875-.492188-.296875-.859375 0-.375.097656-.660156.296875-.859375.195312-.207031.460938-.3125.796875-.3125.269531 0 .484375.058594.640625.171875.164062.117187.285156.292969.359375.53125zm0 0"/></symbol><symbol id="I" overflow="visible"><path d="m.875 0h-.59375v-2.234375h.546875v.3125c.09375-.144531.175781-.238281.25-.28125.082031-.050781.171875-.078125.265625-.078125.132812 0 .265625.039062.390625.109375l-.1875.515625c-.09375-.0625-.1875-.09375-.28125-.09375-.085937 0-.15625.023438-.21875.0625-.054687.042969-.09375.125-.125.25-.03125.117188-.046875.367188-.046875.75zm0 0"/></symbol><symbol id="J" overflow="visible"><path d="m.171875-1.15625c0-.1875.046875-.375.140625-.5625.101562-.1875.242188-.328125.421875-.421875.175781-.09375.375-.140625.59375-.140625.332031 0 .609375.109375.828125.328125s.328125.496094.328125.828125c0 .34375-.109375.625-.328125.84375s-.496094.328125-.828125.328125c-.210937 0-.40625-.046875-.59375-.140625-.179687-.09375-.320313-.226562-.421875-.40625-.09375-.175781-.140625-.394531-.140625-.65625zm.609375.03125c0 .230469.050781.402344.15625.515625.101562.117187.234375.171875.390625.171875s.285156-.054688.390625-.171875c.101562-.113281.15625-.285156.15625-.515625 0-.21875-.054688-.382812-.15625-.5-.105469-.113281-.234375-.171875-.390625-.171875s-.289063.058594-.390625.171875c-.105469.117188-.15625.28125-.15625.5zm0 0"/></symbol><symbol id="K" overflow="visible"><path d="m.296875-2.234375h.546875v.328125c.070312-.113281.164062-.203125.28125-.265625.125-.070313.265625-.109375.421875-.109375.257813 0 .476563.105469.65625.3125.175781.199219.265625.480469.265625.84375 0 .367188-.09375.652344-.28125.859375-.179688.2109375-.398438.3125-.65625.3125-.117188 0-.226562-.0234375-.328125-.0625-.105469-.0507812-.210937-.140625-.3125-.265625v1.125h-.59375zm.578125 1.078125c0 .25.046875.4375.140625.5625.101563.117188.226563.171875.375.171875.132813 0 .25-.050781.34375-.15625.09375-.113281.140625-.296875.140625-.546875 0-.238281-.046875-.410156-.140625-.515625-.09375-.113281-.214844-.171875-.359375-.171875-.136719 0-.257812.058594-.359375.171875-.09375.105469-.140625.265625-.140625.484375zm0 0"/></symbol><symbol id="L" overflow="visible"><path d="m.90625-3.09375v1.140625c.1875-.21875.410156-.328125.671875-.328125.132813 0 .253906.027344.359375.078125.113281.042969.195312.105469.25.1875.0625.074219.101562.164063.125.265625.019531.09375.03125.242188.03125.4375v1.3125h-.59375v-1.1875c0-.226562-.011719-.375-.03125-.4375-.023438-.0625-.0625-.109375-.125-.140625-.054688-.039063-.121094-.0625-.203125-.0625-.105469 0-.199219.027344-.28125.078125-.074219.042969-.125.109375-.15625.203125s-.046875.234375-.046875.421875v1.125h-.59375v-3.09375zm0 0"/></symbol><symbol id="M" overflow="visible"><path d="m2.34375 0h-.59375v-1.140625c0-.238281-.015625-.394531-.046875-.46875-.023437-.070313-.0625-.125-.125-.15625-.054687-.039063-.117187-.0625-.1875-.0625-.105469 0-.199219.027344-.28125.078125-.085937.054688-.140625.125-.171875.21875s-.046875.265625-.046875.515625v1.015625h-.578125v-2.234375h.546875v.328125c.1875-.25.429687-.375.734375-.375.125 0 .238281.027344.34375.078125.113281.042969.195312.101563.25.171875.0625.074219.101562.15625.125.25.019531.085938.03125.214844.03125.390625zm0 0"/></symbol><symbol id="N" overflow="visible"><path d="m1.609375-.71875.578125.109375c-.074219.21875-.195312.386719-.359375.5-.15625.10546875-.359375.15625-.609375.15625-.386719 0-.671875-.125-.859375-.375-.148437-.207031-.21875-.460937-.21875-.765625 0-.375.09375-.664062.28125-.875.195313-.207031.441406-.3125.734375-.3125.332031 0 .59375.109375.78125.328125.195312.21875.289062.554687.28125 1h-1.46875c0 .179687.039062.320313.125.421875.09375.09375.210938.140625.359375.140625.082031 0 .15625-.023437.21875-.078125.070313-.050781.125-.132812.15625-.25zm.03125-.59375c-.011719-.164062-.058594-.289062-.140625-.375-.085938-.09375-.183594-.140625-.296875-.140625-.136719 0-.246094.046875-.328125.140625-.085938.09375-.125.21875-.125.375zm0 0"/></symbol><symbol id="O" overflow="visible"><path d="m.15625-1 .609375-.0625c.03125.199219.101563.351562.21875.453125.113281.09375.265625.140625.453125.140625.195312 0 .347656-.039062.453125-.125.101563-.082031.15625-.179688.15625-.296875 0-.070313-.023437-.132813-.0625-.1875-.042969-.050781-.121094-.097656-.234375-.140625-.074219-.019531-.242188-.066406-.5-.140625-.335938-.070313-.570312-.171875-.703125-.296875-.1875-.164062-.28125-.375-.28125-.625 0-.15625.039063-.300781.125-.4375.09375-.132812.222656-.238281.390625-.3125.164062-.070312.367188-.109375.609375-.109375.382813 0 .675781.089844.875.265625.195313.167969.300781.390625.3125.671875l-.625.03125c-.023437-.164063-.078125-.28125-.171875-.34375-.085938-.070313-.214844-.109375-.390625-.109375-.1875 0-.328125.039062-.421875.109375-.074219.054687-.109375.117187-.109375.1875 0 .074219.03125.136719.09375.1875.082031.074219.273437.148437.578125.21875.300781.074219.523438.148437.671875.21875.144531.074219.257813.179687.34375.3125.082031.136719.125.296875.125.484375 0 .179688-.054687.34375-.15625.5-.09375.15625-.234375.277344-.421875.359375-.179688.0703125-.398438.109375-.65625.109375-.398438 0-.699219-.0859375-.90625-.265625-.210938-.1875-.335938-.453125-.375-.796875zm0 0"/></symbol><symbol id="P" overflow="visible"><path d="m.3125 0v-3.09375h.625v1.21875h1.21875v-1.21875h.625v3.09375h-.625v-1.34375h-1.21875v1.34375zm0 0"/></symbol><symbol id="Q" overflow="visible"/><symbol id="R" overflow="visible"><path d="m1.296875.90625h-.40625c-.21875-.324219-.386719-.65625-.5-1-.117187-.351562-.171875-.695312-.171875-1.03125 0-.40625.070312-.785156.21875-1.140625.113281-.3125.265625-.601563.453125-.875h.40625c-.1875.429687-.320313.792969-.390625 1.09375-.074219.292969-.109375.605469-.109375.9375 0 .230469.019531.46875.0625.71875.039063.242187.097656.46875.171875.6875.050781.132813.140625.335937.265625.609375zm0 0"/></symbol><symbol id="S" overflow="visible"><path d="m2.359375 0h-.546875v-.328125c-.09375.125-.203125.21875-.328125.28125s-.25.09375-.375.09375c-.261719 0-.484375-.1015625-.671875-.3125-.179688-.207031-.265625-.492187-.265625-.859375 0-.375.085937-.660156.265625-.859375.1875-.195313.414062-.296875.6875-.296875.25 0 .460938.105469.640625.3125v-1.125h.59375zm-1.578125-1.171875c0 .242187.03125.414063.09375.515625.09375.15625.226562.234375.40625.234375.132812 0 .25-.054687.34375-.171875.09375-.113281.140625-.285156.140625-.515625 0-.257813-.046875-.441406-.140625-.546875-.085938-.113281-.199219-.171875-.34375-.171875-.148438 0-.265625.058594-.359375.171875-.09375.105469-.140625.265625-.140625.484375zm0 0"/></symbol><symbol id="T" overflow="visible"><path d="m.265625-2.234375h.546875v.296875c.195312-.226562.425781-.34375.6875-.34375.144531 0 .269531.03125.375.09375.101562.054688.191406.136719.265625.25.09375-.113281.195313-.195312.3125-.25.113281-.0625.238281-.09375.375-.09375.15625 0 .289063.03125.40625.09375.113281.0625.203125.164062.265625.296875.03125.09375.046875.246094.046875.453125v1.4375h-.578125v-1.28125c0-.21875-.023438-.359375-.0625-.421875-.0625-.082031-.148438-.125-.25-.125-.085938 0-.164062.027344-.234375.078125-.074219.042969-.132813.117188-.171875.21875-.03125.09375-.046875.246094-.046875.453125v1.078125h-.578125v-1.21875c0-.21875-.015625-.359375-.046875-.421875-.023437-.0625-.054687-.109375-.09375-.140625-.042969-.03125-.101563-.046875-.171875-.046875-.09375 0-.179688.027344-.25.078125-.074219.042969-.125.109375-.15625.203125s-.046875.246094-.046875.453125v1.09375h-.59375zm0 0"/></symbol><symbol id="U" overflow="visible"><path d="m.09375-.640625.59375-.09375c.03125.117187.082031.203125.15625.265625.082031.0625.191406.09375.328125.09375.15625 0 .269531-.03125.34375-.09375.050781-.03125.078125-.082031.078125-.15625 0-.039062-.015625-.078125-.046875-.109375-.023437-.019531-.085937-.046875-.1875-.078125-.480469-.101562-.78125-.195312-.90625-.28125-.179687-.125-.265625-.289062-.265625-.5 0-.195312.070312-.359375.21875-.484375.15625-.132813.394531-.203125.71875-.203125.300781 0 .523438.054688.671875.15625.15625.09375.257813.242188.3125.4375l-.546875.09375c-.03125-.082031-.085938-.144531-.15625-.1875-.0625-.050781-.152344-.078125-.265625-.078125-.15625 0-.273437.023437-.34375.0625-.042969.03125-.0625.074219-.0625.125 0 .042969.019531.078125.0625.109375.050781.03125.234375.085938.546875.15625.3125.074219.53125.164062.65625.265625.125.105469.1875.25.1875.4375 0 .210937-.089844.386719-.265625.53125-.167969.1484375-.417969.21875-.75.21875-.304687 0-.542969-.0546875-.71875-.171875-.179687-.125-.296875-.296875-.359375-.515625zm0 0"/></symbol><symbol id="V" overflow="visible"><path d="m.25.140625.6875.09375c.007812.070313.035156.125.078125.15625.050781.039063.140625.0625.265625.0625.144531 0 .257812-.023437.34375-.0625.050781-.03125.085938-.085937.109375-.15625.019531-.054687.03125-.140625.03125-.265625v-.328125c-.179687.242187-.402344.359375-.671875.359375-.304688 0-.539062-.125-.703125-.375-.148437-.207031-.21875-.457031-.21875-.75 0-.375.085937-.660156.265625-.859375.1875-.195313.414062-.296875.6875-.296875.269531 0 .492188.121094.671875.359375v-.3125h.5625v2c0 .2695312-.023437.46875-.0625.59375-.042969.132813-.105469.238281-.1875.3125-.085937.070313-.195313.128906-.328125.171875-.125.039062-.289062.0625-.484375.0625-.375 0-.648437-.070312-.8125-.203125-.15625-.125-.234375-.289063-.234375-.484375 0-.023438 0-.046875 0-.078125zm.53125-1.3125c0 .242187.046875.417969.140625.53125.09375.105469.207031.15625.34375.15625.144531 0 .265625-.050781.359375-.15625.101562-.113281.15625-.285156.15625-.515625 0-.226562-.054688-.394531-.15625-.5-.09375-.113281-.214844-.171875-.359375-.171875-.136719 0-.25.058594-.34375.171875-.09375.105469-.140625.265625-.140625.484375zm0 0"/></symbol><symbol id="W" overflow="visible"><path d="m.140625.90625c.113281-.25.195313-.445312.25-.578125.050781-.136719.09375-.2890625.125-.453125.039063-.175781.070313-.34375.09375-.5.019531-.15625.03125-.316406.03125-.484375 0-.332031-.039063-.644531-.109375-.9375-.074219-.300781-.203125-.664063-.390625-1.09375h.40625c.207031.304687.367187.625.484375.96875.125.335937.1875.671875.1875 1.015625 0 .304688-.046875.621094-.140625.953125-.105469.375-.28125.742187-.53125 1.109375zm0 0"/></symbol><symbol id="X" overflow="visible"><path d="m.75-1.546875-.53125-.109375c.0625-.207031.164062-.363281.3125-.46875.144531-.101562.363281-.15625.65625-.15625.257812 0 .453125.03125.578125.09375.132813.0625.226563.140625.28125.234375.050781.09375.078125.273437.078125.53125v.6875c0 .199219.003906.34375.015625.4375.019531.09375.054687.195313.109375.296875h-.578125c-.023437-.0390625-.042969-.0976562-.0625-.171875-.011719-.039063-.015625-.066406-.015625-.078125-.105469.105469-.214844.1835938-.328125.234375-.117187.0390625-.242187.0625-.375.0625-.230469 0-.414063-.0625-.546875-.1875-.125-.125-.1875-.28125-.1875-.46875 0-.125.023438-.234375.078125-.328125.0625-.101562.144531-.179688.25-.234375.113281-.050781.273437-.097656.484375-.140625.28125-.050781.472656-.097656.578125-.140625v-.0625c0-.113281-.03125-.191406-.09375-.234375-.054687-.050781-.15625-.078125-.3125-.078125-.105469 0-.1875.023437-.25.0625-.054687.042969-.101563.117187-.140625.21875zm.796875.46875c-.074219.03125-.195313.0625-.359375.09375-.167969.03125-.277344.070313-.328125.109375-.074219.054688-.109375.121094-.109375.203125 0 .085937.03125.15625.09375.21875s.140625.09375.234375.09375c.101563 0 .203125-.035156.296875-.109375.070312-.050781.117188-.117188.140625-.203125.019531-.050781.03125-.144531.03125-.28125zm0 0"/></symbol><symbol id="Y" overflow="visible"><path d="m.3125 0v-3.09375h.59375v3.09375zm0 0"/></symbol><symbol id="Z" overflow="visible"><path d="m.3125 0v-3.09375h1c.375 0 .625.015625.75.046875.175781.054687.320312.15625.4375.3125.113281.15625.171875.355469.171875.59375 0 .1875-.039063.351563-.109375.484375-.0625.125-.148438.226562-.25.296875-.105469.074219-.214844.125-.328125.15625-.148437.023437-.359375.03125-.640625.03125h-.40625v1.171875zm.625-2.5625v.875h.34375c.238281 0 .398438-.015625.484375-.046875.082031-.03125.144531-.078125.1875-.140625.050781-.070312.078125-.15625.078125-.25 0-.113281-.03125-.207031-.09375-.28125-.0625-.070312-.148438-.117188-.25-.140625-.074219-.007813-.226562-.015625-.453125-.015625zm0 0"/></symbol><symbol id="aa" overflow="visible"><path d="m1.328125-2.234375v.46875h-.390625v.90625.3125c.007812.03125.023438.058594.046875.078125.03125.023438.066406.03125.109375.03125.050781 0 .128906-.019531.234375-.0625l.0625.46875c-.148437.0507812-.304687.078125-.46875.078125-.117187 0-.214844-.015625-.296875-.046875-.085938-.0390625-.148438-.0859375-.1875-.140625-.042969-.0625-.070312-.140625-.078125-.234375-.011719-.0625-.015625-.203125-.015625-.421875v-.96875h-.28125v-.46875h.28125v-.453125l.59375-.34375v.796875zm0 0"/></symbol><symbol id="ab" overflow="visible"><path d="m3.09375 0h-.671875l-.265625-.703125h-1.234375l-.265625.703125h-.65625l1.203125-3.09375h.65625zm-1.140625-1.21875-.421875-1.140625-.421875 1.140625zm0 0"/></symbol><symbol id="ac" overflow="visible"><path d="m.3125-3.09375h1.140625c.257813 0 .453125.023438.578125.0625.1875.054688.34375.148438.46875.28125.132812.136719.234375.304688.296875.5.070313.199219.109375.445312.109375.734375 0 .25-.03125.46875-.09375.65625-.085938.230469-.199219.414063-.34375.546875-.105469.105469-.25.1875-.4375.25-.136719.0429688-.320312.0625-.546875.0625h-1.171875zm.625.53125v2.046875h.46875c.164062 0 .289062-.007813.375-.03125.09375-.03125.171875-.070313.234375-.125.070313-.0625.128906-.160156.171875-.296875.039062-.144531.0625-.335938.0625-.578125 0-.238281-.023438-.421875-.0625-.546875-.042969-.125-.101562-.222656-.171875-.296875-.074219-.070313-.167969-.117187-.28125-.140625-.09375-.019531-.265625-.03125-.515625-.03125zm0 0"/></symbol><symbol id="ad" overflow="visible"><path d="m.3125-3.09375h1.234375c.25 0 .429687.011719.546875.03125.125.023438.234375.070312.328125.140625.09375.0625.171875.148437.234375.25.0625.105469.09375.226563.09375.359375 0 .148438-.042969.28125-.125.40625-.074219.117188-.179688.203125-.3125.265625.1875.054687.332031.148437.4375.28125.101562.136719.15625.292969.15625.46875 0 .136719-.039062.273437-.109375.40625-.0625.136719-.152344.246094-.265625.328125-.117188.0742188-.25.1210938-.40625.140625-.105469.01171875-.359375.015625-.765625.015625h-1.046875zm.625.515625v.71875h.40625c.25 0 .398438-.003906.453125-.015625.101563-.007812.1875-.046875.25-.109375s.09375-.140625.09375-.234375-.027344-.171875-.078125-.234375c-.054688-.0625-.132812-.097656-.234375-.109375-.0625-.007812-.242187-.015625-.53125-.015625zm0 1.234375v.828125h.578125c.226563 0 .367187-.007813.421875-.03125.09375-.007813.164062-.046875.21875-.109375.0625-.070312.09375-.160156.09375-.265625 0-.09375-.023438-.171875-.0625-.234375-.042969-.0625-.105469-.109375-.1875-.140625-.085938-.03125-.273438-.046875-.5625-.046875zm0 0"/></symbol><symbol id="ae" overflow="visible"><path d="m.921875 0-.90625-2.234375h.625l.421875 1.140625.125.375c.03125-.09375.050781-.15625.0625-.1875.019531-.0625.039062-.125.0625-.1875l.421875-1.140625h.609375l-.890625 2.234375zm0 0"/></symbol><symbol id="af" overflow="visible"><path d="m.3125 0v-.59375h.59375v.59375zm0 0"/></symbol><symbol id="ag" overflow="visible"><path d="m.328125 0v-3.0625h.625v2.546875h1.546875v.515625zm0 0"/></symbol><symbol id="ah" overflow="visible"><path d="m1.78125 0v-.328125c-.085938.117187-.195312.210937-.328125.28125-.125.0625-.261719.09375-.40625.09375-.15625 0-.296875-.03125-.421875-.09375-.117188-.0625-.199219-.148437-.25-.265625-.054688-.125-.078125-.296875-.078125-.515625v-1.40625h.59375v1.03125c0 .3125.007813.507813.03125.578125.019531.0625.054687.117188.109375.15625.0625.042969.140625.0625.234375.0625s.179687-.023438.265625-.078125c.082031-.050781.132812-.117187.15625-.203125.03125-.082031.046875-.285156.046875-.609375v-.9375h.59375v2.234375zm0 0"/></symbol><symbol id="ai" overflow="visible"><path d="m.03125 0 .796875-1.15625-.765625-1.078125h.71875l.390625.609375.421875-.609375h.6875l-.75 1.0625.828125 1.171875h-.734375l-.453125-.6875-.453125.6875zm0 0"/></symbol><symbol id="aj" overflow="visible"><path d="m1.015625 0v-2.5625h-.921875v-.53125h2.453125v.53125h-.921875v2.5625zm0 0"/></symbol><symbol id="ak" overflow="visible"><path d="m.53125 0v-5.140625h1.03125l1.203125 3.640625c.113281.34375.195313.601562.25.765625.0625-.1875.148437-.460937.265625-.828125l1.234375-3.578125h.921875v5.140625h-.65625v-4.296875l-1.5 4.296875h-.609375l-1.484375-4.375v4.375zm0 0"/></symbol><symbol id="al" overflow="visible"><path d="m.234375-1.859375c0-.6875.191406-1.195313.578125-1.53125.320312-.269531.710938-.40625 1.171875-.40625.507813 0 .925781.167969 1.25.5.320313.335937.484375.796875.484375 1.390625 0 .480469-.074219.855469-.21875 1.125-.136719.273438-.34375.484375-.625.640625-.273438.14453125-.570312.21875-.890625.21875-.523437 0-.945313-.1640625-1.265625-.5-.324219-.332031-.484375-.8125-.484375-1.4375zm.65625 0c0 .480469.101563.839844.3125 1.078125.207031.230469.46875.34375.78125.34375s.570313-.117188.78125-.359375c.207031-.238281.3125-.597656.3125-1.078125 0-.46875-.105469-.816406-.3125-1.046875-.210937-.238281-.46875-.359375-.78125-.359375s-.574219.121094-.78125.359375c-.210937.230469-.3125.585937-.3125 1.0625zm0 0"/></symbol><symbol id="am" overflow="visible"><path d="m.46875 0v-3.71875h.578125v.53125c.269531-.40625.660156-.609375 1.171875-.609375.226562 0 .4375.042969.625.125.1875.074219.328125.179687.421875.3125.09375.125.15625.277344.1875.453125.03125.125.046875.335938.046875.625v2.28125h-.640625v-2.265625c0-.25-.027344-.4375-.078125-.5625-.042969-.132813-.125-.238281-.25-.3125-.125-.070313-.273438-.109375-.4375-.109375-.273438 0-.507812.085938-.703125.25-.1875.167969-.28125.492188-.28125.96875v2.03125zm0 0"/></symbol><symbol id="an" overflow="visible"><path d="m.46875-4.40625v-.734375h.640625v.734375zm0 4.40625v-3.71875h.640625v3.71875zm0 0"/></symbol><symbol id="ao" overflow="visible"><path d="m1.84375-.5625.09375.5625c-.179688.03125-.335938.046875-.46875.046875-.230469 0-.40625-.0390625-.53125-.109375-.125-.070312-.214844-.164062-.265625-.28125-.054687-.113281-.078125-.363281-.078125-.75v-2.140625h-.46875v-.484375h.46875v-.921875l.625-.375v1.296875h.625v.484375h-.625v2.1875c0 .179687.007812.292969.03125.34375.019531.054687.054688.09375.109375.125.050781.023437.125.03125.21875.03125.0625 0 .148437-.003906.265625-.015625zm0 0"/></symbol><symbol id="ap" overflow="visible"><path d="m.46875 0v-3.71875h.5625v.5625c.144531-.257812.28125-.429688.40625-.515625.125-.082031.257812-.125.40625-.125.207031 0 .421875.070313.640625.203125l-.21875.578125c-.15625-.09375-.308594-.140625-.453125-.140625-.148438 0-.277344.042969-.390625.125-.105469.085938-.179687.199219-.21875.34375-.074219.230469-.109375.476562-.109375.734375v1.953125zm0 0"/></symbol><symbol id="aq" overflow="visible"><path d="m.21875-1.109375.625-.09375c.03125.25.125.445313.28125.578125.164062.125.394531.1875.6875.1875.28125 0 .488281-.054688.625-.171875.144531-.113281.21875-.253906.21875-.421875 0-.132812-.0625-.242188-.1875-.328125-.085938-.0625-.296875-.132813-.640625-.21875-.460937-.113281-.777344-.210937-.953125-.296875-.179688-.082031-.3125-.195312-.40625-.34375-.09375-.15625-.140625-.328125-.140625-.515625 0-.164063.035156-.316406.109375-.453125.070312-.144531.175781-.265625.3125-.359375.09375-.070313.222656-.128906.390625-.171875.175781-.050781.359375-.078125.546875-.078125.289062 0 .546875.042969.765625.125.226563.085937.394531.199219.5.34375.101563.136719.175781.324219.21875.5625l-.625.09375c-.023437-.195313-.101563-.347656-.234375-.453125-.136719-.101562-.328125-.15625-.578125-.15625-.28125 0-.484375.046875-.609375.140625s-.1875.203125-.1875.328125c0 .085938.023438.164062.078125.234375.050781.0625.128906.117187.234375.15625.0625.03125.25.089844.5625.171875.445312.117188.757812.214844.9375.296875.175781.074219.3125.183594.40625.328125.101562.136719.15625.3125.15625.53125 0 .210938-.0625.40625-.1875.59375s-.304688.335938-.53125.4375c-.230469.09375-.492188.140625-.78125.140625-.492188 0-.859375-.0976562-1.109375-.296875-.25-.195312-.414063-.492188-.484375-.890625zm0 0"/></symbol><symbol id="ar" overflow="visible"><path d="m1.859375 0v-4.53125h-1.6875v-.609375h4.0625v.609375h-1.703125v4.53125zm0 0"/></symbol><symbol id="as" overflow="visible"><path d="m2.90625-.453125c-.242188.199219-.46875.339844-.6875.421875-.210938.0703125-.4375.109375-.6875.109375-.40625 0-.71875-.0976562-.9375-.296875-.21875-.195312-.328125-.453125-.328125-.765625 0-.175781.035156-.335937.109375-.484375.082031-.15625.191406-.28125.328125-.375.132813-.09375.285156-.160156.453125-.203125.125-.03125.3125-.0625.5625-.09375.507812-.0625.882812-.132813 1.125-.21875 0-.082031 0-.140625 0-.171875 0-.25-.058594-.425781-.171875-.53125-.15625-.144531-.398437-.21875-.71875-.21875-.292969 0-.511719.054688-.65625.15625-.148437.105469-.25.289062-.3125.546875l-.609375-.078125c.050781-.257812.140625-.472656.265625-.640625.132813-.164063.320313-.289063.5625-.375.238281-.082031.519531-.125.84375-.125.3125 0 .566406.039063.765625.109375.195312.074219.34375.167969.4375.28125.09375.117188.160156.257812.203125.421875.019531.117187.03125.308594.03125.578125v.84375c0 .59375.007813.96875.03125 1.125.03125.148438.085937.292969.171875.4375h-.65625c-.074219-.132812-.117188-.285156-.125-.453125zm-.0625-1.40625c-.230469.09375-.574219.171875-1.03125.234375-.261719.03125-.445312.074219-.546875.125-.105469.042969-.1875.109375-.25.203125-.054687.09375-.078125.195313-.078125.296875 0 .167969.0625.308594.1875.421875.125.117187.3125.171875.5625.171875.238281 0 .453125-.050781.640625-.15625.1875-.113281.328125-.257812.421875-.4375.0625-.144531.09375-.359375.09375-.640625zm0 0"/></symbol><symbol id="at" overflow="visible"><path d="m.359375.3125.609375.09375c.03125.1875.101562.320312.21875.40625.15625.113281.367188.171875.640625.171875.289063 0 .515625-.058594.671875-.171875.15625-.117188.265625-.277344.328125-.484375.03125-.136719.046875-.40625.046875-.8125-.28125.324219-.625.484375-1.03125.484375-.511719 0-.90625-.179688-1.1875-.546875-.28125-.375-.421875-.816406-.421875-1.328125 0-.351562.0625-.679688.1875-.984375.125-.300781.304687-.53125.546875-.6875.25-.164063.539062-.25.875-.25.4375 0 .796875.179687 1.078125.53125v-.453125h.59375v3.21875c0 .5703125-.0625.976562-.1875 1.21875-.117187.25-.304687.441406-.5625.578125-.25.144531-.5625.21875-.9375.21875-.449219 0-.808594-.105469-1.078125-.3125-.273438-.199219-.402344-.496094-.390625-.890625zm.515625-2.234375c0 .492187.09375.851563.28125 1.078125.195312.21875.441406.328125.734375.328125.289063 0 .535156-.109375.734375-.328125.195312-.226562.296875-.582031.296875-1.0625 0-.457031-.105469-.800781-.3125-1.03125-.199219-.226562-.4375-.34375-.71875-.34375s-.523437.117188-.71875.34375c-.199219.230469-.296875.570312-.296875 1.015625zm0 0"/></symbol><symbol id="au" overflow="visible"><path d="m3.015625-1.203125.65625.09375c-.105469.375-.296875.667969-.578125.875-.273438.2109375-.625.3125-1.0625.3125-.542969 0-.976562-.1640625-1.296875-.5-.3125-.332031-.46875-.800781-.46875-1.40625 0-.625.160156-1.109375.484375-1.453125.320312-.34375.738281-.515625 1.25-.515625.5 0 .90625.171875 1.21875.515625.3125.335938.46875.808594.46875 1.421875v.15625h-2.78125c.03125.417969.148438.734375.359375.953125.207031.210938.460937.3125.765625.3125.238281 0 .4375-.054688.59375-.171875.164062-.125.296875-.320313.390625-.59375zm-2.0625-1.015625h2.078125c-.03125-.3125-.117188-.546875-.25-.703125-.199219-.238281-.460938-.359375-.78125-.359375-.28125 0-.523438.101562-.71875.296875-.199219.1875-.308594.445313-.328125.765625zm0 0"/></symbol><symbol id="av" overflow="visible"><path d="m.5625 0v-5.140625h3.71875v.609375h-3.03125v1.578125h2.84375v.59375h-2.84375v1.75h3.140625v.609375zm0 0"/></symbol><symbol id="aw" overflow="visible"><path d="m.046875 0 1.359375-1.9375-1.25-1.78125h.78125l.578125.875c.101563.167969.1875.304688.25.40625.101563-.144531.203125-.28125.296875-.40625l.625-.875h.75l-1.28125 1.75 1.375 1.96875h-.765625l-.765625-1.15625-.203125-.3125-.984375 1.46875zm0 0"/></symbol><symbol id="ax" overflow="visible"><path d="m.453125 0v-5.140625h.640625v5.140625zm0 0"/></symbol><symbol id="ay" overflow="visible"/><symbol id="az" overflow="visible"><path d="m4.21875-1.796875.671875.171875c-.136719.554688-.390625.980469-.765625 1.28125-.367188.2929688-.820312.4375-1.359375.4375-.554687 0-1-.1132812-1.34375-.34375-.34375-.226562-.609375-.554688-.796875-.984375-.179688-.425781-.265625-.882813-.265625-1.375 0-.53125.097656-.992187.296875-1.390625.207031-.394531.5-.695312.875-.90625.375-.207031.789062-.3125 1.25-.3125.507812 0 .9375.132812 1.28125.390625.351562.261719.601562.632813.75 1.109375l-.671875.15625c-.125-.375-.304687-.644531-.53125-.8125-.21875-.175781-.5-.265625-.84375-.265625-.398437 0-.730469.09375-1 .28125-.261719.1875-.445313.445313-.546875.765625-.105469.324219-.15625.652344-.15625.984375 0 .4375.0625.820313.1875 1.140625.125.324219.320312.570312.59375.734375.269531.15625.5625.234375.875.234375.375 0 .691406-.109375.953125-.328125.269531-.21875.453125-.539063.546875-.96875zm0 0"/></symbol><symbol id="aA" overflow="visible"><path d="m2.90625-1.359375.609375.078125c-.0625.429688-.234375.761719-.515625 1-.28125.2421875-.625.359375-1.03125.359375-.511719 0-.921875-.1601562-1.234375-.484375-.304687-.332031-.453125-.8125-.453125-1.4375 0-.40625.0625-.753906.1875-1.046875.132812-.300781.335938-.523437.609375-.671875.28125-.15625.578125-.234375.890625-.234375.40625 0 .734375.105469.984375.3125.257813.199219.425781.484375.5.859375l-.609375.09375c-.054688-.25-.15625-.4375-.3125-.5625-.148438-.125-.324219-.1875-.53125-.1875-.324219 0-.585938.117188-.78125.34375-.199219.21875-.296875.578125-.296875 1.078125s.09375.867187.28125 1.09375c.195313.21875.453125.328125.765625.328125.238281 0 .441406-.070312.609375-.21875.164063-.15625.273437-.390625.328125-.703125zm0 0"/></symbol><symbol id="aB" overflow="visible"><path d="m.546875-1.65625v-.484375l.09375-.4375h.546875l-.09375.4375-.1875.484375zm1 0v-.484375l.09375-.4375h.546875l-.09375.4375-.1875.484375zm0 0"/></symbol><symbol id="aC" overflow="visible"><path d="m.234375-.828125.5-.03125c.007813.15625.035156.265625.078125.328125.082031.09375.226562.140625.4375.140625.164062 0 .285156-.03125.359375-.09375.082031-.0625.125-.140625.125-.234375 0-.070312-.03125-.132812-.09375-.1875-.042969-.039062-.167969-.101562-.375-.1875-.199219-.09375-.34375-.164062-.4375-.21875-.085937-.0625-.152344-.132812-.203125-.21875-.054688-.09375-.078125-.203125-.078125-.328125 0-.21875.078125-.394531.234375-.53125.15625-.144531.378906-.21875.671875-.21875.300781 0 .535156.074219.703125.21875.164062.136719.257812.320313.28125.546875l-.515625.03125c-.011719-.125-.058594-.21875-.140625-.28125-.074219-.070312-.183594-.109375-.328125-.109375-.148437 0-.25.027344-.3125.078125-.0625.054688-.09375.121094-.09375.203125 0 .074219.023437.132813.078125.171875.0625.054688.191406.121094.390625.203125.289063.136719.476563.242187.5625.3125.125.125.1875.277344.1875.453125 0 .230469-.09375.429688-.28125.59375-.179687.15625-.429687.234375-.75.234375-.21875 0-.414063-.0390625-.578125-.109375-.15625-.070312-.273438-.175781-.34375-.3125-.0625-.132812-.089844-.285156-.078125-.453125zm0 0"/></symbol><symbol id="aD" overflow="visible"><path d="m.265625-1.484375.078125-.375h.25l.0625-.296875.578125-.359375-.140625.65625h.3125l-.078125.375h-.3125l-.15625.78125c-.03125.136719-.046875.214844-.046875.234375 0 .042969.007812.074219.03125.09375.03125.023438.078125.03125.140625.03125.019531 0 .070313-.003906.15625-.015625l-.078125.375c-.085938.0195312-.171875.03125-.265625.03125-.179687 0-.308594-.03125-.390625-.09375-.074219-.070313-.109375-.171875-.109375-.296875 0-.0625.019531-.191406.0625-.390625l.15625-.75zm0 0"/></symbol><symbol id="aE" overflow="visible"><path d="m.859375-1.328125-.5-.046875c.0625-.164062.160156-.296875.296875-.390625.132812-.09375.320312-.140625.5625-.140625.238281 0 .414062.046875.53125.140625.113281.09375.171875.214844.171875.359375 0 .054688-.007813.109375-.015625.171875-.011719.0625-.046875.230469-.109375.5-.054687.230469-.078125.386719-.078125.46875 0 .085937.015625.171875.046875.265625h-.484375c-.023438-.0703125-.039062-.140625-.046875-.203125-.074219.074219-.15625.1367188-.25.1875-.09375.0390625-.195313.0625-.296875.0625-.148438 0-.273438-.05078125-.375-.15625-.105469-.101563-.15625-.234375-.15625-.390625 0-.175781.054688-.316406.171875-.421875.113281-.101563.3125-.171875.59375-.203125.238281-.007812.398437-.03125.484375-.0625.019531-.070312.03125-.128906.03125-.171875 0-.050781-.027344-.09375-.078125-.125-.042969-.039063-.105469-.0625-.1875-.0625-.09375 0-.167969.023437-.21875.0625-.054687.03125-.085937.085937-.09375.15625zm.46875.453125c-.03125.011719-.070313.023438-.109375.03125-.261719.03125-.429688.074219-.5.125-.054688.042969-.078125.101562-.078125.171875 0 .0625.019531.117187.0625.15625.039063.042969.09375.0625.15625.0625.082031 0 .15625-.015625.21875-.046875.070313-.039062.125-.09375.15625-.15625s.054687-.148438.078125-.265625zm0 0"/></symbol><symbol id="aF" overflow="visible"><path d="m.5-1.859375h.46875l-.0625.359375c.164062-.269531.351562-.40625.5625-.40625.070312 0 .148438.015625.234375.046875l-.1875.421875c-.054687-.019531-.105469-.03125-.15625-.03125-.085937 0-.171875.039062-.265625.109375-.085938.0625-.152344.152344-.203125.265625-.054687.105469-.101563.277344-.140625.515625l-.125.578125h-.515625zm0 0"/></symbol><symbol id="aG" overflow="visible"><path d="m.53125-1.859375h.5l-.234375 1.09375c-.023437.136719-.03125.21875-.03125.25 0 .054687.015625.101563.046875.140625.039062.042969.09375.0625.15625.0625.050781 0 .097656-.003906.140625-.015625.039063-.019531.082031-.046875.125-.078125.050781-.039062.09375-.082031.125-.125.039063-.050781.078125-.113281.109375-.1875.019531-.050781.039062-.132812.0625-.25l.1875-.890625h.5l-.390625 1.859375h-.46875l.0625-.25c-.210937.1992188-.433594.296875-.671875.296875-.15625 0-.28125-.04296875-.375-.125-.085938-.09375-.125-.210937-.125-.359375 0-.0625.019531-.191406.0625-.390625zm0 0"/></symbol><symbol id="aH" overflow="visible"><path d="m.515625-1.859375h.484375l-.046875.1875c.101563-.082031.195313-.140625.28125-.171875.09375-.039062.191406-.0625.296875-.0625.1875 0 .335938.070312.453125.203125.125.136719.1875.335937.1875.59375 0 .34375-.101563.632813-.296875.859375-.179688.1992188-.386719.296875-.625.296875-.25 0-.4375-.0976562-.5625-.296875l-.203125.953125h-.5zm.3125 1.0625c0 .148437.03125.261719.09375.34375.070313.074219.15625.109375.25.109375.082031 0 .160156-.023438.234375-.078125.082031-.0625.148438-.160156.203125-.296875.050781-.144531.078125-.273438.078125-.390625 0-.144531-.039062-.253906-.109375-.328125-.0625-.070312-.148437-.109375-.25-.109375-.09375 0-.183594.039063-.265625.109375-.074219.0625-.132812.164062-.171875.296875-.042969.136719-.0625.25-.0625.34375zm0 0"/></symbol><symbol id="aI" overflow="visible"/><symbol id="aJ" overflow="visible"><path d="m-.15625.046875 1.28125-2.65625h.34375l-1.265625 2.65625zm0 0"/></symbol><symbol id="aK" overflow="visible"><path d="m.140625 0 .546875-2.578125h1.90625l-.09375.4375h-1.375l-.125.578125h1.328125l-.078125.4375h-1.34375l-.15625.6875h1.5l-.09375.4375zm0 0"/></symbol><symbol id="aL" overflow="visible"><path d="m.21875-.78125c0-.34375.09375-.613281.28125-.8125.195312-.207031.457031-.3125.78125-.3125.269531 0 .484375.078125.640625.234375.15625.148437.234375.351563.234375.609375 0 .304688-.101562.5625-.296875.78125-.1875.21875-.445313.328125-.765625.328125-.179688 0-.335938-.0390625-.46875-.109375-.136719-.070312-.242188-.171875-.3125-.296875-.0625-.125-.09375-.265625-.09375-.421875zm1.4375-.359375c0-.113281-.039062-.207031-.109375-.28125-.074219-.070313-.164063-.109375-.265625-.109375-.117188 0-.214844.039062-.296875.109375-.085937.0625-.152344.164063-.203125.296875-.042969.125-.0625.242188-.0625.34375 0 .136719.035156.246094.109375.328125.070313.074219.164063.109375.28125.109375.132813 0 .25-.054688.34375-.171875.132813-.175781.203125-.382813.203125-.625zm0 0"/></symbol><symbol id="aM" overflow="visible"><path d="m1.625 0h-.5l-.09375-2.15625-.40625 2.15625h-.484375l.546875-2.578125h.75l.078125 1.8125.875-1.8125h.765625l-.53125 2.578125h-.484375l.5-2.140625zm0 0"/></symbol><symbol id="aN" overflow="visible"><path d="m1.953125-.78125h-1.265625v.046875c0 .125.035156.230469.109375.3125.070313.074219.160156.109375.265625.109375.164062 0 .296875-.085938.390625-.265625l.453125.078125c-.09375.179688-.214844.3125-.359375.40625-.148437.09375-.3125.140625-.5.140625-.25 0-.453125-.078125-.609375-.234375-.15625-.164062-.234375-.378906-.234375-.640625 0-.25.070313-.472656.21875-.671875.1875-.269531.460937-.40625.828125-.40625.226562 0 .410156.074219.546875.21875.132813.136719.203125.328125.203125.578125 0 .125-.015625.234375-.046875.328125zm-.421875-.296875c0-.019531 0-.039063 0-.0625 0-.132813-.03125-.234375-.09375-.296875-.0625-.070312-.148438-.109375-.25-.109375-.105469 0-.199219.042969-.28125.125-.074219.074219-.125.1875-.15625.34375zm0 0"/></symbol><symbol id="aO" overflow="visible"><path d="m.078125-.515625.484375-.078125c.039062.105469.09375.179688.15625.21875.070312.042969.160156.0625.265625.0625.113281 0 .207031-.023438.28125-.078125.050781-.039063.078125-.082031.078125-.125 0-.039063-.015625-.070313-.046875-.09375-.023437-.03125-.089844-.0625-.203125-.09375-.304688-.101563-.492188-.1875-.5625-.25-.117188-.082031-.171875-.195313-.171875-.34375 0-.15625.050781-.285156.15625-.390625.15625-.144531.382813-.21875.6875-.21875.238281 0 .421875.046875.546875.140625.125.085937.203125.199219.234375.34375l-.46875.078125c-.023437-.0625-.058594-.109375-.109375-.140625-.085938-.050781-.179688-.078125-.28125-.078125-.105469 0-.183594.023438-.234375.0625-.042969.03125-.0625.070312-.0625.109375 0 .054687.023437.09375.078125.125.03125.011719.125.042969.28125.09375.238281.074219.398438.140625.484375.203125.125.105469.1875.226562.1875.359375 0 .179687-.078125.335937-.234375.46875-.148438.125-.355469.1875-.625.1875-.273438 0-.480469-.046875-.625-.140625-.148438-.101562-.246094-.242188-.296875-.421875zm0 0"/></symbol><symbol id="aP" overflow="visible"><path d="m.125.09375.53125.078125c0 .050781.003906.09375.015625.125.019531.03125.046875.050781.078125.0625.039062.019531.097656.03125.171875.03125.101563 0 .1875-.023437.25-.0625.050781-.03125.09375-.085937.125-.15625.019531-.042969.039063-.140625.0625-.296875l.03125-.078125c-.179687.1367188-.359375.203125-.546875.203125s-.339844-.0625-.453125-.1875c-.117187-.125-.171875-.3125-.171875-.5625 0-.21875.035156-.414062.109375-.59375.082031-.1875.195313-.328125.34375-.421875.144531-.09375.289063-.140625.4375-.140625.125 0 .238281.039062.34375.109375.101563.0625.179687.152344.234375.265625l.078125-.328125h.46875l-.3125 1.546875c-.0625.25-.109375.425781-.140625.53125-.03125.101562-.074219.1875-.125.25-.042969.070312-.101562.128906-.171875.171875-.074219.039063-.164063.066406-.265625.078125-.09375.019531-.199219.03125-.3125.03125-.261719 0-.460938-.046875-.59375-.140625-.136719-.085937-.203125-.230469-.203125-.4375 0-.023437.003906-.046875.015625-.078125zm.578125-.890625c0 .136719.03125.246094.09375.328125.070313.074219.15625.109375.25.109375.082031 0 .164063-.03125.25-.09375.082031-.070313.144531-.171875.1875-.296875.050781-.125.078125-.242188.078125-.359375 0-.132813-.039062-.238281-.109375-.3125-.074219-.082031-.15625-.125-.25-.125s-.179687.039063-.25.109375c-.074219.074219-.136719.183594-.1875.328125-.042969.117187-.0625.21875-.0625.3125zm0 0"/></symbol><g clip-path="url(#a)"><path d="m0 0h164v46h-164z" fill="#fff"/><path d="m35.097656 6.6875h.71875v.71875h-.71875zm1.4375 0h.714844v.71875h-.714844zm1.433594 0h.71875v.71875h-.71875zm1.4375 0h.714844v.71875h-.714844zm1.433594 0h.71875v.71875h-.71875zm1.4375 0h.71875v.71875h-.71875zm1.433594 0h.71875v.71875h-.71875zm1.4375 0h.71875v.71875h-.71875zm1.433593 0h.71875v.71875h-.71875zm1.4375 0h.71875v.71875h-.71875zm1.433594 0h.71875v.71875h-.71875zm1.4375 0h.71875v.71875h-.71875zm1.4375 0h.714844v.71875h-.714844zm1.433594 0h.71875v.71875h-.71875zm1.4375 0h.714843v.71875h-.714843zm1.433593 0h.71875v.71875h-.71875zm1.4375 0h.714844v.71875h-.714844zm1.433594 0h.71875v.71875h-.71875zm1.4375 0h.71875v.71875h-.71875zm1.433594 0h.71875v.71875h-.71875zm1.4375 0h.71875v.71875h-.71875zm1.433594 0h.71875v.71875h-.71875zm1.4375 0h.71875v.71875h-.71875zm1.433594 0h.71875v.71875h-.71875zm1.4375 0h.71875v.71875h-.71875zm1.433593 0h.71875v.71875h-.71875zm1.4375 0h.71875v.71875h-.71875zm1.4375 0h.714844v.71875h-.714844zm1.433594 0h.71875v.71875h-.71875zm1.4375 0h.714844v.71875h-.714844zm1.433594 0h.71875v.71875h-.71875zm1.4375 0h.714843v.71875h-.714843zm1.433593 0h.71875v.71875h-.71875zm1.4375 0h.71875v.71875h-.71875zm1.433594 0h.71875v.71875h-.71875zm1.4375 0h.71875v.71875h-.71875zm1.433594 0h.71875v.71875h-.71875zm1.4375 0h.71875v.71875h-.71875zm1.433594 0h.71875v.71875h-.71875zm1.4375 0h.71875v.71875h-.71875zm1.4375 0h.714844v.71875h-.714844zm1.433594 0h.71875v.71875h-.71875zm1.4375 0h.714843v.71875h-.714843zm1.433593 0h.71875v.71875h-.71875zm1.4375 0h.714844v.71875h-.714844zm1.433594 0h.71875v.71875h-.71875zm1.4375 0h.714844v.71875h-.714844zm1.433594 0h.71875v.71875h-.71875zm1.4375 0h.71875v.71875h-.71875zm1.433593 0h.71875v.71875h-.71875zm1.4375 0h.71875v.71875h-.71875zm1.433594 0h.71875v.71875h-.71875zm1.4375 0h.71875v.71875h-.71875zm1.433594 0h.71875v.71875h-.71875zm1.4375 0h.71875v.71875h-.71875zm1.4375 0h.714844v.71875h-.714844zm1.433594 0h.71875v.71875h-.71875zm1.4375 0h.714844v.71875h-.714844zm1.433594 0h.71875v.71875h-.71875zm1.4375 0h.714843v.71875h-.714843zm1.433593 0h.71875v.71875h-.71875zm1.4375 0h.71875v.71875h-.71875zm1.433594 0h.71875v.71875h-.71875zm1.4375 0h.71875v.71875h-.71875zm1.433594 0h.71875v.71875h-.71875zm1.4375 0h.71875v.71875h-.71875zm1.433593 0h.71875v.71875h-.71875zm1.4375 0h.460938c.09375 0 .1875.003906.28125.015625l-.078125.714844c-.066406-.007813-.136719-.011719-.203125-.011719h-.460938zm1.546876.234375c.273437.121094.515624.285156.734374.492187l-.496093.519532c-.15625-.148438-.335938-.269532-.535157-.359375zm1.265624 1.203125c.128907.253906.214844.523438.257813.804688l-.710937.109374c-.03125-.207031-.09375-.402343-.1875-.585937zm.289063 1.558594v.71875h-.71875v-.71875zm0 1.433594v.71875h-.71875v-.71875zm0 1.4375v.71875h-.71875v-.71875zm0 1.433593v.71875h-.71875v-.71875zm0 1.4375v.71875h-.71875v-.71875zm0 1.433594v.71875h-.71875v-.71875zm0 1.4375v.71875h-.71875v-.71875zm0 1.4375v.714844h-.71875v-.714844zm0 1.433594v.71875h-.71875v-.71875zm0 1.4375v.714843h-.71875v-.714843zm0 1.433593v.71875h-.71875v-.71875zm0 1.4375v.714844h-.71875v-.714844zm0 1.433594v.71875h-.71875v-.71875zm0 1.4375v.714844h-.71875v-.714844zm0 1.433594v.71875h-.71875v-.71875zm0 1.4375v.71875h-.71875v-.71875zm0 1.433594v.71875h-.71875v-.71875zm0 1.4375v.71875h-.71875v-.71875zm0 1.433594v.71875h-.71875v-.71875zm0 1.4375v.71875h-.71875v-.71875zm0 1.433593v.71875h-.71875v-.71875zm0 1.4375v.71875h-.71875v-.71875zm0 1.4375v.714844h-.71875v-.714844zm0 1.433594v.105469c0 .230468-.03125.457031-.089844.679687l-.691406-.183593c.042969-.164063.0625-.328126.0625-.496094v-.105469zm-.445313 1.570313c-.167968.253906-.371093.46875-.613281.648437l-.429687-.574219c.175781-.128906.324218-.289062.445312-.472656zm-1.386718 1.050781c-.257813.082031-.527344.125-.796875.125l-.003907-.714844c.199219-.003906.390626-.03125.582032-.09375zm-1.515625.125h-.71875v-.714844h.71875zm-1.4375 0h-.71875v-.714844h.71875zm-1.433594 0h-.71875v-.714844h.71875zm-1.4375 0h-.71875v-.714844h.71875zm-1.433594 0h-.71875v-.714844h.71875zm-1.4375 0h-.71875v-.714844h.71875zm-1.4375 0h-.714843v-.714844h.714843zm-1.433593 0h-.71875v-.714844h.71875zm-1.4375 0h-.714844v-.714844h.714844zm-1.433594 0h-.71875v-.714844h.71875zm-1.4375 0h-.714844v-.714844h.714844zm-1.433594 0h-.71875v-.714844h.71875zm-1.4375 0h-.71875v-.714844h.71875zm-1.433594 0h-.71875v-.714844h.71875zm-1.4375 0h-.71875v-.714844h.71875zm-1.433594 0h-.71875v-.714844h.71875zm-1.4375 0h-.71875v-.714844h.71875zm-1.433593 0h-.71875v-.714844h.71875zm-1.4375 0h-.71875v-.714844h.71875zm-1.4375 0h-.714844v-.714844h.714844zm-1.433594 0h-.71875v-.714844h.71875zm-1.4375 0h-.714844v-.714844h.714844zm-1.433594 0h-.71875v-.714844h.71875zm-1.4375 0h-.714843v-.714844h.714843zm-1.433593 0h-.71875v-.714844h.71875zm-1.4375 0h-.714844v-.714844h.714844zm-1.433594 0h-.71875v-.714844h.71875zm-1.4375 0h-.71875v-.714844h.71875zm-1.433594 0h-.71875v-.714844h.71875zm-1.4375 0h-.71875v-.714844h.71875zm-1.433594 0h-.71875v-.714844h.71875zm-1.4375 0h-.71875v-.714844h.71875zm-1.433594 0h-.71875v-.714844h.71875zm-1.4375 0h-.71875v-.714844h.71875zm-1.4375 0h-.714843v-.714844h.714843zm-1.433593 0h-.71875v-.714844h.71875zm-1.4375 0h-.714844v-.714844h.714844zm-1.433594 0h-.71875v-.714844h.71875zm-1.4375 0h-.714844v-.714844h.714844zm-1.433594 0h-.71875v-.714844h.71875zm-1.4375 0h-.71875v-.714844h.71875zm-1.433593 0h-.71875v-.714844h.71875zm-1.4375 0h-.71875v-.714844h.71875zm-1.433594 0h-.71875v-.714844h.71875zm-1.4375 0h-.71875v-.714844h.71875zm-1.433594 0h-.71875v-.714844h.71875zm-1.4375 0h-.71875v-.714844h.71875zm-1.433594 0h-.71875v-.714844h.71875zm-1.4375 0h-.71875v-.714844h.71875zm-1.4375 0h-.714844v-.714844h.714844zm-1.433594 0h-.71875v-.714844h.71875zm-1.4375 0h-.714843v-.714844h.714843zm-1.433593 0h-.71875v-.714844h.71875zm-1.4375 0h-.714844v-.714844h.714844zm-1.433594 0h-.71875v-.714844h.71875zm-1.4375 0h-.71875v-.714844h.71875zm-1.433594 0h-.71875v-.714844h.71875zm-1.4375 0h-.71875v-.714844h.71875zm-1.433593 0h-.71875v-.714844h.71875zm-1.4375 0h-.71875v-.714844h.71875zm-1.433594 0h-.71875v-.714844h.71875zm-1.4375 0h-.71875v-.714844h.71875zm-1.4375 0h-.714844v-.714844h.714844zm-1.433594 0h-.71875v-.714844h.71875zm-1.4375 0h-.714844v-.714844h.714844zm-1.433594 0h-.71875v-.714844h.71875zm-1.4375 0h-.714844v-.714844h.714844zm-1.433594 0h-.71875v-.714844h.71875zm-1.457031-.011719c-.28125-.027344-.550781-.101562-.804687-.214844l.289062-.65625c.1875.082032.382813.136719.585938.15625zm-1.542969-.703125c-.21875-.207031-.398437-.441406-.535156-.710937l.636719-.328126c.101563.191407.230469.367188.390625.515626zm-.796874-1.511719c-.023438-.136718-.035157-.273437-.035157-.414062v-.339844h.71875v.339844c0 .101562.007813.203125.023438.300781zm-.035157-1.472656v-.71875h.71875v.71875zm0-1.4375v-.714844h.71875v.714844zm0-1.433594v-.71875h.71875v.71875zm0-1.4375v-.71875h.71875v.71875zm0-1.433594v-.71875h.71875v.71875zm0-1.4375v-.71875h.71875v.71875zm0-1.433593v-.71875h.71875v.71875zm0-1.4375v-.71875h.71875v.71875zm0-1.433594v-.71875h.71875v.71875zm0-1.4375v-.71875h.71875v.71875zm0-1.4375v-.714844h.71875v.714844zm0-1.433594v-.71875h.71875v.71875zm0-1.4375v-.714843h.71875v.714843zm0-1.433593v-.71875h.71875v.71875zm0-1.4375v-.714844h.71875v.714844zm0-1.433594v-.71875h.71875v.71875zm0-1.4375v-.714844h.71875v.714844zm0-1.433594v-.71875h.71875v.71875zm0-1.4375v-.71875h.71875v.71875zm0-1.433594v-.71875h.71875v.71875zm0-1.4375v-.71875h.71875v.71875zm0-1.433594v-.71875h.71875v.71875zm0-1.4375v-.71875h.71875v.71875zm.085938-1.5c.074219-.28125.191406-.546874.351562-.789062l.597657.394531c-.117188.179688-.199219.371094-.253907.574219zm.960937-1.441406c.234375-.175781.492188-.3125.773438-.402344l.222656.679688c-.203125.066406-.390625.167969-.5625.296875zm1.570313-.535156h.027343.714844v.71875h-.714844c-.007812 0-.011718 0-.019531 0zm0 0" fill-opacity=".6"/><path d="m32.816406 12.789062h95.925782" fill="none" stroke="#000" stroke-miterlimit="10" stroke-width=".717842"/><path d="m132.507812 12.789062-5.023437 2.511719 1.257813-2.511719-1.257813-2.511718zm0 0" stroke="#000" stroke-miterlimit="10" stroke-width=".717842"/><path d="m49.683594 10.996094h10.769531v5.742187h-10.769531zm0 0" fill="#fff"/><g><use x="49.897755" xlink:href="#b" y="14.583902"/><use x="53.52573" xlink:href="#c" y="14.583902"/><use x="56.872311" xlink:href="#d" y="14.583902"/></g><path d="m32.816406 24.992188 95.925782-.171876" fill="none" stroke="#000" stroke-miterlimit="10" stroke-width=".717842"/><path d="m132.507812 24.8125-5.015624 2.519531 1.25-2.511719-1.257813-2.511718zm0 0" stroke="#000" stroke-miterlimit="10" stroke-width=".717842"/><path d="m48.96875 19.609375h18.660156v5.742187h-18.660156zm0 0" fill="#fff"/><g><use x="48.966803" xlink:href="#e" y="23.198009"/><use x="52.313384" xlink:href="#f" y="23.198009"/><use x="53.70528" xlink:href="#g" y="23.198009"/><use x="56.499122" xlink:href="#h" y="23.198009"/><use x="59.292964" xlink:href="#i" y="23.198009"/><use x="60.966255" xlink:href="#j" y="23.198009"/><use x="63.760097" xlink:href="#h" y="23.198009"/><use x="66.553939" xlink:href="#f" y="23.198009"/></g><use x="67.930761" xlink:href="#k" y="23.198009"/><path d="m125.777344 36.476562v1.222657c0 1.347656 1.285156 2.441406 2.871094 2.441406 1.585937 0 2.871093-1.09375 2.871093-2.441406v-1.222657m-2.871093 3.664063v2.4375m-2.15625 0h4.308593" fill="none" stroke="#000" stroke-miterlimit="10" stroke-width="1.435685"/><path d="m126.492188 32.207031c0-1.011719.964843-1.832031 2.15625-1.832031 1.191406 0 2.152343.820312 2.152343 1.832031v5.492188c0 1.011719-.960937 1.828125-2.152343 1.828125-1.191407 0-2.15625-.816406-2.15625-1.828125zm0 0" fill="none" stroke="#000" stroke-miterlimit="10" stroke-width="1.435685"/><path d="m135.46875 7.765625h27.992188v35.890625h-27.992188zm0 0" fill="#fff2cc" stroke="#d6b656" stroke-width=".717842"/><path d="m78.039062 38.632812h41.371094" fill="none" stroke="#000" stroke-miterlimit="10" stroke-width=".717842"/><path d="m123.175781 38.632812-5.023437 2.511719 1.257812-2.511719-1.257812-2.511718zm0 0" stroke="#000" stroke-miterlimit="10" stroke-width=".717842"/><path d="m32.816406 38.632812h16.507813" fill="none" stroke="#000" stroke-miterlimit="10" stroke-width=".717842"/><path d="m51.480469 38.617188c5.109375-5.699219 7.523437-5.726563 12.5625 0 5.039062 5.722656 7.398437 5.757812 12.5625 0" fill="none" stroke="#000" stroke-miterlimit="10" stroke-width=".717842"/><g><use x="82.077279" xlink:href="#c" y="43.297594"/><use x="85.42386" xlink:href="#f" y="43.297594"/><use x="86.815756" xlink:href="#l" y="43.297594"/><use x="89.609598" xlink:href="#i" y="43.297594"/><use x="91.282888" xlink:href="#f" y="43.297594"/></g><g><use x="92.65971" xlink:href="#m" y="43.297594"/><use x="95.453552" xlink:href="#n" y="43.297594"/><use x="98.247394" xlink:href="#k" y="43.297594"/><use x="99.639291" xlink:href="#c" y="43.297594"/><use x="102.985871" xlink:href="#o" y="43.297594"/><use x="105.779713" xlink:href="#m" y="43.297594"/><use x="108.573556" xlink:href="#j" y="43.297594"/><use x="111.367398" xlink:href="#p" y="43.297594"/></g><path d="m50.820312 36.132812h2.152344v.71875h-2.152344m4.304688-.71875 2.152344-.003906.003906.71875h-2.15625m4.308594-.71875h2.152344v.714844l-2.152344.003906m4.304687-.722656h2.15625v.71875h-2.15625m4.308594-.71875 2.152344-.003906v.71875h-2.152344m4.308594-.71875h2.152343v.71875h-2.152343" fill="#c00"/><path d="m34.984375 17.367188c-.152344.53125-.667969.863281-1.214844.792968-.546875-.082031-.953125-.539062-.953125-1.085937s.40625-1.003907.953125-1.082031c.546875-.074219 1.0625.257812 1.214844.78125h1.296875c.160156-.058594.289062-.179688.351562-.332032l.402344-.730468c.230469-.351563.605469-.582032 1.019532-.644532.339843-.058594.691406-.082031 1.035156-.082031.148437-.464844.617187-.757813 1.113281-.6875.488281.070313.851563.496094.851563.984375 0 .496094-.363282.910156-.851563.980469-.496094.074219-.964844-.21875-1.113281-.6875-.375-.019531-.746094.015625-1.113282.109375-.164062.0625-.316406.164062-.421874.300781l-.253907.496094-.148437.308593h5.941406v-.992187l2.203125 1.363281-2.203125 1.222656v-1.019531h-4.5625c.089844.140625.171875.292969.234375.457031l.25.648438c.058594.105469.152344.199219.265625.257812.144531.035157.296875.058594.453125.0625h.539063v-.625h1.789062v1.804688h-1.789062v-.582031c-.367188.035156-.726563.007812-1.082032-.078125-.253906-.074219-.476562-.230469-.640625-.445313l-.199219-.460937-.261718-.632813c-.085938-.234375-.308594-.402343-.566406-.40625zm0 0"/><path d="m38.808594 29.40625c-.050782 0-.09375.023438-.128906.058594-.027344.035156-.050782.078125-.050782.128906v.726562c0 .0625.035156.121094.09375.15625.058594.027344.121094.027344.179688 0 .058594-.035156.09375-.09375.09375-.15625v-.726562c0-.050781-.023438-.09375-.058594-.128906-.027344-.035156-.078125-.058594-.128906-.058594zm-.960938 0c-.050781 0-.09375.023438-.128906.058594s-.050781.078125-.050781.128906v.726562c0 .0625.035156.121094.09375.15625.050781.027344.121093.027344.179687 0 .058594-.035156.09375-.09375.09375-.15625v-.726562c0-.050781-.023437-.09375-.058594-.128906-.035156-.035156-.078124-.058594-.128906-.058594zm-.960937 0c-.050781 0-.101563.023438-.128907.058594-.039062.035156-.058593.078125-.050781.128906v.726562c0 .0625.027344.121094.085938.15625.058593.027344.128906.027344.1875 0 .046875-.035156.085937-.09375.085937-.15625v-.726562c0-.050781-.015625-.09375-.050781-.128906s-.085937-.058594-.128906-.058594zm-.96875 0c-.050781 0-.09375.023438-.128907.058594-.03125.035156-.050781.078125-.050781.128906v.726562c0 .0625.035157.121094.09375.15625.054688.027344.121094.027344.175781 0 .058594-.035156.09375-.09375.09375-.15625v-.726562c0-.050781-.019531-.09375-.046874-.128906-.039063-.035156-.089844-.058594-.136719-.058594zm-.964844 0c-.050781 0-.09375.023438-.128906.058594-.035157.035156-.050781.078125-.050781.128906v.726562c0 .0625.039062.121094.09375.15625.050781.027344.125.027344.179687 0 .058594-.035156.09375-.09375.09375-.15625v-.726562c0-.050781-.019531-.09375-.058594-.128906-.035156-.035156-.078125-.058594-.128906-.058594zm-1.074219-.679688v3.550782h.988282v.667968h.648437v.753907h2.554687v-.753907h.695313v-.667968h.957031v-3.550782zm.394532.386719h5.058593v2.777344h-.953125v.660156h-.695312v.761719h-1.78125v-.761719h-.640625v-.660156h-.988281zm-.828126-1.96875c-.34375 0-.628906.289063-.628906.632813v6.632812c0 .34375.285156.632813.628906.632813h6.632813c.347656 0 .632813-.289063.632813-.632813v-6.632812c0-.34375-.285157-.632813-.632813-.632813zm0 .390625h6.632813c.136719 0 .246094.105469.246094.242188v6.632812c0 .136719-.109375.246094-.246094.246094h-6.632813c-.132812 0-.242187-.109375-.242187-.246094v-6.632812c0-.136719.109375-.242188.242187-.242188zm0 0"/><use fill="#c00" x="82.940933" xlink:href="#u" y="36.837013"/><g fill="#c00"><use x="85.062157" xlink:href="#v" y="36.837013"/><use x="87.251575" xlink:href="#w" y="36.837013"/><use x="88.245787" xlink:href="#x" y="36.837013"/><use x="89.239998" xlink:href="#y" y="36.837013"/></g><g fill="#c00"><use x="90.223442" xlink:href="#z" y="36.837013"/><use x="92.412861" xlink:href="#A" y="36.837013"/><use x="94.60228" xlink:href="#B" y="36.837013"/><use x="95.998483" xlink:href="#C" y="36.837013"/><use x="97.994084" xlink:href="#D" y="36.837013"/><use x="99.989685" xlink:href="#A" y="36.837013"/></g><g fill="#c00"><use x="102.168336" xlink:href="#v" y="36.837013"/><use x="104.357755" xlink:href="#w" y="36.837013"/><use x="105.351966" xlink:href="#E" y="36.837013"/></g><path d="m1.230469 7.765625h28.714843v36.609375h-28.714843zm0 0" fill="#e1d5e7" stroke="#9673a6" stroke-width=".717842"/><g><use x="136.902485" xlink:href="#F" y="37.554855"/><use x="140.490261" xlink:href="#G" y="37.554855"/><use x="141.683315" xlink:href="#H" y="37.554855"/><use x="144.078037" xlink:href="#I" y="37.554855"/><use x="145.753481" xlink:href="#J" y="37.554855"/><use x="148.380784" xlink:href="#K" y="37.554855"/></g><g><use x="150.995166" xlink:href="#L" y="37.554855"/><use x="153.622469" xlink:href="#J" y="37.554855"/><use x="156.249772" xlink:href="#M" y="37.554855"/><use x="158.877075" xlink:href="#N" y="37.554855"/></g><g><use x="135.825722" xlink:href="#O" y="25.351537"/><use x="138.694219" xlink:href="#O" y="25.351537"/><use x="141.562717" xlink:href="#P" y="25.351537"/><use x="144.67241" xlink:href="#Q" y="25.351537"/></g><g><use x="145.852543" xlink:href="#R" y="25.351537"/><use x="147.286792" xlink:href="#S" y="25.351537"/><use x="149.914095" xlink:href="#T" y="25.351537"/><use x="153.743066" xlink:href="#N" y="25.351537"/><use x="156.137788" xlink:href="#U" y="25.351537"/><use x="158.53251" xlink:href="#V" y="25.351537"/><use x="161.159813" xlink:href="#W" y="25.351537"/></g><g><use x="136.543565" xlink:href="#O" y="11.712531"/><use x="139.412063" xlink:href="#N" y="11.712531"/><use x="141.806785" xlink:href="#I" y="11.712531"/><use x="143.482229" xlink:href="#G" y="11.712531"/><use x="144.675283" xlink:href="#X" y="11.712531"/><use x="147.070005" xlink:href="#Y" y="11.712531"/></g><g><use x="148.250138" xlink:href="#Q" y="11.712531"/><use x="149.443192" xlink:href="#Z" y="11.712531"/><use x="152.31169" xlink:href="#J" y="11.712531"/></g><g><use x="154.926072" xlink:href="#I" y="11.712531"/><use x="156.601516" xlink:href="#aa" y="11.712531"/><use x="158.035765" xlink:href="#Q" y="11.712531"/></g><g><use x="136.543565" xlink:href="#ab" y="16.737429"/><use x="139.653258" xlink:href="#ac" y="16.737429"/><use x="142.762951" xlink:href="#ad" y="16.737429"/><use x="145.872644" xlink:href="#Q" y="16.737429"/><use x="147.065698" xlink:href="#R" y="16.737429"/><use x="148.499947" xlink:href="#Y" y="16.737429"/><use x="149.693001" xlink:href="#J" y="16.737429"/></g><g><use x="152.307383" xlink:href="#V" y="16.737429"/><use x="154.934686" xlink:href="#H" y="16.737429"/><use x="157.329408" xlink:href="#X" y="16.737429"/><use x="159.72413" xlink:href="#aa" y="16.737429"/><use x="161.158379" xlink:href="#W" y="16.737429"/></g><g><use x="135.343425" xlink:href="#ak" y="5.251952"/><use x="141.323051" xlink:href="#al" y="5.251952"/><use x="145.314255" xlink:href="#am" y="5.251952"/><use x="149.305458" xlink:href="#an" y="5.251952"/><use x="150.899068" xlink:href="#ao" y="5.251952"/><use x="152.887491" xlink:href="#al" y="5.251952"/><use x="156.878694" xlink:href="#ap" y="5.251952"/><use x="159.269109" xlink:href="#aq" y="5.251952"/></g><g><use x="3.181924" xlink:href="#ac" y="11.712533"/><use x="6.291617" xlink:href="#N" y="11.712533"/><use x="8.686339" xlink:href="#ae" y="11.712533"/></g><g><use x="10.762339" xlink:href="#af" y="11.712533"/><use x="11.955393" xlink:href="#Q" y="11.712533"/><use x="13.148447" xlink:href="#ad" y="11.712533"/><use x="16.25814" xlink:href="#J" y="11.712533"/></g><g><use x="18.872522" xlink:href="#X" y="11.712533"/><use x="21.267244" xlink:href="#I" y="11.712533"/><use x="22.942688" xlink:href="#S" y="11.712533"/><use x="25.569991" xlink:href="#U" y="11.712533"/><use x="27.964713" xlink:href="#Q" y="11.712533"/></g><g><use x="4.583961" xlink:href="#J" y="16.737431"/><use x="7.211263" xlink:href="#I" y="16.737431"/><use x="8.886707" xlink:href="#Q" y="16.737431"/><use x="10.079761" xlink:href="#ab" y="16.737431"/><use x="13.189454" xlink:href="#M" y="16.737431"/></g><g><use x="15.803836" xlink:href="#S" y="16.737431"/><use x="18.431139" xlink:href="#I" y="16.737431"/><use x="20.106583" xlink:href="#J" y="16.737431"/><use x="22.733886" xlink:href="#G" y="16.737431"/></g><use x="23.914019" xlink:href="#S" y="16.737431"/><use x="3.10341" xlink:href="#ar" y="5.251952"/><g><use x="6.678265" xlink:href="#as" y="5.251952"/><use x="10.669468" xlink:href="#ap" y="5.251952"/><use x="13.059883" xlink:href="#at" y="5.251952"/><use x="17.051086" xlink:href="#au" y="5.251952"/><use x="21.042289" xlink:href="#ao" y="5.251952"/><use x="23.030712" xlink:href="#aq" y="5.251952"/></g><g><use x="7.096408" xlink:href="#ag" y="23.198009"/><use x="9.723711" xlink:href="#X" y="23.198009"/><use x="12.118433" xlink:href="#K" y="23.198009"/><use x="14.745736" xlink:href="#aa" y="23.198009"/><use x="16.179985" xlink:href="#J" y="23.198009"/></g><g><use x="18.794367" xlink:href="#K" y="23.198009"/><use x="21.42167" xlink:href="#Q" y="23.198009"/><use x="22.614724" xlink:href="#Q" y="23.198009"/></g><g><use x="7.702087" xlink:href="#R" y="28.222907"/><use x="9.136336" xlink:href="#ag" y="28.222907"/><use x="11.763639" xlink:href="#G" y="28.222907"/><use x="12.956693" xlink:href="#M" y="28.222907"/></g><g><use x="15.571075" xlink:href="#ah" y="28.222907"/><use x="18.198378" xlink:href="#ai" y="28.222907"/><use x="20.5931" xlink:href="#W" y="28.222907"/></g><g><use x="4.707337" xlink:href="#ad" y="36.119171"/><use x="7.81703" xlink:href="#aj" y="36.119171"/><use x="10.444333" xlink:href="#Q" y="36.119171"/><use x="11.637387" xlink:href="#O" y="36.119171"/></g><g><use x="14.492964" xlink:href="#J" y="36.119171"/><use x="17.120266" xlink:href="#ah" y="36.119171"/><use x="19.747569" xlink:href="#M" y="36.119171"/><use x="22.374872" xlink:href="#S" y="36.119171"/></g><use x="24.989254" xlink:href="#Q" y="36.119171"/><g><use x="7.926412" xlink:href="#ac" y="41.144069"/><use x="11.036105" xlink:href="#N" y="41.144069"/><use x="13.430827" xlink:href="#ae" y="41.144069"/><use x="15.825549" xlink:href="#G" y="41.144069"/><use x="17.018603" xlink:href="#H" y="41.144069"/><use x="19.413325" xlink:href="#N" y="41.144069"/></g><path d="m1.230469 19.25h28.714843" fill="none" stroke="#8f5b7c" stroke-miterlimit="10" stroke-width=".717842"/><path d="m1.230469 31.453125h28.714843" fill="none" stroke="#8f5b7c" stroke-miterlimit="10" stroke-width=".717842"/><path d="m135.109375 18.53125h28.710937" fill="none" stroke="#d6b656" stroke-miterlimit="10" stroke-width=".717842"/><path d="m135.109375 30.015625h28.710937" fill="none" stroke="#d6b656" stroke-miterlimit="10" stroke-width=".717842"/><g><use x="46.073001" xlink:href="#av" y="5.251952"/><use x="50.853831" xlink:href="#aw" y="5.251952"/><use x="54.443042" xlink:href="#ao" y="5.251952"/><use x="56.431465" xlink:href="#au" y="5.251952"/><use x="60.422669" xlink:href="#ap" y="5.251952"/><use x="62.813083" xlink:href="#am" y="5.251952"/><use x="66.804287" xlink:href="#as" y="5.251952"/><use x="70.79549" xlink:href="#ax" y="5.251952"/><use x="72.3891" xlink:href="#ay" y="5.251952"/></g><g><use x="74.355988" xlink:href="#az" y="5.251952"/><use x="79.538809" xlink:href="#al" y="5.251952"/><use x="83.530012" xlink:href="#am" y="5.251952"/><use x="87.521215" xlink:href="#am" y="5.251952"/><use x="91.512419" xlink:href="#au" y="5.251952"/><use x="95.503622" xlink:href="#aA" y="5.251952"/><use x="99.092833" xlink:href="#ao" y="5.251952"/><use x="101.081256" xlink:href="#an" y="5.251952"/><use x="102.674866" xlink:href="#al" y="5.251952"/><use x="106.66607" xlink:href="#am" y="5.251952"/><use x="110.657273" xlink:href="#aq" y="5.251952"/></g><g fill="#c00"><g><use x="81.213625" xlink:href="#aB" y="10.99469"/><use x="82.914911" xlink:href="#aC" y="10.99469"/><use x="85.305326" xlink:href="#aD" y="10.99469"/><use x="86.500533" xlink:href="#aE" y="10.99469"/><use x="88.496134" xlink:href="#aF" y="10.99469"/><use x="89.892337" xlink:href="#aD" y="10.99469"/><use x="91.087544" xlink:href="#aG" y="10.99469"/><use x="93.276963" xlink:href="#aH" y="10.99469"/></g><g><use x="95.455614" xlink:href="#aI" y="10.99469"/><use x="96.449826" xlink:href="#aJ" y="10.99469"/><use x="97.444037" xlink:href="#aI" y="10.99469"/></g><g><use x="98.427481" xlink:href="#aK" y="10.99469"/><use x="100.817895" xlink:href="#aF" y="10.99469"/><use x="102.214099" xlink:href="#aF" y="10.99469"/><use x="103.610302" xlink:href="#aL" y="10.99469"/><use x="105.79972" xlink:href="#aF" y="10.99469"/><use x="107.195923" xlink:href="#aI" y="10.99469"/></g><g><use x="108.179367" xlink:href="#aM" y="10.99469"/><use x="111.16918" xlink:href="#aN" y="10.99469"/><use x="113.164781" xlink:href="#aO" y="10.99469"/><use x="115.160383" xlink:href="#aO" y="10.99469"/><use x="117.155984" xlink:href="#aE" y="10.99469"/><use x="119.151585" xlink:href="#aP" y="10.99469"/><use x="121.341004" xlink:href="#aN" y="10.99469"/><use x="123.336605" xlink:href="#aB" y="10.99469"/></g><g><use x="81.213625" xlink:href="#aB" y="23.198007"/><use x="82.914911" xlink:href="#aC" y="23.198007"/><use x="85.305326" xlink:href="#aD" y="23.198007"/><use x="86.500533" xlink:href="#aE" y="23.198007"/><use x="88.496134" xlink:href="#aF" y="23.198007"/><use x="89.892337" xlink:href="#aD" y="23.198007"/><use x="91.087544" xlink:href="#aG" y="23.198007"/><use x="93.276963" xlink:href="#aH" y="23.198007"/></g><g><use x="95.455614" xlink:href="#aI" y="23.198007"/><use x="96.449826" xlink:href="#aJ" y="23.198007"/><use x="97.444037" xlink:href="#aI" y="23.198007"/></g><g><use x="98.427481" xlink:href="#aK" y="23.198007"/><use x="100.817895" xlink:href="#aF" y="23.198007"/><use x="102.214099" xlink:href="#aF" y="23.198007"/><use x="103.610302" xlink:href="#aL" y="23.198007"/><use x="105.79972" xlink:href="#aF" y="23.198007"/><use x="107.195923" xlink:href="#aI" y="23.198007"/></g><g><use x="108.179367" xlink:href="#aM" y="23.198007"/><use x="111.16918" xlink:href="#aN" y="23.198007"/><use x="113.164781" xlink:href="#aO" y="23.198007"/><use x="115.160383" xlink:href="#aO" y="23.198007"/><use x="117.155984" xlink:href="#aE" y="23.198007"/><use x="119.151585" xlink:href="#aP" y="23.198007"/><use x="121.341004" xlink:href="#aN" y="23.198007"/><use x="123.336605" xlink:href="#aB" y="23.198007"/></g></g><path d="m49.683594 24.632812h27.996094v5.742188h-27.996094zm0 0" fill="#fff"/><g><use x="49.85289" xlink:href="#o" y="28.222905"/><use x="52.646732" xlink:href="#i" y="28.222905"/><use x="54.320023" xlink:href="#k" y="28.222905"/><use x="55.711919" xlink:href="#q" y="28.222905"/><use x="58.505761" xlink:href="#o" y="28.222905"/><use x="61.299603" xlink:href="#o" y="28.222905"/><use x="64.093445" xlink:href="#n" y="28.222905"/><use x="66.887287" xlink:href="#r" y="28.222905"/><use x="69.68113" xlink:href="#l" y="28.222905"/><use x="72.474972" xlink:href="#s" y="28.222905"/><use x="74.98742" xlink:href="#t" y="28.222905"/></g><path d="m59.269531 38.761719 1.40625.292969c-.214843-.636719-.761719-1.089844-1.40625-1.164063v5.226563c-.050781.308593-.441406.539062-.890625.523437-.445312-.011719-.804687-.269531-.804687-.578125s.359375-.570312.804687-.582031c.449219-.015625.839844.214843.890625.523437zm0 0" stroke="#000" stroke-miterlimit="10" stroke-width=".717842"/><path d="m55.070312 39.035156h2.820313m-2.820313 1.449219h2.820313m-2.820313 1.449219h2.820313" fill="none" stroke="#000" stroke-miterlimit="10" stroke-width=".717842"/></g></svg>