<svg height="275.3992pt" viewBox="0 0 512.5773 275.3992" width="512.5773pt" xmlns="http://www.w3.org/2000/svg" xmlns:xlink="http://www.w3.org/1999/xlink"><clipPath id="a"><path d="m0 0h512.578125v275.398438h-512.578125zm0 0"/></clipPath><clipPath id="b"><path d="m91.390625 200.867188h14.054687v9.65625h-14.054687zm0 0"/></clipPath><linearGradient id="c"><stop offset="0" stop-color="#b1cbe9"/><stop offset=".03125" stop-color="#b1cbe9"/><stop offset=".0625" stop-color="#b0cae9"/><stop offset=".09375" stop-color="#afc9e8"/><stop offset=".125" stop-color="#aec9e8"/><stop offset=".15625" stop-color="#adc8e8"/><stop offset=".1875" stop-color="#acc8e8"/><stop offset=".21875" stop-color="#abc7e7"/><stop offset=".25" stop-color="#aac6e7"/><stop offset=".28125" stop-color="#aac6e7"/><stop offset=".3125" stop-color="#a9c5e7"/><stop offset=".34375" stop-color="#a8c4e6"/><stop offset=".375" stop-color="#a7c4e6"/><stop offset=".40625" stop-color="#a6c3e6"/><stop offset=".4375" stop-color="#a5c3e6"/><stop offset=".46875" stop-color="#a4c2e5"/><stop offset=".5" stop-color="#a3c1e5"/><stop offset=".515625" stop-color="#a3c1e5"/><stop offset=".53125" stop-color="#a2c1e5"/><stop offset=".546875" stop-color="#a2c0e5"/><stop offset=".5625" stop-color="#a1c0e5"/><stop offset=".578125" stop-color="#a1c0e5"/><stop offset=".59375" stop-color="#a0c0e5"/><stop offset=".609375" stop-color="#a0bfe5"/><stop offset=".625" stop-color="#9fbfe5"/><stop offset=".640625" stop-color="#9ebfe5"/><stop offset=".65625" stop-color="#9ebfe5"/><stop offset=".671875" stop-color="#9dbee5"/><stop offset=".6875" stop-color="#9dbee5"/><stop offset=".703125" stop-color="#9cbee5"/><stop offset=".71875" stop-color="#9cbee5"/><stop offset=".734375" stop-color="#9bbde5"/><stop offset=".75" stop-color="#9bbde5"/><stop offset=".765625" stop-color="#9abde4"/><stop offset=".78125" stop-color="#9abde4"/><stop offset=".796875" stop-color="#99bce4"/><stop offset=".8125" stop-color="#99bce4"/><stop offset=".828125" stop-color="#98bce4"/><stop offset=".84375" stop-color="#98bce4"/><stop offset=".859375" stop-color="#97bbe4"/><stop offset=".875" stop-color="#97bbe4"/><stop offset=".890625" stop-color="#96bbe4"/><stop offset=".90625" stop-color="#95bbe4"/><stop offset=".921875" stop-color="#95bae4"/><stop offset=".9375" stop-color="#94bae4"/><stop offset=".953125" stop-color="#94bae4"/><stop offset=".96875" stop-color="#93bae4"/><stop offset=".984375" stop-color="#93b9e4"/><stop offset="1" stop-color="#92b9e4"/></linearGradient><linearGradient id="d" gradientTransform="matrix(1 0 0 -1 -59.2878 559.8032)" gradientUnits="userSpaceOnUse" x1="157.71" x2="157.71" xlink:href="#c" y1="358.9353" y2="349.28"/><clipPath id="e"><path d="m91.292969 200h14.707031v12h-14.707031zm0 0"/></clipPath><clipPath id="f"><path d="m91.390625 181.558594h1.277344v9.65625h-1.277344zm0 0"/></clipPath><linearGradient id="g" gradientTransform="matrix(1 0 0 -1 -59.2878 559.8032)" gradientUnits="userSpaceOnUse" x1="151.32" x2="151.32" xlink:href="#c" y1="378.2453" y2="368.59"/><clipPath id="h"><path d="m91.292969 181h2.707031v11h-2.707031zm0 0"/></clipPath><clipPath id="i"><path d="m91.390625 162.246094h1.277344v9.65625h-1.277344zm0 0"/></clipPath><linearGradient id="j" gradientTransform="matrix(1 0 0 -1 -59.2878 559.8032)" gradientUnits="userSpaceOnUse" x1="151.32" x2="151.32" xlink:href="#c" y1="397.5553" y2="387.9"/><clipPath id="k"><path d="m91.292969 161h2.707031v12h-2.707031zm0 0"/></clipPath><clipPath id="l"><path d="m91.390625 142.929688h12.777344v9.652343h-12.777344zm0 0"/></clipPath><linearGradient id="m" gradientTransform="matrix(1 0 0 -1 -59.2878 559.8032)" gradientUnits="userSpaceOnUse" x1="157.07" x2="157.07" xlink:href="#c" y1="416.8753" y2="407.22"/><clipPath id="n"><path d="m91.292969 142h13.707031v12h-13.707031zm0 0"/></clipPath><clipPath id="o"><path d="m91.390625 123.617188h61.332031v9.65625h-61.332031zm0 0"/></clipPath><linearGradient id="p" gradientTransform="matrix(1 0 0 -1 -59.2878 559.8032)" gradientUnits="userSpaceOnUse" x1="181.35" x2="181.35" xlink:href="#c" y1="436.1853" y2="426.53"/><clipPath id="q"><path d="m91.292969 123h62.707031v11h-62.707031zm0 0"/></clipPath><clipPath id="r"><path d="m91.390625 104.308594h6.390625v9.65625h-6.390625zm0 0"/></clipPath><linearGradient id="s" gradientTransform="matrix(1 0 0 -1 -59.2878 559.8032)" gradientUnits="userSpaceOnUse" x1="153.88" x2="153.88" xlink:href="#c" y1="455.4952" y2="445.84"/><clipPath id="t"><path d="m91.292969 103h7.707031v12h-7.707031zm0 0"/></clipPath><clipPath id="u"><path d="m91.390625 84.996094h39.609375v9.65625h-39.609375zm0 0"/></clipPath><linearGradient id="v" gradientTransform="matrix(1 0 0 -1 -59.2878 559.8032)" gradientUnits="userSpaceOnUse" x1="170.49" x2="170.49" xlink:href="#c" y1="474.8053" y2="465.15"/><clipPath id="w"><path d="m91.292969 84h40.707031v12h-40.707031zm0 0"/></clipPath><clipPath id="x"><path d="m91.390625 65.6875h25.554687v9.65625h-25.554687zm0 0"/></clipPath><linearGradient id="y" gradientTransform="matrix(1 0 0 -1 -59.2878 559.8032)" gradientUnits="userSpaceOnUse" x1="163.46" x2="163.46" xlink:href="#c" y1="494.1153" y2="484.46"/><clipPath id="z"><path d="m91.292969 65h26.707031v11h-26.707031zm0 0"/></clipPath><clipPath id="A"><path d="m91.390625 46.378906h54.945313v9.652344h-54.945313zm0 0"/></clipPath><linearGradient id="B" gradientTransform="matrix(1 0 0 -1 -59.2878 559.8032)" gradientUnits="userSpaceOnUse" x1="178.15" x2="178.15" xlink:href="#c" y1="513.4252" y2="503.77"/><clipPath id="C"><path d="m91.292969 45h55.707031v12h-55.707031zm0 0"/></clipPath><clipPath id="D"><path d="m91.390625 27.066406h5.113281v9.65625h-5.113281zm0 0"/></clipPath><linearGradient id="E" gradientTransform="matrix(1 0 0 -1 -59.2878 559.8032)" gradientUnits="userSpaceOnUse" x1="153.24" x2="153.24" xlink:href="#c" y1="532.7353" y2="523.08"/><clipPath id="F"><path d="m91.292969 26h5.707031v12h-5.707031zm0 0"/></clipPath><clipPath id="G"><path d="m91.390625 7.757812h392.261719v9.65625h-392.261719zm0 0"/></clipPath><linearGradient id="H" gradientTransform="matrix(1 0 0 -1 -59.2878 559.8032)" gradientUnits="userSpaceOnUse" x1="346.81" x2="346.81" xlink:href="#c" y1="552.0453" y2="542.39"/><clipPath id="I"><path d="m91.292969 7h393.707031v11h-393.707031zm0 0"/></clipPath><clipPath id="J"><path d="m202.230469 259.445312h8.640625v8.636719h-8.640625zm0 0"/></clipPath><linearGradient id="K" gradientTransform="matrix(1 0 0 -1 -59.2878 559.8032)" gradientUnits="userSpaceOnUse" x1="265.84" x2="265.84" xlink:href="#c" y1="300.3584" y2="291.72"/><clipPath id="L"><path d="m0 0h512.578125v275.398438h-512.578125zm0 0"/></clipPath><symbol id="M" overflow="visible"><path d="m7.375-.78125c0 .148438-.011719.273438-.03125.375-.011719.09375-.03125.171875-.0625.234375-.023438.0625-.054688.109375-.09375.140625-.03125.0234375-.074219.03125-.125.03125h-5.578125c-.042969 0-.085937-.0078125-.125-.03125-.03125-.03125-.0625-.078125-.09375-.140625-.023437-.0625-.042969-.140625-.0625-.234375-.011719-.101562-.015625-.226562-.015625-.375 0-.15625.003906-.28125.015625-.375.007813-.101562.03125-.1875.0625-.25s.0625-.109375.09375-.140625c.039063-.03125.082031-.046875.125-.046875h1.890625v-6.578125l-1.625.90625c-.125.054687-.226562.089844-.296875.109375-.074219.011719-.136719-.003906-.1875-.046875-.042969-.050781-.074219-.128906-.09375-.234375-.011719-.113281-.015625-.269531-.015625-.46875 0-.125 0-.222656 0-.296875.007812-.082031.023438-.148437.046875-.203125.019531-.0625.046875-.109375.078125-.140625.039062-.039063.09375-.082031.15625-.125l2.171875-1.40625c.03125-.019531.0625-.035156.09375-.046875.039063-.019531.09375-.03125.15625-.03125.0625-.007812.144531-.015625.25-.015625.101563-.007813.234375-.015625.390625-.015625.195312 0 .359375.007812.484375.015625.125.011719.21875.027344.28125.046875.0625.011719.101563.03125.125.0625.019531.03125.03125.074219.03125.125v8.34375h1.640625c.050781 0 .09375.015625.125.046875.039062.03125.078125.078125.109375.140625s.050781.148438.0625.25c.007813.09375.015625.21875.015625.375zm0 0"/></symbol><symbol id="N" overflow="visible"><path d="m7.671875-5.09375c0 .804688-.070313 1.53125-.203125 2.1875-.125.648438-.335938 1.199219-.625 1.65625-.292969.460938-.679688.8125-1.15625 1.0625-.46875.25-1.042969.375-1.71875.375-.699219 0-1.277344-.1210938-1.734375-.359375-.449219-.238281-.808594-.582031-1.078125-1.03125-.261719-.445313-.445312-.988281-.546875-1.625-.105469-.644531-.15625-1.375-.15625-2.1875 0-.800781.0625-1.53125.1875-2.1875.132813-.65625.347656-1.210937.640625-1.671875.300781-.457031.6875-.804688 1.15625-1.046875.46875-.25 1.039062-.375 1.71875-.375.695312 0 1.269531.121094 1.71875.359375.457031.242188.816406.585938 1.078125 1.03125.269531.4375.457031.980469.5625 1.625.101563.648438.15625 1.375.15625 2.1875zm-2.0625.09375c0-.476562-.015625-.898438-.046875-1.265625-.023438-.363281-.0625-.679687-.125-.953125-.054688-.269531-.121094-.5-.203125-.6875-.074219-.1875-.167969-.335938-.28125-.453125-.117187-.113281-.246094-.191406-.390625-.234375-.148438-.050781-.308594-.078125-.484375-.078125-.3125 0-.570313.078125-.765625.234375-.199219.148438-.359375.371094-.484375.671875-.117187.292969-.199219.664063-.25 1.109375-.042969.4375-.0625.949219-.0625 1.53125 0 .71875.023437 1.320312.078125 1.796875.0625.46875.15625.84375.28125 1.125.125.273437.28125.464844.46875.578125.195312.117188.429688.171875.703125.171875.195313 0 .375-.03125.53125-.09375.15625-.070313.289063-.171875.40625-.296875.125-.132812.222656-.300781.296875-.5.082031-.195312.144531-.425781.1875-.6875.050781-.257812.085938-.550781.109375-.875.019531-.332031.03125-.695312.03125-1.09375zm0 0"/></symbol><symbol id="O" overflow="visible"><path d="m7.78125-2.90625c0 .261719-.027344.464844-.078125.609375-.054687.136719-.125.203125-.21875.203125h-.90625v1.828125c0 .054687-.015625.101563-.046875.140625-.03125.03125-.089844.0625-.171875.09375-.074219.03125-.171875.0507812-.296875.0625-.125.0078125-.289062.015625-.484375.015625-.1875 0-.34375-.0078125-.46875-.015625-.125-.0117188-.230469-.03125-.3125-.0625-.074219-.03125-.125-.0625-.15625-.09375-.023437-.039062-.03125-.085938-.03125-.140625v-1.828125h-3.875c-.074219 0-.140625-.007812-.203125-.03125-.054688-.019531-.101562-.0625-.140625-.125-.03125-.0625-.058594-.15625-.078125-.28125-.023438-.125-.03125-.285156-.03125-.484375 0-.164063.003906-.3125.015625-.4375.007813-.125.019531-.234375.03125-.328125.019531-.101562.046875-.195312.078125-.28125.039062-.09375.085938-.1875.140625-.28125l3.140625-5.546875c.019531-.039063.0625-.078125.125-.109375.0625-.039062.148438-.070312.265625-.09375.113281-.019531.253906-.035156.421875-.046875.175781-.007813.382812-.015625.625-.015625.269531 0 .5.007812.6875.015625.1875.011719.332031.03125.4375.0625.113281.03125.195312.070313.25.109375.050781.042969.078125.089844.078125.140625v6.09375h.90625c.082031 0 .148437.0625.203125.1875.0625.125.09375.339844.09375.640625zm-3.171875-5.484375h-.015625l-2.671875 4.65625h2.6875zm0 0"/></symbol><symbol id="P" overflow="visible"><path d="m7.625-2.71875c0 .460938-.078125.871094-.234375 1.234375-.15625.355469-.390625.65625-.703125.90625s-.699219.445313-1.15625.578125c-.460938.125-.984375.1875-1.578125.1875-.574219 0-1.078125-.0625-1.515625-.1875-.429688-.113281-.789062-.28125-1.078125-.5-.292969-.21875-.511719-.488281-.65625-.8125-.148437-.332031-.21875-.707031-.21875-1.125 0-.289062.039063-.5625.125-.8125.082031-.25.207031-.484375.375-.703125.175781-.21875.390625-.421875.640625-.609375s.539062-.367188.875-.546875c-.273438-.144531-.515625-.300781-.734375-.46875-.210937-.164063-.390625-.347656-.546875-.546875-.148438-.207031-.261719-.429688-.34375-.671875-.074219-.238281-.109375-.5-.109375-.78125 0-.40625.070313-.769531.21875-1.09375.144531-.332031.359375-.617187.640625-.859375.28125-.25.632812-.4375 1.0625-.5625.425781-.132812.921875-.203125 1.484375-.203125s1.039063.0625 1.4375.1875c.394531.117187.71875.28125.96875.5.257813.21875.453125.484375.578125.796875.125.304688.1875.636719.1875 1 0 .25-.042969.492188-.125.71875-.085938.230469-.199219.449219-.34375.65625-.148438.210938-.328125.40625-.546875.59375-.210937.1875-.449219.355469-.71875.5.320313.167969.609375.34375.859375.53125s.457031.390625.625.609375c.175781.21875.304688.453125.390625.703125.09375.242188.140625.5.140625.78125zm-2.265625-4.90625c0-.175781-.027344-.335938-.078125-.484375-.054688-.144531-.136719-.269531-.25-.375-.105469-.101563-.242188-.179687-.40625-.234375-.167969-.050781-.359375-.078125-.578125-.078125-.4375 0-.765625.105469-.984375.3125-.210938.199219-.3125.476563-.3125.828125 0 .167969.023438.324219.078125.46875.050781.136719.132813.265625.25.390625.113281.125.257813.25.4375.375.1875.117187.40625.242187.65625.375.382813-.226563.675781-.46875.875-.71875.207031-.257813.3125-.546875.3125-.859375zm.234375 5.046875c0-.1875-.03125-.359375-.09375-.515625-.0625-.164062-.167969-.316406-.3125-.453125-.136719-.144531-.308594-.28125-.515625-.40625-.210937-.132813-.449219-.269531-.71875-.40625-.242187.136719-.453125.273437-.640625.40625-.179688.125-.328125.261719-.453125.40625-.117187.136719-.203125.289063-.265625.453125-.0625.15625-.09375.324219-.09375.5 0 .40625.128906.71875.390625.9375.269531.210938.664063.3125 1.1875.3125.507813 0 .890625-.109375 1.140625-.328125s.375-.519531.375-.90625zm0 0"/></symbol><symbol id="Q" overflow="visible"><path d="m7.375-3.28125c0 .542969-.09375 1.03125-.28125 1.46875-.1875.429688-.460938.789062-.8125 1.078125-.34375.292969-.761719.523437-1.25.6875-.480469.15625-1.015625.234375-1.609375.234375-.3125 0-.609375-.023438-.890625-.0625-.28125-.0429688-.539062-.09375-.765625-.15625-.21875-.0625-.402344-.117188-.546875-.171875-.148438-.0625-.242188-.113281-.28125-.15625-.042969-.039063-.074219-.082031-.09375-.125-.023438-.050781-.042969-.109375-.0625-.171875-.011719-.0625-.023438-.140625-.03125-.234375 0-.101563 0-.222656 0-.359375 0-.144531.003906-.269531.015625-.375.007813-.101562.023437-.1875.046875-.25.03125-.0625.0625-.101562.09375-.125.03125-.03125.066406-.046875.109375-.046875.050781 0 .128906.03125.234375.09375.101562.0625.242188.132813.421875.203125.175781.074219.390625.140625.640625.203125.25.054687.546875.078125.890625.078125.300781 0 .578125-.03125.828125-.09375s.457031-.160156.625-.296875c.175781-.132813.3125-.304687.40625-.515625.09375-.207031.140625-.457031.140625-.75 0-.25-.042969-.472656-.125-.671875-.074219-.195313-.195313-.363281-.359375-.5-.167969-.132813-.386719-.234375-.65625-.296875-.261719-.070312-.585938-.109375-.96875-.109375-.304688 0-.578125.015625-.828125.046875-.242187.03125-.46875.046875-.6875.046875-.15625 0-.265625-.035156-.328125-.109375-.0625-.070312-.09375-.210938-.09375-.421875v-4.390625c0-.207031.035156-.351562.109375-.4375.082031-.09375.210937-.140625.390625-.140625h4.796875c.039063 0 .082031.015625.125.046875.039063.03125.078125.085938.109375.15625.03125.0625.050781.152344.0625.265625.007812.105469.015625.234375.015625.390625 0 .3125-.027344.542969-.078125.6875-.054688.136719-.132812.203125-.234375.203125h-3.59375v2.171875c.175781-.019531.351563-.03125.53125-.03125.1875-.007812.378906-.015625.578125-.015625.539062 0 1.023438.0625 1.453125.1875.425781.125.78125.3125 1.0625.5625.289063.25.507813.558594.65625.921875.15625.367188.234375.792969.234375 1.28125zm0 0"/></symbol><symbol id="R" overflow="visible"><path d="m7.421875-2.96875c0 .511719-.101563.964844-.296875 1.359375-.1875.386719-.453125.714844-.796875.984375-.34375.261719-.757813.464844-1.234375.609375-.480469.132813-1 .203125-1.5625.203125-.34375 0-.667969-.027344-.96875-.078125-.304688-.0546875-.574219-.11328125-.8125-.1875-.230469-.070313-.421875-.144531-.578125-.21875-.148437-.082031-.246094-.144531-.296875-.1875-.042969-.039063-.074219-.085937-.09375-.140625-.023438-.050781-.042969-.113281-.0625-.1875-.023438-.070312-.039062-.160156-.046875-.265625 0-.101563 0-.234375 0-.390625 0-.25.019531-.421875.0625-.515625.039063-.09375.101563-.140625.1875-.140625.050781 0 .140625.039062.265625.109375.125.0625.285156.136719.484375.21875.195313.085937.425781.164063.6875.234375.269531.0625.578125.09375.921875.09375.28125 0 .53125-.03125.75-.09375.21875-.070312.40625-.164062.5625-.28125.15625-.125.269531-.273438.34375-.453125.070312-.175781.109375-.367187.109375-.578125 0-.238281-.046875-.453125-.140625-.640625-.085938-.1875-.21875-.34375-.40625-.46875-.179688-.132813-.402344-.238281-.671875-.3125-.273437-.070313-.59375-.109375-.96875-.109375h-.875c-.0625 0-.121094-.007812-.171875-.03125-.042969-.019531-.078125-.054688-.109375-.109375-.03125-.0625-.058594-.140625-.078125-.234375-.011719-.101562-.015625-.238281-.015625-.40625 0-.144531.003906-.265625.015625-.359375.019531-.101563.039062-.179687.0625-.234375.03125-.050781.066406-.085938.109375-.109375.050781-.019531.109375-.03125.171875-.03125h.875c.300781 0 .566406-.03125.796875-.09375.238281-.070313.4375-.171875.59375-.296875.164063-.132812.289063-.296875.375-.484375.082031-.1875.125-.390625.125-.609375 0-.175781-.03125-.335938-.09375-.484375-.054687-.15625-.136719-.289063-.25-.40625-.117187-.113281-.261719-.203125-.4375-.265625-.179687-.0625-.386719-.09375-.625-.09375-.273437 0-.527344.042969-.765625.125-.242188.074219-.453125.164062-.640625.265625-.1875.09375-.351563.183594-.484375.265625-.136719.085938-.234375.125-.296875.125-.042969 0-.078125-.007812-.109375-.03125-.03125-.019531-.058594-.054688-.078125-.109375-.023437-.050781-.039063-.125-.046875-.21875-.011719-.101563-.015625-.234375-.015625-.390625 0-.125 0-.226562 0-.3125.007813-.09375.019531-.164062.03125-.21875.019531-.0625.039063-.113281.0625-.15625.03125-.039062.070313-.082031.125-.125.050781-.050781.15625-.125.3125-.21875.164063-.101562.367187-.203125.609375-.296875.25-.09375.53125-.171875.84375-.234375.320312-.070312.671875-.109375 1.046875-.109375.488281 0 .921875.058594 1.296875.171875.382812.117188.703125.28125.953125.5.257813.21875.457031.484375.59375.796875.132813.3125.203125.667969.203125 1.0625 0 .3125-.042969.605469-.125.875-.074219.261719-.1875.496094-.34375.703125-.148438.210938-.335938.386719-.5625.53125-.230469.148438-.492188.257812-.78125.328125v.015625c.351562.042969.671875.136719.953125.28125.28125.136719.515625.308594.703125.515625.195312.210937.347656.445313.453125.703125.101563.261719.15625.542969.15625.84375zm0 0"/></symbol><symbol id="S" overflow="visible"><path d="m7.46875-.84375c0 .15625-.007812.289062-.015625.390625-.011719.105469-.03125.195313-.0625.265625-.023437.0625-.054687.109375-.09375.140625-.042969.03125-.089844.046875-.140625.046875h-5.8125c-.117188 0-.214844-.0078125-.296875-.03125-.085937-.0195312-.152344-.0625-.203125-.125-.054688-.0625-.09375-.148438-.125-.265625-.023438-.113281-.03125-.257813-.03125-.4375 0-.175781.003906-.320313.015625-.4375.019531-.125.050781-.234375.09375-.328125.039063-.101562.09375-.195312.15625-.28125.070313-.09375.160156-.195312.265625-.3125l1.75-1.875c.34375-.363281.617188-.691406.828125-.984375.21875-.300781.382813-.578125.5-.828125.125-.25.207031-.476562.25-.6875.050781-.207031.078125-.40625.078125-.59375 0-.164062-.03125-.328125-.09375-.484375-.054688-.15625-.132812-.289063-.234375-.40625-.105469-.113281-.242187-.203125-.40625-.265625-.15625-.0625-.34375-.09375-.5625-.09375-.3125 0-.589844.042969-.828125.125-.230469.074219-.4375.15625-.625.25-.179688.09375-.328125.183594-.453125.265625-.117187.085937-.203125.125-.265625.125-.054688 0-.09375-.015625-.125-.046875s-.058594-.082031-.078125-.15625c-.023437-.070312-.042969-.171875-.0625-.296875-.011719-.125-.015625-.273437-.015625-.453125 0-.113281.003906-.210938.015625-.296875.007813-.082031.019531-.148437.03125-.203125.019531-.0625.039063-.113281.0625-.15625.03125-.050781.078125-.109375.140625-.171875s.179688-.140625.359375-.234375c.175781-.09375.390625-.1875.640625-.28125.257812-.09375.539062-.171875.84375-.234375.3125-.0625.632812-.09375.96875-.09375.519531 0 .976562.070313 1.375.203125.394531.136719.722656.324219.984375.5625.257813.230469.453125.511719.578125.84375.125.324219.1875.671875.1875 1.046875 0 .324219-.03125.648437-.09375.96875-.0625.3125-.195312.65625-.390625 1.03125-.199219.367187-.480469.773437-.84375 1.21875-.355469.4375-.828125.953125-1.421875 1.546875l-1.171875 1.203125h3.984375c.050781 0 .097656.015625.140625.046875.039063.03125.078125.085938.109375.15625.03125.0625.050781.148438.0625.25.019531.105469.03125.230469.03125.375zm0 0"/></symbol><symbol id="T" overflow="visible"><path d="m7.46875-9.25c0 .15625-.007812.292969-.015625.40625-.011719.105469-.027344.210938-.046875.3125-.023438.09375-.046875.183594-.078125.265625-.03125.085937-.070313.179687-.109375.28125l-3.328125 7.703125c-.03125.074219-.074219.132812-.125.171875-.042969.0429688-.109375.078125-.203125.109375-.085938.0195312-.199219.03125-.34375.03125-.136719.0078125-.304688.015625-.5.015625-.28125 0-.507812-.0117188-.671875-.03125-.15625-.01953125-.273437-.046875-.34375-.078125-.074219-.039062-.117187-.09375-.125-.15625 0-.0625.019531-.132812.0625-.21875l3.578125-7.890625h-4.25c-.117188 0-.199219-.070313-.25-.21875-.054688-.144531-.078125-.375-.078125-.6875 0-.15625.003906-.285156.015625-.390625.019531-.113281.039062-.207031.0625-.28125.03125-.070312.066406-.125.109375-.15625.039063-.03125.085937-.046875.140625-.046875h6c.09375 0 .171875.011719.234375.03125.0625.011719.109375.046875.140625.109375.039062.0625.070312.152344.09375.265625.019531.117187.03125.265625.03125.453125zm0 0"/></symbol><symbol id="U" overflow="visible"><path d="m8.03125-7.046875c0 .574219-.089844 1.078125-.265625 1.515625-.179687.4375-.4375.808594-.78125 1.109375-.335937.292969-.75.515625-1.25.671875-.492187.15625-1.070313.234375-1.734375.234375h-.84375v3.234375c0 .054688-.015625.101562-.046875.140625-.03125.0429688-.089844.078125-.171875.109375-.074219.0234375-.179688.03515625-.3125.046875-.125.0195312-.292969.03125-.5.03125-.199219 0-.367188-.0117188-.5-.03125-.125-.01171875-.230469-.0234375-.3125-.046875-.074219-.03125-.125-.0664062-.15625-.109375-.03125-.039063-.046875-.085937-.046875-.140625v-9.09375c0-.25.0625-.429688.1875-.546875.125-.125.289063-.1875.5-.1875h2.390625c.238281 0 .460938.011719.671875.03125.21875.011719.476563.046875.78125.109375.300781.0625.609375.179688.921875.34375.3125.15625.578125.359375.796875.609375.21875.242187.382813.527344.5.859375.113281.335938.171875.703125.171875 1.109375zm-2.15625.15625c0-.351563-.0625-.644531-.1875-.875-.125-.226563-.28125-.394531-.46875-.5-.179688-.113281-.367188-.1875-.5625-.21875-.199219-.03125-.40625-.046875-.625-.046875h-.875v3.4375h.921875c.332031 0 .609375-.039062.828125-.125.21875-.09375.394531-.21875.53125-.375.144531-.164062.253906-.359375.328125-.578125.070313-.21875.109375-.457031.109375-.71875zm0 0"/></symbol><symbol id="V" overflow="visible"><path d="m7.09375-3.03125c0 .53125-.101562 1-.296875 1.40625-.199219.398438-.46875.730469-.8125 1-.335937.261719-.730469.464844-1.1875.609375-.449219.132813-.929687.203125-1.4375.203125-.355469 0-.683594-.03125-.984375-.09375-.292969-.0546875-.554688-.1171875-.78125-.203125-.230469-.082031-.421875-.164063-.578125-.25-.15625-.09375-.273437-.171875-.34375-.234375-.0625-.070312-.109375-.171875-.140625-.296875-.023438-.132813-.03125-.320313-.03125-.5625 0-.15625.003906-.285156.015625-.390625.007813-.113281.023437-.203125.046875-.265625.019531-.070313.050781-.125.09375-.15625.039062-.03125.085938-.046875.140625-.046875.070313 0 .171875.046875.296875.140625.132812.085937.304688.179687.515625.28125.207031.105469.457031.199219.75.28125.289063.085937.625.125 1 .125.25 0 .472656-.023437.671875-.078125.195312-.0625.363281-.144531.5-.25.144531-.113281.253906-.25.328125-.40625.070313-.164062.109375-.347656.109375-.546875 0-.226563-.0625-.425781-.1875-.59375-.125-.164063-.292969-.3125-.5-.4375-.199219-.125-.429688-.242187-.6875-.359375-.25-.113281-.511719-.234375-.78125-.359375-.273438-.125-.539062-.265625-.796875-.421875-.25-.15625-.476563-.34375-.671875-.5625-.199219-.226562-.359375-.492188-.484375-.796875-.125-.300781-.1875-.660156-.1875-1.078125 0-.488281.085937-.914062.265625-1.28125.175781-.363281.414062-.664062.71875-.90625.3125-.25.671875-.429688 1.078125-.546875.414063-.125.859375-.1875 1.328125-.1875.238281 0 .476562.023437.71875.0625.238281.03125.460938.078125.671875.140625.207031.0625.390625.136719.546875.21875.164062.074219.273438.136719.328125.1875.050781.054688.082031.101562.09375.140625.019531.03125.035156.078125.046875.140625.019531.0625.03125.140625.03125.234375.007812.085937.015625.195313.015625.328125 0 .15625-.007813.289062-.015625.390625-.011719.105469-.027344.195313-.046875.265625-.011719.0625-.039063.109375-.078125.140625-.03125.03125-.074219.046875-.125.046875-.0625 0-.15625-.035156-.28125-.109375-.125-.070313-.28125-.148437-.46875-.234375-.179688-.09375-.386719-.171875-.625-.234375-.242188-.070313-.5-.109375-.78125-.109375-.230469 0-.429688.027344-.59375.078125-.167969.054687-.308594.132813-.421875.234375-.105469.09375-.1875.210938-.25.34375-.054687.136719-.078125.277344-.078125.421875 0 .230469.0625.429687.1875.59375.125.15625.285156.304687.484375.4375.207031.125.441406.246094.703125.359375.257812.105469.523438.21875.796875.34375.269531.125.535156.273438.796875.4375.257812.15625.488281.34375.6875.5625.207031.21875.375.480469.5.78125.125.304688.1875.65625.1875 1.0625zm0 0"/></symbol><symbol id="W" overflow="visible"><path d="m8.03125-3.828125c0 .59375-.078125 1.136719-.234375 1.625-.15625.492187-.398437.914063-.71875 1.265625-.3125.355469-.710937.632812-1.1875.828125-.480469.1953125-1.039063.296875-1.671875.296875-.625 0-1.167969-.0898438-1.625-.265625-.460938-.175781-.839844-.425781-1.140625-.75-.304687-.332031-.527344-.738281-.671875-1.21875-.148438-.476563-.21875-1.023437-.21875-1.640625 0-.59375.078125-1.132812.234375-1.625.164063-.488281.40625-.910156.71875-1.265625.320313-.351563.71875-.625 1.1875-.8125.476563-.195313 1.039063-.296875 1.6875-.296875.625 0 1.164063.089844 1.625.265625.457031.167969.832031.417969 1.125.75.300781.324219.523437.726563.671875 1.203125.144531.480469.21875 1.027344.21875 1.640625zm-2.015625.078125c0-.34375-.03125-.65625-.09375-.9375-.054687-.289062-.148437-.539062-.28125-.75-.125-.21875-.296875-.382812-.515625-.5-.210938-.125-.480469-.1875-.8125-.1875-.292969 0-.546875.054688-.765625.15625-.21875.105469-.402344.261719-.546875.46875-.136719.210938-.242188.460938-.3125.75-.0625.28125-.09375.609375-.09375.984375 0 .34375.023438.664063.078125.953125.0625.28125.15625.53125.28125.75.125.210938.296875.375.515625.5.21875.117188.488281.171875.8125.171875.300781 0 .5625-.050781.78125-.15625.21875-.113281.394531-.269531.53125-.46875.144531-.207031.25-.453125.3125-.734375.070312-.289062.109375-.625.109375-1zm0 0"/></symbol><symbol id="X" overflow="visible"><path d="m8.09375-1.53125c0 .125-.007812.234375-.015625.328125 0 .09375-.011719.171875-.03125.234375-.011719.0625-.03125.121094-.0625.171875-.023437.042969-.0625.09375-.125.15625-.054687.0625-.164063.140625-.328125.234375-.167969.09375-.371094.183594-.609375.265625-.230469.0859375-.5.15625-.8125.21875-.304687.0625-.632813.09375-.984375.09375-.6875 0-1.3125-.109375-1.875-.328125-.554688-.21875-1.027344-.535156-1.421875-.953125-.386719-.425781-.683594-.957031-.890625-1.59375-.210938-.632813-.3125-1.375-.3125-2.21875 0-.863281.113281-1.628906.34375-2.296875.226562-.664062.546875-1.222656.953125-1.671875.414063-.457031.910156-.800781 1.484375-1.03125.570312-.238281 1.207031-.359375 1.90625-.359375.28125 0 .550781.027344.8125.078125.257812.042969.5.105469.71875.1875.21875.074219.414062.164063.59375.265625.175781.09375.300781.179688.375.25.070312.0625.117188.121094.140625.171875.03125.042969.050781.101563.0625.171875.019531.074219.03125.164062.03125.265625.007813.09375.015625.214844.015625.359375 0 .15625-.007812.292969-.015625.40625-.011719.105469-.03125.195312-.0625.265625-.023437.0625-.054687.109375-.09375.140625-.03125.03125-.070313.046875-.109375.046875-.085938 0-.1875-.039063-.3125-.125-.117188-.09375-.265625-.195313-.453125-.3125-.1875-.113281-.417969-.210937-.6875-.296875-.261719-.09375-.574219-.140625-.9375-.140625-.398437 0-.757813.085937-1.078125.25-.3125.15625-.578125.390625-.796875.703125-.21875.304688-.386719.671875-.5 1.109375-.117187.429687-.171875.914063-.171875 1.453125 0 .59375.054688 1.109375.171875 1.546875.125.429687.300781.78125.53125 1.0625.226563.28125.5.496094.8125.640625.320313.136719.6875.203125 1.09375.203125.363281 0 .675781-.039063.9375-.125.269531-.09375.5-.191406.6875-.296875.1875-.101562.34375-.195312.46875-.28125.125-.082031.21875-.125.28125-.125.050781 0 .09375.011719.125.03125.03125.023438.054687.0625.078125.125.019531.0625.035156.152344.046875.265625.007813.117187.015625.265625.015625.453125zm0 0"/></symbol><symbol id="Y" overflow="visible"/><symbol id="Z" overflow="visible"><path d="m1.96875 2.03125c-.023438.0625-.054688.113281-.09375.15625-.042969.039062-.105469.070312-.1875.09375-.074219.03125-.167969.050781-.28125.0625-.105469.019531-.246094.03125-.421875.03125-.210937 0-.382813-.011719-.515625-.03125-.136719-.023438-.242188-.054688-.3125-.09375-.0742188-.042969-.1171875-.101562-.125-.171875-.0117188-.0625 0-.136719.03125-.21875l4.671875-13.125c.019531-.070313.050781-.128906.09375-.171875.039063-.039062.097656-.070312.171875-.09375.070312-.03125.164062-.050781.28125-.0625.125-.019531.269531-.03125.4375-.03125.21875 0 .390625.011719.515625.03125.132813.023438.234375.054688.296875.09375.070312.042969.113281.101562.125.171875.007812.0625.003906.136719-.015625.21875zm0 0"/></symbol><symbol id="aa" overflow="visible"><path d="m7.625-3.375c0 .511719-.078125.984375-.234375 1.421875-.15625.429687-.386719.804687-.6875 1.125-.304687.3125-.679687.5625-1.125.75-.4375.1757812-.945313.265625-1.515625.265625-.46875 0-.882812-.058594-1.234375-.171875-.34375-.1015625-.648437-.253906-.90625-.453125-.25-.207031-.460937-.453125-.625-.734375-.15625-.289063-.289063-.613281-.390625-.96875-.09375-.363281-.164062-.753906-.203125-1.171875-.03125-.425781-.046875-.875-.046875-1.34375 0-.394531.019531-.804688.0625-1.234375.039062-.4375.113281-.863281.21875-1.28125.113281-.414063.269531-.8125.46875-1.1875.207031-.382813.472656-.71875.796875-1 .320313-.28125.707031-.503906 1.15625-.671875.457031-.164062 1-.25 1.625-.25.195313 0 .394531.011719.59375.03125.207031.023438.394531.054688.5625.09375.175781.03125.320313.074219.4375.125.125.042969.203125.085938.234375.125.039062.03125.070312.070312.09375.109375.019531.042969.035156.089844.046875.140625.019531.042969.03125.101562.03125.171875.007813.074219.015625.164063.015625.265625 0 .167969-.007812.304688-.015625.40625-.011719.105469-.027344.1875-.046875.25-.023438.0625-.054688.109375-.09375.140625-.03125.023437-.074219.03125-.125.03125-.0625 0-.148438-.015625-.25-.046875-.09375-.039062-.214844-.082031-.359375-.125-.136719-.039062-.296875-.078125-.484375-.109375s-.40625-.046875-.65625-.046875c-.429688 0-.789062.078125-1.078125.234375-.292969.15625-.53125.371094-.71875.640625-.179687.273438-.308594.585938-.390625.9375-.085938.355469-.125.730469-.125 1.125.113281-.070312.242188-.144531.390625-.21875.144531-.070312.304687-.132812.484375-.1875.175781-.050781.363281-.09375.5625-.125.207031-.039062.425781-.0625.65625-.0625.507812 0 .945312.074219 1.3125.21875.363281.136719.660156.335938.890625.59375.226563.261719.394531.578125.5.953125.113281.367187.171875.777344.171875 1.234375zm-2.015625.1875c0-.257812-.027344-.488281-.078125-.6875-.042969-.207031-.117188-.378906-.21875-.515625-.105469-.132813-.246094-.238281-.421875-.3125-.167969-.070313-.371094-.109375-.609375-.109375-.148438 0-.292969.015625-.4375.046875-.136719.023437-.273438.058594-.40625.109375-.136719.042969-.265625.101562-.390625.171875-.125.0625-.246094.132813-.359375.203125 0 .554688.03125 1.015625.09375 1.390625s.15625.671875.28125.890625.273438.375.453125.46875c.1875.085938.40625.125.65625.125.238281 0 .445313-.039062.625-.125.175781-.09375.320313-.21875.4375-.375.125-.164062.21875-.351562.28125-.5625.0625-.21875.09375-.457031.09375-.71875zm0 0"/></symbol><symbol id="ab" overflow="visible"><path d="m8.484375-.3125c0 .0625-.015625.117188-.046875.15625-.023438.042969-.074219.078125-.15625.109375-.085938.03125-.199219.05078125-.34375.0625-.136719.0195312-.308594.03125-.515625.03125-.34375 0-.589844-.015625-.734375-.046875-.148438-.0195312-.257812-.0546875-.328125-.109375-.0625-.050781-.109375-.113281-.140625-.1875l-3.0625-4.796875v4.796875c0 .054687-.015625.101563-.046875.140625-.03125.042969-.089844.078125-.171875.109375-.074219.03125-.179688.05078125-.3125.0625-.125.0195312-.289062.03125-.484375.03125-.199219 0-.367187-.0117188-.5-.03125-.136719-.01171875-.246094-.03125-.328125-.0625-.074219-.03125-.125-.066406-.15625-.109375-.03125-.039062-.046875-.085938-.046875-.140625v-9.53125c0-.050781.015625-.097656.046875-.140625.03125-.039062.082031-.070312.15625-.09375.082031-.03125.191406-.050781.328125-.0625.132813-.019531.300781-.03125.5-.03125.195313 0 .359375.011719.484375.03125.132812.011719.238281.03125.3125.0625.082031.023438.140625.054688.171875.09375.03125.042969.046875.089844.046875.140625v4.3125l2.96875-4.296875c.03125-.070312.070312-.128906.125-.171875.050781-.039063.117188-.070313.203125-.09375.082031-.03125.1875-.050781.3125-.0625.132813-.007813.304687-.015625.515625-.015625.207031 0 .378906.011719.515625.03125.132813.011719.238281.03125.3125.0625.082031.023438.140625.054688.171875.09375.03125.042969.046875.089844.046875.140625 0 .09375-.027344.1875-.078125.28125-.042969.09375-.125.242187-.25.4375l-2.78125 3.640625 3.03125 4.5625c.113281.21875.179688.367188.203125.4375.019531.0625.03125.117188.03125.15625zm0 0"/></symbol><symbol id="ac" overflow="visible"><path d="m11.75-.53125c-.03125.125-.078125.230469-.140625.3125-.054687.074219-.136719.1328125-.25.171875-.105469.04296875-.246094.0664062-.421875.078125-.167969.0078125-.382812.015625-.640625.015625-.304687 0-.542969-.0078125-.71875-.015625-.179687-.0117188-.320313-.03515625-.421875-.078125-.105469-.0390625-.183594-.097656-.234375-.171875-.042969-.082031-.078125-.1875-.109375-.3125l-1.609375-6.40625h-.015625l-1.53125 6.40625c-.03125.125-.074219.226562-.125.296875-.042969.074219-.117188.1367188-.21875.1875-.09375.04296875-.230469.0664062-.40625.078125-.179688.0078125-.40625.015625-.6875.015625-.304688 0-.546875-.0078125-.734375-.015625-.179687-.0117188-.320313-.03515625-.421875-.078125-.105469-.0390625-.183594-.097656-.234375-.171875-.042969-.082031-.078125-.1875-.109375-.3125l-2.296875-8.8125c-.042969-.1875-.070313-.332031-.078125-.4375 0-.113281.03125-.195312.09375-.25.0625-.0625.164062-.097656.3125-.109375.15625-.007813.363281-.015625.625-.015625.25 0 .441406.007812.578125.015625.144531 0 .253906.015625.328125.046875.070312.03125.117188.074219.140625.125.03125.054688.054687.132812.078125.234375l1.765625 7.734375h.015625l1.84375-7.6875c.019531-.09375.046875-.171875.078125-.234375s.085937-.109375.171875-.140625c.082031-.039062.191406-.066406.328125-.078125.144531-.007813.332031-.015625.5625-.015625.25 0 .445313.007812.59375.015625.15625.011719.269531.03125.34375.0625.082031.03125.140625.078125.171875.140625.039062.0625.070312.148438.09375.25l1.90625 7.6875h.015625l1.78125-7.71875c.007813-.082031.023437-.148438.046875-.203125.03125-.0625.082031-.109375.15625-.140625.070312-.039062.175781-.066406.3125-.078125.132812-.007813.328125-.015625.578125-.015625.226563 0 .40625.007812.53125.015625.125.011719.210937.046875.265625.109375.0625.054688.085938.136719.078125.25 0 .117188-.027344.265625-.078125.453125zm0 0"/></symbol><symbol id="ad" overflow="visible"><path d="m7.3125-.8125c0 .148438-.007812.273438-.015625.375-.011719.105469-.03125.195312-.0625.265625-.023437.0625-.054687.109375-.09375.140625-.042969.0234375-.085937.03125-.125.03125h-5.96875c-.210937 0-.371094-.0546875-.484375-.171875-.105469-.125-.15625-.300781-.15625-.53125v-.34375c0-.101563.003906-.195313.015625-.28125.007813-.09375.03125-.179687.0625-.265625.03125-.09375.078125-.191406.140625-.296875.0625-.101563.132812-.226563.21875-.375l3.921875-6.21875h-3.890625c-.0625 0-.117188-.007813-.15625-.03125-.042969-.03125-.078125-.078125-.109375-.140625s-.054687-.144531-.0625-.25c-.011719-.101562-.015625-.226562-.015625-.375 0-.15625.003906-.285156.015625-.390625.007813-.113281.03125-.203125.0625-.265625s.066406-.101562.109375-.125c.039062-.03125.09375-.046875.15625-.046875h5.59375c.207031 0 .363281.058594.46875.171875.101562.105469.15625.257812.15625.453125v.375c0 .148437-.011719.273437-.03125.375-.011719.09375-.03125.195313-.0625.296875-.03125.09375-.078125.195312-.140625.296875-.054687.09375-.125.214844-.21875.359375l-3.859375 6.125h4.234375c.09375 0 .164063.0625.21875.1875.050781.125.078125.34375.078125.65625zm0 0"/></symbol><symbol id="ae" overflow="visible"><path d="m8.421875-3.03125c0 .355469-.054687.679688-.15625.96875-.09375.292969-.230469.554688-.40625.78125-.167969.21875-.375.414062-.625.578125-.242187.15625-.507813.289063-.796875.390625-.292969.105469-.605469.183594-.9375.234375-.324219.0546875-.6875.078125-1.09375.078125h-2.6875c-.179688 0-.324219-.0507812-.4375-.15625-.117188-.101562-.171875-.269531-.171875-.5v-8.8125c0-.226562.054687-.390625.171875-.484375.113281-.101563.257812-.15625.4375-.15625h2.53125c.625 0 1.148438.054687 1.578125.15625.425781.105469.785156.261719 1.078125.46875.300781.210937.53125.476563.6875.796875.15625.324219.234375.703125.234375 1.140625 0 .25-.03125.484375-.09375.703125-.0625.210938-.15625.402344-.28125.578125-.117187.179687-.261719.335937-.4375.46875-.179687.136719-.375.246094-.59375.328125.28125.054688.539063.148438.78125.28125.25.125.460937.292969.640625.5.175781.210938.316406.453125.421875.734375.101563.273437.15625.578125.15625.921875zm-2.65625-4.265625c0-.195313-.03125-.375-.09375-.53125-.0625-.164063-.15625-.300781-.28125-.40625-.125-.113281-.28125-.195313-.46875-.25-.1875-.0625-.445313-.09375-.765625-.09375h-1.03125v2.625h1.140625c.300781 0 .539063-.03125.71875-.09375.175781-.070313.320313-.171875.4375-.296875.113281-.125.195313-.265625.25-.421875.0625-.164063.09375-.34375.09375-.53125zm.53125 4.328125c0-.226562-.042969-.4375-.125-.625-.074219-.1875-.1875-.34375-.34375-.46875-.148437-.125-.339844-.21875-.578125-.28125-.230469-.070312-.53125-.109375-.90625-.109375h-1.21875v2.875h1.484375c.28125 0 .519531-.023437.71875-.078125.195313-.0625.363281-.148438.5-.265625.144531-.125.257813-.269531.34375-.4375.082031-.175781.125-.378906.125-.609375zm0 0"/></symbol><symbol id="af" overflow="visible"><path d="m2.953125-.265625c0 .054687-.015625.101563-.046875.140625-.03125.03125-.085938.0625-.15625.09375-.074219.03125-.171875.0507812-.296875.0625-.125.0078125-.289063.015625-.484375.015625-.1875 0-.34375-.0078125-.46875-.015625-.125-.0117188-.230469-.03125-.3125-.0625-.074219-.03125-.125-.0625-.15625-.09375-.03125-.039062-.046875-.085938-.046875-.140625v-10.28125c0-.050781.015625-.097656.046875-.140625.03125-.039062.082031-.070312.15625-.09375.082031-.03125.1875-.050781.3125-.0625.125-.019531.28125-.03125.46875-.03125.195312 0 .359375.011719.484375.03125.125.011719.222656.03125.296875.0625.070312.023438.125.054688.15625.09375.03125.042969.046875.089844.046875.140625zm0 0"/></symbol><symbol id="ag" overflow="visible"><path d="m7.59375-.265625c0 .054687-.015625.101563-.046875.140625-.023437.03125-.0625.0625-.125.09375s-.152344.0507812-.265625.0625c-.105469.0078125-.234375.015625-.390625.015625-.179687 0-.320313-.0078125-.421875-.015625-.105469-.0117188-.1875-.03125-.25-.0625s-.109375-.0625-.140625-.09375c-.023437-.039062-.03125-.085938-.03125-.140625v-.8125c-.386719.417969-.78125.734375-1.1875.953125-.398437.2070312-.808594.3125-1.234375.3125-.480469 0-.882812-.078125-1.203125-.234375-.324219-.164063-.589844-.382813-.796875-.65625-.199219-.269531-.339844-.582031-.421875-.9375-.085937-.351563-.125-.796875-.125-1.328125v-4.265625c0-.050781.007813-.097656.03125-.140625.03125-.039062.082031-.070312.15625-.09375.082031-.03125.1875-.050781.3125-.0625.125-.007812.28125-.015625.46875-.015625.195313 0 .359375.007813.484375.015625.125.011719.222656.03125.296875.0625.070313.023438.125.054688.15625.09375.03125.042969.046875.089844.046875.140625v3.9375c0 .367187.019531.648437.0625.84375.050781.1875.125.351563.21875.484375.101562.136719.226562.246094.375.328125.144531.074219.316406.109375.515625.109375.25 0 .5-.085938.75-.265625.257813-.1875.53125-.457031.8125-.8125v-4.625c0-.050781.015625-.097656.046875-.140625.03125-.039062.082031-.070312.15625-.09375.070312-.03125.171875-.050781.296875-.0625.125-.007812.285156-.015625.484375-.015625.1875 0 .34375.007813.46875.015625.125.011719.222656.03125.296875.0625.070313.023438.125.054688.15625.09375.03125.042969.046875.089844.046875.140625zm0 0"/></symbol><symbol id="ah" overflow="visible"><path d="m7.421875-3.953125c0 .242187-.054687.417969-.15625.53125-.105469.117187-.25.171875-.4375.171875h-4.25c0 .292969.035156.5625.109375.8125.070312.242188.179688.445312.328125.609375.15625.167969.351563.296875.59375.390625.25.085938.539063.125.875.125.34375 0 .644531-.019531.90625-.0625.257813-.050781.484375-.109375.671875-.171875.195312-.0625.359375-.113281.484375-.15625.125-.050781.222656-.078125.296875-.078125.050781 0 .09375.011719.125.03125.03125.011719.054688.042969.078125.09375.019531.042969.03125.109375.03125.203125.007813.085937.015625.1875.015625.3125 0 .117187-.007812.214844-.015625.296875 0 .085938-.007813.15625-.015625.21875-.011719.054688-.027344.101562-.046875.140625-.023437.03125-.046875.070313-.078125.109375-.03125.03125-.125.078125-.28125.140625-.148438.0625-.339844.125-.578125.1875-.230469.0625-.496094.1132812-.796875.15625-.304688.050781-.625.078125-.96875.078125-.625 0-1.171875-.078125-1.640625-.234375-.460937-.164063-.84375-.40625-1.15625-.71875-.3125-.320313-.546875-.722656-.703125-1.203125-.15625-.488281-.234375-1.054688-.234375-1.703125 0-.625.078125-1.179687.234375-1.671875.164062-.5.398438-.921875.703125-1.265625.3125-.351563.6875-.617187 1.125-.796875.445313-.1875.945313-.28125 1.5-.28125.582031 0 1.078125.089844 1.484375.265625.414062.167969.753906.40625 1.015625.71875.269531.304687.46875.664063.59375 1.078125.125.417969.1875.871094.1875 1.359375zm-1.90625-.5625c.019531-.550781-.089844-.984375-.328125-1.296875-.242188-.320312-.605469-.484375-1.09375-.484375-.25 0-.46875.046875-.65625.140625s-.34375.226562-.46875.390625c-.117188.15625-.210938.34375-.28125.5625-.0625.210937-.101562.4375-.109375.6875zm0 0"/></symbol><symbol id="ai" overflow="visible"><path d="m9.4375-.71875c0 .117188-.023438.21875-.0625.3125-.042969.09375-.101562.171875-.171875.234375-.0625.0625-.148437.109375-.25.140625-.09375.03125-.1875.046875-.28125.046875h-.875c-.1875 0-.351563-.015625-.484375-.046875-.125-.0390625-.246094-.109375-.359375-.203125-.117187-.101563-.226563-.234375-.328125-.390625-.105469-.164062-.21875-.378906-.34375-.640625l-2.515625-4.734375c-.148437-.28125-.296875-.582031-.453125-.90625-.148438-.320312-.28125-.640625-.40625-.953125h-.015625c.019531.375.035156.75.046875 1.125.007812.375.015625.761719.015625 1.15625v5.28125c0 .054687-.015625.101563-.046875.140625-.023438.042969-.070312.078125-.140625.109375-.074219.03125-.171875.05078125-.296875.0625-.117188.0195312-.265625.03125-.453125.03125-.179687 0-.328125-.0117188-.453125-.03125-.117188-.01171875-.210938-.03125-.28125-.0625-.0625-.03125-.109375-.066406-.140625-.109375-.023437-.039062-.03125-.085938-.03125-.140625v-9.078125c0-.25.066406-.429688.203125-.546875.144531-.125.320312-.1875.53125-.1875h1.109375c.195313 0 .363281.015625.5.046875.132813.03125.253906.089844.359375.171875.101562.074219.203125.183594.296875.328125.09375.136719.191406.304688.296875.5l1.96875 3.703125c.113281.21875.222656.4375.328125.65625.113281.21875.222656.4375.328125.65625.101562.210937.203125.417969.296875.625.101563.210937.203125.417969.296875.625h.015625c-.023437-.363281-.039063-.742187-.046875-1.140625 0-.394531 0-.769531 0-1.125v-4.75c0-.050781.015625-.097656.046875-.140625.03125-.039063.082031-.078125.15625-.109375.070313-.03125.164063-.050781.28125-.0625.125-.007812.28125-.015625.46875-.015625.175781 0 .320313.007813.4375.015625.125.011719.21875.03125.28125.0625s.101563.070312.125.109375c.03125.042969.046875.089844.046875.140625zm0 0"/></symbol><symbol id="aj" overflow="visible"><path d="m8.609375-.265625c0 .054687-.011719.101563-.03125.140625-.023437.0429688-.074219.078125-.15625.109375-.074219.01953125-.1875.0351562-.34375.046875-.148437.0078125-.351563.015625-.609375.015625-.21875 0-.398438-.0078125-.53125-.015625-.125-.0117188-.230469-.03125-.3125-.0625-.074219-.03125-.125-.0664062-.15625-.109375-.03125-.039063-.058594-.09375-.078125-.15625l-.90625-2.265625c-.105469-.25-.210937-.472656-.3125-.671875-.105469-.195313-.226563-.363281-.359375-.5-.125-.132813-.273438-.234375-.4375-.296875-.167969-.070312-.359375-.109375-.578125-.109375h-.640625v3.859375c0 .054688-.015625.101562-.046875.140625-.03125.0429688-.089844.078125-.171875.109375-.074219.0234375-.179688.03515625-.3125.046875-.125.0195312-.292969.03125-.5.03125-.199219 0-.367188-.0117188-.5-.03125-.125-.01171875-.230469-.0234375-.3125-.046875-.074219-.03125-.125-.0664062-.15625-.109375-.03125-.039063-.046875-.085937-.046875-.140625v-9.1875c0-.226562.054687-.390625.171875-.484375.113281-.101563.257812-.15625.4375-.15625h2.609375c.269531 0 .488281.007813.65625.015625.175781.011719.332031.023438.46875.03125.40625.0625.769531.167969 1.09375.3125.332031.136719.609375.320312.828125.546875.226562.21875.398438.484375.515625.796875.125.3125.1875.667969.1875 1.0625 0 .34375-.042969.65625-.125.9375-.085937.273438-.210937.515625-.375.734375-.167969.21875-.375.414063-.625.578125-.242187.15625-.515625.289062-.828125.390625.144531.074219.285156.164063.421875.265625.132813.105469.257813.230469.375.375.113281.148438.222656.320312.328125.515625.101562.1875.207031.402344.3125.640625l.84375 1.984375c.082031.199219.132812.34375.15625.4375.03125.09375.046875.167969.046875.21875zm-2.65625-6.859375c0-.332031-.078125-.613281-.234375-.84375-.148438-.226562-.390625-.390625-.734375-.484375-.105469-.03125-.226563-.050781-.359375-.0625-.125-.019531-.308594-.03125-.546875-.03125h-.921875v2.875h1.046875c.289063 0 .546875-.035156.765625-.109375.21875-.070312.398438-.171875.546875-.296875.144531-.125.253906-.273437.328125-.453125.070312-.175781.109375-.375.109375-.59375zm0 0"/></symbol><symbol id="ak" overflow="visible"><path d="m9.21875-8.546875c0 .15625-.011719.292969-.03125.40625-.011719.105469-.027344.1875-.046875.25-.023437.0625-.054687.109375-.09375.140625-.03125.023438-.070313.03125-.109375.03125-.074219 0-.1875-.046875-.34375-.140625-.148438-.09375-.34375-.191406-.59375-.296875-.25-.113281-.546875-.21875-.890625-.3125s-.746094-.140625-1.203125-.140625c-.492188 0-.933594.089844-1.328125.265625-.398437.167969-.734375.40625-1.015625.71875-.28125.304688-.5.671875-.65625 1.109375-.148438.4375-.21875.917969-.21875 1.4375 0 .585937.070312 1.09375.21875 1.53125.15625.4375.367188.808594.640625 1.109375.28125.292969.613281.515625 1 .671875.394531.148437.828125.21875 1.296875.21875.226562 0 .453125-.023437.671875-.078125.226563-.050781.4375-.128906.625-.234375v-2.34375h-1.90625c-.09375 0-.167969-.054687-.21875-.171875-.054687-.113281-.078125-.3125-.078125-.59375 0-.144531.003906-.265625.015625-.359375.007813-.101563.023437-.1875.046875-.25.03125-.0625.0625-.101563.09375-.125.039062-.03125.085938-.046875.140625-.046875h3.40625c.082031 0 .15625.015625.21875.046875.070313.023437.128906.0625.171875.125.050781.054687.085938.121094.109375.203125.03125.085938.046875.179688.046875.28125v4.015625c0 .15625-.027344.296875-.078125.421875-.054687.117188-.167969.210938-.34375.28125-.167969.0625-.375.132812-.625.203125-.25.0742188-.511719.1367188-.78125.1875-.261719.0507812-.53125.085937-.8125.109375-.273437.03125-.542969.046875-.8125.046875-.8125 0-1.539063-.1171875-2.171875-.34375-.636719-.238281-1.179688-.578125-1.625-1.015625-.4375-.4375-.777344-.972656-1.015625-1.609375-.230469-.632813-.34375-1.351563-.34375-2.15625 0-.820313.125-1.5625.375-2.21875.25-.664063.601563-1.226563 1.0625-1.6875.457031-.457031 1.007813-.804687 1.65625-1.046875.644531-.25 1.367187-.375 2.171875-.375.4375 0 .832031.03125 1.1875.09375.363281.054688.675781.125.9375.21875.269531.085938.492188.179688.671875.28125.175781.09375.300781.179688.375.25.070313.074219.125.179688.15625.3125.03125.125.046875.320312.046875.578125zm0 0"/></symbol><symbol id="al" overflow="visible"><path d="m4.4375-3.9375c0 .304688-.03125.515625-.09375.640625-.054688.117187-.140625.171875-.265625.171875h-3.25c-.125 0-.21875-.054688-.28125-.171875-.054687-.125-.078125-.335937-.078125-.640625 0-.289062.023438-.492188.078125-.609375.0625-.125.15625-.1875.28125-.1875h3.25c.0625 0 .113281.015625.15625.046875.050781.023438.09375.0625.125.125s.050781.148438.0625.25c.007813.105469.015625.230469.015625.375zm0 0"/></symbol><symbol id="am" overflow="visible"><path d="m9.390625-.765625c.0625.1875.097656.339844.109375.453125.019531.105469 0 .1875-.0625.25-.054688.0546875-.152344.0820312-.296875.09375-.148437.0078125-.351563.015625-.609375.015625-.261719 0-.46875-.0078125-.625-.015625-.148438 0-.261719-.0117188-.34375-.03125-.074219-.03125-.125-.0664062-.15625-.109375-.03125-.039063-.058594-.097656-.078125-.171875l-.671875-2.03125h-3.796875l-.640625 1.984375c-.023438.074219-.054688.136719-.09375.1875-.03125.0429688-.085938.078125-.15625.109375-.074219.03125-.183594.0507812-.328125.0625-.136719.0078125-.3125.015625-.53125.015625-.242187 0-.429687-.0117188-.5625-.03125-.136719-.01171875-.230469-.046875-.28125-.109375-.054687-.0625-.074219-.144531-.0625-.25.019531-.113281.0625-.257812.125-.4375l3.109375-8.96875c.03125-.09375.066406-.164062.109375-.21875.039063-.050781.109375-.09375.203125-.125s.21875-.046875.375-.046875c.164062-.007813.378906-.015625.640625-.015625.3125 0 .554687.007812.734375.015625.1875 0 .328125.015625.421875.046875.101563.03125.175781.078125.21875.140625.050781.054687.09375.125.125.21875zm-4.640625-7.421875h-.015625l-1.421875 4.296875h2.859375zm0 0"/></symbol><symbol id="an" overflow="visible"><path d="m7.828125-9.265625c0 .148437-.007813.277344-.015625.390625-.011719.105469-.03125.1875-.0625.25-.023438.0625-.054688.109375-.09375.140625-.042969.03125-.085938.046875-.125.046875h-2.53125v8.15625c0 .054688-.023438.101562-.0625.140625-.03125.0429688-.089844.078125-.171875.109375-.074219.0234375-.179687.03515625-.3125.046875-.125.0195312-.289063.03125-.484375.03125-.199219 0-.367188-.0117188-.5-.03125-.136719-.01171875-.246094-.0234375-.328125-.046875-.074219-.03125-.125-.0664062-.15625-.109375-.03125-.039063-.046875-.085937-.046875-.140625v-8.15625h-2.53125c-.054688 0-.101562-.015625-.140625-.046875-.03125-.03125-.0625-.078125-.09375-.140625-.023437-.0625-.042969-.144531-.0625-.25-.0117188-.113281-.015625-.242188-.015625-.390625 0-.15625.0039062-.285156.015625-.390625.019531-.113281.039063-.203125.0625-.265625.03125-.070313.0625-.117187.09375-.140625.039063-.03125.085937-.046875.140625-.046875h7.125c.039062 0 .082031.015625.125.046875.039062.023438.070312.070312.09375.140625.03125.0625.050781.152344.0625.265625.007812.105469.015625.234375.015625.390625zm0 0"/></symbol><symbol id="ao" overflow="visible"><path d="m12.890625-.28125c0 .054688-.015625.101562-.046875.140625-.03125.0429688-.085938.078125-.15625.109375-.074219.0234375-.171875.03515625-.296875.046875-.125.0195312-.289063.03125-.484375.03125-.1875 0-.34375-.0117188-.46875-.03125-.125-.01171875-.226562-.0234375-.296875-.046875-.074219-.03125-.125-.0664062-.15625-.109375-.03125-.039063-.046875-.085937-.046875-.140625v-8.234375h-.015625l-2.921875 8.21875c-.023438.074219-.058594.132813-.109375.171875-.042969.0429688-.105469.078125-.1875.109375-.085937.03125-.1875.046875-.3125.046875-.125.0078125-.277344.015625-.453125.015625-.179688 0-.328125-.0078125-.453125-.015625-.125-.0117188-.230469-.03125-.3125-.0625-.074219-.03125-.136719-.0664062-.1875-.109375-.042969-.039063-.074219-.09375-.09375-.15625l-2.828125-8.21875h-.015625v8.234375c0 .054688-.015625.101562-.046875.140625-.023438.0429688-.074219.078125-.15625.109375-.074219.0234375-.171875.03515625-.296875.046875-.125.0195312-.28125.03125-.46875.03125s-.34375-.0117188-.46875-.03125c-.125-.01171875-.230469-.0234375-.3125-.046875-.074219-.03125-.125-.0664062-.15625-.109375-.023437-.039063-.03125-.085937-.03125-.140625v-9.015625c0-.257813.066406-.457031.203125-.59375.144531-.144531.332031-.21875.5625-.21875h1.34375c.238281 0 .441406.023437.609375.0625.175781.03125.328125.09375.453125.1875s.226562.214844.3125.359375c.082031.148438.15625.328125.21875.546875l2.1875 6.03125h.03125l2.265625-6.015625c.070313-.21875.144531-.398438.21875-.546875.082031-.15625.175781-.28125.28125-.375.113281-.09375.242187-.15625.390625-.1875.144531-.039063.3125-.0625.5-.0625h1.390625c.132813 0 .253906.023437.359375.0625.101562.03125.1875.085937.25.15625.0625.0625.109375.148437.140625.25.039063.105469.0625.21875.0625.34375zm0 0"/></symbol><symbol id="ap" overflow="visible"><path d="m6.65625-.859375c0 .15625-.007812.289063-.015625.390625-.011719.105469-.03125.195312-.0625.265625-.023437.074219-.054687.125-.09375.15625-.042969.03125-.089844.046875-.140625.046875h-4.625c-.179688 0-.324219-.0507812-.4375-.15625-.117188-.101562-.171875-.269531-.171875-.5v-9.171875c0-.050781.015625-.097656.046875-.140625.03125-.039062.082031-.070312.15625-.09375.082031-.03125.191406-.050781.328125-.0625.132813-.019531.300781-.03125.5-.03125.195313 0 .359375.011719.484375.03125.132812.011719.238281.03125.3125.0625.082031.023438.140625.054688.171875.09375.039063.042969.0625.089844.0625.140625v8.125h3.171875c.050781 0 .097656.015625.140625.046875.039063.03125.070313.078125.09375.140625.03125.0625.050781.152344.0625.265625.007813.105469.015625.234375.015625.390625zm0 0"/></symbol><symbol id="aq" overflow="visible"><path d="m9.5-5.203125c0 .929687-.121094 1.71875-.359375 2.375-.242187.65625-.589844 1.195313-1.046875 1.609375-.449219.417969-1 .726562-1.65625.921875-.648438.1992188-1.417969.296875-2.3125.296875h-2.40625c-.179688 0-.324219-.0507812-.4375-.15625-.117188-.101562-.171875-.269531-.171875-.5v-8.8125c0-.226562.054687-.390625.171875-.484375.113281-.101563.257812-.15625.4375-.15625h2.59375c.894531 0 1.65625.105469 2.28125.3125.632812.210937 1.164062.523437 1.59375.9375.425781.417969.75.933594.96875 1.546875.226562.605469.34375 1.308594.34375 2.109375zm-2.125.0625c0-.476563-.058594-.921875-.171875-1.328125-.105469-.414062-.28125-.773438-.53125-1.078125-.25-.300781-.570313-.535156-.953125-.703125-.386719-.164062-.898438-.25-1.53125-.25h-1.03125v6.875h1.0625c.5625 0 1.035156-.070312 1.421875-.21875.382813-.144531.707031-.363281.96875-.65625.257813-.300781.453125-.671875.578125-1.109375s.1875-.945313.1875-1.53125zm0 0"/></symbol><symbol id="ar" overflow="visible"><path d="m7.5-5.515625c0 .40625-.023438.835937-.0625 1.28125-.042969.4375-.125.871094-.25 1.296875-.117188.417969-.277344.820312-.484375 1.203125-.199219.375-.464844.703125-.796875.984375-.324219.28125-.71875.511719-1.1875.6875-.460938.164062-1.007812.25-1.640625.25-.230469 0-.453125-.015625-.671875-.046875s-.421875-.0742188-.609375-.125c-.179687-.0507812-.335937-.1015625-.46875-.15625-.125-.050781-.21875-.101563-.28125-.15625-.054687-.050781-.09375-.128906-.125-.234375-.023437-.101562-.03125-.25-.03125-.4375 0-.175781.003906-.316406.015625-.421875.007812-.101563.023438-.179687.046875-.234375.019531-.0625.046875-.097656.078125-.109375.039062-.019531.082031-.03125.125-.03125.0625 0 .148438.023437.265625.0625.113281.03125.253906.074219.421875.125.164062.042969.351562.085937.5625.125.207031.03125.4375.046875.6875.046875.4375 0 .804688-.078125 1.109375-.234375.300781-.15625.546875-.363281.734375-.625.1875-.269531.320312-.578125.40625-.921875.09375-.351562.144531-.722656.15625-1.109375-.242188.148437-.53125.277344-.875.390625-.335938.117188-.71875.171875-1.15625.171875-.53125 0-.984375-.066406-1.359375-.203125-.375-.144531-.683594-.347656-.921875-.609375-.230469-.269531-.402344-.59375-.515625-.96875-.105469-.382813-.15625-.816406-.15625-1.296875 0-.507812.070313-.972656.21875-1.390625.15625-.425781.378906-.796875.671875-1.109375.300781-.3125.671875-.550781 1.109375-.71875.445313-.175781.960937-.265625 1.546875-.265625.46875 0 .878906.058594 1.234375.171875.351563.105469.65625.261719.90625.46875.25.199219.457031.445312.625.734375.175781.292969.3125.617187.40625.96875.09375.355469.160156.742187.203125 1.15625.039062.40625.0625.835937.0625 1.28125zm-2.046875-.28125c0-.5625-.03125-1.03125-.09375-1.40625s-.15625-.671875-.28125-.890625c-.125-.226562-.28125-.390625-.46875-.484375s-.40625-.140625-.65625-.140625c-.242187 0-.449219.046875-.625.140625-.179687.085937-.328125.203125-.453125.359375-.117188.15625-.203125.34375-.265625.5625-.054687.210938-.078125.4375-.078125.6875 0 .28125.023438.527344.078125.734375.050781.210937.128906.386719.234375.53125.101562.136719.238281.242187.40625.3125.175781.0625.390625.09375.640625.09375.300781 0 .582031-.046875.84375-.140625.269531-.09375.507813-.210938.71875-.359375zm0 0"/></symbol><symbol id="as" overflow="visible"><path d="m8.3125-.78125c.09375.1875.148438.339844.171875.453125.03125.105469.015625.1875-.046875.25-.0625.0546875-.179688.08203125-.34375.09375-.15625.0195312-.382812.03125-.671875.03125-.25 0-.449219-.0078125-.59375-.015625-.136719-.0117188-.246094-.02734375-.328125-.046875-.074219-.03125-.132812-.0664062-.171875-.109375-.03125-.039062-.0625-.09375-.09375-.15625l-1.890625-3.640625-1.890625 3.640625c-.03125.0625-.070313.117188-.109375.15625-.03125.0429688-.089844.078125-.171875.109375-.085937.01953125-.199219.0351562-.34375.046875-.136719.0078125-.324219.015625-.5625.015625-.273437 0-.480469-.0117188-.625-.03125-.148437-.01171875-.246094-.0390625-.296875-.09375-.054688-.0625-.0625-.144531-.03125-.25.03125-.113281.09375-.265625.1875-.453125l2.421875-4.40625-2.25-4.15625c-.09375-.1875-.15625-.332031-.1875-.4375-.03125-.113281-.023437-.195312.03125-.25.0625-.0625.171875-.097656.328125-.109375.164062-.007813.398438-.015625.703125-.015625.238281 0 .429687.007812.578125.015625.144531.011719.257812.027344.34375.046875.082031.023438.140625.054688.171875.09375.03125.042969.0625.09375.09375.15625l1.78125 3.34375 1.71875-3.34375c.03125-.0625.0625-.113281.09375-.15625.039063-.039062.097656-.070312.171875-.09375.070312-.019531.175781-.035156.3125-.046875.132812-.007813.316406-.015625.546875-.015625.257813 0 .460937.007812.609375.015625.15625.011719.257812.046875.3125.109375.0625.054688.078125.136719.046875.25-.023437.105469-.078125.25-.171875.4375l-2.25 4.125zm0 0"/></symbol><symbol id="at" overflow="visible"><path d="m2.953125-.265625c0 .054687-.015625.101563-.046875.140625-.03125.03125-.085938.0625-.15625.09375-.074219.03125-.171875.0507812-.296875.0625-.125.0078125-.289063.015625-.484375.015625-.1875 0-.34375-.0078125-.46875-.015625-.125-.0117188-.230469-.03125-.3125-.0625-.074219-.03125-.125-.0625-.15625-.09375-.03125-.039062-.046875-.085938-.046875-.140625v-6.953125c0-.050781.015625-.097656.046875-.140625.03125-.039063.082031-.070313.15625-.09375.082031-.03125.1875-.050781.3125-.0625.125-.019531.28125-.03125.46875-.03125.195312 0 .359375.011719.484375.03125.125.011719.222656.03125.296875.0625.070312.023437.125.054687.15625.09375.03125.042969.046875.089844.046875.140625zm.15625-9.328125c0 .398438-.085937.671875-.25.828125-.15625.148437-.453125.21875-.890625.21875-.449219 0-.75-.070313-.90625-.21875-.148438-.144531-.21875-.410156-.21875-.796875 0-.394531.078125-.664062.234375-.8125.15625-.15625.457031-.234375.90625-.234375.4375 0 .734375.074219.890625.21875.15625.148437.234375.414063.234375.796875zm0 0"/></symbol><symbol id="au" overflow="visible"><path d="m5.890625-2.234375c0 .398437-.074219.746094-.21875 1.046875-.148437.304688-.355469.558594-.625.765625-.273437.199219-.59375.3515625-.96875.453125-.367187.101562-.765625.15625-1.203125.15625-.261719 0-.511719-.023438-.75-.0625-.230469-.0429688-.4375-.09375-.625-.15625s-.34375-.125-.46875-.1875-.21875-.117188-.28125-.171875c-.054688-.050781-.09375-.132813-.125-.25-.03125-.125-.046875-.300781-.046875-.53125 0-.144531.003906-.265625.015625-.359375.007812-.09375.023438-.164062.046875-.21875.019531-.050781.046875-.085938.078125-.109375.03125-.019531.066406-.03125.109375-.03125.0625 0 .144531.039063.25.109375.113281.0625.253906.136719.421875.21875.164062.074219.359375.148438.578125.21875.226563.0625.484375.09375.765625.09375.175781 0 .332031-.015625.46875-.046875.132812-.039063.253906-.09375.359375-.15625.101563-.070313.179687-.160156.234375-.265625.050781-.101562.078125-.222656.078125-.359375 0-.15625-.054687-.289063-.15625-.40625-.09375-.113281-.21875-.210937-.375-.296875-.15625-.082031-.339844-.160156-.546875-.234375-.199219-.070313-.402344-.148437-.609375-.234375-.210937-.09375-.417969-.195312-.625-.3125-.199219-.113281-.375-.253906-.53125-.421875-.15625-.164063-.289063-.363281-.390625-.59375-.09375-.238281-.140625-.519531-.140625-.84375 0-.332031.0625-.640625.1875-.921875.132813-.28125.320313-.519531.5625-.71875.25-.195312.550781-.347656.90625-.453125.351563-.113281.75-.171875 1.1875-.171875.21875 0 .425781.015625.625.046875.207031.03125.394531.074219.5625.125.164063.042969.304687.09375.421875.15625.113281.054687.195312.101563.25.140625.050781.03125.085938.070312.109375.109375.019531.042969.035156.089844.046875.140625.007812.054688.015625.121094.015625.203125.007813.085937.015625.183594.015625.296875 0 .148438-.007812.265625-.015625.359375 0 .085937-.011719.152344-.03125.203125-.023437.054688-.046875.089844-.078125.109375-.03125.011719-.070312.015625-.109375.015625-.042969 0-.117187-.023438-.21875-.078125-.09375-.050781-.21875-.109375-.375-.171875-.148437-.0625-.320313-.117188-.515625-.171875-.1875-.0625-.40625-.09375-.65625-.09375-.179688 0-.335938.023437-.46875.0625-.125.03125-.230469.085937-.3125.15625-.085938.0625-.148438.140625-.1875.234375-.042969.09375-.0625.195312-.0625.296875 0 .15625.046875.292969.140625.40625.101563.105469.234375.199219.390625.28125.164062.085937.347656.164063.546875.234375.207031.074219.414063.15625.625.25.21875.085938.425781.183594.625.296875.207031.117187.390625.257813.546875.421875.164062.167969.296875.367188.390625.59375.101563.230469.15625.507812.15625.828125zm0 0"/></symbol><symbol id="av" overflow="visible"><path d="m5.109375-.953125c0 .230469-.015625.40625-.046875.53125-.023438.117187-.058594.199219-.109375.25-.042969.054687-.109375.1015625-.203125.140625s-.203125.0703125-.328125.09375c-.117187.03125-.246094.050781-.390625.0625-.148438.019531-.292969.03125-.4375.03125-.386719 0-.726562-.054688-1.015625-.15625-.28125-.09375-.515625-.242188-.703125-.453125-.1875-.207031-.328125-.46875-.421875-.78125-.085937-.3125-.125-.679687-.125-1.109375v-3.5625h-.84375c-.09375 0-.167969-.0625-.21875-.1875-.054687-.125-.078125-.328125-.078125-.609375 0-.15625.003906-.285156.015625-.390625.007813-.101562.023437-.179688.046875-.234375.03125-.0625.066406-.101563.109375-.125.039063-.03125.085937-.046875.140625-.046875h.828125v-1.5625c0-.050781.007813-.097656.03125-.140625.03125-.039063.082031-.070313.15625-.09375.082031-.03125.1875-.050781.3125-.0625.125-.019531.28125-.03125.46875-.03125.195313 0 .359375.011719.484375.03125.125.011719.222656.03125.296875.0625.070313.023437.125.054687.15625.09375.03125.042969.046875.089844.046875.140625v1.5625h1.515625c.050781 0 .097656.015625.140625.046875.039062.023437.070312.0625.09375.125.03125.054687.050781.132813.0625.234375.007812.105469.015625.234375.015625.390625 0 .28125-.027344.484375-.078125.609375-.054688.125-.125.1875-.21875.1875h-1.53125v3.265625c0 .386719.054688.671875.171875.859375.125.1875.34375.28125.65625.28125.101563 0 .195313-.003906.28125-.015625.082031-.019531.15625-.039063.21875-.0625.0625-.03125.113281-.050781.15625-.0625.050781-.019531.09375-.03125.125-.03125s.0625.011719.09375.03125c.03125.011719.050781.046875.0625.109375.019531.054688.035156.125.046875.21875.007812.09375.015625.214844.015625.359375zm0 0"/></symbol><symbol id="aw" overflow="visible"><path d="m7.640625-.265625c0 .054687-.015625.101563-.046875.140625-.03125.03125-.085938.0625-.15625.09375-.074219.03125-.171875.0507812-.296875.0625-.125.0078125-.28125.015625-.46875.015625-.199219 0-.359375-.0078125-.484375-.015625-.125-.0117188-.226562-.03125-.296875-.0625-.074219-.03125-.125-.0625-.15625-.09375-.03125-.039062-.046875-.085938-.046875-.140625v-3.984375c0-.332031-.027344-.59375-.078125-.78125-.054687-.195312-.125-.363281-.21875-.5-.09375-.144531-.214844-.253906-.359375-.328125-.148438-.070313-.320312-.109375-.515625-.109375-.25 0-.507813.09375-.765625.28125-.25.179688-.515625.4375-.796875.78125v4.640625c0 .054687-.015625.101563-.046875.140625-.03125.03125-.085938.0625-.15625.09375-.074219.03125-.171875.0507812-.296875.0625-.125.0078125-.289063.015625-.484375.015625-.1875 0-.34375-.0078125-.46875-.015625-.125-.0117188-.230469-.03125-.3125-.0625-.074219-.03125-.125-.0625-.15625-.09375-.03125-.039062-.046875-.085938-.046875-.140625v-6.96875c0-.050781.007813-.097656.03125-.140625.03125-.039062.078125-.070312.140625-.09375.070312-.03125.160156-.050781.265625-.0625.113281-.007812.25-.015625.40625-.015625.164063 0 .300781.007813.40625.015625.113281.011719.203125.03125.265625.0625.0625.023438.101562.054688.125.09375.03125.042969.046875.089844.046875.140625v.796875c.382813-.414062.773437-.726562 1.171875-.9375.394531-.207031.8125-.3125 1.25-.3125.46875 0 .863281.078125 1.1875.234375.332031.15625.597656.371094.796875.640625.195313.273438.335937.589844.421875.953125.09375.355469.140625.78125.140625 1.28125zm0 0"/></symbol><symbol id="ax" overflow="visible"><path d="m7.265625-6.75c0 .25-.03125.4375-.09375.5625-.054687.117188-.121094.171875-.203125.171875h-.8125c.113281.125.191406.265625.234375.421875.050781.15625.078125.324219.078125.5 0 .40625-.070312.765625-.203125 1.078125-.136719.3125-.328125.578125-.578125.796875s-.558594.386719-.921875.5c-.355469.105469-.75.15625-1.1875.15625-.21875 0-.433594-.023438-.640625-.078125-.199219-.050781-.355469-.113281-.46875-.1875-.0625.0625-.121094.140625-.171875.234375-.042969.09375-.0625.199219-.0625.3125 0 .15625.0625.28125.1875.375.132813.09375.320313.148438.5625.15625l1.703125.0625c.394531.023438.742188.078125 1.046875.171875.3125.09375.570313.230469.78125.40625.21875.179687.378906.390625.484375.640625.113281.242188.171875.515625.171875.828125 0 .34375-.078125.664063-.234375.96875-.148438.3125-.371094.578125-.671875.796875-.304687.226562-.683594.40625-1.140625.53125-.449219.132812-.980469.203125-1.59375.203125-.59375 0-1.101562-.046875-1.515625-.140625-.417969-.09375-.761719-.226562-1.03125-.390625-.273437-.167969-.46875-.371094-.59375-.609375-.117187-.230469-.171875-.480469-.171875-.75 0-.179688.019531-.34375.0625-.5.039062-.15625.101562-.308594.1875-.453125.09375-.144531.203125-.28125.328125-.40625.125-.132813.265625-.257813.421875-.375-.21875-.125-.390625-.285156-.515625-.484375-.125-.207031-.1875-.4375-.1875-.6875 0-.300781.066406-.578125.203125-.828125.144531-.257813.332031-.488281.5625-.6875-.1875-.1875-.339844-.40625-.453125-.65625-.105469-.257813-.15625-.578125-.15625-.953125 0-.40625.070313-.769531.21875-1.09375.144531-.320312.34375-.59375.59375-.8125.257813-.21875.566406-.382812.921875-.5.351562-.125.742188-.1875 1.171875-.1875.21875 0 .425781.015625.625.046875.195313.023437.382813.058594.5625.109375h2.203125c.09375 0 .164062.058594.21875.171875.050781.117187.078125.308594.078125.578125zm-2.515625 1.640625c0-.375-.105469-.664063-.3125-.875-.210938-.207031-.507812-.3125-.890625-.3125-.1875 0-.355469.039063-.5.109375-.148437.0625-.273437.152344-.375.265625-.09375.105469-.167969.234375-.21875.390625-.042969.148438-.0625.296875-.0625.453125 0 .355469.101563.636719.3125.84375.207031.210937.5.3125.875.3125.195313 0 .367187-.03125.515625-.09375.144531-.0625.265625-.144531.359375-.25.09375-.113281.164063-.242187.21875-.390625.050781-.144531.078125-.296875.078125-.453125zm.453125 5.578125c0-.242188-.09375-.421875-.28125-.546875s-.445313-.191406-.765625-.203125l-1.40625-.046875c-.136719.105469-.246094.203125-.328125.296875-.074219.09375-.136719.179688-.1875.265625-.054687.082031-.089844.160156-.109375.234375-.011719.082031-.015625.164062-.015625.25 0 .257812.128906.457031.390625.59375.269531.132812.644531.203125 1.125.203125.289062 0 .535156-.03125.734375-.09375.207031-.0625.375-.148437.5-.25.125-.09375.210937-.203125.265625-.328125.050781-.117188.078125-.242188.078125-.375zm0 0"/></symbol><symbol id="ay" overflow="visible"><path d="m4.1875-10.6875c-.4375 1.011719-.773438 2.058594-1 3.140625-.21875 1.085937-.328125 2.195313-.328125 3.328125 0 1.136719.109375 2.246094.328125 3.328125.226562 1.070313.554688 2.125.984375 3.15625.03125.082031.046875.15625.046875.21875s-.03125.113281-.09375.15625c-.054688.039063-.136719.070313-.25.09375-.117188.019531-.277344.03125-.484375.03125-.148437 0-.273437-.007813-.375-.015625-.105469-.011719-.195313-.027344-.265625-.046875-.074219-.023437-.132812-.046875-.171875-.078125-.03125-.023438-.058594-.054688-.078125-.09375-.28125-.542969-.527344-1.089844-.734375-1.640625-.210937-.542969-.382813-1.09375-.515625-1.65625-.136719-.5625-.242188-1.128906-.3125-1.703125-.0625-.570312-.09375-1.148438-.09375-1.734375 0-.582031.03125-1.160156.09375-1.734375.070312-.570312.175781-1.132812.3125-1.6875.144531-.5625.320312-1.117188.53125-1.671875.207031-.550781.445312-1.101563.71875-1.65625.007812-.019531.03125-.039063.0625-.0625.03125-.019531.078125-.039063.140625-.0625.0625-.019531.144531-.03125.25-.03125.113281-.007813.253906-.015625.421875-.015625.1875 0 .335938.011719.453125.03125.125.011719.21875.039062.28125.078125.0625.03125.09375.078125.09375.140625.007813.054688.003906.117188-.015625.1875zm0 0"/></symbol><symbol id="az" overflow="visible"><path d="m4.140625-4.203125c0 .585937-.039063 1.164063-.109375 1.734375-.0625.574219-.164062 1.140625-.296875 1.703125-.136719.5625-.308594 1.113281-.515625 1.65625-.210938.550781-.453125 1.097656-.734375 1.640625-.011719.039062-.039063.070312-.078125.09375-.042969.03125-.101562.054688-.171875.078125-.0625.019531-.148437.035156-.25.046875-.105469.007812-.230469.015625-.375.015625-.21875 0-.386719-.011719-.5-.03125-.117187-.023437-.203125-.054687-.265625-.09375-.054688-.042969-.078125-.09375-.078125-.15625s.015625-.136719.046875-.21875c.425781-1.023437.753906-2.074219.984375-3.15625.226563-1.082031.34375-2.191406.34375-3.328125 0-1.132812-.117187-2.242188-.34375-3.328125-.21875-1.082031-.554687-2.128906-1-3.140625-.023437-.070312-.03125-.132812-.03125-.1875.007813-.0625.046875-.109375.109375-.140625.070312-.039063.164062-.066406.28125-.078125.113281-.019531.269531-.03125.46875-.03125.15625 0 .285156.007812.390625.015625.101563 0 .1875.011719.25.03125.070313.023437.125.042969.15625.0625.03125.023437.050781.042969.0625.0625.539063 1.09375.953125 2.203125 1.234375 3.328125.28125 1.117188.421875 2.257812.421875 3.421875zm0 0"/></symbol><symbol id="aA" overflow="visible"><path d="m6.265625-1.375c0 .136719-.007813.25-.015625.34375-.011719.085938-.023438.15625-.03125.21875-.011719.0625-.027344.117188-.046875.15625-.023437.042969-.0625.09375-.125.15625-.0625.054688-.171875.125-.328125.21875-.148438.085938-.320312.164062-.515625.234375-.1875.0625-.398437.1132812-.625.15625-.21875.039063-.449219.0625-.6875.0625-.542969 0-1.023437-.0859375-1.4375-.25-.40625-.164063-.75-.410156-1.03125-.734375-.28125-.332031-.496094-.734375-.640625-1.203125-.148438-.46875-.21875-1.003906-.21875-1.609375 0-.695312.085938-1.296875.265625-1.796875.175781-.507813.421875-.929687.734375-1.265625.3125-.332031.679688-.578125 1.109375-.734375.425781-.164063.894531-.25 1.40625-.25.207031 0 .410156.023437.609375.0625.195312.03125.382812.078125.5625.140625.175781.0625.332031.136719.46875.21875.132812.074219.226562.140625.28125.203125.0625.054687.101562.101563.125.140625.03125.03125.050781.078125.0625.140625.007812.0625.019531.140625.03125.234375.007812.09375.015625.203125.015625.328125 0 .304687-.027344.515625-.078125.640625-.054688.125-.121094.1875-.203125.1875-.09375 0-.195313-.035156-.296875-.109375-.09375-.070313-.210938-.148437-.34375-.234375-.136719-.09375-.296875-.175781-.484375-.25-.1875-.070312-.414063-.109375-.671875-.109375-.511719 0-.902344.199219-1.171875.59375-.273437.386719-.40625.960937-.40625 1.71875 0 .375.03125.710937.09375 1 .070313.28125.175781.523437.3125.71875.132813.1875.300781.335937.5.4375.195313.09375.429687.140625.703125.140625.269531 0 .5-.039062.6875-.125.195312-.082031.367188-.171875.515625-.265625.144531-.101563.265625-.191406.359375-.265625.101562-.082031.191406-.125.265625-.125.039063 0 .078125.015625.109375.046875.03125.023437.054688.070313.078125.140625.019531.0625.035156.152344.046875.265625.007812.105469.015625.246094.015625.421875zm0 0"/></symbol><g clip-path="url(#a)"><path d="m-5.703125 1.625c0-7.242188 5.863281-13.113281 13.097656-13.113281h493.359375c7.226563 0 13.097656 5.871093 13.097656 13.113281v273.046875c0 7.230469-5.871093 13.101563-13.097656 13.101563h-493.359375c-7.234375 0-13.097656-5.871094-13.097656-13.101563zm0 0" fill="#fff" fill-rule="evenodd"/></g><path d="m214.518269 556.869606v-212.410156m63.890625 212.410156v-212.410156m63.882812 212.410156v-212.410156m63.878907 212.410156v-212.410156m63.878906 212.410156v-212.410156m63.949218 212.410156v-212.410156" fill="none" stroke="#d9d9d9" stroke-linejoin="round" stroke-miterlimit="10" stroke-width=".98275" transform="matrix(1 0 0 -1 -59.2878 559.8032)"/><g clip-path="url(#b)"><path d="m91.390625 210.523438v-9.65625h14.054687v9.65625zm0 0" fill="url(#d)"/></g><g clip-path="url(#e)"><path d="m150.678425 349.279762h14.054688v9.65625h-14.054688zm0 0" fill="none" stroke="#5997d0" stroke-linejoin="round" stroke-miterlimit="10" stroke-width=".98275" transform="matrix(1 0 0 -1 -59.2878 559.8032)"/></g><g clip-path="url(#f)"><path d="m91.390625 191.214844v-9.65625h1.277344v9.65625zm0 0" fill="url(#g)"/></g><g clip-path="url(#h)"><path d="m150.678425 368.588356h1.277344v9.65625h-1.277344zm0 0" fill="none" stroke="#5997d0" stroke-linejoin="round" stroke-miterlimit="10" stroke-width=".98275" transform="matrix(1 0 0 -1 -59.2878 559.8032)"/></g><g clip-path="url(#i)"><path d="m91.390625 171.902344v-9.65625h1.277344v9.65625zm0 0" fill="url(#j)"/></g><g clip-path="url(#k)"><path d="m150.678425 387.900856h1.277344v9.65625h-1.277344zm0 0" fill="none" stroke="#5997d0" stroke-linejoin="round" stroke-miterlimit="10" stroke-width=".98275" transform="matrix(1 0 0 -1 -59.2878 559.8032)"/></g><g clip-path="url(#l)"><path d="m91.390625 152.582031v-9.652343h12.777344v9.652343zm0 0" fill="url(#m)"/></g><g clip-path="url(#n)"><path d="m150.678425 407.221169h12.777344v9.652343h-12.777344zm0 0" fill="none" stroke="#5997d0" stroke-linejoin="round" stroke-miterlimit="10" stroke-width=".98275" transform="matrix(1 0 0 -1 -59.2878 559.8032)"/></g><g clip-path="url(#o)"><path d="m91.390625 133.273438v-9.65625h61.332031v9.65625zm0 0" fill="url(#p)"/></g><g clip-path="url(#q)"><path d="m150.678425 426.529762h61.332031v9.65625h-61.332031zm0 0" fill="none" stroke="#5997d0" stroke-linejoin="round" stroke-miterlimit="10" stroke-width=".98275" transform="matrix(1 0 0 -1 -59.2878 559.8032)"/></g><g clip-path="url(#r)"><path d="m91.390625 113.964844v-9.65625h6.390625v9.65625zm0 0" fill="url(#s)"/></g><g clip-path="url(#t)"><path d="m150.678425 445.838356h6.390625v9.65625h-6.390625zm0 0" fill="none" stroke="#5997d0" stroke-linejoin="round" stroke-miterlimit="10" stroke-width=".98275" transform="matrix(1 0 0 -1 -59.2878 559.8032)"/></g><g clip-path="url(#u)"><path d="m91.390625 94.652344v-9.65625h39.609375v9.65625zm0 0" fill="url(#v)"/></g><g clip-path="url(#w)"><path d="m150.678425 465.150856h39.609375v9.65625h-39.609375zm0 0" fill="none" stroke="#5997d0" stroke-linejoin="round" stroke-miterlimit="10" stroke-width=".98275" transform="matrix(1 0 0 -1 -59.2878 559.8032)"/></g><g clip-path="url(#x)"><path d="m91.390625 75.34375v-9.65625h25.554687v9.65625zm0 0" fill="url(#y)"/></g><g clip-path="url(#z)"><path d="m150.678425 484.45945h25.554688v9.65625h-25.554688zm0 0" fill="none" stroke="#5997d0" stroke-linejoin="round" stroke-miterlimit="10" stroke-width=".98275" transform="matrix(1 0 0 -1 -59.2878 559.8032)"/></g><g clip-path="url(#A)"><path d="m91.390625 56.03125v-9.652344h54.945313v9.652344zm0 0" fill="url(#B)"/></g><g clip-path="url(#C)"><path d="m150.678425 503.77195h54.945313v9.652344h-54.945313zm0 0" fill="none" stroke="#5997d0" stroke-linejoin="round" stroke-miterlimit="10" stroke-width=".98275" transform="matrix(1 0 0 -1 -59.2878 559.8032)"/></g><g clip-path="url(#D)"><path d="m91.390625 36.722656v-9.65625h5.113281v9.65625zm0 0" fill="url(#E)"/></g><g clip-path="url(#F)"><path d="m150.678425 523.080544h5.113281v9.65625h-5.113281zm0 0" fill="none" stroke="#5997d0" stroke-linejoin="round" stroke-miterlimit="10" stroke-width=".98275" transform="matrix(1 0 0 -1 -59.2878 559.8032)"/></g><g clip-path="url(#G)"><path d="m91.390625 17.414062v-9.65625h392.261719v9.65625zm0 0" fill="url(#H)"/></g><g clip-path="url(#I)"><path d="m150.678425 542.389137h392.261719v9.65625h-392.261719zm0 0" fill="none" stroke="#5997d0" stroke-linejoin="round" stroke-miterlimit="10" stroke-width=".98275" transform="matrix(1 0 0 -1 -59.2878 559.8032)"/></g><path d="m150.678425 344.45945v212.410156" fill="none" stroke="#d9d9d9" stroke-linejoin="round" stroke-miterlimit="10" stroke-width=".98275" transform="matrix(1 0 0 -1 -59.2878 559.8032)"/><g><use x="113.3422" xlink:href="#M" y="211.0632"/><use x="121.278882" xlink:href="#M" y="211.0632"/></g><use x="100.5422" xlink:href="#M" y="191.7432"/><use x="100.5422" xlink:href="#M" y="172.4332"/><g><use x="112.0622" xlink:href="#M" y="153.1332"/><use x="119.998882" xlink:href="#N" y="153.1332"/></g><g><use x="160.6322" xlink:href="#O" y="133.8032"/><use x="168.568882" xlink:href="#P" y="133.8032"/></g><use x="105.6622" xlink:href="#Q" y="114.4932"/><g><use x="138.9022" xlink:href="#R" y="95.1732"/><use x="146.838882" xlink:href="#M" y="95.1732"/></g><g><use x="124.8422" xlink:href="#S" y="75.8632"/><use x="132.778882" xlink:href="#N" y="75.8632"/></g><g><use x="154.2322" xlink:href="#O" y="56.5632"/><use x="162.189982" xlink:href="#R" y="56.5632"/></g><use x="104.3722" xlink:href="#O" y="37.2332"/><g><use x="486.1422" xlink:href="#R" y="17.9332"/><use x="494.078882" xlink:href="#N" y="17.9332"/><use x="502.015564" xlink:href="#T" y="17.9332"/></g><use x="87.4322" xlink:href="#N" y="240.3132"/><g><use x="147.3422" xlink:href="#Q" y="240.3132"/><use x="155.299982" xlink:href="#N" y="240.3132"/></g><g><use x="207.2622" xlink:href="#M" y="240.3132"/><use x="215.219982" xlink:href="#N" y="240.3132"/><use x="223.177764" xlink:href="#N" y="240.3132"/></g><g><use x="271.1522" xlink:href="#M" y="240.3132"/><use x="279.109982" xlink:href="#Q" y="240.3132"/><use x="287.067764" xlink:href="#N" y="240.3132"/></g><g><use x="335.0722" xlink:href="#S" y="240.3132"/><use x="343.008882" xlink:href="#N" y="240.3132"/><use x="350.945564" xlink:href="#N" y="240.3132"/></g><g><use x="398.9622" xlink:href="#S" y="240.3132"/><use x="406.898882" xlink:href="#Q" y="240.3132"/><use x="414.835564" xlink:href="#N" y="240.3132"/></g><g><use x="462.8622" xlink:href="#R" y="240.3132"/><use x="470.798882" xlink:href="#N" y="240.3132"/><use x="478.735564" xlink:href="#N" y="240.3132"/></g><use x="17.9962" xlink:href="#U" y="210.2032"/><use x="26.425336" xlink:href="#V" y="210.2032"/><g><use x="33.706474" xlink:href="#W" y="210.2032"/><use x="42.167062" xlink:href="#X" y="210.2032"/></g><use x="50.580472" xlink:href="#Y" y="210.2032"/><g><use x="54.055918" xlink:href="#O" y="210.2032"/><use x="62.029" xlink:href="#Z" y="210.2032"/><use x="68.79118" xlink:href="#aa" y="210.2032"/></g><g><use x="30.5232" xlink:href="#ab" y="190.8732"/><use x="39.125322" xlink:href="#ac" y="190.8732"/><use x="53.373078" xlink:href="#O" y="190.8732"/><use x="61.34616" xlink:href="#M" y="190.8732"/></g><use x="69.240612" xlink:href="#ad" y="190.8732"/><use x="5.7862" xlink:href="#ae" y="171.5732"/><use x="14.545582" xlink:href="#af" y="171.5732"/><g><use x="18.492808" xlink:href="#ag" y="171.5732"/><use x="26.93767" xlink:href="#ah" y="171.5732"/></g><use x="34.706314" xlink:href="#ai" y="171.5732"/><use x="45.116926" xlink:href="#aj" y="171.5732"/><use x="53.876308" xlink:href="#ak" y="171.5732"/><g><use x="63.940948" xlink:href="#al" y="171.5732"/><use x="68.753104" xlink:href="#S" y="171.5732"/></g><use x="4.0592" xlink:href="#am" y="152.2432"/><g><use x="13.636334" xlink:href="#an" y="152.2432"/><use x="21.420704" xlink:href="#V" y="152.2432"/></g><use x="28.686116" xlink:href="#am" y="152.2432"/><g><use x="38.26325" xlink:href="#ao" y="152.2432"/><use x="52.007774" xlink:href="#ae" y="152.2432"/></g><g><use x="60.75143" xlink:href="#M" y="152.2432"/><use x="68.724512" xlink:href="#M" y="152.2432"/></g><g><use x="14.2282" xlink:href="#an" y="132.9432"/><use x="22.01257" xlink:href="#ap" y="132.9432"/><use x="28.664668" xlink:href="#V" y="132.9432"/><use x="36.103066" xlink:href="#aj" y="132.9432"/></g><g><use x="45.035434" xlink:href="#P" y="132.9432"/><use x="53.008516" xlink:href="#S" y="132.9432"/><use x="60.981598" xlink:href="#Q" y="132.9432"/><use x="68.95468" xlink:href="#P" y="132.9432"/></g><g><use x="16.8382" xlink:href="#aq" y="113.6332"/><use x="26.74558" xlink:href="#am" y="113.6332"/></g><use x="36.228358" xlink:href="#M" y="113.6332"/><g><use x="44.342974" xlink:href="#O" y="113.6332"/><use x="52.316056" xlink:href="#aa" y="113.6332"/><use x="60.289138" xlink:href="#ar" y="113.6332"/><use x="68.26222" xlink:href="#as" y="113.6332"/></g><g><use x="17.5332" xlink:href="#aq" y="94.3132"/><use x="27.44058" xlink:href="#am" y="94.3132"/></g><use x="36.923358" xlink:href="#M" y="94.3132"/><g><use x="45.037974" xlink:href="#O" y="94.3132"/><use x="53.011056" xlink:href="#aa" y="94.3132"/><use x="60.984138" xlink:href="#P" y="94.3132"/><use x="68.95722" xlink:href="#N" y="94.3132"/></g><g><use x="2.8172" xlink:href="#aq" y="75.0032"/><use x="12.72458" xlink:href="#am" y="75.0032"/></g><use x="22.191632" xlink:href="#M" y="75.0032"/><g><use x="30.274796" xlink:href="#O" y="75.0032"/><use x="38.247878" xlink:href="#Q" y="75.0032"/></g><g><use x="46.14233" xlink:href="#P" y="75.0032"/><use x="54.115412" xlink:href="#Q" y="75.0032"/></g><g><use x="62.009864" xlink:href="#Z" y="75.0032"/><use x="68.772044" xlink:href="#aa" y="75.0032"/></g><g><use x="17.5332" xlink:href="#aq" y="55.6732"/><use x="27.44058" xlink:href="#am" y="55.6732"/></g><use x="36.923358" xlink:href="#M" y="55.6732"/><g><use x="45.037974" xlink:href="#O" y="55.6732"/><use x="53.011056" xlink:href="#Q" y="55.6732"/><use x="60.984138" xlink:href="#P" y="55.6732"/><use x="68.95722" xlink:href="#N" y="55.6732"/></g><g><use x="11.4912" xlink:href="#X" y="36.3732"/><use x="19.810254" xlink:href="#X" y="36.3732"/></g><g><use x="28.192212" xlink:href="#S" y="36.3732"/><use x="36.165294" xlink:href="#aa" y="36.3732"/></g><g><use x="44.059746" xlink:href="#O" y="36.3732"/><use x="52.032828" xlink:href="#N" y="36.3732"/></g><use x="59.92728" xlink:href="#aj" y="36.3732"/><use x="68.843922" xlink:href="#S" y="36.3732"/><g><use x="28.3122" xlink:href="#X" y="17.0632"/><use x="36.631254" xlink:href="#X" y="17.0632"/></g><g><use x="45.013212" xlink:href="#S" y="17.0632"/><use x="52.986294" xlink:href="#Q" y="17.0632"/></g><g><use x="60.880746" xlink:href="#O" y="17.0632"/><use x="68.853828" xlink:href="#N" y="17.0632"/></g><g clip-path="url(#J)"><path d="m202.230469 268.082031v-8.636719h8.640625v8.636719zm0 0" fill="url(#K)"/></g><path d="m261.518269 291.721169h8.640625v8.636718h-8.640625zm0 0" fill="none" stroke="#5997d0" stroke-linejoin="round" stroke-miterlimit="10" stroke-width=".98275" transform="matrix(1 0 0 -1 -59.2878 559.8032)"/><g><use x="214.7522" xlink:href="#ap" y="268.2632"/><use x="221.404298" xlink:href="#at" y="268.2632"/></g><g><use x="225.178538" xlink:href="#au" y="268.2632"/><use x="231.453212" xlink:href="#av" y="268.2632"/><use x="236.910134" xlink:href="#at" y="268.2632"/></g><g><use x="240.873086" xlink:href="#aw" y="268.2632"/><use x="249.317948" xlink:href="#ax" y="268.2632"/><use x="256.772072" xlink:href="#ay" y="268.2632"/></g><g><use x="261.568502" xlink:href="#au" y="268.2632"/><use x="267.843176" xlink:href="#az" y="268.2632"/></g><use x="272.812592" xlink:href="#Y" y="268.2632"/><g><use x="276.288038" xlink:href="#aA" y="268.2632"/><use x="282.861506" xlink:href="#W" y="268.2632"/><use x="291.322094" xlink:href="#ag" y="268.2632"/><use x="299.766956" xlink:href="#aw" y="268.2632"/><use x="308.211818" xlink:href="#av" y="268.2632"/></g><g clip-path="url(#L)"><path d="m53.584675 558.1782c0 7.242187 5.863281 13.113281 13.097656 13.113281h493.359375c7.226563 0 13.097656-5.871094 13.097656-13.113281v-273.046875c0-7.230469-5.871093-13.101563-13.097656-13.101563h-493.359375c-7.234375 0-13.097656 5.871094-13.097656 13.101563zm0 0" fill="none" stroke="#d9d9d9" stroke-linejoin="round" stroke-miterlimit="10" stroke-width=".98275" transform="matrix(1 0 0 -1 -59.2878 559.8032)"/></g></svg>