<?xml version="1.0" encoding="utf-8"?>
<!-- Generator: Adobe Illustrator 22.1.0, SVG Export Plug-In . SVG Version: 6.00 Build 0)  -->
<svg version="1.1" id="Layer_1" xmlns="http://www.w3.org/2000/svg" xmlns:xlink="http://www.w3.org/1999/xlink" x="0px" y="0px"
	 viewBox="0 0 906.9 417.6" style="enable-background:new 0 0 906.9 417.6;" xml:space="preserve">
<style type="text/css">
	.st0{fill:none;stroke:#FEBE11;stroke-width:7.0891;stroke-linecap:round;stroke-miterlimit:10;stroke-dasharray:0.3038,25.3181;}
	.st1{fill:#FEBE10;stroke:#FFC03B;stroke-width:0.4224;stroke-miterlimit:10;}
	.st2{fill:#484F57;}
	.st3{fill:#CC111F;}
</style>
<path class="st0" d="M778.3,238.1c-53.5,103.8-171.9,176-309.3,176c-137.1,0-255.3-71.9-309-175.4"/>
<g>
	<path class="st1" d="M867.6,103.9c-21.7,0-39.4,17.7-39.4,39.4s17.7,39.4,39.4,39.4s39.3-17.7,39.3-39.4S889.3,103.9,867.6,103.9z"
		/>
	<path class="st2" d="M733,103.5l-44.5,79.2L608.7,37.3l-0.3-0.5c-6-12.5-0.8-27.6,11.7-33.7c3.5-1.7,7.2-2.5,11-2.5
		c2.8,0,5.6,0.5,8.3,1.4c6.2,2.2,11.2,6.5,14.1,12.3l35.2,61.2L733,0l44.2,75.4l35.2-61.2c2.9-5.7,7.9-10.1,14.1-12.3
		c2.7-0.9,5.5-1.4,8.3-1.4c3.8,0,7.5,0.8,11,2.5c12.5,6,17.7,21.2,11.7,33.7l-0.3,0.5l-79.9,145.4L733,103.5z"/>
</g>
<g>
	<path class="st3" d="M73.4,170.3c12.5-16.4,7.4-35.4-4.8-44.9c-5.7-4.4-12.3-6.2-19.4-6.8c-17.1-1.3-31.1-14.9-32.1-30.7
		c-1.1-18.7,10-34.2,27.7-37.3c13.4-2.3,26.6,0.7,39.1,5.4c46.6,17.4,73.1,64.4,64,113.3c-0.6,3.2-1.8,5.5-5.1,6.3
		c-1.5,0.4-2.9,1.1-4.3,1.6c-9.4,3.3-12.6,2.9-21.9-2.5c5-14.3,5.8-28.9,1.8-43.7c-7.7-28.4-33.5-49.8-62.8-52.2
		c-0.9-0.1-1.8-0.1-2.8-0.1c-3.7-0.1-6.4,1.2-7,5.2c-0.5,3.4,2,5.8,6.5,6.1c15.6,1.2,29,7,40.1,18.2c18.2,18.5,22.2,47.6,9.8,70.5
		c-1.4,2.6-2.9,3.5-5.8,3.1C87.5,180.6,79,178.7,73.4,170.3z"/>
	<path class="st3" d="M161.3,150.8c-0.6-30.8-11-57.7-33.1-79.7c-22-21.9-48.9-32.5-80.5-32.7c0-4.9,0-9.4,0-14
		c0-0.4,0.1-0.9,0.3-1.3c2.3-4.7,17.5-12.7,22.5-11.9c57.6,9.2,102.3,50.6,115.8,107.3c0.9,3.8,1.8,7.6,2.2,11.4
		c0.2,2.1-0.4,4.5-1.1,6.6c-0.7,1.9-2.2,3.4-3.1,5.2C179.6,151.5,172,154.2,161.3,150.8z"/>
	<path class="st3" d="M31.5,15.1c2,2.3,3.6,4.1,5.2,5.9C-8.5,68.3,6.9,133.5,35.9,159.2c-3.7-11.1-2.1-18,5-22.5
		c6.3-3.9,14.5-2.9,19.6,2.3c5.2,5.3,6,13,2.1,19.2c-4.5,7.2-11.4,8.8-22.8,5c27.8,30,91.5,43.6,139-1.1c1.8,1.7,3.6,3.4,5.8,5.6
		c-30.2,27.7-65,38.1-104.2,27.5c-42-11.3-68.6-39.5-77.9-82.1C-5.4,76,5.3,43.3,31.5,15.1z"/>
	<path class="st3" d="M193.1,100.2C176,54.7,144.6,23.5,99.2,6.5c0.1-5,2.6-6.4,7.1-6.5c46.9-0.1,84.4,31.5,92.1,77.9
		c0.8,5,0.8,10.1,1.5,15.2C200.6,98.3,197.9,100.1,193.1,100.2z"/>
</g>
</svg>
