<?xml version="1.0" encoding="iso-8859-1"?>
<!-- Generator: Adobe Illustrator 19.0.0, SVG Export Plug-In . SVG Version: 6.00 Build 0)  -->
<svg version="1.1" id="Layer_1" xmlns="http://www.w3.org/2000/svg" xmlns:xlink="http://www.w3.org/1999/xlink" x="0px" y="0px"
	 viewBox="0 0 512 512" style="enable-background:new 0 0 512 512;" xml:space="preserve">
<rect x="64" style="fill:#FFFFFF;" width="384" height="512"/>
<rect x="138.4" y="106.4" style="fill:#2D2D2D;" width="64" height="10.4"/>
<g>
	<rect x="224" y="106.4" style="fill:#BCBCBC;" width="42.4" height="10.4"/>
	<rect x="160" y="128" style="fill:#BCBCBC;" width="64" height="10.4"/>
</g>
<g>
	<rect x="256" y="128" style="fill:#E81241;" width="53.6" height="10.4"/>
	<rect x="277.6" y="213.6" style="fill:#E81241;" width="53.6" height="10.4"/>
</g>
<g>
	<rect x="160" y="170.4" style="fill:#2D2D2D;" width="42.4" height="10.4"/>
	<rect x="288" y="234.4" style="fill:#2D2D2D;" width="42.4" height="10.4"/>
</g>
<rect x="200" y="149.6" style="fill:#BCBCBC;" width="88" height="10.4"/>
<rect x="170.4" y="192" style="fill:#E81241;" width="21.6" height="10.4"/>
<rect x="234.4" y="213.6" style="fill:#BCBCBC;" width="21.6" height="10.4"/>
<rect x="245.6" y="234.4" style="fill:#2D2D2D;" width="21.6" height="10.4"/>
<rect x="309.6" y="256" style="fill:#E81241;" width="21.6" height="10.4"/>
<rect x="256" y="256" style="fill:#2D2D2D;" width="21.6" height="10.4"/>
<rect x="234.4" y="320" style="fill:#E81241;" width="32" height="10.4"/>
<rect x="362.4" y="213.6" style="fill:#BCBCBC;" width="21.6" height="10.4"/>
<rect x="160" y="277.6" style="fill:#2D2D2D;" width="42.4" height="10.4"/>
<rect x="224" y="277.6" style="fill:#E81241;" width="42.4" height="10.4"/>
<g>
	<rect x="277.6" y="277.6" style="fill:#2D2D2D;" width="42.4" height="10.4"/>
	<rect x="160" y="320" style="fill:#2D2D2D;" width="42.4" height="10.4"/>
</g>
<rect x="341.6" y="277.6" style="fill:#E81241;" width="42.4" height="10.4"/>
<rect x="172" y="300.8" style="fill:#BCBCBC;" width="40" height="10.4"/>
<rect x="160" y="341.6" style="fill:#E81241;" width="106.4" height="10.4"/>
<rect x="149.6" y="362.4" style="fill:#2D2D2D;" width="128" height="10.4"/>
<g>
	<rect x="213.6" y="384" style="fill:#BCBCBC;" width="53.6" height="10.4"/>
	<rect x="320" y="362.4" style="fill:#BCBCBC;" width="42.4" height="10.4"/>
</g>
<g>
	<rect x="298.4" y="384" style="fill:#2D2D2D;" width="53.6" height="10.4"/>
	<rect x="298.4" y="341.6" style="fill:#2D2D2D;" width="42.4" height="10.4"/>
	<rect x="234.4" y="170.4" style="fill:#2D2D2D;" width="64" height="10.4"/>
	<rect x="213.6" y="192" style="fill:#2D2D2D;" width="64" height="10.4"/>
	<rect x="160" y="256" style="fill:#2D2D2D;" width="64" height="10.4"/>
	<rect x="149.6" y="213.6" style="fill:#2D2D2D;" width="64" height="10.4"/>
</g>
<rect x="138.4" y="234.4" style="fill:#BCBCBC;" width="64" height="10.4"/>
<g>
	<path style="fill:#E81241;" d="M120,51.2l20.8-10.4V44l-17.6,8.8l0,0l17.6,8.8V64L120,53.6V51.2z"/>
	<path style="fill:#E81241;" d="M151.2,34.4v12.8h14.4V34.4h4V64h-4V50.4h-14.4V64h-4V34.4H151.2z"/>
	<path style="fill:#E81241;" d="M181.6,37.6h-8.8v-3.2h22.4v3.2h-8.8V64h-4V37.6H181.6z"/>
	<path style="fill:#E81241;" d="M223.2,51.2c0-4-0.8-8.8-0.8-12.8l0,0c-0.8,3.2-2.4,7.2-4,11.2L213.6,64h-3.2l-4.8-14.4
		c-1.6-4-2.4-8-3.2-12l0,0c0,4,0,8.8-0.8,12.8L200.8,64h-4l2.4-29.6h4.8l4.8,14.4c1.6,4,2.4,7.2,3.2,10.4l0,0
		c0.8-3.2,1.6-6.4,3.2-10.4l5.6-14.4h4.8l1.6,29.6H224L223.2,51.2z"/>
	<path style="fill:#E81241;" d="M233.6,34.4h4v26.4h12.8V64h-16.8V34.4z"/>
	<path style="fill:#E81241;" d="M274.4,53.6L253.6,64v-3.2l17.6-8.8l0,0l-17.6-8.8v-2.4l20.8,10.4V53.6z"/>
	<path style="fill:#E81241;" d="M120,467.2l20.8-10.4v3.2l-17.6,8.8l0,0l17.6,8.8v2.4L120,469.6V467.2z"/>
	<path style="fill:#E81241;" d="M144,481.6l12-32h3.2l-12,32H144z"/>
	<path style="fill:#E81241;" d="M166.4,450.4v12.8h14.4v-12.8h3.2V480h-4v-13.6h-14.4V480h-4v-29.6H166.4z"/>
	<path style="fill:#E81241;" d="M196.8,453.6H188v-3.2h22.4v3.2h-8.8V480h-4v-26.4H196.8z"/>
	<path style="fill:#E81241;" d="M238.4,467.2c0-4-0.8-8.8-0.8-12.8l0,0c-0.8,3.2-2.4,7.2-4,11.2l-4.8,14.4h-3.2l-4.8-14.4
		c-1.6-4-2.4-8-3.2-12l0,0c0,4,0,8.8-0.8,12.8L216,480h-4l2.4-29.6h4.8l4.8,14.4c1.6,4,2.4,7.2,3.2,10.4l0,0
		c0.8-3.2,1.6-6.4,3.2-10.4l5.6-14.4h4.8l1.6,29.6h-4L238.4,467.2z"/>
	<path style="fill:#E81241;" d="M248.8,450.4h4v26.4h12.8v3.2h-16.8V450.4z"/>
	<path style="fill:#E81241;" d="M289.6,469.6L268.8,480v-3.2l17.6-8.8l0,0l-17.6-8.8V456l20.8,10.4L289.6,469.6L289.6,469.6z"/>
</g>
<g>
</g>
<g>
</g>
<g>
</g>
<g>
</g>
<g>
</g>
<g>
</g>
<g>
</g>
<g>
</g>
<g>
</g>
<g>
</g>
<g>
</g>
<g>
</g>
<g>
</g>
<g>
</g>
<g>
</g>
</svg>
