<?xml version="1.0" standalone="no"?>
<!DOCTYPE svg PUBLIC "-//W3C//DTD SVG 20010904//EN"
 "http://www.w3.org/TR/2001/REC-SVG-20010904/DTD/svg10.dtd">
<svg version="1.0" xmlns="http://www.w3.org/2000/svg"
 width="300.000000pt" height="128.000000pt" viewBox="0 0 300.000000 128.000000"
 preserveAspectRatio="xMidYMid meet">
<metadata>
Created by potrace 1.10, written by Peter Selinger 2001-2011
</metadata>
<g transform="translate(0.000000,128.000000) scale(0.100000,-0.100000)"
fill="#000000" stroke="none">
<path d="M2764 1262 l-200 -2 -27 -55 c-15 -31 -27 -57 -27 -59 0 -3 64 -3
142 -2 99 1 143 6 146 14 5 17 37 15 52 -3 7 -9 29 -15 54 -15 l42 0 18 58
c10 31 18 59 18 62 -1 6 15 6 -218 2z m174 -31 c23 -2 12 -16 -27 -33 -27 -13
-63 -18 -135 -18 -55 0 -107 -5 -119 -12 -20 -10 -21 -10 -8 5 12 15 11 17 -8
17 -12 0 -34 -8 -49 -17 -26 -17 -27 -17 -12 1 8 10 15 24 15 30 0 13 7 16 41
16 14 0 23 -4 19 -10 -4 -6 30 -10 97 -9 57 1 93 4 81 6 -13 2 -23 8 -23 13 0
13 50 18 128 11z"/>
<path d="M851 1163 c-39 -54 -109 -150 -156 -213 -46 -63 -85 -118 -85 -122 0
-5 9 -8 19 -8 11 0 22 -6 24 -12 3 -8 6 -6 6 5 1 9 8 17 16 17 27 0 16 20 -12
21 -27 2 -27 2 -3 6 13 3 29 11 35 19 5 8 22 15 37 16 15 1 24 7 21 12 -4 6 1
6 13 2 15 -6 17 -5 7 5 -17 18 -16 56 1 62 9 4 16 24 19 49 l4 43 1 -42 c3
-63 19 -52 21 14 2 79 11 81 11 2 l0 -64 61 -52 c33 -29 64 -53 67 -53 11 0 1
-113 -10 -127 -15 -19 3 -16 25 5 19 16 19 16 9 -3 -6 -11 -13 -28 -16 -39 -4
-10 -12 -16 -20 -13 -8 3 -22 -3 -31 -13 -10 -11 -21 -17 -25 -15 -5 3 -6 -4
-3 -16 5 -18 3 -20 -18 -14 -17 4 -20 3 -10 -3 7 -5 11 -16 9 -23 -3 -8 1 -20
9 -27 14 -15 11 -74 -4 -79 -6 -2 -20 11 -31 29 -22 37 -27 98 -9 98 9 0 9 2
0 8 -8 5 -7 17 4 47 19 47 30 176 15 160 -6 -5 -24 -58 -42 -117 -26 -90 -29
-110 -19 -130 24 -44 102 -158 109 -158 4 0 17 37 30 83 12 45 25 90 27 100 4
13 -1 17 -20 17 -26 0 -26 -1 -30 -87 l-3 -88 -2 93 -2 92 35 0 c19 0 35 2 35
4 0 3 23 82 50 178 28 95 48 179 45 186 -2 7 -1 11 3 8 7 -4 72 202 72 227 0
4 -49 7 -109 7 l-109 0 -71 -97z m169 62 c-11 -14 -10 -14 14 -5 15 5 32 8 37
4 12 -7 11 -47 -2 -81 -7 -15 -11 -39 -10 -53 1 -14 -3 -34 -9 -45 -5 -11 -14
-51 -19 -90 l-8 -70 -2 78 c0 42 -5 77 -10 77 -15 0 -23 -18 -11 -25 9 -6 6
-102 -4 -112 -8 -8 -27 8 -21 18 4 5 -3 9 -14 9 -25 0 -37 18 -22 33 7 7 11
53 11 118 l0 108 37 30 c37 31 57 34 33 6z m83 -37 l-11 -33 -1 45 c-1 33 2
41 11 32 8 -8 8 -20 1 -44z m-171 -75 c4 -114 -1 -135 -27 -113 -11 9 -13 16
-5 24 5 5 10 52 10 103 0 51 4 93 9 93 5 0 11 -48 13 -107z m-39 15 c6 -43 5
-48 -13 -48 -11 0 -20 3 -20 6 0 11 23 95 25 92 1 -2 5 -24 8 -50z m-7 -110
c-6 -43 -5 -44 54 -92 60 -49 60 -49 58 -100 -1 -46 -2 -47 -5 -11 -3 34 -12
48 -67 100 -54 50 -65 67 -71 103 -6 38 -5 42 15 42 19 0 21 -4 16 -42z m-125
-36 c-12 -8 -21 -21 -21 -28 0 -8 -7 -14 -16 -14 -19 0 -9 18 23 43 13 10 24
28 24 40 2 20 2 19 6 -3 4 -17 -1 -29 -16 -38z"/>
<path d="M967 1113 c-11 -11 -8 -91 4 -98 7 -5 9 11 7 49 -2 31 -3 56 -4 56 0
0 -4 -3 -7 -7z"/>
<path d="M1218 1240 c-17 -13 -37 -53 -62 -124 -20 -57 -36 -108 -35 -113 2
-4 -6 -25 -16 -45 -10 -21 -17 -39 -14 -41 2 -1 38 -1 80 1 l76 3 33 107 c18
59 36 111 41 116 11 12 67 18 73 8 3 -5 -6 -39 -20 -76 -14 -38 -22 -71 -20
-73 3 -3 39 2 80 11 l75 17 35 107 c20 59 36 110 36 115 0 4 -76 7 -169 7
-152 0 -171 -2 -193 -20z m325 -11 c-14 -14 -153 -13 -167 1 -8 8 -6 9 8 4 11
-4 17 -3 14 2 -4 5 27 8 74 6 52 -2 77 -7 71 -13z m-173 -14 c9 -11 33 -15 91
-15 60 0 79 -3 79 -14 0 -40 -86 -49 -170 -17 -33 13 -79 21 -115 21 l-60 1
24 19 c30 25 132 28 151 5z m-60 -55 c-8 -5 -23 -10 -32 -10 -11 0 -15 -5 -12
-15 10 -24 -5 -65 -23 -65 -14 0 -14 -2 2 -20 30 -34 1 -22 -41 16 -21 19 -31
33 -21 30 12 -4 17 0 17 12 0 10 5 23 12 30 9 9 8 12 -5 12 -9 0 -17 5 -17 10
0 6 29 10 68 10 47 0 63 -3 52 -10z m130 -32 c0 7 14 12 35 12 49 0 44 -16 -7
-23 -46 -6 -62 -1 -52 15 4 6 10 5 15 -3 6 -10 9 -11 9 -1z m61 -45 c12 -15
12 -16 -3 -10 -13 4 -16 2 -11 -11 5 -14 3 -15 -8 -4 -20 18 -50 14 -56 -8 -3
-11 -9 -17 -14 -14 -5 3 -4 15 3 27 10 20 10 21 -5 8 -10 -8 -17 -9 -17 -3 0
31 88 43 111 15z m-276 -47 c17 -13 27 -27 24 -31 -4 -3 -24 9 -45 27 l-38 33
23 -37 23 -38 -26 0 c-24 0 -25 3 -23 44 2 49 5 49 62 2z m-12 -73 c-18 -2
-48 -2 -65 0 -18 2 -4 4 32 4 36 0 50 -2 33 -4z m-3 -23 c-20 -13 -57 -13 -65
0 -4 6 11 10 37 10 31 0 39 -3 28 -10z"/>
<path d="M1687 1237 c-21 -17 -38 -55 -77 -172 -28 -82 -50 -149 -50 -150 0 0
35 1 77 2 l78 1 32 94 c18 51 39 107 48 123 8 17 16 50 18 75 l4 45 3 -55 3
-55 7 55 7 55 1 -53 c1 -29 6 -51 11 -48 5 3 7 23 4 45 -3 25 -1 41 7 46 9 6
11 -9 8 -63 l-5 -71 44 -31 c24 -18 42 -35 39 -38 -3 -3 -24 9 -47 27 -22 18
-41 31 -43 30 -7 -11 -35 -93 -32 -96 7 -7 150 28 157 38 3 6 16 43 29 82 19
62 32 97 48 130 2 4 -75 7 -170 7 -164 0 -174 -1 -201 -23z m86 6 c4 -3 1 -13
-6 -21 -10 -13 -9 -15 5 -9 30 11 29 -9 -3 -57 -32 -48 -49 -64 -49 -47 0 5 5
13 10 16 6 4 8 11 4 16 -3 6 -11 3 -18 -7 -12 -16 -15 -16 -36 -1 l-23 16 25
6 c15 4 25 13 24 23 0 9 9 21 21 27 13 7 20 14 17 18 -7 7 4 27 15 27 4 0 11
-3 14 -7z m168 -12 c11 19 15 11 22 -48 5 -48 4 -53 -14 -53 -17 0 -18 5 -13
42 5 31 4 39 -5 34 -7 -4 -19 -5 -27 -2 -12 5 -12 9 -2 26 11 17 14 18 21 4 8
-13 11 -14 18 -3z m33 -142 c-9 -11 -13 -19 -9 -19 5 0 6 -3 2 -6 -11 -11 -67
40 -67 61 0 11 -6 27 -12 33 -10 10 -10 15 2 22 19 12 45 -9 30 -24 -16 -16
-12 -36 12 -56 22 -17 23 -17 36 2 10 13 12 33 8 59 -3 22 -3 52 1 67 6 20 9
8 11 -47 2 -58 -1 -77 -14 -92z m-284 1 c0 -15 -7 -20 -24 -20 -31 0 -40 14
-26 40 9 16 15 18 30 10 11 -6 20 -20 20 -30z m50 -36 c0 -12 -6 -15 -22 -10
-13 3 -39 6 -58 7 -33 2 -32 2 10 9 25 4 51 8 58 8 6 1 12 -5 12 -14z m-15
-44 c-3 -5 -14 -10 -24 -10 -12 0 -17 -7 -17 -21 2 -35 -27 -46 -58 -22 l-26
21 27 21 c29 21 110 30 98 11z"/>
<path d="M2121 1205 c-22 -31 -41 -58 -41 -60 0 -2 27 -4 59 -4 71 0 85 12 79
69 -3 36 -2 39 17 34 11 -4 24 -7 30 -8 5 0 14 -6 20 -13 16 -18 95 -21 95 -3
0 7 -16 9 -40 6 -27 -3 -40 -1 -40 7 0 8 16 11 50 9 27 -2 50 -8 50 -14 0 -5
9 -7 19 -3 23 7 37 -11 22 -29 -6 -7 -7 -16 -3 -21 4 -4 -3 -3 -15 4 -12 6
-32 11 -45 11 -23 -1 -23 -1 -3 -16 19 -14 19 -15 -10 -9 -70 16 -81 15 -105
-5 -24 -19 -24 -20 -4 -20 12 0 27 7 34 15 7 8 20 15 29 14 11 0 9 -3 -6 -9
-39 -16 -26 -20 60 -18 l84 1 11 41 c6 23 14 49 17 59 7 16 -5 17 -157 17
l-165 0 -42 -55z m40 -32 c-23 -19 -29 -16 -23 14 5 25 6 25 13 8 6 -16 8 -13
9 15 l2 35 7 -30 c6 -21 3 -34 -8 -42z"/>
<path d="M2143 1118 c-4 -7 -6 -52 -5 -99 2 -68 0 -88 -13 -99 -11 -10 -13
-16 -4 -26 9 -11 8 -15 -4 -20 -33 -12 -38 7 -13 41 21 27 26 45 26 92 -1 46
-3 54 -11 40 -6 -10 -9 -27 -6 -38 3 -10 2 -17 -3 -14 -4 3 -10 -4 -13 -15 -3
-11 -1 -20 4 -20 5 0 9 -4 9 -10 0 -5 -7 -10 -15 -10 -8 0 -17 -12 -21 -27 -3
-16 -10 -39 -16 -53 -6 -14 -39 -108 -73 -210 -34 -102 -66 -193 -70 -202 -7
-17 4 -18 139 -18 l147 0 39 63 40 62 -81 3 c-88 3 -87 3 -63 66 5 13 -6 16
-68 19 l-73 3 75 2 76 2 24 70 24 69 75 3 74 3 18 50 c27 77 28 77 -45 70 -37
-4 -66 -2 -70 3 -3 5 8 49 24 98 17 48 30 93 30 99 0 7 -16 12 -35 13 -24 1
-35 -3 -35 -12 0 -19 32 -30 42 -14 5 9 8 10 8 1 0 -6 -5 -15 -10 -18 -6 -4
-7 -12 -4 -18 5 -9 3 -8 -6 0 -15 14 -40 0 -40 -21 0 -6 5 -4 10 4 8 13 10 13
10 -2 0 -11 5 -15 15 -12 12 5 13 2 6 -17 -5 -16 -16 -24 -32 -24 -19 0 -24 5
-24 27 -1 16 -7 34 -14 40 -10 11 -11 10 -7 -2 2 -8 7 -34 10 -57 5 -37 4 -43
-12 -43 -17 0 -18 8 -14 85 4 82 -4 106 -25 73z m80 -180 c-6 -7 -13 -22 -17
-32 -5 -16 -4 -17 8 -6 11 8 24 9 42 3 l26 -9 -41 -37 c-45 -41 -45 -49 0 -16
16 11 29 16 29 10 0 -6 7 -8 16 -4 14 5 15 3 5 -15 -13 -24 -22 -27 -38 -11
-7 7 -14 6 -24 -3 -17 -16 -54 -24 -45 -9 4 5 2 12 -4 16 -6 4 -11 -14 -12
-47 l-2 -53 -3 48 c-6 73 -28 60 -28 -17 0 -77 -13 -96 -66 -96 -22 0 -39 4
-39 8 0 30 35 120 52 135 16 14 17 17 4 17 -9 0 -16 5 -16 10 0 6 20 10 44 10
45 0 51 9 32 53 -12 25 12 50 40 43 13 -4 26 -2 29 4 3 5 9 10 12 10 3 0 1 -6
-4 -12z m113 -80 c-9 -12 -17 -32 -17 -43 -1 -13 -4 -10 -9 10 -5 23 -2 34 13
48 26 23 33 15 13 -15z m-236 -259 c0 -18 7 -41 16 -51 16 -16 15 -18 -7 -27
-19 -8 -20 -10 -6 -10 11 -1 32 8 48 20 18 12 37 18 47 14 11 -4 13 -8 5 -13
-7 -5 -6 -11 4 -21 12 -11 14 -10 11 4 -2 10 2 20 7 22 17 5 15 -34 -1 -48
-13 -10 -17 -10 -26 2 -8 12 -9 11 -5 -2 3 -9 1 -22 -4 -30 -7 -12 -9 -12 -10
1 -1 8 -1 21 0 29 2 10 -3 9 -21 -3 -16 -11 -45 -16 -96 -16 -62 0 -73 -3 -68
-15 4 -11 -1 -15 -19 -15 -23 0 -25 4 -25 41 l0 41 43 -6 c34 -5 37 -4 18 4
-20 9 -21 12 -10 26 11 13 10 17 -4 25 -19 11 -22 30 -7 45 5 5 32 10 60 12
l50 3 0 -32z"/>
<path d="M2149 514 c-10 -13 -30 -15 -99 -12 -69 2 -84 1 -74 -9 8 -8 40 -13
83 -13 60 0 74 3 98 25 15 13 23 25 17 25 -6 0 -17 -7 -25 -16z"/>
<path d="M2201 1098 c0 -28 2 -30 9 -13 5 12 9 14 9 6 1 -8 3 -12 6 -10 7 8
-6 49 -16 49 -5 0 -9 -15 -8 -32z"/>
<path d="M2586 953 c-57 -172 -67 -206 -59 -190 6 10 115 9 131 -2 21 -13 -10
-21 -82 -21 l-62 0 -48 -142 c-26 -79 -50 -148 -52 -155 -4 -9 17 -11 78 -9
l83 3 11 39 c7 21 58 172 113 336 56 163 101 301 101 308 0 18 -85 8 -86 -10
-1 -8 -2 -27 -2 -42 -2 -34 -19 -37 -25 -5 l-4 22 -2 -22 c-2 -35 -21 -27 -22
10 -1 17 -1 38 0 45 1 6 -2 12 -6 12 -5 0 -35 -80 -67 -177z m164 73 c0 -28
-16 -36 -71 -36 -32 0 -59 2 -59 4 0 28 16 36 71 36 32 0 59 -2 59 -4z m-35
-66 c4 -6 -15 -10 -50 -10 -35 0 -54 4 -50 10 3 6 26 10 50 10 24 0 47 -4 50
-10z m-5 -35 c-16 -19 -101 -17 -108 3 -3 9 13 12 58 12 55 0 61 -2 50 -15z
m-10 -32 c-21 -6 -52 -73 -34 -73 8 0 14 -4 14 -10 0 -6 -29 -10 -67 -10 -44
0 -64 3 -57 10 5 5 22 11 37 12 28 2 38 18 12 18 -17 0 -20 16 -5 25 15 10 12
23 -7 28 -10 3 14 5 52 5 39 0 63 -2 55 -5z m-82 -175 c-5 -15 -50 -17 -55 -3
-2 6 11 12 28 13 21 2 30 -1 27 -10z m16 -39 c-3 -5 -15 -9 -27 -10 -20 -1
-20 -2 3 -9 21 -7 16 -8 -25 -11 l-50 -2 45 -7 45 -7 -51 -1 c-35 -2 -56 3
-64 13 -14 17 -7 19 40 15 14 -1 22 1 19 4 -3 3 -17 7 -31 8 -13 1 -25 7 -25
13 0 6 24 9 64 7 35 -2 61 -8 57 -13z m-74 -64 c0 -7 -43 -45 -50 -45 -4 0 -5
11 -2 25 3 18 11 25 28 25 13 0 24 -2 24 -5z m40 -24 c-8 -6 -19 -7 -25 -4 -5
4 -7 3 -3 -2 4 -4 2 -15 -4 -24 -10 -13 -10 -14 2 -3 8 6 18 12 23 12 5 0 -2
-9 -17 -21 -20 -16 -26 -29 -27 -62 0 -33 -2 -38 -9 -22 -5 11 -9 14 -9 7 -1
-7 -5 -10 -11 -7 -5 3 -10 0 -11 -7 -1 -22 -18 26 -18 54 -1 32 61 87 99 88
19 0 22 -2 10 -9z"/>
<path d="M1066 853 c-9 -26 -16 -50 -16 -55 0 -4 48 -8 106 -8 l107 0 -6 -29
c-4 -17 -21 -71 -38 -120 -31 -90 -32 -91 -65 -91 -39 0 -39 2 -19 60 8 23 15
46 15 50 0 4 -33 8 -74 8 l-73 -1 -28 -88 c-27 -83 -28 -89 -12 -113 23 -34
44 -38 184 -34 166 4 158 -3 229 211 82 249 78 256 -154 256 l-140 0 -16 -46z
m300 7 c32 -16 35 -19 16 -20 -13 0 -20 -4 -17 -10 12 -19 -33 -10 -56 11 -24
21 -20 21 29 2 15 -6 15 -4 -2 15 -23 27 -20 27 30 2z m-70 -25 c23 -17 46
-25 76 -26 33 0 38 -2 23 -9 -11 -5 -14 -9 -7 -9 28 -2 9 -21 -20 -21 -21 0
-28 -3 -20 -8 7 -5 10 -19 8 -33 -3 -13 -5 -27 -5 -31 -1 -5 -17 -8 -36 -8
-41 0 -49 25 -12 41 21 9 20 9 -5 6 -39 -6 -35 10 5 22 22 6 25 9 11 10 -11 1
-29 11 -40 23 l-19 21 26 -17 c22 -13 26 -14 26 -1 0 8 -4 12 -9 9 -5 -3 -19
2 -30 13 -12 10 -18 12 -14 6 5 -10 -12 -13 -76 -12 -57 1 -75 4 -58 9 25 8
25 8 -5 10 -16 1 -24 4 -17 7 6 2 10 9 6 14 -3 5 30 9 77 9 72 0 86 -3 115
-25z m68 -170 c-5 -11 -21 -15 -60 -15 -50 0 -64 7 -47 23 3 4 30 7 59 7 43 0
52 -3 48 -15z m-274 -49 c0 -8 -12 -24 -26 -35 -32 -25 -24 -28 12 -5 33 22
39 13 13 -19 -17 -22 -29 -27 -65 -27 -46 0 -59 14 -24 25 15 5 19 12 15 25
-4 12 2 24 17 34 28 20 58 21 58 2z m230 -4 c0 -41 -45 -55 -73 -24 -22 24 -5
42 40 42 25 0 33 -4 33 -18z m-70 -48 c6 -15 14 -22 22 -18 7 4 8 3 4 -4 -4
-7 -14 -12 -22 -12 -8 0 -13 4 -10 9 3 5 -4 11 -16 14 -18 5 -19 8 -8 21 17
21 19 20 30 -10z m64 -35 c-10 -12 -18 -24 -16 -28 1 -3 -70 -7 -158 -9 -97
-1 -160 1 -160 7 0 16 32 21 134 20 74 -1 100 2 107 12 6 10 9 11 9 2 0 -18
51 -16 74 2 28 21 32 18 10 -6z m-37 -56 c-8 -7 -278 -5 -286 2 -2 3 62 5 144
5 82 0 145 -3 142 -7z"/>
<path d="M1537 851 c-9 -27 -17 -51 -17 -55 0 -3 47 -6 103 -6 57 0 106 -3
109 -6 5 -5 -41 -153 -67 -216 -4 -11 -18 -18 -36 -18 -34 0 -34 3 -14 61 9
24 12 46 7 51 -5 5 -40 8 -77 6 l-68 -3 -24 -69 c-26 -80 -29 -119 -9 -139 20
-20 148 -28 281 -18 42 3 65 35 104 147 21 61 41 124 45 139 6 25 5 27 -8 16
-11 -9 -16 -10 -16 -2 0 6 -9 11 -20 11 -12 0 -17 -5 -14 -14 3 -8 0 -17 -5
-21 -6 -3 -9 -10 -6 -15 3 -5 1 -11 -5 -15 -5 -3 -10 -11 -10 -16 0 -6 16 2
35 17 64 48 36 16 -42 -50 l-77 -65 2 -48 c1 -26 -2 -55 -8 -63 -8 -13 -10
-12 -11 5 0 20 0 20 -9 0 -6 -14 -9 -5 -9 35 -1 39 2 51 9 40 7 -12 10 -8 10
14 0 21 13 41 45 74 34 34 42 48 35 58 -8 9 -6 15 7 23 15 9 16 10 2 11 -21 0
-40 23 -31 36 10 16 132 25 132 11 1 -30 20 22 20 54 0 53 -24 69 -114 76 -61
5 -80 3 -94 -10 -9 -8 -28 -17 -42 -20 -23 -4 -23 -4 4 -6 16 0 38 6 48 16 10
9 18 11 18 6 0 -6 -11 -18 -25 -27 -14 -9 -23 -21 -20 -26 10 -17 -33 -32 -56
-20 -11 7 -32 9 -46 5 -16 -4 -22 -2 -18 5 3 5 18 11 33 11 27 1 27 1 -3 8
-25 5 -27 8 -12 14 10 4 15 11 12 17 -4 6 11 10 39 10 25 0 48 5 51 10 4 6
-17 10 -57 10 l-63 0 -18 -49z m311 -7 c10 -3 10 -9 2 -25 -11 -19 -13 -19
-29 -5 -10 9 -22 16 -28 16 -6 0 -14 6 -16 13 -4 8 -6 6 -6 -4 -1 -9 -12 -21
-26 -27 -35 -16 -35 -16 -22 13 15 30 66 38 125 19z m-32 -35 c11 -18 -11 -30
-45 -23 -33 7 -31 18 4 27 32 8 34 8 41 -4z m-63 -125 c9 -9 -22 -53 -47 -66
l-21 -11 20 23 c11 12 19 31 17 41 -3 18 17 26 31 13z m-158 -77 c-11 -27 -12
-43 -5 -62 25 -66 -5 -96 -85 -85 -27 4 -39 8 -26 9 43 2 61 28 61 87 0 48 3
54 32 72 18 12 34 20 35 18 2 -2 -4 -19 -12 -39z m-62 4 c-5 -19 -49 -38 -61
-26 -3 3 1 5 9 5 12 0 11 2 -1 11 -12 9 -11 10 8 6 15 -3 22 0 22 9 0 8 6 14
14 14 9 0 12 -7 9 -19z m275 -11 c-22 -30 -42 -38 -52 -21 -5 7 51 45 72 50 1
1 -7 -12 -20 -29z m-303 -50 c0 -8 4 -18 9 -21 5 -4 5 -12 2 -18 -9 -14 -46
-15 -46 -1 0 6 5 10 12 10 6 0 4 6 -7 13 -10 8 -15 19 -11 26 10 16 41 9 41
-9z m285 -20 c0 -5 -10 -10 -22 -11 -22 -1 -22 -1 2 -9 24 -8 24 -8 -5 -9 -24
-1 -31 3 -31 19 0 15 7 20 28 20 15 0 28 -4 28 -10z"/>
<path d="M819 867 c-14 -12 -39 -32 -55 -45 -16 -12 -29 -26 -29 -30 0 -4 -16
-6 -35 -5 -19 0 -25 -1 -12 -4 26 -5 29 -31 5 -40 -10 -4 -32 -17 -49 -30 -23
-17 -43 -23 -75 -21 l-44 1 40 4 c38 4 95 43 95 66 0 5 -9 -2 -20 -15 -23 -30
-60 -43 -60 -22 0 8 6 17 14 20 23 9 26 29 6 41 -15 10 -24 2 -66 -55 -26 -37
-98 -134 -159 -217 -61 -82 -132 -179 -157 -215 -26 -36 -83 -114 -128 -173
l-80 -108 107 3 107 3 121 165 121 165 108 3 c60 1 113 -1 118 -6 6 -6 3 -24
-6 -46 -8 -20 -11 -36 -6 -36 14 0 200 141 200 151 0 14 -42 69 -53 69 -5 0
-39 -26 -75 -59 -37 -32 -75 -58 -84 -58 -9 0 -15 4 -12 9 3 5 11 5 17 2 7 -4
9 -3 4 1 -4 5 7 23 24 41 22 23 29 38 24 53 -5 18 -13 20 -79 17 -58 -2 -73 1
-69 11 8 20 -140 18 -157 -2 -7 -9 -32 -30 -54 -47 -41 -31 -40 -31 9 20 37
39 57 52 80 53 l30 2 -35 7 c-24 5 -8 7 55 7 77 0 82 -1 35 -6 l-55 -7 53 -4
54 -5 116 160 c64 88 123 165 131 171 7 6 12 16 10 22 -2 6 -15 2 -30 -11z
m-104 -144 c-32 -6 -100 -66 -100 -88 0 -15 -8 -21 -32 -23 -19 -2 -33 1 -33
7 0 14 -47 14 -55 1 -3 -5 -11 -10 -18 -10 -6 0 -2 7 9 15 10 8 29 15 41 15
12 0 25 5 28 10 4 6 -5 10 -21 10 -43 0 -23 8 36 15 36 4 63 14 83 31 16 14
40 23 55 23 20 -1 22 -3 7 -6z m-95 -133 c-20 -13 -157 -13 -165 0 -4 6 27 10
87 10 64 0 88 -3 78 -10z m-57 -27 c-23 -2 -64 -2 -90 0 -26 2 -7 3 42 3 50 0
71 -1 48 -3z m-19 -65 c-3 -4 3 -11 13 -15 69 -24 81 -32 76 -50 -9 -35 -153
-85 -153 -54 0 5 14 19 30 31 28 20 39 40 22 40 -4 0 -25 -16 -45 -35 -20 -19
-37 -32 -38 -27 0 4 -4 -3 -9 -15 -8 -20 -14 -22 -52 -17 -41 5 -47 3 -113
-52 l-70 -57 65 66 c35 37 71 67 80 67 13 0 13 1 0 10 -12 8 -10 14 15 42 67
73 77 79 132 77 29 -2 50 -6 47 -11z m162 -30 c4 -6 2 -14 -4 -16 -7 -2 -12
-10 -12 -17 0 -13 -62 -65 -77 -65 -4 0 10 16 32 35 31 27 37 37 26 44 -16 10
-6 31 14 31 8 0 17 -5 21 -12z m140 -28 c-26 -11 -96 -74 -96 -87 0 -7 -9 -13
-20 -13 -27 0 -25 28 3 39 12 5 40 26 62 48 28 26 43 35 51 28 9 -7 9 -11 0
-15z m19 -19 c-3 -5 -24 -24 -48 -42 l-42 -33 30 34 c17 19 35 38 40 42 14 11
27 10 20 -1z m-562 -63 c-10 -11 -27 -24 -38 -30 -12 -5 -7 3 13 21 17 17 33
39 33 48 1 17 2 17 6 0 3 -10 -3 -28 -14 -39z m67 -19 c-11 -8 -7 -9 17 -5 18
3 35 1 38 -5 4 -5 1 -8 -7 -7 -7 2 -12 -2 -11 -7 1 -6 -16 -9 -41 -7 -32 3
-46 -1 -56 -15 -12 -15 -12 -16 0 -5 17 15 60 16 60 1 0 -17 -22 -35 -70 -56
-25 -11 -51 -27 -58 -36 -8 -9 -20 -13 -27 -11 -10 4 -12 0 -8 -15 4 -14 0
-23 -13 -27 -11 -4 -39 -23 -64 -44 -72 -58 -80 -56 -17 5 31 31 57 61 57 65
0 5 19 20 42 34 l43 26 -40 -5 c-22 -2 -31 -2 -20 1 11 4 44 28 74 55 30 27
61 49 69 49 7 0 10 5 7 10 -3 6 4 10 17 10 19 0 20 -2 8 -11z m-44 -146 c-11
-13 -49 -53 -83 -89 -49 -50 -68 -64 -92 -64 -16 0 -38 -3 -48 -6 -20 -6 83
95 159 156 31 25 54 36 67 33 18 -5 18 -6 -3 -30z"/>
<path d="M913 874 c19 -23 24 -99 7 -109 -6 -4 -8 -11 -4 -16 12 -21 24 5 24
55 0 43 -4 57 -22 72 -23 19 -23 19 -5 -2z"/>
<path d="M753 540 c-6 -25 -7 -40 -1 -40 6 0 7 -12 3 -27 l-6 -28 35 34 36 35
-20 30 c-27 43 -34 42 -47 -4z"/>
<path d="M876 383 c-4 -12 -18 -31 -32 -42 -20 -16 -24 -28 -24 -70 0 -48 -2
-51 -25 -51 -22 0 -25 4 -25 40 0 42 -9 50 -29 26 -9 -11 -9 -15 1 -19 7 -3 2
-6 -12 -6 -31 -1 -70 -27 -70 -47 0 -12 15 -14 87 -12 l87 3 28 85 c15 47 26
92 25 100 -2 10 -6 8 -11 -7z"/>
<path d="M933 350 c-8 -19 -23 -54 -33 -77 -19 -44 -17 -53 11 -53 25 0 32 15
31 69 0 25 2 39 5 31 4 -8 10 -18 16 -21 6 -5 6 -17 -1 -37 -12 -34 -8 -42 20
-42 16 0 17 6 12 39 -5 33 -3 40 13 45 18 6 43 44 43 66 0 4 -23 10 -52 12
-50 3 -51 2 -65 -32z"/>
<path d="M1217 380 c-28 -4 -41 -12 -52 -34 -21 -39 -19 -56 6 -56 28 0 19
-24 -12 -29 -25 -3 -41 -19 -33 -33 3 -4 23 -8 44 -8 43 0 52 10 65 68 5 25 3
32 -9 32 -10 0 -16 -13 -19 -42 -3 -33 -4 -30 -3 12 1 51 3 55 26 58 14 2 29
8 35 13 16 16 -8 25 -48 19z"/>
<path d="M1328 383 c-35 -4 -38 -7 -62 -71 -14 -37 -26 -71 -26 -75 0 -14 83
-3 88 11 3 10 -5 13 -29 10 -22 -2 -34 2 -36 12 -4 13 -3 13 6 0 8 -12 11 -6
12 25 l2 40 7 -35 c4 -19 8 -29 9 -22 0 6 12 12 26 12 16 0 25 6 25 15 0 8 -7
15 -16 15 -24 0 -11 24 17 30 21 5 43 43 22 38 -4 -1 -25 -3 -45 -5z"/>
<path d="M1380 312 c-25 -40 -43 -76 -40 -80 11 -13 41 -8 50 8 5 10 21 25 35
34 22 14 25 14 25 1 0 -8 -6 -15 -14 -15 -15 0 -28 -24 -19 -34 4 -3 14 -6 23
-6 13 0 20 15 29 63 7 34 15 71 17 83 4 17 0 20 -28 20 -31 0 -37 -6 -78 -74z"/>
<path d="M1805 382 c-14 -2 -28 -22 -47 -71 -16 -37 -28 -70 -28 -74 0 -4 11
-7 24 -7 19 0 26 7 31 30 4 17 13 30 21 30 12 0 12 -5 -1 -31 -16 -30 -16 -30
10 -27 23 3 31 14 57 76 17 40 28 75 26 77 -11 12 -48 -11 -58 -36 -7 -16 -16
-29 -21 -29 -12 0 -11 7 2 31 13 26 9 35 -16 31z"/>
<path d="M2001 380 c-43 -5 -46 -7 -67 -60 -32 -77 -31 -86 12 -93 48 -8 62
-1 79 40 20 47 19 53 -9 53 -18 0 -25 -7 -29 -30 -4 -16 -13 -30 -21 -30 -11
0 -9 10 7 45 17 37 26 45 48 45 15 0 29 7 32 15 8 19 0 22 -52 15z"/>
<path d="M2082 370 c-3 -8 -16 -42 -28 -74 -13 -33 -24 -61 -24 -63 0 -2 10
-3 23 -3 18 0 26 8 35 37 6 20 8 41 5 47 -4 6 1 5 10 -3 14 -11 20 -11 35 0
15 12 16 12 5 -2 -7 -9 -9 -20 -5 -24 4 -5 2 -5 -5 -1 -8 4 -18 -5 -28 -24
l-16 -31 27 3 c20 2 30 11 37 33 5 17 15 44 23 62 21 47 18 51 -37 55 -39 2
-53 -1 -57 -12z"/>
<path d="M2342 370 c-3 -8 -15 -40 -28 -70 -12 -30 -19 -58 -16 -62 11 -11 76
-19 88 -11 6 5 25 41 42 81 l31 73 -26 -3 c-22 -2 -29 -13 -46 -60 -12 -32
-27 -58 -33 -58 -9 0 -5 17 12 55 13 31 24 60 24 65 0 15 -42 7 -48 -10z"/>
<path d="M1047 308 c-15 -40 -27 -75 -27 -79 0 -3 19 -5 42 -4 32 1 44 5 46
18 2 10 -3 17 -12 17 -9 0 -16 7 -16 15 0 9 9 15 25 15 16 0 25 6 25 15 0 8
-7 15 -16 15 -24 0 -11 24 16 30 43 10 35 30 -12 30 l-43 0 -28 -72z"/>
<path d="M1507 312 c-33 -82 -33 -89 -5 -87 16 1 24 11 30 33 5 17 13 34 20
38 11 7 9 -10 -7 -48 -6 -14 -2 -18 17 -18 21 0 28 10 51 69 15 38 27 71 27
75 0 3 -24 6 -53 6 l-54 0 -26 -68z"/>
<path d="M1637 314 c-15 -37 -24 -71 -21 -75 9 -16 91 -10 98 6 4 11 -2 15
-23 15 l-29 0 21 51 c17 39 23 46 27 31 4 -15 10 -18 26 -12 12 5 24 18 27 29
5 19 1 21 -47 21 l-53 0 -26 -66z"/>
<path d="M2204 345 c-7 -19 -21 -51 -29 -70 -17 -43 -10 -48 55 -43 42 3 42 3
66 67 13 35 24 67 24 72 0 5 -23 9 -51 9 -48 0 -51 -2 -65 -35z m66 6 c0 -5
-10 -31 -21 -58 -27 -60 -38 -39 -12 22 16 41 33 59 33 36z"/>
<path d="M2448 312 c-33 -82 -34 -87 -8 -89 14 -1 24 7 30 23 7 18 17 24 40
24 27 0 33 6 50 46 11 25 20 50 20 55 0 5 -24 9 -52 9 l-53 0 -27 -68z m77 26
c-9 -27 -22 -44 -30 -36 -8 7 16 58 27 58 5 0 6 -10 3 -22z"/>
<path d="M1140 189 c-135 -5 -256 -13 -270 -18 -45 -15 498 -24 1010 -17 900
12 929 33 55 40 -302 2 -660 0 -795 -5z m1179 -13 c-10 -9 -1046 -16 -1074 -7
-20 6 158 10 524 10 305 1 552 -1 550 -3z"/>
</g>
</svg>
